<?xml version="1.0" encoding="utf-8" standalone="no"?>
<!DOCTYPE svg PUBLIC "-//W3C//DTD SVG 1.1//EN"
  "http://www.w3.org/Graphics/SVG/1.1/DTD/svg11.dtd">
<svg xmlns:xlink="http://www.w3.org/1999/xlink" width="936pt" height="504pt" viewBox="0 0 936 504" xmlns="http://www.w3.org/2000/svg" version="1.1">
 <metadata>
  <rdf:RDF xmlns:dc="http://purl.org/dc/elements/1.1/" xmlns:cc="http://creativecommons.org/ns#" xmlns:rdf="http://www.w3.org/1999/02/22-rdf-syntax-ns#">
   <cc:Work>
    <dc:type rdf:resource="http://purl.org/dc/dcmitype/StillImage"/>
    <dc:date>2026-05-19T22:16:45.744756</dc:date>
    <dc:format>image/svg+xml</dc:format>
    <dc:creator>
     <cc:Agent>
      <dc:title>Matplotlib v3.10.9, https://matplotlib.org/</dc:title>
     </cc:Agent>
    </dc:creator>
   </cc:Work>
  </rdf:RDF>
 </metadata>
 <defs>
  <style type="text/css">*{stroke-linejoin: round; stroke-linecap: butt}</style>
 </defs>
 <g id="figure_1">
  <g id="patch_1">
   <path d="M 0 504 
L 936 504 
L 936 0 
L 0 0 
z
" style="fill: #ffffff"/>
  </g>
  <g id="axes_1">
   <g id="patch_2">
    <path d="M 54.02 215.10609 
L 465.75 215.10609 
L 465.75 10.8 
L 54.02 10.8 
z
" style="fill: #ffffff"/>
   </g>
   <g id="matplotlib.axis_1">
    <g id="xtick_1">
     <g id="line2d_1">
      <defs>
       <path id="md8d05b2ff9" d="M 0 0 
L 0 3.5 
" style="stroke: #000000; stroke-width: 0.8"/>
      </defs>
      <g>
       <use xlink:href="#md8d05b2ff9" x="72.735" y="215.10609" style="stroke: #000000; stroke-width: 0.8"/>
      </g>
     </g>
     <g id="text_1">
      <!-- 0 -->
      <g transform="translate(69.55375 229.704528) scale(0.1 -0.1)">
       <defs>
        <path id="DejaVuSans-30" d="M 2034 4250 
Q 1547 4250 1301 3770 
Q 1056 3291 1056 2328 
Q 1056 1369 1301 889 
Q 1547 409 2034 409 
Q 2525 409 2770 889 
Q 3016 1369 3016 2328 
Q 3016 3291 2770 3770 
Q 2525 4250 2034 4250 
z
M 2034 4750 
Q 2819 4750 3233 4129 
Q 3647 3509 3647 2328 
Q 3647 1150 3233 529 
Q 2819 -91 2034 -91 
Q 1250 -91 836 529 
Q 422 1150 422 2328 
Q 422 3509 836 4129 
Q 1250 4750 2034 4750 
z
" transform="scale(0.015625)"/>
       </defs>
       <use xlink:href="#DejaVuSans-30"/>
      </g>
     </g>
    </g>
    <g id="xtick_2">
     <g id="line2d_2">
      <g>
       <use xlink:href="#md8d05b2ff9" x="135.118333" y="215.10609" style="stroke: #000000; stroke-width: 0.8"/>
      </g>
     </g>
     <g id="text_2">
      <!-- 2 -->
      <g transform="translate(131.937083 229.704528) scale(0.1 -0.1)">
       <defs>
        <path id="DejaVuSans-32" d="M 1228 531 
L 3431 531 
L 3431 0 
L 469 0 
L 469 531 
Q 828 903 1448 1529 
Q 2069 2156 2228 2338 
Q 2531 2678 2651 2914 
Q 2772 3150 2772 3378 
Q 2772 3750 2511 3984 
Q 2250 4219 1831 4219 
Q 1534 4219 1204 4116 
Q 875 4013 500 3803 
L 500 4441 
Q 881 4594 1212 4672 
Q 1544 4750 1819 4750 
Q 2544 4750 2975 4387 
Q 3406 4025 3406 3419 
Q 3406 3131 3298 2873 
Q 3191 2616 2906 2266 
Q 2828 2175 2409 1742 
Q 1991 1309 1228 531 
z
" transform="scale(0.015625)"/>
       </defs>
       <use xlink:href="#DejaVuSans-32"/>
      </g>
     </g>
    </g>
    <g id="xtick_3">
     <g id="line2d_3">
      <g>
       <use xlink:href="#md8d05b2ff9" x="197.501667" y="215.10609" style="stroke: #000000; stroke-width: 0.8"/>
      </g>
     </g>
     <g id="text_3">
      <!-- 4 -->
      <g transform="translate(194.320417 229.704528) scale(0.1 -0.1)">
       <defs>
        <path id="DejaVuSans-34" d="M 2419 4116 
L 825 1625 
L 2419 1625 
L 2419 4116 
z
M 2253 4666 
L 3047 4666 
L 3047 1625 
L 3713 1625 
L 3713 1100 
L 3047 1100 
L 3047 0 
L 2419 0 
L 2419 1100 
L 313 1100 
L 313 1709 
L 2253 4666 
z
" transform="scale(0.015625)"/>
       </defs>
       <use xlink:href="#DejaVuSans-34"/>
      </g>
     </g>
    </g>
    <g id="xtick_4">
     <g id="line2d_4">
      <g>
       <use xlink:href="#md8d05b2ff9" x="259.885" y="215.10609" style="stroke: #000000; stroke-width: 0.8"/>
      </g>
     </g>
     <g id="text_4">
      <!-- 6 -->
      <g transform="translate(256.70375 229.704528) scale(0.1 -0.1)">
       <defs>
        <path id="DejaVuSans-36" d="M 2113 2584 
Q 1688 2584 1439 2293 
Q 1191 2003 1191 1497 
Q 1191 994 1439 701 
Q 1688 409 2113 409 
Q 2538 409 2786 701 
Q 3034 994 3034 1497 
Q 3034 2003 2786 2293 
Q 2538 2584 2113 2584 
z
M 3366 4563 
L 3366 3988 
Q 3128 4100 2886 4159 
Q 2644 4219 2406 4219 
Q 1781 4219 1451 3797 
Q 1122 3375 1075 2522 
Q 1259 2794 1537 2939 
Q 1816 3084 2150 3084 
Q 2853 3084 3261 2657 
Q 3669 2231 3669 1497 
Q 3669 778 3244 343 
Q 2819 -91 2113 -91 
Q 1303 -91 875 529 
Q 447 1150 447 2328 
Q 447 3434 972 4092 
Q 1497 4750 2381 4750 
Q 2619 4750 2861 4703 
Q 3103 4656 3366 4563 
z
" transform="scale(0.015625)"/>
       </defs>
       <use xlink:href="#DejaVuSans-36"/>
      </g>
     </g>
    </g>
    <g id="xtick_5">
     <g id="line2d_5">
      <g>
       <use xlink:href="#md8d05b2ff9" x="322.268333" y="215.10609" style="stroke: #000000; stroke-width: 0.8"/>
      </g>
     </g>
     <g id="text_5">
      <!-- 8 -->
      <g transform="translate(319.087083 229.704528) scale(0.1 -0.1)">
       <defs>
        <path id="DejaVuSans-38" d="M 2034 2216 
Q 1584 2216 1326 1975 
Q 1069 1734 1069 1313 
Q 1069 891 1326 650 
Q 1584 409 2034 409 
Q 2484 409 2743 651 
Q 3003 894 3003 1313 
Q 3003 1734 2745 1975 
Q 2488 2216 2034 2216 
z
M 1403 2484 
Q 997 2584 770 2862 
Q 544 3141 544 3541 
Q 544 4100 942 4425 
Q 1341 4750 2034 4750 
Q 2731 4750 3128 4425 
Q 3525 4100 3525 3541 
Q 3525 3141 3298 2862 
Q 3072 2584 2669 2484 
Q 3125 2378 3379 2068 
Q 3634 1759 3634 1313 
Q 3634 634 3220 271 
Q 2806 -91 2034 -91 
Q 1263 -91 848 271 
Q 434 634 434 1313 
Q 434 1759 690 2068 
Q 947 2378 1403 2484 
z
M 1172 3481 
Q 1172 3119 1398 2916 
Q 1625 2713 2034 2713 
Q 2441 2713 2670 2916 
Q 2900 3119 2900 3481 
Q 2900 3844 2670 4047 
Q 2441 4250 2034 4250 
Q 1625 4250 1398 4047 
Q 1172 3844 1172 3481 
z
" transform="scale(0.015625)"/>
       </defs>
       <use xlink:href="#DejaVuSans-38"/>
      </g>
     </g>
    </g>
    <g id="xtick_6">
     <g id="line2d_6">
      <g>
       <use xlink:href="#md8d05b2ff9" x="384.651667" y="215.10609" style="stroke: #000000; stroke-width: 0.8"/>
      </g>
     </g>
     <g id="text_6">
      <!-- 10 -->
      <g transform="translate(378.289167 229.704528) scale(0.1 -0.1)">
       <defs>
        <path id="DejaVuSans-31" d="M 794 531 
L 1825 531 
L 1825 4091 
L 703 3866 
L 703 4441 
L 1819 4666 
L 2450 4666 
L 2450 531 
L 3481 531 
L 3481 0 
L 794 0 
L 794 531 
z
" transform="scale(0.015625)"/>
       </defs>
       <use xlink:href="#DejaVuSans-31"/>
       <use xlink:href="#DejaVuSans-30" transform="translate(63.623047 0)"/>
      </g>
     </g>
    </g>
    <g id="xtick_7">
     <g id="line2d_7">
      <g>
       <use xlink:href="#md8d05b2ff9" x="447.035" y="215.10609" style="stroke: #000000; stroke-width: 0.8"/>
      </g>
     </g>
     <g id="text_7">
      <!-- 12 -->
      <g transform="translate(440.6725 229.704528) scale(0.1 -0.1)">
       <use xlink:href="#DejaVuSans-31"/>
       <use xlink:href="#DejaVuSans-32" transform="translate(63.623047 0)"/>
      </g>
     </g>
    </g>
    <g id="text_8">
     <!-- Номер слоя -->
     <g transform="translate(229.44125 243.382653) scale(0.1 -0.1)">
      <defs>
       <path id="DejaVuSans-41d" d="M 628 4666 
L 1259 4666 
L 1259 2753 
L 3553 2753 
L 3553 4666 
L 4184 4666 
L 4184 0 
L 3553 0 
L 3553 2222 
L 1259 2222 
L 1259 0 
L 628 0 
L 628 4666 
z
" transform="scale(0.015625)"/>
       <path id="DejaVuSans-43e" d="M 1959 3097 
Q 1497 3097 1228 2736 
Q 959 2375 959 1747 
Q 959 1119 1226 758 
Q 1494 397 1959 397 
Q 2419 397 2687 759 
Q 2956 1122 2956 1747 
Q 2956 2369 2687 2733 
Q 2419 3097 1959 3097 
z
M 1959 3584 
Q 2709 3584 3137 3096 
Q 3566 2609 3566 1747 
Q 3566 888 3137 398 
Q 2709 -91 1959 -91 
Q 1206 -91 779 398 
Q 353 888 353 1747 
Q 353 2609 779 3096 
Q 1206 3584 1959 3584 
z
" transform="scale(0.015625)"/>
       <path id="DejaVuSans-43c" d="M 581 3500 
L 1422 3500 
L 2416 1156 
L 3413 3500 
L 4247 3500 
L 4247 0 
L 3669 0 
L 3669 2950 
L 2703 672 
L 2128 672 
L 1159 2950 
L 1159 0 
L 581 0 
L 581 3500 
z
" transform="scale(0.015625)"/>
       <path id="DejaVuSans-435" d="M 3597 1894 
L 3597 1613 
L 953 1613 
Q 991 1019 1311 708 
Q 1631 397 2203 397 
Q 2534 397 2845 478 
Q 3156 559 3463 722 
L 3463 178 
Q 3153 47 2828 -22 
Q 2503 -91 2169 -91 
Q 1331 -91 842 396 
Q 353 884 353 1716 
Q 353 2575 817 3079 
Q 1281 3584 2069 3584 
Q 2775 3584 3186 3129 
Q 3597 2675 3597 1894 
z
M 3022 2063 
Q 3016 2534 2758 2815 
Q 2500 3097 2075 3097 
Q 1594 3097 1305 2825 
Q 1016 2553 972 2059 
L 3022 2063 
z
" transform="scale(0.015625)"/>
       <path id="DejaVuSans-440" d="M 1159 525 
L 1159 -1331 
L 581 -1331 
L 581 3500 
L 1159 3500 
L 1159 2969 
Q 1341 3281 1617 3432 
Q 1894 3584 2278 3584 
Q 2916 3584 3314 3078 
Q 3713 2572 3713 1747 
Q 3713 922 3314 415 
Q 2916 -91 2278 -91 
Q 1894 -91 1617 61 
Q 1341 213 1159 525 
z
M 3116 1747 
Q 3116 2381 2855 2742 
Q 2594 3103 2138 3103 
Q 1681 3103 1420 2742 
Q 1159 2381 1159 1747 
Q 1159 1113 1420 752 
Q 1681 391 2138 391 
Q 2594 391 2855 752 
Q 3116 1113 3116 1747 
z
" transform="scale(0.015625)"/>
       <path id="DejaVuSans-20" transform="scale(0.015625)"/>
       <path id="DejaVuSans-441" d="M 3122 3366 
L 3122 2828 
Q 2878 2963 2633 3030 
Q 2388 3097 2138 3097 
Q 1578 3097 1268 2742 
Q 959 2388 959 1747 
Q 959 1106 1268 751 
Q 1578 397 2138 397 
Q 2388 397 2633 464 
Q 2878 531 3122 666 
L 3122 134 
Q 2881 22 2623 -34 
Q 2366 -91 2075 -91 
Q 1284 -91 818 406 
Q 353 903 353 1747 
Q 353 2603 823 3093 
Q 1294 3584 2113 3584 
Q 2378 3584 2631 3529 
Q 2884 3475 3122 3366 
z
" transform="scale(0.015625)"/>
       <path id="DejaVuSans-43b" d="M 238 0 
L 238 478 
Q 806 566 981 959 
Q 1194 1513 1194 2928 
L 1194 3500 
L 3559 3500 
L 3559 0 
L 2984 0 
L 2984 3041 
L 1769 3041 
L 1769 2694 
Q 1769 1344 1494 738 
Q 1200 91 238 0 
z
" transform="scale(0.015625)"/>
       <path id="DejaVuSans-44f" d="M 1181 2491 
Q 1181 2231 1381 2084 
Q 1581 1938 1953 1938 
L 2728 1938 
L 2728 3041 
L 1953 3041 
Q 1581 3041 1381 2897 
Q 1181 2753 1181 2491 
z
M 363 0 
L 1431 1534 
Q 1069 1616 828 1830 
Q 588 2044 588 2491 
Q 588 2997 923 3248 
Q 1259 3500 1938 3500 
L 3306 3500 
L 3306 0 
L 2728 0 
L 2728 1478 
L 2013 1478 
L 981 0 
L 363 0 
z
" transform="scale(0.015625)"/>
      </defs>
      <use xlink:href="#DejaVuSans-41d"/>
      <use xlink:href="#DejaVuSans-43e" transform="translate(75.195312 0)"/>
      <use xlink:href="#DejaVuSans-43c" transform="translate(136.376953 0)"/>
      <use xlink:href="#DejaVuSans-435" transform="translate(211.816406 0)"/>
      <use xlink:href="#DejaVuSans-440" transform="translate(273.339844 0)"/>
      <use xlink:href="#DejaVuSans-20" transform="translate(336.816406 0)"/>
      <use xlink:href="#DejaVuSans-441" transform="translate(368.603516 0)"/>
      <use xlink:href="#DejaVuSans-43b" transform="translate(423.583984 0)"/>
      <use xlink:href="#DejaVuSans-43e" transform="translate(487.5 0)"/>
      <use xlink:href="#DejaVuSans-44f" transform="translate(548.681641 0)"/>
     </g>
    </g>
   </g>
   <g id="matplotlib.axis_2">
    <g id="ytick_1">
     <g id="line2d_8">
      <defs>
       <path id="ma37b349b67" d="M 0 0 
L -3.5 0 
" style="stroke: #000000; stroke-width: 0.8"/>
      </defs>
      <g>
       <use xlink:href="#ma37b349b67" x="54.02" y="186.085339" style="stroke: #000000; stroke-width: 0.8"/>
      </g>
     </g>
     <g id="text_9">
      <!-- 0.2 -->
      <g transform="translate(31.116875 189.884558) scale(0.1 -0.1)">
       <defs>
        <path id="DejaVuSans-2e" d="M 684 794 
L 1344 794 
L 1344 0 
L 684 0 
L 684 794 
z
" transform="scale(0.015625)"/>
       </defs>
       <use xlink:href="#DejaVuSans-30"/>
       <use xlink:href="#DejaVuSans-2e" transform="translate(63.623047 0)"/>
       <use xlink:href="#DejaVuSans-32" transform="translate(95.410156 0)"/>
      </g>
     </g>
    </g>
    <g id="ytick_2">
     <g id="line2d_9">
      <g>
       <use xlink:href="#ma37b349b67" x="54.02" y="144.585664" style="stroke: #000000; stroke-width: 0.8"/>
      </g>
     </g>
     <g id="text_10">
      <!-- 0.4 -->
      <g transform="translate(31.116875 148.384883) scale(0.1 -0.1)">
       <use xlink:href="#DejaVuSans-30"/>
       <use xlink:href="#DejaVuSans-2e" transform="translate(63.623047 0)"/>
       <use xlink:href="#DejaVuSans-34" transform="translate(95.410156 0)"/>
      </g>
     </g>
    </g>
    <g id="ytick_3">
     <g id="line2d_10">
      <g>
       <use xlink:href="#ma37b349b67" x="54.02" y="103.08599" style="stroke: #000000; stroke-width: 0.8"/>
      </g>
     </g>
     <g id="text_11">
      <!-- 0.6 -->
      <g transform="translate(31.116875 106.885208) scale(0.1 -0.1)">
       <use xlink:href="#DejaVuSans-30"/>
       <use xlink:href="#DejaVuSans-2e" transform="translate(63.623047 0)"/>
       <use xlink:href="#DejaVuSans-36" transform="translate(95.410156 0)"/>
      </g>
     </g>
    </g>
    <g id="ytick_4">
     <g id="line2d_11">
      <g>
       <use xlink:href="#ma37b349b67" x="54.02" y="61.586315" style="stroke: #000000; stroke-width: 0.8"/>
      </g>
     </g>
     <g id="text_12">
      <!-- 0.8 -->
      <g transform="translate(31.116875 65.385534) scale(0.1 -0.1)">
       <use xlink:href="#DejaVuSans-30"/>
       <use xlink:href="#DejaVuSans-2e" transform="translate(63.623047 0)"/>
       <use xlink:href="#DejaVuSans-38" transform="translate(95.410156 0)"/>
      </g>
     </g>
    </g>
    <g id="ytick_5">
     <g id="line2d_12">
      <g>
       <use xlink:href="#ma37b349b67" x="54.02" y="20.08664" style="stroke: #000000; stroke-width: 0.8"/>
      </g>
     </g>
     <g id="text_13">
      <!-- 1.0 -->
      <g transform="translate(31.116875 23.885859) scale(0.1 -0.1)">
       <use xlink:href="#DejaVuSans-31"/>
       <use xlink:href="#DejaVuSans-2e" transform="translate(63.623047 0)"/>
       <use xlink:href="#DejaVuSans-30" transform="translate(95.410156 0)"/>
      </g>
     </g>
    </g>
    <g id="text_14">
     <!-- Межслойная устойчивость -->
     <g transform="translate(25.037188 183.779608) rotate(-90) scale(0.1 -0.1)">
      <defs>
       <path id="DejaVuSans-41c" d="M 628 4666 
L 1569 4666 
L 2759 1491 
L 3956 4666 
L 4897 4666 
L 4897 0 
L 4281 0 
L 4281 4097 
L 3078 897 
L 2444 897 
L 1241 4097 
L 1241 0 
L 628 0 
L 628 4666 
z
" transform="scale(0.015625)"/>
       <path id="DejaVuSans-436" d="M 2597 3500 
L 3169 3500 
L 3169 1856 
L 4697 3500 
L 5366 3500 
L 4109 2153 
L 5547 0 
L 4931 0 
L 3753 1769 
L 3169 1141 
L 3169 0 
L 2597 0 
L 2597 1141 
L 2013 1769 
L 834 0 
L 219 0 
L 1656 2153 
L 400 3500 
L 1069 3500 
L 2597 1856 
L 2597 3500 
z
" transform="scale(0.015625)"/>
       <path id="DejaVuSans-439" d="M 3578 3500 
L 3578 0 
L 3006 0 
L 3006 2809 
L 1319 0 
L 581 0 
L 581 3500 
L 1153 3500 
L 1153 697 
L 2838 3500 
L 3578 3500 
z
M 1102 4833 
L 1471 4833 
Q 1505 4599 1656 4481 
Q 1808 4364 2080 4364 
Q 2349 4364 2499 4480 
Q 2649 4596 2689 4833 
L 3058 4833 
Q 3027 4386 2780 4161 
Q 2533 3936 2080 3936 
Q 1627 3936 1380 4161 
Q 1133 4386 1102 4833 
z
" transform="scale(0.015625)"/>
       <path id="DejaVuSans-43d" d="M 581 3500 
L 1159 3500 
L 1159 2072 
L 3025 2072 
L 3025 3500 
L 3603 3500 
L 3603 0 
L 3025 0 
L 3025 1613 
L 1159 1613 
L 1159 0 
L 581 0 
L 581 3500 
z
" transform="scale(0.015625)"/>
       <path id="DejaVuSans-430" d="M 2194 1759 
Q 1497 1759 1228 1600 
Q 959 1441 959 1056 
Q 959 750 1161 570 
Q 1363 391 1709 391 
Q 2188 391 2477 730 
Q 2766 1069 2766 1631 
L 2766 1759 
L 2194 1759 
z
M 3341 1997 
L 3341 0 
L 2766 0 
L 2766 531 
Q 2569 213 2275 61 
Q 1981 -91 1556 -91 
Q 1019 -91 701 211 
Q 384 513 384 1019 
Q 384 1609 779 1909 
Q 1175 2209 1959 2209 
L 2766 2209 
L 2766 2266 
Q 2766 2663 2505 2880 
Q 2244 3097 1772 3097 
Q 1472 3097 1187 3025 
Q 903 2953 641 2809 
L 641 3341 
Q 956 3463 1253 3523 
Q 1550 3584 1831 3584 
Q 2591 3584 2966 3190 
Q 3341 2797 3341 1997 
z
" transform="scale(0.015625)"/>
       <path id="DejaVuSans-443" d="M 2059 -325 
Q 1816 -950 1584 -1140 
Q 1353 -1331 966 -1331 
L 506 -1331 
L 506 -850 
L 844 -850 
Q 1081 -850 1212 -737 
Q 1344 -625 1503 -206 
L 1606 56 
L 191 3500 
L 800 3500 
L 1894 763 
L 2988 3500 
L 3597 3500 
L 2059 -325 
z
" transform="scale(0.015625)"/>
       <path id="DejaVuSans-442" d="M 188 3500 
L 3541 3500 
L 3541 3041 
L 2147 3041 
L 2147 0 
L 1581 0 
L 1581 3041 
L 188 3041 
L 188 3500 
z
" transform="scale(0.015625)"/>
       <path id="DejaVuSans-447" d="M 2625 0 
L 2625 1472 
L 1553 1472 
Q 1075 1472 756 1769 
Q 469 2038 469 2613 
L 469 3500 
L 1044 3500 
L 1044 2666 
Q 1044 2300 1206 2116 
Q 1372 1931 1697 1931 
L 2625 1931 
L 2625 3500 
L 3200 3500 
L 3200 0 
L 2625 0 
z
" transform="scale(0.015625)"/>
       <path id="DejaVuSans-438" d="M 3578 3500 
L 3578 0 
L 3006 0 
L 3006 2809 
L 1319 0 
L 581 0 
L 581 3500 
L 1153 3500 
L 1153 697 
L 2838 3500 
L 3578 3500 
z
" transform="scale(0.015625)"/>
       <path id="DejaVuSans-432" d="M 1156 1613 
L 1156 459 
L 1975 459 
Q 2369 459 2575 607 
Q 2781 756 2781 1038 
Q 2781 1319 2575 1466 
Q 2369 1613 1975 1613 
L 1156 1613 
z
M 1156 3041 
L 1156 2072 
L 1913 2072 
Q 2238 2072 2444 2201 
Q 2650 2331 2650 2563 
Q 2650 2794 2444 2917 
Q 2238 3041 1913 3041 
L 1156 3041 
z
M 581 3500 
L 1950 3500 
Q 2566 3500 2897 3275 
Q 3228 3050 3228 2634 
Q 3228 2313 3059 2123 
Q 2891 1934 2559 1888 
Q 2956 1813 3175 1575 
Q 3394 1338 3394 981 
Q 3394 513 3033 256 
Q 2672 0 2003 0 
L 581 0 
L 581 3500 
z
" transform="scale(0.015625)"/>
       <path id="DejaVuSans-44c" d="M 2781 1038 
Q 2781 1319 2576 1466 
Q 2372 1613 1978 1613 
L 1159 1613 
L 1159 459 
L 1978 459 
Q 2372 459 2576 607 
Q 2781 756 2781 1038 
z
M 581 3500 
L 1159 3500 
L 1159 2072 
L 2003 2072 
Q 2672 2072 3033 1817 
Q 3394 1563 3394 1038 
Q 3394 513 3033 256 
Q 2672 0 2003 0 
L 581 0 
L 581 3500 
z
" transform="scale(0.015625)"/>
      </defs>
      <use xlink:href="#DejaVuSans-41c"/>
      <use xlink:href="#DejaVuSans-435" transform="translate(86.279297 0)"/>
      <use xlink:href="#DejaVuSans-436" transform="translate(147.802734 0)"/>
      <use xlink:href="#DejaVuSans-441" transform="translate(237.890625 0)"/>
      <use xlink:href="#DejaVuSans-43b" transform="translate(292.871094 0)"/>
      <use xlink:href="#DejaVuSans-43e" transform="translate(356.787109 0)"/>
      <use xlink:href="#DejaVuSans-439" transform="translate(417.96875 0)"/>
      <use xlink:href="#DejaVuSans-43d" transform="translate(482.958984 0)"/>
      <use xlink:href="#DejaVuSans-430" transform="translate(548.339844 0)"/>
      <use xlink:href="#DejaVuSans-44f" transform="translate(609.619141 0)"/>
      <use xlink:href="#DejaVuSans-20" transform="translate(669.775391 0)"/>
      <use xlink:href="#DejaVuSans-443" transform="translate(701.5625 0)"/>
      <use xlink:href="#DejaVuSans-441" transform="translate(760.742188 0)"/>
      <use xlink:href="#DejaVuSans-442" transform="translate(815.722656 0)"/>
      <use xlink:href="#DejaVuSans-43e" transform="translate(873.974609 0)"/>
      <use xlink:href="#DejaVuSans-439" transform="translate(935.15625 0)"/>
      <use xlink:href="#DejaVuSans-447" transform="translate(1000.146484 0)"/>
      <use xlink:href="#DejaVuSans-438" transform="translate(1059.228516 0)"/>
      <use xlink:href="#DejaVuSans-432" transform="translate(1124.21875 0)"/>
      <use xlink:href="#DejaVuSans-43e" transform="translate(1183.154297 0)"/>
      <use xlink:href="#DejaVuSans-441" transform="translate(1244.335938 0)"/>
      <use xlink:href="#DejaVuSans-442" transform="translate(1299.316406 0)"/>
      <use xlink:href="#DejaVuSans-44c" transform="translate(1357.568359 0)"/>
     </g>
    </g>
   </g>
   <g id="line2d_13">
    <path d="M 72.735 20.08664 
L 103.926667 123.835827 
L 135.118333 20.08664 
L 166.31 158.418889 
L 197.501667 144.012853 
L 228.693333 144.23443 
L 259.885 144.303353 
L 291.076667 132.270514 
L 322.268333 158.510356 
L 353.46 132.826226 
L 384.651667 124.249063 
L 415.843333 121.518244 
L 447.035 114.360256 
" clip-path="url(#p8d5925f8d5)" style="fill: none; stroke: #648fff; stroke-width: 1.5; stroke-linecap: square"/>
   </g>
   <g id="line2d_14">
    <path d="M 72.735 20.08664 
L 103.926667 115.85512 
L 135.118333 20.08664 
L 166.31 147.777947 
L 197.501667 142.457476 
L 228.693333 142.457476 
L 259.885 142.457476 
L 291.076667 139.79724 
L 322.268333 163.73936 
L 353.46 154.871908 
L 384.651667 157.93521 
L 415.843333 157.93521 
L 447.035 152.338351 
" clip-path="url(#p8d5925f8d5)" style="fill: none; stroke: #785ef0; stroke-width: 1.5; stroke-linecap: square"/>
   </g>
   <g id="line2d_15">
    <path d="M 72.735 20.08664 
L 103.926667 123.835827 
L 135.118333 20.08664 
L 166.31 158.418889 
L 197.501667 155.338303 
L 228.693333 155.254826 
L 259.885 155.226161 
L 291.076667 156.378948 
L 322.268333 183.391628 
L 353.46 179.858693 
L 384.651667 186.387835 
L 415.843333 186.59832 
L 447.035 178.415879 
" clip-path="url(#p8d5925f8d5)" style="fill: none; stroke: #dc267f; stroke-width: 1.5; stroke-linecap: square"/>
   </g>
   <g id="line2d_16">
    <path d="M 72.735 20.08664 
L 103.926667 123.835827 
L 135.118333 20.08664 
L 166.31 158.418889 
L 197.501667 156.915278 
L 228.693333 156.810375 
L 259.885 156.772077 
L 291.076667 161.233789 
L 322.268333 189.493525 
L 353.46 189.611455 
L 384.651667 197.013153 
L 415.843333 196.896652 
L 447.035 187.301446 
" clip-path="url(#p8d5925f8d5)" style="fill: none; stroke: #fe6100; stroke-width: 1.5; stroke-linecap: square"/>
   </g>
   <g id="line2d_17">
    <path d="M 72.735 20.08664 
L 103.926667 123.835827 
L 135.118333 20.08664 
L 166.31 158.418889 
L 197.501667 158.123307 
L 228.693333 158.064191 
L 259.885 158.038855 
L 291.076667 167.197666 
L 322.268333 197.238623 
L 353.46 199.517601 
L 384.651667 205.81945 
L 415.843333 205.372977 
L 447.035 194.841314 
" clip-path="url(#p8d5925f8d5)" style="fill: none; stroke: #ffb000; stroke-width: 1.5; stroke-linecap: square"/>
   </g>
   <g id="patch_3">
    <path d="M 54.02 215.10609 
L 54.02 10.8 
" style="fill: none; stroke: #000000; stroke-width: 0.8; stroke-linejoin: miter; stroke-linecap: square"/>
   </g>
   <g id="patch_4">
    <path d="M 465.75 215.10609 
L 465.75 10.8 
" style="fill: none; stroke: #000000; stroke-width: 0.8; stroke-linejoin: miter; stroke-linecap: square"/>
   </g>
   <g id="patch_5">
    <path d="M 54.02 215.10609 
L 465.75 215.10609 
" style="fill: none; stroke: #000000; stroke-width: 0.8; stroke-linejoin: miter; stroke-linecap: square"/>
   </g>
   <g id="patch_6">
    <path d="M 54.02 10.8 
L 465.75 10.8 
" style="fill: none; stroke: #000000; stroke-width: 0.8; stroke-linejoin: miter; stroke-linecap: square"/>
   </g>
   <g id="legend_1">
    <g id="patch_7">
     <path d="M 377.15 92.190625 
L 458.75 92.190625 
Q 460.75 92.190625 460.75 90.190625 
L 460.75 17.8 
Q 460.75 15.8 458.75 15.8 
L 377.15 15.8 
Q 375.15 15.8 375.15 17.8 
L 375.15 90.190625 
Q 375.15 92.190625 377.15 92.190625 
z
" style="fill: #ffffff; opacity: 0.8; stroke: #cccccc; stroke-linejoin: miter"/>
    </g>
    <g id="line2d_18">
     <path d="M 379.15 23.898438 
L 389.15 23.898438 
L 399.15 23.898438 
" style="fill: none; stroke: #648fff; stroke-width: 1.5; stroke-linecap: square"/>
    </g>
    <g id="text_15">
     <!-- $\alpha=-1.00$ -->
     <g transform="translate(407.15 27.398438) scale(0.1 -0.1)">
      <defs>
       <path id="DejaVuSans-Oblique-3b1" d="M 2619 1628 
L 2622 2350 
Q 2625 3088 2069 3091 
Q 1653 3094 1394 2747 
Q 1069 2319 959 1747 
Q 825 1059 994 731 
Q 1169 397 1547 397 
Q 1966 397 2319 1063 
L 2619 1628 
z
M 2166 3578 
Q 3141 3594 3128 2584 
Q 3128 2584 3616 3500 
L 4128 3500 
L 3119 1603 
L 3109 919 
Q 3109 766 3194 638 
Q 3291 488 3391 488 
L 3669 488 
L 3575 0 
L 3228 0 
Q 2934 0 2722 263 
Q 2622 394 2619 669 
Q 2416 334 2066 50 
Q 1900 -81 1453 -78 
Q 722 -72 456 397 
Q 184 884 353 1747 
Q 534 2675 1009 3097 
Q 1544 3569 2166 3578 
z
" transform="scale(0.015625)"/>
       <path id="DejaVuSans-3d" d="M 678 2906 
L 4684 2906 
L 4684 2381 
L 678 2381 
L 678 2906 
z
M 678 1631 
L 4684 1631 
L 4684 1100 
L 678 1100 
L 678 1631 
z
" transform="scale(0.015625)"/>
       <path id="DejaVuSans-2212" d="M 678 2272 
L 4684 2272 
L 4684 1741 
L 678 1741 
L 678 2272 
z
" transform="scale(0.015625)"/>
      </defs>
      <use xlink:href="#DejaVuSans-Oblique-3b1" transform="translate(0 0.78125)"/>
      <use xlink:href="#DejaVuSans-3d" transform="translate(85.400391 0.78125)"/>
      <use xlink:href="#DejaVuSans-2212" transform="translate(188.671875 0.78125)"/>
      <use xlink:href="#DejaVuSans-31" transform="translate(272.460938 0.78125)"/>
      <use xlink:href="#DejaVuSans-2e" transform="translate(336.083984 0.78125)"/>
      <use xlink:href="#DejaVuSans-30" transform="translate(367.871094 0.78125)"/>
      <use xlink:href="#DejaVuSans-30" transform="translate(431.494141 0.78125)"/>
     </g>
    </g>
    <g id="line2d_19">
     <path d="M 379.15 38.576563 
L 389.15 38.576563 
L 399.15 38.576563 
" style="fill: none; stroke: #785ef0; stroke-width: 1.5; stroke-linecap: square"/>
    </g>
    <g id="text_16">
     <!-- $\alpha=0.00$ -->
     <g transform="translate(407.15 42.076563) scale(0.1 -0.1)">
      <use xlink:href="#DejaVuSans-Oblique-3b1" transform="translate(0 0.78125)"/>
      <use xlink:href="#DejaVuSans-3d" transform="translate(85.400391 0.78125)"/>
      <use xlink:href="#DejaVuSans-30" transform="translate(188.671875 0.78125)"/>
      <use xlink:href="#DejaVuSans-2e" transform="translate(252.294922 0.78125)"/>
      <use xlink:href="#DejaVuSans-30" transform="translate(284.082031 0.78125)"/>
      <use xlink:href="#DejaVuSans-30" transform="translate(347.705078 0.78125)"/>
     </g>
    </g>
    <g id="line2d_20">
     <path d="M 379.15 53.254687 
L 389.15 53.254687 
L 399.15 53.254687 
" style="fill: none; stroke: #dc267f; stroke-width: 1.5; stroke-linecap: square"/>
    </g>
    <g id="text_17">
     <!-- $\alpha=0.50$ -->
     <g transform="translate(407.15 56.754687) scale(0.1 -0.1)">
      <defs>
       <path id="DejaVuSans-35" d="M 691 4666 
L 3169 4666 
L 3169 4134 
L 1269 4134 
L 1269 2991 
Q 1406 3038 1543 3061 
Q 1681 3084 1819 3084 
Q 2600 3084 3056 2656 
Q 3513 2228 3513 1497 
Q 3513 744 3044 326 
Q 2575 -91 1722 -91 
Q 1428 -91 1123 -41 
Q 819 9 494 109 
L 494 744 
Q 775 591 1075 516 
Q 1375 441 1709 441 
Q 2250 441 2565 725 
Q 2881 1009 2881 1497 
Q 2881 1984 2565 2268 
Q 2250 2553 1709 2553 
Q 1456 2553 1204 2497 
Q 953 2441 691 2322 
L 691 4666 
z
" transform="scale(0.015625)"/>
      </defs>
      <use xlink:href="#DejaVuSans-Oblique-3b1" transform="translate(0 0.78125)"/>
      <use xlink:href="#DejaVuSans-3d" transform="translate(85.400391 0.78125)"/>
      <use xlink:href="#DejaVuSans-30" transform="translate(188.671875 0.78125)"/>
      <use xlink:href="#DejaVuSans-2e" transform="translate(252.294922 0.78125)"/>
      <use xlink:href="#DejaVuSans-35" transform="translate(284.082031 0.78125)"/>
      <use xlink:href="#DejaVuSans-30" transform="translate(347.705078 0.78125)"/>
     </g>
    </g>
    <g id="line2d_21">
     <path d="M 379.15 67.932813 
L 389.15 67.932813 
L 399.15 67.932813 
" style="fill: none; stroke: #fe6100; stroke-width: 1.5; stroke-linecap: square"/>
    </g>
    <g id="text_18">
     <!-- $\alpha=1.00$ -->
     <g transform="translate(407.15 71.432813) scale(0.1 -0.1)">
      <use xlink:href="#DejaVuSans-Oblique-3b1" transform="translate(0 0.78125)"/>
      <use xlink:href="#DejaVuSans-3d" transform="translate(85.400391 0.78125)"/>
      <use xlink:href="#DejaVuSans-31" transform="translate(188.671875 0.78125)"/>
      <use xlink:href="#DejaVuSans-2e" transform="translate(252.294922 0.78125)"/>
      <use xlink:href="#DejaVuSans-30" transform="translate(284.082031 0.78125)"/>
      <use xlink:href="#DejaVuSans-30" transform="translate(347.705078 0.78125)"/>
     </g>
    </g>
    <g id="line2d_22">
     <path d="M 379.15 82.610937 
L 389.15 82.610937 
L 399.15 82.610937 
" style="fill: none; stroke: #ffb000; stroke-width: 1.5; stroke-linecap: square"/>
    </g>
    <g id="text_19">
     <!-- $\alpha=2.00$ -->
     <g transform="translate(407.15 86.110937) scale(0.1 -0.1)">
      <use xlink:href="#DejaVuSans-Oblique-3b1" transform="translate(0 0.78125)"/>
      <use xlink:href="#DejaVuSans-3d" transform="translate(85.400391 0.78125)"/>
      <use xlink:href="#DejaVuSans-32" transform="translate(188.671875 0.78125)"/>
      <use xlink:href="#DejaVuSans-2e" transform="translate(252.294922 0.78125)"/>
      <use xlink:href="#DejaVuSans-30" transform="translate(284.082031 0.78125)"/>
      <use xlink:href="#DejaVuSans-30" transform="translate(347.705078 0.78125)"/>
     </g>
    </g>
   </g>
  </g>
  <g id="axes_2">
   <g id="patch_8">
    <path d="M 513.47 215.10609 
L 925.2 215.10609 
L 925.2 10.8 
L 513.47 10.8 
z
" style="fill: #ffffff"/>
   </g>
   <g id="matplotlib.axis_3">
    <g id="xtick_8">
     <g id="line2d_23">
      <g>
       <use xlink:href="#md8d05b2ff9" x="532.185" y="215.10609" style="stroke: #000000; stroke-width: 0.8"/>
      </g>
     </g>
     <g id="text_20">
      <!-- 0 -->
      <g transform="translate(529.00375 229.704528) scale(0.1 -0.1)">
       <use xlink:href="#DejaVuSans-30"/>
      </g>
     </g>
    </g>
    <g id="xtick_9">
     <g id="line2d_24">
      <g>
       <use xlink:href="#md8d05b2ff9" x="594.568333" y="215.10609" style="stroke: #000000; stroke-width: 0.8"/>
      </g>
     </g>
     <g id="text_21">
      <!-- 2 -->
      <g transform="translate(591.387083 229.704528) scale(0.1 -0.1)">
       <use xlink:href="#DejaVuSans-32"/>
      </g>
     </g>
    </g>
    <g id="xtick_10">
     <g id="line2d_25">
      <g>
       <use xlink:href="#md8d05b2ff9" x="656.951667" y="215.10609" style="stroke: #000000; stroke-width: 0.8"/>
      </g>
     </g>
     <g id="text_22">
      <!-- 4 -->
      <g transform="translate(653.770417 229.704528) scale(0.1 -0.1)">
       <use xlink:href="#DejaVuSans-34"/>
      </g>
     </g>
    </g>
    <g id="xtick_11">
     <g id="line2d_26">
      <g>
       <use xlink:href="#md8d05b2ff9" x="719.335" y="215.10609" style="stroke: #000000; stroke-width: 0.8"/>
      </g>
     </g>
     <g id="text_23">
      <!-- 6 -->
      <g transform="translate(716.15375 229.704528) scale(0.1 -0.1)">
       <use xlink:href="#DejaVuSans-36"/>
      </g>
     </g>
    </g>
    <g id="xtick_12">
     <g id="line2d_27">
      <g>
       <use xlink:href="#md8d05b2ff9" x="781.718333" y="215.10609" style="stroke: #000000; stroke-width: 0.8"/>
      </g>
     </g>
     <g id="text_24">
      <!-- 8 -->
      <g transform="translate(778.537083 229.704528) scale(0.1 -0.1)">
       <use xlink:href="#DejaVuSans-38"/>
      </g>
     </g>
    </g>
    <g id="xtick_13">
     <g id="line2d_28">
      <g>
       <use xlink:href="#md8d05b2ff9" x="844.101667" y="215.10609" style="stroke: #000000; stroke-width: 0.8"/>
      </g>
     </g>
     <g id="text_25">
      <!-- 10 -->
      <g transform="translate(837.739167 229.704528) scale(0.1 -0.1)">
       <use xlink:href="#DejaVuSans-31"/>
       <use xlink:href="#DejaVuSans-30" transform="translate(63.623047 0)"/>
      </g>
     </g>
    </g>
    <g id="xtick_14">
     <g id="line2d_29">
      <g>
       <use xlink:href="#md8d05b2ff9" x="906.485" y="215.10609" style="stroke: #000000; stroke-width: 0.8"/>
      </g>
     </g>
     <g id="text_26">
      <!-- 12 -->
      <g transform="translate(900.1225 229.704528) scale(0.1 -0.1)">
       <use xlink:href="#DejaVuSans-31"/>
       <use xlink:href="#DejaVuSans-32" transform="translate(63.623047 0)"/>
      </g>
     </g>
    </g>
    <g id="text_27">
     <!-- Номер слоя -->
     <g transform="translate(688.89125 243.382653) scale(0.1 -0.1)">
      <use xlink:href="#DejaVuSans-41d"/>
      <use xlink:href="#DejaVuSans-43e" transform="translate(75.195312 0)"/>
      <use xlink:href="#DejaVuSans-43c" transform="translate(136.376953 0)"/>
      <use xlink:href="#DejaVuSans-435" transform="translate(211.816406 0)"/>
      <use xlink:href="#DejaVuSans-440" transform="translate(273.339844 0)"/>
      <use xlink:href="#DejaVuSans-20" transform="translate(336.816406 0)"/>
      <use xlink:href="#DejaVuSans-441" transform="translate(368.603516 0)"/>
      <use xlink:href="#DejaVuSans-43b" transform="translate(423.583984 0)"/>
      <use xlink:href="#DejaVuSans-43e" transform="translate(487.5 0)"/>
      <use xlink:href="#DejaVuSans-44f" transform="translate(548.681641 0)"/>
     </g>
    </g>
   </g>
   <g id="matplotlib.axis_4">
    <g id="ytick_6">
     <g id="line2d_30">
      <g>
       <use xlink:href="#ma37b349b67" x="513.47" y="206.20819" style="stroke: #000000; stroke-width: 0.8"/>
      </g>
     </g>
     <g id="text_28">
      <!-- 0.0 -->
      <g transform="translate(490.566875 210.007409) scale(0.1 -0.1)">
       <use xlink:href="#DejaVuSans-30"/>
       <use xlink:href="#DejaVuSans-2e" transform="translate(63.623047 0)"/>
       <use xlink:href="#DejaVuSans-30" transform="translate(95.410156 0)"/>
      </g>
     </g>
    </g>
    <g id="ytick_7">
     <g id="line2d_31">
      <g>
       <use xlink:href="#ma37b349b67" x="513.47" y="165.256784" style="stroke: #000000; stroke-width: 0.8"/>
      </g>
     </g>
     <g id="text_29">
      <!-- 0.1 -->
      <g transform="translate(490.566875 169.056003) scale(0.1 -0.1)">
       <use xlink:href="#DejaVuSans-30"/>
       <use xlink:href="#DejaVuSans-2e" transform="translate(63.623047 0)"/>
       <use xlink:href="#DejaVuSans-31" transform="translate(95.410156 0)"/>
      </g>
     </g>
    </g>
    <g id="ytick_8">
     <g id="line2d_32">
      <g>
       <use xlink:href="#ma37b349b67" x="513.47" y="124.305378" style="stroke: #000000; stroke-width: 0.8"/>
      </g>
     </g>
     <g id="text_30">
      <!-- 0.2 -->
      <g transform="translate(490.566875 128.104596) scale(0.1 -0.1)">
       <use xlink:href="#DejaVuSans-30"/>
       <use xlink:href="#DejaVuSans-2e" transform="translate(63.623047 0)"/>
       <use xlink:href="#DejaVuSans-32" transform="translate(95.410156 0)"/>
      </g>
     </g>
    </g>
    <g id="ytick_9">
     <g id="line2d_33">
      <g>
       <use xlink:href="#ma37b349b67" x="513.47" y="83.353971" style="stroke: #000000; stroke-width: 0.8"/>
      </g>
     </g>
     <g id="text_31">
      <!-- 0.3 -->
      <g transform="translate(490.566875 87.15319) scale(0.1 -0.1)">
       <defs>
        <path id="DejaVuSans-33" d="M 2597 2516 
Q 3050 2419 3304 2112 
Q 3559 1806 3559 1356 
Q 3559 666 3084 287 
Q 2609 -91 1734 -91 
Q 1441 -91 1130 -33 
Q 819 25 488 141 
L 488 750 
Q 750 597 1062 519 
Q 1375 441 1716 441 
Q 2309 441 2620 675 
Q 2931 909 2931 1356 
Q 2931 1769 2642 2001 
Q 2353 2234 1838 2234 
L 1294 2234 
L 1294 2753 
L 1863 2753 
Q 2328 2753 2575 2939 
Q 2822 3125 2822 3475 
Q 2822 3834 2567 4026 
Q 2313 4219 1838 4219 
Q 1578 4219 1281 4162 
Q 984 4106 628 3988 
L 628 4550 
Q 988 4650 1302 4700 
Q 1616 4750 1894 4750 
Q 2613 4750 3031 4423 
Q 3450 4097 3450 3541 
Q 3450 3153 3228 2886 
Q 3006 2619 2597 2516 
z
" transform="scale(0.015625)"/>
       </defs>
       <use xlink:href="#DejaVuSans-30"/>
       <use xlink:href="#DejaVuSans-2e" transform="translate(63.623047 0)"/>
       <use xlink:href="#DejaVuSans-33" transform="translate(95.410156 0)"/>
      </g>
     </g>
    </g>
    <g id="ytick_10">
     <g id="line2d_34">
      <g>
       <use xlink:href="#ma37b349b67" x="513.47" y="42.402565" style="stroke: #000000; stroke-width: 0.8"/>
      </g>
     </g>
     <g id="text_32">
      <!-- 0.4 -->
      <g transform="translate(490.566875 46.201784) scale(0.1 -0.1)">
       <use xlink:href="#DejaVuSans-30"/>
       <use xlink:href="#DejaVuSans-2e" transform="translate(63.623047 0)"/>
       <use xlink:href="#DejaVuSans-34" transform="translate(95.410156 0)"/>
      </g>
     </g>
    </g>
    <g id="text_33">
     <!-- Межслойная устойчивость -->
     <g transform="translate(484.487188 183.779608) rotate(-90) scale(0.1 -0.1)">
      <use xlink:href="#DejaVuSans-41c"/>
      <use xlink:href="#DejaVuSans-435" transform="translate(86.279297 0)"/>
      <use xlink:href="#DejaVuSans-436" transform="translate(147.802734 0)"/>
      <use xlink:href="#DejaVuSans-441" transform="translate(237.890625 0)"/>
      <use xlink:href="#DejaVuSans-43b" transform="translate(292.871094 0)"/>
      <use xlink:href="#DejaVuSans-43e" transform="translate(356.787109 0)"/>
      <use xlink:href="#DejaVuSans-439" transform="translate(417.96875 0)"/>
      <use xlink:href="#DejaVuSans-43d" transform="translate(482.958984 0)"/>
      <use xlink:href="#DejaVuSans-430" transform="translate(548.339844 0)"/>
      <use xlink:href="#DejaVuSans-44f" transform="translate(609.619141 0)"/>
      <use xlink:href="#DejaVuSans-20" transform="translate(669.775391 0)"/>
      <use xlink:href="#DejaVuSans-443" transform="translate(701.5625 0)"/>
      <use xlink:href="#DejaVuSans-441" transform="translate(760.742188 0)"/>
      <use xlink:href="#DejaVuSans-442" transform="translate(815.722656 0)"/>
      <use xlink:href="#DejaVuSans-43e" transform="translate(873.974609 0)"/>
      <use xlink:href="#DejaVuSans-439" transform="translate(935.15625 0)"/>
      <use xlink:href="#DejaVuSans-447" transform="translate(1000.146484 0)"/>
      <use xlink:href="#DejaVuSans-438" transform="translate(1059.228516 0)"/>
      <use xlink:href="#DejaVuSans-432" transform="translate(1124.21875 0)"/>
      <use xlink:href="#DejaVuSans-43e" transform="translate(1183.154297 0)"/>
      <use xlink:href="#DejaVuSans-441" transform="translate(1244.335938 0)"/>
      <use xlink:href="#DejaVuSans-442" transform="translate(1299.316406 0)"/>
      <use xlink:href="#DejaVuSans-44c" transform="translate(1357.568359 0)"/>
     </g>
    </g>
   </g>
   <g id="line2d_35">
    <path d="M 532.185 171.009129 
L 563.376667 167.599023 
L 594.568333 169.866445 
L 625.76 174.586296 
L 656.951667 172.405694 
L 688.143333 149.208665 
L 719.335 135.483123 
L 750.526667 126.609619 
L 781.718333 94.96477 
L 812.91 52.075448 
L 844.101667 24.636638 
L 875.293333 20.08664 
L 906.485 62.309189 
" clip-path="url(#pd6c1bd4aa3)" style="fill: none; stroke: #648fff; stroke-width: 1.5; stroke-linecap: square"/>
   </g>
   <g id="line2d_36">
    <path d="M 532.185 165.34476 
L 563.376667 161.954492 
L 594.568333 161.090532 
L 625.76 161.999303 
L 656.951667 159.589378 
L 688.143333 149.467745 
L 719.335 141.903978 
L 750.526667 132.493912 
L 781.718333 112.918433 
L 812.91 96.931329 
L 844.101667 94.749288 
L 875.293333 98.38094 
L 906.485 116.468213 
" clip-path="url(#pd6c1bd4aa3)" style="fill: none; stroke: #785ef0; stroke-width: 1.5; stroke-linecap: square"/>
   </g>
   <g id="line2d_37">
    <path d="M 532.185 201.63258 
L 563.376667 199.635162 
L 594.568333 198.481213 
L 625.76 198.399827 
L 656.951667 195.860147 
L 688.143333 188.722059 
L 719.335 182.435926 
L 750.526667 172.947066 
L 781.718333 157.716174 
L 812.91 151.09205 
L 844.101667 155.73886 
L 875.293333 159.697914 
L 906.485 168.429874 
" clip-path="url(#pd6c1bd4aa3)" style="fill: none; stroke: #dc267f; stroke-width: 1.5; stroke-linecap: square"/>
   </g>
   <g id="line2d_38">
    <path d="M 532.185 204.235667 
L 563.376667 203.323139 
L 594.568333 202.460374 
L 625.76 202.013141 
L 656.951667 199.77003 
L 688.143333 195.02754 
L 719.335 190.069693 
L 750.526667 181.780567 
L 781.718333 171.790044 
L 812.91 172.020555 
L 844.101667 178.718103 
L 875.293333 181.084027 
L 906.485 183.890358 
" clip-path="url(#pd6c1bd4aa3)" style="fill: none; stroke: #fe6100; stroke-width: 1.5; stroke-linecap: square"/>
   </g>
   <g id="line2d_39">
    <path d="M 532.185 205.81945 
L 563.376667 205.646981 
L 594.568333 205.323406 
L 625.76 204.939836 
L 656.951667 203.386284 
L 688.143333 200.81118 
L 719.335 197.354397 
L 750.526667 191.809724 
L 781.718333 189.011743 
L 812.91 193.870812 
L 844.101667 198.394778 
L 875.293333 198.510631 
L 906.485 198.082067 
" clip-path="url(#pd6c1bd4aa3)" style="fill: none; stroke: #ffb000; stroke-width: 1.5; stroke-linecap: square"/>
   </g>
   <g id="patch_9">
    <path d="M 513.47 215.10609 
L 513.47 10.8 
" style="fill: none; stroke: #000000; stroke-width: 0.8; stroke-linejoin: miter; stroke-linecap: square"/>
   </g>
   <g id="patch_10">
    <path d="M 925.2 215.10609 
L 925.2 10.8 
" style="fill: none; stroke: #000000; stroke-width: 0.8; stroke-linejoin: miter; stroke-linecap: square"/>
   </g>
   <g id="patch_11">
    <path d="M 513.47 215.10609 
L 925.2 215.10609 
" style="fill: none; stroke: #000000; stroke-width: 0.8; stroke-linejoin: miter; stroke-linecap: square"/>
   </g>
   <g id="patch_12">
    <path d="M 513.47 10.8 
L 925.2 10.8 
" style="fill: none; stroke: #000000; stroke-width: 0.8; stroke-linejoin: miter; stroke-linecap: square"/>
   </g>
   <g id="legend_2">
    <g id="patch_13">
     <path d="M 520.47 92.190625 
L 602.07 92.190625 
Q 604.07 92.190625 604.07 90.190625 
L 604.07 17.8 
Q 604.07 15.8 602.07 15.8 
L 520.47 15.8 
Q 518.47 15.8 518.47 17.8 
L 518.47 90.190625 
Q 518.47 92.190625 520.47 92.190625 
z
" style="fill: #ffffff; opacity: 0.8; stroke: #cccccc; stroke-linejoin: miter"/>
    </g>
    <g id="line2d_40">
     <path d="M 522.47 23.898438 
L 532.47 23.898438 
L 542.47 23.898438 
" style="fill: none; stroke: #648fff; stroke-width: 1.5; stroke-linecap: square"/>
    </g>
    <g id="text_34">
     <!-- $\alpha=-1.00$ -->
     <g transform="translate(550.47 27.398438) scale(0.1 -0.1)">
      <use xlink:href="#DejaVuSans-Oblique-3b1" transform="translate(0 0.78125)"/>
      <use xlink:href="#DejaVuSans-3d" transform="translate(85.400391 0.78125)"/>
      <use xlink:href="#DejaVuSans-2212" transform="translate(188.671875 0.78125)"/>
      <use xlink:href="#DejaVuSans-31" transform="translate(272.460938 0.78125)"/>
      <use xlink:href="#DejaVuSans-2e" transform="translate(336.083984 0.78125)"/>
      <use xlink:href="#DejaVuSans-30" transform="translate(367.871094 0.78125)"/>
      <use xlink:href="#DejaVuSans-30" transform="translate(431.494141 0.78125)"/>
     </g>
    </g>
    <g id="line2d_41">
     <path d="M 522.47 38.576563 
L 532.47 38.576563 
L 542.47 38.576563 
" style="fill: none; stroke: #785ef0; stroke-width: 1.5; stroke-linecap: square"/>
    </g>
    <g id="text_35">
     <!-- $\alpha=0.00$ -->
     <g transform="translate(550.47 42.076563) scale(0.1 -0.1)">
      <use xlink:href="#DejaVuSans-Oblique-3b1" transform="translate(0 0.78125)"/>
      <use xlink:href="#DejaVuSans-3d" transform="translate(85.400391 0.78125)"/>
      <use xlink:href="#DejaVuSans-30" transform="translate(188.671875 0.78125)"/>
      <use xlink:href="#DejaVuSans-2e" transform="translate(252.294922 0.78125)"/>
      <use xlink:href="#DejaVuSans-30" transform="translate(284.082031 0.78125)"/>
      <use xlink:href="#DejaVuSans-30" transform="translate(347.705078 0.78125)"/>
     </g>
    </g>
    <g id="line2d_42">
     <path d="M 522.47 53.254687 
L 532.47 53.254687 
L 542.47 53.254687 
" style="fill: none; stroke: #dc267f; stroke-width: 1.5; stroke-linecap: square"/>
    </g>
    <g id="text_36">
     <!-- $\alpha=0.50$ -->
     <g transform="translate(550.47 56.754687) scale(0.1 -0.1)">
      <use xlink:href="#DejaVuSans-Oblique-3b1" transform="translate(0 0.78125)"/>
      <use xlink:href="#DejaVuSans-3d" transform="translate(85.400391 0.78125)"/>
      <use xlink:href="#DejaVuSans-30" transform="translate(188.671875 0.78125)"/>
      <use xlink:href="#DejaVuSans-2e" transform="translate(252.294922 0.78125)"/>
      <use xlink:href="#DejaVuSans-35" transform="translate(284.082031 0.78125)"/>
      <use xlink:href="#DejaVuSans-30" transform="translate(347.705078 0.78125)"/>
     </g>
    </g>
    <g id="line2d_43">
     <path d="M 522.47 67.932813 
L 532.47 67.932813 
L 542.47 67.932813 
" style="fill: none; stroke: #fe6100; stroke-width: 1.5; stroke-linecap: square"/>
    </g>
    <g id="text_37">
     <!-- $\alpha=1.00$ -->
     <g transform="translate(550.47 71.432813) scale(0.1 -0.1)">
      <use xlink:href="#DejaVuSans-Oblique-3b1" transform="translate(0 0.78125)"/>
      <use xlink:href="#DejaVuSans-3d" transform="translate(85.400391 0.78125)"/>
      <use xlink:href="#DejaVuSans-31" transform="translate(188.671875 0.78125)"/>
      <use xlink:href="#DejaVuSans-2e" transform="translate(252.294922 0.78125)"/>
      <use xlink:href="#DejaVuSans-30" transform="translate(284.082031 0.78125)"/>
      <use xlink:href="#DejaVuSans-30" transform="translate(347.705078 0.78125)"/>
     </g>
    </g>
    <g id="line2d_44">
     <path d="M 522.47 82.610937 
L 532.47 82.610937 
L 542.47 82.610937 
" style="fill: none; stroke: #ffb000; stroke-width: 1.5; stroke-linecap: square"/>
    </g>
    <g id="text_38">
     <!-- $\alpha=2.00$ -->
     <g transform="translate(550.47 86.110937) scale(0.1 -0.1)">
      <use xlink:href="#DejaVuSans-Oblique-3b1" transform="translate(0 0.78125)"/>
      <use xlink:href="#DejaVuSans-3d" transform="translate(85.400391 0.78125)"/>
      <use xlink:href="#DejaVuSans-32" transform="translate(188.671875 0.78125)"/>
      <use xlink:href="#DejaVuSans-2e" transform="translate(252.294922 0.78125)"/>
      <use xlink:href="#DejaVuSans-30" transform="translate(284.082031 0.78125)"/>
      <use xlink:href="#DejaVuSans-30" transform="translate(347.705078 0.78125)"/>
     </g>
    </g>
   </g>
  </g>
  <g id="axes_3">
   <g id="patch_14">
    <path d="M 54.02 462.04 
L 465.75 462.04 
L 465.75 257.73391 
L 54.02 257.73391 
z
" style="fill: #ffffff"/>
   </g>
   <g id="matplotlib.axis_5">
    <g id="xtick_15">
     <g id="line2d_45">
      <g>
       <use xlink:href="#md8d05b2ff9" x="72.735" y="462.04" style="stroke: #000000; stroke-width: 0.8"/>
      </g>
     </g>
     <g id="text_39">
      <!-- 0 -->
      <g transform="translate(69.55375 476.638438) scale(0.1 -0.1)">
       <use xlink:href="#DejaVuSans-30"/>
      </g>
     </g>
    </g>
    <g id="xtick_16">
     <g id="line2d_46">
      <g>
       <use xlink:href="#md8d05b2ff9" x="135.118333" y="462.04" style="stroke: #000000; stroke-width: 0.8"/>
      </g>
     </g>
     <g id="text_40">
      <!-- 2 -->
      <g transform="translate(131.937083 476.638438) scale(0.1 -0.1)">
       <use xlink:href="#DejaVuSans-32"/>
      </g>
     </g>
    </g>
    <g id="xtick_17">
     <g id="line2d_47">
      <g>
       <use xlink:href="#md8d05b2ff9" x="197.501667" y="462.04" style="stroke: #000000; stroke-width: 0.8"/>
      </g>
     </g>
     <g id="text_41">
      <!-- 4 -->
      <g transform="translate(194.320417 476.638438) scale(0.1 -0.1)">
       <use xlink:href="#DejaVuSans-34"/>
      </g>
     </g>
    </g>
    <g id="xtick_18">
     <g id="line2d_48">
      <g>
       <use xlink:href="#md8d05b2ff9" x="259.885" y="462.04" style="stroke: #000000; stroke-width: 0.8"/>
      </g>
     </g>
     <g id="text_42">
      <!-- 6 -->
      <g transform="translate(256.70375 476.638438) scale(0.1 -0.1)">
       <use xlink:href="#DejaVuSans-36"/>
      </g>
     </g>
    </g>
    <g id="xtick_19">
     <g id="line2d_49">
      <g>
       <use xlink:href="#md8d05b2ff9" x="322.268333" y="462.04" style="stroke: #000000; stroke-width: 0.8"/>
      </g>
     </g>
     <g id="text_43">
      <!-- 8 -->
      <g transform="translate(319.087083 476.638438) scale(0.1 -0.1)">
       <use xlink:href="#DejaVuSans-38"/>
      </g>
     </g>
    </g>
    <g id="xtick_20">
     <g id="line2d_50">
      <g>
       <use xlink:href="#md8d05b2ff9" x="384.651667" y="462.04" style="stroke: #000000; stroke-width: 0.8"/>
      </g>
     </g>
     <g id="text_44">
      <!-- 10 -->
      <g transform="translate(378.289167 476.638438) scale(0.1 -0.1)">
       <use xlink:href="#DejaVuSans-31"/>
       <use xlink:href="#DejaVuSans-30" transform="translate(63.623047 0)"/>
      </g>
     </g>
    </g>
    <g id="xtick_21">
     <g id="line2d_51">
      <g>
       <use xlink:href="#md8d05b2ff9" x="447.035" y="462.04" style="stroke: #000000; stroke-width: 0.8"/>
      </g>
     </g>
     <g id="text_45">
      <!-- 12 -->
      <g transform="translate(440.6725 476.638438) scale(0.1 -0.1)">
       <use xlink:href="#DejaVuSans-31"/>
       <use xlink:href="#DejaVuSans-32" transform="translate(63.623047 0)"/>
      </g>
     </g>
    </g>
    <g id="text_46">
     <!-- Номер слоя -->
     <g transform="translate(229.44125 490.316563) scale(0.1 -0.1)">
      <use xlink:href="#DejaVuSans-41d"/>
      <use xlink:href="#DejaVuSans-43e" transform="translate(75.195312 0)"/>
      <use xlink:href="#DejaVuSans-43c" transform="translate(136.376953 0)"/>
      <use xlink:href="#DejaVuSans-435" transform="translate(211.816406 0)"/>
      <use xlink:href="#DejaVuSans-440" transform="translate(273.339844 0)"/>
      <use xlink:href="#DejaVuSans-20" transform="translate(336.816406 0)"/>
      <use xlink:href="#DejaVuSans-441" transform="translate(368.603516 0)"/>
      <use xlink:href="#DejaVuSans-43b" transform="translate(423.583984 0)"/>
      <use xlink:href="#DejaVuSans-43e" transform="translate(487.5 0)"/>
      <use xlink:href="#DejaVuSans-44f" transform="translate(548.681641 0)"/>
     </g>
    </g>
   </g>
   <g id="matplotlib.axis_6">
    <g id="ytick_11">
     <g id="line2d_52">
      <g>
       <use xlink:href="#ma37b349b67" x="54.02" y="452.75336" style="stroke: #000000; stroke-width: 0.8"/>
      </g>
     </g>
     <g id="text_47">
      <!-- 0.00 -->
      <g transform="translate(24.754375 456.552578) scale(0.1 -0.1)">
       <use xlink:href="#DejaVuSans-30"/>
       <use xlink:href="#DejaVuSans-2e" transform="translate(63.623047 0)"/>
       <use xlink:href="#DejaVuSans-30" transform="translate(95.410156 0)"/>
       <use xlink:href="#DejaVuSans-30" transform="translate(159.033203 0)"/>
      </g>
     </g>
    </g>
    <g id="ytick_12">
     <g id="line2d_53">
      <g>
       <use xlink:href="#ma37b349b67" x="54.02" y="414.413254" style="stroke: #000000; stroke-width: 0.8"/>
      </g>
     </g>
     <g id="text_48">
      <!-- 0.05 -->
      <g transform="translate(24.754375 418.212473) scale(0.1 -0.1)">
       <use xlink:href="#DejaVuSans-30"/>
       <use xlink:href="#DejaVuSans-2e" transform="translate(63.623047 0)"/>
       <use xlink:href="#DejaVuSans-30" transform="translate(95.410156 0)"/>
       <use xlink:href="#DejaVuSans-35" transform="translate(159.033203 0)"/>
      </g>
     </g>
    </g>
    <g id="ytick_13">
     <g id="line2d_54">
      <g>
       <use xlink:href="#ma37b349b67" x="54.02" y="376.073148" style="stroke: #000000; stroke-width: 0.8"/>
      </g>
     </g>
     <g id="text_49">
      <!-- 0.10 -->
      <g transform="translate(24.754375 379.872367) scale(0.1 -0.1)">
       <use xlink:href="#DejaVuSans-30"/>
       <use xlink:href="#DejaVuSans-2e" transform="translate(63.623047 0)"/>
       <use xlink:href="#DejaVuSans-31" transform="translate(95.410156 0)"/>
       <use xlink:href="#DejaVuSans-30" transform="translate(159.033203 0)"/>
      </g>
     </g>
    </g>
    <g id="ytick_14">
     <g id="line2d_55">
      <g>
       <use xlink:href="#ma37b349b67" x="54.02" y="337.733042" style="stroke: #000000; stroke-width: 0.8"/>
      </g>
     </g>
     <g id="text_50">
      <!-- 0.15 -->
      <g transform="translate(24.754375 341.532261) scale(0.1 -0.1)">
       <use xlink:href="#DejaVuSans-30"/>
       <use xlink:href="#DejaVuSans-2e" transform="translate(63.623047 0)"/>
       <use xlink:href="#DejaVuSans-31" transform="translate(95.410156 0)"/>
       <use xlink:href="#DejaVuSans-35" transform="translate(159.033203 0)"/>
      </g>
     </g>
    </g>
    <g id="ytick_15">
     <g id="line2d_56">
      <g>
       <use xlink:href="#ma37b349b67" x="54.02" y="299.392936" style="stroke: #000000; stroke-width: 0.8"/>
      </g>
     </g>
     <g id="text_51">
      <!-- 0.20 -->
      <g transform="translate(24.754375 303.192155) scale(0.1 -0.1)">
       <use xlink:href="#DejaVuSans-30"/>
       <use xlink:href="#DejaVuSans-2e" transform="translate(63.623047 0)"/>
       <use xlink:href="#DejaVuSans-32" transform="translate(95.410156 0)"/>
       <use xlink:href="#DejaVuSans-30" transform="translate(159.033203 0)"/>
      </g>
     </g>
    </g>
    <g id="ytick_16">
     <g id="line2d_57">
      <g>
       <use xlink:href="#ma37b349b67" x="54.02" y="261.052831" style="stroke: #000000; stroke-width: 0.8"/>
      </g>
     </g>
     <g id="text_52">
      <!-- 0.25 -->
      <g transform="translate(24.754375 264.852049) scale(0.1 -0.1)">
       <use xlink:href="#DejaVuSans-30"/>
       <use xlink:href="#DejaVuSans-2e" transform="translate(63.623047 0)"/>
       <use xlink:href="#DejaVuSans-32" transform="translate(95.410156 0)"/>
       <use xlink:href="#DejaVuSans-35" transform="translate(159.033203 0)"/>
      </g>
     </g>
    </g>
    <g id="text_53">
     <!-- Межслойная устойчивость -->
     <g transform="translate(18.674688 430.713517) rotate(-90) scale(0.1 -0.1)">
      <use xlink:href="#DejaVuSans-41c"/>
      <use xlink:href="#DejaVuSans-435" transform="translate(86.279297 0)"/>
      <use xlink:href="#DejaVuSans-436" transform="translate(147.802734 0)"/>
      <use xlink:href="#DejaVuSans-441" transform="translate(237.890625 0)"/>
      <use xlink:href="#DejaVuSans-43b" transform="translate(292.871094 0)"/>
      <use xlink:href="#DejaVuSans-43e" transform="translate(356.787109 0)"/>
      <use xlink:href="#DejaVuSans-439" transform="translate(417.96875 0)"/>
      <use xlink:href="#DejaVuSans-43d" transform="translate(482.958984 0)"/>
      <use xlink:href="#DejaVuSans-430" transform="translate(548.339844 0)"/>
      <use xlink:href="#DejaVuSans-44f" transform="translate(609.619141 0)"/>
      <use xlink:href="#DejaVuSans-20" transform="translate(669.775391 0)"/>
      <use xlink:href="#DejaVuSans-443" transform="translate(701.5625 0)"/>
      <use xlink:href="#DejaVuSans-441" transform="translate(760.742188 0)"/>
      <use xlink:href="#DejaVuSans-442" transform="translate(815.722656 0)"/>
      <use xlink:href="#DejaVuSans-43e" transform="translate(873.974609 0)"/>
      <use xlink:href="#DejaVuSans-439" transform="translate(935.15625 0)"/>
      <use xlink:href="#DejaVuSans-447" transform="translate(1000.146484 0)"/>
      <use xlink:href="#DejaVuSans-438" transform="translate(1059.228516 0)"/>
      <use xlink:href="#DejaVuSans-432" transform="translate(1124.21875 0)"/>
      <use xlink:href="#DejaVuSans-43e" transform="translate(1183.154297 0)"/>
      <use xlink:href="#DejaVuSans-441" transform="translate(1244.335938 0)"/>
      <use xlink:href="#DejaVuSans-442" transform="translate(1299.316406 0)"/>
      <use xlink:href="#DejaVuSans-44c" transform="translate(1357.568359 0)"/>
     </g>
    </g>
   </g>
   <g id="line2d_58">
    <path d="M 72.735 452.75336 
L 103.926667 452.75336 
L 135.118333 452.75336 
L 166.31 452.75336 
L 197.501667 452.75336 
L 228.693333 433.096567 
L 259.885 421.455314 
L 291.076667 405.249444 
L 322.268333 405.566069 
L 353.46 339.191722 
L 384.651667 277.311564 
L 415.843333 267.02055 
L 447.035 342.307326 
" clip-path="url(#pcaff32a856)" style="fill: none; stroke: #648fff; stroke-width: 1.5; stroke-linecap: square"/>
   </g>
   <g id="line2d_59">
    <path d="M 72.735 393.768581 
L 103.926667 393.768581 
L 135.118333 393.768581 
L 166.31 393.768581 
L 197.501667 393.768581 
L 228.693333 386.395484 
L 259.885 381.971626 
L 291.076667 371.64929 
L 322.268333 375.000697 
L 353.46 341.103601 
L 384.651667 325.346239 
L 415.843333 328.574879 
L 447.035 353.551687 
" clip-path="url(#pcaff32a856)" style="fill: none; stroke: #785ef0; stroke-width: 1.5; stroke-linecap: square"/>
   </g>
   <g id="line2d_60">
    <path d="M 72.735 452.75336 
L 103.926667 452.75336 
L 135.118333 452.75336 
L 166.31 452.75336 
L 197.501667 452.75336 
L 228.693333 448.368608 
L 259.885 445.674199 
L 291.076667 437.086061 
L 322.268333 441.243618 
L 353.46 417.238781 
L 384.651667 413.039783 
L 415.843333 417.991154 
L 447.035 428.921184 
" clip-path="url(#pcaff32a856)" style="fill: none; stroke: #dc267f; stroke-width: 1.5; stroke-linecap: square"/>
   </g>
   <g id="line2d_61">
    <path d="M 72.735 452.75336 
L 103.926667 452.75336 
L 135.118333 452.75336 
L 166.31 452.75336 
L 197.501667 452.75336 
L 228.693333 450.524284 
L 259.885 449.101921 
L 291.076667 442.722518 
L 322.268333 446.691683 
L 353.46 431.811285 
L 384.651667 433.186685 
L 415.843333 437.092044 
L 447.035 440.241437 
" clip-path="url(#pcaff32a856)" style="fill: none; stroke: #fe6100; stroke-width: 1.5; stroke-linecap: square"/>
   </g>
   <g id="line2d_62">
    <path d="M 72.735 452.75336 
L 103.926667 452.75336 
L 135.118333 452.75336 
L 166.31 452.75336 
L 197.501667 452.75336 
L 228.693333 452.26182 
L 259.885 451.91072 
L 291.076667 448.575271 
L 322.268333 451.263845 
L 353.46 445.884014 
L 384.651667 448.427809 
L 415.843333 449.887702 
L 447.035 449.428763 
" clip-path="url(#pcaff32a856)" style="fill: none; stroke: #ffb000; stroke-width: 1.5; stroke-linecap: square"/>
   </g>
   <g id="patch_15">
    <path d="M 54.02 462.04 
L 54.02 257.73391 
" style="fill: none; stroke: #000000; stroke-width: 0.8; stroke-linejoin: miter; stroke-linecap: square"/>
   </g>
   <g id="patch_16">
    <path d="M 465.75 462.04 
L 465.75 257.73391 
" style="fill: none; stroke: #000000; stroke-width: 0.8; stroke-linejoin: miter; stroke-linecap: square"/>
   </g>
   <g id="patch_17">
    <path d="M 54.02 462.04 
L 465.75 462.04 
" style="fill: none; stroke: #000000; stroke-width: 0.8; stroke-linejoin: miter; stroke-linecap: square"/>
   </g>
   <g id="patch_18">
    <path d="M 54.02 257.73391 
L 465.75 257.73391 
" style="fill: none; stroke: #000000; stroke-width: 0.8; stroke-linejoin: miter; stroke-linecap: square"/>
   </g>
   <g id="legend_3">
    <g id="patch_19">
     <path d="M 61.02 339.124535 
L 142.62 339.124535 
Q 144.62 339.124535 144.62 337.124535 
L 144.62 264.73391 
Q 144.62 262.73391 142.62 262.73391 
L 61.02 262.73391 
Q 59.02 262.73391 59.02 264.73391 
L 59.02 337.124535 
Q 59.02 339.124535 61.02 339.124535 
z
" style="fill: #ffffff; opacity: 0.8; stroke: #cccccc; stroke-linejoin: miter"/>
    </g>
    <g id="line2d_63">
     <path d="M 63.02 270.832347 
L 73.02 270.832347 
L 83.02 270.832347 
" style="fill: none; stroke: #648fff; stroke-width: 1.5; stroke-linecap: square"/>
    </g>
    <g id="text_54">
     <!-- $\alpha=-1.00$ -->
     <g transform="translate(91.02 274.332347) scale(0.1 -0.1)">
      <use xlink:href="#DejaVuSans-Oblique-3b1" transform="translate(0 0.78125)"/>
      <use xlink:href="#DejaVuSans-3d" transform="translate(85.400391 0.78125)"/>
      <use xlink:href="#DejaVuSans-2212" transform="translate(188.671875 0.78125)"/>
      <use xlink:href="#DejaVuSans-31" transform="translate(272.460938 0.78125)"/>
      <use xlink:href="#DejaVuSans-2e" transform="translate(336.083984 0.78125)"/>
      <use xlink:href="#DejaVuSans-30" transform="translate(367.871094 0.78125)"/>
      <use xlink:href="#DejaVuSans-30" transform="translate(431.494141 0.78125)"/>
     </g>
    </g>
    <g id="line2d_64">
     <path d="M 63.02 285.510472 
L 73.02 285.510472 
L 83.02 285.510472 
" style="fill: none; stroke: #785ef0; stroke-width: 1.5; stroke-linecap: square"/>
    </g>
    <g id="text_55">
     <!-- $\alpha=0.00$ -->
     <g transform="translate(91.02 289.010472) scale(0.1 -0.1)">
      <use xlink:href="#DejaVuSans-Oblique-3b1" transform="translate(0 0.78125)"/>
      <use xlink:href="#DejaVuSans-3d" transform="translate(85.400391 0.78125)"/>
      <use xlink:href="#DejaVuSans-30" transform="translate(188.671875 0.78125)"/>
      <use xlink:href="#DejaVuSans-2e" transform="translate(252.294922 0.78125)"/>
      <use xlink:href="#DejaVuSans-30" transform="translate(284.082031 0.78125)"/>
      <use xlink:href="#DejaVuSans-30" transform="translate(347.705078 0.78125)"/>
     </g>
    </g>
    <g id="line2d_65">
     <path d="M 63.02 300.188597 
L 73.02 300.188597 
L 83.02 300.188597 
" style="fill: none; stroke: #dc267f; stroke-width: 1.5; stroke-linecap: square"/>
    </g>
    <g id="text_56">
     <!-- $\alpha=0.50$ -->
     <g transform="translate(91.02 303.688597) scale(0.1 -0.1)">
      <use xlink:href="#DejaVuSans-Oblique-3b1" transform="translate(0 0.78125)"/>
      <use xlink:href="#DejaVuSans-3d" transform="translate(85.400391 0.78125)"/>
      <use xlink:href="#DejaVuSans-30" transform="translate(188.671875 0.78125)"/>
      <use xlink:href="#DejaVuSans-2e" transform="translate(252.294922 0.78125)"/>
      <use xlink:href="#DejaVuSans-35" transform="translate(284.082031 0.78125)"/>
      <use xlink:href="#DejaVuSans-30" transform="translate(347.705078 0.78125)"/>
     </g>
    </g>
    <g id="line2d_66">
     <path d="M 63.02 314.866722 
L 73.02 314.866722 
L 83.02 314.866722 
" style="fill: none; stroke: #fe6100; stroke-width: 1.5; stroke-linecap: square"/>
    </g>
    <g id="text_57">
     <!-- $\alpha=1.00$ -->
     <g transform="translate(91.02 318.366722) scale(0.1 -0.1)">
      <use xlink:href="#DejaVuSans-Oblique-3b1" transform="translate(0 0.78125)"/>
      <use xlink:href="#DejaVuSans-3d" transform="translate(85.400391 0.78125)"/>
      <use xlink:href="#DejaVuSans-31" transform="translate(188.671875 0.78125)"/>
      <use xlink:href="#DejaVuSans-2e" transform="translate(252.294922 0.78125)"/>
      <use xlink:href="#DejaVuSans-30" transform="translate(284.082031 0.78125)"/>
      <use xlink:href="#DejaVuSans-30" transform="translate(347.705078 0.78125)"/>
     </g>
    </g>
    <g id="line2d_67">
     <path d="M 63.02 329.544847 
L 73.02 329.544847 
L 83.02 329.544847 
" style="fill: none; stroke: #ffb000; stroke-width: 1.5; stroke-linecap: square"/>
    </g>
    <g id="text_58">
     <!-- $\alpha=2.00$ -->
     <g transform="translate(91.02 333.044847) scale(0.1 -0.1)">
      <use xlink:href="#DejaVuSans-Oblique-3b1" transform="translate(0 0.78125)"/>
      <use xlink:href="#DejaVuSans-3d" transform="translate(85.400391 0.78125)"/>
      <use xlink:href="#DejaVuSans-32" transform="translate(188.671875 0.78125)"/>
      <use xlink:href="#DejaVuSans-2e" transform="translate(252.294922 0.78125)"/>
      <use xlink:href="#DejaVuSans-30" transform="translate(284.082031 0.78125)"/>
      <use xlink:href="#DejaVuSans-30" transform="translate(347.705078 0.78125)"/>
     </g>
    </g>
   </g>
  </g>
  <g id="axes_4">
   <g id="patch_20">
    <path d="M 513.47 462.04 
L 925.2 462.04 
L 925.2 257.73391 
L 513.47 257.73391 
z
" style="fill: #ffffff"/>
   </g>
   <g id="matplotlib.axis_7">
    <g id="xtick_22">
     <g id="line2d_68">
      <g>
       <use xlink:href="#md8d05b2ff9" x="532.185" y="462.04" style="stroke: #000000; stroke-width: 0.8"/>
      </g>
     </g>
     <g id="text_59">
      <!-- 0 -->
      <g transform="translate(529.00375 476.638438) scale(0.1 -0.1)">
       <use xlink:href="#DejaVuSans-30"/>
      </g>
     </g>
    </g>
    <g id="xtick_23">
     <g id="line2d_69">
      <g>
       <use xlink:href="#md8d05b2ff9" x="594.568333" y="462.04" style="stroke: #000000; stroke-width: 0.8"/>
      </g>
     </g>
     <g id="text_60">
      <!-- 2 -->
      <g transform="translate(591.387083 476.638438) scale(0.1 -0.1)">
       <use xlink:href="#DejaVuSans-32"/>
      </g>
     </g>
    </g>
    <g id="xtick_24">
     <g id="line2d_70">
      <g>
       <use xlink:href="#md8d05b2ff9" x="656.951667" y="462.04" style="stroke: #000000; stroke-width: 0.8"/>
      </g>
     </g>
     <g id="text_61">
      <!-- 4 -->
      <g transform="translate(653.770417 476.638438) scale(0.1 -0.1)">
       <use xlink:href="#DejaVuSans-34"/>
      </g>
     </g>
    </g>
    <g id="xtick_25">
     <g id="line2d_71">
      <g>
       <use xlink:href="#md8d05b2ff9" x="719.335" y="462.04" style="stroke: #000000; stroke-width: 0.8"/>
      </g>
     </g>
     <g id="text_62">
      <!-- 6 -->
      <g transform="translate(716.15375 476.638438) scale(0.1 -0.1)">
       <use xlink:href="#DejaVuSans-36"/>
      </g>
     </g>
    </g>
    <g id="xtick_26">
     <g id="line2d_72">
      <g>
       <use xlink:href="#md8d05b2ff9" x="781.718333" y="462.04" style="stroke: #000000; stroke-width: 0.8"/>
      </g>
     </g>
     <g id="text_63">
      <!-- 8 -->
      <g transform="translate(778.537083 476.638438) scale(0.1 -0.1)">
       <use xlink:href="#DejaVuSans-38"/>
      </g>
     </g>
    </g>
    <g id="xtick_27">
     <g id="line2d_73">
      <g>
       <use xlink:href="#md8d05b2ff9" x="844.101667" y="462.04" style="stroke: #000000; stroke-width: 0.8"/>
      </g>
     </g>
     <g id="text_64">
      <!-- 10 -->
      <g transform="translate(837.739167 476.638438) scale(0.1 -0.1)">
       <use xlink:href="#DejaVuSans-31"/>
       <use xlink:href="#DejaVuSans-30" transform="translate(63.623047 0)"/>
      </g>
     </g>
    </g>
    <g id="xtick_28">
     <g id="line2d_74">
      <g>
       <use xlink:href="#md8d05b2ff9" x="906.485" y="462.04" style="stroke: #000000; stroke-width: 0.8"/>
      </g>
     </g>
     <g id="text_65">
      <!-- 12 -->
      <g transform="translate(900.1225 476.638438) scale(0.1 -0.1)">
       <use xlink:href="#DejaVuSans-31"/>
       <use xlink:href="#DejaVuSans-32" transform="translate(63.623047 0)"/>
      </g>
     </g>
    </g>
    <g id="text_66">
     <!-- Номер слоя -->
     <g transform="translate(688.89125 490.316563) scale(0.1 -0.1)">
      <use xlink:href="#DejaVuSans-41d"/>
      <use xlink:href="#DejaVuSans-43e" transform="translate(75.195312 0)"/>
      <use xlink:href="#DejaVuSans-43c" transform="translate(136.376953 0)"/>
      <use xlink:href="#DejaVuSans-435" transform="translate(211.816406 0)"/>
      <use xlink:href="#DejaVuSans-440" transform="translate(273.339844 0)"/>
      <use xlink:href="#DejaVuSans-20" transform="translate(336.816406 0)"/>
      <use xlink:href="#DejaVuSans-441" transform="translate(368.603516 0)"/>
      <use xlink:href="#DejaVuSans-43b" transform="translate(423.583984 0)"/>
      <use xlink:href="#DejaVuSans-43e" transform="translate(487.5 0)"/>
      <use xlink:href="#DejaVuSans-44f" transform="translate(548.681641 0)"/>
     </g>
    </g>
   </g>
   <g id="matplotlib.axis_8">
    <g id="ytick_17">
     <g id="line2d_75">
      <g>
       <use xlink:href="#ma37b349b67" x="513.47" y="455.372447" style="stroke: #000000; stroke-width: 0.8"/>
      </g>
     </g>
     <g id="text_67">
      <!-- 0.0 -->
      <g transform="translate(490.566875 459.171666) scale(0.1 -0.1)">
       <use xlink:href="#DejaVuSans-30"/>
       <use xlink:href="#DejaVuSans-2e" transform="translate(63.623047 0)"/>
       <use xlink:href="#DejaVuSans-30" transform="translate(95.410156 0)"/>
      </g>
     </g>
    </g>
    <g id="ytick_18">
     <g id="line2d_76">
      <g>
       <use xlink:href="#ma37b349b67" x="513.47" y="417.137239" style="stroke: #000000; stroke-width: 0.8"/>
      </g>
     </g>
     <g id="text_68">
      <!-- 0.1 -->
      <g transform="translate(490.566875 420.936458) scale(0.1 -0.1)">
       <use xlink:href="#DejaVuSans-30"/>
       <use xlink:href="#DejaVuSans-2e" transform="translate(63.623047 0)"/>
       <use xlink:href="#DejaVuSans-31" transform="translate(95.410156 0)"/>
      </g>
     </g>
    </g>
    <g id="ytick_19">
     <g id="line2d_77">
      <g>
       <use xlink:href="#ma37b349b67" x="513.47" y="378.90203" style="stroke: #000000; stroke-width: 0.8"/>
      </g>
     </g>
     <g id="text_69">
      <!-- 0.2 -->
      <g transform="translate(490.566875 382.701249) scale(0.1 -0.1)">
       <use xlink:href="#DejaVuSans-30"/>
       <use xlink:href="#DejaVuSans-2e" transform="translate(63.623047 0)"/>
       <use xlink:href="#DejaVuSans-32" transform="translate(95.410156 0)"/>
      </g>
     </g>
    </g>
    <g id="ytick_20">
     <g id="line2d_78">
      <g>
       <use xlink:href="#ma37b349b67" x="513.47" y="340.666822" style="stroke: #000000; stroke-width: 0.8"/>
      </g>
     </g>
     <g id="text_70">
      <!-- 0.3 -->
      <g transform="translate(490.566875 344.466041) scale(0.1 -0.1)">
       <use xlink:href="#DejaVuSans-30"/>
       <use xlink:href="#DejaVuSans-2e" transform="translate(63.623047 0)"/>
       <use xlink:href="#DejaVuSans-33" transform="translate(95.410156 0)"/>
      </g>
     </g>
    </g>
    <g id="ytick_21">
     <g id="line2d_79">
      <g>
       <use xlink:href="#ma37b349b67" x="513.47" y="302.431614" style="stroke: #000000; stroke-width: 0.8"/>
      </g>
     </g>
     <g id="text_71">
      <!-- 0.4 -->
      <g transform="translate(490.566875 306.230832) scale(0.1 -0.1)">
       <use xlink:href="#DejaVuSans-30"/>
       <use xlink:href="#DejaVuSans-2e" transform="translate(63.623047 0)"/>
       <use xlink:href="#DejaVuSans-34" transform="translate(95.410156 0)"/>
      </g>
     </g>
    </g>
    <g id="ytick_22">
     <g id="line2d_80">
      <g>
       <use xlink:href="#ma37b349b67" x="513.47" y="264.196405" style="stroke: #000000; stroke-width: 0.8"/>
      </g>
     </g>
     <g id="text_72">
      <!-- 0.5 -->
      <g transform="translate(490.566875 267.995624) scale(0.1 -0.1)">
       <use xlink:href="#DejaVuSans-30"/>
       <use xlink:href="#DejaVuSans-2e" transform="translate(63.623047 0)"/>
       <use xlink:href="#DejaVuSans-35" transform="translate(95.410156 0)"/>
      </g>
     </g>
    </g>
    <g id="text_73">
     <!-- Межслойная устойчивость -->
     <g transform="translate(484.487188 430.713517) rotate(-90) scale(0.1 -0.1)">
      <use xlink:href="#DejaVuSans-41c"/>
      <use xlink:href="#DejaVuSans-435" transform="translate(86.279297 0)"/>
      <use xlink:href="#DejaVuSans-436" transform="translate(147.802734 0)"/>
      <use xlink:href="#DejaVuSans-441" transform="translate(237.890625 0)"/>
      <use xlink:href="#DejaVuSans-43b" transform="translate(292.871094 0)"/>
      <use xlink:href="#DejaVuSans-43e" transform="translate(356.787109 0)"/>
      <use xlink:href="#DejaVuSans-439" transform="translate(417.96875 0)"/>
      <use xlink:href="#DejaVuSans-43d" transform="translate(482.958984 0)"/>
      <use xlink:href="#DejaVuSans-430" transform="translate(548.339844 0)"/>
      <use xlink:href="#DejaVuSans-44f" transform="translate(609.619141 0)"/>
      <use xlink:href="#DejaVuSans-20" transform="translate(669.775391 0)"/>
      <use xlink:href="#DejaVuSans-443" transform="translate(701.5625 0)"/>
      <use xlink:href="#DejaVuSans-441" transform="translate(760.742188 0)"/>
      <use xlink:href="#DejaVuSans-442" transform="translate(815.722656 0)"/>
      <use xlink:href="#DejaVuSans-43e" transform="translate(873.974609 0)"/>
      <use xlink:href="#DejaVuSans-439" transform="translate(935.15625 0)"/>
      <use xlink:href="#DejaVuSans-447" transform="translate(1000.146484 0)"/>
      <use xlink:href="#DejaVuSans-438" transform="translate(1059.228516 0)"/>
      <use xlink:href="#DejaVuSans-432" transform="translate(1124.21875 0)"/>
      <use xlink:href="#DejaVuSans-43e" transform="translate(1183.154297 0)"/>
      <use xlink:href="#DejaVuSans-441" transform="translate(1244.335938 0)"/>
      <use xlink:href="#DejaVuSans-442" transform="translate(1299.316406 0)"/>
      <use xlink:href="#DejaVuSans-44c" transform="translate(1357.568359 0)"/>
     </g>
    </g>
   </g>
   <g id="line2d_81">
    <path d="M 532.185 423.793037 
L 563.376667 411.505715 
L 594.568333 389.502992 
L 625.76 387.026002 
L 656.951667 372.534978 
L 688.143333 349.125677 
L 719.335 337.779429 
L 750.526667 329.08757 
L 781.718333 324.389175 
L 812.91 292.968023 
L 844.101667 267.02055 
L 875.293333 273.771897 
L 906.485 312.256144 
" clip-path="url(#p1c8cd8e322)" style="fill: none; stroke: #648fff; stroke-width: 1.5; stroke-linecap: square"/>
   </g>
   <g id="line2d_82">
    <path d="M 532.185 415.401466 
L 563.376667 408.820597 
L 594.568333 388.729273 
L 625.76 383.550621 
L 656.951667 372.717062 
L 688.143333 358.395541 
L 719.335 350.222172 
L 750.526667 346.75611 
L 781.718333 347.479016 
L 812.91 337.320672 
L 844.101667 332.563818 
L 875.293333 339.871346 
L 906.485 357.656283 
" clip-path="url(#p1c8cd8e322)" style="fill: none; stroke: #785ef0; stroke-width: 1.5; stroke-linecap: square"/>
   </g>
   <g id="line2d_83">
    <path d="M 532.185 448.699843 
L 563.376667 444.464371 
L 594.568333 424.740285 
L 625.76 417.716097 
L 656.951667 406.980638 
L 688.143333 393.561227 
L 719.335 386.44014 
L 750.526667 386.096648 
L 781.718333 390.645272 
L 812.91 388.285938 
L 844.101667 389.644231 
L 875.293333 395.355633 
L 906.485 404.881285 
" clip-path="url(#p1c8cd8e322)" style="fill: none; stroke: #dc267f; stroke-width: 1.5; stroke-linecap: square"/>
   </g>
   <g id="line2d_84">
    <path d="M 532.185 451.081232 
L 563.376667 448.539879 
L 594.568333 431.043805 
L 625.76 423.306201 
L 656.951667 413.331358 
L 688.143333 401.008304 
L 719.335 395.72877 
L 750.526667 398.911669 
L 781.718333 406.814361 
L 812.91 409.899505 
L 844.101667 413.613323 
L 875.293333 416.511731 
L 906.485 420.379152 
" clip-path="url(#p1c8cd8e322)" style="fill: none; stroke: #fe6100; stroke-width: 1.5; stroke-linecap: square"/>
   </g>
   <g id="line2d_85">
    <path d="M 532.185 452.75336 
L 563.376667 451.418738 
L 594.568333 436.892875 
L 625.76 428.954123 
L 656.951667 419.787339 
L 688.143333 407.916127 
L 719.335 406.13103 
L 750.526667 415.864195 
L 781.718333 427.85864 
L 812.91 434.11538 
L 844.101667 436.795222 
L 875.293333 436.504033 
L 906.485 436.727367 
" clip-path="url(#p1c8cd8e322)" style="fill: none; stroke: #ffb000; stroke-width: 1.5; stroke-linecap: square"/>
   </g>
   <g id="patch_21">
    <path d="M 513.47 462.04 
L 513.47 257.73391 
" style="fill: none; stroke: #000000; stroke-width: 0.8; stroke-linejoin: miter; stroke-linecap: square"/>
   </g>
   <g id="patch_22">
    <path d="M 925.2 462.04 
L 925.2 257.73391 
" style="fill: none; stroke: #000000; stroke-width: 0.8; stroke-linejoin: miter; stroke-linecap: square"/>
   </g>
   <g id="patch_23">
    <path d="M 513.47 462.04 
L 925.2 462.04 
" style="fill: none; stroke: #000000; stroke-width: 0.8; stroke-linejoin: miter; stroke-linecap: square"/>
   </g>
   <g id="patch_24">
    <path d="M 513.47 257.73391 
L 925.2 257.73391 
" style="fill: none; stroke: #000000; stroke-width: 0.8; stroke-linejoin: miter; stroke-linecap: square"/>
   </g>
   <g id="legend_4">
    <g id="patch_25">
     <path d="M 520.47 339.124535 
L 602.07 339.124535 
Q 604.07 339.124535 604.07 337.124535 
L 604.07 264.73391 
Q 604.07 262.73391 602.07 262.73391 
L 520.47 262.73391 
Q 518.47 262.73391 518.47 264.73391 
L 518.47 337.124535 
Q 518.47 339.124535 520.47 339.124535 
z
" style="fill: #ffffff; opacity: 0.8; stroke: #cccccc; stroke-linejoin: miter"/>
    </g>
    <g id="line2d_86">
     <path d="M 522.47 270.832347 
L 532.47 270.832347 
L 542.47 270.832347 
" style="fill: none; stroke: #648fff; stroke-width: 1.5; stroke-linecap: square"/>
    </g>
    <g id="text_74">
     <!-- $\alpha=-1.00$ -->
     <g transform="translate(550.47 274.332347) scale(0.1 -0.1)">
      <use xlink:href="#DejaVuSans-Oblique-3b1" transform="translate(0 0.78125)"/>
      <use xlink:href="#DejaVuSans-3d" transform="translate(85.400391 0.78125)"/>
      <use xlink:href="#DejaVuSans-2212" transform="translate(188.671875 0.78125)"/>
      <use xlink:href="#DejaVuSans-31" transform="translate(272.460938 0.78125)"/>
      <use xlink:href="#DejaVuSans-2e" transform="translate(336.083984 0.78125)"/>
      <use xlink:href="#DejaVuSans-30" transform="translate(367.871094 0.78125)"/>
      <use xlink:href="#DejaVuSans-30" transform="translate(431.494141 0.78125)"/>
     </g>
    </g>
    <g id="line2d_87">
     <path d="M 522.47 285.510472 
L 532.47 285.510472 
L 542.47 285.510472 
" style="fill: none; stroke: #785ef0; stroke-width: 1.5; stroke-linecap: square"/>
    </g>
    <g id="text_75">
     <!-- $\alpha=0.00$ -->
     <g transform="translate(550.47 289.010472) scale(0.1 -0.1)">
      <use xlink:href="#DejaVuSans-Oblique-3b1" transform="translate(0 0.78125)"/>
      <use xlink:href="#DejaVuSans-3d" transform="translate(85.400391 0.78125)"/>
      <use xlink:href="#DejaVuSans-30" transform="translate(188.671875 0.78125)"/>
      <use xlink:href="#DejaVuSans-2e" transform="translate(252.294922 0.78125)"/>
      <use xlink:href="#DejaVuSans-30" transform="translate(284.082031 0.78125)"/>
      <use xlink:href="#DejaVuSans-30" transform="translate(347.705078 0.78125)"/>
     </g>
    </g>
    <g id="line2d_88">
     <path d="M 522.47 300.188597 
L 532.47 300.188597 
L 542.47 300.188597 
" style="fill: none; stroke: #dc267f; stroke-width: 1.5; stroke-linecap: square"/>
    </g>
    <g id="text_76">
     <!-- $\alpha=0.50$ -->
     <g transform="translate(550.47 303.688597) scale(0.1 -0.1)">
      <use xlink:href="#DejaVuSans-Oblique-3b1" transform="translate(0 0.78125)"/>
      <use xlink:href="#DejaVuSans-3d" transform="translate(85.400391 0.78125)"/>
      <use xlink:href="#DejaVuSans-30" transform="translate(188.671875 0.78125)"/>
      <use xlink:href="#DejaVuSans-2e" transform="translate(252.294922 0.78125)"/>
      <use xlink:href="#DejaVuSans-35" transform="translate(284.082031 0.78125)"/>
      <use xlink:href="#DejaVuSans-30" transform="translate(347.705078 0.78125)"/>
     </g>
    </g>
    <g id="line2d_89">
     <path d="M 522.47 314.866722 
L 532.47 314.866722 
L 542.47 314.866722 
" style="fill: none; stroke: #fe6100; stroke-width: 1.5; stroke-linecap: square"/>
    </g>
    <g id="text_77">
     <!-- $\alpha=1.00$ -->
     <g transform="translate(550.47 318.366722) scale(0.1 -0.1)">
      <use xlink:href="#DejaVuSans-Oblique-3b1" transform="translate(0 0.78125)"/>
      <use xlink:href="#DejaVuSans-3d" transform="translate(85.400391 0.78125)"/>
      <use xlink:href="#DejaVuSans-31" transform="translate(188.671875 0.78125)"/>
      <use xlink:href="#DejaVuSans-2e" transform="translate(252.294922 0.78125)"/>
      <use xlink:href="#DejaVuSans-30" transform="translate(284.082031 0.78125)"/>
      <use xlink:href="#DejaVuSans-30" transform="translate(347.705078 0.78125)"/>
     </g>
    </g>
    <g id="line2d_90">
     <path d="M 522.47 329.544847 
L 532.47 329.544847 
L 542.47 329.544847 
" style="fill: none; stroke: #ffb000; stroke-width: 1.5; stroke-linecap: square"/>
    </g>
    <g id="text_78">
     <!-- $\alpha=2.00$ -->
     <g transform="translate(550.47 333.044847) scale(0.1 -0.1)">
      <use xlink:href="#DejaVuSans-Oblique-3b1" transform="translate(0 0.78125)"/>
      <use xlink:href="#DejaVuSans-3d" transform="translate(85.400391 0.78125)"/>
      <use xlink:href="#DejaVuSans-32" transform="translate(188.671875 0.78125)"/>
      <use xlink:href="#DejaVuSans-2e" transform="translate(252.294922 0.78125)"/>
      <use xlink:href="#DejaVuSans-30" transform="translate(284.082031 0.78125)"/>
      <use xlink:href="#DejaVuSans-30" transform="translate(347.705078 0.78125)"/>
     </g>
    </g>
   </g>
  </g>
 </g>
 <defs>
  <clipPath id="p8d5925f8d5">
   <rect x="54.02" y="10.8" width="411.73" height="204.30609"/>
  </clipPath>
  <clipPath id="pd6c1bd4aa3">
   <rect x="513.47" y="10.8" width="411.73" height="204.30609"/>
  </clipPath>
  <clipPath id="pcaff32a856">
   <rect x="54.02" y="257.73391" width="411.73" height="204.30609"/>
  </clipPath>
  <clipPath id="p1c8cd8e322">
   <rect x="513.47" y="257.73391" width="411.73" height="204.30609"/>
  </clipPath>
 </defs>
</svg>
