<?xml version="1.0" encoding="utf-8" standalone="no"?>
<!DOCTYPE svg PUBLIC "-//W3C//DTD SVG 1.1//EN"
  "http://www.w3.org/Graphics/SVG/1.1/DTD/svg11.dtd">
<svg xmlns:xlink="http://www.w3.org/1999/xlink" width="936pt" height="504pt" viewBox="0 0 936 504" xmlns="http://www.w3.org/2000/svg" version="1.1">
 <metadata>
  <rdf:RDF xmlns:dc="http://purl.org/dc/elements/1.1/" xmlns:cc="http://creativecommons.org/ns#" xmlns:rdf="http://www.w3.org/1999/02/22-rdf-syntax-ns#">
   <cc:Work>
    <dc:type rdf:resource="http://purl.org/dc/dcmitype/StillImage"/>
    <dc:date>2026-06-13T23:33:04.317721</dc:date>
    <dc:format>image/svg+xml</dc:format>
    <dc:creator>
     <cc:Agent>
      <dc:title>Matplotlib v3.10.9, https://matplotlib.org/</dc:title>
     </cc:Agent>
    </dc:creator>
   </cc:Work>
  </rdf:RDF>
 </metadata>
 <defs>
  <style type="text/css">*{stroke-linejoin: round; stroke-linecap: butt}</style>
 </defs>
 <g id="figure_1">
  <g id="patch_1">
   <path d="M 0 504 
L 936 504 
L 936 0 
L 0 0 
z
" style="fill: #ffffff"/>
  </g>
  <g id="axes_1">
   <g id="patch_2">
    <path d="M 54.11 215.44 
L 462.645 215.44 
L 462.645 10.8 
L 54.11 10.8 
z
" style="fill: #ffffff"/>
   </g>
   <g id="matplotlib.axis_1">
    <g id="xtick_1">
     <g id="line2d_1">
      <defs>
       <path id="m7fd0fd9ac5" d="M 0 0 
L 0 3.5 
" style="stroke: #000000; stroke-width: 0.8"/>
      </defs>
      <g>
       <use xlink:href="#m7fd0fd9ac5" x="72.679773" y="215.44" style="stroke: #000000; stroke-width: 0.8"/>
      </g>
     </g>
     <g id="text_1">
      <!-- 0 -->
      <g transform="translate(69.498523 230.038438) scale(0.1 -0.1)">
       <defs>
        <path id="DejaVuSans-30" d="M 2034 4250 
Q 1547 4250 1301 3770 
Q 1056 3291 1056 2328 
Q 1056 1369 1301 889 
Q 1547 409 2034 409 
Q 2525 409 2770 889 
Q 3016 1369 3016 2328 
Q 3016 3291 2770 3770 
Q 2525 4250 2034 4250 
z
M 2034 4750 
Q 2819 4750 3233 4129 
Q 3647 3509 3647 2328 
Q 3647 1150 3233 529 
Q 2819 -91 2034 -91 
Q 1250 -91 836 529 
Q 422 1150 422 2328 
Q 422 3509 836 4129 
Q 1250 4750 2034 4750 
z
" transform="scale(0.015625)"/>
       </defs>
       <use xlink:href="#DejaVuSans-30"/>
      </g>
     </g>
    </g>
    <g id="xtick_2">
     <g id="line2d_2">
      <g>
       <use xlink:href="#m7fd0fd9ac5" x="119.104205" y="215.44" style="stroke: #000000; stroke-width: 0.8"/>
      </g>
     </g>
     <g id="text_2">
      <!-- 2 -->
      <g transform="translate(115.922955 230.038438) scale(0.1 -0.1)">
       <defs>
        <path id="DejaVuSans-32" d="M 1228 531 
L 3431 531 
L 3431 0 
L 469 0 
L 469 531 
Q 828 903 1448 1529 
Q 2069 2156 2228 2338 
Q 2531 2678 2651 2914 
Q 2772 3150 2772 3378 
Q 2772 3750 2511 3984 
Q 2250 4219 1831 4219 
Q 1534 4219 1204 4116 
Q 875 4013 500 3803 
L 500 4441 
Q 881 4594 1212 4672 
Q 1544 4750 1819 4750 
Q 2544 4750 2975 4387 
Q 3406 4025 3406 3419 
Q 3406 3131 3298 2873 
Q 3191 2616 2906 2266 
Q 2828 2175 2409 1742 
Q 1991 1309 1228 531 
z
" transform="scale(0.015625)"/>
       </defs>
       <use xlink:href="#DejaVuSans-32"/>
      </g>
     </g>
    </g>
    <g id="xtick_3">
     <g id="line2d_3">
      <g>
       <use xlink:href="#m7fd0fd9ac5" x="165.528636" y="215.44" style="stroke: #000000; stroke-width: 0.8"/>
      </g>
     </g>
     <g id="text_3">
      <!-- 4 -->
      <g transform="translate(162.347386 230.038438) scale(0.1 -0.1)">
       <defs>
        <path id="DejaVuSans-34" d="M 2419 4116 
L 825 1625 
L 2419 1625 
L 2419 4116 
z
M 2253 4666 
L 3047 4666 
L 3047 1625 
L 3713 1625 
L 3713 1100 
L 3047 1100 
L 3047 0 
L 2419 0 
L 2419 1100 
L 313 1100 
L 313 1709 
L 2253 4666 
z
" transform="scale(0.015625)"/>
       </defs>
       <use xlink:href="#DejaVuSans-34"/>
      </g>
     </g>
    </g>
    <g id="xtick_4">
     <g id="line2d_4">
      <g>
       <use xlink:href="#m7fd0fd9ac5" x="211.953068" y="215.44" style="stroke: #000000; stroke-width: 0.8"/>
      </g>
     </g>
     <g id="text_4">
      <!-- 6 -->
      <g transform="translate(208.771818 230.038438) scale(0.1 -0.1)">
       <defs>
        <path id="DejaVuSans-36" d="M 2113 2584 
Q 1688 2584 1439 2293 
Q 1191 2003 1191 1497 
Q 1191 994 1439 701 
Q 1688 409 2113 409 
Q 2538 409 2786 701 
Q 3034 994 3034 1497 
Q 3034 2003 2786 2293 
Q 2538 2584 2113 2584 
z
M 3366 4563 
L 3366 3988 
Q 3128 4100 2886 4159 
Q 2644 4219 2406 4219 
Q 1781 4219 1451 3797 
Q 1122 3375 1075 2522 
Q 1259 2794 1537 2939 
Q 1816 3084 2150 3084 
Q 2853 3084 3261 2657 
Q 3669 2231 3669 1497 
Q 3669 778 3244 343 
Q 2819 -91 2113 -91 
Q 1303 -91 875 529 
Q 447 1150 447 2328 
Q 447 3434 972 4092 
Q 1497 4750 2381 4750 
Q 2619 4750 2861 4703 
Q 3103 4656 3366 4563 
z
" transform="scale(0.015625)"/>
       </defs>
       <use xlink:href="#DejaVuSans-36"/>
      </g>
     </g>
    </g>
    <g id="xtick_5">
     <g id="line2d_5">
      <g>
       <use xlink:href="#m7fd0fd9ac5" x="258.3775" y="215.44" style="stroke: #000000; stroke-width: 0.8"/>
      </g>
     </g>
     <g id="text_5">
      <!-- 8 -->
      <g transform="translate(255.19625 230.038438) scale(0.1 -0.1)">
       <defs>
        <path id="DejaVuSans-38" d="M 2034 2216 
Q 1584 2216 1326 1975 
Q 1069 1734 1069 1313 
Q 1069 891 1326 650 
Q 1584 409 2034 409 
Q 2484 409 2743 651 
Q 3003 894 3003 1313 
Q 3003 1734 2745 1975 
Q 2488 2216 2034 2216 
z
M 1403 2484 
Q 997 2584 770 2862 
Q 544 3141 544 3541 
Q 544 4100 942 4425 
Q 1341 4750 2034 4750 
Q 2731 4750 3128 4425 
Q 3525 4100 3525 3541 
Q 3525 3141 3298 2862 
Q 3072 2584 2669 2484 
Q 3125 2378 3379 2068 
Q 3634 1759 3634 1313 
Q 3634 634 3220 271 
Q 2806 -91 2034 -91 
Q 1263 -91 848 271 
Q 434 634 434 1313 
Q 434 1759 690 2068 
Q 947 2378 1403 2484 
z
M 1172 3481 
Q 1172 3119 1398 2916 
Q 1625 2713 2034 2713 
Q 2441 2713 2670 2916 
Q 2900 3119 2900 3481 
Q 2900 3844 2670 4047 
Q 2441 4250 2034 4250 
Q 1625 4250 1398 4047 
Q 1172 3844 1172 3481 
z
" transform="scale(0.015625)"/>
       </defs>
       <use xlink:href="#DejaVuSans-38"/>
      </g>
     </g>
    </g>
    <g id="xtick_6">
     <g id="line2d_6">
      <g>
       <use xlink:href="#m7fd0fd9ac5" x="304.801932" y="215.44" style="stroke: #000000; stroke-width: 0.8"/>
      </g>
     </g>
     <g id="text_6">
      <!-- 10 -->
      <g transform="translate(298.439432 230.038438) scale(0.1 -0.1)">
       <defs>
        <path id="DejaVuSans-31" d="M 794 531 
L 1825 531 
L 1825 4091 
L 703 3866 
L 703 4441 
L 1819 4666 
L 2450 4666 
L 2450 531 
L 3481 531 
L 3481 0 
L 794 0 
L 794 531 
z
" transform="scale(0.015625)"/>
       </defs>
       <use xlink:href="#DejaVuSans-31"/>
       <use xlink:href="#DejaVuSans-30" transform="translate(63.623047 0)"/>
      </g>
     </g>
    </g>
    <g id="xtick_7">
     <g id="line2d_7">
      <g>
       <use xlink:href="#m7fd0fd9ac5" x="351.226364" y="215.44" style="stroke: #000000; stroke-width: 0.8"/>
      </g>
     </g>
     <g id="text_7">
      <!-- 12 -->
      <g transform="translate(344.863864 230.038438) scale(0.1 -0.1)">
       <use xlink:href="#DejaVuSans-31"/>
       <use xlink:href="#DejaVuSans-32" transform="translate(63.623047 0)"/>
      </g>
     </g>
    </g>
    <g id="xtick_8">
     <g id="line2d_8">
      <g>
       <use xlink:href="#m7fd0fd9ac5" x="397.650795" y="215.44" style="stroke: #000000; stroke-width: 0.8"/>
      </g>
     </g>
     <g id="text_8">
      <!-- 14 -->
      <g transform="translate(391.288295 230.038438) scale(0.1 -0.1)">
       <use xlink:href="#DejaVuSans-31"/>
       <use xlink:href="#DejaVuSans-34" transform="translate(63.623047 0)"/>
      </g>
     </g>
    </g>
    <g id="xtick_9">
     <g id="line2d_9">
      <g>
       <use xlink:href="#m7fd0fd9ac5" x="444.075227" y="215.44" style="stroke: #000000; stroke-width: 0.8"/>
      </g>
     </g>
     <g id="text_9">
      <!-- 16 -->
      <g transform="translate(437.712727 230.038438) scale(0.1 -0.1)">
       <use xlink:href="#DejaVuSans-31"/>
       <use xlink:href="#DejaVuSans-36" transform="translate(63.623047 0)"/>
      </g>
     </g>
    </g>
    <g id="text_10">
     <!-- Номер слоя -->
     <g transform="translate(227.93375 243.716563) scale(0.1 -0.1)">
      <defs>
       <path id="DejaVuSans-41d" d="M 628 4666 
L 1259 4666 
L 1259 2753 
L 3553 2753 
L 3553 4666 
L 4184 4666 
L 4184 0 
L 3553 0 
L 3553 2222 
L 1259 2222 
L 1259 0 
L 628 0 
L 628 4666 
z
" transform="scale(0.015625)"/>
       <path id="DejaVuSans-43e" d="M 1959 3097 
Q 1497 3097 1228 2736 
Q 959 2375 959 1747 
Q 959 1119 1226 758 
Q 1494 397 1959 397 
Q 2419 397 2687 759 
Q 2956 1122 2956 1747 
Q 2956 2369 2687 2733 
Q 2419 3097 1959 3097 
z
M 1959 3584 
Q 2709 3584 3137 3096 
Q 3566 2609 3566 1747 
Q 3566 888 3137 398 
Q 2709 -91 1959 -91 
Q 1206 -91 779 398 
Q 353 888 353 1747 
Q 353 2609 779 3096 
Q 1206 3584 1959 3584 
z
" transform="scale(0.015625)"/>
       <path id="DejaVuSans-43c" d="M 581 3500 
L 1422 3500 
L 2416 1156 
L 3413 3500 
L 4247 3500 
L 4247 0 
L 3669 0 
L 3669 2950 
L 2703 672 
L 2128 672 
L 1159 2950 
L 1159 0 
L 581 0 
L 581 3500 
z
" transform="scale(0.015625)"/>
       <path id="DejaVuSans-435" d="M 3597 1894 
L 3597 1613 
L 953 1613 
Q 991 1019 1311 708 
Q 1631 397 2203 397 
Q 2534 397 2845 478 
Q 3156 559 3463 722 
L 3463 178 
Q 3153 47 2828 -22 
Q 2503 -91 2169 -91 
Q 1331 -91 842 396 
Q 353 884 353 1716 
Q 353 2575 817 3079 
Q 1281 3584 2069 3584 
Q 2775 3584 3186 3129 
Q 3597 2675 3597 1894 
z
M 3022 2063 
Q 3016 2534 2758 2815 
Q 2500 3097 2075 3097 
Q 1594 3097 1305 2825 
Q 1016 2553 972 2059 
L 3022 2063 
z
" transform="scale(0.015625)"/>
       <path id="DejaVuSans-440" d="M 1159 525 
L 1159 -1331 
L 581 -1331 
L 581 3500 
L 1159 3500 
L 1159 2969 
Q 1341 3281 1617 3432 
Q 1894 3584 2278 3584 
Q 2916 3584 3314 3078 
Q 3713 2572 3713 1747 
Q 3713 922 3314 415 
Q 2916 -91 2278 -91 
Q 1894 -91 1617 61 
Q 1341 213 1159 525 
z
M 3116 1747 
Q 3116 2381 2855 2742 
Q 2594 3103 2138 3103 
Q 1681 3103 1420 2742 
Q 1159 2381 1159 1747 
Q 1159 1113 1420 752 
Q 1681 391 2138 391 
Q 2594 391 2855 752 
Q 3116 1113 3116 1747 
z
" transform="scale(0.015625)"/>
       <path id="DejaVuSans-20" transform="scale(0.015625)"/>
       <path id="DejaVuSans-441" d="M 3122 3366 
L 3122 2828 
Q 2878 2963 2633 3030 
Q 2388 3097 2138 3097 
Q 1578 3097 1268 2742 
Q 959 2388 959 1747 
Q 959 1106 1268 751 
Q 1578 397 2138 397 
Q 2388 397 2633 464 
Q 2878 531 3122 666 
L 3122 134 
Q 2881 22 2623 -34 
Q 2366 -91 2075 -91 
Q 1284 -91 818 406 
Q 353 903 353 1747 
Q 353 2603 823 3093 
Q 1294 3584 2113 3584 
Q 2378 3584 2631 3529 
Q 2884 3475 3122 3366 
z
" transform="scale(0.015625)"/>
       <path id="DejaVuSans-43b" d="M 238 0 
L 238 478 
Q 806 566 981 959 
Q 1194 1513 1194 2928 
L 1194 3500 
L 3559 3500 
L 3559 0 
L 2984 0 
L 2984 3041 
L 1769 3041 
L 1769 2694 
Q 1769 1344 1494 738 
Q 1200 91 238 0 
z
" transform="scale(0.015625)"/>
       <path id="DejaVuSans-44f" d="M 1181 2491 
Q 1181 2231 1381 2084 
Q 1581 1938 1953 1938 
L 2728 1938 
L 2728 3041 
L 1953 3041 
Q 1581 3041 1381 2897 
Q 1181 2753 1181 2491 
z
M 363 0 
L 1431 1534 
Q 1069 1616 828 1830 
Q 588 2044 588 2491 
Q 588 2997 923 3248 
Q 1259 3500 1938 3500 
L 3306 3500 
L 3306 0 
L 2728 0 
L 2728 1478 
L 2013 1478 
L 981 0 
L 363 0 
z
" transform="scale(0.015625)"/>
      </defs>
      <use xlink:href="#DejaVuSans-41d"/>
      <use xlink:href="#DejaVuSans-43e" transform="translate(75.195312 0)"/>
      <use xlink:href="#DejaVuSans-43c" transform="translate(136.376953 0)"/>
      <use xlink:href="#DejaVuSans-435" transform="translate(211.816406 0)"/>
      <use xlink:href="#DejaVuSans-440" transform="translate(273.339844 0)"/>
      <use xlink:href="#DejaVuSans-20" transform="translate(336.816406 0)"/>
      <use xlink:href="#DejaVuSans-441" transform="translate(368.603516 0)"/>
      <use xlink:href="#DejaVuSans-43b" transform="translate(423.583984 0)"/>
      <use xlink:href="#DejaVuSans-43e" transform="translate(487.5 0)"/>
      <use xlink:href="#DejaVuSans-44f" transform="translate(548.681641 0)"/>
     </g>
    </g>
   </g>
   <g id="matplotlib.axis_2">
    <g id="ytick_1">
     <g id="line2d_10">
      <defs>
       <path id="m2df08a088e" d="M 0 0 
L -3.5 0 
" style="stroke: #000000; stroke-width: 0.8"/>
      </defs>
      <g>
       <use xlink:href="#m2df08a088e" x="54.11" y="187.534545" style="stroke: #000000; stroke-width: 0.8"/>
      </g>
     </g>
     <g id="text_11">
      <!-- 0.96 -->
      <g transform="translate(24.844375 191.333764) scale(0.1 -0.1)">
       <defs>
        <path id="DejaVuSans-2e" d="M 684 794 
L 1344 794 
L 1344 0 
L 684 0 
L 684 794 
z
" transform="scale(0.015625)"/>
        <path id="DejaVuSans-39" d="M 703 97 
L 703 672 
Q 941 559 1184 500 
Q 1428 441 1663 441 
Q 2288 441 2617 861 
Q 2947 1281 2994 2138 
Q 2813 1869 2534 1725 
Q 2256 1581 1919 1581 
Q 1219 1581 811 2004 
Q 403 2428 403 3163 
Q 403 3881 828 4315 
Q 1253 4750 1959 4750 
Q 2769 4750 3195 4129 
Q 3622 3509 3622 2328 
Q 3622 1225 3098 567 
Q 2575 -91 1691 -91 
Q 1453 -91 1209 -44 
Q 966 3 703 97 
z
M 1959 2075 
Q 2384 2075 2632 2365 
Q 2881 2656 2881 3163 
Q 2881 3666 2632 3958 
Q 2384 4250 1959 4250 
Q 1534 4250 1286 3958 
Q 1038 3666 1038 3163 
Q 1038 2656 1286 2365 
Q 1534 2075 1959 2075 
z
" transform="scale(0.015625)"/>
       </defs>
       <use xlink:href="#DejaVuSans-30"/>
       <use xlink:href="#DejaVuSans-2e" transform="translate(63.623047 0)"/>
       <use xlink:href="#DejaVuSans-39" transform="translate(95.410156 0)"/>
       <use xlink:href="#DejaVuSans-36" transform="translate(159.033203 0)"/>
      </g>
     </g>
    </g>
    <g id="ytick_2">
     <g id="line2d_11">
      <g>
       <use xlink:href="#m2df08a088e" x="54.11" y="150.327273" style="stroke: #000000; stroke-width: 0.8"/>
      </g>
     </g>
     <g id="text_12">
      <!-- 0.98 -->
      <g transform="translate(24.844375 154.126491) scale(0.1 -0.1)">
       <use xlink:href="#DejaVuSans-30"/>
       <use xlink:href="#DejaVuSans-2e" transform="translate(63.623047 0)"/>
       <use xlink:href="#DejaVuSans-39" transform="translate(95.410156 0)"/>
       <use xlink:href="#DejaVuSans-38" transform="translate(159.033203 0)"/>
      </g>
     </g>
    </g>
    <g id="ytick_3">
     <g id="line2d_12">
      <g>
       <use xlink:href="#m2df08a088e" x="54.11" y="113.12" style="stroke: #000000; stroke-width: 0.8"/>
      </g>
     </g>
     <g id="text_13">
      <!-- 1.00 -->
      <g transform="translate(24.844375 116.919219) scale(0.1 -0.1)">
       <use xlink:href="#DejaVuSans-31"/>
       <use xlink:href="#DejaVuSans-2e" transform="translate(63.623047 0)"/>
       <use xlink:href="#DejaVuSans-30" transform="translate(95.410156 0)"/>
       <use xlink:href="#DejaVuSans-30" transform="translate(159.033203 0)"/>
      </g>
     </g>
    </g>
    <g id="ytick_4">
     <g id="line2d_13">
      <g>
       <use xlink:href="#m2df08a088e" x="54.11" y="75.912727" style="stroke: #000000; stroke-width: 0.8"/>
      </g>
     </g>
     <g id="text_14">
      <!-- 1.02 -->
      <g transform="translate(24.844375 79.711946) scale(0.1 -0.1)">
       <use xlink:href="#DejaVuSans-31"/>
       <use xlink:href="#DejaVuSans-2e" transform="translate(63.623047 0)"/>
       <use xlink:href="#DejaVuSans-30" transform="translate(95.410156 0)"/>
       <use xlink:href="#DejaVuSans-32" transform="translate(159.033203 0)"/>
      </g>
     </g>
    </g>
    <g id="ytick_5">
     <g id="line2d_14">
      <g>
       <use xlink:href="#m2df08a088e" x="54.11" y="38.705455" style="stroke: #000000; stroke-width: 0.8"/>
      </g>
     </g>
     <g id="text_15">
      <!-- 1.04 -->
      <g transform="translate(24.844375 42.504673) scale(0.1 -0.1)">
       <use xlink:href="#DejaVuSans-31"/>
       <use xlink:href="#DejaVuSans-2e" transform="translate(63.623047 0)"/>
       <use xlink:href="#DejaVuSans-30" transform="translate(95.410156 0)"/>
       <use xlink:href="#DejaVuSans-34" transform="translate(159.033203 0)"/>
      </g>
     </g>
    </g>
    <g id="text_16">
     <!-- Межслойная устойчивость -->
     <g transform="translate(18.764688 183.946563) rotate(-90) scale(0.1 -0.1)">
      <defs>
       <path id="DejaVuSans-41c" d="M 628 4666 
L 1569 4666 
L 2759 1491 
L 3956 4666 
L 4897 4666 
L 4897 0 
L 4281 0 
L 4281 4097 
L 3078 897 
L 2444 897 
L 1241 4097 
L 1241 0 
L 628 0 
L 628 4666 
z
" transform="scale(0.015625)"/>
       <path id="DejaVuSans-436" d="M 2597 3500 
L 3169 3500 
L 3169 1856 
L 4697 3500 
L 5366 3500 
L 4109 2153 
L 5547 0 
L 4931 0 
L 3753 1769 
L 3169 1141 
L 3169 0 
L 2597 0 
L 2597 1141 
L 2013 1769 
L 834 0 
L 219 0 
L 1656 2153 
L 400 3500 
L 1069 3500 
L 2597 1856 
L 2597 3500 
z
" transform="scale(0.015625)"/>
       <path id="DejaVuSans-439" d="M 3578 3500 
L 3578 0 
L 3006 0 
L 3006 2809 
L 1319 0 
L 581 0 
L 581 3500 
L 1153 3500 
L 1153 697 
L 2838 3500 
L 3578 3500 
z
M 1102 4833 
L 1471 4833 
Q 1505 4599 1656 4481 
Q 1808 4364 2080 4364 
Q 2349 4364 2499 4480 
Q 2649 4596 2689 4833 
L 3058 4833 
Q 3027 4386 2780 4161 
Q 2533 3936 2080 3936 
Q 1627 3936 1380 4161 
Q 1133 4386 1102 4833 
z
" transform="scale(0.015625)"/>
       <path id="DejaVuSans-43d" d="M 581 3500 
L 1159 3500 
L 1159 2072 
L 3025 2072 
L 3025 3500 
L 3603 3500 
L 3603 0 
L 3025 0 
L 3025 1613 
L 1159 1613 
L 1159 0 
L 581 0 
L 581 3500 
z
" transform="scale(0.015625)"/>
       <path id="DejaVuSans-430" d="M 2194 1759 
Q 1497 1759 1228 1600 
Q 959 1441 959 1056 
Q 959 750 1161 570 
Q 1363 391 1709 391 
Q 2188 391 2477 730 
Q 2766 1069 2766 1631 
L 2766 1759 
L 2194 1759 
z
M 3341 1997 
L 3341 0 
L 2766 0 
L 2766 531 
Q 2569 213 2275 61 
Q 1981 -91 1556 -91 
Q 1019 -91 701 211 
Q 384 513 384 1019 
Q 384 1609 779 1909 
Q 1175 2209 1959 2209 
L 2766 2209 
L 2766 2266 
Q 2766 2663 2505 2880 
Q 2244 3097 1772 3097 
Q 1472 3097 1187 3025 
Q 903 2953 641 2809 
L 641 3341 
Q 956 3463 1253 3523 
Q 1550 3584 1831 3584 
Q 2591 3584 2966 3190 
Q 3341 2797 3341 1997 
z
" transform="scale(0.015625)"/>
       <path id="DejaVuSans-443" d="M 2059 -325 
Q 1816 -950 1584 -1140 
Q 1353 -1331 966 -1331 
L 506 -1331 
L 506 -850 
L 844 -850 
Q 1081 -850 1212 -737 
Q 1344 -625 1503 -206 
L 1606 56 
L 191 3500 
L 800 3500 
L 1894 763 
L 2988 3500 
L 3597 3500 
L 2059 -325 
z
" transform="scale(0.015625)"/>
       <path id="DejaVuSans-442" d="M 188 3500 
L 3541 3500 
L 3541 3041 
L 2147 3041 
L 2147 0 
L 1581 0 
L 1581 3041 
L 188 3041 
L 188 3500 
z
" transform="scale(0.015625)"/>
       <path id="DejaVuSans-447" d="M 2625 0 
L 2625 1472 
L 1553 1472 
Q 1075 1472 756 1769 
Q 469 2038 469 2613 
L 469 3500 
L 1044 3500 
L 1044 2666 
Q 1044 2300 1206 2116 
Q 1372 1931 1697 1931 
L 2625 1931 
L 2625 3500 
L 3200 3500 
L 3200 0 
L 2625 0 
z
" transform="scale(0.015625)"/>
       <path id="DejaVuSans-438" d="M 3578 3500 
L 3578 0 
L 3006 0 
L 3006 2809 
L 1319 0 
L 581 0 
L 581 3500 
L 1153 3500 
L 1153 697 
L 2838 3500 
L 3578 3500 
z
" transform="scale(0.015625)"/>
       <path id="DejaVuSans-432" d="M 1156 1613 
L 1156 459 
L 1975 459 
Q 2369 459 2575 607 
Q 2781 756 2781 1038 
Q 2781 1319 2575 1466 
Q 2369 1613 1975 1613 
L 1156 1613 
z
M 1156 3041 
L 1156 2072 
L 1913 2072 
Q 2238 2072 2444 2201 
Q 2650 2331 2650 2563 
Q 2650 2794 2444 2917 
Q 2238 3041 1913 3041 
L 1156 3041 
z
M 581 3500 
L 1950 3500 
Q 2566 3500 2897 3275 
Q 3228 3050 3228 2634 
Q 3228 2313 3059 2123 
Q 2891 1934 2559 1888 
Q 2956 1813 3175 1575 
Q 3394 1338 3394 981 
Q 3394 513 3033 256 
Q 2672 0 2003 0 
L 581 0 
L 581 3500 
z
" transform="scale(0.015625)"/>
       <path id="DejaVuSans-44c" d="M 2781 1038 
Q 2781 1319 2576 1466 
Q 2372 1613 1978 1613 
L 1159 1613 
L 1159 459 
L 1978 459 
Q 2372 459 2576 607 
Q 2781 756 2781 1038 
z
M 581 3500 
L 1159 3500 
L 1159 2072 
L 2003 2072 
Q 2672 2072 3033 1817 
Q 3394 1563 3394 1038 
Q 3394 513 3033 256 
Q 2672 0 2003 0 
L 581 0 
L 581 3500 
z
" transform="scale(0.015625)"/>
      </defs>
      <use xlink:href="#DejaVuSans-41c"/>
      <use xlink:href="#DejaVuSans-435" transform="translate(86.279297 0)"/>
      <use xlink:href="#DejaVuSans-436" transform="translate(147.802734 0)"/>
      <use xlink:href="#DejaVuSans-441" transform="translate(237.890625 0)"/>
      <use xlink:href="#DejaVuSans-43b" transform="translate(292.871094 0)"/>
      <use xlink:href="#DejaVuSans-43e" transform="translate(356.787109 0)"/>
      <use xlink:href="#DejaVuSans-439" transform="translate(417.96875 0)"/>
      <use xlink:href="#DejaVuSans-43d" transform="translate(482.958984 0)"/>
      <use xlink:href="#DejaVuSans-430" transform="translate(548.339844 0)"/>
      <use xlink:href="#DejaVuSans-44f" transform="translate(609.619141 0)"/>
      <use xlink:href="#DejaVuSans-20" transform="translate(669.775391 0)"/>
      <use xlink:href="#DejaVuSans-443" transform="translate(701.5625 0)"/>
      <use xlink:href="#DejaVuSans-441" transform="translate(760.742188 0)"/>
      <use xlink:href="#DejaVuSans-442" transform="translate(815.722656 0)"/>
      <use xlink:href="#DejaVuSans-43e" transform="translate(873.974609 0)"/>
      <use xlink:href="#DejaVuSans-439" transform="translate(935.15625 0)"/>
      <use xlink:href="#DejaVuSans-447" transform="translate(1000.146484 0)"/>
      <use xlink:href="#DejaVuSans-438" transform="translate(1059.228516 0)"/>
      <use xlink:href="#DejaVuSans-432" transform="translate(1124.21875 0)"/>
      <use xlink:href="#DejaVuSans-43e" transform="translate(1183.154297 0)"/>
      <use xlink:href="#DejaVuSans-441" transform="translate(1244.335938 0)"/>
      <use xlink:href="#DejaVuSans-442" transform="translate(1299.316406 0)"/>
      <use xlink:href="#DejaVuSans-44c" transform="translate(1357.568359 0)"/>
     </g>
    </g>
   </g>
   <g id="line2d_15">
    <path d="M 72.679773 113.12 
L 95.891989 113.12 
L 119.104205 113.12 
L 142.31642 113.12 
L 165.528636 113.12 
L 188.740852 113.12 
L 211.953068 113.12 
L 235.165284 113.12 
L 258.3775 113.12 
L 281.589716 113.12 
L 304.801932 113.12 
L 328.014148 113.12 
L 351.226364 113.12 
L 374.43858 113.12 
L 397.650795 113.12 
L 420.863011 113.12 
L 444.075227 113.12 
" clip-path="url(#p2f18142bd0)" style="fill: none; stroke: #648fff; stroke-width: 1.5; stroke-linecap: square"/>
   </g>
   <g id="line2d_16">
    <path d="M 72.679773 113.12 
L 95.891989 113.12 
L 119.104205 113.12 
L 142.31642 113.12 
L 165.528636 113.12 
L 188.740852 113.12 
L 211.953068 113.12 
L 235.165284 113.12 
L 258.3775 113.12 
L 281.589716 113.12 
L 304.801932 113.12 
L 328.014148 113.12 
L 351.226364 113.12 
L 374.43858 113.12 
L 397.650795 113.12 
L 420.863011 113.12 
L 444.075227 113.12 
" clip-path="url(#p2f18142bd0)" style="fill: none; stroke: #785ef0; stroke-width: 1.5; stroke-linecap: square"/>
   </g>
   <g id="line2d_17">
    <path d="M 72.679773 113.12 
L 95.891989 113.12 
L 119.104205 113.12 
L 142.31642 113.12 
L 165.528636 113.12 
L 188.740852 113.12 
L 211.953068 113.12 
L 235.165284 113.12 
L 258.3775 113.12 
L 281.589716 113.12 
L 304.801932 113.12 
L 328.014148 113.12 
L 351.226364 113.12 
L 374.43858 113.12 
L 397.650795 113.12 
L 420.863011 113.12 
L 444.075227 113.12 
" clip-path="url(#p2f18142bd0)" style="fill: none; stroke: #dc267f; stroke-width: 1.5; stroke-linecap: square"/>
   </g>
   <g id="line2d_18">
    <path d="M 72.679773 113.12 
L 95.891989 113.12 
L 119.104205 113.12 
L 142.31642 113.12 
L 165.528636 113.12 
L 188.740852 113.12 
L 211.953068 113.12 
L 235.165284 113.12 
L 258.3775 113.12 
L 281.589716 113.12 
L 304.801932 113.12 
L 328.014148 113.12 
L 351.226364 113.12 
L 374.43858 113.12 
L 397.650795 113.12 
L 420.863011 113.12 
L 444.075227 113.12 
" clip-path="url(#p2f18142bd0)" style="fill: none; stroke: #fe6100; stroke-width: 1.5; stroke-linecap: square"/>
   </g>
   <g id="line2d_19">
    <path d="M 72.679773 113.12 
L 95.891989 113.12 
L 119.104205 113.12 
L 142.31642 113.12 
L 165.528636 113.12 
L 188.740852 113.12 
L 211.953068 113.12 
L 235.165284 113.12 
L 258.3775 113.12 
L 281.589716 113.12 
L 304.801932 113.12 
L 328.014148 113.12 
L 351.226364 113.12 
L 374.43858 113.12 
L 397.650795 113.12 
L 420.863011 113.12 
L 444.075227 113.12 
" clip-path="url(#p2f18142bd0)" style="fill: none; stroke: #ffb000; stroke-width: 1.5; stroke-linecap: square"/>
   </g>
   <g id="patch_3">
    <path d="M 54.11 215.44 
L 54.11 10.8 
" style="fill: none; stroke: #000000; stroke-width: 0.8; stroke-linejoin: miter; stroke-linecap: square"/>
   </g>
   <g id="patch_4">
    <path d="M 462.645 215.44 
L 462.645 10.8 
" style="fill: none; stroke: #000000; stroke-width: 0.8; stroke-linejoin: miter; stroke-linecap: square"/>
   </g>
   <g id="patch_5">
    <path d="M 54.11 215.44 
L 462.645 215.44 
" style="fill: none; stroke: #000000; stroke-width: 0.8; stroke-linejoin: miter; stroke-linecap: square"/>
   </g>
   <g id="patch_6">
    <path d="M 54.11 10.8 
L 462.645 10.8 
" style="fill: none; stroke: #000000; stroke-width: 0.8; stroke-linejoin: miter; stroke-linecap: square"/>
   </g>
   <g id="legend_1">
    <g id="patch_7">
     <path d="M 374.045 92.190625 
L 455.645 92.190625 
Q 457.645 92.190625 457.645 90.190625 
L 457.645 17.8 
Q 457.645 15.8 455.645 15.8 
L 374.045 15.8 
Q 372.045 15.8 372.045 17.8 
L 372.045 90.190625 
Q 372.045 92.190625 374.045 92.190625 
z
" style="fill: #ffffff; opacity: 0.8; stroke: #cccccc; stroke-linejoin: miter"/>
    </g>
    <g id="line2d_20">
     <path d="M 376.045 23.898438 
L 386.045 23.898438 
L 396.045 23.898438 
" style="fill: none; stroke: #648fff; stroke-width: 1.5; stroke-linecap: square"/>
    </g>
    <g id="text_17">
     <!-- $\alpha=-1.00$ -->
     <g transform="translate(404.045 27.398438) scale(0.1 -0.1)">
      <defs>
       <path id="DejaVuSans-Oblique-3b1" d="M 2619 1628 
L 2622 2350 
Q 2625 3088 2069 3091 
Q 1653 3094 1394 2747 
Q 1069 2319 959 1747 
Q 825 1059 994 731 
Q 1169 397 1547 397 
Q 1966 397 2319 1063 
L 2619 1628 
z
M 2166 3578 
Q 3141 3594 3128 2584 
Q 3128 2584 3616 3500 
L 4128 3500 
L 3119 1603 
L 3109 919 
Q 3109 766 3194 638 
Q 3291 488 3391 488 
L 3669 488 
L 3575 0 
L 3228 0 
Q 2934 0 2722 263 
Q 2622 394 2619 669 
Q 2416 334 2066 50 
Q 1900 -81 1453 -78 
Q 722 -72 456 397 
Q 184 884 353 1747 
Q 534 2675 1009 3097 
Q 1544 3569 2166 3578 
z
" transform="scale(0.015625)"/>
       <path id="DejaVuSans-3d" d="M 678 2906 
L 4684 2906 
L 4684 2381 
L 678 2381 
L 678 2906 
z
M 678 1631 
L 4684 1631 
L 4684 1100 
L 678 1100 
L 678 1631 
z
" transform="scale(0.015625)"/>
       <path id="DejaVuSans-2212" d="M 678 2272 
L 4684 2272 
L 4684 1741 
L 678 1741 
L 678 2272 
z
" transform="scale(0.015625)"/>
      </defs>
      <use xlink:href="#DejaVuSans-Oblique-3b1" transform="translate(0 0.78125)"/>
      <use xlink:href="#DejaVuSans-3d" transform="translate(85.400391 0.78125)"/>
      <use xlink:href="#DejaVuSans-2212" transform="translate(188.671875 0.78125)"/>
      <use xlink:href="#DejaVuSans-31" transform="translate(272.460938 0.78125)"/>
      <use xlink:href="#DejaVuSans-2e" transform="translate(336.083984 0.78125)"/>
      <use xlink:href="#DejaVuSans-30" transform="translate(367.871094 0.78125)"/>
      <use xlink:href="#DejaVuSans-30" transform="translate(431.494141 0.78125)"/>
     </g>
    </g>
    <g id="line2d_21">
     <path d="M 376.045 38.576563 
L 386.045 38.576563 
L 396.045 38.576563 
" style="fill: none; stroke: #785ef0; stroke-width: 1.5; stroke-linecap: square"/>
    </g>
    <g id="text_18">
     <!-- $\alpha=0.00$ -->
     <g transform="translate(404.045 42.076563) scale(0.1 -0.1)">
      <use xlink:href="#DejaVuSans-Oblique-3b1" transform="translate(0 0.78125)"/>
      <use xlink:href="#DejaVuSans-3d" transform="translate(85.400391 0.78125)"/>
      <use xlink:href="#DejaVuSans-30" transform="translate(188.671875 0.78125)"/>
      <use xlink:href="#DejaVuSans-2e" transform="translate(252.294922 0.78125)"/>
      <use xlink:href="#DejaVuSans-30" transform="translate(284.082031 0.78125)"/>
      <use xlink:href="#DejaVuSans-30" transform="translate(347.705078 0.78125)"/>
     </g>
    </g>
    <g id="line2d_22">
     <path d="M 376.045 53.254688 
L 386.045 53.254688 
L 396.045 53.254688 
" style="fill: none; stroke: #dc267f; stroke-width: 1.5; stroke-linecap: square"/>
    </g>
    <g id="text_19">
     <!-- $\alpha=0.50$ -->
     <g transform="translate(404.045 56.754688) scale(0.1 -0.1)">
      <defs>
       <path id="DejaVuSans-35" d="M 691 4666 
L 3169 4666 
L 3169 4134 
L 1269 4134 
L 1269 2991 
Q 1406 3038 1543 3061 
Q 1681 3084 1819 3084 
Q 2600 3084 3056 2656 
Q 3513 2228 3513 1497 
Q 3513 744 3044 326 
Q 2575 -91 1722 -91 
Q 1428 -91 1123 -41 
Q 819 9 494 109 
L 494 744 
Q 775 591 1075 516 
Q 1375 441 1709 441 
Q 2250 441 2565 725 
Q 2881 1009 2881 1497 
Q 2881 1984 2565 2268 
Q 2250 2553 1709 2553 
Q 1456 2553 1204 2497 
Q 953 2441 691 2322 
L 691 4666 
z
" transform="scale(0.015625)"/>
      </defs>
      <use xlink:href="#DejaVuSans-Oblique-3b1" transform="translate(0 0.78125)"/>
      <use xlink:href="#DejaVuSans-3d" transform="translate(85.400391 0.78125)"/>
      <use xlink:href="#DejaVuSans-30" transform="translate(188.671875 0.78125)"/>
      <use xlink:href="#DejaVuSans-2e" transform="translate(252.294922 0.78125)"/>
      <use xlink:href="#DejaVuSans-35" transform="translate(284.082031 0.78125)"/>
      <use xlink:href="#DejaVuSans-30" transform="translate(347.705078 0.78125)"/>
     </g>
    </g>
    <g id="line2d_23">
     <path d="M 376.045 67.932813 
L 386.045 67.932813 
L 396.045 67.932813 
" style="fill: none; stroke: #fe6100; stroke-width: 1.5; stroke-linecap: square"/>
    </g>
    <g id="text_20">
     <!-- $\alpha=1.00$ -->
     <g transform="translate(404.045 71.432813) scale(0.1 -0.1)">
      <use xlink:href="#DejaVuSans-Oblique-3b1" transform="translate(0 0.78125)"/>
      <use xlink:href="#DejaVuSans-3d" transform="translate(85.400391 0.78125)"/>
      <use xlink:href="#DejaVuSans-31" transform="translate(188.671875 0.78125)"/>
      <use xlink:href="#DejaVuSans-2e" transform="translate(252.294922 0.78125)"/>
      <use xlink:href="#DejaVuSans-30" transform="translate(284.082031 0.78125)"/>
      <use xlink:href="#DejaVuSans-30" transform="translate(347.705078 0.78125)"/>
     </g>
    </g>
    <g id="line2d_24">
     <path d="M 376.045 82.610938 
L 386.045 82.610938 
L 396.045 82.610938 
" style="fill: none; stroke: #ffb000; stroke-width: 1.5; stroke-linecap: square"/>
    </g>
    <g id="text_21">
     <!-- $\alpha=2.00$ -->
     <g transform="translate(404.045 86.110938) scale(0.1 -0.1)">
      <use xlink:href="#DejaVuSans-Oblique-3b1" transform="translate(0 0.78125)"/>
      <use xlink:href="#DejaVuSans-3d" transform="translate(85.400391 0.78125)"/>
      <use xlink:href="#DejaVuSans-32" transform="translate(188.671875 0.78125)"/>
      <use xlink:href="#DejaVuSans-2e" transform="translate(252.294922 0.78125)"/>
      <use xlink:href="#DejaVuSans-30" transform="translate(284.082031 0.78125)"/>
      <use xlink:href="#DejaVuSans-30" transform="translate(347.705078 0.78125)"/>
     </g>
    </g>
   </g>
  </g>
  <g id="axes_2">
   <g id="patch_8">
    <path d="M 516.665 215.44 
L 925.2 215.44 
L 925.2 10.8 
L 516.665 10.8 
z
" style="fill: #ffffff"/>
   </g>
   <g id="matplotlib.axis_3">
    <g id="xtick_10">
     <g id="line2d_25">
      <g>
       <use xlink:href="#m7fd0fd9ac5" x="535.234773" y="215.44" style="stroke: #000000; stroke-width: 0.8"/>
      </g>
     </g>
     <g id="text_22">
      <!-- 0 -->
      <g transform="translate(532.053523 230.038438) scale(0.1 -0.1)">
       <use xlink:href="#DejaVuSans-30"/>
      </g>
     </g>
    </g>
    <g id="xtick_11">
     <g id="line2d_26">
      <g>
       <use xlink:href="#m7fd0fd9ac5" x="581.659205" y="215.44" style="stroke: #000000; stroke-width: 0.8"/>
      </g>
     </g>
     <g id="text_23">
      <!-- 2 -->
      <g transform="translate(578.477955 230.038438) scale(0.1 -0.1)">
       <use xlink:href="#DejaVuSans-32"/>
      </g>
     </g>
    </g>
    <g id="xtick_12">
     <g id="line2d_27">
      <g>
       <use xlink:href="#m7fd0fd9ac5" x="628.083636" y="215.44" style="stroke: #000000; stroke-width: 0.8"/>
      </g>
     </g>
     <g id="text_24">
      <!-- 4 -->
      <g transform="translate(624.902386 230.038438) scale(0.1 -0.1)">
       <use xlink:href="#DejaVuSans-34"/>
      </g>
     </g>
    </g>
    <g id="xtick_13">
     <g id="line2d_28">
      <g>
       <use xlink:href="#m7fd0fd9ac5" x="674.508068" y="215.44" style="stroke: #000000; stroke-width: 0.8"/>
      </g>
     </g>
     <g id="text_25">
      <!-- 6 -->
      <g transform="translate(671.326818 230.038438) scale(0.1 -0.1)">
       <use xlink:href="#DejaVuSans-36"/>
      </g>
     </g>
    </g>
    <g id="xtick_14">
     <g id="line2d_29">
      <g>
       <use xlink:href="#m7fd0fd9ac5" x="720.9325" y="215.44" style="stroke: #000000; stroke-width: 0.8"/>
      </g>
     </g>
     <g id="text_26">
      <!-- 8 -->
      <g transform="translate(717.75125 230.038438) scale(0.1 -0.1)">
       <use xlink:href="#DejaVuSans-38"/>
      </g>
     </g>
    </g>
    <g id="xtick_15">
     <g id="line2d_30">
      <g>
       <use xlink:href="#m7fd0fd9ac5" x="767.356932" y="215.44" style="stroke: #000000; stroke-width: 0.8"/>
      </g>
     </g>
     <g id="text_27">
      <!-- 10 -->
      <g transform="translate(760.994432 230.038438) scale(0.1 -0.1)">
       <use xlink:href="#DejaVuSans-31"/>
       <use xlink:href="#DejaVuSans-30" transform="translate(63.623047 0)"/>
      </g>
     </g>
    </g>
    <g id="xtick_16">
     <g id="line2d_31">
      <g>
       <use xlink:href="#m7fd0fd9ac5" x="813.781364" y="215.44" style="stroke: #000000; stroke-width: 0.8"/>
      </g>
     </g>
     <g id="text_28">
      <!-- 12 -->
      <g transform="translate(807.418864 230.038438) scale(0.1 -0.1)">
       <use xlink:href="#DejaVuSans-31"/>
       <use xlink:href="#DejaVuSans-32" transform="translate(63.623047 0)"/>
      </g>
     </g>
    </g>
    <g id="xtick_17">
     <g id="line2d_32">
      <g>
       <use xlink:href="#m7fd0fd9ac5" x="860.205795" y="215.44" style="stroke: #000000; stroke-width: 0.8"/>
      </g>
     </g>
     <g id="text_29">
      <!-- 14 -->
      <g transform="translate(853.843295 230.038438) scale(0.1 -0.1)">
       <use xlink:href="#DejaVuSans-31"/>
       <use xlink:href="#DejaVuSans-34" transform="translate(63.623047 0)"/>
      </g>
     </g>
    </g>
    <g id="xtick_18">
     <g id="line2d_33">
      <g>
       <use xlink:href="#m7fd0fd9ac5" x="906.630227" y="215.44" style="stroke: #000000; stroke-width: 0.8"/>
      </g>
     </g>
     <g id="text_30">
      <!-- 16 -->
      <g transform="translate(900.267727 230.038438) scale(0.1 -0.1)">
       <use xlink:href="#DejaVuSans-31"/>
       <use xlink:href="#DejaVuSans-36" transform="translate(63.623047 0)"/>
      </g>
     </g>
    </g>
    <g id="text_31">
     <!-- Номер слоя -->
     <g transform="translate(690.48875 243.716563) scale(0.1 -0.1)">
      <use xlink:href="#DejaVuSans-41d"/>
      <use xlink:href="#DejaVuSans-43e" transform="translate(75.195312 0)"/>
      <use xlink:href="#DejaVuSans-43c" transform="translate(136.376953 0)"/>
      <use xlink:href="#DejaVuSans-435" transform="translate(211.816406 0)"/>
      <use xlink:href="#DejaVuSans-440" transform="translate(273.339844 0)"/>
      <use xlink:href="#DejaVuSans-20" transform="translate(336.816406 0)"/>
      <use xlink:href="#DejaVuSans-441" transform="translate(368.603516 0)"/>
      <use xlink:href="#DejaVuSans-43b" transform="translate(423.583984 0)"/>
      <use xlink:href="#DejaVuSans-43e" transform="translate(487.5 0)"/>
      <use xlink:href="#DejaVuSans-44f" transform="translate(548.681641 0)"/>
     </g>
    </g>
   </g>
   <g id="matplotlib.axis_4">
    <g id="ytick_6">
     <g id="line2d_34">
      <g>
       <use xlink:href="#m2df08a088e" x="516.665" y="206.236738" style="stroke: #000000; stroke-width: 0.8"/>
      </g>
     </g>
     <g id="text_32">
      <!-- 0.00 -->
      <g transform="translate(487.399375 210.035957) scale(0.1 -0.1)">
       <use xlink:href="#DejaVuSans-30"/>
       <use xlink:href="#DejaVuSans-2e" transform="translate(63.623047 0)"/>
       <use xlink:href="#DejaVuSans-30" transform="translate(95.410156 0)"/>
       <use xlink:href="#DejaVuSans-30" transform="translate(159.033203 0)"/>
      </g>
     </g>
    </g>
    <g id="ytick_7">
     <g id="line2d_35">
      <g>
       <use xlink:href="#m2df08a088e" x="516.665" y="173.137042" style="stroke: #000000; stroke-width: 0.8"/>
      </g>
     </g>
     <g id="text_33">
      <!-- 0.05 -->
      <g transform="translate(487.399375 176.936261) scale(0.1 -0.1)">
       <use xlink:href="#DejaVuSans-30"/>
       <use xlink:href="#DejaVuSans-2e" transform="translate(63.623047 0)"/>
       <use xlink:href="#DejaVuSans-30" transform="translate(95.410156 0)"/>
       <use xlink:href="#DejaVuSans-35" transform="translate(159.033203 0)"/>
      </g>
     </g>
    </g>
    <g id="ytick_8">
     <g id="line2d_36">
      <g>
       <use xlink:href="#m2df08a088e" x="516.665" y="140.037346" style="stroke: #000000; stroke-width: 0.8"/>
      </g>
     </g>
     <g id="text_34">
      <!-- 0.10 -->
      <g transform="translate(487.399375 143.836565) scale(0.1 -0.1)">
       <use xlink:href="#DejaVuSans-30"/>
       <use xlink:href="#DejaVuSans-2e" transform="translate(63.623047 0)"/>
       <use xlink:href="#DejaVuSans-31" transform="translate(95.410156 0)"/>
       <use xlink:href="#DejaVuSans-30" transform="translate(159.033203 0)"/>
      </g>
     </g>
    </g>
    <g id="ytick_9">
     <g id="line2d_37">
      <g>
       <use xlink:href="#m2df08a088e" x="516.665" y="106.93765" style="stroke: #000000; stroke-width: 0.8"/>
      </g>
     </g>
     <g id="text_35">
      <!-- 0.15 -->
      <g transform="translate(487.399375 110.736869) scale(0.1 -0.1)">
       <use xlink:href="#DejaVuSans-30"/>
       <use xlink:href="#DejaVuSans-2e" transform="translate(63.623047 0)"/>
       <use xlink:href="#DejaVuSans-31" transform="translate(95.410156 0)"/>
       <use xlink:href="#DejaVuSans-35" transform="translate(159.033203 0)"/>
      </g>
     </g>
    </g>
    <g id="ytick_10">
     <g id="line2d_38">
      <g>
       <use xlink:href="#m2df08a088e" x="516.665" y="73.837955" style="stroke: #000000; stroke-width: 0.8"/>
      </g>
     </g>
     <g id="text_36">
      <!-- 0.20 -->
      <g transform="translate(487.399375 77.637173) scale(0.1 -0.1)">
       <use xlink:href="#DejaVuSans-30"/>
       <use xlink:href="#DejaVuSans-2e" transform="translate(63.623047 0)"/>
       <use xlink:href="#DejaVuSans-32" transform="translate(95.410156 0)"/>
       <use xlink:href="#DejaVuSans-30" transform="translate(159.033203 0)"/>
      </g>
     </g>
    </g>
    <g id="ytick_11">
     <g id="line2d_39">
      <g>
       <use xlink:href="#m2df08a088e" x="516.665" y="40.738259" style="stroke: #000000; stroke-width: 0.8"/>
      </g>
     </g>
     <g id="text_37">
      <!-- 0.25 -->
      <g transform="translate(487.399375 44.537477) scale(0.1 -0.1)">
       <use xlink:href="#DejaVuSans-30"/>
       <use xlink:href="#DejaVuSans-2e" transform="translate(63.623047 0)"/>
       <use xlink:href="#DejaVuSans-32" transform="translate(95.410156 0)"/>
       <use xlink:href="#DejaVuSans-35" transform="translate(159.033203 0)"/>
      </g>
     </g>
    </g>
    <g id="text_38">
     <!-- Межслойная устойчивость -->
     <g transform="translate(481.319688 183.946563) rotate(-90) scale(0.1 -0.1)">
      <use xlink:href="#DejaVuSans-41c"/>
      <use xlink:href="#DejaVuSans-435" transform="translate(86.279297 0)"/>
      <use xlink:href="#DejaVuSans-436" transform="translate(147.802734 0)"/>
      <use xlink:href="#DejaVuSans-441" transform="translate(237.890625 0)"/>
      <use xlink:href="#DejaVuSans-43b" transform="translate(292.871094 0)"/>
      <use xlink:href="#DejaVuSans-43e" transform="translate(356.787109 0)"/>
      <use xlink:href="#DejaVuSans-439" transform="translate(417.96875 0)"/>
      <use xlink:href="#DejaVuSans-43d" transform="translate(482.958984 0)"/>
      <use xlink:href="#DejaVuSans-430" transform="translate(548.339844 0)"/>
      <use xlink:href="#DejaVuSans-44f" transform="translate(609.619141 0)"/>
      <use xlink:href="#DejaVuSans-20" transform="translate(669.775391 0)"/>
      <use xlink:href="#DejaVuSans-443" transform="translate(701.5625 0)"/>
      <use xlink:href="#DejaVuSans-441" transform="translate(760.742188 0)"/>
      <use xlink:href="#DejaVuSans-442" transform="translate(815.722656 0)"/>
      <use xlink:href="#DejaVuSans-43e" transform="translate(873.974609 0)"/>
      <use xlink:href="#DejaVuSans-439" transform="translate(935.15625 0)"/>
      <use xlink:href="#DejaVuSans-447" transform="translate(1000.146484 0)"/>
      <use xlink:href="#DejaVuSans-438" transform="translate(1059.228516 0)"/>
      <use xlink:href="#DejaVuSans-432" transform="translate(1124.21875 0)"/>
      <use xlink:href="#DejaVuSans-43e" transform="translate(1183.154297 0)"/>
      <use xlink:href="#DejaVuSans-441" transform="translate(1244.335938 0)"/>
      <use xlink:href="#DejaVuSans-442" transform="translate(1299.316406 0)"/>
      <use xlink:href="#DejaVuSans-44c" transform="translate(1357.568359 0)"/>
     </g>
    </g>
   </g>
   <g id="line2d_40">
    <path d="M 535.234773 99.833171 
L 558.446989 34.987189 
L 581.659205 20.101818 
L 604.87142 39.91803 
L 628.083636 52.633561 
L 651.295852 44.165654 
L 674.508068 57.657831 
L 697.720284 117.320666 
L 720.9325 148.562698 
L 744.144716 108.575679 
L 767.356932 118.058266 
L 790.569148 129.846573 
L 813.781364 107.409051 
L 836.99358 137.216062 
L 860.205795 166.567948 
L 883.418011 160.492854 
L 906.630227 192.103566 
" clip-path="url(#p5fcf82dfa0)" style="fill: none; stroke: #648fff; stroke-width: 1.5; stroke-linecap: square"/>
   </g>
   <g id="line2d_41">
    <path d="M 535.234773 137.179234 
L 558.446989 110.184697 
L 581.659205 99.48954 
L 604.87142 100.456711 
L 628.083636 101.088789 
L 651.295852 101.150018 
L 674.508068 106.913719 
L 697.720284 123.499705 
L 720.9325 142.617762 
L 744.144716 130.422097 
L 767.356932 133.93437 
L 790.569148 138.383391 
L 813.781364 130.667968 
L 836.99358 140.278141 
L 860.205795 155.087936 
L 883.418011 155.265312 
L 906.630227 163.947043 
" clip-path="url(#p5fcf82dfa0)" style="fill: none; stroke: #785ef0; stroke-width: 1.5; stroke-linecap: square"/>
   </g>
   <g id="line2d_42">
    <path d="M 535.234773 190.924079 
L 558.446989 176.613384 
L 581.659205 169.521804 
L 604.87142 167.512643 
L 628.083636 165.418245 
L 651.295852 165.646678 
L 674.508068 167.928855 
L 697.720284 174.455657 
L 720.9325 189.928592 
L 744.144716 184.097802 
L 767.356932 186.663388 
L 790.569148 189.544795 
L 813.781364 185.553025 
L 836.99358 190.564481 
L 860.205795 200.399061 
L 883.418011 201.119721 
L 906.630227 204.761673 
" clip-path="url(#p5fcf82dfa0)" style="fill: none; stroke: #dc267f; stroke-width: 1.5; stroke-linecap: square"/>
   </g>
   <g id="line2d_43">
    <path d="M 535.234773 198.952163 
L 558.446989 192.178351 
L 581.659205 188.489072 
L 604.87142 186.47897 
L 628.083636 183.968268 
L 651.295852 183.741429 
L 674.508068 183.531356 
L 697.720284 184.396374 
L 720.9325 196.11408 
L 744.144716 194.007462 
L 767.356932 195.944348 
L 790.569148 197.699557 
L 813.781364 195.864854 
L 836.99358 198.079099 
L 860.205795 203.796302 
L 883.418011 204.367204 
L 906.630227 205.650685 
" clip-path="url(#p5fcf82dfa0)" style="fill: none; stroke: #fe6100; stroke-width: 1.5; stroke-linecap: square"/>
   </g>
   <g id="line2d_44">
    <path d="M 535.234773 204.393025 
L 558.446989 202.70944 
L 581.659205 201.943149 
L 604.87142 201.342026 
L 628.083636 200.060057 
L 651.295852 199.346236 
L 674.508068 197.443229 
L 697.720284 194.964516 
L 720.9325 201.943083 
L 744.144716 202.251149 
L 767.356932 203.479814 
L 790.569148 204.133433 
L 813.781364 203.680365 
L 836.99358 203.983579 
L 860.205795 205.788336 
L 883.418011 205.990235 
L 906.630227 206.138182 
" clip-path="url(#p5fcf82dfa0)" style="fill: none; stroke: #ffb000; stroke-width: 1.5; stroke-linecap: square"/>
   </g>
   <g id="patch_9">
    <path d="M 516.665 215.44 
L 516.665 10.8 
" style="fill: none; stroke: #000000; stroke-width: 0.8; stroke-linejoin: miter; stroke-linecap: square"/>
   </g>
   <g id="patch_10">
    <path d="M 925.2 215.44 
L 925.2 10.8 
" style="fill: none; stroke: #000000; stroke-width: 0.8; stroke-linejoin: miter; stroke-linecap: square"/>
   </g>
   <g id="patch_11">
    <path d="M 516.665 215.44 
L 925.2 215.44 
" style="fill: none; stroke: #000000; stroke-width: 0.8; stroke-linejoin: miter; stroke-linecap: square"/>
   </g>
   <g id="patch_12">
    <path d="M 516.665 10.8 
L 925.2 10.8 
" style="fill: none; stroke: #000000; stroke-width: 0.8; stroke-linejoin: miter; stroke-linecap: square"/>
   </g>
   <g id="legend_2">
    <g id="patch_13">
     <path d="M 836.6 92.190625 
L 918.2 92.190625 
Q 920.2 92.190625 920.2 90.190625 
L 920.2 17.8 
Q 920.2 15.8 918.2 15.8 
L 836.6 15.8 
Q 834.6 15.8 834.6 17.8 
L 834.6 90.190625 
Q 834.6 92.190625 836.6 92.190625 
z
" style="fill: #ffffff; opacity: 0.8; stroke: #cccccc; stroke-linejoin: miter"/>
    </g>
    <g id="line2d_45">
     <path d="M 838.6 23.898438 
L 848.6 23.898438 
L 858.6 23.898438 
" style="fill: none; stroke: #648fff; stroke-width: 1.5; stroke-linecap: square"/>
    </g>
    <g id="text_39">
     <!-- $\alpha=-1.00$ -->
     <g transform="translate(866.6 27.398438) scale(0.1 -0.1)">
      <use xlink:href="#DejaVuSans-Oblique-3b1" transform="translate(0 0.78125)"/>
      <use xlink:href="#DejaVuSans-3d" transform="translate(85.400391 0.78125)"/>
      <use xlink:href="#DejaVuSans-2212" transform="translate(188.671875 0.78125)"/>
      <use xlink:href="#DejaVuSans-31" transform="translate(272.460938 0.78125)"/>
      <use xlink:href="#DejaVuSans-2e" transform="translate(336.083984 0.78125)"/>
      <use xlink:href="#DejaVuSans-30" transform="translate(367.871094 0.78125)"/>
      <use xlink:href="#DejaVuSans-30" transform="translate(431.494141 0.78125)"/>
     </g>
    </g>
    <g id="line2d_46">
     <path d="M 838.6 38.576563 
L 848.6 38.576563 
L 858.6 38.576563 
" style="fill: none; stroke: #785ef0; stroke-width: 1.5; stroke-linecap: square"/>
    </g>
    <g id="text_40">
     <!-- $\alpha=0.00$ -->
     <g transform="translate(866.6 42.076563) scale(0.1 -0.1)">
      <use xlink:href="#DejaVuSans-Oblique-3b1" transform="translate(0 0.78125)"/>
      <use xlink:href="#DejaVuSans-3d" transform="translate(85.400391 0.78125)"/>
      <use xlink:href="#DejaVuSans-30" transform="translate(188.671875 0.78125)"/>
      <use xlink:href="#DejaVuSans-2e" transform="translate(252.294922 0.78125)"/>
      <use xlink:href="#DejaVuSans-30" transform="translate(284.082031 0.78125)"/>
      <use xlink:href="#DejaVuSans-30" transform="translate(347.705078 0.78125)"/>
     </g>
    </g>
    <g id="line2d_47">
     <path d="M 838.6 53.254688 
L 848.6 53.254688 
L 858.6 53.254688 
" style="fill: none; stroke: #dc267f; stroke-width: 1.5; stroke-linecap: square"/>
    </g>
    <g id="text_41">
     <!-- $\alpha=0.50$ -->
     <g transform="translate(866.6 56.754688) scale(0.1 -0.1)">
      <use xlink:href="#DejaVuSans-Oblique-3b1" transform="translate(0 0.78125)"/>
      <use xlink:href="#DejaVuSans-3d" transform="translate(85.400391 0.78125)"/>
      <use xlink:href="#DejaVuSans-30" transform="translate(188.671875 0.78125)"/>
      <use xlink:href="#DejaVuSans-2e" transform="translate(252.294922 0.78125)"/>
      <use xlink:href="#DejaVuSans-35" transform="translate(284.082031 0.78125)"/>
      <use xlink:href="#DejaVuSans-30" transform="translate(347.705078 0.78125)"/>
     </g>
    </g>
    <g id="line2d_48">
     <path d="M 838.6 67.932813 
L 848.6 67.932813 
L 858.6 67.932813 
" style="fill: none; stroke: #fe6100; stroke-width: 1.5; stroke-linecap: square"/>
    </g>
    <g id="text_42">
     <!-- $\alpha=1.00$ -->
     <g transform="translate(866.6 71.432813) scale(0.1 -0.1)">
      <use xlink:href="#DejaVuSans-Oblique-3b1" transform="translate(0 0.78125)"/>
      <use xlink:href="#DejaVuSans-3d" transform="translate(85.400391 0.78125)"/>
      <use xlink:href="#DejaVuSans-31" transform="translate(188.671875 0.78125)"/>
      <use xlink:href="#DejaVuSans-2e" transform="translate(252.294922 0.78125)"/>
      <use xlink:href="#DejaVuSans-30" transform="translate(284.082031 0.78125)"/>
      <use xlink:href="#DejaVuSans-30" transform="translate(347.705078 0.78125)"/>
     </g>
    </g>
    <g id="line2d_49">
     <path d="M 838.6 82.610938 
L 848.6 82.610938 
L 858.6 82.610938 
" style="fill: none; stroke: #ffb000; stroke-width: 1.5; stroke-linecap: square"/>
    </g>
    <g id="text_43">
     <!-- $\alpha=2.00$ -->
     <g transform="translate(866.6 86.110938) scale(0.1 -0.1)">
      <use xlink:href="#DejaVuSans-Oblique-3b1" transform="translate(0 0.78125)"/>
      <use xlink:href="#DejaVuSans-3d" transform="translate(85.400391 0.78125)"/>
      <use xlink:href="#DejaVuSans-32" transform="translate(188.671875 0.78125)"/>
      <use xlink:href="#DejaVuSans-2e" transform="translate(252.294922 0.78125)"/>
      <use xlink:href="#DejaVuSans-30" transform="translate(284.082031 0.78125)"/>
      <use xlink:href="#DejaVuSans-30" transform="translate(347.705078 0.78125)"/>
     </g>
    </g>
   </g>
  </g>
  <g id="axes_3">
   <g id="patch_14">
    <path d="M 54.11 462.04 
L 462.645 462.04 
L 462.645 257.4 
L 54.11 257.4 
z
" style="fill: #ffffff"/>
   </g>
   <g id="matplotlib.axis_5">
    <g id="xtick_19">
     <g id="line2d_50">
      <g>
       <use xlink:href="#m7fd0fd9ac5" x="72.679773" y="462.04" style="stroke: #000000; stroke-width: 0.8"/>
      </g>
     </g>
     <g id="text_44">
      <!-- 0 -->
      <g transform="translate(69.498523 476.638437) scale(0.1 -0.1)">
       <use xlink:href="#DejaVuSans-30"/>
      </g>
     </g>
    </g>
    <g id="xtick_20">
     <g id="line2d_51">
      <g>
       <use xlink:href="#m7fd0fd9ac5" x="119.104205" y="462.04" style="stroke: #000000; stroke-width: 0.8"/>
      </g>
     </g>
     <g id="text_45">
      <!-- 2 -->
      <g transform="translate(115.922955 476.638437) scale(0.1 -0.1)">
       <use xlink:href="#DejaVuSans-32"/>
      </g>
     </g>
    </g>
    <g id="xtick_21">
     <g id="line2d_52">
      <g>
       <use xlink:href="#m7fd0fd9ac5" x="165.528636" y="462.04" style="stroke: #000000; stroke-width: 0.8"/>
      </g>
     </g>
     <g id="text_46">
      <!-- 4 -->
      <g transform="translate(162.347386 476.638437) scale(0.1 -0.1)">
       <use xlink:href="#DejaVuSans-34"/>
      </g>
     </g>
    </g>
    <g id="xtick_22">
     <g id="line2d_53">
      <g>
       <use xlink:href="#m7fd0fd9ac5" x="211.953068" y="462.04" style="stroke: #000000; stroke-width: 0.8"/>
      </g>
     </g>
     <g id="text_47">
      <!-- 6 -->
      <g transform="translate(208.771818 476.638437) scale(0.1 -0.1)">
       <use xlink:href="#DejaVuSans-36"/>
      </g>
     </g>
    </g>
    <g id="xtick_23">
     <g id="line2d_54">
      <g>
       <use xlink:href="#m7fd0fd9ac5" x="258.3775" y="462.04" style="stroke: #000000; stroke-width: 0.8"/>
      </g>
     </g>
     <g id="text_48">
      <!-- 8 -->
      <g transform="translate(255.19625 476.638437) scale(0.1 -0.1)">
       <use xlink:href="#DejaVuSans-38"/>
      </g>
     </g>
    </g>
    <g id="xtick_24">
     <g id="line2d_55">
      <g>
       <use xlink:href="#m7fd0fd9ac5" x="304.801932" y="462.04" style="stroke: #000000; stroke-width: 0.8"/>
      </g>
     </g>
     <g id="text_49">
      <!-- 10 -->
      <g transform="translate(298.439432 476.638437) scale(0.1 -0.1)">
       <use xlink:href="#DejaVuSans-31"/>
       <use xlink:href="#DejaVuSans-30" transform="translate(63.623047 0)"/>
      </g>
     </g>
    </g>
    <g id="xtick_25">
     <g id="line2d_56">
      <g>
       <use xlink:href="#m7fd0fd9ac5" x="351.226364" y="462.04" style="stroke: #000000; stroke-width: 0.8"/>
      </g>
     </g>
     <g id="text_50">
      <!-- 12 -->
      <g transform="translate(344.863864 476.638437) scale(0.1 -0.1)">
       <use xlink:href="#DejaVuSans-31"/>
       <use xlink:href="#DejaVuSans-32" transform="translate(63.623047 0)"/>
      </g>
     </g>
    </g>
    <g id="xtick_26">
     <g id="line2d_57">
      <g>
       <use xlink:href="#m7fd0fd9ac5" x="397.650795" y="462.04" style="stroke: #000000; stroke-width: 0.8"/>
      </g>
     </g>
     <g id="text_51">
      <!-- 14 -->
      <g transform="translate(391.288295 476.638437) scale(0.1 -0.1)">
       <use xlink:href="#DejaVuSans-31"/>
       <use xlink:href="#DejaVuSans-34" transform="translate(63.623047 0)"/>
      </g>
     </g>
    </g>
    <g id="xtick_27">
     <g id="line2d_58">
      <g>
       <use xlink:href="#m7fd0fd9ac5" x="444.075227" y="462.04" style="stroke: #000000; stroke-width: 0.8"/>
      </g>
     </g>
     <g id="text_52">
      <!-- 16 -->
      <g transform="translate(437.712727 476.638437) scale(0.1 -0.1)">
       <use xlink:href="#DejaVuSans-31"/>
       <use xlink:href="#DejaVuSans-36" transform="translate(63.623047 0)"/>
      </g>
     </g>
    </g>
    <g id="text_53">
     <!-- Номер слоя -->
     <g transform="translate(227.93375 490.316562) scale(0.1 -0.1)">
      <use xlink:href="#DejaVuSans-41d"/>
      <use xlink:href="#DejaVuSans-43e" transform="translate(75.195312 0)"/>
      <use xlink:href="#DejaVuSans-43c" transform="translate(136.376953 0)"/>
      <use xlink:href="#DejaVuSans-435" transform="translate(211.816406 0)"/>
      <use xlink:href="#DejaVuSans-440" transform="translate(273.339844 0)"/>
      <use xlink:href="#DejaVuSans-20" transform="translate(336.816406 0)"/>
      <use xlink:href="#DejaVuSans-441" transform="translate(368.603516 0)"/>
      <use xlink:href="#DejaVuSans-43b" transform="translate(423.583984 0)"/>
      <use xlink:href="#DejaVuSans-43e" transform="translate(487.5 0)"/>
      <use xlink:href="#DejaVuSans-44f" transform="translate(548.681641 0)"/>
     </g>
    </g>
   </g>
   <g id="matplotlib.axis_6">
    <g id="ytick_12">
     <g id="line2d_59">
      <g>
       <use xlink:href="#m2df08a088e" x="54.11" y="452.738182" style="stroke: #000000; stroke-width: 0.8"/>
      </g>
     </g>
     <g id="text_54">
      <!-- 0.00 -->
      <g transform="translate(24.844375 456.537401) scale(0.1 -0.1)">
       <use xlink:href="#DejaVuSans-30"/>
       <use xlink:href="#DejaVuSans-2e" transform="translate(63.623047 0)"/>
       <use xlink:href="#DejaVuSans-30" transform="translate(95.410156 0)"/>
       <use xlink:href="#DejaVuSans-30" transform="translate(159.033203 0)"/>
      </g>
     </g>
    </g>
    <g id="ytick_13">
     <g id="line2d_60">
      <g>
       <use xlink:href="#m2df08a088e" x="54.11" y="422.549554" style="stroke: #000000; stroke-width: 0.8"/>
      </g>
     </g>
     <g id="text_55">
      <!-- 0.01 -->
      <g transform="translate(24.844375 426.348772) scale(0.1 -0.1)">
       <use xlink:href="#DejaVuSans-30"/>
       <use xlink:href="#DejaVuSans-2e" transform="translate(63.623047 0)"/>
       <use xlink:href="#DejaVuSans-30" transform="translate(95.410156 0)"/>
       <use xlink:href="#DejaVuSans-31" transform="translate(159.033203 0)"/>
      </g>
     </g>
    </g>
    <g id="ytick_14">
     <g id="line2d_61">
      <g>
       <use xlink:href="#m2df08a088e" x="54.11" y="392.360926" style="stroke: #000000; stroke-width: 0.8"/>
      </g>
     </g>
     <g id="text_56">
      <!-- 0.02 -->
      <g transform="translate(24.844375 396.160144) scale(0.1 -0.1)">
       <use xlink:href="#DejaVuSans-30"/>
       <use xlink:href="#DejaVuSans-2e" transform="translate(63.623047 0)"/>
       <use xlink:href="#DejaVuSans-30" transform="translate(95.410156 0)"/>
       <use xlink:href="#DejaVuSans-32" transform="translate(159.033203 0)"/>
      </g>
     </g>
    </g>
    <g id="ytick_15">
     <g id="line2d_62">
      <g>
       <use xlink:href="#m2df08a088e" x="54.11" y="362.172298" style="stroke: #000000; stroke-width: 0.8"/>
      </g>
     </g>
     <g id="text_57">
      <!-- 0.03 -->
      <g transform="translate(24.844375 365.971516) scale(0.1 -0.1)">
       <defs>
        <path id="DejaVuSans-33" d="M 2597 2516 
Q 3050 2419 3304 2112 
Q 3559 1806 3559 1356 
Q 3559 666 3084 287 
Q 2609 -91 1734 -91 
Q 1441 -91 1130 -33 
Q 819 25 488 141 
L 488 750 
Q 750 597 1062 519 
Q 1375 441 1716 441 
Q 2309 441 2620 675 
Q 2931 909 2931 1356 
Q 2931 1769 2642 2001 
Q 2353 2234 1838 2234 
L 1294 2234 
L 1294 2753 
L 1863 2753 
Q 2328 2753 2575 2939 
Q 2822 3125 2822 3475 
Q 2822 3834 2567 4026 
Q 2313 4219 1838 4219 
Q 1578 4219 1281 4162 
Q 984 4106 628 3988 
L 628 4550 
Q 988 4650 1302 4700 
Q 1616 4750 1894 4750 
Q 2613 4750 3031 4423 
Q 3450 4097 3450 3541 
Q 3450 3153 3228 2886 
Q 3006 2619 2597 2516 
z
" transform="scale(0.015625)"/>
       </defs>
       <use xlink:href="#DejaVuSans-30"/>
       <use xlink:href="#DejaVuSans-2e" transform="translate(63.623047 0)"/>
       <use xlink:href="#DejaVuSans-30" transform="translate(95.410156 0)"/>
       <use xlink:href="#DejaVuSans-33" transform="translate(159.033203 0)"/>
      </g>
     </g>
    </g>
    <g id="ytick_16">
     <g id="line2d_63">
      <g>
       <use xlink:href="#m2df08a088e" x="54.11" y="331.983669" style="stroke: #000000; stroke-width: 0.8"/>
      </g>
     </g>
     <g id="text_58">
      <!-- 0.04 -->
      <g transform="translate(24.844375 335.782888) scale(0.1 -0.1)">
       <use xlink:href="#DejaVuSans-30"/>
       <use xlink:href="#DejaVuSans-2e" transform="translate(63.623047 0)"/>
       <use xlink:href="#DejaVuSans-30" transform="translate(95.410156 0)"/>
       <use xlink:href="#DejaVuSans-34" transform="translate(159.033203 0)"/>
      </g>
     </g>
    </g>
    <g id="ytick_17">
     <g id="line2d_64">
      <g>
       <use xlink:href="#m2df08a088e" x="54.11" y="301.795041" style="stroke: #000000; stroke-width: 0.8"/>
      </g>
     </g>
     <g id="text_59">
      <!-- 0.05 -->
      <g transform="translate(24.844375 305.59426) scale(0.1 -0.1)">
       <use xlink:href="#DejaVuSans-30"/>
       <use xlink:href="#DejaVuSans-2e" transform="translate(63.623047 0)"/>
       <use xlink:href="#DejaVuSans-30" transform="translate(95.410156 0)"/>
       <use xlink:href="#DejaVuSans-35" transform="translate(159.033203 0)"/>
      </g>
     </g>
    </g>
    <g id="ytick_18">
     <g id="line2d_65">
      <g>
       <use xlink:href="#m2df08a088e" x="54.11" y="271.606413" style="stroke: #000000; stroke-width: 0.8"/>
      </g>
     </g>
     <g id="text_60">
      <!-- 0.06 -->
      <g transform="translate(24.844375 275.405632) scale(0.1 -0.1)">
       <use xlink:href="#DejaVuSans-30"/>
       <use xlink:href="#DejaVuSans-2e" transform="translate(63.623047 0)"/>
       <use xlink:href="#DejaVuSans-30" transform="translate(95.410156 0)"/>
       <use xlink:href="#DejaVuSans-36" transform="translate(159.033203 0)"/>
      </g>
     </g>
    </g>
    <g id="text_61">
     <!-- Межслойная устойчивость -->
     <g transform="translate(18.764688 430.546562) rotate(-90) scale(0.1 -0.1)">
      <use xlink:href="#DejaVuSans-41c"/>
      <use xlink:href="#DejaVuSans-435" transform="translate(86.279297 0)"/>
      <use xlink:href="#DejaVuSans-436" transform="translate(147.802734 0)"/>
      <use xlink:href="#DejaVuSans-441" transform="translate(237.890625 0)"/>
      <use xlink:href="#DejaVuSans-43b" transform="translate(292.871094 0)"/>
      <use xlink:href="#DejaVuSans-43e" transform="translate(356.787109 0)"/>
      <use xlink:href="#DejaVuSans-439" transform="translate(417.96875 0)"/>
      <use xlink:href="#DejaVuSans-43d" transform="translate(482.958984 0)"/>
      <use xlink:href="#DejaVuSans-430" transform="translate(548.339844 0)"/>
      <use xlink:href="#DejaVuSans-44f" transform="translate(609.619141 0)"/>
      <use xlink:href="#DejaVuSans-20" transform="translate(669.775391 0)"/>
      <use xlink:href="#DejaVuSans-443" transform="translate(701.5625 0)"/>
      <use xlink:href="#DejaVuSans-441" transform="translate(760.742188 0)"/>
      <use xlink:href="#DejaVuSans-442" transform="translate(815.722656 0)"/>
      <use xlink:href="#DejaVuSans-43e" transform="translate(873.974609 0)"/>
      <use xlink:href="#DejaVuSans-439" transform="translate(935.15625 0)"/>
      <use xlink:href="#DejaVuSans-447" transform="translate(1000.146484 0)"/>
      <use xlink:href="#DejaVuSans-438" transform="translate(1059.228516 0)"/>
      <use xlink:href="#DejaVuSans-432" transform="translate(1124.21875 0)"/>
      <use xlink:href="#DejaVuSans-43e" transform="translate(1183.154297 0)"/>
      <use xlink:href="#DejaVuSans-441" transform="translate(1244.335938 0)"/>
      <use xlink:href="#DejaVuSans-442" transform="translate(1299.316406 0)"/>
      <use xlink:href="#DejaVuSans-44c" transform="translate(1357.568359 0)"/>
     </g>
    </g>
   </g>
   <g id="line2d_66">
    <path d="M 72.679773 452.738182 
L 95.891989 452.738182 
L 119.104205 452.738182 
L 142.31642 452.738182 
L 165.528636 452.738182 
L 188.740852 452.738182 
L 211.953068 452.738182 
L 235.165284 452.738182 
L 258.3775 433.587301 
L 281.589716 426.22398 
L 304.801932 452.738182 
L 328.014148 452.738182 
L 351.226364 452.738182 
L 374.43858 452.738182 
L 397.650795 452.738182 
L 420.863011 452.738182 
L 444.075227 452.738182 
" clip-path="url(#p17fb371329)" style="fill: none; stroke: #648fff; stroke-width: 1.5; stroke-linecap: square"/>
   </g>
   <g id="line2d_67">
    <path d="M 72.679773 452.738182 
L 95.891989 452.738182 
L 119.104205 452.738182 
L 142.31642 452.738182 
L 165.528636 452.738182 
L 188.740852 275.158017 
L 211.953068 275.158017 
L 235.165284 275.158017 
L 258.3775 269.034563 
L 281.589716 266.701818 
L 304.801932 275.158017 
L 328.014148 275.158017 
L 351.226364 275.158017 
L 374.43858 275.158017 
L 397.650795 275.158017 
L 420.863011 275.158017 
L 444.075227 275.158017 
" clip-path="url(#p17fb371329)" style="fill: none; stroke: #785ef0; stroke-width: 1.5; stroke-linecap: square"/>
   </g>
   <g id="line2d_68">
    <path d="M 72.679773 452.738182 
L 95.891989 452.738182 
L 119.104205 452.738182 
L 142.31642 452.738182 
L 165.528636 452.738182 
L 188.740852 452.738182 
L 211.953068 452.738182 
L 235.165284 452.738182 
L 258.3775 449.546145 
L 281.589716 448.3532 
L 304.801932 452.738182 
L 328.014148 452.738182 
L 351.226364 452.738182 
L 374.43858 452.738182 
L 397.650795 452.738182 
L 420.863011 452.738182 
L 444.075227 452.738182 
" clip-path="url(#p17fb371329)" style="fill: none; stroke: #dc267f; stroke-width: 1.5; stroke-linecap: square"/>
   </g>
   <g id="line2d_69">
    <path d="M 72.679773 452.738182 
L 95.891989 452.738182 
L 119.104205 452.738182 
L 142.31642 452.738182 
L 165.528636 452.738182 
L 188.740852 452.738182 
L 211.953068 452.738182 
L 235.165284 452.738182 
L 258.3775 451.292366 
L 281.589716 450.76893 
L 304.801932 452.738182 
L 328.014148 452.738182 
L 351.226364 452.738182 
L 374.43858 452.738182 
L 397.650795 452.738182 
L 420.863011 452.738182 
L 444.075227 452.738182 
" clip-path="url(#p17fb371329)" style="fill: none; stroke: #fe6100; stroke-width: 1.5; stroke-linecap: square"/>
   </g>
   <g id="line2d_70">
    <path d="M 72.679773 452.738182 
L 95.891989 452.738182 
L 119.104205 452.738182 
L 142.31642 452.738182 
L 165.528636 452.738182 
L 188.740852 452.738182 
L 211.953068 452.738182 
L 235.165284 452.738182 
L 258.3775 452.483038 
L 281.589716 452.399934 
L 304.801932 452.738182 
L 328.014148 452.738182 
L 351.226364 452.738182 
L 374.43858 452.738182 
L 397.650795 452.738182 
L 420.863011 452.738182 
L 444.075227 452.738182 
" clip-path="url(#p17fb371329)" style="fill: none; stroke: #ffb000; stroke-width: 1.5; stroke-linecap: square"/>
   </g>
   <g id="patch_15">
    <path d="M 54.11 462.04 
L 54.11 257.4 
" style="fill: none; stroke: #000000; stroke-width: 0.8; stroke-linejoin: miter; stroke-linecap: square"/>
   </g>
   <g id="patch_16">
    <path d="M 462.645 462.04 
L 462.645 257.4 
" style="fill: none; stroke: #000000; stroke-width: 0.8; stroke-linejoin: miter; stroke-linecap: square"/>
   </g>
   <g id="patch_17">
    <path d="M 54.11 462.04 
L 462.645 462.04 
" style="fill: none; stroke: #000000; stroke-width: 0.8; stroke-linejoin: miter; stroke-linecap: square"/>
   </g>
   <g id="patch_18">
    <path d="M 54.11 257.4 
L 462.645 257.4 
" style="fill: none; stroke: #000000; stroke-width: 0.8; stroke-linejoin: miter; stroke-linecap: square"/>
   </g>
   <g id="legend_3">
    <g id="patch_19">
     <path d="M 61.11 338.790625 
L 142.71 338.790625 
Q 144.71 338.790625 144.71 336.790625 
L 144.71 264.4 
Q 144.71 262.4 142.71 262.4 
L 61.11 262.4 
Q 59.11 262.4 59.11 264.4 
L 59.11 336.790625 
Q 59.11 338.790625 61.11 338.790625 
z
" style="fill: #ffffff; opacity: 0.8; stroke: #cccccc; stroke-linejoin: miter"/>
    </g>
    <g id="line2d_71">
     <path d="M 63.11 270.498438 
L 73.11 270.498438 
L 83.11 270.498438 
" style="fill: none; stroke: #648fff; stroke-width: 1.5; stroke-linecap: square"/>
    </g>
    <g id="text_62">
     <!-- $\alpha=-1.00$ -->
     <g transform="translate(91.11 273.998438) scale(0.1 -0.1)">
      <use xlink:href="#DejaVuSans-Oblique-3b1" transform="translate(0 0.78125)"/>
      <use xlink:href="#DejaVuSans-3d" transform="translate(85.400391 0.78125)"/>
      <use xlink:href="#DejaVuSans-2212" transform="translate(188.671875 0.78125)"/>
      <use xlink:href="#DejaVuSans-31" transform="translate(272.460938 0.78125)"/>
      <use xlink:href="#DejaVuSans-2e" transform="translate(336.083984 0.78125)"/>
      <use xlink:href="#DejaVuSans-30" transform="translate(367.871094 0.78125)"/>
      <use xlink:href="#DejaVuSans-30" transform="translate(431.494141 0.78125)"/>
     </g>
    </g>
    <g id="line2d_72">
     <path d="M 63.11 285.176563 
L 73.11 285.176563 
L 83.11 285.176563 
" style="fill: none; stroke: #785ef0; stroke-width: 1.5; stroke-linecap: square"/>
    </g>
    <g id="text_63">
     <!-- $\alpha=0.00$ -->
     <g transform="translate(91.11 288.676563) scale(0.1 -0.1)">
      <use xlink:href="#DejaVuSans-Oblique-3b1" transform="translate(0 0.78125)"/>
      <use xlink:href="#DejaVuSans-3d" transform="translate(85.400391 0.78125)"/>
      <use xlink:href="#DejaVuSans-30" transform="translate(188.671875 0.78125)"/>
      <use xlink:href="#DejaVuSans-2e" transform="translate(252.294922 0.78125)"/>
      <use xlink:href="#DejaVuSans-30" transform="translate(284.082031 0.78125)"/>
      <use xlink:href="#DejaVuSans-30" transform="translate(347.705078 0.78125)"/>
     </g>
    </g>
    <g id="line2d_73">
     <path d="M 63.11 299.854688 
L 73.11 299.854688 
L 83.11 299.854688 
" style="fill: none; stroke: #dc267f; stroke-width: 1.5; stroke-linecap: square"/>
    </g>
    <g id="text_64">
     <!-- $\alpha=0.50$ -->
     <g transform="translate(91.11 303.354688) scale(0.1 -0.1)">
      <use xlink:href="#DejaVuSans-Oblique-3b1" transform="translate(0 0.78125)"/>
      <use xlink:href="#DejaVuSans-3d" transform="translate(85.400391 0.78125)"/>
      <use xlink:href="#DejaVuSans-30" transform="translate(188.671875 0.78125)"/>
      <use xlink:href="#DejaVuSans-2e" transform="translate(252.294922 0.78125)"/>
      <use xlink:href="#DejaVuSans-35" transform="translate(284.082031 0.78125)"/>
      <use xlink:href="#DejaVuSans-30" transform="translate(347.705078 0.78125)"/>
     </g>
    </g>
    <g id="line2d_74">
     <path d="M 63.11 314.532813 
L 73.11 314.532813 
L 83.11 314.532813 
" style="fill: none; stroke: #fe6100; stroke-width: 1.5; stroke-linecap: square"/>
    </g>
    <g id="text_65">
     <!-- $\alpha=1.00$ -->
     <g transform="translate(91.11 318.032813) scale(0.1 -0.1)">
      <use xlink:href="#DejaVuSans-Oblique-3b1" transform="translate(0 0.78125)"/>
      <use xlink:href="#DejaVuSans-3d" transform="translate(85.400391 0.78125)"/>
      <use xlink:href="#DejaVuSans-31" transform="translate(188.671875 0.78125)"/>
      <use xlink:href="#DejaVuSans-2e" transform="translate(252.294922 0.78125)"/>
      <use xlink:href="#DejaVuSans-30" transform="translate(284.082031 0.78125)"/>
      <use xlink:href="#DejaVuSans-30" transform="translate(347.705078 0.78125)"/>
     </g>
    </g>
    <g id="line2d_75">
     <path d="M 63.11 329.210938 
L 73.11 329.210938 
L 83.11 329.210938 
" style="fill: none; stroke: #ffb000; stroke-width: 1.5; stroke-linecap: square"/>
    </g>
    <g id="text_66">
     <!-- $\alpha=2.00$ -->
     <g transform="translate(91.11 332.710938) scale(0.1 -0.1)">
      <use xlink:href="#DejaVuSans-Oblique-3b1" transform="translate(0 0.78125)"/>
      <use xlink:href="#DejaVuSans-3d" transform="translate(85.400391 0.78125)"/>
      <use xlink:href="#DejaVuSans-32" transform="translate(188.671875 0.78125)"/>
      <use xlink:href="#DejaVuSans-2e" transform="translate(252.294922 0.78125)"/>
      <use xlink:href="#DejaVuSans-30" transform="translate(284.082031 0.78125)"/>
      <use xlink:href="#DejaVuSans-30" transform="translate(347.705078 0.78125)"/>
     </g>
    </g>
   </g>
  </g>
  <g id="axes_4">
   <g id="patch_20">
    <path d="M 516.665 462.04 
L 925.2 462.04 
L 925.2 257.4 
L 516.665 257.4 
z
" style="fill: #ffffff"/>
   </g>
   <g id="matplotlib.axis_7">
    <g id="xtick_28">
     <g id="line2d_76">
      <g>
       <use xlink:href="#m7fd0fd9ac5" x="535.234773" y="462.04" style="stroke: #000000; stroke-width: 0.8"/>
      </g>
     </g>
     <g id="text_67">
      <!-- 0 -->
      <g transform="translate(532.053523 476.638437) scale(0.1 -0.1)">
       <use xlink:href="#DejaVuSans-30"/>
      </g>
     </g>
    </g>
    <g id="xtick_29">
     <g id="line2d_77">
      <g>
       <use xlink:href="#m7fd0fd9ac5" x="581.659205" y="462.04" style="stroke: #000000; stroke-width: 0.8"/>
      </g>
     </g>
     <g id="text_68">
      <!-- 2 -->
      <g transform="translate(578.477955 476.638437) scale(0.1 -0.1)">
       <use xlink:href="#DejaVuSans-32"/>
      </g>
     </g>
    </g>
    <g id="xtick_30">
     <g id="line2d_78">
      <g>
       <use xlink:href="#m7fd0fd9ac5" x="628.083636" y="462.04" style="stroke: #000000; stroke-width: 0.8"/>
      </g>
     </g>
     <g id="text_69">
      <!-- 4 -->
      <g transform="translate(624.902386 476.638437) scale(0.1 -0.1)">
       <use xlink:href="#DejaVuSans-34"/>
      </g>
     </g>
    </g>
    <g id="xtick_31">
     <g id="line2d_79">
      <g>
       <use xlink:href="#m7fd0fd9ac5" x="674.508068" y="462.04" style="stroke: #000000; stroke-width: 0.8"/>
      </g>
     </g>
     <g id="text_70">
      <!-- 6 -->
      <g transform="translate(671.326818 476.638437) scale(0.1 -0.1)">
       <use xlink:href="#DejaVuSans-36"/>
      </g>
     </g>
    </g>
    <g id="xtick_32">
     <g id="line2d_80">
      <g>
       <use xlink:href="#m7fd0fd9ac5" x="720.9325" y="462.04" style="stroke: #000000; stroke-width: 0.8"/>
      </g>
     </g>
     <g id="text_71">
      <!-- 8 -->
      <g transform="translate(717.75125 476.638437) scale(0.1 -0.1)">
       <use xlink:href="#DejaVuSans-38"/>
      </g>
     </g>
    </g>
    <g id="xtick_33">
     <g id="line2d_81">
      <g>
       <use xlink:href="#m7fd0fd9ac5" x="767.356932" y="462.04" style="stroke: #000000; stroke-width: 0.8"/>
      </g>
     </g>
     <g id="text_72">
      <!-- 10 -->
      <g transform="translate(760.994432 476.638437) scale(0.1 -0.1)">
       <use xlink:href="#DejaVuSans-31"/>
       <use xlink:href="#DejaVuSans-30" transform="translate(63.623047 0)"/>
      </g>
     </g>
    </g>
    <g id="xtick_34">
     <g id="line2d_82">
      <g>
       <use xlink:href="#m7fd0fd9ac5" x="813.781364" y="462.04" style="stroke: #000000; stroke-width: 0.8"/>
      </g>
     </g>
     <g id="text_73">
      <!-- 12 -->
      <g transform="translate(807.418864 476.638437) scale(0.1 -0.1)">
       <use xlink:href="#DejaVuSans-31"/>
       <use xlink:href="#DejaVuSans-32" transform="translate(63.623047 0)"/>
      </g>
     </g>
    </g>
    <g id="xtick_35">
     <g id="line2d_83">
      <g>
       <use xlink:href="#m7fd0fd9ac5" x="860.205795" y="462.04" style="stroke: #000000; stroke-width: 0.8"/>
      </g>
     </g>
     <g id="text_74">
      <!-- 14 -->
      <g transform="translate(853.843295 476.638437) scale(0.1 -0.1)">
       <use xlink:href="#DejaVuSans-31"/>
       <use xlink:href="#DejaVuSans-34" transform="translate(63.623047 0)"/>
      </g>
     </g>
    </g>
    <g id="xtick_36">
     <g id="line2d_84">
      <g>
       <use xlink:href="#m7fd0fd9ac5" x="906.630227" y="462.04" style="stroke: #000000; stroke-width: 0.8"/>
      </g>
     </g>
     <g id="text_75">
      <!-- 16 -->
      <g transform="translate(900.267727 476.638437) scale(0.1 -0.1)">
       <use xlink:href="#DejaVuSans-31"/>
       <use xlink:href="#DejaVuSans-36" transform="translate(63.623047 0)"/>
      </g>
     </g>
    </g>
    <g id="text_76">
     <!-- Номер слоя -->
     <g transform="translate(690.48875 490.316562) scale(0.1 -0.1)">
      <use xlink:href="#DejaVuSans-41d"/>
      <use xlink:href="#DejaVuSans-43e" transform="translate(75.195312 0)"/>
      <use xlink:href="#DejaVuSans-43c" transform="translate(136.376953 0)"/>
      <use xlink:href="#DejaVuSans-435" transform="translate(211.816406 0)"/>
      <use xlink:href="#DejaVuSans-440" transform="translate(273.339844 0)"/>
      <use xlink:href="#DejaVuSans-20" transform="translate(336.816406 0)"/>
      <use xlink:href="#DejaVuSans-441" transform="translate(368.603516 0)"/>
      <use xlink:href="#DejaVuSans-43b" transform="translate(423.583984 0)"/>
      <use xlink:href="#DejaVuSans-43e" transform="translate(487.5 0)"/>
      <use xlink:href="#DejaVuSans-44f" transform="translate(548.681641 0)"/>
     </g>
    </g>
   </g>
   <g id="matplotlib.axis_8">
    <g id="ytick_19">
     <g id="line2d_85">
      <g>
       <use xlink:href="#m2df08a088e" x="516.665" y="456.544324" style="stroke: #000000; stroke-width: 0.8"/>
      </g>
     </g>
     <g id="text_77">
      <!-- 0.00 -->
      <g transform="translate(487.399375 460.343543) scale(0.1 -0.1)">
       <use xlink:href="#DejaVuSans-30"/>
       <use xlink:href="#DejaVuSans-2e" transform="translate(63.623047 0)"/>
       <use xlink:href="#DejaVuSans-30" transform="translate(95.410156 0)"/>
       <use xlink:href="#DejaVuSans-30" transform="translate(159.033203 0)"/>
      </g>
     </g>
    </g>
    <g id="ytick_20">
     <g id="line2d_86">
      <g>
       <use xlink:href="#m2df08a088e" x="516.665" y="418.482901" style="stroke: #000000; stroke-width: 0.8"/>
      </g>
     </g>
     <g id="text_78">
      <!-- 0.05 -->
      <g transform="translate(487.399375 422.28212) scale(0.1 -0.1)">
       <use xlink:href="#DejaVuSans-30"/>
       <use xlink:href="#DejaVuSans-2e" transform="translate(63.623047 0)"/>
       <use xlink:href="#DejaVuSans-30" transform="translate(95.410156 0)"/>
       <use xlink:href="#DejaVuSans-35" transform="translate(159.033203 0)"/>
      </g>
     </g>
    </g>
    <g id="ytick_21">
     <g id="line2d_87">
      <g>
       <use xlink:href="#m2df08a088e" x="516.665" y="380.421479" style="stroke: #000000; stroke-width: 0.8"/>
      </g>
     </g>
     <g id="text_79">
      <!-- 0.10 -->
      <g transform="translate(487.399375 384.220697) scale(0.1 -0.1)">
       <use xlink:href="#DejaVuSans-30"/>
       <use xlink:href="#DejaVuSans-2e" transform="translate(63.623047 0)"/>
       <use xlink:href="#DejaVuSans-31" transform="translate(95.410156 0)"/>
       <use xlink:href="#DejaVuSans-30" transform="translate(159.033203 0)"/>
      </g>
     </g>
    </g>
    <g id="ytick_22">
     <g id="line2d_88">
      <g>
       <use xlink:href="#m2df08a088e" x="516.665" y="342.360056" style="stroke: #000000; stroke-width: 0.8"/>
      </g>
     </g>
     <g id="text_80">
      <!-- 0.15 -->
      <g transform="translate(487.399375 346.159275) scale(0.1 -0.1)">
       <use xlink:href="#DejaVuSans-30"/>
       <use xlink:href="#DejaVuSans-2e" transform="translate(63.623047 0)"/>
       <use xlink:href="#DejaVuSans-31" transform="translate(95.410156 0)"/>
       <use xlink:href="#DejaVuSans-35" transform="translate(159.033203 0)"/>
      </g>
     </g>
    </g>
    <g id="ytick_23">
     <g id="line2d_89">
      <g>
       <use xlink:href="#m2df08a088e" x="516.665" y="304.298633" style="stroke: #000000; stroke-width: 0.8"/>
      </g>
     </g>
     <g id="text_81">
      <!-- 0.20 -->
      <g transform="translate(487.399375 308.097852) scale(0.1 -0.1)">
       <use xlink:href="#DejaVuSans-30"/>
       <use xlink:href="#DejaVuSans-2e" transform="translate(63.623047 0)"/>
       <use xlink:href="#DejaVuSans-32" transform="translate(95.410156 0)"/>
       <use xlink:href="#DejaVuSans-30" transform="translate(159.033203 0)"/>
      </g>
     </g>
    </g>
    <g id="ytick_24">
     <g id="line2d_90">
      <g>
       <use xlink:href="#m2df08a088e" x="516.665" y="266.23721" style="stroke: #000000; stroke-width: 0.8"/>
      </g>
     </g>
     <g id="text_82">
      <!-- 0.25 -->
      <g transform="translate(487.399375 270.036429) scale(0.1 -0.1)">
       <use xlink:href="#DejaVuSans-30"/>
       <use xlink:href="#DejaVuSans-2e" transform="translate(63.623047 0)"/>
       <use xlink:href="#DejaVuSans-32" transform="translate(95.410156 0)"/>
       <use xlink:href="#DejaVuSans-35" transform="translate(159.033203 0)"/>
      </g>
     </g>
    </g>
    <g id="text_83">
     <!-- Межслойная устойчивость -->
     <g transform="translate(481.319688 430.546562) rotate(-90) scale(0.1 -0.1)">
      <use xlink:href="#DejaVuSans-41c"/>
      <use xlink:href="#DejaVuSans-435" transform="translate(86.279297 0)"/>
      <use xlink:href="#DejaVuSans-436" transform="translate(147.802734 0)"/>
      <use xlink:href="#DejaVuSans-441" transform="translate(237.890625 0)"/>
      <use xlink:href="#DejaVuSans-43b" transform="translate(292.871094 0)"/>
      <use xlink:href="#DejaVuSans-43e" transform="translate(356.787109 0)"/>
      <use xlink:href="#DejaVuSans-439" transform="translate(417.96875 0)"/>
      <use xlink:href="#DejaVuSans-43d" transform="translate(482.958984 0)"/>
      <use xlink:href="#DejaVuSans-430" transform="translate(548.339844 0)"/>
      <use xlink:href="#DejaVuSans-44f" transform="translate(609.619141 0)"/>
      <use xlink:href="#DejaVuSans-20" transform="translate(669.775391 0)"/>
      <use xlink:href="#DejaVuSans-443" transform="translate(701.5625 0)"/>
      <use xlink:href="#DejaVuSans-441" transform="translate(760.742188 0)"/>
      <use xlink:href="#DejaVuSans-442" transform="translate(815.722656 0)"/>
      <use xlink:href="#DejaVuSans-43e" transform="translate(873.974609 0)"/>
      <use xlink:href="#DejaVuSans-439" transform="translate(935.15625 0)"/>
      <use xlink:href="#DejaVuSans-447" transform="translate(1000.146484 0)"/>
      <use xlink:href="#DejaVuSans-438" transform="translate(1059.228516 0)"/>
      <use xlink:href="#DejaVuSans-432" transform="translate(1124.21875 0)"/>
      <use xlink:href="#DejaVuSans-43e" transform="translate(1183.154297 0)"/>
      <use xlink:href="#DejaVuSans-441" transform="translate(1244.335938 0)"/>
      <use xlink:href="#DejaVuSans-442" transform="translate(1299.316406 0)"/>
      <use xlink:href="#DejaVuSans-44c" transform="translate(1357.568359 0)"/>
     </g>
    </g>
   </g>
   <g id="line2d_91">
    <path d="M 535.234773 371.963385 
L 558.446989 339.264676 
L 581.659205 266.701818 
L 604.87142 339.569302 
L 628.083636 295.587972 
L 651.295852 270.591563 
L 674.508068 315.321298 
L 697.720284 330.800472 
L 720.9325 435.264253 
L 744.144716 422.459818 
L 767.356932 399.170395 
L 790.569148 358.256184 
L 813.781364 434.79971 
L 836.99358 422.975134 
L 860.205795 409.619722 
L 883.418011 398.851573 
L 906.630227 437.37718 
" clip-path="url(#pe4bedcdcb4)" style="fill: none; stroke: #648fff; stroke-width: 1.5; stroke-linecap: square"/>
   </g>
   <g id="line2d_92">
    <path d="M 535.234773 332.16059 
L 558.446989 330.351372 
L 581.659205 301.856189 
L 604.87142 340.64795 
L 628.083636 315.813013 
L 651.295852 312.614574 
L 674.508068 332.16059 
L 697.720284 325.40833 
L 720.9325 399.511109 
L 744.144716 395.773985 
L 767.356932 385.538981 
L 790.569148 358.376854 
L 813.781364 402.39401 
L 836.99358 397.835201 
L 860.205795 383.619917 
L 883.418011 378.928874 
L 906.630227 399.498195 
" clip-path="url(#pe4bedcdcb4)" style="fill: none; stroke: #785ef0; stroke-width: 1.5; stroke-linecap: square"/>
   </g>
   <g id="line2d_93">
    <path d="M 535.234773 371.963385 
L 558.446989 379.284199 
L 581.659205 361.828184 
L 604.87142 394.854102 
L 628.083636 375.233708 
L 651.295852 375.157477 
L 674.508068 389.630328 
L 697.720284 376.415784 
L 720.9325 445.870795 
L 744.144716 444.50711 
L 767.356932 436.9644 
L 790.569148 412.638052 
L 813.781364 449.873527 
L 836.99358 446.768648 
L 860.205795 431.218839 
L 883.418011 427.245296 
L 906.630227 444.909766 
" clip-path="url(#pe4bedcdcb4)" style="fill: none; stroke: #dc267f; stroke-width: 1.5; stroke-linecap: square"/>
   </g>
   <g id="line2d_94">
    <path d="M 535.234773 371.963385 
L 558.446989 383.910204 
L 581.659205 373.885679 
L 604.87142 402.995203 
L 628.083636 387.959617 
L 651.295852 388.745317 
L 674.508068 400.342516 
L 697.720284 384.294657 
L 720.9325 447.195904 
L 744.144716 447.35794 
L 767.356932 441.520078 
L 790.569148 420.037166 
L 813.781364 451.595534 
L 836.99358 449.219789 
L 860.205795 433.385257 
L 883.418011 429.702109 
L 906.630227 445.579813 
" clip-path="url(#pe4bedcdcb4)" style="fill: none; stroke: #fe6100; stroke-width: 1.5; stroke-linecap: square"/>
   </g>
   <g id="line2d_95">
    <path d="M 535.234773 371.963385 
L 558.446989 386.784102 
L 581.659205 383.203151 
L 604.87142 409.454703 
L 628.083636 398.572619 
L 651.295852 399.069346 
L 674.508068 409.722733 
L 697.720284 392.959359 
L 720.9325 448.21716 
L 744.144716 449.649911 
L 767.356932 444.82433 
L 790.569148 425.700637 
L 813.781364 452.738182 
L 836.99358 450.655135 
L 860.205795 434.603033 
L 883.418011 430.986022 
L 906.630227 446.01198 
" clip-path="url(#pe4bedcdcb4)" style="fill: none; stroke: #ffb000; stroke-width: 1.5; stroke-linecap: square"/>
   </g>
   <g id="patch_21">
    <path d="M 516.665 462.04 
L 516.665 257.4 
" style="fill: none; stroke: #000000; stroke-width: 0.8; stroke-linejoin: miter; stroke-linecap: square"/>
   </g>
   <g id="patch_22">
    <path d="M 925.2 462.04 
L 925.2 257.4 
" style="fill: none; stroke: #000000; stroke-width: 0.8; stroke-linejoin: miter; stroke-linecap: square"/>
   </g>
   <g id="patch_23">
    <path d="M 516.665 462.04 
L 925.2 462.04 
" style="fill: none; stroke: #000000; stroke-width: 0.8; stroke-linejoin: miter; stroke-linecap: square"/>
   </g>
   <g id="patch_24">
    <path d="M 516.665 257.4 
L 925.2 257.4 
" style="fill: none; stroke: #000000; stroke-width: 0.8; stroke-linejoin: miter; stroke-linecap: square"/>
   </g>
   <g id="legend_4">
    <g id="patch_25">
     <path d="M 836.6 338.790625 
L 918.2 338.790625 
Q 920.2 338.790625 920.2 336.790625 
L 920.2 264.4 
Q 920.2 262.4 918.2 262.4 
L 836.6 262.4 
Q 834.6 262.4 834.6 264.4 
L 834.6 336.790625 
Q 834.6 338.790625 836.6 338.790625 
z
" style="fill: #ffffff; opacity: 0.8; stroke: #cccccc; stroke-linejoin: miter"/>
    </g>
    <g id="line2d_96">
     <path d="M 838.6 270.498438 
L 848.6 270.498438 
L 858.6 270.498438 
" style="fill: none; stroke: #648fff; stroke-width: 1.5; stroke-linecap: square"/>
    </g>
    <g id="text_84">
     <!-- $\alpha=-1.00$ -->
     <g transform="translate(866.6 273.998438) scale(0.1 -0.1)">
      <use xlink:href="#DejaVuSans-Oblique-3b1" transform="translate(0 0.78125)"/>
      <use xlink:href="#DejaVuSans-3d" transform="translate(85.400391 0.78125)"/>
      <use xlink:href="#DejaVuSans-2212" transform="translate(188.671875 0.78125)"/>
      <use xlink:href="#DejaVuSans-31" transform="translate(272.460938 0.78125)"/>
      <use xlink:href="#DejaVuSans-2e" transform="translate(336.083984 0.78125)"/>
      <use xlink:href="#DejaVuSans-30" transform="translate(367.871094 0.78125)"/>
      <use xlink:href="#DejaVuSans-30" transform="translate(431.494141 0.78125)"/>
     </g>
    </g>
    <g id="line2d_97">
     <path d="M 838.6 285.176563 
L 848.6 285.176563 
L 858.6 285.176563 
" style="fill: none; stroke: #785ef0; stroke-width: 1.5; stroke-linecap: square"/>
    </g>
    <g id="text_85">
     <!-- $\alpha=0.00$ -->
     <g transform="translate(866.6 288.676563) scale(0.1 -0.1)">
      <use xlink:href="#DejaVuSans-Oblique-3b1" transform="translate(0 0.78125)"/>
      <use xlink:href="#DejaVuSans-3d" transform="translate(85.400391 0.78125)"/>
      <use xlink:href="#DejaVuSans-30" transform="translate(188.671875 0.78125)"/>
      <use xlink:href="#DejaVuSans-2e" transform="translate(252.294922 0.78125)"/>
      <use xlink:href="#DejaVuSans-30" transform="translate(284.082031 0.78125)"/>
      <use xlink:href="#DejaVuSans-30" transform="translate(347.705078 0.78125)"/>
     </g>
    </g>
    <g id="line2d_98">
     <path d="M 838.6 299.854688 
L 848.6 299.854688 
L 858.6 299.854688 
" style="fill: none; stroke: #dc267f; stroke-width: 1.5; stroke-linecap: square"/>
    </g>
    <g id="text_86">
     <!-- $\alpha=0.50$ -->
     <g transform="translate(866.6 303.354688) scale(0.1 -0.1)">
      <use xlink:href="#DejaVuSans-Oblique-3b1" transform="translate(0 0.78125)"/>
      <use xlink:href="#DejaVuSans-3d" transform="translate(85.400391 0.78125)"/>
      <use xlink:href="#DejaVuSans-30" transform="translate(188.671875 0.78125)"/>
      <use xlink:href="#DejaVuSans-2e" transform="translate(252.294922 0.78125)"/>
      <use xlink:href="#DejaVuSans-35" transform="translate(284.082031 0.78125)"/>
      <use xlink:href="#DejaVuSans-30" transform="translate(347.705078 0.78125)"/>
     </g>
    </g>
    <g id="line2d_99">
     <path d="M 838.6 314.532813 
L 848.6 314.532813 
L 858.6 314.532813 
" style="fill: none; stroke: #fe6100; stroke-width: 1.5; stroke-linecap: square"/>
    </g>
    <g id="text_87">
     <!-- $\alpha=1.00$ -->
     <g transform="translate(866.6 318.032813) scale(0.1 -0.1)">
      <use xlink:href="#DejaVuSans-Oblique-3b1" transform="translate(0 0.78125)"/>
      <use xlink:href="#DejaVuSans-3d" transform="translate(85.400391 0.78125)"/>
      <use xlink:href="#DejaVuSans-31" transform="translate(188.671875 0.78125)"/>
      <use xlink:href="#DejaVuSans-2e" transform="translate(252.294922 0.78125)"/>
      <use xlink:href="#DejaVuSans-30" transform="translate(284.082031 0.78125)"/>
      <use xlink:href="#DejaVuSans-30" transform="translate(347.705078 0.78125)"/>
     </g>
    </g>
    <g id="line2d_100">
     <path d="M 838.6 329.210938 
L 848.6 329.210938 
L 858.6 329.210938 
" style="fill: none; stroke: #ffb000; stroke-width: 1.5; stroke-linecap: square"/>
    </g>
    <g id="text_88">
     <!-- $\alpha=2.00$ -->
     <g transform="translate(866.6 332.710938) scale(0.1 -0.1)">
      <use xlink:href="#DejaVuSans-Oblique-3b1" transform="translate(0 0.78125)"/>
      <use xlink:href="#DejaVuSans-3d" transform="translate(85.400391 0.78125)"/>
      <use xlink:href="#DejaVuSans-32" transform="translate(188.671875 0.78125)"/>
      <use xlink:href="#DejaVuSans-2e" transform="translate(252.294922 0.78125)"/>
      <use xlink:href="#DejaVuSans-30" transform="translate(284.082031 0.78125)"/>
      <use xlink:href="#DejaVuSans-30" transform="translate(347.705078 0.78125)"/>
     </g>
    </g>
   </g>
  </g>
 </g>
 <defs>
  <clipPath id="p2f18142bd0">
   <rect x="54.11" y="10.8" width="408.535" height="204.64"/>
  </clipPath>
  <clipPath id="p5fcf82dfa0">
   <rect x="516.665" y="10.8" width="408.535" height="204.64"/>
  </clipPath>
  <clipPath id="p17fb371329">
   <rect x="54.11" y="257.4" width="408.535" height="204.64"/>
  </clipPath>
  <clipPath id="pe4bedcdcb4">
   <rect x="516.665" y="257.4" width="408.535" height="204.64"/>
  </clipPath>
 </defs>
</svg>
