<?xml version="1.0" encoding="utf-8" standalone="no"?>
<!DOCTYPE svg PUBLIC "-//W3C//DTD SVG 1.1//EN"
  "http://www.w3.org/Graphics/SVG/1.1/DTD/svg11.dtd">
<svg xmlns:xlink="http://www.w3.org/1999/xlink" width="936pt" height="504pt" viewBox="0 0 936 504" xmlns="http://www.w3.org/2000/svg" version="1.1">
 <metadata>
  <rdf:RDF xmlns:dc="http://purl.org/dc/elements/1.1/" xmlns:cc="http://creativecommons.org/ns#" xmlns:rdf="http://www.w3.org/1999/02/22-rdf-syntax-ns#">
   <cc:Work>
    <dc:type rdf:resource="http://purl.org/dc/dcmitype/StillImage"/>
    <dc:date>2026-05-19T22:37:10.228560</dc:date>
    <dc:format>image/svg+xml</dc:format>
    <dc:creator>
     <cc:Agent>
      <dc:title>Matplotlib v3.10.9, https://matplotlib.org/</dc:title>
     </cc:Agent>
    </dc:creator>
   </cc:Work>
  </rdf:RDF>
 </metadata>
 <defs>
  <style type="text/css">*{stroke-linejoin: round; stroke-linecap: butt}</style>
 </defs>
 <g id="figure_1">
  <g id="patch_1">
   <path d="M 0 504 
L 936 504 
L 936 0 
L 0 0 
z
" style="fill: #ffffff"/>
  </g>
  <g id="axes_1">
   <g id="patch_2">
    <path d="M 54.02 214.712691 
L 462.6 214.712691 
L 462.6 10.8 
L 54.02 10.8 
z
" style="fill: #ffffff"/>
   </g>
   <g id="matplotlib.axis_1">
    <g id="xtick_1">
     <g id="line2d_1">
      <defs>
       <path id="m5dbfceff77" d="M 0 0 
L 0 3.5 
" style="stroke: #000000; stroke-width: 0.8"/>
      </defs>
      <g>
       <use xlink:href="#m5dbfceff77" x="72.591818" y="214.712691" style="stroke: #000000; stroke-width: 0.8"/>
      </g>
     </g>
     <g id="text_1">
      <!-- 0 -->
      <g transform="translate(69.410568 229.311128) scale(0.1 -0.1)">
       <defs>
        <path id="DejaVuSans-30" d="M 2034 4250 
Q 1547 4250 1301 3770 
Q 1056 3291 1056 2328 
Q 1056 1369 1301 889 
Q 1547 409 2034 409 
Q 2525 409 2770 889 
Q 3016 1369 3016 2328 
Q 3016 3291 2770 3770 
Q 2525 4250 2034 4250 
z
M 2034 4750 
Q 2819 4750 3233 4129 
Q 3647 3509 3647 2328 
Q 3647 1150 3233 529 
Q 2819 -91 2034 -91 
Q 1250 -91 836 529 
Q 422 1150 422 2328 
Q 422 3509 836 4129 
Q 1250 4750 2034 4750 
z
" transform="scale(0.015625)"/>
       </defs>
       <use xlink:href="#DejaVuSans-30"/>
      </g>
     </g>
    </g>
    <g id="xtick_2">
     <g id="line2d_2">
      <g>
       <use xlink:href="#m5dbfceff77" x="119.021364" y="214.712691" style="stroke: #000000; stroke-width: 0.8"/>
      </g>
     </g>
     <g id="text_2">
      <!-- 2 -->
      <g transform="translate(115.840114 229.311128) scale(0.1 -0.1)">
       <defs>
        <path id="DejaVuSans-32" d="M 1228 531 
L 3431 531 
L 3431 0 
L 469 0 
L 469 531 
Q 828 903 1448 1529 
Q 2069 2156 2228 2338 
Q 2531 2678 2651 2914 
Q 2772 3150 2772 3378 
Q 2772 3750 2511 3984 
Q 2250 4219 1831 4219 
Q 1534 4219 1204 4116 
Q 875 4013 500 3803 
L 500 4441 
Q 881 4594 1212 4672 
Q 1544 4750 1819 4750 
Q 2544 4750 2975 4387 
Q 3406 4025 3406 3419 
Q 3406 3131 3298 2873 
Q 3191 2616 2906 2266 
Q 2828 2175 2409 1742 
Q 1991 1309 1228 531 
z
" transform="scale(0.015625)"/>
       </defs>
       <use xlink:href="#DejaVuSans-32"/>
      </g>
     </g>
    </g>
    <g id="xtick_3">
     <g id="line2d_3">
      <g>
       <use xlink:href="#m5dbfceff77" x="165.450909" y="214.712691" style="stroke: #000000; stroke-width: 0.8"/>
      </g>
     </g>
     <g id="text_3">
      <!-- 4 -->
      <g transform="translate(162.269659 229.311128) scale(0.1 -0.1)">
       <defs>
        <path id="DejaVuSans-34" d="M 2419 4116 
L 825 1625 
L 2419 1625 
L 2419 4116 
z
M 2253 4666 
L 3047 4666 
L 3047 1625 
L 3713 1625 
L 3713 1100 
L 3047 1100 
L 3047 0 
L 2419 0 
L 2419 1100 
L 313 1100 
L 313 1709 
L 2253 4666 
z
" transform="scale(0.015625)"/>
       </defs>
       <use xlink:href="#DejaVuSans-34"/>
      </g>
     </g>
    </g>
    <g id="xtick_4">
     <g id="line2d_4">
      <g>
       <use xlink:href="#m5dbfceff77" x="211.880455" y="214.712691" style="stroke: #000000; stroke-width: 0.8"/>
      </g>
     </g>
     <g id="text_4">
      <!-- 6 -->
      <g transform="translate(208.699205 229.311128) scale(0.1 -0.1)">
       <defs>
        <path id="DejaVuSans-36" d="M 2113 2584 
Q 1688 2584 1439 2293 
Q 1191 2003 1191 1497 
Q 1191 994 1439 701 
Q 1688 409 2113 409 
Q 2538 409 2786 701 
Q 3034 994 3034 1497 
Q 3034 2003 2786 2293 
Q 2538 2584 2113 2584 
z
M 3366 4563 
L 3366 3988 
Q 3128 4100 2886 4159 
Q 2644 4219 2406 4219 
Q 1781 4219 1451 3797 
Q 1122 3375 1075 2522 
Q 1259 2794 1537 2939 
Q 1816 3084 2150 3084 
Q 2853 3084 3261 2657 
Q 3669 2231 3669 1497 
Q 3669 778 3244 343 
Q 2819 -91 2113 -91 
Q 1303 -91 875 529 
Q 447 1150 447 2328 
Q 447 3434 972 4092 
Q 1497 4750 2381 4750 
Q 2619 4750 2861 4703 
Q 3103 4656 3366 4563 
z
" transform="scale(0.015625)"/>
       </defs>
       <use xlink:href="#DejaVuSans-36"/>
      </g>
     </g>
    </g>
    <g id="xtick_5">
     <g id="line2d_5">
      <g>
       <use xlink:href="#m5dbfceff77" x="258.31" y="214.712691" style="stroke: #000000; stroke-width: 0.8"/>
      </g>
     </g>
     <g id="text_5">
      <!-- 8 -->
      <g transform="translate(255.12875 229.311128) scale(0.1 -0.1)">
       <defs>
        <path id="DejaVuSans-38" d="M 2034 2216 
Q 1584 2216 1326 1975 
Q 1069 1734 1069 1313 
Q 1069 891 1326 650 
Q 1584 409 2034 409 
Q 2484 409 2743 651 
Q 3003 894 3003 1313 
Q 3003 1734 2745 1975 
Q 2488 2216 2034 2216 
z
M 1403 2484 
Q 997 2584 770 2862 
Q 544 3141 544 3541 
Q 544 4100 942 4425 
Q 1341 4750 2034 4750 
Q 2731 4750 3128 4425 
Q 3525 4100 3525 3541 
Q 3525 3141 3298 2862 
Q 3072 2584 2669 2484 
Q 3125 2378 3379 2068 
Q 3634 1759 3634 1313 
Q 3634 634 3220 271 
Q 2806 -91 2034 -91 
Q 1263 -91 848 271 
Q 434 634 434 1313 
Q 434 1759 690 2068 
Q 947 2378 1403 2484 
z
M 1172 3481 
Q 1172 3119 1398 2916 
Q 1625 2713 2034 2713 
Q 2441 2713 2670 2916 
Q 2900 3119 2900 3481 
Q 2900 3844 2670 4047 
Q 2441 4250 2034 4250 
Q 1625 4250 1398 4047 
Q 1172 3844 1172 3481 
z
" transform="scale(0.015625)"/>
       </defs>
       <use xlink:href="#DejaVuSans-38"/>
      </g>
     </g>
    </g>
    <g id="xtick_6">
     <g id="line2d_6">
      <g>
       <use xlink:href="#m5dbfceff77" x="304.739545" y="214.712691" style="stroke: #000000; stroke-width: 0.8"/>
      </g>
     </g>
     <g id="text_6">
      <!-- 10 -->
      <g transform="translate(298.377045 229.311128) scale(0.1 -0.1)">
       <defs>
        <path id="DejaVuSans-31" d="M 794 531 
L 1825 531 
L 1825 4091 
L 703 3866 
L 703 4441 
L 1819 4666 
L 2450 4666 
L 2450 531 
L 3481 531 
L 3481 0 
L 794 0 
L 794 531 
z
" transform="scale(0.015625)"/>
       </defs>
       <use xlink:href="#DejaVuSans-31"/>
       <use xlink:href="#DejaVuSans-30" transform="translate(63.623047 0)"/>
      </g>
     </g>
    </g>
    <g id="xtick_7">
     <g id="line2d_7">
      <g>
       <use xlink:href="#m5dbfceff77" x="351.169091" y="214.712691" style="stroke: #000000; stroke-width: 0.8"/>
      </g>
     </g>
     <g id="text_7">
      <!-- 12 -->
      <g transform="translate(344.806591 229.311128) scale(0.1 -0.1)">
       <use xlink:href="#DejaVuSans-31"/>
       <use xlink:href="#DejaVuSans-32" transform="translate(63.623047 0)"/>
      </g>
     </g>
    </g>
    <g id="xtick_8">
     <g id="line2d_8">
      <g>
       <use xlink:href="#m5dbfceff77" x="397.598636" y="214.712691" style="stroke: #000000; stroke-width: 0.8"/>
      </g>
     </g>
     <g id="text_8">
      <!-- 14 -->
      <g transform="translate(391.236136 229.311128) scale(0.1 -0.1)">
       <use xlink:href="#DejaVuSans-31"/>
       <use xlink:href="#DejaVuSans-34" transform="translate(63.623047 0)"/>
      </g>
     </g>
    </g>
    <g id="xtick_9">
     <g id="line2d_9">
      <g>
       <use xlink:href="#m5dbfceff77" x="444.028182" y="214.712691" style="stroke: #000000; stroke-width: 0.8"/>
      </g>
     </g>
     <g id="text_9">
      <!-- 16 -->
      <g transform="translate(437.665682 229.311128) scale(0.1 -0.1)">
       <use xlink:href="#DejaVuSans-31"/>
       <use xlink:href="#DejaVuSans-36" transform="translate(63.623047 0)"/>
      </g>
     </g>
    </g>
    <g id="text_10">
     <!-- Номер слоя -->
     <g transform="translate(227.86625 242.989253) scale(0.1 -0.1)">
      <defs>
       <path id="DejaVuSans-41d" d="M 628 4666 
L 1259 4666 
L 1259 2753 
L 3553 2753 
L 3553 4666 
L 4184 4666 
L 4184 0 
L 3553 0 
L 3553 2222 
L 1259 2222 
L 1259 0 
L 628 0 
L 628 4666 
z
" transform="scale(0.015625)"/>
       <path id="DejaVuSans-43e" d="M 1959 3097 
Q 1497 3097 1228 2736 
Q 959 2375 959 1747 
Q 959 1119 1226 758 
Q 1494 397 1959 397 
Q 2419 397 2687 759 
Q 2956 1122 2956 1747 
Q 2956 2369 2687 2733 
Q 2419 3097 1959 3097 
z
M 1959 3584 
Q 2709 3584 3137 3096 
Q 3566 2609 3566 1747 
Q 3566 888 3137 398 
Q 2709 -91 1959 -91 
Q 1206 -91 779 398 
Q 353 888 353 1747 
Q 353 2609 779 3096 
Q 1206 3584 1959 3584 
z
" transform="scale(0.015625)"/>
       <path id="DejaVuSans-43c" d="M 581 3500 
L 1422 3500 
L 2416 1156 
L 3413 3500 
L 4247 3500 
L 4247 0 
L 3669 0 
L 3669 2950 
L 2703 672 
L 2128 672 
L 1159 2950 
L 1159 0 
L 581 0 
L 581 3500 
z
" transform="scale(0.015625)"/>
       <path id="DejaVuSans-435" d="M 3597 1894 
L 3597 1613 
L 953 1613 
Q 991 1019 1311 708 
Q 1631 397 2203 397 
Q 2534 397 2845 478 
Q 3156 559 3463 722 
L 3463 178 
Q 3153 47 2828 -22 
Q 2503 -91 2169 -91 
Q 1331 -91 842 396 
Q 353 884 353 1716 
Q 353 2575 817 3079 
Q 1281 3584 2069 3584 
Q 2775 3584 3186 3129 
Q 3597 2675 3597 1894 
z
M 3022 2063 
Q 3016 2534 2758 2815 
Q 2500 3097 2075 3097 
Q 1594 3097 1305 2825 
Q 1016 2553 972 2059 
L 3022 2063 
z
" transform="scale(0.015625)"/>
       <path id="DejaVuSans-440" d="M 1159 525 
L 1159 -1331 
L 581 -1331 
L 581 3500 
L 1159 3500 
L 1159 2969 
Q 1341 3281 1617 3432 
Q 1894 3584 2278 3584 
Q 2916 3584 3314 3078 
Q 3713 2572 3713 1747 
Q 3713 922 3314 415 
Q 2916 -91 2278 -91 
Q 1894 -91 1617 61 
Q 1341 213 1159 525 
z
M 3116 1747 
Q 3116 2381 2855 2742 
Q 2594 3103 2138 3103 
Q 1681 3103 1420 2742 
Q 1159 2381 1159 1747 
Q 1159 1113 1420 752 
Q 1681 391 2138 391 
Q 2594 391 2855 752 
Q 3116 1113 3116 1747 
z
" transform="scale(0.015625)"/>
       <path id="DejaVuSans-20" transform="scale(0.015625)"/>
       <path id="DejaVuSans-441" d="M 3122 3366 
L 3122 2828 
Q 2878 2963 2633 3030 
Q 2388 3097 2138 3097 
Q 1578 3097 1268 2742 
Q 959 2388 959 1747 
Q 959 1106 1268 751 
Q 1578 397 2138 397 
Q 2388 397 2633 464 
Q 2878 531 3122 666 
L 3122 134 
Q 2881 22 2623 -34 
Q 2366 -91 2075 -91 
Q 1284 -91 818 406 
Q 353 903 353 1747 
Q 353 2603 823 3093 
Q 1294 3584 2113 3584 
Q 2378 3584 2631 3529 
Q 2884 3475 3122 3366 
z
" transform="scale(0.015625)"/>
       <path id="DejaVuSans-43b" d="M 238 0 
L 238 478 
Q 806 566 981 959 
Q 1194 1513 1194 2928 
L 1194 3500 
L 3559 3500 
L 3559 0 
L 2984 0 
L 2984 3041 
L 1769 3041 
L 1769 2694 
Q 1769 1344 1494 738 
Q 1200 91 238 0 
z
" transform="scale(0.015625)"/>
       <path id="DejaVuSans-44f" d="M 1181 2491 
Q 1181 2231 1381 2084 
Q 1581 1938 1953 1938 
L 2728 1938 
L 2728 3041 
L 1953 3041 
Q 1581 3041 1381 2897 
Q 1181 2753 1181 2491 
z
M 363 0 
L 1431 1534 
Q 1069 1616 828 1830 
Q 588 2044 588 2491 
Q 588 2997 923 3248 
Q 1259 3500 1938 3500 
L 3306 3500 
L 3306 0 
L 2728 0 
L 2728 1478 
L 2013 1478 
L 981 0 
L 363 0 
z
" transform="scale(0.015625)"/>
      </defs>
      <use xlink:href="#DejaVuSans-41d"/>
      <use xlink:href="#DejaVuSans-43e" transform="translate(75.195312 0)"/>
      <use xlink:href="#DejaVuSans-43c" transform="translate(136.376953 0)"/>
      <use xlink:href="#DejaVuSans-435" transform="translate(211.816406 0)"/>
      <use xlink:href="#DejaVuSans-440" transform="translate(273.339844 0)"/>
      <use xlink:href="#DejaVuSans-20" transform="translate(336.816406 0)"/>
      <use xlink:href="#DejaVuSans-441" transform="translate(368.603516 0)"/>
      <use xlink:href="#DejaVuSans-43b" transform="translate(423.583984 0)"/>
      <use xlink:href="#DejaVuSans-43e" transform="translate(487.5 0)"/>
      <use xlink:href="#DejaVuSans-44f" transform="translate(548.681641 0)"/>
     </g>
    </g>
   </g>
   <g id="matplotlib.axis_2">
    <g id="ytick_1">
     <g id="line2d_10">
      <defs>
       <path id="mfa5aa3db43" d="M 0 0 
L -3.5 0 
" style="stroke: #000000; stroke-width: 0.8"/>
      </defs>
      <g>
       <use xlink:href="#mfa5aa3db43" x="54.02" y="205.443932" style="stroke: #000000; stroke-width: 0.8"/>
      </g>
     </g>
     <g id="text_11">
      <!-- 0.0 -->
      <g transform="translate(31.116875 209.243151) scale(0.1 -0.1)">
       <defs>
        <path id="DejaVuSans-2e" d="M 684 794 
L 1344 794 
L 1344 0 
L 684 0 
L 684 794 
z
" transform="scale(0.015625)"/>
       </defs>
       <use xlink:href="#DejaVuSans-30"/>
       <use xlink:href="#DejaVuSans-2e" transform="translate(63.623047 0)"/>
       <use xlink:href="#DejaVuSans-30" transform="translate(95.410156 0)"/>
      </g>
     </g>
    </g>
    <g id="ytick_2">
     <g id="line2d_11">
      <g>
       <use xlink:href="#mfa5aa3db43" x="54.02" y="167.348417" style="stroke: #000000; stroke-width: 0.8"/>
      </g>
     </g>
     <g id="text_12">
      <!-- 0.1 -->
      <g transform="translate(31.116875 171.147636) scale(0.1 -0.1)">
       <use xlink:href="#DejaVuSans-30"/>
       <use xlink:href="#DejaVuSans-2e" transform="translate(63.623047 0)"/>
       <use xlink:href="#DejaVuSans-31" transform="translate(95.410156 0)"/>
      </g>
     </g>
    </g>
    <g id="ytick_3">
     <g id="line2d_12">
      <g>
       <use xlink:href="#mfa5aa3db43" x="54.02" y="129.252902" style="stroke: #000000; stroke-width: 0.8"/>
      </g>
     </g>
     <g id="text_13">
      <!-- 0.2 -->
      <g transform="translate(31.116875 133.05212) scale(0.1 -0.1)">
       <use xlink:href="#DejaVuSans-30"/>
       <use xlink:href="#DejaVuSans-2e" transform="translate(63.623047 0)"/>
       <use xlink:href="#DejaVuSans-32" transform="translate(95.410156 0)"/>
      </g>
     </g>
    </g>
    <g id="ytick_4">
     <g id="line2d_13">
      <g>
       <use xlink:href="#mfa5aa3db43" x="54.02" y="91.157386" style="stroke: #000000; stroke-width: 0.8"/>
      </g>
     </g>
     <g id="text_14">
      <!-- 0.3 -->
      <g transform="translate(31.116875 94.956605) scale(0.1 -0.1)">
       <defs>
        <path id="DejaVuSans-33" d="M 2597 2516 
Q 3050 2419 3304 2112 
Q 3559 1806 3559 1356 
Q 3559 666 3084 287 
Q 2609 -91 1734 -91 
Q 1441 -91 1130 -33 
Q 819 25 488 141 
L 488 750 
Q 750 597 1062 519 
Q 1375 441 1716 441 
Q 2309 441 2620 675 
Q 2931 909 2931 1356 
Q 2931 1769 2642 2001 
Q 2353 2234 1838 2234 
L 1294 2234 
L 1294 2753 
L 1863 2753 
Q 2328 2753 2575 2939 
Q 2822 3125 2822 3475 
Q 2822 3834 2567 4026 
Q 2313 4219 1838 4219 
Q 1578 4219 1281 4162 
Q 984 4106 628 3988 
L 628 4550 
Q 988 4650 1302 4700 
Q 1616 4750 1894 4750 
Q 2613 4750 3031 4423 
Q 3450 4097 3450 3541 
Q 3450 3153 3228 2886 
Q 3006 2619 2597 2516 
z
" transform="scale(0.015625)"/>
       </defs>
       <use xlink:href="#DejaVuSans-30"/>
       <use xlink:href="#DejaVuSans-2e" transform="translate(63.623047 0)"/>
       <use xlink:href="#DejaVuSans-33" transform="translate(95.410156 0)"/>
      </g>
     </g>
    </g>
    <g id="ytick_5">
     <g id="line2d_14">
      <g>
       <use xlink:href="#mfa5aa3db43" x="54.02" y="53.061871" style="stroke: #000000; stroke-width: 0.8"/>
      </g>
     </g>
     <g id="text_15">
      <!-- 0.4 -->
      <g transform="translate(31.116875 56.86109) scale(0.1 -0.1)">
       <use xlink:href="#DejaVuSans-30"/>
       <use xlink:href="#DejaVuSans-2e" transform="translate(63.623047 0)"/>
       <use xlink:href="#DejaVuSans-34" transform="translate(95.410156 0)"/>
      </g>
     </g>
    </g>
    <g id="ytick_6">
     <g id="line2d_15">
      <g>
       <use xlink:href="#mfa5aa3db43" x="54.02" y="14.966356" style="stroke: #000000; stroke-width: 0.8"/>
      </g>
     </g>
     <g id="text_16">
      <!-- 0.5 -->
      <g transform="translate(31.116875 18.765574) scale(0.1 -0.1)">
       <defs>
        <path id="DejaVuSans-35" d="M 691 4666 
L 3169 4666 
L 3169 4134 
L 1269 4134 
L 1269 2991 
Q 1406 3038 1543 3061 
Q 1681 3084 1819 3084 
Q 2600 3084 3056 2656 
Q 3513 2228 3513 1497 
Q 3513 744 3044 326 
Q 2575 -91 1722 -91 
Q 1428 -91 1123 -41 
Q 819 9 494 109 
L 494 744 
Q 775 591 1075 516 
Q 1375 441 1709 441 
Q 2250 441 2565 725 
Q 2881 1009 2881 1497 
Q 2881 1984 2565 2268 
Q 2250 2553 1709 2553 
Q 1456 2553 1204 2497 
Q 953 2441 691 2322 
L 691 4666 
z
" transform="scale(0.015625)"/>
       </defs>
       <use xlink:href="#DejaVuSans-30"/>
       <use xlink:href="#DejaVuSans-2e" transform="translate(63.623047 0)"/>
       <use xlink:href="#DejaVuSans-35" transform="translate(95.410156 0)"/>
      </g>
     </g>
    </g>
    <g id="text_17">
     <!-- Относительная частота рождений -->
     <g transform="translate(25.037188 204.336814) rotate(-90) scale(0.1 -0.1)">
      <defs>
       <path id="DejaVuSans-41e" d="M 2522 4238 
Q 1834 4238 1429 3725 
Q 1025 3213 1025 2328 
Q 1025 1447 1429 934 
Q 1834 422 2522 422 
Q 3209 422 3611 934 
Q 4013 1447 4013 2328 
Q 4013 3213 3611 3725 
Q 3209 4238 2522 4238 
z
M 2522 4750 
Q 3503 4750 4090 4092 
Q 4678 3434 4678 2328 
Q 4678 1225 4090 567 
Q 3503 -91 2522 -91 
Q 1538 -91 948 565 
Q 359 1222 359 2328 
Q 359 3434 948 4092 
Q 1538 4750 2522 4750 
z
" transform="scale(0.015625)"/>
       <path id="DejaVuSans-442" d="M 188 3500 
L 3541 3500 
L 3541 3041 
L 2147 3041 
L 2147 0 
L 1581 0 
L 1581 3041 
L 188 3041 
L 188 3500 
z
" transform="scale(0.015625)"/>
       <path id="DejaVuSans-43d" d="M 581 3500 
L 1159 3500 
L 1159 2072 
L 3025 2072 
L 3025 3500 
L 3603 3500 
L 3603 0 
L 3025 0 
L 3025 1613 
L 1159 1613 
L 1159 0 
L 581 0 
L 581 3500 
z
" transform="scale(0.015625)"/>
       <path id="DejaVuSans-438" d="M 3578 3500 
L 3578 0 
L 3006 0 
L 3006 2809 
L 1319 0 
L 581 0 
L 581 3500 
L 1153 3500 
L 1153 697 
L 2838 3500 
L 3578 3500 
z
" transform="scale(0.015625)"/>
       <path id="DejaVuSans-44c" d="M 2781 1038 
Q 2781 1319 2576 1466 
Q 2372 1613 1978 1613 
L 1159 1613 
L 1159 459 
L 1978 459 
Q 2372 459 2576 607 
Q 2781 756 2781 1038 
z
M 581 3500 
L 1159 3500 
L 1159 2072 
L 2003 2072 
Q 2672 2072 3033 1817 
Q 3394 1563 3394 1038 
Q 3394 513 3033 256 
Q 2672 0 2003 0 
L 581 0 
L 581 3500 
z
" transform="scale(0.015625)"/>
       <path id="DejaVuSans-430" d="M 2194 1759 
Q 1497 1759 1228 1600 
Q 959 1441 959 1056 
Q 959 750 1161 570 
Q 1363 391 1709 391 
Q 2188 391 2477 730 
Q 2766 1069 2766 1631 
L 2766 1759 
L 2194 1759 
z
M 3341 1997 
L 3341 0 
L 2766 0 
L 2766 531 
Q 2569 213 2275 61 
Q 1981 -91 1556 -91 
Q 1019 -91 701 211 
Q 384 513 384 1019 
Q 384 1609 779 1909 
Q 1175 2209 1959 2209 
L 2766 2209 
L 2766 2266 
Q 2766 2663 2505 2880 
Q 2244 3097 1772 3097 
Q 1472 3097 1187 3025 
Q 903 2953 641 2809 
L 641 3341 
Q 956 3463 1253 3523 
Q 1550 3584 1831 3584 
Q 2591 3584 2966 3190 
Q 3341 2797 3341 1997 
z
" transform="scale(0.015625)"/>
       <path id="DejaVuSans-447" d="M 2625 0 
L 2625 1472 
L 1553 1472 
Q 1075 1472 756 1769 
Q 469 2038 469 2613 
L 469 3500 
L 1044 3500 
L 1044 2666 
Q 1044 2300 1206 2116 
Q 1372 1931 1697 1931 
L 2625 1931 
L 2625 3500 
L 3200 3500 
L 3200 0 
L 2625 0 
z
" transform="scale(0.015625)"/>
       <path id="DejaVuSans-436" d="M 2597 3500 
L 3169 3500 
L 3169 1856 
L 4697 3500 
L 5366 3500 
L 4109 2153 
L 5547 0 
L 4931 0 
L 3753 1769 
L 3169 1141 
L 3169 0 
L 2597 0 
L 2597 1141 
L 2013 1769 
L 834 0 
L 219 0 
L 1656 2153 
L 400 3500 
L 1069 3500 
L 2597 1856 
L 2597 3500 
z
" transform="scale(0.015625)"/>
       <path id="DejaVuSans-434" d="M 1384 459 
L 3053 459 
L 3053 3041 
L 1844 3041 
L 1844 2603 
Q 1844 1316 1475 628 
L 1384 459 
z
M 550 459 
Q 834 584 959 850 
Q 1266 1509 1266 2838 
L 1266 3500 
L 3631 3500 
L 3631 459 
L 4091 459 
L 4091 -884 
L 3631 -884 
L 3631 0 
L 794 0 
L 794 -884 
L 334 -884 
L 334 459 
L 550 459 
z
" transform="scale(0.015625)"/>
       <path id="DejaVuSans-439" d="M 3578 3500 
L 3578 0 
L 3006 0 
L 3006 2809 
L 1319 0 
L 581 0 
L 581 3500 
L 1153 3500 
L 1153 697 
L 2838 3500 
L 3578 3500 
z
M 1102 4833 
L 1471 4833 
Q 1505 4599 1656 4481 
Q 1808 4364 2080 4364 
Q 2349 4364 2499 4480 
Q 2649 4596 2689 4833 
L 3058 4833 
Q 3027 4386 2780 4161 
Q 2533 3936 2080 3936 
Q 1627 3936 1380 4161 
Q 1133 4386 1102 4833 
z
" transform="scale(0.015625)"/>
      </defs>
      <use xlink:href="#DejaVuSans-41e"/>
      <use xlink:href="#DejaVuSans-442" transform="translate(78.710938 0)"/>
      <use xlink:href="#DejaVuSans-43d" transform="translate(136.962891 0)"/>
      <use xlink:href="#DejaVuSans-43e" transform="translate(202.34375 0)"/>
      <use xlink:href="#DejaVuSans-441" transform="translate(263.525391 0)"/>
      <use xlink:href="#DejaVuSans-438" transform="translate(318.505859 0)"/>
      <use xlink:href="#DejaVuSans-442" transform="translate(383.496094 0)"/>
      <use xlink:href="#DejaVuSans-435" transform="translate(441.748047 0)"/>
      <use xlink:href="#DejaVuSans-43b" transform="translate(503.271484 0)"/>
      <use xlink:href="#DejaVuSans-44c" transform="translate(567.1875 0)"/>
      <use xlink:href="#DejaVuSans-43d" transform="translate(626.123047 0)"/>
      <use xlink:href="#DejaVuSans-430" transform="translate(691.503906 0)"/>
      <use xlink:href="#DejaVuSans-44f" transform="translate(752.783203 0)"/>
      <use xlink:href="#DejaVuSans-20" transform="translate(812.939453 0)"/>
      <use xlink:href="#DejaVuSans-447" transform="translate(844.726562 0)"/>
      <use xlink:href="#DejaVuSans-430" transform="translate(903.808594 0)"/>
      <use xlink:href="#DejaVuSans-441" transform="translate(965.087891 0)"/>
      <use xlink:href="#DejaVuSans-442" transform="translate(1020.068359 0)"/>
      <use xlink:href="#DejaVuSans-43e" transform="translate(1078.320312 0)"/>
      <use xlink:href="#DejaVuSans-442" transform="translate(1139.501953 0)"/>
      <use xlink:href="#DejaVuSans-430" transform="translate(1197.753906 0)"/>
      <use xlink:href="#DejaVuSans-20" transform="translate(1259.033203 0)"/>
      <use xlink:href="#DejaVuSans-440" transform="translate(1290.820312 0)"/>
      <use xlink:href="#DejaVuSans-43e" transform="translate(1354.296875 0)"/>
      <use xlink:href="#DejaVuSans-436" transform="translate(1415.478516 0)"/>
      <use xlink:href="#DejaVuSans-434" transform="translate(1505.566406 0)"/>
      <use xlink:href="#DejaVuSans-435" transform="translate(1574.707031 0)"/>
      <use xlink:href="#DejaVuSans-43d" transform="translate(1636.230469 0)"/>
      <use xlink:href="#DejaVuSans-438" transform="translate(1701.611328 0)"/>
      <use xlink:href="#DejaVuSans-439" transform="translate(1766.601562 0)"/>
     </g>
    </g>
   </g>
   <g id="line2d_16">
    <path d="M 72.591818 205.443932 
L 95.806591 92.545165 
L 119.021364 192.618605 
L 142.236136 201.392156 
L 165.450909 205.443932 
L 188.665682 182.461499 
L 211.880455 199.779245 
L 235.095227 177.344382 
L 258.31 183.02173 
L 281.524773 205.443932 
L 304.739545 199.779245 
L 327.954318 193.952716 
L 351.169091 176.06968 
L 374.383864 199.974034 
L 397.598636 192.618605 
L 420.813409 190.390763 
L 444.028182 113.312071 
" clip-path="url(#p34395e9cd6)" style="fill: none; stroke: #648fff; stroke-width: 1.5; stroke-linecap: square"/>
   </g>
   <g id="line2d_17">
    <path d="M 72.591818 205.443932 
L 95.806591 123.07525 
L 119.021364 184.851762 
L 142.236136 195.147847 
L 165.450909 205.443932 
L 188.665682 184.851762 
L 211.880455 195.147847 
L 235.095227 174.555677 
L 258.31 184.851762 
L 281.524773 205.443932 
L 304.739545 195.147847 
L 327.954318 195.147847 
L 351.169091 174.555677 
L 374.383864 184.851762 
L 397.598636 195.147847 
L 420.813409 184.851762 
L 444.028182 123.07525 
" clip-path="url(#p34395e9cd6)" style="fill: none; stroke: #785ef0; stroke-width: 1.5; stroke-linecap: square"/>
   </g>
   <g id="line2d_18">
    <path d="M 72.591818 205.443932 
L 95.806591 147.424019 
L 119.021364 183.637882 
L 142.236136 191.365251 
L 165.450909 205.443932 
L 188.665682 187.83906 
L 211.880455 192.671248 
L 235.095227 174.122105 
L 258.31 186.999501 
L 281.524773 205.443932 
L 304.739545 192.671248 
L 327.954318 196.641496 
L 351.169091 176.433234 
L 374.383864 171.011771 
L 397.598636 197.734329 
L 420.813409 170.102673 
L 444.028182 126.606078 
" clip-path="url(#p34395e9cd6)" style="fill: none; stroke: #dc267f; stroke-width: 1.5; stroke-linecap: square"/>
   </g>
   <g id="line2d_19">
    <path d="M 72.591818 205.443932 
L 95.806591 171.087354 
L 119.021364 186.197886 
L 142.236136 189.372492 
L 165.450909 205.443932 
L 188.665682 192.613235 
L 211.880455 191.76911 
L 235.095227 176.97033 
L 258.31 191.009398 
L 281.524773 205.443932 
L 304.739545 191.76911 
L 327.954318 199.028583 
L 351.169091 181.823785 
L 374.383864 157.229611 
L 397.598636 200.632421 
L 420.813409 136.730776 
L 444.028182 129.025808 
" clip-path="url(#p34395e9cd6)" style="fill: none; stroke: #fe6100; stroke-width: 1.5; stroke-linecap: square"/>
   </g>
   <g id="line2d_20">
    <path d="M 72.591818 205.443932 
L 95.806591 198.881979 
L 119.021364 197.460223 
L 142.236136 194.445965 
L 165.450909 205.443932 
L 188.665682 201.814973 
L 211.880455 196.889958 
L 235.095227 191.073255 
L 258.31 200.454114 
L 281.524773 205.443932 
L 304.739545 196.889958 
L 327.954318 203.629453 
L 351.169091 196.462259 
L 374.383864 155.342082 
L 397.598636 204.445968 
L 420.813409 20.068759 
L 444.028182 137.400953 
" clip-path="url(#p34395e9cd6)" style="fill: none; stroke: #ffb000; stroke-width: 1.5; stroke-linecap: square"/>
   </g>
   <g id="line2d_21">
    <path d="M 54.02 183.034806 
L 462.6 183.034806 
" clip-path="url(#p34395e9cd6)" style="fill: none; stroke-dasharray: 3.7,1.6; stroke-dashoffset: 0; stroke: #000000"/>
   </g>
   <g id="patch_3">
    <path d="M 54.02 214.712691 
L 54.02 10.8 
" style="fill: none; stroke: #000000; stroke-width: 0.8; stroke-linejoin: miter; stroke-linecap: square"/>
   </g>
   <g id="patch_4">
    <path d="M 462.6 214.712691 
L 462.6 10.8 
" style="fill: none; stroke: #000000; stroke-width: 0.8; stroke-linejoin: miter; stroke-linecap: square"/>
   </g>
   <g id="patch_5">
    <path d="M 54.02 214.712691 
L 462.6 214.712691 
" style="fill: none; stroke: #000000; stroke-width: 0.8; stroke-linejoin: miter; stroke-linecap: square"/>
   </g>
   <g id="patch_6">
    <path d="M 54.02 10.8 
L 462.6 10.8 
" style="fill: none; stroke: #000000; stroke-width: 0.8; stroke-linejoin: miter; stroke-linecap: square"/>
   </g>
   <g id="legend_1">
    <g id="patch_7">
     <path d="M 188.920156 106.86875 
L 327.699844 106.86875 
Q 329.699844 106.86875 329.699844 104.86875 
L 329.699844 17.8 
Q 329.699844 15.8 327.699844 15.8 
L 188.920156 15.8 
Q 186.920156 15.8 186.920156 17.8 
L 186.920156 104.86875 
Q 186.920156 106.86875 188.920156 106.86875 
z
" style="fill: #ffffff; opacity: 0.8; stroke: #cccccc; stroke-linejoin: miter"/>
    </g>
    <g id="line2d_22">
     <path d="M 190.920156 23.898438 
L 200.920156 23.898438 
L 210.920156 23.898438 
" style="fill: none; stroke: #648fff; stroke-width: 1.5; stroke-linecap: square"/>
    </g>
    <g id="text_18">
     <!-- $\alpha=-1.0$ -->
     <g transform="translate(218.920156 27.398438) scale(0.1 -0.1)">
      <defs>
       <path id="DejaVuSans-Oblique-3b1" d="M 2619 1628 
L 2622 2350 
Q 2625 3088 2069 3091 
Q 1653 3094 1394 2747 
Q 1069 2319 959 1747 
Q 825 1059 994 731 
Q 1169 397 1547 397 
Q 1966 397 2319 1063 
L 2619 1628 
z
M 2166 3578 
Q 3141 3594 3128 2584 
Q 3128 2584 3616 3500 
L 4128 3500 
L 3119 1603 
L 3109 919 
Q 3109 766 3194 638 
Q 3291 488 3391 488 
L 3669 488 
L 3575 0 
L 3228 0 
Q 2934 0 2722 263 
Q 2622 394 2619 669 
Q 2416 334 2066 50 
Q 1900 -81 1453 -78 
Q 722 -72 456 397 
Q 184 884 353 1747 
Q 534 2675 1009 3097 
Q 1544 3569 2166 3578 
z
" transform="scale(0.015625)"/>
       <path id="DejaVuSans-3d" d="M 678 2906 
L 4684 2906 
L 4684 2381 
L 678 2381 
L 678 2906 
z
M 678 1631 
L 4684 1631 
L 4684 1100 
L 678 1100 
L 678 1631 
z
" transform="scale(0.015625)"/>
       <path id="DejaVuSans-2212" d="M 678 2272 
L 4684 2272 
L 4684 1741 
L 678 1741 
L 678 2272 
z
" transform="scale(0.015625)"/>
      </defs>
      <use xlink:href="#DejaVuSans-Oblique-3b1" transform="translate(0 0.78125)"/>
      <use xlink:href="#DejaVuSans-3d" transform="translate(85.400391 0.78125)"/>
      <use xlink:href="#DejaVuSans-2212" transform="translate(188.671875 0.78125)"/>
      <use xlink:href="#DejaVuSans-31" transform="translate(272.460938 0.78125)"/>
      <use xlink:href="#DejaVuSans-2e" transform="translate(336.083984 0.78125)"/>
      <use xlink:href="#DejaVuSans-30" transform="translate(367.871094 0.78125)"/>
     </g>
    </g>
    <g id="line2d_23">
     <path d="M 190.920156 38.576563 
L 200.920156 38.576563 
L 210.920156 38.576563 
" style="fill: none; stroke: #785ef0; stroke-width: 1.5; stroke-linecap: square"/>
    </g>
    <g id="text_19">
     <!-- $\alpha=0.0$ -->
     <g transform="translate(218.920156 42.076563) scale(0.1 -0.1)">
      <use xlink:href="#DejaVuSans-Oblique-3b1" transform="translate(0 0.78125)"/>
      <use xlink:href="#DejaVuSans-3d" transform="translate(85.400391 0.78125)"/>
      <use xlink:href="#DejaVuSans-30" transform="translate(188.671875 0.78125)"/>
      <use xlink:href="#DejaVuSans-2e" transform="translate(252.294922 0.78125)"/>
      <use xlink:href="#DejaVuSans-30" transform="translate(284.082031 0.78125)"/>
     </g>
    </g>
    <g id="line2d_24">
     <path d="M 190.920156 53.254688 
L 200.920156 53.254688 
L 210.920156 53.254688 
" style="fill: none; stroke: #dc267f; stroke-width: 1.5; stroke-linecap: square"/>
    </g>
    <g id="text_20">
     <!-- $\alpha=0.5$ -->
     <g transform="translate(218.920156 56.754688) scale(0.1 -0.1)">
      <use xlink:href="#DejaVuSans-Oblique-3b1" transform="translate(0 0.78125)"/>
      <use xlink:href="#DejaVuSans-3d" transform="translate(85.400391 0.78125)"/>
      <use xlink:href="#DejaVuSans-30" transform="translate(188.671875 0.78125)"/>
      <use xlink:href="#DejaVuSans-2e" transform="translate(252.294922 0.78125)"/>
      <use xlink:href="#DejaVuSans-35" transform="translate(284.082031 0.78125)"/>
     </g>
    </g>
    <g id="line2d_25">
     <path d="M 190.920156 67.932813 
L 200.920156 67.932813 
L 210.920156 67.932813 
" style="fill: none; stroke: #fe6100; stroke-width: 1.5; stroke-linecap: square"/>
    </g>
    <g id="text_21">
     <!-- $\alpha=1.0$ -->
     <g transform="translate(218.920156 71.432813) scale(0.1 -0.1)">
      <use xlink:href="#DejaVuSans-Oblique-3b1" transform="translate(0 0.78125)"/>
      <use xlink:href="#DejaVuSans-3d" transform="translate(85.400391 0.78125)"/>
      <use xlink:href="#DejaVuSans-31" transform="translate(188.671875 0.78125)"/>
      <use xlink:href="#DejaVuSans-2e" transform="translate(252.294922 0.78125)"/>
      <use xlink:href="#DejaVuSans-30" transform="translate(284.082031 0.78125)"/>
     </g>
    </g>
    <g id="line2d_26">
     <path d="M 190.920156 82.610938 
L 200.920156 82.610938 
L 210.920156 82.610938 
" style="fill: none; stroke: #ffb000; stroke-width: 1.5; stroke-linecap: square"/>
    </g>
    <g id="text_22">
     <!-- $\alpha=2.0$ -->
     <g transform="translate(218.920156 86.110938) scale(0.1 -0.1)">
      <use xlink:href="#DejaVuSans-Oblique-3b1" transform="translate(0 0.78125)"/>
      <use xlink:href="#DejaVuSans-3d" transform="translate(85.400391 0.78125)"/>
      <use xlink:href="#DejaVuSans-32" transform="translate(188.671875 0.78125)"/>
      <use xlink:href="#DejaVuSans-2e" transform="translate(252.294922 0.78125)"/>
      <use xlink:href="#DejaVuSans-30" transform="translate(284.082031 0.78125)"/>
     </g>
    </g>
    <g id="line2d_27">
     <path d="M 190.920156 97.289063 
L 200.920156 97.289063 
L 210.920156 97.289063 
" style="fill: none; stroke-dasharray: 3.7,1.6; stroke-dashoffset: 0; stroke: #000000"/>
    </g>
    <g id="text_23">
     <!-- Равномерное распр. -->
     <g transform="translate(218.920156 100.789063) scale(0.1 -0.1)">
      <defs>
       <path id="DejaVuSans-420" d="M 1259 4147 
L 1259 2394 
L 2053 2394 
Q 2494 2394 2734 2622 
Q 2975 2850 2975 3272 
Q 2975 3691 2734 3919 
Q 2494 4147 2053 4147 
L 1259 4147 
z
M 628 4666 
L 2053 4666 
Q 2838 4666 3239 4311 
Q 3641 3956 3641 3272 
Q 3641 2581 3239 2228 
Q 2838 1875 2053 1875 
L 1259 1875 
L 1259 0 
L 628 0 
L 628 4666 
z
" transform="scale(0.015625)"/>
       <path id="DejaVuSans-432" d="M 1156 1613 
L 1156 459 
L 1975 459 
Q 2369 459 2575 607 
Q 2781 756 2781 1038 
Q 2781 1319 2575 1466 
Q 2369 1613 1975 1613 
L 1156 1613 
z
M 1156 3041 
L 1156 2072 
L 1913 2072 
Q 2238 2072 2444 2201 
Q 2650 2331 2650 2563 
Q 2650 2794 2444 2917 
Q 2238 3041 1913 3041 
L 1156 3041 
z
M 581 3500 
L 1950 3500 
Q 2566 3500 2897 3275 
Q 3228 3050 3228 2634 
Q 3228 2313 3059 2123 
Q 2891 1934 2559 1888 
Q 2956 1813 3175 1575 
Q 3394 1338 3394 981 
Q 3394 513 3033 256 
Q 2672 0 2003 0 
L 581 0 
L 581 3500 
z
" transform="scale(0.015625)"/>
       <path id="DejaVuSans-43f" d="M 3603 3500 
L 3603 0 
L 3025 0 
L 3025 3041 
L 1159 3041 
L 1159 0 
L 581 0 
L 581 3500 
L 3603 3500 
z
" transform="scale(0.015625)"/>
      </defs>
      <use xlink:href="#DejaVuSans-420"/>
      <use xlink:href="#DejaVuSans-430" transform="translate(60.302734 0)"/>
      <use xlink:href="#DejaVuSans-432" transform="translate(121.582031 0)"/>
      <use xlink:href="#DejaVuSans-43d" transform="translate(180.517578 0)"/>
      <use xlink:href="#DejaVuSans-43e" transform="translate(245.898438 0)"/>
      <use xlink:href="#DejaVuSans-43c" transform="translate(307.080078 0)"/>
      <use xlink:href="#DejaVuSans-435" transform="translate(382.519531 0)"/>
      <use xlink:href="#DejaVuSans-440" transform="translate(444.042969 0)"/>
      <use xlink:href="#DejaVuSans-43d" transform="translate(507.519531 0)"/>
      <use xlink:href="#DejaVuSans-43e" transform="translate(572.900391 0)"/>
      <use xlink:href="#DejaVuSans-435" transform="translate(634.082031 0)"/>
      <use xlink:href="#DejaVuSans-20" transform="translate(695.605469 0)"/>
      <use xlink:href="#DejaVuSans-440" transform="translate(727.392578 0)"/>
      <use xlink:href="#DejaVuSans-430" transform="translate(790.869141 0)"/>
      <use xlink:href="#DejaVuSans-441" transform="translate(852.148438 0)"/>
      <use xlink:href="#DejaVuSans-43f" transform="translate(907.128906 0)"/>
      <use xlink:href="#DejaVuSans-440" transform="translate(972.509766 0)"/>
      <use xlink:href="#DejaVuSans-2e" transform="translate(1035.986328 0)"/>
     </g>
    </g>
   </g>
  </g>
  <g id="axes_2">
   <g id="patch_8">
    <path d="M 516.62 214.712691 
L 925.2 214.712691 
L 925.2 10.8 
L 516.62 10.8 
z
" style="fill: #ffffff"/>
   </g>
   <g id="matplotlib.axis_3">
    <g id="xtick_10">
     <g id="line2d_28">
      <g>
       <use xlink:href="#m5dbfceff77" x="535.191818" y="214.712691" style="stroke: #000000; stroke-width: 0.8"/>
      </g>
     </g>
     <g id="text_24">
      <!-- 0 -->
      <g transform="translate(532.010568 229.311128) scale(0.1 -0.1)">
       <use xlink:href="#DejaVuSans-30"/>
      </g>
     </g>
    </g>
    <g id="xtick_11">
     <g id="line2d_29">
      <g>
       <use xlink:href="#m5dbfceff77" x="581.621364" y="214.712691" style="stroke: #000000; stroke-width: 0.8"/>
      </g>
     </g>
     <g id="text_25">
      <!-- 2 -->
      <g transform="translate(578.440114 229.311128) scale(0.1 -0.1)">
       <use xlink:href="#DejaVuSans-32"/>
      </g>
     </g>
    </g>
    <g id="xtick_12">
     <g id="line2d_30">
      <g>
       <use xlink:href="#m5dbfceff77" x="628.050909" y="214.712691" style="stroke: #000000; stroke-width: 0.8"/>
      </g>
     </g>
     <g id="text_26">
      <!-- 4 -->
      <g transform="translate(624.869659 229.311128) scale(0.1 -0.1)">
       <use xlink:href="#DejaVuSans-34"/>
      </g>
     </g>
    </g>
    <g id="xtick_13">
     <g id="line2d_31">
      <g>
       <use xlink:href="#m5dbfceff77" x="674.480455" y="214.712691" style="stroke: #000000; stroke-width: 0.8"/>
      </g>
     </g>
     <g id="text_27">
      <!-- 6 -->
      <g transform="translate(671.299205 229.311128) scale(0.1 -0.1)">
       <use xlink:href="#DejaVuSans-36"/>
      </g>
     </g>
    </g>
    <g id="xtick_14">
     <g id="line2d_32">
      <g>
       <use xlink:href="#m5dbfceff77" x="720.91" y="214.712691" style="stroke: #000000; stroke-width: 0.8"/>
      </g>
     </g>
     <g id="text_28">
      <!-- 8 -->
      <g transform="translate(717.72875 229.311128) scale(0.1 -0.1)">
       <use xlink:href="#DejaVuSans-38"/>
      </g>
     </g>
    </g>
    <g id="xtick_15">
     <g id="line2d_33">
      <g>
       <use xlink:href="#m5dbfceff77" x="767.339545" y="214.712691" style="stroke: #000000; stroke-width: 0.8"/>
      </g>
     </g>
     <g id="text_29">
      <!-- 10 -->
      <g transform="translate(760.977045 229.311128) scale(0.1 -0.1)">
       <use xlink:href="#DejaVuSans-31"/>
       <use xlink:href="#DejaVuSans-30" transform="translate(63.623047 0)"/>
      </g>
     </g>
    </g>
    <g id="xtick_16">
     <g id="line2d_34">
      <g>
       <use xlink:href="#m5dbfceff77" x="813.769091" y="214.712691" style="stroke: #000000; stroke-width: 0.8"/>
      </g>
     </g>
     <g id="text_30">
      <!-- 12 -->
      <g transform="translate(807.406591 229.311128) scale(0.1 -0.1)">
       <use xlink:href="#DejaVuSans-31"/>
       <use xlink:href="#DejaVuSans-32" transform="translate(63.623047 0)"/>
      </g>
     </g>
    </g>
    <g id="xtick_17">
     <g id="line2d_35">
      <g>
       <use xlink:href="#m5dbfceff77" x="860.198636" y="214.712691" style="stroke: #000000; stroke-width: 0.8"/>
      </g>
     </g>
     <g id="text_31">
      <!-- 14 -->
      <g transform="translate(853.836136 229.311128) scale(0.1 -0.1)">
       <use xlink:href="#DejaVuSans-31"/>
       <use xlink:href="#DejaVuSans-34" transform="translate(63.623047 0)"/>
      </g>
     </g>
    </g>
    <g id="xtick_18">
     <g id="line2d_36">
      <g>
       <use xlink:href="#m5dbfceff77" x="906.628182" y="214.712691" style="stroke: #000000; stroke-width: 0.8"/>
      </g>
     </g>
     <g id="text_32">
      <!-- 16 -->
      <g transform="translate(900.265682 229.311128) scale(0.1 -0.1)">
       <use xlink:href="#DejaVuSans-31"/>
       <use xlink:href="#DejaVuSans-36" transform="translate(63.623047 0)"/>
      </g>
     </g>
    </g>
    <g id="text_33">
     <!-- Номер слоя -->
     <g transform="translate(690.46625 242.989253) scale(0.1 -0.1)">
      <use xlink:href="#DejaVuSans-41d"/>
      <use xlink:href="#DejaVuSans-43e" transform="translate(75.195312 0)"/>
      <use xlink:href="#DejaVuSans-43c" transform="translate(136.376953 0)"/>
      <use xlink:href="#DejaVuSans-435" transform="translate(211.816406 0)"/>
      <use xlink:href="#DejaVuSans-440" transform="translate(273.339844 0)"/>
      <use xlink:href="#DejaVuSans-20" transform="translate(336.816406 0)"/>
      <use xlink:href="#DejaVuSans-441" transform="translate(368.603516 0)"/>
      <use xlink:href="#DejaVuSans-43b" transform="translate(423.583984 0)"/>
      <use xlink:href="#DejaVuSans-43e" transform="translate(487.5 0)"/>
      <use xlink:href="#DejaVuSans-44f" transform="translate(548.681641 0)"/>
     </g>
    </g>
   </g>
   <g id="matplotlib.axis_4">
    <g id="ytick_7">
     <g id="line2d_37">
      <g>
       <use xlink:href="#mfa5aa3db43" x="516.62" y="205.443932" style="stroke: #000000; stroke-width: 0.8"/>
      </g>
     </g>
     <g id="text_34">
      <!-- 0.00 -->
      <g transform="translate(487.354375 209.243151) scale(0.1 -0.1)">
       <use xlink:href="#DejaVuSans-30"/>
       <use xlink:href="#DejaVuSans-2e" transform="translate(63.623047 0)"/>
       <use xlink:href="#DejaVuSans-30" transform="translate(95.410156 0)"/>
       <use xlink:href="#DejaVuSans-30" transform="translate(159.033203 0)"/>
      </g>
     </g>
    </g>
    <g id="ytick_8">
     <g id="line2d_38">
      <g>
       <use xlink:href="#mfa5aa3db43" x="516.62" y="177.080015" style="stroke: #000000; stroke-width: 0.8"/>
      </g>
     </g>
     <g id="text_35">
      <!-- 0.05 -->
      <g transform="translate(487.354375 180.879233) scale(0.1 -0.1)">
       <use xlink:href="#DejaVuSans-30"/>
       <use xlink:href="#DejaVuSans-2e" transform="translate(63.623047 0)"/>
       <use xlink:href="#DejaVuSans-30" transform="translate(95.410156 0)"/>
       <use xlink:href="#DejaVuSans-35" transform="translate(159.033203 0)"/>
      </g>
     </g>
    </g>
    <g id="ytick_9">
     <g id="line2d_39">
      <g>
       <use xlink:href="#mfa5aa3db43" x="516.62" y="148.716097" style="stroke: #000000; stroke-width: 0.8"/>
      </g>
     </g>
     <g id="text_36">
      <!-- 0.10 -->
      <g transform="translate(487.354375 152.515316) scale(0.1 -0.1)">
       <use xlink:href="#DejaVuSans-30"/>
       <use xlink:href="#DejaVuSans-2e" transform="translate(63.623047 0)"/>
       <use xlink:href="#DejaVuSans-31" transform="translate(95.410156 0)"/>
       <use xlink:href="#DejaVuSans-30" transform="translate(159.033203 0)"/>
      </g>
     </g>
    </g>
    <g id="ytick_10">
     <g id="line2d_40">
      <g>
       <use xlink:href="#mfa5aa3db43" x="516.62" y="120.35218" style="stroke: #000000; stroke-width: 0.8"/>
      </g>
     </g>
     <g id="text_37">
      <!-- 0.15 -->
      <g transform="translate(487.354375 124.151399) scale(0.1 -0.1)">
       <use xlink:href="#DejaVuSans-30"/>
       <use xlink:href="#DejaVuSans-2e" transform="translate(63.623047 0)"/>
       <use xlink:href="#DejaVuSans-31" transform="translate(95.410156 0)"/>
       <use xlink:href="#DejaVuSans-35" transform="translate(159.033203 0)"/>
      </g>
     </g>
    </g>
    <g id="ytick_11">
     <g id="line2d_41">
      <g>
       <use xlink:href="#mfa5aa3db43" x="516.62" y="91.988262" style="stroke: #000000; stroke-width: 0.8"/>
      </g>
     </g>
     <g id="text_38">
      <!-- 0.20 -->
      <g transform="translate(487.354375 95.787481) scale(0.1 -0.1)">
       <use xlink:href="#DejaVuSans-30"/>
       <use xlink:href="#DejaVuSans-2e" transform="translate(63.623047 0)"/>
       <use xlink:href="#DejaVuSans-32" transform="translate(95.410156 0)"/>
       <use xlink:href="#DejaVuSans-30" transform="translate(159.033203 0)"/>
      </g>
     </g>
    </g>
    <g id="ytick_12">
     <g id="line2d_42">
      <g>
       <use xlink:href="#mfa5aa3db43" x="516.62" y="63.624345" style="stroke: #000000; stroke-width: 0.8"/>
      </g>
     </g>
     <g id="text_39">
      <!-- 0.25 -->
      <g transform="translate(487.354375 67.423564) scale(0.1 -0.1)">
       <use xlink:href="#DejaVuSans-30"/>
       <use xlink:href="#DejaVuSans-2e" transform="translate(63.623047 0)"/>
       <use xlink:href="#DejaVuSans-32" transform="translate(95.410156 0)"/>
       <use xlink:href="#DejaVuSans-35" transform="translate(159.033203 0)"/>
      </g>
     </g>
    </g>
    <g id="ytick_13">
     <g id="line2d_43">
      <g>
       <use xlink:href="#mfa5aa3db43" x="516.62" y="35.260427" style="stroke: #000000; stroke-width: 0.8"/>
      </g>
     </g>
     <g id="text_40">
      <!-- 0.30 -->
      <g transform="translate(487.354375 39.059646) scale(0.1 -0.1)">
       <use xlink:href="#DejaVuSans-30"/>
       <use xlink:href="#DejaVuSans-2e" transform="translate(63.623047 0)"/>
       <use xlink:href="#DejaVuSans-33" transform="translate(95.410156 0)"/>
       <use xlink:href="#DejaVuSans-30" transform="translate(159.033203 0)"/>
      </g>
     </g>
    </g>
    <g id="text_41">
     <!-- Относительная частота рождений -->
     <g transform="translate(481.274687 204.336814) rotate(-90) scale(0.1 -0.1)">
      <use xlink:href="#DejaVuSans-41e"/>
      <use xlink:href="#DejaVuSans-442" transform="translate(78.710938 0)"/>
      <use xlink:href="#DejaVuSans-43d" transform="translate(136.962891 0)"/>
      <use xlink:href="#DejaVuSans-43e" transform="translate(202.34375 0)"/>
      <use xlink:href="#DejaVuSans-441" transform="translate(263.525391 0)"/>
      <use xlink:href="#DejaVuSans-438" transform="translate(318.505859 0)"/>
      <use xlink:href="#DejaVuSans-442" transform="translate(383.496094 0)"/>
      <use xlink:href="#DejaVuSans-435" transform="translate(441.748047 0)"/>
      <use xlink:href="#DejaVuSans-43b" transform="translate(503.271484 0)"/>
      <use xlink:href="#DejaVuSans-44c" transform="translate(567.1875 0)"/>
      <use xlink:href="#DejaVuSans-43d" transform="translate(626.123047 0)"/>
      <use xlink:href="#DejaVuSans-430" transform="translate(691.503906 0)"/>
      <use xlink:href="#DejaVuSans-44f" transform="translate(752.783203 0)"/>
      <use xlink:href="#DejaVuSans-20" transform="translate(812.939453 0)"/>
      <use xlink:href="#DejaVuSans-447" transform="translate(844.726562 0)"/>
      <use xlink:href="#DejaVuSans-430" transform="translate(903.808594 0)"/>
      <use xlink:href="#DejaVuSans-441" transform="translate(965.087891 0)"/>
      <use xlink:href="#DejaVuSans-442" transform="translate(1020.068359 0)"/>
      <use xlink:href="#DejaVuSans-43e" transform="translate(1078.320312 0)"/>
      <use xlink:href="#DejaVuSans-442" transform="translate(1139.501953 0)"/>
      <use xlink:href="#DejaVuSans-430" transform="translate(1197.753906 0)"/>
      <use xlink:href="#DejaVuSans-20" transform="translate(1259.033203 0)"/>
      <use xlink:href="#DejaVuSans-440" transform="translate(1290.820312 0)"/>
      <use xlink:href="#DejaVuSans-43e" transform="translate(1354.296875 0)"/>
      <use xlink:href="#DejaVuSans-436" transform="translate(1415.478516 0)"/>
      <use xlink:href="#DejaVuSans-434" transform="translate(1505.566406 0)"/>
      <use xlink:href="#DejaVuSans-435" transform="translate(1574.707031 0)"/>
      <use xlink:href="#DejaVuSans-43d" transform="translate(1636.230469 0)"/>
      <use xlink:href="#DejaVuSans-438" transform="translate(1701.611328 0)"/>
      <use xlink:href="#DejaVuSans-439" transform="translate(1766.601562 0)"/>
     </g>
    </g>
   </g>
   <g id="line2d_44">
    <path d="M 535.191818 205.443932 
L 558.406591 153.331699 
L 581.621364 173.582022 
L 604.836136 182.003666 
L 628.050909 174.65508 
L 651.265682 175.273764 
L 674.480455 180.433252 
L 697.695227 179.411511 
L 720.91 155.33889 
L 744.124773 177.572752 
L 767.339545 183.222915 
L 790.554318 180.593554 
L 813.769091 173.65079 
L 836.983864 176.508219 
L 860.198636 152.300398 
L 883.413409 166.572518 
L 906.628182 135.373535 
" clip-path="url(#p20967055bf)" style="fill: none; stroke: #648fff; stroke-width: 1.5; stroke-linecap: square"/>
   </g>
   <g id="line2d_45">
    <path d="M 535.191818 205.443932 
L 558.406591 170.908574 
L 581.621364 175.457134 
L 604.836136 180.679554 
L 628.050909 169.869706 
L 651.265682 173.828637 
L 674.480455 177.31025 
L 697.695227 175.822142 
L 720.91 137.749015 
L 744.124773 181.184949 
L 767.339545 179.416065 
L 790.554318 175.176358 
L 813.769091 172.003598 
L 836.983864 174.109412 
L 860.198636 144.403389 
L 883.413409 173.716327 
L 906.628182 158.189455 
" clip-path="url(#p20967055bf)" style="fill: none; stroke: #785ef0; stroke-width: 1.5; stroke-linecap: square"/>
   </g>
   <g id="line2d_46">
    <path d="M 535.191818 205.443932 
L 558.406591 182.467409 
L 581.621364 180.279806 
L 604.836136 182.027511 
L 628.050909 168.395305 
L 651.265682 173.132725 
L 674.480455 174.774948 
L 697.695227 172.292593 
L 720.91 118.872209 
L 744.124773 183.803414 
L 767.339545 178.083313 
L 790.554318 172.263659 
L 813.769091 171.920675 
L 836.983864 173.533557 
L 860.198636 141.067332 
L 883.413409 178.568051 
L 906.628182 168.342059 
" clip-path="url(#p20967055bf)" style="fill: none; stroke: #dc267f; stroke-width: 1.5; stroke-linecap: square"/>
   </g>
   <g id="line2d_47">
    <path d="M 535.191818 205.443932 
L 558.406591 192.198171 
L 581.621364 186.754985 
L 604.836136 185.266989 
L 628.050909 169.314235 
L 651.265682 173.350583 
L 674.480455 172.267893 
L 697.695227 167.94142 
L 720.91 91.808138 
L 744.124773 187.076448 
L 767.339545 178.423034 
L 790.554318 170.953636 
L 813.769091 173.22335 
L 836.983864 173.848613 
L 860.198636 138.687352 
L 883.413409 182.344618 
L 906.628182 176.365101 
" clip-path="url(#p20967055bf)" style="fill: none; stroke: #fe6100; stroke-width: 1.5; stroke-linecap: square"/>
   </g>
   <g id="line2d_48">
    <path d="M 535.191818 205.443932 
L 558.406591 202.542114 
L 581.621364 198.236452 
L 604.836136 194.323329 
L 628.050909 178.758174 
L 651.265682 177.622293 
L 674.480455 169.517247 
L 697.695227 158.551397 
L 720.91 20.068759 
L 744.124773 192.265525 
L 767.339545 183.264233 
L 790.554318 175.195532 
L 813.769091 179.748449 
L 836.983864 177.494804 
L 860.198636 140.272356 
L 883.413409 186.350911 
L 906.628182 185.61299 
" clip-path="url(#p20967055bf)" style="fill: none; stroke: #ffb000; stroke-width: 1.5; stroke-linecap: square"/>
   </g>
   <g id="line2d_49">
    <path d="M 516.62 172.074618 
L 925.2 172.074618 
" clip-path="url(#p20967055bf)" style="fill: none; stroke-dasharray: 3.7,1.6; stroke-dashoffset: 0; stroke: #000000"/>
   </g>
   <g id="patch_9">
    <path d="M 516.62 214.712691 
L 516.62 10.8 
" style="fill: none; stroke: #000000; stroke-width: 0.8; stroke-linejoin: miter; stroke-linecap: square"/>
   </g>
   <g id="patch_10">
    <path d="M 925.2 214.712691 
L 925.2 10.8 
" style="fill: none; stroke: #000000; stroke-width: 0.8; stroke-linejoin: miter; stroke-linecap: square"/>
   </g>
   <g id="patch_11">
    <path d="M 516.62 214.712691 
L 925.2 214.712691 
" style="fill: none; stroke: #000000; stroke-width: 0.8; stroke-linejoin: miter; stroke-linecap: square"/>
   </g>
   <g id="patch_12">
    <path d="M 516.62 10.8 
L 925.2 10.8 
" style="fill: none; stroke: #000000; stroke-width: 0.8; stroke-linejoin: miter; stroke-linecap: square"/>
   </g>
   <g id="legend_2">
    <g id="patch_13">
     <path d="M 779.420312 106.86875 
L 918.2 106.86875 
Q 920.2 106.86875 920.2 104.86875 
L 920.2 17.8 
Q 920.2 15.8 918.2 15.8 
L 779.420312 15.8 
Q 777.420312 15.8 777.420312 17.8 
L 777.420312 104.86875 
Q 777.420312 106.86875 779.420312 106.86875 
z
" style="fill: #ffffff; opacity: 0.8; stroke: #cccccc; stroke-linejoin: miter"/>
    </g>
    <g id="line2d_50">
     <path d="M 781.420312 23.898438 
L 791.420312 23.898438 
L 801.420312 23.898438 
" style="fill: none; stroke: #648fff; stroke-width: 1.5; stroke-linecap: square"/>
    </g>
    <g id="text_42">
     <!-- $\alpha=-1.0$ -->
     <g transform="translate(809.420312 27.398438) scale(0.1 -0.1)">
      <use xlink:href="#DejaVuSans-Oblique-3b1" transform="translate(0 0.78125)"/>
      <use xlink:href="#DejaVuSans-3d" transform="translate(85.400391 0.78125)"/>
      <use xlink:href="#DejaVuSans-2212" transform="translate(188.671875 0.78125)"/>
      <use xlink:href="#DejaVuSans-31" transform="translate(272.460938 0.78125)"/>
      <use xlink:href="#DejaVuSans-2e" transform="translate(336.083984 0.78125)"/>
      <use xlink:href="#DejaVuSans-30" transform="translate(367.871094 0.78125)"/>
     </g>
    </g>
    <g id="line2d_51">
     <path d="M 781.420312 38.576563 
L 791.420312 38.576563 
L 801.420312 38.576563 
" style="fill: none; stroke: #785ef0; stroke-width: 1.5; stroke-linecap: square"/>
    </g>
    <g id="text_43">
     <!-- $\alpha=0.0$ -->
     <g transform="translate(809.420312 42.076563) scale(0.1 -0.1)">
      <use xlink:href="#DejaVuSans-Oblique-3b1" transform="translate(0 0.78125)"/>
      <use xlink:href="#DejaVuSans-3d" transform="translate(85.400391 0.78125)"/>
      <use xlink:href="#DejaVuSans-30" transform="translate(188.671875 0.78125)"/>
      <use xlink:href="#DejaVuSans-2e" transform="translate(252.294922 0.78125)"/>
      <use xlink:href="#DejaVuSans-30" transform="translate(284.082031 0.78125)"/>
     </g>
    </g>
    <g id="line2d_52">
     <path d="M 781.420312 53.254688 
L 791.420312 53.254688 
L 801.420312 53.254688 
" style="fill: none; stroke: #dc267f; stroke-width: 1.5; stroke-linecap: square"/>
    </g>
    <g id="text_44">
     <!-- $\alpha=0.5$ -->
     <g transform="translate(809.420312 56.754688) scale(0.1 -0.1)">
      <use xlink:href="#DejaVuSans-Oblique-3b1" transform="translate(0 0.78125)"/>
      <use xlink:href="#DejaVuSans-3d" transform="translate(85.400391 0.78125)"/>
      <use xlink:href="#DejaVuSans-30" transform="translate(188.671875 0.78125)"/>
      <use xlink:href="#DejaVuSans-2e" transform="translate(252.294922 0.78125)"/>
      <use xlink:href="#DejaVuSans-35" transform="translate(284.082031 0.78125)"/>
     </g>
    </g>
    <g id="line2d_53">
     <path d="M 781.420312 67.932813 
L 791.420312 67.932813 
L 801.420312 67.932813 
" style="fill: none; stroke: #fe6100; stroke-width: 1.5; stroke-linecap: square"/>
    </g>
    <g id="text_45">
     <!-- $\alpha=1.0$ -->
     <g transform="translate(809.420312 71.432813) scale(0.1 -0.1)">
      <use xlink:href="#DejaVuSans-Oblique-3b1" transform="translate(0 0.78125)"/>
      <use xlink:href="#DejaVuSans-3d" transform="translate(85.400391 0.78125)"/>
      <use xlink:href="#DejaVuSans-31" transform="translate(188.671875 0.78125)"/>
      <use xlink:href="#DejaVuSans-2e" transform="translate(252.294922 0.78125)"/>
      <use xlink:href="#DejaVuSans-30" transform="translate(284.082031 0.78125)"/>
     </g>
    </g>
    <g id="line2d_54">
     <path d="M 781.420312 82.610938 
L 791.420312 82.610938 
L 801.420312 82.610938 
" style="fill: none; stroke: #ffb000; stroke-width: 1.5; stroke-linecap: square"/>
    </g>
    <g id="text_46">
     <!-- $\alpha=2.0$ -->
     <g transform="translate(809.420312 86.110938) scale(0.1 -0.1)">
      <use xlink:href="#DejaVuSans-Oblique-3b1" transform="translate(0 0.78125)"/>
      <use xlink:href="#DejaVuSans-3d" transform="translate(85.400391 0.78125)"/>
      <use xlink:href="#DejaVuSans-32" transform="translate(188.671875 0.78125)"/>
      <use xlink:href="#DejaVuSans-2e" transform="translate(252.294922 0.78125)"/>
      <use xlink:href="#DejaVuSans-30" transform="translate(284.082031 0.78125)"/>
     </g>
    </g>
    <g id="line2d_55">
     <path d="M 781.420312 97.289063 
L 791.420312 97.289063 
L 801.420312 97.289063 
" style="fill: none; stroke-dasharray: 3.7,1.6; stroke-dashoffset: 0; stroke: #000000"/>
    </g>
    <g id="text_47">
     <!-- Равномерное распр. -->
     <g transform="translate(809.420312 100.789063) scale(0.1 -0.1)">
      <use xlink:href="#DejaVuSans-420"/>
      <use xlink:href="#DejaVuSans-430" transform="translate(60.302734 0)"/>
      <use xlink:href="#DejaVuSans-432" transform="translate(121.582031 0)"/>
      <use xlink:href="#DejaVuSans-43d" transform="translate(180.517578 0)"/>
      <use xlink:href="#DejaVuSans-43e" transform="translate(245.898438 0)"/>
      <use xlink:href="#DejaVuSans-43c" transform="translate(307.080078 0)"/>
      <use xlink:href="#DejaVuSans-435" transform="translate(382.519531 0)"/>
      <use xlink:href="#DejaVuSans-440" transform="translate(444.042969 0)"/>
      <use xlink:href="#DejaVuSans-43d" transform="translate(507.519531 0)"/>
      <use xlink:href="#DejaVuSans-43e" transform="translate(572.900391 0)"/>
      <use xlink:href="#DejaVuSans-435" transform="translate(634.082031 0)"/>
      <use xlink:href="#DejaVuSans-20" transform="translate(695.605469 0)"/>
      <use xlink:href="#DejaVuSans-440" transform="translate(727.392578 0)"/>
      <use xlink:href="#DejaVuSans-430" transform="translate(790.869141 0)"/>
      <use xlink:href="#DejaVuSans-441" transform="translate(852.148438 0)"/>
      <use xlink:href="#DejaVuSans-43f" transform="translate(907.128906 0)"/>
      <use xlink:href="#DejaVuSans-440" transform="translate(972.509766 0)"/>
      <use xlink:href="#DejaVuSans-2e" transform="translate(1035.986328 0)"/>
     </g>
    </g>
   </g>
  </g>
  <g id="axes_3">
   <g id="patch_14">
    <path d="M 54.02 462.04 
L 462.6 462.04 
L 462.6 258.127309 
L 54.02 258.127309 
z
" style="fill: #ffffff"/>
   </g>
   <g id="matplotlib.axis_5">
    <g id="xtick_19">
     <g id="line2d_56">
      <g>
       <use xlink:href="#m5dbfceff77" x="72.591818" y="462.04" style="stroke: #000000; stroke-width: 0.8"/>
      </g>
     </g>
     <g id="text_48">
      <!-- 0 -->
      <g transform="translate(69.410568 476.638438) scale(0.1 -0.1)">
       <use xlink:href="#DejaVuSans-30"/>
      </g>
     </g>
    </g>
    <g id="xtick_20">
     <g id="line2d_57">
      <g>
       <use xlink:href="#m5dbfceff77" x="119.021364" y="462.04" style="stroke: #000000; stroke-width: 0.8"/>
      </g>
     </g>
     <g id="text_49">
      <!-- 2 -->
      <g transform="translate(115.840114 476.638438) scale(0.1 -0.1)">
       <use xlink:href="#DejaVuSans-32"/>
      </g>
     </g>
    </g>
    <g id="xtick_21">
     <g id="line2d_58">
      <g>
       <use xlink:href="#m5dbfceff77" x="165.450909" y="462.04" style="stroke: #000000; stroke-width: 0.8"/>
      </g>
     </g>
     <g id="text_50">
      <!-- 4 -->
      <g transform="translate(162.269659 476.638438) scale(0.1 -0.1)">
       <use xlink:href="#DejaVuSans-34"/>
      </g>
     </g>
    </g>
    <g id="xtick_22">
     <g id="line2d_59">
      <g>
       <use xlink:href="#m5dbfceff77" x="211.880455" y="462.04" style="stroke: #000000; stroke-width: 0.8"/>
      </g>
     </g>
     <g id="text_51">
      <!-- 6 -->
      <g transform="translate(208.699205 476.638438) scale(0.1 -0.1)">
       <use xlink:href="#DejaVuSans-36"/>
      </g>
     </g>
    </g>
    <g id="xtick_23">
     <g id="line2d_60">
      <g>
       <use xlink:href="#m5dbfceff77" x="258.31" y="462.04" style="stroke: #000000; stroke-width: 0.8"/>
      </g>
     </g>
     <g id="text_52">
      <!-- 8 -->
      <g transform="translate(255.12875 476.638438) scale(0.1 -0.1)">
       <use xlink:href="#DejaVuSans-38"/>
      </g>
     </g>
    </g>
    <g id="xtick_24">
     <g id="line2d_61">
      <g>
       <use xlink:href="#m5dbfceff77" x="304.739545" y="462.04" style="stroke: #000000; stroke-width: 0.8"/>
      </g>
     </g>
     <g id="text_53">
      <!-- 10 -->
      <g transform="translate(298.377045 476.638438) scale(0.1 -0.1)">
       <use xlink:href="#DejaVuSans-31"/>
       <use xlink:href="#DejaVuSans-30" transform="translate(63.623047 0)"/>
      </g>
     </g>
    </g>
    <g id="xtick_25">
     <g id="line2d_62">
      <g>
       <use xlink:href="#m5dbfceff77" x="351.169091" y="462.04" style="stroke: #000000; stroke-width: 0.8"/>
      </g>
     </g>
     <g id="text_54">
      <!-- 12 -->
      <g transform="translate(344.806591 476.638438) scale(0.1 -0.1)">
       <use xlink:href="#DejaVuSans-31"/>
       <use xlink:href="#DejaVuSans-32" transform="translate(63.623047 0)"/>
      </g>
     </g>
    </g>
    <g id="xtick_26">
     <g id="line2d_63">
      <g>
       <use xlink:href="#m5dbfceff77" x="397.598636" y="462.04" style="stroke: #000000; stroke-width: 0.8"/>
      </g>
     </g>
     <g id="text_55">
      <!-- 14 -->
      <g transform="translate(391.236136 476.638438) scale(0.1 -0.1)">
       <use xlink:href="#DejaVuSans-31"/>
       <use xlink:href="#DejaVuSans-34" transform="translate(63.623047 0)"/>
      </g>
     </g>
    </g>
    <g id="xtick_27">
     <g id="line2d_64">
      <g>
       <use xlink:href="#m5dbfceff77" x="444.028182" y="462.04" style="stroke: #000000; stroke-width: 0.8"/>
      </g>
     </g>
     <g id="text_56">
      <!-- 16 -->
      <g transform="translate(437.665682 476.638438) scale(0.1 -0.1)">
       <use xlink:href="#DejaVuSans-31"/>
       <use xlink:href="#DejaVuSans-36" transform="translate(63.623047 0)"/>
      </g>
     </g>
    </g>
    <g id="text_57">
     <!-- Номер слоя -->
     <g transform="translate(227.86625 490.316563) scale(0.1 -0.1)">
      <use xlink:href="#DejaVuSans-41d"/>
      <use xlink:href="#DejaVuSans-43e" transform="translate(75.195312 0)"/>
      <use xlink:href="#DejaVuSans-43c" transform="translate(136.376953 0)"/>
      <use xlink:href="#DejaVuSans-435" transform="translate(211.816406 0)"/>
      <use xlink:href="#DejaVuSans-440" transform="translate(273.339844 0)"/>
      <use xlink:href="#DejaVuSans-20" transform="translate(336.816406 0)"/>
      <use xlink:href="#DejaVuSans-441" transform="translate(368.603516 0)"/>
      <use xlink:href="#DejaVuSans-43b" transform="translate(423.583984 0)"/>
      <use xlink:href="#DejaVuSans-43e" transform="translate(487.5 0)"/>
      <use xlink:href="#DejaVuSans-44f" transform="translate(548.681641 0)"/>
     </g>
    </g>
   </g>
   <g id="matplotlib.axis_6">
    <g id="ytick_14">
     <g id="line2d_65">
      <g>
       <use xlink:href="#mfa5aa3db43" x="54.02" y="452.771241" style="stroke: #000000; stroke-width: 0.8"/>
      </g>
     </g>
     <g id="text_58">
      <!-- 0.00 -->
      <g transform="translate(24.754375 456.57046) scale(0.1 -0.1)">
       <use xlink:href="#DejaVuSans-30"/>
       <use xlink:href="#DejaVuSans-2e" transform="translate(63.623047 0)"/>
       <use xlink:href="#DejaVuSans-30" transform="translate(95.410156 0)"/>
       <use xlink:href="#DejaVuSans-30" transform="translate(159.033203 0)"/>
      </g>
     </g>
    </g>
    <g id="ytick_15">
     <g id="line2d_66">
      <g>
       <use xlink:href="#mfa5aa3db43" x="54.02" y="424.36473" style="stroke: #000000; stroke-width: 0.8"/>
      </g>
     </g>
     <g id="text_59">
      <!-- 0.05 -->
      <g transform="translate(24.754375 428.163949) scale(0.1 -0.1)">
       <use xlink:href="#DejaVuSans-30"/>
       <use xlink:href="#DejaVuSans-2e" transform="translate(63.623047 0)"/>
       <use xlink:href="#DejaVuSans-30" transform="translate(95.410156 0)"/>
       <use xlink:href="#DejaVuSans-35" transform="translate(159.033203 0)"/>
      </g>
     </g>
    </g>
    <g id="ytick_16">
     <g id="line2d_67">
      <g>
       <use xlink:href="#mfa5aa3db43" x="54.02" y="395.958219" style="stroke: #000000; stroke-width: 0.8"/>
      </g>
     </g>
     <g id="text_60">
      <!-- 0.10 -->
      <g transform="translate(24.754375 399.757437) scale(0.1 -0.1)">
       <use xlink:href="#DejaVuSans-30"/>
       <use xlink:href="#DejaVuSans-2e" transform="translate(63.623047 0)"/>
       <use xlink:href="#DejaVuSans-31" transform="translate(95.410156 0)"/>
       <use xlink:href="#DejaVuSans-30" transform="translate(159.033203 0)"/>
      </g>
     </g>
    </g>
    <g id="ytick_17">
     <g id="line2d_68">
      <g>
       <use xlink:href="#mfa5aa3db43" x="54.02" y="367.551707" style="stroke: #000000; stroke-width: 0.8"/>
      </g>
     </g>
     <g id="text_61">
      <!-- 0.15 -->
      <g transform="translate(24.754375 371.350926) scale(0.1 -0.1)">
       <use xlink:href="#DejaVuSans-30"/>
       <use xlink:href="#DejaVuSans-2e" transform="translate(63.623047 0)"/>
       <use xlink:href="#DejaVuSans-31" transform="translate(95.410156 0)"/>
       <use xlink:href="#DejaVuSans-35" transform="translate(159.033203 0)"/>
      </g>
     </g>
    </g>
    <g id="ytick_18">
     <g id="line2d_69">
      <g>
       <use xlink:href="#mfa5aa3db43" x="54.02" y="339.145196" style="stroke: #000000; stroke-width: 0.8"/>
      </g>
     </g>
     <g id="text_62">
      <!-- 0.20 -->
      <g transform="translate(24.754375 342.944415) scale(0.1 -0.1)">
       <use xlink:href="#DejaVuSans-30"/>
       <use xlink:href="#DejaVuSans-2e" transform="translate(63.623047 0)"/>
       <use xlink:href="#DejaVuSans-32" transform="translate(95.410156 0)"/>
       <use xlink:href="#DejaVuSans-30" transform="translate(159.033203 0)"/>
      </g>
     </g>
    </g>
    <g id="ytick_19">
     <g id="line2d_70">
      <g>
       <use xlink:href="#mfa5aa3db43" x="54.02" y="310.738685" style="stroke: #000000; stroke-width: 0.8"/>
      </g>
     </g>
     <g id="text_63">
      <!-- 0.25 -->
      <g transform="translate(24.754375 314.537903) scale(0.1 -0.1)">
       <use xlink:href="#DejaVuSans-30"/>
       <use xlink:href="#DejaVuSans-2e" transform="translate(63.623047 0)"/>
       <use xlink:href="#DejaVuSans-32" transform="translate(95.410156 0)"/>
       <use xlink:href="#DejaVuSans-35" transform="translate(159.033203 0)"/>
      </g>
     </g>
    </g>
    <g id="ytick_20">
     <g id="line2d_71">
      <g>
       <use xlink:href="#mfa5aa3db43" x="54.02" y="282.332173" style="stroke: #000000; stroke-width: 0.8"/>
      </g>
     </g>
     <g id="text_64">
      <!-- 0.30 -->
      <g transform="translate(24.754375 286.131392) scale(0.1 -0.1)">
       <use xlink:href="#DejaVuSans-30"/>
       <use xlink:href="#DejaVuSans-2e" transform="translate(63.623047 0)"/>
       <use xlink:href="#DejaVuSans-33" transform="translate(95.410156 0)"/>
       <use xlink:href="#DejaVuSans-30" transform="translate(159.033203 0)"/>
      </g>
     </g>
    </g>
    <g id="text_65">
     <!-- Относительная частота рождений -->
     <g transform="translate(18.674688 451.664123) rotate(-90) scale(0.1 -0.1)">
      <use xlink:href="#DejaVuSans-41e"/>
      <use xlink:href="#DejaVuSans-442" transform="translate(78.710938 0)"/>
      <use xlink:href="#DejaVuSans-43d" transform="translate(136.962891 0)"/>
      <use xlink:href="#DejaVuSans-43e" transform="translate(202.34375 0)"/>
      <use xlink:href="#DejaVuSans-441" transform="translate(263.525391 0)"/>
      <use xlink:href="#DejaVuSans-438" transform="translate(318.505859 0)"/>
      <use xlink:href="#DejaVuSans-442" transform="translate(383.496094 0)"/>
      <use xlink:href="#DejaVuSans-435" transform="translate(441.748047 0)"/>
      <use xlink:href="#DejaVuSans-43b" transform="translate(503.271484 0)"/>
      <use xlink:href="#DejaVuSans-44c" transform="translate(567.1875 0)"/>
      <use xlink:href="#DejaVuSans-43d" transform="translate(626.123047 0)"/>
      <use xlink:href="#DejaVuSans-430" transform="translate(691.503906 0)"/>
      <use xlink:href="#DejaVuSans-44f" transform="translate(752.783203 0)"/>
      <use xlink:href="#DejaVuSans-20" transform="translate(812.939453 0)"/>
      <use xlink:href="#DejaVuSans-447" transform="translate(844.726562 0)"/>
      <use xlink:href="#DejaVuSans-430" transform="translate(903.808594 0)"/>
      <use xlink:href="#DejaVuSans-441" transform="translate(965.087891 0)"/>
      <use xlink:href="#DejaVuSans-442" transform="translate(1020.068359 0)"/>
      <use xlink:href="#DejaVuSans-43e" transform="translate(1078.320312 0)"/>
      <use xlink:href="#DejaVuSans-442" transform="translate(1139.501953 0)"/>
      <use xlink:href="#DejaVuSans-430" transform="translate(1197.753906 0)"/>
      <use xlink:href="#DejaVuSans-20" transform="translate(1259.033203 0)"/>
      <use xlink:href="#DejaVuSans-440" transform="translate(1290.820312 0)"/>
      <use xlink:href="#DejaVuSans-43e" transform="translate(1354.296875 0)"/>
      <use xlink:href="#DejaVuSans-436" transform="translate(1415.478516 0)"/>
      <use xlink:href="#DejaVuSans-434" transform="translate(1505.566406 0)"/>
      <use xlink:href="#DejaVuSans-435" transform="translate(1574.707031 0)"/>
      <use xlink:href="#DejaVuSans-43d" transform="translate(1636.230469 0)"/>
      <use xlink:href="#DejaVuSans-438" transform="translate(1701.611328 0)"/>
      <use xlink:href="#DejaVuSans-439" transform="translate(1766.601562 0)"/>
     </g>
    </g>
   </g>
   <g id="line2d_72">
    <path d="M 72.591818 452.771241 
L 95.806591 427.909513 
L 119.021364 384.988081 
L 142.236136 431.357191 
L 165.450909 452.771241 
L 188.665682 412.283075 
L 211.880455 432.812277 
L 235.095227 413.168846 
L 258.31 433.020638 
L 281.524773 432.970044 
L 304.739545 432.812277 
L 327.954318 442.6492 
L 351.169091 411.37233 
L 374.383864 447.417729 
L 397.598636 384.988081 
L 420.813409 378.186056 
L 444.028182 357.503057 
" clip-path="url(#pb6705c09b4)" style="fill: none; stroke: #648fff; stroke-width: 1.5; stroke-linecap: square"/>
   </g>
   <g id="line2d_73">
    <path d="M 72.591818 452.771241 
L 95.806591 430.920079 
L 119.021364 387.217754 
L 142.236136 430.920079 
L 165.450909 452.771241 
L 188.665682 409.068916 
L 211.880455 430.920079 
L 235.095227 409.068916 
L 258.31 430.920079 
L 281.524773 430.920079 
L 304.739545 430.920079 
L 327.954318 430.920079 
L 351.169091 409.068916 
L 374.383864 430.920079 
L 397.598636 387.217754 
L 420.813409 387.217754 
L 444.028182 387.217754 
" clip-path="url(#pb6705c09b4)" style="fill: none; stroke: #785ef0; stroke-width: 1.5; stroke-linecap: square"/>
   </g>
   <g id="line2d_74">
    <path d="M 72.591818 452.771241 
L 95.806591 434.194087 
L 119.021364 393.527105 
L 142.236136 431.950631 
L 165.450909 452.771241 
L 188.665682 407.676596 
L 211.880455 429.636786 
L 235.095227 405.773334 
L 258.31 429.148659 
L 281.524773 429.272288 
L 304.739545 429.636786 
L 327.954318 420.884512 
L 351.169091 409.241148 
L 374.383864 411.13002 
L 397.598636 393.527105 
L 420.813409 397.039778 
L 444.028182 400.799557 
" clip-path="url(#pb6705c09b4)" style="fill: none; stroke: #dc267f; stroke-width: 1.5; stroke-linecap: square"/>
   </g>
   <g id="line2d_75">
    <path d="M 72.591818 452.771241 
L 95.806591 437.895268 
L 119.021364 402.771443 
L 142.236136 434.214615 
L 165.450909 452.771241 
L 188.665682 408.326977 
L 211.880455 429.087127 
L 235.095227 403.456372 
L 258.31 427.771342 
L 281.524773 428.113807 
L 304.739545 429.087127 
L 327.954318 408.326977 
L 351.169091 411.862316 
L 374.383864 378.544737 
L 397.598636 402.771443 
L 420.813409 408.143323 
L 444.028182 413.065519 
" clip-path="url(#pb6705c09b4)" style="fill: none; stroke: #fe6100; stroke-width: 1.5; stroke-linecap: square"/>
   </g>
   <g id="line2d_76">
    <path d="M 72.591818 452.771241 
L 95.806591 444.994372 
L 119.021364 424.385668 
L 142.236136 441.185293 
L 165.450909 452.771241 
L 188.665682 418.364486 
L 211.880455 432.495832 
L 235.095227 407.354324 
L 258.31 429.116597 
L 281.524773 430.062783 
L 304.739545 432.495832 
L 327.954318 383.95773 
L 351.169091 424.385668 
L 374.383864 267.396068 
L 397.598636 424.385668 
L 420.813409 429.440633 
L 444.028182 433.417441 
" clip-path="url(#pb6705c09b4)" style="fill: none; stroke: #ffb000; stroke-width: 1.5; stroke-linecap: square"/>
   </g>
   <g id="line2d_77">
    <path d="M 54.02 419.351816 
L 462.6 419.351816 
" clip-path="url(#pb6705c09b4)" style="fill: none; stroke-dasharray: 3.7,1.6; stroke-dashoffset: 0; stroke: #000000"/>
   </g>
   <g id="patch_15">
    <path d="M 54.02 462.04 
L 54.02 258.127309 
" style="fill: none; stroke: #000000; stroke-width: 0.8; stroke-linejoin: miter; stroke-linecap: square"/>
   </g>
   <g id="patch_16">
    <path d="M 462.6 462.04 
L 462.6 258.127309 
" style="fill: none; stroke: #000000; stroke-width: 0.8; stroke-linejoin: miter; stroke-linecap: square"/>
   </g>
   <g id="patch_17">
    <path d="M 54.02 462.04 
L 462.6 462.04 
" style="fill: none; stroke: #000000; stroke-width: 0.8; stroke-linejoin: miter; stroke-linecap: square"/>
   </g>
   <g id="patch_18">
    <path d="M 54.02 258.127309 
L 462.6 258.127309 
" style="fill: none; stroke: #000000; stroke-width: 0.8; stroke-linejoin: miter; stroke-linecap: square"/>
   </g>
   <g id="legend_3">
    <g id="patch_19">
     <path d="M 61.02 354.196059 
L 199.799688 354.196059 
Q 201.799688 354.196059 201.799688 352.196059 
L 201.799688 265.127309 
Q 201.799688 263.127309 199.799688 263.127309 
L 61.02 263.127309 
Q 59.02 263.127309 59.02 265.127309 
L 59.02 352.196059 
Q 59.02 354.196059 61.02 354.196059 
z
" style="fill: #ffffff; opacity: 0.8; stroke: #cccccc; stroke-linejoin: miter"/>
    </g>
    <g id="line2d_78">
     <path d="M 63.02 271.225747 
L 73.02 271.225747 
L 83.02 271.225747 
" style="fill: none; stroke: #648fff; stroke-width: 1.5; stroke-linecap: square"/>
    </g>
    <g id="text_66">
     <!-- $\alpha=-1.0$ -->
     <g transform="translate(91.02 274.725747) scale(0.1 -0.1)">
      <use xlink:href="#DejaVuSans-Oblique-3b1" transform="translate(0 0.78125)"/>
      <use xlink:href="#DejaVuSans-3d" transform="translate(85.400391 0.78125)"/>
      <use xlink:href="#DejaVuSans-2212" transform="translate(188.671875 0.78125)"/>
      <use xlink:href="#DejaVuSans-31" transform="translate(272.460938 0.78125)"/>
      <use xlink:href="#DejaVuSans-2e" transform="translate(336.083984 0.78125)"/>
      <use xlink:href="#DejaVuSans-30" transform="translate(367.871094 0.78125)"/>
     </g>
    </g>
    <g id="line2d_79">
     <path d="M 63.02 285.903872 
L 73.02 285.903872 
L 83.02 285.903872 
" style="fill: none; stroke: #785ef0; stroke-width: 1.5; stroke-linecap: square"/>
    </g>
    <g id="text_67">
     <!-- $\alpha=0.0$ -->
     <g transform="translate(91.02 289.403872) scale(0.1 -0.1)">
      <use xlink:href="#DejaVuSans-Oblique-3b1" transform="translate(0 0.78125)"/>
      <use xlink:href="#DejaVuSans-3d" transform="translate(85.400391 0.78125)"/>
      <use xlink:href="#DejaVuSans-30" transform="translate(188.671875 0.78125)"/>
      <use xlink:href="#DejaVuSans-2e" transform="translate(252.294922 0.78125)"/>
      <use xlink:href="#DejaVuSans-30" transform="translate(284.082031 0.78125)"/>
     </g>
    </g>
    <g id="line2d_80">
     <path d="M 63.02 300.581997 
L 73.02 300.581997 
L 83.02 300.581997 
" style="fill: none; stroke: #dc267f; stroke-width: 1.5; stroke-linecap: square"/>
    </g>
    <g id="text_68">
     <!-- $\alpha=0.5$ -->
     <g transform="translate(91.02 304.081997) scale(0.1 -0.1)">
      <use xlink:href="#DejaVuSans-Oblique-3b1" transform="translate(0 0.78125)"/>
      <use xlink:href="#DejaVuSans-3d" transform="translate(85.400391 0.78125)"/>
      <use xlink:href="#DejaVuSans-30" transform="translate(188.671875 0.78125)"/>
      <use xlink:href="#DejaVuSans-2e" transform="translate(252.294922 0.78125)"/>
      <use xlink:href="#DejaVuSans-35" transform="translate(284.082031 0.78125)"/>
     </g>
    </g>
    <g id="line2d_81">
     <path d="M 63.02 315.260122 
L 73.02 315.260122 
L 83.02 315.260122 
" style="fill: none; stroke: #fe6100; stroke-width: 1.5; stroke-linecap: square"/>
    </g>
    <g id="text_69">
     <!-- $\alpha=1.0$ -->
     <g transform="translate(91.02 318.760122) scale(0.1 -0.1)">
      <use xlink:href="#DejaVuSans-Oblique-3b1" transform="translate(0 0.78125)"/>
      <use xlink:href="#DejaVuSans-3d" transform="translate(85.400391 0.78125)"/>
      <use xlink:href="#DejaVuSans-31" transform="translate(188.671875 0.78125)"/>
      <use xlink:href="#DejaVuSans-2e" transform="translate(252.294922 0.78125)"/>
      <use xlink:href="#DejaVuSans-30" transform="translate(284.082031 0.78125)"/>
     </g>
    </g>
    <g id="line2d_82">
     <path d="M 63.02 329.938247 
L 73.02 329.938247 
L 83.02 329.938247 
" style="fill: none; stroke: #ffb000; stroke-width: 1.5; stroke-linecap: square"/>
    </g>
    <g id="text_70">
     <!-- $\alpha=2.0$ -->
     <g transform="translate(91.02 333.438247) scale(0.1 -0.1)">
      <use xlink:href="#DejaVuSans-Oblique-3b1" transform="translate(0 0.78125)"/>
      <use xlink:href="#DejaVuSans-3d" transform="translate(85.400391 0.78125)"/>
      <use xlink:href="#DejaVuSans-32" transform="translate(188.671875 0.78125)"/>
      <use xlink:href="#DejaVuSans-2e" transform="translate(252.294922 0.78125)"/>
      <use xlink:href="#DejaVuSans-30" transform="translate(284.082031 0.78125)"/>
     </g>
    </g>
    <g id="line2d_83">
     <path d="M 63.02 344.616372 
L 73.02 344.616372 
L 83.02 344.616372 
" style="fill: none; stroke-dasharray: 3.7,1.6; stroke-dashoffset: 0; stroke: #000000"/>
    </g>
    <g id="text_71">
     <!-- Равномерное распр. -->
     <g transform="translate(91.02 348.116372) scale(0.1 -0.1)">
      <use xlink:href="#DejaVuSans-420"/>
      <use xlink:href="#DejaVuSans-430" transform="translate(60.302734 0)"/>
      <use xlink:href="#DejaVuSans-432" transform="translate(121.582031 0)"/>
      <use xlink:href="#DejaVuSans-43d" transform="translate(180.517578 0)"/>
      <use xlink:href="#DejaVuSans-43e" transform="translate(245.898438 0)"/>
      <use xlink:href="#DejaVuSans-43c" transform="translate(307.080078 0)"/>
      <use xlink:href="#DejaVuSans-435" transform="translate(382.519531 0)"/>
      <use xlink:href="#DejaVuSans-440" transform="translate(444.042969 0)"/>
      <use xlink:href="#DejaVuSans-43d" transform="translate(507.519531 0)"/>
      <use xlink:href="#DejaVuSans-43e" transform="translate(572.900391 0)"/>
      <use xlink:href="#DejaVuSans-435" transform="translate(634.082031 0)"/>
      <use xlink:href="#DejaVuSans-20" transform="translate(695.605469 0)"/>
      <use xlink:href="#DejaVuSans-440" transform="translate(727.392578 0)"/>
      <use xlink:href="#DejaVuSans-430" transform="translate(790.869141 0)"/>
      <use xlink:href="#DejaVuSans-441" transform="translate(852.148438 0)"/>
      <use xlink:href="#DejaVuSans-43f" transform="translate(907.128906 0)"/>
      <use xlink:href="#DejaVuSans-440" transform="translate(972.509766 0)"/>
      <use xlink:href="#DejaVuSans-2e" transform="translate(1035.986328 0)"/>
     </g>
    </g>
   </g>
  </g>
  <g id="axes_4">
   <g id="patch_20">
    <path d="M 516.62 462.04 
L 925.2 462.04 
L 925.2 258.127309 
L 516.62 258.127309 
z
" style="fill: #ffffff"/>
   </g>
   <g id="matplotlib.axis_7">
    <g id="xtick_28">
     <g id="line2d_84">
      <g>
       <use xlink:href="#m5dbfceff77" x="535.191818" y="462.04" style="stroke: #000000; stroke-width: 0.8"/>
      </g>
     </g>
     <g id="text_72">
      <!-- 0 -->
      <g transform="translate(532.010568 476.638438) scale(0.1 -0.1)">
       <use xlink:href="#DejaVuSans-30"/>
      </g>
     </g>
    </g>
    <g id="xtick_29">
     <g id="line2d_85">
      <g>
       <use xlink:href="#m5dbfceff77" x="581.621364" y="462.04" style="stroke: #000000; stroke-width: 0.8"/>
      </g>
     </g>
     <g id="text_73">
      <!-- 2 -->
      <g transform="translate(578.440114 476.638438) scale(0.1 -0.1)">
       <use xlink:href="#DejaVuSans-32"/>
      </g>
     </g>
    </g>
    <g id="xtick_30">
     <g id="line2d_86">
      <g>
       <use xlink:href="#m5dbfceff77" x="628.050909" y="462.04" style="stroke: #000000; stroke-width: 0.8"/>
      </g>
     </g>
     <g id="text_74">
      <!-- 4 -->
      <g transform="translate(624.869659 476.638438) scale(0.1 -0.1)">
       <use xlink:href="#DejaVuSans-34"/>
      </g>
     </g>
    </g>
    <g id="xtick_31">
     <g id="line2d_87">
      <g>
       <use xlink:href="#m5dbfceff77" x="674.480455" y="462.04" style="stroke: #000000; stroke-width: 0.8"/>
      </g>
     </g>
     <g id="text_75">
      <!-- 6 -->
      <g transform="translate(671.299205 476.638438) scale(0.1 -0.1)">
       <use xlink:href="#DejaVuSans-36"/>
      </g>
     </g>
    </g>
    <g id="xtick_32">
     <g id="line2d_88">
      <g>
       <use xlink:href="#m5dbfceff77" x="720.91" y="462.04" style="stroke: #000000; stroke-width: 0.8"/>
      </g>
     </g>
     <g id="text_76">
      <!-- 8 -->
      <g transform="translate(717.72875 476.638438) scale(0.1 -0.1)">
       <use xlink:href="#DejaVuSans-38"/>
      </g>
     </g>
    </g>
    <g id="xtick_33">
     <g id="line2d_89">
      <g>
       <use xlink:href="#m5dbfceff77" x="767.339545" y="462.04" style="stroke: #000000; stroke-width: 0.8"/>
      </g>
     </g>
     <g id="text_77">
      <!-- 10 -->
      <g transform="translate(760.977045 476.638438) scale(0.1 -0.1)">
       <use xlink:href="#DejaVuSans-31"/>
       <use xlink:href="#DejaVuSans-30" transform="translate(63.623047 0)"/>
      </g>
     </g>
    </g>
    <g id="xtick_34">
     <g id="line2d_90">
      <g>
       <use xlink:href="#m5dbfceff77" x="813.769091" y="462.04" style="stroke: #000000; stroke-width: 0.8"/>
      </g>
     </g>
     <g id="text_78">
      <!-- 12 -->
      <g transform="translate(807.406591 476.638438) scale(0.1 -0.1)">
       <use xlink:href="#DejaVuSans-31"/>
       <use xlink:href="#DejaVuSans-32" transform="translate(63.623047 0)"/>
      </g>
     </g>
    </g>
    <g id="xtick_35">
     <g id="line2d_91">
      <g>
       <use xlink:href="#m5dbfceff77" x="860.198636" y="462.04" style="stroke: #000000; stroke-width: 0.8"/>
      </g>
     </g>
     <g id="text_79">
      <!-- 14 -->
      <g transform="translate(853.836136 476.638438) scale(0.1 -0.1)">
       <use xlink:href="#DejaVuSans-31"/>
       <use xlink:href="#DejaVuSans-34" transform="translate(63.623047 0)"/>
      </g>
     </g>
    </g>
    <g id="xtick_36">
     <g id="line2d_92">
      <g>
       <use xlink:href="#m5dbfceff77" x="906.628182" y="462.04" style="stroke: #000000; stroke-width: 0.8"/>
      </g>
     </g>
     <g id="text_80">
      <!-- 16 -->
      <g transform="translate(900.265682 476.638438) scale(0.1 -0.1)">
       <use xlink:href="#DejaVuSans-31"/>
       <use xlink:href="#DejaVuSans-36" transform="translate(63.623047 0)"/>
      </g>
     </g>
    </g>
    <g id="text_81">
     <!-- Номер слоя -->
     <g transform="translate(690.46625 490.316563) scale(0.1 -0.1)">
      <use xlink:href="#DejaVuSans-41d"/>
      <use xlink:href="#DejaVuSans-43e" transform="translate(75.195312 0)"/>
      <use xlink:href="#DejaVuSans-43c" transform="translate(136.376953 0)"/>
      <use xlink:href="#DejaVuSans-435" transform="translate(211.816406 0)"/>
      <use xlink:href="#DejaVuSans-440" transform="translate(273.339844 0)"/>
      <use xlink:href="#DejaVuSans-20" transform="translate(336.816406 0)"/>
      <use xlink:href="#DejaVuSans-441" transform="translate(368.603516 0)"/>
      <use xlink:href="#DejaVuSans-43b" transform="translate(423.583984 0)"/>
      <use xlink:href="#DejaVuSans-43e" transform="translate(487.5 0)"/>
      <use xlink:href="#DejaVuSans-44f" transform="translate(548.681641 0)"/>
     </g>
    </g>
   </g>
   <g id="matplotlib.axis_8">
    <g id="ytick_21">
     <g id="line2d_93">
      <g>
       <use xlink:href="#mfa5aa3db43" x="516.62" y="452.771241" style="stroke: #000000; stroke-width: 0.8"/>
      </g>
     </g>
     <g id="text_82">
      <!-- 0.00 -->
      <g transform="translate(487.354375 456.57046) scale(0.1 -0.1)">
       <use xlink:href="#DejaVuSans-30"/>
       <use xlink:href="#DejaVuSans-2e" transform="translate(63.623047 0)"/>
       <use xlink:href="#DejaVuSans-30" transform="translate(95.410156 0)"/>
       <use xlink:href="#DejaVuSans-30" transform="translate(159.033203 0)"/>
      </g>
     </g>
    </g>
    <g id="ytick_22">
     <g id="line2d_94">
      <g>
       <use xlink:href="#mfa5aa3db43" x="516.62" y="425.325089" style="stroke: #000000; stroke-width: 0.8"/>
      </g>
     </g>
     <g id="text_83">
      <!-- 0.05 -->
      <g transform="translate(487.354375 429.124308) scale(0.1 -0.1)">
       <use xlink:href="#DejaVuSans-30"/>
       <use xlink:href="#DejaVuSans-2e" transform="translate(63.623047 0)"/>
       <use xlink:href="#DejaVuSans-30" transform="translate(95.410156 0)"/>
       <use xlink:href="#DejaVuSans-35" transform="translate(159.033203 0)"/>
      </g>
     </g>
    </g>
    <g id="ytick_23">
     <g id="line2d_95">
      <g>
       <use xlink:href="#mfa5aa3db43" x="516.62" y="397.878937" style="stroke: #000000; stroke-width: 0.8"/>
      </g>
     </g>
     <g id="text_84">
      <!-- 0.10 -->
      <g transform="translate(487.354375 401.678156) scale(0.1 -0.1)">
       <use xlink:href="#DejaVuSans-30"/>
       <use xlink:href="#DejaVuSans-2e" transform="translate(63.623047 0)"/>
       <use xlink:href="#DejaVuSans-31" transform="translate(95.410156 0)"/>
       <use xlink:href="#DejaVuSans-30" transform="translate(159.033203 0)"/>
      </g>
     </g>
    </g>
    <g id="ytick_24">
     <g id="line2d_96">
      <g>
       <use xlink:href="#mfa5aa3db43" x="516.62" y="370.432785" style="stroke: #000000; stroke-width: 0.8"/>
      </g>
     </g>
     <g id="text_85">
      <!-- 0.15 -->
      <g transform="translate(487.354375 374.232004) scale(0.1 -0.1)">
       <use xlink:href="#DejaVuSans-30"/>
       <use xlink:href="#DejaVuSans-2e" transform="translate(63.623047 0)"/>
       <use xlink:href="#DejaVuSans-31" transform="translate(95.410156 0)"/>
       <use xlink:href="#DejaVuSans-35" transform="translate(159.033203 0)"/>
      </g>
     </g>
    </g>
    <g id="ytick_25">
     <g id="line2d_97">
      <g>
       <use xlink:href="#mfa5aa3db43" x="516.62" y="342.986633" style="stroke: #000000; stroke-width: 0.8"/>
      </g>
     </g>
     <g id="text_86">
      <!-- 0.20 -->
      <g transform="translate(487.354375 346.785852) scale(0.1 -0.1)">
       <use xlink:href="#DejaVuSans-30"/>
       <use xlink:href="#DejaVuSans-2e" transform="translate(63.623047 0)"/>
       <use xlink:href="#DejaVuSans-32" transform="translate(95.410156 0)"/>
       <use xlink:href="#DejaVuSans-30" transform="translate(159.033203 0)"/>
      </g>
     </g>
    </g>
    <g id="ytick_26">
     <g id="line2d_98">
      <g>
       <use xlink:href="#mfa5aa3db43" x="516.62" y="315.540481" style="stroke: #000000; stroke-width: 0.8"/>
      </g>
     </g>
     <g id="text_87">
      <!-- 0.25 -->
      <g transform="translate(487.354375 319.3397) scale(0.1 -0.1)">
       <use xlink:href="#DejaVuSans-30"/>
       <use xlink:href="#DejaVuSans-2e" transform="translate(63.623047 0)"/>
       <use xlink:href="#DejaVuSans-32" transform="translate(95.410156 0)"/>
       <use xlink:href="#DejaVuSans-35" transform="translate(159.033203 0)"/>
      </g>
     </g>
    </g>
    <g id="ytick_27">
     <g id="line2d_99">
      <g>
       <use xlink:href="#mfa5aa3db43" x="516.62" y="288.094329" style="stroke: #000000; stroke-width: 0.8"/>
      </g>
     </g>
     <g id="text_88">
      <!-- 0.30 -->
      <g transform="translate(487.354375 291.893548) scale(0.1 -0.1)">
       <use xlink:href="#DejaVuSans-30"/>
       <use xlink:href="#DejaVuSans-2e" transform="translate(63.623047 0)"/>
       <use xlink:href="#DejaVuSans-33" transform="translate(95.410156 0)"/>
       <use xlink:href="#DejaVuSans-30" transform="translate(159.033203 0)"/>
      </g>
     </g>
    </g>
    <g id="ytick_28">
     <g id="line2d_100">
      <g>
       <use xlink:href="#mfa5aa3db43" x="516.62" y="260.648177" style="stroke: #000000; stroke-width: 0.8"/>
      </g>
     </g>
     <g id="text_89">
      <!-- 0.35 -->
      <g transform="translate(487.354375 264.447396) scale(0.1 -0.1)">
       <use xlink:href="#DejaVuSans-30"/>
       <use xlink:href="#DejaVuSans-2e" transform="translate(63.623047 0)"/>
       <use xlink:href="#DejaVuSans-33" transform="translate(95.410156 0)"/>
       <use xlink:href="#DejaVuSans-35" transform="translate(159.033203 0)"/>
      </g>
     </g>
    </g>
    <g id="text_90">
     <!-- Относительная частота рождений -->
     <g transform="translate(481.274687 451.664123) rotate(-90) scale(0.1 -0.1)">
      <use xlink:href="#DejaVuSans-41e"/>
      <use xlink:href="#DejaVuSans-442" transform="translate(78.710938 0)"/>
      <use xlink:href="#DejaVuSans-43d" transform="translate(136.962891 0)"/>
      <use xlink:href="#DejaVuSans-43e" transform="translate(202.34375 0)"/>
      <use xlink:href="#DejaVuSans-441" transform="translate(263.525391 0)"/>
      <use xlink:href="#DejaVuSans-438" transform="translate(318.505859 0)"/>
      <use xlink:href="#DejaVuSans-442" transform="translate(383.496094 0)"/>
      <use xlink:href="#DejaVuSans-435" transform="translate(441.748047 0)"/>
      <use xlink:href="#DejaVuSans-43b" transform="translate(503.271484 0)"/>
      <use xlink:href="#DejaVuSans-44c" transform="translate(567.1875 0)"/>
      <use xlink:href="#DejaVuSans-43d" transform="translate(626.123047 0)"/>
      <use xlink:href="#DejaVuSans-430" transform="translate(691.503906 0)"/>
      <use xlink:href="#DejaVuSans-44f" transform="translate(752.783203 0)"/>
      <use xlink:href="#DejaVuSans-20" transform="translate(812.939453 0)"/>
      <use xlink:href="#DejaVuSans-447" transform="translate(844.726562 0)"/>
      <use xlink:href="#DejaVuSans-430" transform="translate(903.808594 0)"/>
      <use xlink:href="#DejaVuSans-441" transform="translate(965.087891 0)"/>
      <use xlink:href="#DejaVuSans-442" transform="translate(1020.068359 0)"/>
      <use xlink:href="#DejaVuSans-43e" transform="translate(1078.320312 0)"/>
      <use xlink:href="#DejaVuSans-442" transform="translate(1139.501953 0)"/>
      <use xlink:href="#DejaVuSans-430" transform="translate(1197.753906 0)"/>
      <use xlink:href="#DejaVuSans-20" transform="translate(1259.033203 0)"/>
      <use xlink:href="#DejaVuSans-440" transform="translate(1290.820312 0)"/>
      <use xlink:href="#DejaVuSans-43e" transform="translate(1354.296875 0)"/>
      <use xlink:href="#DejaVuSans-436" transform="translate(1415.478516 0)"/>
      <use xlink:href="#DejaVuSans-434" transform="translate(1505.566406 0)"/>
      <use xlink:href="#DejaVuSans-435" transform="translate(1574.707031 0)"/>
      <use xlink:href="#DejaVuSans-43d" transform="translate(1636.230469 0)"/>
      <use xlink:href="#DejaVuSans-438" transform="translate(1701.611328 0)"/>
      <use xlink:href="#DejaVuSans-439" transform="translate(1766.601562 0)"/>
     </g>
    </g>
   </g>
   <g id="line2d_101">
    <path d="M 535.191818 452.771241 
L 558.406591 386.933543 
L 581.621364 417.768687 
L 604.836136 424.511897 
L 628.050909 424.175897 
L 651.265682 426.136275 
L 674.480455 429.198169 
L 697.695227 436.033968 
L 720.91 410.005731 
L 744.124773 426.402275 
L 767.339545 429.832422 
L 790.554318 430.303734 
L 813.769091 428.711215 
L 836.983864 425.184393 
L 860.198636 424.397376 
L 883.413409 401.068571 
L 906.628182 374.752667 
" clip-path="url(#p7a0b509c12)" style="fill: none; stroke: #648fff; stroke-width: 1.5; stroke-linecap: square"/>
   </g>
   <g id="line2d_102">
    <path d="M 535.191818 452.771241 
L 558.406591 409.101946 
L 581.621364 421.766042 
L 604.836136 421.766042 
L 628.050909 416.089033 
L 651.265682 426.569664 
L 674.480455 424.822892 
L 697.695227 430.499901 
L 720.91 386.393913 
L 744.124773 428.316436 
L 767.339545 426.132971 
L 790.554318 422.639428 
L 813.769091 428.316436 
L 836.983864 422.639428 
L 860.198636 421.766042 
L 883.413409 414.342262 
L 906.628182 394.254386 
" clip-path="url(#p7a0b509c12)" style="fill: none; stroke: #785ef0; stroke-width: 1.5; stroke-linecap: square"/>
   </g>
   <g id="line2d_103">
    <path d="M 535.191818 452.771241 
L 558.406591 424.901315 
L 581.621364 428.66848 
L 604.836136 423.544546 
L 628.050909 413.29503 
L 651.265682 428.63149 
L 674.480455 422.090238 
L 697.695227 426.850282 
L 720.91 360.934417 
L 744.124773 429.046876 
L 767.339545 424.247027 
L 790.554318 418.134056 
L 813.769091 428.317449 
L 836.983864 421.800722 
L 860.198636 421.552359 
L 883.413409 423.448104 
L 906.628182 399.954428 
" clip-path="url(#p7a0b509c12)" style="fill: none; stroke: #dc267f; stroke-width: 1.5; stroke-linecap: square"/>
   </g>
   <g id="line2d_104">
    <path d="M 535.191818 452.771241 
L 558.406591 438.247595 
L 581.621364 437.150253 
L 604.836136 428.856636 
L 628.050909 415.027916 
L 651.265682 432.81109 
L 674.480455 420.861262 
L 697.695227 424.605316 
L 720.91 327.559258 
L 744.124773 428.938535 
L 767.339545 422.942348 
L 790.554318 415.671394 
L 813.769091 428.208125 
L 836.983864 421.609785 
L 860.198636 422.342858 
L 883.413409 430.404826 
L 906.628182 400.179624 
" clip-path="url(#p7a0b509c12)" style="fill: none; stroke: #fe6100; stroke-width: 1.5; stroke-linecap: square"/>
   </g>
   <g id="line2d_105">
    <path d="M 535.191818 452.771241 
L 558.406591 450.55263 
L 581.621364 448.830247 
L 604.836136 442.524878 
L 628.050909 430.13752 
L 651.265682 442.661095 
L 674.480455 425.46964 
L 697.695227 427.570475 
L 720.91 267.396068 
L 744.124773 423.553901 
L 767.339545 419.511875 
L 790.554318 418.269141 
L 813.769091 426.088553 
L 836.983864 422.296573 
L 860.198636 426.021071 
L 883.413409 435.643559 
L 906.628182 388.889596 
" clip-path="url(#p7a0b509c12)" style="fill: none; stroke: #ffb000; stroke-width: 1.5; stroke-linecap: square"/>
   </g>
   <g id="line2d_106">
    <path d="M 516.62 420.481651 
L 925.2 420.481651 
" clip-path="url(#p7a0b509c12)" style="fill: none; stroke-dasharray: 3.7,1.6; stroke-dashoffset: 0; stroke: #000000"/>
   </g>
   <g id="patch_21">
    <path d="M 516.62 462.04 
L 516.62 258.127309 
" style="fill: none; stroke: #000000; stroke-width: 0.8; stroke-linejoin: miter; stroke-linecap: square"/>
   </g>
   <g id="patch_22">
    <path d="M 925.2 462.04 
L 925.2 258.127309 
" style="fill: none; stroke: #000000; stroke-width: 0.8; stroke-linejoin: miter; stroke-linecap: square"/>
   </g>
   <g id="patch_23">
    <path d="M 516.62 462.04 
L 925.2 462.04 
" style="fill: none; stroke: #000000; stroke-width: 0.8; stroke-linejoin: miter; stroke-linecap: square"/>
   </g>
   <g id="patch_24">
    <path d="M 516.62 258.127309 
L 925.2 258.127309 
" style="fill: none; stroke: #000000; stroke-width: 0.8; stroke-linejoin: miter; stroke-linecap: square"/>
   </g>
   <g id="legend_4">
    <g id="patch_25">
     <path d="M 779.420312 354.196059 
L 918.2 354.196059 
Q 920.2 354.196059 920.2 352.196059 
L 920.2 265.127309 
Q 920.2 263.127309 918.2 263.127309 
L 779.420312 263.127309 
Q 777.420312 263.127309 777.420312 265.127309 
L 777.420312 352.196059 
Q 777.420312 354.196059 779.420312 354.196059 
z
" style="fill: #ffffff; opacity: 0.8; stroke: #cccccc; stroke-linejoin: miter"/>
    </g>
    <g id="line2d_107">
     <path d="M 781.420312 271.225747 
L 791.420312 271.225747 
L 801.420312 271.225747 
" style="fill: none; stroke: #648fff; stroke-width: 1.5; stroke-linecap: square"/>
    </g>
    <g id="text_91">
     <!-- $\alpha=-1.0$ -->
     <g transform="translate(809.420312 274.725747) scale(0.1 -0.1)">
      <use xlink:href="#DejaVuSans-Oblique-3b1" transform="translate(0 0.78125)"/>
      <use xlink:href="#DejaVuSans-3d" transform="translate(85.400391 0.78125)"/>
      <use xlink:href="#DejaVuSans-2212" transform="translate(188.671875 0.78125)"/>
      <use xlink:href="#DejaVuSans-31" transform="translate(272.460938 0.78125)"/>
      <use xlink:href="#DejaVuSans-2e" transform="translate(336.083984 0.78125)"/>
      <use xlink:href="#DejaVuSans-30" transform="translate(367.871094 0.78125)"/>
     </g>
    </g>
    <g id="line2d_108">
     <path d="M 781.420312 285.903872 
L 791.420312 285.903872 
L 801.420312 285.903872 
" style="fill: none; stroke: #785ef0; stroke-width: 1.5; stroke-linecap: square"/>
    </g>
    <g id="text_92">
     <!-- $\alpha=0.0$ -->
     <g transform="translate(809.420312 289.403872) scale(0.1 -0.1)">
      <use xlink:href="#DejaVuSans-Oblique-3b1" transform="translate(0 0.78125)"/>
      <use xlink:href="#DejaVuSans-3d" transform="translate(85.400391 0.78125)"/>
      <use xlink:href="#DejaVuSans-30" transform="translate(188.671875 0.78125)"/>
      <use xlink:href="#DejaVuSans-2e" transform="translate(252.294922 0.78125)"/>
      <use xlink:href="#DejaVuSans-30" transform="translate(284.082031 0.78125)"/>
     </g>
    </g>
    <g id="line2d_109">
     <path d="M 781.420312 300.581997 
L 791.420312 300.581997 
L 801.420312 300.581997 
" style="fill: none; stroke: #dc267f; stroke-width: 1.5; stroke-linecap: square"/>
    </g>
    <g id="text_93">
     <!-- $\alpha=0.5$ -->
     <g transform="translate(809.420312 304.081997) scale(0.1 -0.1)">
      <use xlink:href="#DejaVuSans-Oblique-3b1" transform="translate(0 0.78125)"/>
      <use xlink:href="#DejaVuSans-3d" transform="translate(85.400391 0.78125)"/>
      <use xlink:href="#DejaVuSans-30" transform="translate(188.671875 0.78125)"/>
      <use xlink:href="#DejaVuSans-2e" transform="translate(252.294922 0.78125)"/>
      <use xlink:href="#DejaVuSans-35" transform="translate(284.082031 0.78125)"/>
     </g>
    </g>
    <g id="line2d_110">
     <path d="M 781.420312 315.260122 
L 791.420312 315.260122 
L 801.420312 315.260122 
" style="fill: none; stroke: #fe6100; stroke-width: 1.5; stroke-linecap: square"/>
    </g>
    <g id="text_94">
     <!-- $\alpha=1.0$ -->
     <g transform="translate(809.420312 318.760122) scale(0.1 -0.1)">
      <use xlink:href="#DejaVuSans-Oblique-3b1" transform="translate(0 0.78125)"/>
      <use xlink:href="#DejaVuSans-3d" transform="translate(85.400391 0.78125)"/>
      <use xlink:href="#DejaVuSans-31" transform="translate(188.671875 0.78125)"/>
      <use xlink:href="#DejaVuSans-2e" transform="translate(252.294922 0.78125)"/>
      <use xlink:href="#DejaVuSans-30" transform="translate(284.082031 0.78125)"/>
     </g>
    </g>
    <g id="line2d_111">
     <path d="M 781.420312 329.938247 
L 791.420312 329.938247 
L 801.420312 329.938247 
" style="fill: none; stroke: #ffb000; stroke-width: 1.5; stroke-linecap: square"/>
    </g>
    <g id="text_95">
     <!-- $\alpha=2.0$ -->
     <g transform="translate(809.420312 333.438247) scale(0.1 -0.1)">
      <use xlink:href="#DejaVuSans-Oblique-3b1" transform="translate(0 0.78125)"/>
      <use xlink:href="#DejaVuSans-3d" transform="translate(85.400391 0.78125)"/>
      <use xlink:href="#DejaVuSans-32" transform="translate(188.671875 0.78125)"/>
      <use xlink:href="#DejaVuSans-2e" transform="translate(252.294922 0.78125)"/>
      <use xlink:href="#DejaVuSans-30" transform="translate(284.082031 0.78125)"/>
     </g>
    </g>
    <g id="line2d_112">
     <path d="M 781.420312 344.616372 
L 791.420312 344.616372 
L 801.420312 344.616372 
" style="fill: none; stroke-dasharray: 3.7,1.6; stroke-dashoffset: 0; stroke: #000000"/>
    </g>
    <g id="text_96">
     <!-- Равномерное распр. -->
     <g transform="translate(809.420312 348.116372) scale(0.1 -0.1)">
      <use xlink:href="#DejaVuSans-420"/>
      <use xlink:href="#DejaVuSans-430" transform="translate(60.302734 0)"/>
      <use xlink:href="#DejaVuSans-432" transform="translate(121.582031 0)"/>
      <use xlink:href="#DejaVuSans-43d" transform="translate(180.517578 0)"/>
      <use xlink:href="#DejaVuSans-43e" transform="translate(245.898438 0)"/>
      <use xlink:href="#DejaVuSans-43c" transform="translate(307.080078 0)"/>
      <use xlink:href="#DejaVuSans-435" transform="translate(382.519531 0)"/>
      <use xlink:href="#DejaVuSans-440" transform="translate(444.042969 0)"/>
      <use xlink:href="#DejaVuSans-43d" transform="translate(507.519531 0)"/>
      <use xlink:href="#DejaVuSans-43e" transform="translate(572.900391 0)"/>
      <use xlink:href="#DejaVuSans-435" transform="translate(634.082031 0)"/>
      <use xlink:href="#DejaVuSans-20" transform="translate(695.605469 0)"/>
      <use xlink:href="#DejaVuSans-440" transform="translate(727.392578 0)"/>
      <use xlink:href="#DejaVuSans-430" transform="translate(790.869141 0)"/>
      <use xlink:href="#DejaVuSans-441" transform="translate(852.148438 0)"/>
      <use xlink:href="#DejaVuSans-43f" transform="translate(907.128906 0)"/>
      <use xlink:href="#DejaVuSans-440" transform="translate(972.509766 0)"/>
      <use xlink:href="#DejaVuSans-2e" transform="translate(1035.986328 0)"/>
     </g>
    </g>
   </g>
  </g>
 </g>
 <defs>
  <clipPath id="p34395e9cd6">
   <rect x="54.02" y="10.8" width="408.58" height="203.912691"/>
  </clipPath>
  <clipPath id="p20967055bf">
   <rect x="516.62" y="10.8" width="408.58" height="203.912691"/>
  </clipPath>
  <clipPath id="pb6705c09b4">
   <rect x="54.02" y="258.127309" width="408.58" height="203.912691"/>
  </clipPath>
  <clipPath id="p7a0b509c12">
   <rect x="516.62" y="258.127309" width="408.58" height="203.912691"/>
  </clipPath>
 </defs>
</svg>
