<?xml version="1.0" encoding="utf-8" standalone="no"?>
<!DOCTYPE svg PUBLIC "-//W3C//DTD SVG 1.1//EN"
  "http://www.w3.org/Graphics/SVG/1.1/DTD/svg11.dtd">
<svg xmlns:xlink="http://www.w3.org/1999/xlink" width="936pt" height="504pt" viewBox="0 0 936 504" xmlns="http://www.w3.org/2000/svg" version="1.1">
 <metadata>
  <rdf:RDF xmlns:dc="http://purl.org/dc/elements/1.1/" xmlns:cc="http://creativecommons.org/ns#" xmlns:rdf="http://www.w3.org/1999/02/22-rdf-syntax-ns#">
   <cc:Work>
    <dc:type rdf:resource="http://purl.org/dc/dcmitype/StillImage"/>
    <dc:date>2026-05-19T22:28:16.787734</dc:date>
    <dc:format>image/svg+xml</dc:format>
    <dc:creator>
     <cc:Agent>
      <dc:title>Matplotlib v3.10.9, https://matplotlib.org/</dc:title>
     </cc:Agent>
    </dc:creator>
   </cc:Work>
  </rdf:RDF>
 </metadata>
 <defs>
  <style type="text/css">*{stroke-linejoin: round; stroke-linecap: butt}</style>
 </defs>
 <g id="figure_1">
  <g id="patch_1">
   <path d="M 0 504 
L 936 504 
L 936 0 
L 0 0 
z
" style="fill: #ffffff"/>
  </g>
  <g id="axes_1">
   <g id="patch_2">
    <path d="M 47.72 216.26532 
L 459.400913 216.26532 
L 459.400913 12.45064 
L 47.72 12.45064 
z
" style="fill: #ffffff"/>
   </g>
   <g id="matplotlib.axis_1">
    <g id="xtick_1">
     <g id="line2d_1">
      <defs>
       <path id="mc34cf3b006" d="M 0 0 
L 0 3.5 
" style="stroke: #000000; stroke-width: 0.8"/>
      </defs>
      <g>
       <use xlink:href="#mc34cf3b006" x="66.432769" y="216.26532" style="stroke: #000000; stroke-width: 0.8"/>
      </g>
     </g>
     <g id="text_1">
      <!-- 0 -->
      <g transform="translate(63.251519 230.863757) scale(0.1 -0.1)">
       <defs>
        <path id="DejaVuSans-30" d="M 2034 4250 
Q 1547 4250 1301 3770 
Q 1056 3291 1056 2328 
Q 1056 1369 1301 889 
Q 1547 409 2034 409 
Q 2525 409 2770 889 
Q 3016 1369 3016 2328 
Q 3016 3291 2770 3770 
Q 2525 4250 2034 4250 
z
M 2034 4750 
Q 2819 4750 3233 4129 
Q 3647 3509 3647 2328 
Q 3647 1150 3233 529 
Q 2819 -91 2034 -91 
Q 1250 -91 836 529 
Q 422 1150 422 2328 
Q 422 3509 836 4129 
Q 1250 4750 2034 4750 
z
" transform="scale(0.015625)"/>
       </defs>
       <use xlink:href="#DejaVuSans-30"/>
      </g>
     </g>
    </g>
    <g id="xtick_2">
     <g id="line2d_2">
      <g>
       <use xlink:href="#mc34cf3b006" x="144.402639" y="216.26532" style="stroke: #000000; stroke-width: 0.8"/>
      </g>
     </g>
     <g id="text_2">
      <!-- 5 -->
      <g transform="translate(141.221389 230.863757) scale(0.1 -0.1)">
       <defs>
        <path id="DejaVuSans-35" d="M 691 4666 
L 3169 4666 
L 3169 4134 
L 1269 4134 
L 1269 2991 
Q 1406 3038 1543 3061 
Q 1681 3084 1819 3084 
Q 2600 3084 3056 2656 
Q 3513 2228 3513 1497 
Q 3513 744 3044 326 
Q 2575 -91 1722 -91 
Q 1428 -91 1123 -41 
Q 819 9 494 109 
L 494 744 
Q 775 591 1075 516 
Q 1375 441 1709 441 
Q 2250 441 2565 725 
Q 2881 1009 2881 1497 
Q 2881 1984 2565 2268 
Q 2250 2553 1709 2553 
Q 1456 2553 1204 2497 
Q 953 2441 691 2322 
L 691 4666 
z
" transform="scale(0.015625)"/>
       </defs>
       <use xlink:href="#DejaVuSans-35"/>
      </g>
     </g>
    </g>
    <g id="xtick_3">
     <g id="line2d_3">
      <g>
       <use xlink:href="#mc34cf3b006" x="222.372509" y="216.26532" style="stroke: #000000; stroke-width: 0.8"/>
      </g>
     </g>
     <g id="text_3">
      <!-- 10 -->
      <g transform="translate(216.010009 230.863757) scale(0.1 -0.1)">
       <defs>
        <path id="DejaVuSans-31" d="M 794 531 
L 1825 531 
L 1825 4091 
L 703 3866 
L 703 4441 
L 1819 4666 
L 2450 4666 
L 2450 531 
L 3481 531 
L 3481 0 
L 794 0 
L 794 531 
z
" transform="scale(0.015625)"/>
       </defs>
       <use xlink:href="#DejaVuSans-31"/>
       <use xlink:href="#DejaVuSans-30" transform="translate(63.623047 0)"/>
      </g>
     </g>
    </g>
    <g id="xtick_4">
     <g id="line2d_4">
      <g>
       <use xlink:href="#mc34cf3b006" x="300.342378" y="216.26532" style="stroke: #000000; stroke-width: 0.8"/>
      </g>
     </g>
     <g id="text_4">
      <!-- 15 -->
      <g transform="translate(293.979878 230.863757) scale(0.1 -0.1)">
       <use xlink:href="#DejaVuSans-31"/>
       <use xlink:href="#DejaVuSans-35" transform="translate(63.623047 0)"/>
      </g>
     </g>
    </g>
    <g id="xtick_5">
     <g id="line2d_5">
      <g>
       <use xlink:href="#mc34cf3b006" x="378.312248" y="216.26532" style="stroke: #000000; stroke-width: 0.8"/>
      </g>
     </g>
     <g id="text_5">
      <!-- 20 -->
      <g transform="translate(371.949748 230.863757) scale(0.1 -0.1)">
       <defs>
        <path id="DejaVuSans-32" d="M 1228 531 
L 3431 531 
L 3431 0 
L 469 0 
L 469 531 
Q 828 903 1448 1529 
Q 2069 2156 2228 2338 
Q 2531 2678 2651 2914 
Q 2772 3150 2772 3378 
Q 2772 3750 2511 3984 
Q 2250 4219 1831 4219 
Q 1534 4219 1204 4116 
Q 875 4013 500 3803 
L 500 4441 
Q 881 4594 1212 4672 
Q 1544 4750 1819 4750 
Q 2544 4750 2975 4387 
Q 3406 4025 3406 3419 
Q 3406 3131 3298 2873 
Q 3191 2616 2906 2266 
Q 2828 2175 2409 1742 
Q 1991 1309 1228 531 
z
" transform="scale(0.015625)"/>
       </defs>
       <use xlink:href="#DejaVuSans-32"/>
       <use xlink:href="#DejaVuSans-30" transform="translate(63.623047 0)"/>
      </g>
     </g>
    </g>
    <g id="xtick_6">
     <g id="line2d_6">
      <g>
       <use xlink:href="#mc34cf3b006" x="456.282118" y="216.26532" style="stroke: #000000; stroke-width: 0.8"/>
      </g>
     </g>
     <g id="text_6">
      <!-- 25 -->
      <g transform="translate(449.919618 230.863757) scale(0.1 -0.1)">
       <use xlink:href="#DejaVuSans-32"/>
       <use xlink:href="#DejaVuSans-35" transform="translate(63.623047 0)"/>
      </g>
     </g>
    </g>
    <g id="text_7">
     <!-- Номер слоя -->
     <g transform="translate(223.116707 244.541882) scale(0.1 -0.1)">
      <defs>
       <path id="DejaVuSans-41d" d="M 628 4666 
L 1259 4666 
L 1259 2753 
L 3553 2753 
L 3553 4666 
L 4184 4666 
L 4184 0 
L 3553 0 
L 3553 2222 
L 1259 2222 
L 1259 0 
L 628 0 
L 628 4666 
z
" transform="scale(0.015625)"/>
       <path id="DejaVuSans-43e" d="M 1959 3097 
Q 1497 3097 1228 2736 
Q 959 2375 959 1747 
Q 959 1119 1226 758 
Q 1494 397 1959 397 
Q 2419 397 2687 759 
Q 2956 1122 2956 1747 
Q 2956 2369 2687 2733 
Q 2419 3097 1959 3097 
z
M 1959 3584 
Q 2709 3584 3137 3096 
Q 3566 2609 3566 1747 
Q 3566 888 3137 398 
Q 2709 -91 1959 -91 
Q 1206 -91 779 398 
Q 353 888 353 1747 
Q 353 2609 779 3096 
Q 1206 3584 1959 3584 
z
" transform="scale(0.015625)"/>
       <path id="DejaVuSans-43c" d="M 581 3500 
L 1422 3500 
L 2416 1156 
L 3413 3500 
L 4247 3500 
L 4247 0 
L 3669 0 
L 3669 2950 
L 2703 672 
L 2128 672 
L 1159 2950 
L 1159 0 
L 581 0 
L 581 3500 
z
" transform="scale(0.015625)"/>
       <path id="DejaVuSans-435" d="M 3597 1894 
L 3597 1613 
L 953 1613 
Q 991 1019 1311 708 
Q 1631 397 2203 397 
Q 2534 397 2845 478 
Q 3156 559 3463 722 
L 3463 178 
Q 3153 47 2828 -22 
Q 2503 -91 2169 -91 
Q 1331 -91 842 396 
Q 353 884 353 1716 
Q 353 2575 817 3079 
Q 1281 3584 2069 3584 
Q 2775 3584 3186 3129 
Q 3597 2675 3597 1894 
z
M 3022 2063 
Q 3016 2534 2758 2815 
Q 2500 3097 2075 3097 
Q 1594 3097 1305 2825 
Q 1016 2553 972 2059 
L 3022 2063 
z
" transform="scale(0.015625)"/>
       <path id="DejaVuSans-440" d="M 1159 525 
L 1159 -1331 
L 581 -1331 
L 581 3500 
L 1159 3500 
L 1159 2969 
Q 1341 3281 1617 3432 
Q 1894 3584 2278 3584 
Q 2916 3584 3314 3078 
Q 3713 2572 3713 1747 
Q 3713 922 3314 415 
Q 2916 -91 2278 -91 
Q 1894 -91 1617 61 
Q 1341 213 1159 525 
z
M 3116 1747 
Q 3116 2381 2855 2742 
Q 2594 3103 2138 3103 
Q 1681 3103 1420 2742 
Q 1159 2381 1159 1747 
Q 1159 1113 1420 752 
Q 1681 391 2138 391 
Q 2594 391 2855 752 
Q 3116 1113 3116 1747 
z
" transform="scale(0.015625)"/>
       <path id="DejaVuSans-20" transform="scale(0.015625)"/>
       <path id="DejaVuSans-441" d="M 3122 3366 
L 3122 2828 
Q 2878 2963 2633 3030 
Q 2388 3097 2138 3097 
Q 1578 3097 1268 2742 
Q 959 2388 959 1747 
Q 959 1106 1268 751 
Q 1578 397 2138 397 
Q 2388 397 2633 464 
Q 2878 531 3122 666 
L 3122 134 
Q 2881 22 2623 -34 
Q 2366 -91 2075 -91 
Q 1284 -91 818 406 
Q 353 903 353 1747 
Q 353 2603 823 3093 
Q 1294 3584 2113 3584 
Q 2378 3584 2631 3529 
Q 2884 3475 3122 3366 
z
" transform="scale(0.015625)"/>
       <path id="DejaVuSans-43b" d="M 238 0 
L 238 478 
Q 806 566 981 959 
Q 1194 1513 1194 2928 
L 1194 3500 
L 3559 3500 
L 3559 0 
L 2984 0 
L 2984 3041 
L 1769 3041 
L 1769 2694 
Q 1769 1344 1494 738 
Q 1200 91 238 0 
z
" transform="scale(0.015625)"/>
       <path id="DejaVuSans-44f" d="M 1181 2491 
Q 1181 2231 1381 2084 
Q 1581 1938 1953 1938 
L 2728 1938 
L 2728 3041 
L 1953 3041 
Q 1581 3041 1381 2897 
Q 1181 2753 1181 2491 
z
M 363 0 
L 1431 1534 
Q 1069 1616 828 1830 
Q 588 2044 588 2491 
Q 588 2997 923 3248 
Q 1259 3500 1938 3500 
L 3306 3500 
L 3306 0 
L 2728 0 
L 2728 1478 
L 2013 1478 
L 981 0 
L 363 0 
z
" transform="scale(0.015625)"/>
      </defs>
      <use xlink:href="#DejaVuSans-41d"/>
      <use xlink:href="#DejaVuSans-43e" transform="translate(75.195312 0)"/>
      <use xlink:href="#DejaVuSans-43c" transform="translate(136.376953 0)"/>
      <use xlink:href="#DejaVuSans-435" transform="translate(211.816406 0)"/>
      <use xlink:href="#DejaVuSans-440" transform="translate(273.339844 0)"/>
      <use xlink:href="#DejaVuSans-20" transform="translate(336.816406 0)"/>
      <use xlink:href="#DejaVuSans-441" transform="translate(368.603516 0)"/>
      <use xlink:href="#DejaVuSans-43b" transform="translate(423.583984 0)"/>
      <use xlink:href="#DejaVuSans-43e" transform="translate(487.5 0)"/>
      <use xlink:href="#DejaVuSans-44f" transform="translate(548.681641 0)"/>
     </g>
    </g>
   </g>
   <g id="matplotlib.axis_2">
    <g id="ytick_1">
     <g id="line2d_7">
      <defs>
       <path id="m4d36dddf8d" d="M 0 0 
L -3.5 0 
" style="stroke: #000000; stroke-width: 0.8"/>
      </defs>
      <g>
       <use xlink:href="#m4d36dddf8d" x="47.72" y="199.756053" style="stroke: #000000; stroke-width: 0.8"/>
      </g>
     </g>
     <g id="text_8">
      <!-- 0.2 -->
      <g transform="translate(24.816875 203.555272) scale(0.1 -0.1)">
       <defs>
        <path id="DejaVuSans-2e" d="M 684 794 
L 1344 794 
L 1344 0 
L 684 0 
L 684 794 
z
" transform="scale(0.015625)"/>
       </defs>
       <use xlink:href="#DejaVuSans-30"/>
       <use xlink:href="#DejaVuSans-2e" transform="translate(63.623047 0)"/>
       <use xlink:href="#DejaVuSans-32" transform="translate(95.410156 0)"/>
      </g>
     </g>
    </g>
    <g id="ytick_2">
     <g id="line2d_8">
      <g>
       <use xlink:href="#m4d36dddf8d" x="47.72" y="155.245776" style="stroke: #000000; stroke-width: 0.8"/>
      </g>
     </g>
     <g id="text_9">
      <!-- 0.4 -->
      <g transform="translate(24.816875 159.044994) scale(0.1 -0.1)">
       <defs>
        <path id="DejaVuSans-34" d="M 2419 4116 
L 825 1625 
L 2419 1625 
L 2419 4116 
z
M 2253 4666 
L 3047 4666 
L 3047 1625 
L 3713 1625 
L 3713 1100 
L 3047 1100 
L 3047 0 
L 2419 0 
L 2419 1100 
L 313 1100 
L 313 1709 
L 2253 4666 
z
" transform="scale(0.015625)"/>
       </defs>
       <use xlink:href="#DejaVuSans-30"/>
       <use xlink:href="#DejaVuSans-2e" transform="translate(63.623047 0)"/>
       <use xlink:href="#DejaVuSans-34" transform="translate(95.410156 0)"/>
      </g>
     </g>
    </g>
    <g id="ytick_3">
     <g id="line2d_9">
      <g>
       <use xlink:href="#m4d36dddf8d" x="47.72" y="110.735498" style="stroke: #000000; stroke-width: 0.8"/>
      </g>
     </g>
     <g id="text_10">
      <!-- 0.6 -->
      <g transform="translate(24.816875 114.534717) scale(0.1 -0.1)">
       <defs>
        <path id="DejaVuSans-36" d="M 2113 2584 
Q 1688 2584 1439 2293 
Q 1191 2003 1191 1497 
Q 1191 994 1439 701 
Q 1688 409 2113 409 
Q 2538 409 2786 701 
Q 3034 994 3034 1497 
Q 3034 2003 2786 2293 
Q 2538 2584 2113 2584 
z
M 3366 4563 
L 3366 3988 
Q 3128 4100 2886 4159 
Q 2644 4219 2406 4219 
Q 1781 4219 1451 3797 
Q 1122 3375 1075 2522 
Q 1259 2794 1537 2939 
Q 1816 3084 2150 3084 
Q 2853 3084 3261 2657 
Q 3669 2231 3669 1497 
Q 3669 778 3244 343 
Q 2819 -91 2113 -91 
Q 1303 -91 875 529 
Q 447 1150 447 2328 
Q 447 3434 972 4092 
Q 1497 4750 2381 4750 
Q 2619 4750 2861 4703 
Q 3103 4656 3366 4563 
z
" transform="scale(0.015625)"/>
       </defs>
       <use xlink:href="#DejaVuSans-30"/>
       <use xlink:href="#DejaVuSans-2e" transform="translate(63.623047 0)"/>
       <use xlink:href="#DejaVuSans-36" transform="translate(95.410156 0)"/>
      </g>
     </g>
    </g>
    <g id="ytick_4">
     <g id="line2d_10">
      <g>
       <use xlink:href="#m4d36dddf8d" x="47.72" y="66.225221" style="stroke: #000000; stroke-width: 0.8"/>
      </g>
     </g>
     <g id="text_11">
      <!-- 0.8 -->
      <g transform="translate(24.816875 70.024439) scale(0.1 -0.1)">
       <defs>
        <path id="DejaVuSans-38" d="M 2034 2216 
Q 1584 2216 1326 1975 
Q 1069 1734 1069 1313 
Q 1069 891 1326 650 
Q 1584 409 2034 409 
Q 2484 409 2743 651 
Q 3003 894 3003 1313 
Q 3003 1734 2745 1975 
Q 2488 2216 2034 2216 
z
M 1403 2484 
Q 997 2584 770 2862 
Q 544 3141 544 3541 
Q 544 4100 942 4425 
Q 1341 4750 2034 4750 
Q 2731 4750 3128 4425 
Q 3525 4100 3525 3541 
Q 3525 3141 3298 2862 
Q 3072 2584 2669 2484 
Q 3125 2378 3379 2068 
Q 3634 1759 3634 1313 
Q 3634 634 3220 271 
Q 2806 -91 2034 -91 
Q 1263 -91 848 271 
Q 434 634 434 1313 
Q 434 1759 690 2068 
Q 947 2378 1403 2484 
z
M 1172 3481 
Q 1172 3119 1398 2916 
Q 1625 2713 2034 2713 
Q 2441 2713 2670 2916 
Q 2900 3119 2900 3481 
Q 2900 3844 2670 4047 
Q 2441 4250 2034 4250 
Q 1625 4250 1398 4047 
Q 1172 3844 1172 3481 
z
" transform="scale(0.015625)"/>
       </defs>
       <use xlink:href="#DejaVuSans-30"/>
       <use xlink:href="#DejaVuSans-2e" transform="translate(63.623047 0)"/>
       <use xlink:href="#DejaVuSans-38" transform="translate(95.410156 0)"/>
      </g>
     </g>
    </g>
    <g id="ytick_5">
     <g id="line2d_11">
      <g>
       <use xlink:href="#m4d36dddf8d" x="47.72" y="21.714943" style="stroke: #000000; stroke-width: 0.8"/>
      </g>
     </g>
     <g id="text_12">
      <!-- 1.0 -->
      <g transform="translate(24.816875 25.514162) scale(0.1 -0.1)">
       <use xlink:href="#DejaVuSans-31"/>
       <use xlink:href="#DejaVuSans-2e" transform="translate(63.623047 0)"/>
       <use xlink:href="#DejaVuSans-30" transform="translate(95.410156 0)"/>
      </g>
     </g>
    </g>
    <g id="text_13">
     <!-- Межслойная устойчивость -->
     <g transform="translate(18.737187 185.184542) rotate(-90) scale(0.1 -0.1)">
      <defs>
       <path id="DejaVuSans-41c" d="M 628 4666 
L 1569 4666 
L 2759 1491 
L 3956 4666 
L 4897 4666 
L 4897 0 
L 4281 0 
L 4281 4097 
L 3078 897 
L 2444 897 
L 1241 4097 
L 1241 0 
L 628 0 
L 628 4666 
z
" transform="scale(0.015625)"/>
       <path id="DejaVuSans-436" d="M 2597 3500 
L 3169 3500 
L 3169 1856 
L 4697 3500 
L 5366 3500 
L 4109 2153 
L 5547 0 
L 4931 0 
L 3753 1769 
L 3169 1141 
L 3169 0 
L 2597 0 
L 2597 1141 
L 2013 1769 
L 834 0 
L 219 0 
L 1656 2153 
L 400 3500 
L 1069 3500 
L 2597 1856 
L 2597 3500 
z
" transform="scale(0.015625)"/>
       <path id="DejaVuSans-439" d="M 3578 3500 
L 3578 0 
L 3006 0 
L 3006 2809 
L 1319 0 
L 581 0 
L 581 3500 
L 1153 3500 
L 1153 697 
L 2838 3500 
L 3578 3500 
z
M 1102 4833 
L 1471 4833 
Q 1505 4599 1656 4481 
Q 1808 4364 2080 4364 
Q 2349 4364 2499 4480 
Q 2649 4596 2689 4833 
L 3058 4833 
Q 3027 4386 2780 4161 
Q 2533 3936 2080 3936 
Q 1627 3936 1380 4161 
Q 1133 4386 1102 4833 
z
" transform="scale(0.015625)"/>
       <path id="DejaVuSans-43d" d="M 581 3500 
L 1159 3500 
L 1159 2072 
L 3025 2072 
L 3025 3500 
L 3603 3500 
L 3603 0 
L 3025 0 
L 3025 1613 
L 1159 1613 
L 1159 0 
L 581 0 
L 581 3500 
z
" transform="scale(0.015625)"/>
       <path id="DejaVuSans-430" d="M 2194 1759 
Q 1497 1759 1228 1600 
Q 959 1441 959 1056 
Q 959 750 1161 570 
Q 1363 391 1709 391 
Q 2188 391 2477 730 
Q 2766 1069 2766 1631 
L 2766 1759 
L 2194 1759 
z
M 3341 1997 
L 3341 0 
L 2766 0 
L 2766 531 
Q 2569 213 2275 61 
Q 1981 -91 1556 -91 
Q 1019 -91 701 211 
Q 384 513 384 1019 
Q 384 1609 779 1909 
Q 1175 2209 1959 2209 
L 2766 2209 
L 2766 2266 
Q 2766 2663 2505 2880 
Q 2244 3097 1772 3097 
Q 1472 3097 1187 3025 
Q 903 2953 641 2809 
L 641 3341 
Q 956 3463 1253 3523 
Q 1550 3584 1831 3584 
Q 2591 3584 2966 3190 
Q 3341 2797 3341 1997 
z
" transform="scale(0.015625)"/>
       <path id="DejaVuSans-443" d="M 2059 -325 
Q 1816 -950 1584 -1140 
Q 1353 -1331 966 -1331 
L 506 -1331 
L 506 -850 
L 844 -850 
Q 1081 -850 1212 -737 
Q 1344 -625 1503 -206 
L 1606 56 
L 191 3500 
L 800 3500 
L 1894 763 
L 2988 3500 
L 3597 3500 
L 2059 -325 
z
" transform="scale(0.015625)"/>
       <path id="DejaVuSans-442" d="M 188 3500 
L 3541 3500 
L 3541 3041 
L 2147 3041 
L 2147 0 
L 1581 0 
L 1581 3041 
L 188 3041 
L 188 3500 
z
" transform="scale(0.015625)"/>
       <path id="DejaVuSans-447" d="M 2625 0 
L 2625 1472 
L 1553 1472 
Q 1075 1472 756 1769 
Q 469 2038 469 2613 
L 469 3500 
L 1044 3500 
L 1044 2666 
Q 1044 2300 1206 2116 
Q 1372 1931 1697 1931 
L 2625 1931 
L 2625 3500 
L 3200 3500 
L 3200 0 
L 2625 0 
z
" transform="scale(0.015625)"/>
       <path id="DejaVuSans-438" d="M 3578 3500 
L 3578 0 
L 3006 0 
L 3006 2809 
L 1319 0 
L 581 0 
L 581 3500 
L 1153 3500 
L 1153 697 
L 2838 3500 
L 3578 3500 
z
" transform="scale(0.015625)"/>
       <path id="DejaVuSans-432" d="M 1156 1613 
L 1156 459 
L 1975 459 
Q 2369 459 2575 607 
Q 2781 756 2781 1038 
Q 2781 1319 2575 1466 
Q 2369 1613 1975 1613 
L 1156 1613 
z
M 1156 3041 
L 1156 2072 
L 1913 2072 
Q 2238 2072 2444 2201 
Q 2650 2331 2650 2563 
Q 2650 2794 2444 2917 
Q 2238 3041 1913 3041 
L 1156 3041 
z
M 581 3500 
L 1950 3500 
Q 2566 3500 2897 3275 
Q 3228 3050 3228 2634 
Q 3228 2313 3059 2123 
Q 2891 1934 2559 1888 
Q 2956 1813 3175 1575 
Q 3394 1338 3394 981 
Q 3394 513 3033 256 
Q 2672 0 2003 0 
L 581 0 
L 581 3500 
z
" transform="scale(0.015625)"/>
       <path id="DejaVuSans-44c" d="M 2781 1038 
Q 2781 1319 2576 1466 
Q 2372 1613 1978 1613 
L 1159 1613 
L 1159 459 
L 1978 459 
Q 2372 459 2576 607 
Q 2781 756 2781 1038 
z
M 581 3500 
L 1159 3500 
L 1159 2072 
L 2003 2072 
Q 2672 2072 3033 1817 
Q 3394 1563 3394 1038 
Q 3394 513 3033 256 
Q 2672 0 2003 0 
L 581 0 
L 581 3500 
z
" transform="scale(0.015625)"/>
      </defs>
      <use xlink:href="#DejaVuSans-41c"/>
      <use xlink:href="#DejaVuSans-435" transform="translate(86.279297 0)"/>
      <use xlink:href="#DejaVuSans-436" transform="translate(147.802734 0)"/>
      <use xlink:href="#DejaVuSans-441" transform="translate(237.890625 0)"/>
      <use xlink:href="#DejaVuSans-43b" transform="translate(292.871094 0)"/>
      <use xlink:href="#DejaVuSans-43e" transform="translate(356.787109 0)"/>
      <use xlink:href="#DejaVuSans-439" transform="translate(417.96875 0)"/>
      <use xlink:href="#DejaVuSans-43d" transform="translate(482.958984 0)"/>
      <use xlink:href="#DejaVuSans-430" transform="translate(548.339844 0)"/>
      <use xlink:href="#DejaVuSans-44f" transform="translate(609.619141 0)"/>
      <use xlink:href="#DejaVuSans-20" transform="translate(669.775391 0)"/>
      <use xlink:href="#DejaVuSans-443" transform="translate(701.5625 0)"/>
      <use xlink:href="#DejaVuSans-441" transform="translate(760.742188 0)"/>
      <use xlink:href="#DejaVuSans-442" transform="translate(815.722656 0)"/>
      <use xlink:href="#DejaVuSans-43e" transform="translate(873.974609 0)"/>
      <use xlink:href="#DejaVuSans-439" transform="translate(935.15625 0)"/>
      <use xlink:href="#DejaVuSans-447" transform="translate(1000.146484 0)"/>
      <use xlink:href="#DejaVuSans-438" transform="translate(1059.228516 0)"/>
      <use xlink:href="#DejaVuSans-432" transform="translate(1124.21875 0)"/>
      <use xlink:href="#DejaVuSans-43e" transform="translate(1183.154297 0)"/>
      <use xlink:href="#DejaVuSans-441" transform="translate(1244.335938 0)"/>
      <use xlink:href="#DejaVuSans-442" transform="translate(1299.316406 0)"/>
      <use xlink:href="#DejaVuSans-44c" transform="translate(1357.568359 0)"/>
     </g>
    </g>
   </g>
   <g id="line2d_12">
    <path d="M 66.432769 132.990637 
L 82.026743 132.990637 
L 97.620717 132.990637 
L 113.214691 132.990637 
L 128.808665 132.990637 
L 144.402639 21.714943 
L 159.996613 21.714943 
L 175.590587 21.714943 
L 191.184561 128.959018 
L 206.778535 77.926481 
L 222.372509 62.019651 
L 237.966483 77.250167 
L 253.560457 101.390104 
L 269.154431 59.796396 
L 284.748404 121.509031 
L 300.342378 110.278571 
L 315.936352 88.331214 
L 331.530326 119.931583 
L 347.1243 76.669101 
L 362.718274 104.243916 
L 378.312248 102.232753 
L 393.906222 51.096382 
L 409.500196 82.713622 
L 425.09417 108.693506 
L 440.688144 106.988284 
" clip-path="url(#p70c47cd808)" style="fill: none; stroke: #648fff; stroke-width: 1.5; stroke-linecap: square"/>
   </g>
   <g id="line2d_13">
    <path d="M 66.432769 128.539609 
L 82.026743 128.539609 
L 97.620717 128.539609 
L 113.214691 128.539609 
L 128.808665 128.539609 
L 144.402639 21.714943 
L 159.996613 21.714943 
L 175.590587 21.714943 
L 191.184561 116.670202 
L 206.778535 72.159924 
L 222.372509 72.159924 
L 237.966483 95.156901 
L 253.560457 123.198376 
L 269.154431 95.156901 
L 284.748404 149.681991 
L 300.342378 149.681991 
L 315.936352 137.441665 
L 331.530326 156.234893 
L 347.1243 125.572257 
L 362.718274 141.256831 
L 378.312248 137.441665 
L 393.906222 95.156901 
L 409.500196 119.637554 
L 425.09417 147.827396 
L 440.688144 147.827396 
" clip-path="url(#p70c47cd808)" style="fill: none; stroke: #785ef0; stroke-width: 1.5; stroke-linecap: square"/>
   </g>
   <g id="line2d_14">
    <path d="M 66.432769 132.990637 
L 82.026743 132.990637 
L 97.620717 132.990637 
L 113.214691 132.990637 
L 128.808665 132.990637 
L 144.402639 21.714943 
L 159.996613 21.714943 
L 175.590587 21.714943 
L 191.184561 115.80227 
L 206.778535 68.393183 
L 222.372509 73.866158 
L 237.966483 104.586864 
L 253.560457 136.398568 
L 269.154431 113.345495 
L 284.748404 168.746321 
L 300.342378 171.527766 
L 315.936352 162.777067 
L 331.530326 179.388565 
L 347.1243 152.630645 
L 362.718274 165.31584 
L 378.312248 160.835031 
L 393.906222 121.547014 
L 409.500196 143.324561 
L 425.09417 167.022459 
L 440.688144 166.071836 
" clip-path="url(#p70c47cd808)" style="fill: none; stroke: #dc267f; stroke-width: 1.5; stroke-linecap: square"/>
   </g>
   <g id="line2d_15">
    <path d="M 66.432769 132.990637 
L 82.026743 132.990637 
L 97.620717 132.990637 
L 113.214691 132.990637 
L 128.808665 132.990637 
L 144.402639 21.714943 
L 159.996613 21.714943 
L 175.590587 21.714943 
L 191.184561 111.42558 
L 206.778535 61.729233 
L 222.372509 70.861708 
L 237.966483 108.183954 
L 253.560457 142.406273 
L 269.154431 124.485488 
L 284.748404 179.065729 
L 300.342378 183.401898 
L 315.936352 177.537883 
L 331.530326 192.214717 
L 347.1243 169.502974 
L 362.718274 179.594603 
L 378.312248 174.466123 
L 393.906222 139.329126 
L 409.500196 157.8538 
L 425.09417 176.2422 
L 440.688144 174.904482 
" clip-path="url(#p70c47cd808)" style="fill: none; stroke: #fe6100; stroke-width: 1.5; stroke-linecap: square"/>
   </g>
   <g id="line2d_16">
    <path d="M 66.432769 132.990637 
L 82.026743 132.990637 
L 97.620717 132.990637 
L 113.214691 132.990637 
L 128.808665 132.990637 
L 144.402639 21.714943 
L 159.996613 21.714943 
L 175.590587 21.714943 
L 191.184561 104.800795 
L 206.778535 49.394012 
L 222.372509 62.1981 
L 237.966483 110.483553 
L 253.560457 148.911621 
L 269.154431 138.533426 
L 284.748404 192.264815 
L 300.342378 197.950103 
L 315.936352 195.099306 
L 331.530326 207.001016 
L 347.1243 189.319742 
L 362.718274 196.3564 
L 378.312248 190.214482 
L 393.906222 161.219523 
L 409.500196 175.70879 
L 425.09417 187.783732 
L 440.688144 186.41054 
" clip-path="url(#p70c47cd808)" style="fill: none; stroke: #ffb000; stroke-width: 1.5; stroke-linecap: square"/>
   </g>
   <g id="patch_3">
    <path d="M 47.72 216.26532 
L 47.72 12.45064 
" style="fill: none; stroke: #000000; stroke-width: 0.8; stroke-linejoin: miter; stroke-linecap: square"/>
   </g>
   <g id="patch_4">
    <path d="M 459.400913 216.26532 
L 459.400913 12.45064 
" style="fill: none; stroke: #000000; stroke-width: 0.8; stroke-linejoin: miter; stroke-linecap: square"/>
   </g>
   <g id="patch_5">
    <path d="M 47.72 216.26532 
L 459.400913 216.26532 
" style="fill: none; stroke: #000000; stroke-width: 0.8; stroke-linejoin: miter; stroke-linecap: square"/>
   </g>
   <g id="patch_6">
    <path d="M 47.72 12.45064 
L 459.400913 12.45064 
" style="fill: none; stroke: #000000; stroke-width: 0.8; stroke-linejoin: miter; stroke-linecap: square"/>
   </g>
   <g id="legend_1">
    <g id="patch_7">
     <path d="M 54.72 211.26532 
L 136.32 211.26532 
Q 138.32 211.26532 138.32 209.26532 
L 138.32 136.874695 
Q 138.32 134.874695 136.32 134.874695 
L 54.72 134.874695 
Q 52.72 134.874695 52.72 136.874695 
L 52.72 209.26532 
Q 52.72 211.26532 54.72 211.26532 
z
" style="fill: #ffffff; opacity: 0.8; stroke: #cccccc; stroke-linejoin: miter"/>
    </g>
    <g id="line2d_17">
     <path d="M 56.72 142.973132 
L 66.72 142.973132 
L 76.72 142.973132 
" style="fill: none; stroke: #648fff; stroke-width: 1.5; stroke-linecap: square"/>
    </g>
    <g id="text_14">
     <!-- $\alpha=-1.00$ -->
     <g transform="translate(84.72 146.473132) scale(0.1 -0.1)">
      <defs>
       <path id="DejaVuSans-Oblique-3b1" d="M 2619 1628 
L 2622 2350 
Q 2625 3088 2069 3091 
Q 1653 3094 1394 2747 
Q 1069 2319 959 1747 
Q 825 1059 994 731 
Q 1169 397 1547 397 
Q 1966 397 2319 1063 
L 2619 1628 
z
M 2166 3578 
Q 3141 3594 3128 2584 
Q 3128 2584 3616 3500 
L 4128 3500 
L 3119 1603 
L 3109 919 
Q 3109 766 3194 638 
Q 3291 488 3391 488 
L 3669 488 
L 3575 0 
L 3228 0 
Q 2934 0 2722 263 
Q 2622 394 2619 669 
Q 2416 334 2066 50 
Q 1900 -81 1453 -78 
Q 722 -72 456 397 
Q 184 884 353 1747 
Q 534 2675 1009 3097 
Q 1544 3569 2166 3578 
z
" transform="scale(0.015625)"/>
       <path id="DejaVuSans-3d" d="M 678 2906 
L 4684 2906 
L 4684 2381 
L 678 2381 
L 678 2906 
z
M 678 1631 
L 4684 1631 
L 4684 1100 
L 678 1100 
L 678 1631 
z
" transform="scale(0.015625)"/>
       <path id="DejaVuSans-2212" d="M 678 2272 
L 4684 2272 
L 4684 1741 
L 678 1741 
L 678 2272 
z
" transform="scale(0.015625)"/>
      </defs>
      <use xlink:href="#DejaVuSans-Oblique-3b1" transform="translate(0 0.78125)"/>
      <use xlink:href="#DejaVuSans-3d" transform="translate(85.400391 0.78125)"/>
      <use xlink:href="#DejaVuSans-2212" transform="translate(188.671875 0.78125)"/>
      <use xlink:href="#DejaVuSans-31" transform="translate(272.460938 0.78125)"/>
      <use xlink:href="#DejaVuSans-2e" transform="translate(336.083984 0.78125)"/>
      <use xlink:href="#DejaVuSans-30" transform="translate(367.871094 0.78125)"/>
      <use xlink:href="#DejaVuSans-30" transform="translate(431.494141 0.78125)"/>
     </g>
    </g>
    <g id="line2d_18">
     <path d="M 56.72 157.651257 
L 66.72 157.651257 
L 76.72 157.651257 
" style="fill: none; stroke: #785ef0; stroke-width: 1.5; stroke-linecap: square"/>
    </g>
    <g id="text_15">
     <!-- $\alpha=0.00$ -->
     <g transform="translate(84.72 161.151257) scale(0.1 -0.1)">
      <use xlink:href="#DejaVuSans-Oblique-3b1" transform="translate(0 0.78125)"/>
      <use xlink:href="#DejaVuSans-3d" transform="translate(85.400391 0.78125)"/>
      <use xlink:href="#DejaVuSans-30" transform="translate(188.671875 0.78125)"/>
      <use xlink:href="#DejaVuSans-2e" transform="translate(252.294922 0.78125)"/>
      <use xlink:href="#DejaVuSans-30" transform="translate(284.082031 0.78125)"/>
      <use xlink:href="#DejaVuSans-30" transform="translate(347.705078 0.78125)"/>
     </g>
    </g>
    <g id="line2d_19">
     <path d="M 56.72 172.329382 
L 66.72 172.329382 
L 76.72 172.329382 
" style="fill: none; stroke: #dc267f; stroke-width: 1.5; stroke-linecap: square"/>
    </g>
    <g id="text_16">
     <!-- $\alpha=0.50$ -->
     <g transform="translate(84.72 175.829382) scale(0.1 -0.1)">
      <use xlink:href="#DejaVuSans-Oblique-3b1" transform="translate(0 0.78125)"/>
      <use xlink:href="#DejaVuSans-3d" transform="translate(85.400391 0.78125)"/>
      <use xlink:href="#DejaVuSans-30" transform="translate(188.671875 0.78125)"/>
      <use xlink:href="#DejaVuSans-2e" transform="translate(252.294922 0.78125)"/>
      <use xlink:href="#DejaVuSans-35" transform="translate(284.082031 0.78125)"/>
      <use xlink:href="#DejaVuSans-30" transform="translate(347.705078 0.78125)"/>
     </g>
    </g>
    <g id="line2d_20">
     <path d="M 56.72 187.007507 
L 66.72 187.007507 
L 76.72 187.007507 
" style="fill: none; stroke: #fe6100; stroke-width: 1.5; stroke-linecap: square"/>
    </g>
    <g id="text_17">
     <!-- $\alpha=1.00$ -->
     <g transform="translate(84.72 190.507507) scale(0.1 -0.1)">
      <use xlink:href="#DejaVuSans-Oblique-3b1" transform="translate(0 0.78125)"/>
      <use xlink:href="#DejaVuSans-3d" transform="translate(85.400391 0.78125)"/>
      <use xlink:href="#DejaVuSans-31" transform="translate(188.671875 0.78125)"/>
      <use xlink:href="#DejaVuSans-2e" transform="translate(252.294922 0.78125)"/>
      <use xlink:href="#DejaVuSans-30" transform="translate(284.082031 0.78125)"/>
      <use xlink:href="#DejaVuSans-30" transform="translate(347.705078 0.78125)"/>
     </g>
    </g>
    <g id="line2d_21">
     <path d="M 56.72 201.685632 
L 66.72 201.685632 
L 76.72 201.685632 
" style="fill: none; stroke: #ffb000; stroke-width: 1.5; stroke-linecap: square"/>
    </g>
    <g id="text_18">
     <!-- $\alpha=2.00$ -->
     <g transform="translate(84.72 205.185632) scale(0.1 -0.1)">
      <use xlink:href="#DejaVuSans-Oblique-3b1" transform="translate(0 0.78125)"/>
      <use xlink:href="#DejaVuSans-3d" transform="translate(85.400391 0.78125)"/>
      <use xlink:href="#DejaVuSans-32" transform="translate(188.671875 0.78125)"/>
      <use xlink:href="#DejaVuSans-2e" transform="translate(252.294922 0.78125)"/>
      <use xlink:href="#DejaVuSans-30" transform="translate(284.082031 0.78125)"/>
      <use xlink:href="#DejaVuSans-30" transform="translate(347.705078 0.78125)"/>
     </g>
    </g>
   </g>
  </g>
  <g id="axes_2">
   <g id="patch_8">
    <path d="M 510.32 216.26532 
L 922.000913 216.26532 
L 922.000913 12.45064 
L 510.32 12.45064 
z
" style="fill: #ffffff"/>
   </g>
   <g id="matplotlib.axis_3">
    <g id="xtick_7">
     <g id="line2d_22">
      <g>
       <use xlink:href="#mc34cf3b006" x="529.032769" y="216.26532" style="stroke: #000000; stroke-width: 0.8"/>
      </g>
     </g>
     <g id="text_19">
      <!-- 0 -->
      <g transform="translate(525.851519 230.863757) scale(0.1 -0.1)">
       <use xlink:href="#DejaVuSans-30"/>
      </g>
     </g>
    </g>
    <g id="xtick_8">
     <g id="line2d_23">
      <g>
       <use xlink:href="#mc34cf3b006" x="607.002639" y="216.26532" style="stroke: #000000; stroke-width: 0.8"/>
      </g>
     </g>
     <g id="text_20">
      <!-- 5 -->
      <g transform="translate(603.821389 230.863757) scale(0.1 -0.1)">
       <use xlink:href="#DejaVuSans-35"/>
      </g>
     </g>
    </g>
    <g id="xtick_9">
     <g id="line2d_24">
      <g>
       <use xlink:href="#mc34cf3b006" x="684.972509" y="216.26532" style="stroke: #000000; stroke-width: 0.8"/>
      </g>
     </g>
     <g id="text_21">
      <!-- 10 -->
      <g transform="translate(678.610009 230.863757) scale(0.1 -0.1)">
       <use xlink:href="#DejaVuSans-31"/>
       <use xlink:href="#DejaVuSans-30" transform="translate(63.623047 0)"/>
      </g>
     </g>
    </g>
    <g id="xtick_10">
     <g id="line2d_25">
      <g>
       <use xlink:href="#mc34cf3b006" x="762.942378" y="216.26532" style="stroke: #000000; stroke-width: 0.8"/>
      </g>
     </g>
     <g id="text_22">
      <!-- 15 -->
      <g transform="translate(756.579878 230.863757) scale(0.1 -0.1)">
       <use xlink:href="#DejaVuSans-31"/>
       <use xlink:href="#DejaVuSans-35" transform="translate(63.623047 0)"/>
      </g>
     </g>
    </g>
    <g id="xtick_11">
     <g id="line2d_26">
      <g>
       <use xlink:href="#mc34cf3b006" x="840.912248" y="216.26532" style="stroke: #000000; stroke-width: 0.8"/>
      </g>
     </g>
     <g id="text_23">
      <!-- 20 -->
      <g transform="translate(834.549748 230.863757) scale(0.1 -0.1)">
       <use xlink:href="#DejaVuSans-32"/>
       <use xlink:href="#DejaVuSans-30" transform="translate(63.623047 0)"/>
      </g>
     </g>
    </g>
    <g id="xtick_12">
     <g id="line2d_27">
      <g>
       <use xlink:href="#mc34cf3b006" x="918.882118" y="216.26532" style="stroke: #000000; stroke-width: 0.8"/>
      </g>
     </g>
     <g id="text_24">
      <!-- 25 -->
      <g transform="translate(912.519618 230.863757) scale(0.1 -0.1)">
       <use xlink:href="#DejaVuSans-32"/>
       <use xlink:href="#DejaVuSans-35" transform="translate(63.623047 0)"/>
      </g>
     </g>
    </g>
    <g id="text_25">
     <!-- Номер слоя -->
     <g transform="translate(685.716707 244.541882) scale(0.1 -0.1)">
      <use xlink:href="#DejaVuSans-41d"/>
      <use xlink:href="#DejaVuSans-43e" transform="translate(75.195312 0)"/>
      <use xlink:href="#DejaVuSans-43c" transform="translate(136.376953 0)"/>
      <use xlink:href="#DejaVuSans-435" transform="translate(211.816406 0)"/>
      <use xlink:href="#DejaVuSans-440" transform="translate(273.339844 0)"/>
      <use xlink:href="#DejaVuSans-20" transform="translate(336.816406 0)"/>
      <use xlink:href="#DejaVuSans-441" transform="translate(368.603516 0)"/>
      <use xlink:href="#DejaVuSans-43b" transform="translate(423.583984 0)"/>
      <use xlink:href="#DejaVuSans-43e" transform="translate(487.5 0)"/>
      <use xlink:href="#DejaVuSans-44f" transform="translate(548.681641 0)"/>
     </g>
    </g>
   </g>
   <g id="matplotlib.axis_4">
    <g id="ytick_6">
     <g id="line2d_28">
      <g>
       <use xlink:href="#m4d36dddf8d" x="510.32" y="207.015129" style="stroke: #000000; stroke-width: 0.8"/>
      </g>
     </g>
     <g id="text_26">
      <!-- 0.0 -->
      <g transform="translate(487.416875 210.814348) scale(0.1 -0.1)">
       <use xlink:href="#DejaVuSans-30"/>
       <use xlink:href="#DejaVuSans-2e" transform="translate(63.623047 0)"/>
       <use xlink:href="#DejaVuSans-30" transform="translate(95.410156 0)"/>
      </g>
     </g>
    </g>
    <g id="ytick_7">
     <g id="line2d_29">
      <g>
       <use xlink:href="#m4d36dddf8d" x="510.32" y="179.55328" style="stroke: #000000; stroke-width: 0.8"/>
      </g>
     </g>
     <g id="text_27">
      <!-- 0.1 -->
      <g transform="translate(487.416875 183.352499) scale(0.1 -0.1)">
       <use xlink:href="#DejaVuSans-30"/>
       <use xlink:href="#DejaVuSans-2e" transform="translate(63.623047 0)"/>
       <use xlink:href="#DejaVuSans-31" transform="translate(95.410156 0)"/>
      </g>
     </g>
    </g>
    <g id="ytick_8">
     <g id="line2d_30">
      <g>
       <use xlink:href="#m4d36dddf8d" x="510.32" y="152.091432" style="stroke: #000000; stroke-width: 0.8"/>
      </g>
     </g>
     <g id="text_28">
      <!-- 0.2 -->
      <g transform="translate(487.416875 155.890651) scale(0.1 -0.1)">
       <use xlink:href="#DejaVuSans-30"/>
       <use xlink:href="#DejaVuSans-2e" transform="translate(63.623047 0)"/>
       <use xlink:href="#DejaVuSans-32" transform="translate(95.410156 0)"/>
      </g>
     </g>
    </g>
    <g id="ytick_9">
     <g id="line2d_31">
      <g>
       <use xlink:href="#m4d36dddf8d" x="510.32" y="124.629584" style="stroke: #000000; stroke-width: 0.8"/>
      </g>
     </g>
     <g id="text_29">
      <!-- 0.3 -->
      <g transform="translate(487.416875 128.428802) scale(0.1 -0.1)">
       <defs>
        <path id="DejaVuSans-33" d="M 2597 2516 
Q 3050 2419 3304 2112 
Q 3559 1806 3559 1356 
Q 3559 666 3084 287 
Q 2609 -91 1734 -91 
Q 1441 -91 1130 -33 
Q 819 25 488 141 
L 488 750 
Q 750 597 1062 519 
Q 1375 441 1716 441 
Q 2309 441 2620 675 
Q 2931 909 2931 1356 
Q 2931 1769 2642 2001 
Q 2353 2234 1838 2234 
L 1294 2234 
L 1294 2753 
L 1863 2753 
Q 2328 2753 2575 2939 
Q 2822 3125 2822 3475 
Q 2822 3834 2567 4026 
Q 2313 4219 1838 4219 
Q 1578 4219 1281 4162 
Q 984 4106 628 3988 
L 628 4550 
Q 988 4650 1302 4700 
Q 1616 4750 1894 4750 
Q 2613 4750 3031 4423 
Q 3450 4097 3450 3541 
Q 3450 3153 3228 2886 
Q 3006 2619 2597 2516 
z
" transform="scale(0.015625)"/>
       </defs>
       <use xlink:href="#DejaVuSans-30"/>
       <use xlink:href="#DejaVuSans-2e" transform="translate(63.623047 0)"/>
       <use xlink:href="#DejaVuSans-33" transform="translate(95.410156 0)"/>
      </g>
     </g>
    </g>
    <g id="ytick_10">
     <g id="line2d_32">
      <g>
       <use xlink:href="#m4d36dddf8d" x="510.32" y="97.167735" style="stroke: #000000; stroke-width: 0.8"/>
      </g>
     </g>
     <g id="text_30">
      <!-- 0.4 -->
      <g transform="translate(487.416875 100.966954) scale(0.1 -0.1)">
       <use xlink:href="#DejaVuSans-30"/>
       <use xlink:href="#DejaVuSans-2e" transform="translate(63.623047 0)"/>
       <use xlink:href="#DejaVuSans-34" transform="translate(95.410156 0)"/>
      </g>
     </g>
    </g>
    <g id="ytick_11">
     <g id="line2d_33">
      <g>
       <use xlink:href="#m4d36dddf8d" x="510.32" y="69.705887" style="stroke: #000000; stroke-width: 0.8"/>
      </g>
     </g>
     <g id="text_31">
      <!-- 0.5 -->
      <g transform="translate(487.416875 73.505106) scale(0.1 -0.1)">
       <use xlink:href="#DejaVuSans-30"/>
       <use xlink:href="#DejaVuSans-2e" transform="translate(63.623047 0)"/>
       <use xlink:href="#DejaVuSans-35" transform="translate(95.410156 0)"/>
      </g>
     </g>
    </g>
    <g id="ytick_12">
     <g id="line2d_34">
      <g>
       <use xlink:href="#m4d36dddf8d" x="510.32" y="42.244039" style="stroke: #000000; stroke-width: 0.8"/>
      </g>
     </g>
     <g id="text_32">
      <!-- 0.6 -->
      <g transform="translate(487.416875 46.043257) scale(0.1 -0.1)">
       <use xlink:href="#DejaVuSans-30"/>
       <use xlink:href="#DejaVuSans-2e" transform="translate(63.623047 0)"/>
       <use xlink:href="#DejaVuSans-36" transform="translate(95.410156 0)"/>
      </g>
     </g>
    </g>
    <g id="ytick_13">
     <g id="line2d_35">
      <g>
       <use xlink:href="#m4d36dddf8d" x="510.32" y="14.78219" style="stroke: #000000; stroke-width: 0.8"/>
      </g>
     </g>
     <g id="text_33">
      <!-- 0.7 -->
      <g transform="translate(487.416875 18.581409) scale(0.1 -0.1)">
       <defs>
        <path id="DejaVuSans-37" d="M 525 4666 
L 3525 4666 
L 3525 4397 
L 1831 0 
L 1172 0 
L 2766 4134 
L 525 4134 
L 525 4666 
z
" transform="scale(0.015625)"/>
       </defs>
       <use xlink:href="#DejaVuSans-30"/>
       <use xlink:href="#DejaVuSans-2e" transform="translate(63.623047 0)"/>
       <use xlink:href="#DejaVuSans-37" transform="translate(95.410156 0)"/>
      </g>
     </g>
    </g>
    <g id="text_34">
     <!-- Межслойная устойчивость -->
     <g transform="translate(481.337187 185.184542) rotate(-90) scale(0.1 -0.1)">
      <use xlink:href="#DejaVuSans-41c"/>
      <use xlink:href="#DejaVuSans-435" transform="translate(86.279297 0)"/>
      <use xlink:href="#DejaVuSans-436" transform="translate(147.802734 0)"/>
      <use xlink:href="#DejaVuSans-441" transform="translate(237.890625 0)"/>
      <use xlink:href="#DejaVuSans-43b" transform="translate(292.871094 0)"/>
      <use xlink:href="#DejaVuSans-43e" transform="translate(356.787109 0)"/>
      <use xlink:href="#DejaVuSans-439" transform="translate(417.96875 0)"/>
      <use xlink:href="#DejaVuSans-43d" transform="translate(482.958984 0)"/>
      <use xlink:href="#DejaVuSans-430" transform="translate(548.339844 0)"/>
      <use xlink:href="#DejaVuSans-44f" transform="translate(609.619141 0)"/>
      <use xlink:href="#DejaVuSans-20" transform="translate(669.775391 0)"/>
      <use xlink:href="#DejaVuSans-443" transform="translate(701.5625 0)"/>
      <use xlink:href="#DejaVuSans-441" transform="translate(760.742188 0)"/>
      <use xlink:href="#DejaVuSans-442" transform="translate(815.722656 0)"/>
      <use xlink:href="#DejaVuSans-43e" transform="translate(873.974609 0)"/>
      <use xlink:href="#DejaVuSans-439" transform="translate(935.15625 0)"/>
      <use xlink:href="#DejaVuSans-447" transform="translate(1000.146484 0)"/>
      <use xlink:href="#DejaVuSans-438" transform="translate(1059.228516 0)"/>
      <use xlink:href="#DejaVuSans-432" transform="translate(1124.21875 0)"/>
      <use xlink:href="#DejaVuSans-43e" transform="translate(1183.154297 0)"/>
      <use xlink:href="#DejaVuSans-441" transform="translate(1244.335938 0)"/>
      <use xlink:href="#DejaVuSans-442" transform="translate(1299.316406 0)"/>
      <use xlink:href="#DejaVuSans-44c" transform="translate(1357.568359 0)"/>
     </g>
    </g>
   </g>
   <g id="line2d_36">
    <path d="M 529.032769 203.080944 
L 544.626743 185.532672 
L 560.220717 177.91463 
L 575.814691 164.15057 
L 591.408665 149.465658 
L 607.002639 141.681967 
L 622.596613 136.849244 
L 638.190587 130.687879 
L 653.784561 120.692125 
L 669.378535 107.337294 
L 684.972509 91.058722 
L 700.566483 77.496925 
L 716.160457 64.767607 
L 731.754431 50.420465 
L 747.348404 40.462389 
L 762.942378 34.770367 
L 778.536352 31.989024 
L 794.130326 31.662156 
L 809.7243 33.039011 
L 825.318274 32.681738 
L 840.912248 31.431954 
L 856.506222 26.207046 
L 872.100196 25.405489 
L 887.69417 21.714943 
L 903.288144 27.315717 
" clip-path="url(#p0c06648c64)" style="fill: none; stroke: #648fff; stroke-width: 1.5; stroke-linecap: square"/>
   </g>
   <g id="line2d_37">
    <path d="M 529.032769 195.30572 
L 544.626743 191.44037 
L 560.220717 189.039197 
L 575.814691 183.777307 
L 591.408665 178.940705 
L 607.002639 174.522754 
L 622.596613 170.331672 
L 638.190587 163.138595 
L 653.784561 153.06308 
L 669.378535 139.882537 
L 684.972509 126.175207 
L 700.566483 116.173235 
L 716.160457 106.36923 
L 731.754431 98.244418 
L 747.348404 93.939732 
L 762.942378 92.212835 
L 778.536352 91.548936 
L 794.130326 91.720681 
L 809.7243 92.982846 
L 825.318274 95.68651 
L 840.912248 99.500126 
L 856.506222 100.271778 
L 872.100196 103.602347 
L 887.69417 105.742849 
L 903.288144 105.742849 
" clip-path="url(#p0c06648c64)" style="fill: none; stroke: #785ef0; stroke-width: 1.5; stroke-linecap: square"/>
   </g>
   <g id="line2d_38">
    <path d="M 529.032769 206.74873 
L 544.626743 205.325852 
L 560.220717 204.256984 
L 575.814691 201.480819 
L 591.408665 198.940024 
L 607.002639 195.723157 
L 622.596613 191.849176 
L 638.190587 184.243226 
L 653.784561 173.487926 
L 669.378535 159.606131 
L 684.972509 145.983356 
L 700.566483 137.359863 
L 716.160457 129.414318 
L 731.754431 124.506895 
L 747.348404 123.548071 
L 762.942378 124.722417 
L 778.536352 126.30767 
L 794.130326 128.047918 
L 809.7243 130.406561 
L 825.318274 134.218413 
L 840.912248 138.748214 
L 856.506222 140.164517 
L 872.100196 142.420721 
L 887.69417 143.043685 
L 903.288144 140.459216 
" clip-path="url(#p0c06648c64)" style="fill: none; stroke: #dc267f; stroke-width: 1.5; stroke-linecap: square"/>
   </g>
   <g id="line2d_39">
    <path d="M 529.032769 206.923171 
L 544.626743 206.437421 
L 560.220717 205.996709 
L 575.814691 204.64249 
L 591.408665 203.361666 
L 607.002639 201.134387 
L 622.596613 197.800226 
L 638.190587 190.367359 
L 653.784561 179.458376 
L 669.378535 165.398038 
L 684.972509 152.162427 
L 700.566483 145.115301 
L 716.160457 139.480533 
L 731.754431 137.931296 
L 747.348404 140.300966 
L 762.942378 144.263937 
L 778.536352 147.930955 
L 794.130326 150.978155 
L 809.7243 153.891018 
L 825.318274 157.53741 
L 840.912248 161.186734 
L 856.506222 161.916735 
L 872.100196 162.549198 
L 887.69417 161.809458 
L 903.288144 158.666659 
" clip-path="url(#p0c06648c64)" style="fill: none; stroke: #fe6100; stroke-width: 1.5; stroke-linecap: square"/>
   </g>
   <g id="line2d_40">
    <path d="M 529.032769 207.001016 
L 544.626743 206.913346 
L 560.220717 206.791235 
L 575.814691 206.365994 
L 591.408665 205.898922 
L 607.002639 204.589841 
L 622.596613 201.953506 
L 638.190587 194.956717 
L 653.784561 183.81745 
L 669.378535 169.161697 
L 684.972509 155.965649 
L 700.566483 151.168167 
L 716.160457 149.629271 
L 731.754431 153.883957 
L 747.348404 161.707953 
L 762.942378 169.637522 
L 778.536352 175.595951 
L 794.130326 179.430999 
L 809.7243 181.837378 
L 825.318274 183.76111 
L 840.912248 185.081066 
L 856.506222 184.449178 
L 872.100196 183.534576 
L 887.69417 182.065659 
L 903.288144 179.589877 
" clip-path="url(#p0c06648c64)" style="fill: none; stroke: #ffb000; stroke-width: 1.5; stroke-linecap: square"/>
   </g>
   <g id="patch_9">
    <path d="M 510.32 216.26532 
L 510.32 12.45064 
" style="fill: none; stroke: #000000; stroke-width: 0.8; stroke-linejoin: miter; stroke-linecap: square"/>
   </g>
   <g id="patch_10">
    <path d="M 922.000913 216.26532 
L 922.000913 12.45064 
" style="fill: none; stroke: #000000; stroke-width: 0.8; stroke-linejoin: miter; stroke-linecap: square"/>
   </g>
   <g id="patch_11">
    <path d="M 510.32 216.26532 
L 922.000913 216.26532 
" style="fill: none; stroke: #000000; stroke-width: 0.8; stroke-linejoin: miter; stroke-linecap: square"/>
   </g>
   <g id="patch_12">
    <path d="M 510.32 12.45064 
L 922.000913 12.45064 
" style="fill: none; stroke: #000000; stroke-width: 0.8; stroke-linejoin: miter; stroke-linecap: square"/>
   </g>
   <g id="legend_2">
    <g id="patch_13">
     <path d="M 517.32 93.841265 
L 598.92 93.841265 
Q 600.92 93.841265 600.92 91.841265 
L 600.92 19.45064 
Q 600.92 17.45064 598.92 17.45064 
L 517.32 17.45064 
Q 515.32 17.45064 515.32 19.45064 
L 515.32 91.841265 
Q 515.32 93.841265 517.32 93.841265 
z
" style="fill: #ffffff; opacity: 0.8; stroke: #cccccc; stroke-linejoin: miter"/>
    </g>
    <g id="line2d_41">
     <path d="M 519.32 25.549077 
L 529.32 25.549077 
L 539.32 25.549077 
" style="fill: none; stroke: #648fff; stroke-width: 1.5; stroke-linecap: square"/>
    </g>
    <g id="text_35">
     <!-- $\alpha=-1.00$ -->
     <g transform="translate(547.32 29.049077) scale(0.1 -0.1)">
      <use xlink:href="#DejaVuSans-Oblique-3b1" transform="translate(0 0.78125)"/>
      <use xlink:href="#DejaVuSans-3d" transform="translate(85.400391 0.78125)"/>
      <use xlink:href="#DejaVuSans-2212" transform="translate(188.671875 0.78125)"/>
      <use xlink:href="#DejaVuSans-31" transform="translate(272.460938 0.78125)"/>
      <use xlink:href="#DejaVuSans-2e" transform="translate(336.083984 0.78125)"/>
      <use xlink:href="#DejaVuSans-30" transform="translate(367.871094 0.78125)"/>
      <use xlink:href="#DejaVuSans-30" transform="translate(431.494141 0.78125)"/>
     </g>
    </g>
    <g id="line2d_42">
     <path d="M 519.32 40.227202 
L 529.32 40.227202 
L 539.32 40.227202 
" style="fill: none; stroke: #785ef0; stroke-width: 1.5; stroke-linecap: square"/>
    </g>
    <g id="text_36">
     <!-- $\alpha=0.00$ -->
     <g transform="translate(547.32 43.727202) scale(0.1 -0.1)">
      <use xlink:href="#DejaVuSans-Oblique-3b1" transform="translate(0 0.78125)"/>
      <use xlink:href="#DejaVuSans-3d" transform="translate(85.400391 0.78125)"/>
      <use xlink:href="#DejaVuSans-30" transform="translate(188.671875 0.78125)"/>
      <use xlink:href="#DejaVuSans-2e" transform="translate(252.294922 0.78125)"/>
      <use xlink:href="#DejaVuSans-30" transform="translate(284.082031 0.78125)"/>
      <use xlink:href="#DejaVuSans-30" transform="translate(347.705078 0.78125)"/>
     </g>
    </g>
    <g id="line2d_43">
     <path d="M 519.32 54.905327 
L 529.32 54.905327 
L 539.32 54.905327 
" style="fill: none; stroke: #dc267f; stroke-width: 1.5; stroke-linecap: square"/>
    </g>
    <g id="text_37">
     <!-- $\alpha=0.50$ -->
     <g transform="translate(547.32 58.405327) scale(0.1 -0.1)">
      <use xlink:href="#DejaVuSans-Oblique-3b1" transform="translate(0 0.78125)"/>
      <use xlink:href="#DejaVuSans-3d" transform="translate(85.400391 0.78125)"/>
      <use xlink:href="#DejaVuSans-30" transform="translate(188.671875 0.78125)"/>
      <use xlink:href="#DejaVuSans-2e" transform="translate(252.294922 0.78125)"/>
      <use xlink:href="#DejaVuSans-35" transform="translate(284.082031 0.78125)"/>
      <use xlink:href="#DejaVuSans-30" transform="translate(347.705078 0.78125)"/>
     </g>
    </g>
    <g id="line2d_44">
     <path d="M 519.32 69.583452 
L 529.32 69.583452 
L 539.32 69.583452 
" style="fill: none; stroke: #fe6100; stroke-width: 1.5; stroke-linecap: square"/>
    </g>
    <g id="text_38">
     <!-- $\alpha=1.00$ -->
     <g transform="translate(547.32 73.083452) scale(0.1 -0.1)">
      <use xlink:href="#DejaVuSans-Oblique-3b1" transform="translate(0 0.78125)"/>
      <use xlink:href="#DejaVuSans-3d" transform="translate(85.400391 0.78125)"/>
      <use xlink:href="#DejaVuSans-31" transform="translate(188.671875 0.78125)"/>
      <use xlink:href="#DejaVuSans-2e" transform="translate(252.294922 0.78125)"/>
      <use xlink:href="#DejaVuSans-30" transform="translate(284.082031 0.78125)"/>
      <use xlink:href="#DejaVuSans-30" transform="translate(347.705078 0.78125)"/>
     </g>
    </g>
    <g id="line2d_45">
     <path d="M 519.32 84.261577 
L 529.32 84.261577 
L 539.32 84.261577 
" style="fill: none; stroke: #ffb000; stroke-width: 1.5; stroke-linecap: square"/>
    </g>
    <g id="text_39">
     <!-- $\alpha=2.00$ -->
     <g transform="translate(547.32 87.761577) scale(0.1 -0.1)">
      <use xlink:href="#DejaVuSans-Oblique-3b1" transform="translate(0 0.78125)"/>
      <use xlink:href="#DejaVuSans-3d" transform="translate(85.400391 0.78125)"/>
      <use xlink:href="#DejaVuSans-32" transform="translate(188.671875 0.78125)"/>
      <use xlink:href="#DejaVuSans-2e" transform="translate(252.294922 0.78125)"/>
      <use xlink:href="#DejaVuSans-30" transform="translate(284.082031 0.78125)"/>
      <use xlink:href="#DejaVuSans-30" transform="translate(347.705078 0.78125)"/>
     </g>
    </g>
   </g>
  </g>
  <g id="axes_3">
   <g id="patch_14">
    <path d="M 47.72 462.04 
L 459.400913 462.04 
L 459.400913 258.22532 
L 47.72 258.22532 
z
" style="fill: #ffffff"/>
   </g>
   <g id="matplotlib.axis_5">
    <g id="xtick_13">
     <g id="line2d_46">
      <g>
       <use xlink:href="#mc34cf3b006" x="66.432769" y="462.04" style="stroke: #000000; stroke-width: 0.8"/>
      </g>
     </g>
     <g id="text_40">
      <!-- 0 -->
      <g transform="translate(63.251519 476.638438) scale(0.1 -0.1)">
       <use xlink:href="#DejaVuSans-30"/>
      </g>
     </g>
    </g>
    <g id="xtick_14">
     <g id="line2d_47">
      <g>
       <use xlink:href="#mc34cf3b006" x="144.402639" y="462.04" style="stroke: #000000; stroke-width: 0.8"/>
      </g>
     </g>
     <g id="text_41">
      <!-- 5 -->
      <g transform="translate(141.221389 476.638438) scale(0.1 -0.1)">
       <use xlink:href="#DejaVuSans-35"/>
      </g>
     </g>
    </g>
    <g id="xtick_15">
     <g id="line2d_48">
      <g>
       <use xlink:href="#mc34cf3b006" x="222.372509" y="462.04" style="stroke: #000000; stroke-width: 0.8"/>
      </g>
     </g>
     <g id="text_42">
      <!-- 10 -->
      <g transform="translate(216.010009 476.638438) scale(0.1 -0.1)">
       <use xlink:href="#DejaVuSans-31"/>
       <use xlink:href="#DejaVuSans-30" transform="translate(63.623047 0)"/>
      </g>
     </g>
    </g>
    <g id="xtick_16">
     <g id="line2d_49">
      <g>
       <use xlink:href="#mc34cf3b006" x="300.342378" y="462.04" style="stroke: #000000; stroke-width: 0.8"/>
      </g>
     </g>
     <g id="text_43">
      <!-- 15 -->
      <g transform="translate(293.979878 476.638438) scale(0.1 -0.1)">
       <use xlink:href="#DejaVuSans-31"/>
       <use xlink:href="#DejaVuSans-35" transform="translate(63.623047 0)"/>
      </g>
     </g>
    </g>
    <g id="xtick_17">
     <g id="line2d_50">
      <g>
       <use xlink:href="#mc34cf3b006" x="378.312248" y="462.04" style="stroke: #000000; stroke-width: 0.8"/>
      </g>
     </g>
     <g id="text_44">
      <!-- 20 -->
      <g transform="translate(371.949748 476.638438) scale(0.1 -0.1)">
       <use xlink:href="#DejaVuSans-32"/>
       <use xlink:href="#DejaVuSans-30" transform="translate(63.623047 0)"/>
      </g>
     </g>
    </g>
    <g id="xtick_18">
     <g id="line2d_51">
      <g>
       <use xlink:href="#mc34cf3b006" x="456.282118" y="462.04" style="stroke: #000000; stroke-width: 0.8"/>
      </g>
     </g>
     <g id="text_45">
      <!-- 25 -->
      <g transform="translate(449.919618 476.638438) scale(0.1 -0.1)">
       <use xlink:href="#DejaVuSans-32"/>
       <use xlink:href="#DejaVuSans-35" transform="translate(63.623047 0)"/>
      </g>
     </g>
    </g>
    <g id="text_46">
     <!-- Номер слоя -->
     <g transform="translate(223.116707 490.316563) scale(0.1 -0.1)">
      <use xlink:href="#DejaVuSans-41d"/>
      <use xlink:href="#DejaVuSans-43e" transform="translate(75.195312 0)"/>
      <use xlink:href="#DejaVuSans-43c" transform="translate(136.376953 0)"/>
      <use xlink:href="#DejaVuSans-435" transform="translate(211.816406 0)"/>
      <use xlink:href="#DejaVuSans-440" transform="translate(273.339844 0)"/>
      <use xlink:href="#DejaVuSans-20" transform="translate(336.816406 0)"/>
      <use xlink:href="#DejaVuSans-441" transform="translate(368.603516 0)"/>
      <use xlink:href="#DejaVuSans-43b" transform="translate(423.583984 0)"/>
      <use xlink:href="#DejaVuSans-43e" transform="translate(487.5 0)"/>
      <use xlink:href="#DejaVuSans-44f" transform="translate(548.681641 0)"/>
     </g>
    </g>
   </g>
   <g id="matplotlib.axis_6">
    <g id="ytick_14">
     <g id="line2d_52">
      <g>
       <use xlink:href="#m4d36dddf8d" x="47.72" y="452.775696" style="stroke: #000000; stroke-width: 0.8"/>
      </g>
     </g>
     <g id="text_47">
      <!-- 0.0 -->
      <g transform="translate(24.816875 456.574915) scale(0.1 -0.1)">
       <use xlink:href="#DejaVuSans-30"/>
       <use xlink:href="#DejaVuSans-2e" transform="translate(63.623047 0)"/>
       <use xlink:href="#DejaVuSans-30" transform="translate(95.410156 0)"/>
      </g>
     </g>
    </g>
    <g id="ytick_15">
     <g id="line2d_53">
      <g>
       <use xlink:href="#m4d36dddf8d" x="47.72" y="416.255274" style="stroke: #000000; stroke-width: 0.8"/>
      </g>
     </g>
     <g id="text_48">
      <!-- 0.1 -->
      <g transform="translate(24.816875 420.054493) scale(0.1 -0.1)">
       <use xlink:href="#DejaVuSans-30"/>
       <use xlink:href="#DejaVuSans-2e" transform="translate(63.623047 0)"/>
       <use xlink:href="#DejaVuSans-31" transform="translate(95.410156 0)"/>
      </g>
     </g>
    </g>
    <g id="ytick_16">
     <g id="line2d_54">
      <g>
       <use xlink:href="#m4d36dddf8d" x="47.72" y="379.734851" style="stroke: #000000; stroke-width: 0.8"/>
      </g>
     </g>
     <g id="text_49">
      <!-- 0.2 -->
      <g transform="translate(24.816875 383.53407) scale(0.1 -0.1)">
       <use xlink:href="#DejaVuSans-30"/>
       <use xlink:href="#DejaVuSans-2e" transform="translate(63.623047 0)"/>
       <use xlink:href="#DejaVuSans-32" transform="translate(95.410156 0)"/>
      </g>
     </g>
    </g>
    <g id="ytick_17">
     <g id="line2d_55">
      <g>
       <use xlink:href="#m4d36dddf8d" x="47.72" y="343.214429" style="stroke: #000000; stroke-width: 0.8"/>
      </g>
     </g>
     <g id="text_50">
      <!-- 0.3 -->
      <g transform="translate(24.816875 347.013648) scale(0.1 -0.1)">
       <use xlink:href="#DejaVuSans-30"/>
       <use xlink:href="#DejaVuSans-2e" transform="translate(63.623047 0)"/>
       <use xlink:href="#DejaVuSans-33" transform="translate(95.410156 0)"/>
      </g>
     </g>
    </g>
    <g id="ytick_18">
     <g id="line2d_56">
      <g>
       <use xlink:href="#m4d36dddf8d" x="47.72" y="306.694007" style="stroke: #000000; stroke-width: 0.8"/>
      </g>
     </g>
     <g id="text_51">
      <!-- 0.4 -->
      <g transform="translate(24.816875 310.493225) scale(0.1 -0.1)">
       <use xlink:href="#DejaVuSans-30"/>
       <use xlink:href="#DejaVuSans-2e" transform="translate(63.623047 0)"/>
       <use xlink:href="#DejaVuSans-34" transform="translate(95.410156 0)"/>
      </g>
     </g>
    </g>
    <g id="ytick_19">
     <g id="line2d_57">
      <g>
       <use xlink:href="#m4d36dddf8d" x="47.72" y="270.173584" style="stroke: #000000; stroke-width: 0.8"/>
      </g>
     </g>
     <g id="text_52">
      <!-- 0.5 -->
      <g transform="translate(24.816875 273.972803) scale(0.1 -0.1)">
       <use xlink:href="#DejaVuSans-30"/>
       <use xlink:href="#DejaVuSans-2e" transform="translate(63.623047 0)"/>
       <use xlink:href="#DejaVuSans-35" transform="translate(95.410156 0)"/>
      </g>
     </g>
    </g>
    <g id="text_53">
     <!-- Межслойная устойчивость -->
     <g transform="translate(18.737187 430.959222) rotate(-90) scale(0.1 -0.1)">
      <use xlink:href="#DejaVuSans-41c"/>
      <use xlink:href="#DejaVuSans-435" transform="translate(86.279297 0)"/>
      <use xlink:href="#DejaVuSans-436" transform="translate(147.802734 0)"/>
      <use xlink:href="#DejaVuSans-441" transform="translate(237.890625 0)"/>
      <use xlink:href="#DejaVuSans-43b" transform="translate(292.871094 0)"/>
      <use xlink:href="#DejaVuSans-43e" transform="translate(356.787109 0)"/>
      <use xlink:href="#DejaVuSans-439" transform="translate(417.96875 0)"/>
      <use xlink:href="#DejaVuSans-43d" transform="translate(482.958984 0)"/>
      <use xlink:href="#DejaVuSans-430" transform="translate(548.339844 0)"/>
      <use xlink:href="#DejaVuSans-44f" transform="translate(609.619141 0)"/>
      <use xlink:href="#DejaVuSans-20" transform="translate(669.775391 0)"/>
      <use xlink:href="#DejaVuSans-443" transform="translate(701.5625 0)"/>
      <use xlink:href="#DejaVuSans-441" transform="translate(760.742188 0)"/>
      <use xlink:href="#DejaVuSans-442" transform="translate(815.722656 0)"/>
      <use xlink:href="#DejaVuSans-43e" transform="translate(873.974609 0)"/>
      <use xlink:href="#DejaVuSans-439" transform="translate(935.15625 0)"/>
      <use xlink:href="#DejaVuSans-447" transform="translate(1000.146484 0)"/>
      <use xlink:href="#DejaVuSans-438" transform="translate(1059.228516 0)"/>
      <use xlink:href="#DejaVuSans-432" transform="translate(1124.21875 0)"/>
      <use xlink:href="#DejaVuSans-43e" transform="translate(1183.154297 0)"/>
      <use xlink:href="#DejaVuSans-441" transform="translate(1244.335938 0)"/>
      <use xlink:href="#DejaVuSans-442" transform="translate(1299.316406 0)"/>
      <use xlink:href="#DejaVuSans-44c" transform="translate(1357.568359 0)"/>
     </g>
    </g>
   </g>
   <g id="line2d_58">
    <path d="M 66.432769 452.775696 
L 82.026743 452.775696 
L 97.620717 452.775696 
L 113.214691 452.775696 
L 128.808665 436.704603 
L 144.402639 431.898794 
L 159.996613 442.537469 
L 175.590587 428.559554 
L 191.184561 432.814555 
L 206.778535 431.98224 
L 222.372509 379.561626 
L 237.966483 369.933718 
L 253.560457 311.697912 
L 269.154431 303.97833 
L 284.748404 295.293195 
L 300.342378 333.111947 
L 315.936352 270.964793 
L 331.530326 299.627817 
L 347.1243 314.692976 
L 362.718274 284.068371 
L 378.312248 309.128412 
L 393.906222 319.771308 
L 409.500196 298.738732 
L 425.09417 267.489623 
L 440.688144 268.699404 
" clip-path="url(#p74f11e80e9)" style="fill: none; stroke: #648fff; stroke-width: 1.5; stroke-linecap: square"/>
   </g>
   <g id="line2d_59">
    <path d="M 66.432769 438.167527 
L 82.026743 438.167527 
L 97.620717 438.167527 
L 113.214691 438.167527 
L 128.808665 434.515485 
L 144.402639 433.298138 
L 159.996613 435.732833 
L 175.590587 432.32426 
L 191.184561 433.298138 
L 206.778535 432.32426 
L 222.372509 405.299147 
L 237.966483 390.905804 
L 253.560457 364.002977 
L 269.154431 368.257004 
L 284.748404 362.387651 
L 300.342378 380.46526 
L 315.936352 349.394808 
L 331.530326 366.10056 
L 347.1243 369.423203 
L 362.718274 352.953208 
L 378.312248 374.42279 
L 393.906222 380.778292 
L 409.500196 371.766759 
L 425.09417 368.778725 
L 440.688144 368.778725 
" clip-path="url(#p74f11e80e9)" style="fill: none; stroke: #785ef0; stroke-width: 1.5; stroke-linecap: square"/>
   </g>
   <g id="line2d_60">
    <path d="M 66.432769 452.775696 
L 82.026743 452.775696 
L 97.620717 452.775696 
L 113.214691 452.775696 
L 128.808665 451.429316 
L 144.402639 450.91931 
L 159.996613 451.819666 
L 175.590587 450.422193 
L 191.184561 450.772663 
L 206.778535 450.078776 
L 222.372509 429.239356 
L 237.966483 414.296718 
L 253.560457 395.05865 
L 269.154431 402.859831 
L 284.748404 399.06719 
L 300.342378 412.993745 
L 315.936352 392.798581 
L 331.530326 405.233855 
L 347.1243 406.675086 
L 362.718274 395.998855 
L 378.312248 413.475339 
L 393.906222 418.057279 
L 409.500196 411.623138 
L 425.09417 411.271138 
L 440.688144 408.929248 
" clip-path="url(#p74f11e80e9)" style="fill: none; stroke: #dc267f; stroke-width: 1.5; stroke-linecap: square"/>
   </g>
   <g id="line2d_61">
    <path d="M 66.432769 452.775696 
L 82.026743 452.775696 
L 97.620717 452.775696 
L 113.214691 452.775696 
L 128.808665 452.360692 
L 144.402639 452.181868 
L 159.996613 452.458679 
L 175.590587 451.968615 
L 191.184561 452.067936 
L 206.778535 451.669017 
L 222.372509 435.656748 
L 237.966483 421.304369 
L 253.560457 407.39529 
L 269.154431 416.886655 
L 284.748404 415.114011 
L 300.342378 426.326057 
L 315.936352 414.55665 
L 331.530326 423.317234 
L 347.1243 424.020339 
L 362.718274 417.591387 
L 378.312248 429.98816 
L 393.906222 432.743397 
L 409.500196 427.875408 
L 425.09417 427.725587 
L 440.688144 425.081043 
" clip-path="url(#p74f11e80e9)" style="fill: none; stroke: #fe6100; stroke-width: 1.5; stroke-linecap: square"/>
   </g>
   <g id="line2d_62">
    <path d="M 66.432769 452.775696 
L 82.026743 452.775696 
L 97.620717 452.775696 
L 113.214691 452.775696 
L 128.808665 452.744213 
L 144.402639 452.727485 
L 159.996613 452.748029 
L 175.590587 452.69981 
L 191.184561 452.704088 
L 206.778535 452.608062 
L 222.372509 442.34129 
L 237.966483 428.844889 
L 253.560457 420.317901 
L 269.154431 430.72563 
L 284.748404 431.580808 
L 300.342378 440.191118 
L 315.936352 437.043822 
L 331.530326 441.506537 
L 347.1243 441.829334 
L 362.718274 439.264345 
L 378.312248 444.727465 
L 393.906222 445.448076 
L 409.500196 442.570947 
L 425.09417 442.136221 
L 440.688144 440.422104 
" clip-path="url(#p74f11e80e9)" style="fill: none; stroke: #ffb000; stroke-width: 1.5; stroke-linecap: square"/>
   </g>
   <g id="patch_15">
    <path d="M 47.72 462.04 
L 47.72 258.22532 
" style="fill: none; stroke: #000000; stroke-width: 0.8; stroke-linejoin: miter; stroke-linecap: square"/>
   </g>
   <g id="patch_16">
    <path d="M 459.400913 462.04 
L 459.400913 258.22532 
" style="fill: none; stroke: #000000; stroke-width: 0.8; stroke-linejoin: miter; stroke-linecap: square"/>
   </g>
   <g id="patch_17">
    <path d="M 47.72 462.04 
L 459.400913 462.04 
" style="fill: none; stroke: #000000; stroke-width: 0.8; stroke-linejoin: miter; stroke-linecap: square"/>
   </g>
   <g id="patch_18">
    <path d="M 47.72 258.22532 
L 459.400913 258.22532 
" style="fill: none; stroke: #000000; stroke-width: 0.8; stroke-linejoin: miter; stroke-linecap: square"/>
   </g>
   <g id="legend_3">
    <g id="patch_19">
     <path d="M 54.72 339.615945 
L 136.32 339.615945 
Q 138.32 339.615945 138.32 337.615945 
L 138.32 265.22532 
Q 138.32 263.22532 136.32 263.22532 
L 54.72 263.22532 
Q 52.72 263.22532 52.72 265.22532 
L 52.72 337.615945 
Q 52.72 339.615945 54.72 339.615945 
z
" style="fill: #ffffff; opacity: 0.8; stroke: #cccccc; stroke-linejoin: miter"/>
    </g>
    <g id="line2d_63">
     <path d="M 56.72 271.323757 
L 66.72 271.323757 
L 76.72 271.323757 
" style="fill: none; stroke: #648fff; stroke-width: 1.5; stroke-linecap: square"/>
    </g>
    <g id="text_54">
     <!-- $\alpha=-1.00$ -->
     <g transform="translate(84.72 274.823757) scale(0.1 -0.1)">
      <use xlink:href="#DejaVuSans-Oblique-3b1" transform="translate(0 0.78125)"/>
      <use xlink:href="#DejaVuSans-3d" transform="translate(85.400391 0.78125)"/>
      <use xlink:href="#DejaVuSans-2212" transform="translate(188.671875 0.78125)"/>
      <use xlink:href="#DejaVuSans-31" transform="translate(272.460938 0.78125)"/>
      <use xlink:href="#DejaVuSans-2e" transform="translate(336.083984 0.78125)"/>
      <use xlink:href="#DejaVuSans-30" transform="translate(367.871094 0.78125)"/>
      <use xlink:href="#DejaVuSans-30" transform="translate(431.494141 0.78125)"/>
     </g>
    </g>
    <g id="line2d_64">
     <path d="M 56.72 286.001882 
L 66.72 286.001882 
L 76.72 286.001882 
" style="fill: none; stroke: #785ef0; stroke-width: 1.5; stroke-linecap: square"/>
    </g>
    <g id="text_55">
     <!-- $\alpha=0.00$ -->
     <g transform="translate(84.72 289.501882) scale(0.1 -0.1)">
      <use xlink:href="#DejaVuSans-Oblique-3b1" transform="translate(0 0.78125)"/>
      <use xlink:href="#DejaVuSans-3d" transform="translate(85.400391 0.78125)"/>
      <use xlink:href="#DejaVuSans-30" transform="translate(188.671875 0.78125)"/>
      <use xlink:href="#DejaVuSans-2e" transform="translate(252.294922 0.78125)"/>
      <use xlink:href="#DejaVuSans-30" transform="translate(284.082031 0.78125)"/>
      <use xlink:href="#DejaVuSans-30" transform="translate(347.705078 0.78125)"/>
     </g>
    </g>
    <g id="line2d_65">
     <path d="M 56.72 300.680007 
L 66.72 300.680007 
L 76.72 300.680007 
" style="fill: none; stroke: #dc267f; stroke-width: 1.5; stroke-linecap: square"/>
    </g>
    <g id="text_56">
     <!-- $\alpha=0.50$ -->
     <g transform="translate(84.72 304.180007) scale(0.1 -0.1)">
      <use xlink:href="#DejaVuSans-Oblique-3b1" transform="translate(0 0.78125)"/>
      <use xlink:href="#DejaVuSans-3d" transform="translate(85.400391 0.78125)"/>
      <use xlink:href="#DejaVuSans-30" transform="translate(188.671875 0.78125)"/>
      <use xlink:href="#DejaVuSans-2e" transform="translate(252.294922 0.78125)"/>
      <use xlink:href="#DejaVuSans-35" transform="translate(284.082031 0.78125)"/>
      <use xlink:href="#DejaVuSans-30" transform="translate(347.705078 0.78125)"/>
     </g>
    </g>
    <g id="line2d_66">
     <path d="M 56.72 315.358132 
L 66.72 315.358132 
L 76.72 315.358132 
" style="fill: none; stroke: #fe6100; stroke-width: 1.5; stroke-linecap: square"/>
    </g>
    <g id="text_57">
     <!-- $\alpha=1.00$ -->
     <g transform="translate(84.72 318.858132) scale(0.1 -0.1)">
      <use xlink:href="#DejaVuSans-Oblique-3b1" transform="translate(0 0.78125)"/>
      <use xlink:href="#DejaVuSans-3d" transform="translate(85.400391 0.78125)"/>
      <use xlink:href="#DejaVuSans-31" transform="translate(188.671875 0.78125)"/>
      <use xlink:href="#DejaVuSans-2e" transform="translate(252.294922 0.78125)"/>
      <use xlink:href="#DejaVuSans-30" transform="translate(284.082031 0.78125)"/>
      <use xlink:href="#DejaVuSans-30" transform="translate(347.705078 0.78125)"/>
     </g>
    </g>
    <g id="line2d_67">
     <path d="M 56.72 330.036257 
L 66.72 330.036257 
L 76.72 330.036257 
" style="fill: none; stroke: #ffb000; stroke-width: 1.5; stroke-linecap: square"/>
    </g>
    <g id="text_58">
     <!-- $\alpha=2.00$ -->
     <g transform="translate(84.72 333.536257) scale(0.1 -0.1)">
      <use xlink:href="#DejaVuSans-Oblique-3b1" transform="translate(0 0.78125)"/>
      <use xlink:href="#DejaVuSans-3d" transform="translate(85.400391 0.78125)"/>
      <use xlink:href="#DejaVuSans-32" transform="translate(188.671875 0.78125)"/>
      <use xlink:href="#DejaVuSans-2e" transform="translate(252.294922 0.78125)"/>
      <use xlink:href="#DejaVuSans-30" transform="translate(284.082031 0.78125)"/>
      <use xlink:href="#DejaVuSans-30" transform="translate(347.705078 0.78125)"/>
     </g>
    </g>
   </g>
  </g>
  <g id="axes_4">
   <g id="patch_20">
    <path d="M 510.32 462.04 
L 922.000913 462.04 
L 922.000913 258.22532 
L 510.32 258.22532 
z
" style="fill: #ffffff"/>
   </g>
   <g id="matplotlib.axis_7">
    <g id="xtick_19">
     <g id="line2d_68">
      <g>
       <use xlink:href="#mc34cf3b006" x="529.032769" y="462.04" style="stroke: #000000; stroke-width: 0.8"/>
      </g>
     </g>
     <g id="text_59">
      <!-- 0 -->
      <g transform="translate(525.851519 476.638438) scale(0.1 -0.1)">
       <use xlink:href="#DejaVuSans-30"/>
      </g>
     </g>
    </g>
    <g id="xtick_20">
     <g id="line2d_69">
      <g>
       <use xlink:href="#mc34cf3b006" x="607.002639" y="462.04" style="stroke: #000000; stroke-width: 0.8"/>
      </g>
     </g>
     <g id="text_60">
      <!-- 5 -->
      <g transform="translate(603.821389 476.638438) scale(0.1 -0.1)">
       <use xlink:href="#DejaVuSans-35"/>
      </g>
     </g>
    </g>
    <g id="xtick_21">
     <g id="line2d_70">
      <g>
       <use xlink:href="#mc34cf3b006" x="684.972509" y="462.04" style="stroke: #000000; stroke-width: 0.8"/>
      </g>
     </g>
     <g id="text_61">
      <!-- 10 -->
      <g transform="translate(678.610009 476.638438) scale(0.1 -0.1)">
       <use xlink:href="#DejaVuSans-31"/>
       <use xlink:href="#DejaVuSans-30" transform="translate(63.623047 0)"/>
      </g>
     </g>
    </g>
    <g id="xtick_22">
     <g id="line2d_71">
      <g>
       <use xlink:href="#mc34cf3b006" x="762.942378" y="462.04" style="stroke: #000000; stroke-width: 0.8"/>
      </g>
     </g>
     <g id="text_62">
      <!-- 15 -->
      <g transform="translate(756.579878 476.638438) scale(0.1 -0.1)">
       <use xlink:href="#DejaVuSans-31"/>
       <use xlink:href="#DejaVuSans-35" transform="translate(63.623047 0)"/>
      </g>
     </g>
    </g>
    <g id="xtick_23">
     <g id="line2d_72">
      <g>
       <use xlink:href="#mc34cf3b006" x="840.912248" y="462.04" style="stroke: #000000; stroke-width: 0.8"/>
      </g>
     </g>
     <g id="text_63">
      <!-- 20 -->
      <g transform="translate(834.549748 476.638438) scale(0.1 -0.1)">
       <use xlink:href="#DejaVuSans-32"/>
       <use xlink:href="#DejaVuSans-30" transform="translate(63.623047 0)"/>
      </g>
     </g>
    </g>
    <g id="xtick_24">
     <g id="line2d_73">
      <g>
       <use xlink:href="#mc34cf3b006" x="918.882118" y="462.04" style="stroke: #000000; stroke-width: 0.8"/>
      </g>
     </g>
     <g id="text_64">
      <!-- 25 -->
      <g transform="translate(912.519618 476.638438) scale(0.1 -0.1)">
       <use xlink:href="#DejaVuSans-32"/>
       <use xlink:href="#DejaVuSans-35" transform="translate(63.623047 0)"/>
      </g>
     </g>
    </g>
    <g id="text_65">
     <!-- Номер слоя -->
     <g transform="translate(685.716707 490.316563) scale(0.1 -0.1)">
      <use xlink:href="#DejaVuSans-41d"/>
      <use xlink:href="#DejaVuSans-43e" transform="translate(75.195312 0)"/>
      <use xlink:href="#DejaVuSans-43c" transform="translate(136.376953 0)"/>
      <use xlink:href="#DejaVuSans-435" transform="translate(211.816406 0)"/>
      <use xlink:href="#DejaVuSans-440" transform="translate(273.339844 0)"/>
      <use xlink:href="#DejaVuSans-20" transform="translate(336.816406 0)"/>
      <use xlink:href="#DejaVuSans-441" transform="translate(368.603516 0)"/>
      <use xlink:href="#DejaVuSans-43b" transform="translate(423.583984 0)"/>
      <use xlink:href="#DejaVuSans-43e" transform="translate(487.5 0)"/>
      <use xlink:href="#DejaVuSans-44f" transform="translate(548.681641 0)"/>
     </g>
    </g>
   </g>
   <g id="matplotlib.axis_8">
    <g id="ytick_20">
     <g id="line2d_74">
      <g>
       <use xlink:href="#m4d36dddf8d" x="510.32" y="454.377456" style="stroke: #000000; stroke-width: 0.8"/>
      </g>
     </g>
     <g id="text_66">
      <!-- 0.0 -->
      <g transform="translate(487.416875 458.176675) scale(0.1 -0.1)">
       <use xlink:href="#DejaVuSans-30"/>
       <use xlink:href="#DejaVuSans-2e" transform="translate(63.623047 0)"/>
       <use xlink:href="#DejaVuSans-30" transform="translate(95.410156 0)"/>
      </g>
     </g>
    </g>
    <g id="ytick_21">
     <g id="line2d_75">
      <g>
       <use xlink:href="#m4d36dddf8d" x="510.32" y="428.203258" style="stroke: #000000; stroke-width: 0.8"/>
      </g>
     </g>
     <g id="text_67">
      <!-- 0.1 -->
      <g transform="translate(487.416875 432.002477) scale(0.1 -0.1)">
       <use xlink:href="#DejaVuSans-30"/>
       <use xlink:href="#DejaVuSans-2e" transform="translate(63.623047 0)"/>
       <use xlink:href="#DejaVuSans-31" transform="translate(95.410156 0)"/>
      </g>
     </g>
    </g>
    <g id="ytick_22">
     <g id="line2d_76">
      <g>
       <use xlink:href="#m4d36dddf8d" x="510.32" y="402.029059" style="stroke: #000000; stroke-width: 0.8"/>
      </g>
     </g>
     <g id="text_68">
      <!-- 0.2 -->
      <g transform="translate(487.416875 405.828278) scale(0.1 -0.1)">
       <use xlink:href="#DejaVuSans-30"/>
       <use xlink:href="#DejaVuSans-2e" transform="translate(63.623047 0)"/>
       <use xlink:href="#DejaVuSans-32" transform="translate(95.410156 0)"/>
      </g>
     </g>
    </g>
    <g id="ytick_23">
     <g id="line2d_77">
      <g>
       <use xlink:href="#m4d36dddf8d" x="510.32" y="375.85486" style="stroke: #000000; stroke-width: 0.8"/>
      </g>
     </g>
     <g id="text_69">
      <!-- 0.3 -->
      <g transform="translate(487.416875 379.654079) scale(0.1 -0.1)">
       <use xlink:href="#DejaVuSans-30"/>
       <use xlink:href="#DejaVuSans-2e" transform="translate(63.623047 0)"/>
       <use xlink:href="#DejaVuSans-33" transform="translate(95.410156 0)"/>
      </g>
     </g>
    </g>
    <g id="ytick_24">
     <g id="line2d_78">
      <g>
       <use xlink:href="#m4d36dddf8d" x="510.32" y="349.680662" style="stroke: #000000; stroke-width: 0.8"/>
      </g>
     </g>
     <g id="text_70">
      <!-- 0.4 -->
      <g transform="translate(487.416875 353.479881) scale(0.1 -0.1)">
       <use xlink:href="#DejaVuSans-30"/>
       <use xlink:href="#DejaVuSans-2e" transform="translate(63.623047 0)"/>
       <use xlink:href="#DejaVuSans-34" transform="translate(95.410156 0)"/>
      </g>
     </g>
    </g>
    <g id="ytick_25">
     <g id="line2d_79">
      <g>
       <use xlink:href="#m4d36dddf8d" x="510.32" y="323.506463" style="stroke: #000000; stroke-width: 0.8"/>
      </g>
     </g>
     <g id="text_71">
      <!-- 0.5 -->
      <g transform="translate(487.416875 327.305682) scale(0.1 -0.1)">
       <use xlink:href="#DejaVuSans-30"/>
       <use xlink:href="#DejaVuSans-2e" transform="translate(63.623047 0)"/>
       <use xlink:href="#DejaVuSans-35" transform="translate(95.410156 0)"/>
      </g>
     </g>
    </g>
    <g id="ytick_26">
     <g id="line2d_80">
      <g>
       <use xlink:href="#m4d36dddf8d" x="510.32" y="297.332265" style="stroke: #000000; stroke-width: 0.8"/>
      </g>
     </g>
     <g id="text_72">
      <!-- 0.6 -->
      <g transform="translate(487.416875 301.131483) scale(0.1 -0.1)">
       <use xlink:href="#DejaVuSans-30"/>
       <use xlink:href="#DejaVuSans-2e" transform="translate(63.623047 0)"/>
       <use xlink:href="#DejaVuSans-36" transform="translate(95.410156 0)"/>
      </g>
     </g>
    </g>
    <g id="ytick_27">
     <g id="line2d_81">
      <g>
       <use xlink:href="#m4d36dddf8d" x="510.32" y="271.158066" style="stroke: #000000; stroke-width: 0.8"/>
      </g>
     </g>
     <g id="text_73">
      <!-- 0.7 -->
      <g transform="translate(487.416875 274.957285) scale(0.1 -0.1)">
       <use xlink:href="#DejaVuSans-30"/>
       <use xlink:href="#DejaVuSans-2e" transform="translate(63.623047 0)"/>
       <use xlink:href="#DejaVuSans-37" transform="translate(95.410156 0)"/>
      </g>
     </g>
    </g>
    <g id="text_74">
     <!-- Межслойная устойчивость -->
     <g transform="translate(481.337187 430.959222) rotate(-90) scale(0.1 -0.1)">
      <use xlink:href="#DejaVuSans-41c"/>
      <use xlink:href="#DejaVuSans-435" transform="translate(86.279297 0)"/>
      <use xlink:href="#DejaVuSans-436" transform="translate(147.802734 0)"/>
      <use xlink:href="#DejaVuSans-441" transform="translate(237.890625 0)"/>
      <use xlink:href="#DejaVuSans-43b" transform="translate(292.871094 0)"/>
      <use xlink:href="#DejaVuSans-43e" transform="translate(356.787109 0)"/>
      <use xlink:href="#DejaVuSans-439" transform="translate(417.96875 0)"/>
      <use xlink:href="#DejaVuSans-43d" transform="translate(482.958984 0)"/>
      <use xlink:href="#DejaVuSans-430" transform="translate(548.339844 0)"/>
      <use xlink:href="#DejaVuSans-44f" transform="translate(609.619141 0)"/>
      <use xlink:href="#DejaVuSans-20" transform="translate(669.775391 0)"/>
      <use xlink:href="#DejaVuSans-443" transform="translate(701.5625 0)"/>
      <use xlink:href="#DejaVuSans-441" transform="translate(760.742188 0)"/>
      <use xlink:href="#DejaVuSans-442" transform="translate(815.722656 0)"/>
      <use xlink:href="#DejaVuSans-43e" transform="translate(873.974609 0)"/>
      <use xlink:href="#DejaVuSans-439" transform="translate(935.15625 0)"/>
      <use xlink:href="#DejaVuSans-447" transform="translate(1000.146484 0)"/>
      <use xlink:href="#DejaVuSans-438" transform="translate(1059.228516 0)"/>
      <use xlink:href="#DejaVuSans-432" transform="translate(1124.21875 0)"/>
      <use xlink:href="#DejaVuSans-43e" transform="translate(1183.154297 0)"/>
      <use xlink:href="#DejaVuSans-441" transform="translate(1244.335938 0)"/>
      <use xlink:href="#DejaVuSans-442" transform="translate(1299.316406 0)"/>
      <use xlink:href="#DejaVuSans-44c" transform="translate(1357.568359 0)"/>
     </g>
    </g>
   </g>
   <g id="line2d_82">
    <path d="M 529.032769 447.705625 
L 544.626743 424.719277 
L 560.220717 408.222583 
L 575.814691 389.286582 
L 591.408665 379.908183 
L 607.002639 369.209432 
L 622.596613 356.050484 
L 638.190587 350.935631 
L 653.784561 336.865879 
L 669.378535 334.709272 
L 684.972509 317.229372 
L 700.566483 306.505478 
L 716.160457 299.86506 
L 731.754431 293.02305 
L 747.348404 286.173455 
L 762.942378 283.492701 
L 778.536352 280.269164 
L 794.130326 279.869883 
L 809.7243 274.439331 
L 825.318274 278.835042 
L 840.912248 276.064546 
L 856.506222 270.035782 
L 872.100196 268.192953 
L 887.69417 267.489623 
L 903.288144 271.889197 
" clip-path="url(#pf9e9cd433f)" style="fill: none; stroke: #648fff; stroke-width: 1.5; stroke-linecap: square"/>
   </g>
   <g id="line2d_83">
    <path d="M 529.032769 441.105287 
L 544.626743 432.565624 
L 560.220717 423.473386 
L 575.814691 409.496404 
L 591.408665 399.575768 
L 607.002639 388.872162 
L 622.596613 377.383937 
L 638.190587 369.68292 
L 653.784561 356.482996 
L 669.378535 353.958595 
L 684.972509 342.882714 
L 700.566483 337.93372 
L 716.160457 335.99645 
L 731.754431 334.555897 
L 747.348404 333.740491 
L 762.942378 334.608925 
L 778.536352 334.423423 
L 794.130326 334.901865 
L 809.7243 332.281531 
L 825.318274 337.07827 
L 840.912248 338.22945 
L 856.506222 336.459336 
L 872.100196 337.451662 
L 887.69417 340.799368 
L 903.288144 340.799368 
" clip-path="url(#pf9e9cd433f)" style="fill: none; stroke: #785ef0; stroke-width: 1.5; stroke-linecap: square"/>
   </g>
   <g id="line2d_84">
    <path d="M 529.032769 452.187839 
L 544.626743 446.491372 
L 560.220717 439.365132 
L 575.814691 426.284832 
L 591.408665 415.523362 
L 607.002639 404.129251 
L 622.596613 392.273452 
L 638.190587 383.196419 
L 653.784561 369.177771 
L 669.378535 366.416729 
L 684.972509 356.834649 
L 700.566483 354.788332 
L 716.160457 355.870082 
L 731.754431 357.868492 
L 747.348404 360.605274 
L 762.942378 364.212827 
L 778.536352 366.522003 
L 794.130326 368.70155 
L 809.7243 367.974408 
L 825.318274 372.999285 
L 840.912248 374.806045 
L 856.506222 373.586368 
L 872.100196 373.685565 
L 887.69417 375.221087 
L 903.288144 372.802629 
" clip-path="url(#pf9e9cd433f)" style="fill: none; stroke: #dc267f; stroke-width: 1.5; stroke-linecap: square"/>
   </g>
   <g id="line2d_85">
    <path d="M 529.032769 452.523451 
L 544.626743 448.205015 
L 560.220717 442.381168 
L 575.814691 430.19036 
L 591.408665 419.215448 
L 607.002639 407.680984 
L 622.596613 395.734734 
L 638.190587 385.795379 
L 653.784561 371.282715 
L 669.378535 368.307071 
L 684.972509 360.043468 
L 700.566483 360.789219 
L 716.160457 364.960168 
L 731.754431 370.409211 
L 747.348404 376.480811 
L 762.942378 382.609774 
L 778.536352 387.080698 
L 794.130326 390.595683 
L 809.7243 391.141931 
L 825.318274 395.457924 
L 840.912248 396.751463 
L 856.506222 395.186048 
L 872.100196 394.033895 
L 887.69417 393.928978 
L 903.288144 390.843468 
" clip-path="url(#pf9e9cd433f)" style="fill: none; stroke: #fe6100; stroke-width: 1.5; stroke-linecap: square"/>
   </g>
   <g id="line2d_86">
    <path d="M 529.032769 452.775696 
L 544.626743 449.32287 
L 560.220717 444.633558 
L 575.814691 433.223066 
L 591.408665 422.093562 
L 607.002639 410.426226 
L 622.596613 398.064089 
L 638.190587 386.687126 
L 653.784561 370.723535 
L 669.378535 366.768035 
L 684.972509 359.711607 
L 700.566483 364.825238 
L 716.160457 374.671686 
L 731.754431 386.406902 
L 747.348404 397.917173 
L 762.942378 407.562844 
L 778.536352 414.26423 
L 794.130326 418.491626 
L 809.7243 419.485198 
L 825.318274 421.738093 
L 840.912248 421.527004 
L 856.506222 419.287025 
L 872.100196 417.057833 
L 887.69417 415.784403 
L 903.288144 413.112987 
" clip-path="url(#pf9e9cd433f)" style="fill: none; stroke: #ffb000; stroke-width: 1.5; stroke-linecap: square"/>
   </g>
   <g id="patch_21">
    <path d="M 510.32 462.04 
L 510.32 258.22532 
" style="fill: none; stroke: #000000; stroke-width: 0.8; stroke-linejoin: miter; stroke-linecap: square"/>
   </g>
   <g id="patch_22">
    <path d="M 922.000913 462.04 
L 922.000913 258.22532 
" style="fill: none; stroke: #000000; stroke-width: 0.8; stroke-linejoin: miter; stroke-linecap: square"/>
   </g>
   <g id="patch_23">
    <path d="M 510.32 462.04 
L 922.000913 462.04 
" style="fill: none; stroke: #000000; stroke-width: 0.8; stroke-linejoin: miter; stroke-linecap: square"/>
   </g>
   <g id="patch_24">
    <path d="M 510.32 258.22532 
L 922.000913 258.22532 
" style="fill: none; stroke: #000000; stroke-width: 0.8; stroke-linejoin: miter; stroke-linecap: square"/>
   </g>
   <g id="legend_4">
    <g id="patch_25">
     <path d="M 517.32 339.615945 
L 598.92 339.615945 
Q 600.92 339.615945 600.92 337.615945 
L 600.92 265.22532 
Q 600.92 263.22532 598.92 263.22532 
L 517.32 263.22532 
Q 515.32 263.22532 515.32 265.22532 
L 515.32 337.615945 
Q 515.32 339.615945 517.32 339.615945 
z
" style="fill: #ffffff; opacity: 0.8; stroke: #cccccc; stroke-linejoin: miter"/>
    </g>
    <g id="line2d_87">
     <path d="M 519.32 271.323757 
L 529.32 271.323757 
L 539.32 271.323757 
" style="fill: none; stroke: #648fff; stroke-width: 1.5; stroke-linecap: square"/>
    </g>
    <g id="text_75">
     <!-- $\alpha=-1.00$ -->
     <g transform="translate(547.32 274.823757) scale(0.1 -0.1)">
      <use xlink:href="#DejaVuSans-Oblique-3b1" transform="translate(0 0.78125)"/>
      <use xlink:href="#DejaVuSans-3d" transform="translate(85.400391 0.78125)"/>
      <use xlink:href="#DejaVuSans-2212" transform="translate(188.671875 0.78125)"/>
      <use xlink:href="#DejaVuSans-31" transform="translate(272.460938 0.78125)"/>
      <use xlink:href="#DejaVuSans-2e" transform="translate(336.083984 0.78125)"/>
      <use xlink:href="#DejaVuSans-30" transform="translate(367.871094 0.78125)"/>
      <use xlink:href="#DejaVuSans-30" transform="translate(431.494141 0.78125)"/>
     </g>
    </g>
    <g id="line2d_88">
     <path d="M 519.32 286.001882 
L 529.32 286.001882 
L 539.32 286.001882 
" style="fill: none; stroke: #785ef0; stroke-width: 1.5; stroke-linecap: square"/>
    </g>
    <g id="text_76">
     <!-- $\alpha=0.00$ -->
     <g transform="translate(547.32 289.501882) scale(0.1 -0.1)">
      <use xlink:href="#DejaVuSans-Oblique-3b1" transform="translate(0 0.78125)"/>
      <use xlink:href="#DejaVuSans-3d" transform="translate(85.400391 0.78125)"/>
      <use xlink:href="#DejaVuSans-30" transform="translate(188.671875 0.78125)"/>
      <use xlink:href="#DejaVuSans-2e" transform="translate(252.294922 0.78125)"/>
      <use xlink:href="#DejaVuSans-30" transform="translate(284.082031 0.78125)"/>
      <use xlink:href="#DejaVuSans-30" transform="translate(347.705078 0.78125)"/>
     </g>
    </g>
    <g id="line2d_89">
     <path d="M 519.32 300.680007 
L 529.32 300.680007 
L 539.32 300.680007 
" style="fill: none; stroke: #dc267f; stroke-width: 1.5; stroke-linecap: square"/>
    </g>
    <g id="text_77">
     <!-- $\alpha=0.50$ -->
     <g transform="translate(547.32 304.180007) scale(0.1 -0.1)">
      <use xlink:href="#DejaVuSans-Oblique-3b1" transform="translate(0 0.78125)"/>
      <use xlink:href="#DejaVuSans-3d" transform="translate(85.400391 0.78125)"/>
      <use xlink:href="#DejaVuSans-30" transform="translate(188.671875 0.78125)"/>
      <use xlink:href="#DejaVuSans-2e" transform="translate(252.294922 0.78125)"/>
      <use xlink:href="#DejaVuSans-35" transform="translate(284.082031 0.78125)"/>
      <use xlink:href="#DejaVuSans-30" transform="translate(347.705078 0.78125)"/>
     </g>
    </g>
    <g id="line2d_90">
     <path d="M 519.32 315.358132 
L 529.32 315.358132 
L 539.32 315.358132 
" style="fill: none; stroke: #fe6100; stroke-width: 1.5; stroke-linecap: square"/>
    </g>
    <g id="text_78">
     <!-- $\alpha=1.00$ -->
     <g transform="translate(547.32 318.858132) scale(0.1 -0.1)">
      <use xlink:href="#DejaVuSans-Oblique-3b1" transform="translate(0 0.78125)"/>
      <use xlink:href="#DejaVuSans-3d" transform="translate(85.400391 0.78125)"/>
      <use xlink:href="#DejaVuSans-31" transform="translate(188.671875 0.78125)"/>
      <use xlink:href="#DejaVuSans-2e" transform="translate(252.294922 0.78125)"/>
      <use xlink:href="#DejaVuSans-30" transform="translate(284.082031 0.78125)"/>
      <use xlink:href="#DejaVuSans-30" transform="translate(347.705078 0.78125)"/>
     </g>
    </g>
    <g id="line2d_91">
     <path d="M 519.32 330.036257 
L 529.32 330.036257 
L 539.32 330.036257 
" style="fill: none; stroke: #ffb000; stroke-width: 1.5; stroke-linecap: square"/>
    </g>
    <g id="text_79">
     <!-- $\alpha=2.00$ -->
     <g transform="translate(547.32 333.536257) scale(0.1 -0.1)">
      <use xlink:href="#DejaVuSans-Oblique-3b1" transform="translate(0 0.78125)"/>
      <use xlink:href="#DejaVuSans-3d" transform="translate(85.400391 0.78125)"/>
      <use xlink:href="#DejaVuSans-32" transform="translate(188.671875 0.78125)"/>
      <use xlink:href="#DejaVuSans-2e" transform="translate(252.294922 0.78125)"/>
      <use xlink:href="#DejaVuSans-30" transform="translate(284.082031 0.78125)"/>
      <use xlink:href="#DejaVuSans-30" transform="translate(347.705078 0.78125)"/>
     </g>
    </g>
   </g>
  </g>
 </g>
 <defs>
  <clipPath id="p70c47cd808">
   <rect x="47.72" y="12.45064" width="411.680913" height="203.81468"/>
  </clipPath>
  <clipPath id="p0c06648c64">
   <rect x="510.32" y="12.45064" width="411.680913" height="203.81468"/>
  </clipPath>
  <clipPath id="p74f11e80e9">
   <rect x="47.72" y="258.22532" width="411.680913" height="203.81468"/>
  </clipPath>
  <clipPath id="pf9e9cd433f">
   <rect x="510.32" y="258.22532" width="411.680913" height="203.81468"/>
  </clipPath>
 </defs>
</svg>
