<?xml version="1.0" encoding="utf-8" standalone="no"?>
<!DOCTYPE svg PUBLIC "-//W3C//DTD SVG 1.1//EN"
  "http://www.w3.org/Graphics/SVG/1.1/DTD/svg11.dtd">
<svg xmlns:xlink="http://www.w3.org/1999/xlink" width="936pt" height="504pt" viewBox="0 0 936 504" xmlns="http://www.w3.org/2000/svg" version="1.1">
 <metadata>
  <rdf:RDF xmlns:dc="http://purl.org/dc/elements/1.1/" xmlns:cc="http://creativecommons.org/ns#" xmlns:rdf="http://www.w3.org/1999/02/22-rdf-syntax-ns#">
   <cc:Work>
    <dc:type rdf:resource="http://purl.org/dc/dcmitype/StillImage"/>
    <dc:date>2026-05-19T22:01:19.589585</dc:date>
    <dc:format>image/svg+xml</dc:format>
    <dc:creator>
     <cc:Agent>
      <dc:title>Matplotlib v3.10.9, https://matplotlib.org/</dc:title>
     </cc:Agent>
    </dc:creator>
   </cc:Work>
  </rdf:RDF>
 </metadata>
 <defs>
  <style type="text/css">*{stroke-linejoin: round; stroke-linecap: butt}</style>
 </defs>
 <g id="figure_1">
  <g id="patch_1">
   <path d="M 0 504 
L 936 504 
L 936 0 
L 0 0 
z
" style="fill: #ffffff"/>
  </g>
  <g id="axes_1">
   <g id="patch_2">
    <path d="M 54.02 215.44 
L 459.353005 215.44 
L 459.353005 10.8 
L 54.02 10.8 
z
" style="fill: #ffffff"/>
   </g>
   <g id="matplotlib.axis_1">
    <g id="xtick_1">
     <g id="line2d_1">
      <defs>
       <path id="mbb52079e2e" d="M 0 0 
L 0 3.5 
" style="stroke: #000000; stroke-width: 0.8"/>
      </defs>
      <g>
       <use xlink:href="#mbb52079e2e" x="72.444227" y="215.44" style="stroke: #000000; stroke-width: 0.8"/>
      </g>
     </g>
     <g id="text_1">
      <!-- 0 -->
      <g transform="translate(69.262977 230.038438) scale(0.1 -0.1)">
       <defs>
        <path id="DejaVuSans-30" d="M 2034 4250 
Q 1547 4250 1301 3770 
Q 1056 3291 1056 2328 
Q 1056 1369 1301 889 
Q 1547 409 2034 409 
Q 2525 409 2770 889 
Q 3016 1369 3016 2328 
Q 3016 3291 2770 3770 
Q 2525 4250 2034 4250 
z
M 2034 4750 
Q 2819 4750 3233 4129 
Q 3647 3509 3647 2328 
Q 3647 1150 3233 529 
Q 2819 -91 2034 -91 
Q 1250 -91 836 529 
Q 422 1150 422 2328 
Q 422 3509 836 4129 
Q 1250 4750 2034 4750 
z
" transform="scale(0.015625)"/>
       </defs>
       <use xlink:href="#DejaVuSans-30"/>
      </g>
     </g>
    </g>
    <g id="xtick_2">
     <g id="line2d_2">
      <g>
       <use xlink:href="#mbb52079e2e" x="149.211842" y="215.44" style="stroke: #000000; stroke-width: 0.8"/>
      </g>
     </g>
     <g id="text_2">
      <!-- 5 -->
      <g transform="translate(146.030592 230.038438) scale(0.1 -0.1)">
       <defs>
        <path id="DejaVuSans-35" d="M 691 4666 
L 3169 4666 
L 3169 4134 
L 1269 4134 
L 1269 2991 
Q 1406 3038 1543 3061 
Q 1681 3084 1819 3084 
Q 2600 3084 3056 2656 
Q 3513 2228 3513 1497 
Q 3513 744 3044 326 
Q 2575 -91 1722 -91 
Q 1428 -91 1123 -41 
Q 819 9 494 109 
L 494 744 
Q 775 591 1075 516 
Q 1375 441 1709 441 
Q 2250 441 2565 725 
Q 2881 1009 2881 1497 
Q 2881 1984 2565 2268 
Q 2250 2553 1709 2553 
Q 1456 2553 1204 2497 
Q 953 2441 691 2322 
L 691 4666 
z
" transform="scale(0.015625)"/>
       </defs>
       <use xlink:href="#DejaVuSans-35"/>
      </g>
     </g>
    </g>
    <g id="xtick_3">
     <g id="line2d_3">
      <g>
       <use xlink:href="#mbb52079e2e" x="225.979457" y="215.44" style="stroke: #000000; stroke-width: 0.8"/>
      </g>
     </g>
     <g id="text_3">
      <!-- 10 -->
      <g transform="translate(219.616957 230.038438) scale(0.1 -0.1)">
       <defs>
        <path id="DejaVuSans-31" d="M 794 531 
L 1825 531 
L 1825 4091 
L 703 3866 
L 703 4441 
L 1819 4666 
L 2450 4666 
L 2450 531 
L 3481 531 
L 3481 0 
L 794 0 
L 794 531 
z
" transform="scale(0.015625)"/>
       </defs>
       <use xlink:href="#DejaVuSans-31"/>
       <use xlink:href="#DejaVuSans-30" transform="translate(63.623047 0)"/>
      </g>
     </g>
    </g>
    <g id="xtick_4">
     <g id="line2d_4">
      <g>
       <use xlink:href="#mbb52079e2e" x="302.747071" y="215.44" style="stroke: #000000; stroke-width: 0.8"/>
      </g>
     </g>
     <g id="text_4">
      <!-- 15 -->
      <g transform="translate(296.384571 230.038438) scale(0.1 -0.1)">
       <use xlink:href="#DejaVuSans-31"/>
       <use xlink:href="#DejaVuSans-35" transform="translate(63.623047 0)"/>
      </g>
     </g>
    </g>
    <g id="xtick_5">
     <g id="line2d_5">
      <g>
       <use xlink:href="#mbb52079e2e" x="379.514686" y="215.44" style="stroke: #000000; stroke-width: 0.8"/>
      </g>
     </g>
     <g id="text_5">
      <!-- 20 -->
      <g transform="translate(373.152186 230.038438) scale(0.1 -0.1)">
       <defs>
        <path id="DejaVuSans-32" d="M 1228 531 
L 3431 531 
L 3431 0 
L 469 0 
L 469 531 
Q 828 903 1448 1529 
Q 2069 2156 2228 2338 
Q 2531 2678 2651 2914 
Q 2772 3150 2772 3378 
Q 2772 3750 2511 3984 
Q 2250 4219 1831 4219 
Q 1534 4219 1204 4116 
Q 875 4013 500 3803 
L 500 4441 
Q 881 4594 1212 4672 
Q 1544 4750 1819 4750 
Q 2544 4750 2975 4387 
Q 3406 4025 3406 3419 
Q 3406 3131 3298 2873 
Q 3191 2616 2906 2266 
Q 2828 2175 2409 1742 
Q 1991 1309 1228 531 
z
" transform="scale(0.015625)"/>
       </defs>
       <use xlink:href="#DejaVuSans-32"/>
       <use xlink:href="#DejaVuSans-30" transform="translate(63.623047 0)"/>
      </g>
     </g>
    </g>
    <g id="xtick_6">
     <g id="line2d_6">
      <g>
       <use xlink:href="#mbb52079e2e" x="456.2823" y="215.44" style="stroke: #000000; stroke-width: 0.8"/>
      </g>
     </g>
     <g id="text_6">
      <!-- 25 -->
      <g transform="translate(449.9198 230.038438) scale(0.1 -0.1)">
       <use xlink:href="#DejaVuSans-32"/>
       <use xlink:href="#DejaVuSans-35" transform="translate(63.623047 0)"/>
      </g>
     </g>
    </g>
    <g id="text_7">
     <!-- Номер слоя -->
     <g transform="translate(226.242752 243.716563) scale(0.1 -0.1)">
      <defs>
       <path id="DejaVuSans-41d" d="M 628 4666 
L 1259 4666 
L 1259 2753 
L 3553 2753 
L 3553 4666 
L 4184 4666 
L 4184 0 
L 3553 0 
L 3553 2222 
L 1259 2222 
L 1259 0 
L 628 0 
L 628 4666 
z
" transform="scale(0.015625)"/>
       <path id="DejaVuSans-43e" d="M 1959 3097 
Q 1497 3097 1228 2736 
Q 959 2375 959 1747 
Q 959 1119 1226 758 
Q 1494 397 1959 397 
Q 2419 397 2687 759 
Q 2956 1122 2956 1747 
Q 2956 2369 2687 2733 
Q 2419 3097 1959 3097 
z
M 1959 3584 
Q 2709 3584 3137 3096 
Q 3566 2609 3566 1747 
Q 3566 888 3137 398 
Q 2709 -91 1959 -91 
Q 1206 -91 779 398 
Q 353 888 353 1747 
Q 353 2609 779 3096 
Q 1206 3584 1959 3584 
z
" transform="scale(0.015625)"/>
       <path id="DejaVuSans-43c" d="M 581 3500 
L 1422 3500 
L 2416 1156 
L 3413 3500 
L 4247 3500 
L 4247 0 
L 3669 0 
L 3669 2950 
L 2703 672 
L 2128 672 
L 1159 2950 
L 1159 0 
L 581 0 
L 581 3500 
z
" transform="scale(0.015625)"/>
       <path id="DejaVuSans-435" d="M 3597 1894 
L 3597 1613 
L 953 1613 
Q 991 1019 1311 708 
Q 1631 397 2203 397 
Q 2534 397 2845 478 
Q 3156 559 3463 722 
L 3463 178 
Q 3153 47 2828 -22 
Q 2503 -91 2169 -91 
Q 1331 -91 842 396 
Q 353 884 353 1716 
Q 353 2575 817 3079 
Q 1281 3584 2069 3584 
Q 2775 3584 3186 3129 
Q 3597 2675 3597 1894 
z
M 3022 2063 
Q 3016 2534 2758 2815 
Q 2500 3097 2075 3097 
Q 1594 3097 1305 2825 
Q 1016 2553 972 2059 
L 3022 2063 
z
" transform="scale(0.015625)"/>
       <path id="DejaVuSans-440" d="M 1159 525 
L 1159 -1331 
L 581 -1331 
L 581 3500 
L 1159 3500 
L 1159 2969 
Q 1341 3281 1617 3432 
Q 1894 3584 2278 3584 
Q 2916 3584 3314 3078 
Q 3713 2572 3713 1747 
Q 3713 922 3314 415 
Q 2916 -91 2278 -91 
Q 1894 -91 1617 61 
Q 1341 213 1159 525 
z
M 3116 1747 
Q 3116 2381 2855 2742 
Q 2594 3103 2138 3103 
Q 1681 3103 1420 2742 
Q 1159 2381 1159 1747 
Q 1159 1113 1420 752 
Q 1681 391 2138 391 
Q 2594 391 2855 752 
Q 3116 1113 3116 1747 
z
" transform="scale(0.015625)"/>
       <path id="DejaVuSans-20" transform="scale(0.015625)"/>
       <path id="DejaVuSans-441" d="M 3122 3366 
L 3122 2828 
Q 2878 2963 2633 3030 
Q 2388 3097 2138 3097 
Q 1578 3097 1268 2742 
Q 959 2388 959 1747 
Q 959 1106 1268 751 
Q 1578 397 2138 397 
Q 2388 397 2633 464 
Q 2878 531 3122 666 
L 3122 134 
Q 2881 22 2623 -34 
Q 2366 -91 2075 -91 
Q 1284 -91 818 406 
Q 353 903 353 1747 
Q 353 2603 823 3093 
Q 1294 3584 2113 3584 
Q 2378 3584 2631 3529 
Q 2884 3475 3122 3366 
z
" transform="scale(0.015625)"/>
       <path id="DejaVuSans-43b" d="M 238 0 
L 238 478 
Q 806 566 981 959 
Q 1194 1513 1194 2928 
L 1194 3500 
L 3559 3500 
L 3559 0 
L 2984 0 
L 2984 3041 
L 1769 3041 
L 1769 2694 
Q 1769 1344 1494 738 
Q 1200 91 238 0 
z
" transform="scale(0.015625)"/>
       <path id="DejaVuSans-44f" d="M 1181 2491 
Q 1181 2231 1381 2084 
Q 1581 1938 1953 1938 
L 2728 1938 
L 2728 3041 
L 1953 3041 
Q 1581 3041 1381 2897 
Q 1181 2753 1181 2491 
z
M 363 0 
L 1431 1534 
Q 1069 1616 828 1830 
Q 588 2044 588 2491 
Q 588 2997 923 3248 
Q 1259 3500 1938 3500 
L 3306 3500 
L 3306 0 
L 2728 0 
L 2728 1478 
L 2013 1478 
L 981 0 
L 363 0 
z
" transform="scale(0.015625)"/>
      </defs>
      <use xlink:href="#DejaVuSans-41d"/>
      <use xlink:href="#DejaVuSans-43e" transform="translate(75.195312 0)"/>
      <use xlink:href="#DejaVuSans-43c" transform="translate(136.376953 0)"/>
      <use xlink:href="#DejaVuSans-435" transform="translate(211.816406 0)"/>
      <use xlink:href="#DejaVuSans-440" transform="translate(273.339844 0)"/>
      <use xlink:href="#DejaVuSans-20" transform="translate(336.816406 0)"/>
      <use xlink:href="#DejaVuSans-441" transform="translate(368.603516 0)"/>
      <use xlink:href="#DejaVuSans-43b" transform="translate(423.583984 0)"/>
      <use xlink:href="#DejaVuSans-43e" transform="translate(487.5 0)"/>
      <use xlink:href="#DejaVuSans-44f" transform="translate(548.681641 0)"/>
     </g>
    </g>
   </g>
   <g id="matplotlib.axis_2">
    <g id="ytick_1">
     <g id="line2d_7">
      <defs>
       <path id="m53ac0d4586" d="M 0 0 
L -3.5 0 
" style="stroke: #000000; stroke-width: 0.8"/>
      </defs>
      <g>
       <use xlink:href="#m53ac0d4586" x="54.02" y="206.138182" style="stroke: #000000; stroke-width: 0.8"/>
      </g>
     </g>
     <g id="text_8">
      <!-- 0.00 -->
      <g transform="translate(24.754375 209.937401) scale(0.1 -0.1)">
       <defs>
        <path id="DejaVuSans-2e" d="M 684 794 
L 1344 794 
L 1344 0 
L 684 0 
L 684 794 
z
" transform="scale(0.015625)"/>
       </defs>
       <use xlink:href="#DejaVuSans-30"/>
       <use xlink:href="#DejaVuSans-2e" transform="translate(63.623047 0)"/>
       <use xlink:href="#DejaVuSans-30" transform="translate(95.410156 0)"/>
       <use xlink:href="#DejaVuSans-30" transform="translate(159.033203 0)"/>
      </g>
     </g>
    </g>
    <g id="ytick_2">
     <g id="line2d_8">
      <g>
       <use xlink:href="#m53ac0d4586" x="54.02" y="180.780423" style="stroke: #000000; stroke-width: 0.8"/>
      </g>
     </g>
     <g id="text_9">
      <!-- 0.05 -->
      <g transform="translate(24.754375 184.579642) scale(0.1 -0.1)">
       <use xlink:href="#DejaVuSans-30"/>
       <use xlink:href="#DejaVuSans-2e" transform="translate(63.623047 0)"/>
       <use xlink:href="#DejaVuSans-30" transform="translate(95.410156 0)"/>
       <use xlink:href="#DejaVuSans-35" transform="translate(159.033203 0)"/>
      </g>
     </g>
    </g>
    <g id="ytick_3">
     <g id="line2d_9">
      <g>
       <use xlink:href="#m53ac0d4586" x="54.02" y="155.422664" style="stroke: #000000; stroke-width: 0.8"/>
      </g>
     </g>
     <g id="text_10">
      <!-- 0.10 -->
      <g transform="translate(24.754375 159.221883) scale(0.1 -0.1)">
       <use xlink:href="#DejaVuSans-30"/>
       <use xlink:href="#DejaVuSans-2e" transform="translate(63.623047 0)"/>
       <use xlink:href="#DejaVuSans-31" transform="translate(95.410156 0)"/>
       <use xlink:href="#DejaVuSans-30" transform="translate(159.033203 0)"/>
      </g>
     </g>
    </g>
    <g id="ytick_4">
     <g id="line2d_10">
      <g>
       <use xlink:href="#m53ac0d4586" x="54.02" y="130.064905" style="stroke: #000000; stroke-width: 0.8"/>
      </g>
     </g>
     <g id="text_11">
      <!-- 0.15 -->
      <g transform="translate(24.754375 133.864124) scale(0.1 -0.1)">
       <use xlink:href="#DejaVuSans-30"/>
       <use xlink:href="#DejaVuSans-2e" transform="translate(63.623047 0)"/>
       <use xlink:href="#DejaVuSans-31" transform="translate(95.410156 0)"/>
       <use xlink:href="#DejaVuSans-35" transform="translate(159.033203 0)"/>
      </g>
     </g>
    </g>
    <g id="ytick_5">
     <g id="line2d_11">
      <g>
       <use xlink:href="#m53ac0d4586" x="54.02" y="104.707147" style="stroke: #000000; stroke-width: 0.8"/>
      </g>
     </g>
     <g id="text_12">
      <!-- 0.20 -->
      <g transform="translate(24.754375 108.506365) scale(0.1 -0.1)">
       <use xlink:href="#DejaVuSans-30"/>
       <use xlink:href="#DejaVuSans-2e" transform="translate(63.623047 0)"/>
       <use xlink:href="#DejaVuSans-32" transform="translate(95.410156 0)"/>
       <use xlink:href="#DejaVuSans-30" transform="translate(159.033203 0)"/>
      </g>
     </g>
    </g>
    <g id="ytick_6">
     <g id="line2d_12">
      <g>
       <use xlink:href="#m53ac0d4586" x="54.02" y="79.349388" style="stroke: #000000; stroke-width: 0.8"/>
      </g>
     </g>
     <g id="text_13">
      <!-- 0.25 -->
      <g transform="translate(24.754375 83.148607) scale(0.1 -0.1)">
       <use xlink:href="#DejaVuSans-30"/>
       <use xlink:href="#DejaVuSans-2e" transform="translate(63.623047 0)"/>
       <use xlink:href="#DejaVuSans-32" transform="translate(95.410156 0)"/>
       <use xlink:href="#DejaVuSans-35" transform="translate(159.033203 0)"/>
      </g>
     </g>
    </g>
    <g id="ytick_7">
     <g id="line2d_13">
      <g>
       <use xlink:href="#m53ac0d4586" x="54.02" y="53.991629" style="stroke: #000000; stroke-width: 0.8"/>
      </g>
     </g>
     <g id="text_14">
      <!-- 0.30 -->
      <g transform="translate(24.754375 57.790848) scale(0.1 -0.1)">
       <defs>
        <path id="DejaVuSans-33" d="M 2597 2516 
Q 3050 2419 3304 2112 
Q 3559 1806 3559 1356 
Q 3559 666 3084 287 
Q 2609 -91 1734 -91 
Q 1441 -91 1130 -33 
Q 819 25 488 141 
L 488 750 
Q 750 597 1062 519 
Q 1375 441 1716 441 
Q 2309 441 2620 675 
Q 2931 909 2931 1356 
Q 2931 1769 2642 2001 
Q 2353 2234 1838 2234 
L 1294 2234 
L 1294 2753 
L 1863 2753 
Q 2328 2753 2575 2939 
Q 2822 3125 2822 3475 
Q 2822 3834 2567 4026 
Q 2313 4219 1838 4219 
Q 1578 4219 1281 4162 
Q 984 4106 628 3988 
L 628 4550 
Q 988 4650 1302 4700 
Q 1616 4750 1894 4750 
Q 2613 4750 3031 4423 
Q 3450 4097 3450 3541 
Q 3450 3153 3228 2886 
Q 3006 2619 2597 2516 
z
" transform="scale(0.015625)"/>
       </defs>
       <use xlink:href="#DejaVuSans-30"/>
       <use xlink:href="#DejaVuSans-2e" transform="translate(63.623047 0)"/>
       <use xlink:href="#DejaVuSans-33" transform="translate(95.410156 0)"/>
       <use xlink:href="#DejaVuSans-30" transform="translate(159.033203 0)"/>
      </g>
     </g>
    </g>
    <g id="ytick_8">
     <g id="line2d_14">
      <g>
       <use xlink:href="#m53ac0d4586" x="54.02" y="28.63387" style="stroke: #000000; stroke-width: 0.8"/>
      </g>
     </g>
     <g id="text_15">
      <!-- 0.35 -->
      <g transform="translate(24.754375 32.433089) scale(0.1 -0.1)">
       <use xlink:href="#DejaVuSans-30"/>
       <use xlink:href="#DejaVuSans-2e" transform="translate(63.623047 0)"/>
       <use xlink:href="#DejaVuSans-33" transform="translate(95.410156 0)"/>
       <use xlink:href="#DejaVuSans-35" transform="translate(159.033203 0)"/>
      </g>
     </g>
    </g>
    <g id="text_16">
     <!-- Относительная частота рождений -->
     <g transform="translate(18.674688 204.700469) rotate(-90) scale(0.1 -0.1)">
      <defs>
       <path id="DejaVuSans-41e" d="M 2522 4238 
Q 1834 4238 1429 3725 
Q 1025 3213 1025 2328 
Q 1025 1447 1429 934 
Q 1834 422 2522 422 
Q 3209 422 3611 934 
Q 4013 1447 4013 2328 
Q 4013 3213 3611 3725 
Q 3209 4238 2522 4238 
z
M 2522 4750 
Q 3503 4750 4090 4092 
Q 4678 3434 4678 2328 
Q 4678 1225 4090 567 
Q 3503 -91 2522 -91 
Q 1538 -91 948 565 
Q 359 1222 359 2328 
Q 359 3434 948 4092 
Q 1538 4750 2522 4750 
z
" transform="scale(0.015625)"/>
       <path id="DejaVuSans-442" d="M 188 3500 
L 3541 3500 
L 3541 3041 
L 2147 3041 
L 2147 0 
L 1581 0 
L 1581 3041 
L 188 3041 
L 188 3500 
z
" transform="scale(0.015625)"/>
       <path id="DejaVuSans-43d" d="M 581 3500 
L 1159 3500 
L 1159 2072 
L 3025 2072 
L 3025 3500 
L 3603 3500 
L 3603 0 
L 3025 0 
L 3025 1613 
L 1159 1613 
L 1159 0 
L 581 0 
L 581 3500 
z
" transform="scale(0.015625)"/>
       <path id="DejaVuSans-438" d="M 3578 3500 
L 3578 0 
L 3006 0 
L 3006 2809 
L 1319 0 
L 581 0 
L 581 3500 
L 1153 3500 
L 1153 697 
L 2838 3500 
L 3578 3500 
z
" transform="scale(0.015625)"/>
       <path id="DejaVuSans-44c" d="M 2781 1038 
Q 2781 1319 2576 1466 
Q 2372 1613 1978 1613 
L 1159 1613 
L 1159 459 
L 1978 459 
Q 2372 459 2576 607 
Q 2781 756 2781 1038 
z
M 581 3500 
L 1159 3500 
L 1159 2072 
L 2003 2072 
Q 2672 2072 3033 1817 
Q 3394 1563 3394 1038 
Q 3394 513 3033 256 
Q 2672 0 2003 0 
L 581 0 
L 581 3500 
z
" transform="scale(0.015625)"/>
       <path id="DejaVuSans-430" d="M 2194 1759 
Q 1497 1759 1228 1600 
Q 959 1441 959 1056 
Q 959 750 1161 570 
Q 1363 391 1709 391 
Q 2188 391 2477 730 
Q 2766 1069 2766 1631 
L 2766 1759 
L 2194 1759 
z
M 3341 1997 
L 3341 0 
L 2766 0 
L 2766 531 
Q 2569 213 2275 61 
Q 1981 -91 1556 -91 
Q 1019 -91 701 211 
Q 384 513 384 1019 
Q 384 1609 779 1909 
Q 1175 2209 1959 2209 
L 2766 2209 
L 2766 2266 
Q 2766 2663 2505 2880 
Q 2244 3097 1772 3097 
Q 1472 3097 1187 3025 
Q 903 2953 641 2809 
L 641 3341 
Q 956 3463 1253 3523 
Q 1550 3584 1831 3584 
Q 2591 3584 2966 3190 
Q 3341 2797 3341 1997 
z
" transform="scale(0.015625)"/>
       <path id="DejaVuSans-447" d="M 2625 0 
L 2625 1472 
L 1553 1472 
Q 1075 1472 756 1769 
Q 469 2038 469 2613 
L 469 3500 
L 1044 3500 
L 1044 2666 
Q 1044 2300 1206 2116 
Q 1372 1931 1697 1931 
L 2625 1931 
L 2625 3500 
L 3200 3500 
L 3200 0 
L 2625 0 
z
" transform="scale(0.015625)"/>
       <path id="DejaVuSans-436" d="M 2597 3500 
L 3169 3500 
L 3169 1856 
L 4697 3500 
L 5366 3500 
L 4109 2153 
L 5547 0 
L 4931 0 
L 3753 1769 
L 3169 1141 
L 3169 0 
L 2597 0 
L 2597 1141 
L 2013 1769 
L 834 0 
L 219 0 
L 1656 2153 
L 400 3500 
L 1069 3500 
L 2597 1856 
L 2597 3500 
z
" transform="scale(0.015625)"/>
       <path id="DejaVuSans-434" d="M 1384 459 
L 3053 459 
L 3053 3041 
L 1844 3041 
L 1844 2603 
Q 1844 1316 1475 628 
L 1384 459 
z
M 550 459 
Q 834 584 959 850 
Q 1266 1509 1266 2838 
L 1266 3500 
L 3631 3500 
L 3631 459 
L 4091 459 
L 4091 -884 
L 3631 -884 
L 3631 0 
L 794 0 
L 794 -884 
L 334 -884 
L 334 459 
L 550 459 
z
" transform="scale(0.015625)"/>
       <path id="DejaVuSans-439" d="M 3578 3500 
L 3578 0 
L 3006 0 
L 3006 2809 
L 1319 0 
L 581 0 
L 581 3500 
L 1153 3500 
L 1153 697 
L 2838 3500 
L 3578 3500 
z
M 1102 4833 
L 1471 4833 
Q 1505 4599 1656 4481 
Q 1808 4364 2080 4364 
Q 2349 4364 2499 4480 
Q 2649 4596 2689 4833 
L 3058 4833 
Q 3027 4386 2780 4161 
Q 2533 3936 2080 3936 
Q 1627 3936 1380 4161 
Q 1133 4386 1102 4833 
z
" transform="scale(0.015625)"/>
      </defs>
      <use xlink:href="#DejaVuSans-41e"/>
      <use xlink:href="#DejaVuSans-442" transform="translate(78.710938 0)"/>
      <use xlink:href="#DejaVuSans-43d" transform="translate(136.962891 0)"/>
      <use xlink:href="#DejaVuSans-43e" transform="translate(202.34375 0)"/>
      <use xlink:href="#DejaVuSans-441" transform="translate(263.525391 0)"/>
      <use xlink:href="#DejaVuSans-438" transform="translate(318.505859 0)"/>
      <use xlink:href="#DejaVuSans-442" transform="translate(383.496094 0)"/>
      <use xlink:href="#DejaVuSans-435" transform="translate(441.748047 0)"/>
      <use xlink:href="#DejaVuSans-43b" transform="translate(503.271484 0)"/>
      <use xlink:href="#DejaVuSans-44c" transform="translate(567.1875 0)"/>
      <use xlink:href="#DejaVuSans-43d" transform="translate(626.123047 0)"/>
      <use xlink:href="#DejaVuSans-430" transform="translate(691.503906 0)"/>
      <use xlink:href="#DejaVuSans-44f" transform="translate(752.783203 0)"/>
      <use xlink:href="#DejaVuSans-20" transform="translate(812.939453 0)"/>
      <use xlink:href="#DejaVuSans-447" transform="translate(844.726562 0)"/>
      <use xlink:href="#DejaVuSans-430" transform="translate(903.808594 0)"/>
      <use xlink:href="#DejaVuSans-441" transform="translate(965.087891 0)"/>
      <use xlink:href="#DejaVuSans-442" transform="translate(1020.068359 0)"/>
      <use xlink:href="#DejaVuSans-43e" transform="translate(1078.320312 0)"/>
      <use xlink:href="#DejaVuSans-442" transform="translate(1139.501953 0)"/>
      <use xlink:href="#DejaVuSans-430" transform="translate(1197.753906 0)"/>
      <use xlink:href="#DejaVuSans-20" transform="translate(1259.033203 0)"/>
      <use xlink:href="#DejaVuSans-440" transform="translate(1290.820312 0)"/>
      <use xlink:href="#DejaVuSans-43e" transform="translate(1354.296875 0)"/>
      <use xlink:href="#DejaVuSans-436" transform="translate(1415.478516 0)"/>
      <use xlink:href="#DejaVuSans-434" transform="translate(1505.566406 0)"/>
      <use xlink:href="#DejaVuSans-435" transform="translate(1574.707031 0)"/>
      <use xlink:href="#DejaVuSans-43d" transform="translate(1636.230469 0)"/>
      <use xlink:href="#DejaVuSans-438" transform="translate(1701.611328 0)"/>
      <use xlink:href="#DejaVuSans-439" transform="translate(1766.601562 0)"/>
     </g>
    </g>
   </g>
   <g id="line2d_15">
    <path d="M 72.444227 206.138182 
L 87.79775 20.101818 
L 103.151273 121.300765 
L 118.504796 45.37894 
L 133.858319 206.138182 
L 149.211842 130.616028 
L 164.565365 206.138182 
L 179.918888 206.138182 
L 195.272411 206.138182 
L 210.625934 206.138182 
L 225.979457 206.138182 
L 241.33298 206.138182 
L 256.686502 206.138182 
L 272.040025 206.138182 
L 287.393548 206.138182 
L 302.747071 206.138182 
L 318.100594 206.138182 
L 333.454117 206.138182 
L 348.80764 206.138182 
L 364.161163 206.138182 
L 379.514686 206.138182 
L 394.868209 206.138182 
L 410.221732 206.138182 
L 425.575255 206.138182 
L 440.928777 206.138182 
" clip-path="url(#p02350c819c)" style="fill: none; stroke: #648fff; stroke-width: 1.5; stroke-linecap: square"/>
   </g>
   <g id="line2d_16">
    <path d="M 72.444227 206.138182 
L 87.79775 37.086457 
L 103.151273 121.612319 
L 118.504796 37.086457 
L 133.858319 206.138182 
L 149.211842 121.612319 
L 164.565365 206.138182 
L 179.918888 206.138182 
L 195.272411 206.138182 
L 210.625934 206.138182 
L 225.979457 206.138182 
L 241.33298 206.138182 
L 256.686502 206.138182 
L 272.040025 206.138182 
L 287.393548 206.138182 
L 302.747071 206.138182 
L 318.100594 206.138182 
L 333.454117 206.138182 
L 348.80764 206.138182 
L 364.161163 206.138182 
L 379.514686 206.138182 
L 394.868209 206.138182 
L 410.221732 206.138182 
L 425.575255 206.138182 
L 440.928777 206.138182 
" clip-path="url(#p02350c819c)" style="fill: none; stroke: #785ef0; stroke-width: 1.5; stroke-linecap: square"/>
   </g>
   <g id="line2d_17">
    <path d="M 72.444227 206.138182 
L 87.79775 47.562736 
L 103.151273 123.195256 
L 118.504796 33.280923 
L 133.858319 206.138182 
L 149.211842 113.358637 
L 164.565365 206.138182 
L 179.918888 206.138182 
L 195.272411 206.138182 
L 210.625934 206.138182 
L 225.979457 206.138182 
L 241.33298 206.138182 
L 256.686502 206.138182 
L 272.040025 206.138182 
L 287.393548 206.138182 
L 302.747071 206.138182 
L 318.100594 206.138182 
L 333.454117 206.138182 
L 348.80764 206.138182 
L 364.161163 206.138182 
L 379.514686 206.138182 
L 394.868209 206.138182 
L 410.221732 206.138182 
L 425.575255 206.138182 
L 440.928777 206.138182 
" clip-path="url(#p02350c819c)" style="fill: none; stroke: #dc267f; stroke-width: 1.5; stroke-linecap: square"/>
   </g>
   <g id="line2d_18">
    <path d="M 72.444227 206.138182 
L 87.79775 56.331685 
L 103.151273 125.090527 
L 118.504796 31.047888 
L 133.858319 206.138182 
L 149.211842 104.927451 
L 164.565365 206.138182 
L 179.918888 206.138182 
L 195.272411 206.138182 
L 210.625934 206.138182 
L 225.979457 206.138182 
L 241.33298 206.138182 
L 256.686502 206.138182 
L 272.040025 206.138182 
L 287.393548 206.138182 
L 302.747071 206.138182 
L 318.100594 206.138182 
L 333.454117 206.138182 
L 348.80764 206.138182 
L 364.161163 206.138182 
L 379.514686 206.138182 
L 394.868209 206.138182 
L 410.221732 206.138182 
L 425.575255 206.138182 
L 440.928777 206.138182 
" clip-path="url(#p02350c819c)" style="fill: none; stroke: #fe6100; stroke-width: 1.5; stroke-linecap: square"/>
   </g>
   <g id="line2d_19">
    <path d="M 72.444227 206.138182 
L 87.79775 70.035415 
L 103.151273 128.684963 
L 118.504796 29.102252 
L 133.858319 206.138182 
L 149.211842 89.574921 
L 164.565365 206.138182 
L 179.918888 206.138182 
L 195.272411 206.138182 
L 210.625934 206.138182 
L 225.979457 206.138182 
L 241.33298 206.138182 
L 256.686502 206.138182 
L 272.040025 206.138182 
L 287.393548 206.138182 
L 302.747071 206.138182 
L 318.100594 206.138182 
L 333.454117 206.138182 
L 348.80764 206.138182 
L 364.161163 206.138182 
L 379.514686 206.138182 
L 394.868209 206.138182 
L 410.221732 206.138182 
L 425.575255 206.138182 
L 440.928777 206.138182 
" clip-path="url(#p02350c819c)" style="fill: none; stroke: #ffb000; stroke-width: 1.5; stroke-linecap: square"/>
   </g>
   <g id="line2d_20">
    <path d="M 54.02 185.851975 
L 459.353005 185.851975 
" clip-path="url(#p02350c819c)" style="fill: none; stroke-dasharray: 3.7,1.6; stroke-dashoffset: 0; stroke: #000000"/>
   </g>
   <g id="patch_3">
    <path d="M 54.02 215.44 
L 54.02 10.8 
" style="fill: none; stroke: #000000; stroke-width: 0.8; stroke-linejoin: miter; stroke-linecap: square"/>
   </g>
   <g id="patch_4">
    <path d="M 459.353005 215.44 
L 459.353005 10.8 
" style="fill: none; stroke: #000000; stroke-width: 0.8; stroke-linejoin: miter; stroke-linecap: square"/>
   </g>
   <g id="patch_5">
    <path d="M 54.02 215.44 
L 459.353005 215.44 
" style="fill: none; stroke: #000000; stroke-width: 0.8; stroke-linejoin: miter; stroke-linecap: square"/>
   </g>
   <g id="patch_6">
    <path d="M 54.02 10.8 
L 459.353005 10.8 
" style="fill: none; stroke: #000000; stroke-width: 0.8; stroke-linejoin: miter; stroke-linecap: square"/>
   </g>
   <g id="legend_1">
    <g id="patch_7">
     <path d="M 313.573317 106.86875 
L 452.353005 106.86875 
Q 454.353005 106.86875 454.353005 104.86875 
L 454.353005 17.8 
Q 454.353005 15.8 452.353005 15.8 
L 313.573317 15.8 
Q 311.573317 15.8 311.573317 17.8 
L 311.573317 104.86875 
Q 311.573317 106.86875 313.573317 106.86875 
z
" style="fill: #ffffff; opacity: 0.8; stroke: #cccccc; stroke-linejoin: miter"/>
    </g>
    <g id="line2d_21">
     <path d="M 315.573317 23.898438 
L 325.573317 23.898438 
L 335.573317 23.898438 
" style="fill: none; stroke: #648fff; stroke-width: 1.5; stroke-linecap: square"/>
    </g>
    <g id="text_17">
     <!-- $\alpha=-1.0$ -->
     <g transform="translate(343.573317 27.398438) scale(0.1 -0.1)">
      <defs>
       <path id="DejaVuSans-Oblique-3b1" d="M 2619 1628 
L 2622 2350 
Q 2625 3088 2069 3091 
Q 1653 3094 1394 2747 
Q 1069 2319 959 1747 
Q 825 1059 994 731 
Q 1169 397 1547 397 
Q 1966 397 2319 1063 
L 2619 1628 
z
M 2166 3578 
Q 3141 3594 3128 2584 
Q 3128 2584 3616 3500 
L 4128 3500 
L 3119 1603 
L 3109 919 
Q 3109 766 3194 638 
Q 3291 488 3391 488 
L 3669 488 
L 3575 0 
L 3228 0 
Q 2934 0 2722 263 
Q 2622 394 2619 669 
Q 2416 334 2066 50 
Q 1900 -81 1453 -78 
Q 722 -72 456 397 
Q 184 884 353 1747 
Q 534 2675 1009 3097 
Q 1544 3569 2166 3578 
z
" transform="scale(0.015625)"/>
       <path id="DejaVuSans-3d" d="M 678 2906 
L 4684 2906 
L 4684 2381 
L 678 2381 
L 678 2906 
z
M 678 1631 
L 4684 1631 
L 4684 1100 
L 678 1100 
L 678 1631 
z
" transform="scale(0.015625)"/>
       <path id="DejaVuSans-2212" d="M 678 2272 
L 4684 2272 
L 4684 1741 
L 678 1741 
L 678 2272 
z
" transform="scale(0.015625)"/>
      </defs>
      <use xlink:href="#DejaVuSans-Oblique-3b1" transform="translate(0 0.78125)"/>
      <use xlink:href="#DejaVuSans-3d" transform="translate(85.400391 0.78125)"/>
      <use xlink:href="#DejaVuSans-2212" transform="translate(188.671875 0.78125)"/>
      <use xlink:href="#DejaVuSans-31" transform="translate(272.460938 0.78125)"/>
      <use xlink:href="#DejaVuSans-2e" transform="translate(336.083984 0.78125)"/>
      <use xlink:href="#DejaVuSans-30" transform="translate(367.871094 0.78125)"/>
     </g>
    </g>
    <g id="line2d_22">
     <path d="M 315.573317 38.576563 
L 325.573317 38.576563 
L 335.573317 38.576563 
" style="fill: none; stroke: #785ef0; stroke-width: 1.5; stroke-linecap: square"/>
    </g>
    <g id="text_18">
     <!-- $\alpha=0.0$ -->
     <g transform="translate(343.573317 42.076563) scale(0.1 -0.1)">
      <use xlink:href="#DejaVuSans-Oblique-3b1" transform="translate(0 0.78125)"/>
      <use xlink:href="#DejaVuSans-3d" transform="translate(85.400391 0.78125)"/>
      <use xlink:href="#DejaVuSans-30" transform="translate(188.671875 0.78125)"/>
      <use xlink:href="#DejaVuSans-2e" transform="translate(252.294922 0.78125)"/>
      <use xlink:href="#DejaVuSans-30" transform="translate(284.082031 0.78125)"/>
     </g>
    </g>
    <g id="line2d_23">
     <path d="M 315.573317 53.254688 
L 325.573317 53.254688 
L 335.573317 53.254688 
" style="fill: none; stroke: #dc267f; stroke-width: 1.5; stroke-linecap: square"/>
    </g>
    <g id="text_19">
     <!-- $\alpha=0.5$ -->
     <g transform="translate(343.573317 56.754688) scale(0.1 -0.1)">
      <use xlink:href="#DejaVuSans-Oblique-3b1" transform="translate(0 0.78125)"/>
      <use xlink:href="#DejaVuSans-3d" transform="translate(85.400391 0.78125)"/>
      <use xlink:href="#DejaVuSans-30" transform="translate(188.671875 0.78125)"/>
      <use xlink:href="#DejaVuSans-2e" transform="translate(252.294922 0.78125)"/>
      <use xlink:href="#DejaVuSans-35" transform="translate(284.082031 0.78125)"/>
     </g>
    </g>
    <g id="line2d_24">
     <path d="M 315.573317 67.932813 
L 325.573317 67.932813 
L 335.573317 67.932813 
" style="fill: none; stroke: #fe6100; stroke-width: 1.5; stroke-linecap: square"/>
    </g>
    <g id="text_20">
     <!-- $\alpha=1.0$ -->
     <g transform="translate(343.573317 71.432813) scale(0.1 -0.1)">
      <use xlink:href="#DejaVuSans-Oblique-3b1" transform="translate(0 0.78125)"/>
      <use xlink:href="#DejaVuSans-3d" transform="translate(85.400391 0.78125)"/>
      <use xlink:href="#DejaVuSans-31" transform="translate(188.671875 0.78125)"/>
      <use xlink:href="#DejaVuSans-2e" transform="translate(252.294922 0.78125)"/>
      <use xlink:href="#DejaVuSans-30" transform="translate(284.082031 0.78125)"/>
     </g>
    </g>
    <g id="line2d_25">
     <path d="M 315.573317 82.610938 
L 325.573317 82.610938 
L 335.573317 82.610938 
" style="fill: none; stroke: #ffb000; stroke-width: 1.5; stroke-linecap: square"/>
    </g>
    <g id="text_21">
     <!-- $\alpha=2.0$ -->
     <g transform="translate(343.573317 86.110938) scale(0.1 -0.1)">
      <use xlink:href="#DejaVuSans-Oblique-3b1" transform="translate(0 0.78125)"/>
      <use xlink:href="#DejaVuSans-3d" transform="translate(85.400391 0.78125)"/>
      <use xlink:href="#DejaVuSans-32" transform="translate(188.671875 0.78125)"/>
      <use xlink:href="#DejaVuSans-2e" transform="translate(252.294922 0.78125)"/>
      <use xlink:href="#DejaVuSans-30" transform="translate(284.082031 0.78125)"/>
     </g>
    </g>
    <g id="line2d_26">
     <path d="M 315.573317 97.289063 
L 325.573317 97.289063 
L 335.573317 97.289063 
" style="fill: none; stroke-dasharray: 3.7,1.6; stroke-dashoffset: 0; stroke: #000000"/>
    </g>
    <g id="text_22">
     <!-- Равномерное распр. -->
     <g transform="translate(343.573317 100.789063) scale(0.1 -0.1)">
      <defs>
       <path id="DejaVuSans-420" d="M 1259 4147 
L 1259 2394 
L 2053 2394 
Q 2494 2394 2734 2622 
Q 2975 2850 2975 3272 
Q 2975 3691 2734 3919 
Q 2494 4147 2053 4147 
L 1259 4147 
z
M 628 4666 
L 2053 4666 
Q 2838 4666 3239 4311 
Q 3641 3956 3641 3272 
Q 3641 2581 3239 2228 
Q 2838 1875 2053 1875 
L 1259 1875 
L 1259 0 
L 628 0 
L 628 4666 
z
" transform="scale(0.015625)"/>
       <path id="DejaVuSans-432" d="M 1156 1613 
L 1156 459 
L 1975 459 
Q 2369 459 2575 607 
Q 2781 756 2781 1038 
Q 2781 1319 2575 1466 
Q 2369 1613 1975 1613 
L 1156 1613 
z
M 1156 3041 
L 1156 2072 
L 1913 2072 
Q 2238 2072 2444 2201 
Q 2650 2331 2650 2563 
Q 2650 2794 2444 2917 
Q 2238 3041 1913 3041 
L 1156 3041 
z
M 581 3500 
L 1950 3500 
Q 2566 3500 2897 3275 
Q 3228 3050 3228 2634 
Q 3228 2313 3059 2123 
Q 2891 1934 2559 1888 
Q 2956 1813 3175 1575 
Q 3394 1338 3394 981 
Q 3394 513 3033 256 
Q 2672 0 2003 0 
L 581 0 
L 581 3500 
z
" transform="scale(0.015625)"/>
       <path id="DejaVuSans-43f" d="M 3603 3500 
L 3603 0 
L 3025 0 
L 3025 3041 
L 1159 3041 
L 1159 0 
L 581 0 
L 581 3500 
L 3603 3500 
z
" transform="scale(0.015625)"/>
      </defs>
      <use xlink:href="#DejaVuSans-420"/>
      <use xlink:href="#DejaVuSans-430" transform="translate(60.302734 0)"/>
      <use xlink:href="#DejaVuSans-432" transform="translate(121.582031 0)"/>
      <use xlink:href="#DejaVuSans-43d" transform="translate(180.517578 0)"/>
      <use xlink:href="#DejaVuSans-43e" transform="translate(245.898438 0)"/>
      <use xlink:href="#DejaVuSans-43c" transform="translate(307.080078 0)"/>
      <use xlink:href="#DejaVuSans-435" transform="translate(382.519531 0)"/>
      <use xlink:href="#DejaVuSans-440" transform="translate(444.042969 0)"/>
      <use xlink:href="#DejaVuSans-43d" transform="translate(507.519531 0)"/>
      <use xlink:href="#DejaVuSans-43e" transform="translate(572.900391 0)"/>
      <use xlink:href="#DejaVuSans-435" transform="translate(634.082031 0)"/>
      <use xlink:href="#DejaVuSans-20" transform="translate(695.605469 0)"/>
      <use xlink:href="#DejaVuSans-440" transform="translate(727.392578 0)"/>
      <use xlink:href="#DejaVuSans-430" transform="translate(790.869141 0)"/>
      <use xlink:href="#DejaVuSans-441" transform="translate(852.148438 0)"/>
      <use xlink:href="#DejaVuSans-43f" transform="translate(907.128906 0)"/>
      <use xlink:href="#DejaVuSans-440" transform="translate(972.509766 0)"/>
      <use xlink:href="#DejaVuSans-2e" transform="translate(1035.986328 0)"/>
     </g>
    </g>
   </g>
  </g>
  <g id="axes_2">
   <g id="patch_8">
    <path d="M 516.62 215.44 
L 921.953005 215.44 
L 921.953005 10.8 
L 516.62 10.8 
z
" style="fill: #ffffff"/>
   </g>
   <g id="matplotlib.axis_3">
    <g id="xtick_7">
     <g id="line2d_27">
      <g>
       <use xlink:href="#mbb52079e2e" x="535.044227" y="215.44" style="stroke: #000000; stroke-width: 0.8"/>
      </g>
     </g>
     <g id="text_23">
      <!-- 0 -->
      <g transform="translate(531.862977 230.038438) scale(0.1 -0.1)">
       <use xlink:href="#DejaVuSans-30"/>
      </g>
     </g>
    </g>
    <g id="xtick_8">
     <g id="line2d_28">
      <g>
       <use xlink:href="#mbb52079e2e" x="611.811842" y="215.44" style="stroke: #000000; stroke-width: 0.8"/>
      </g>
     </g>
     <g id="text_24">
      <!-- 5 -->
      <g transform="translate(608.630592 230.038438) scale(0.1 -0.1)">
       <use xlink:href="#DejaVuSans-35"/>
      </g>
     </g>
    </g>
    <g id="xtick_9">
     <g id="line2d_29">
      <g>
       <use xlink:href="#mbb52079e2e" x="688.579457" y="215.44" style="stroke: #000000; stroke-width: 0.8"/>
      </g>
     </g>
     <g id="text_25">
      <!-- 10 -->
      <g transform="translate(682.216957 230.038438) scale(0.1 -0.1)">
       <use xlink:href="#DejaVuSans-31"/>
       <use xlink:href="#DejaVuSans-30" transform="translate(63.623047 0)"/>
      </g>
     </g>
    </g>
    <g id="xtick_10">
     <g id="line2d_30">
      <g>
       <use xlink:href="#mbb52079e2e" x="765.347071" y="215.44" style="stroke: #000000; stroke-width: 0.8"/>
      </g>
     </g>
     <g id="text_26">
      <!-- 15 -->
      <g transform="translate(758.984571 230.038438) scale(0.1 -0.1)">
       <use xlink:href="#DejaVuSans-31"/>
       <use xlink:href="#DejaVuSans-35" transform="translate(63.623047 0)"/>
      </g>
     </g>
    </g>
    <g id="xtick_11">
     <g id="line2d_31">
      <g>
       <use xlink:href="#mbb52079e2e" x="842.114686" y="215.44" style="stroke: #000000; stroke-width: 0.8"/>
      </g>
     </g>
     <g id="text_27">
      <!-- 20 -->
      <g transform="translate(835.752186 230.038438) scale(0.1 -0.1)">
       <use xlink:href="#DejaVuSans-32"/>
       <use xlink:href="#DejaVuSans-30" transform="translate(63.623047 0)"/>
      </g>
     </g>
    </g>
    <g id="xtick_12">
     <g id="line2d_32">
      <g>
       <use xlink:href="#mbb52079e2e" x="918.8823" y="215.44" style="stroke: #000000; stroke-width: 0.8"/>
      </g>
     </g>
     <g id="text_28">
      <!-- 25 -->
      <g transform="translate(912.5198 230.038438) scale(0.1 -0.1)">
       <use xlink:href="#DejaVuSans-32"/>
       <use xlink:href="#DejaVuSans-35" transform="translate(63.623047 0)"/>
      </g>
     </g>
    </g>
    <g id="text_29">
     <!-- Номер слоя -->
     <g transform="translate(688.842752 243.716563) scale(0.1 -0.1)">
      <use xlink:href="#DejaVuSans-41d"/>
      <use xlink:href="#DejaVuSans-43e" transform="translate(75.195312 0)"/>
      <use xlink:href="#DejaVuSans-43c" transform="translate(136.376953 0)"/>
      <use xlink:href="#DejaVuSans-435" transform="translate(211.816406 0)"/>
      <use xlink:href="#DejaVuSans-440" transform="translate(273.339844 0)"/>
      <use xlink:href="#DejaVuSans-20" transform="translate(336.816406 0)"/>
      <use xlink:href="#DejaVuSans-441" transform="translate(368.603516 0)"/>
      <use xlink:href="#DejaVuSans-43b" transform="translate(423.583984 0)"/>
      <use xlink:href="#DejaVuSans-43e" transform="translate(487.5 0)"/>
      <use xlink:href="#DejaVuSans-44f" transform="translate(548.681641 0)"/>
     </g>
    </g>
   </g>
   <g id="matplotlib.axis_4">
    <g id="ytick_9">
     <g id="line2d_33">
      <g>
       <use xlink:href="#m53ac0d4586" x="516.62" y="206.138182" style="stroke: #000000; stroke-width: 0.8"/>
      </g>
     </g>
     <g id="text_30">
      <!-- 0.00 -->
      <g transform="translate(487.354375 209.937401) scale(0.1 -0.1)">
       <use xlink:href="#DejaVuSans-30"/>
       <use xlink:href="#DejaVuSans-2e" transform="translate(63.623047 0)"/>
       <use xlink:href="#DejaVuSans-30" transform="translate(95.410156 0)"/>
       <use xlink:href="#DejaVuSans-30" transform="translate(159.033203 0)"/>
      </g>
     </g>
    </g>
    <g id="ytick_10">
     <g id="line2d_34">
      <g>
       <use xlink:href="#m53ac0d4586" x="516.62" y="179.395338" style="stroke: #000000; stroke-width: 0.8"/>
      </g>
     </g>
     <g id="text_31">
      <!-- 0.02 -->
      <g transform="translate(487.354375 183.194557) scale(0.1 -0.1)">
       <use xlink:href="#DejaVuSans-30"/>
       <use xlink:href="#DejaVuSans-2e" transform="translate(63.623047 0)"/>
       <use xlink:href="#DejaVuSans-30" transform="translate(95.410156 0)"/>
       <use xlink:href="#DejaVuSans-32" transform="translate(159.033203 0)"/>
      </g>
     </g>
    </g>
    <g id="ytick_11">
     <g id="line2d_35">
      <g>
       <use xlink:href="#m53ac0d4586" x="516.62" y="152.652494" style="stroke: #000000; stroke-width: 0.8"/>
      </g>
     </g>
     <g id="text_32">
      <!-- 0.04 -->
      <g transform="translate(487.354375 156.451713) scale(0.1 -0.1)">
       <defs>
        <path id="DejaVuSans-34" d="M 2419 4116 
L 825 1625 
L 2419 1625 
L 2419 4116 
z
M 2253 4666 
L 3047 4666 
L 3047 1625 
L 3713 1625 
L 3713 1100 
L 3047 1100 
L 3047 0 
L 2419 0 
L 2419 1100 
L 313 1100 
L 313 1709 
L 2253 4666 
z
" transform="scale(0.015625)"/>
       </defs>
       <use xlink:href="#DejaVuSans-30"/>
       <use xlink:href="#DejaVuSans-2e" transform="translate(63.623047 0)"/>
       <use xlink:href="#DejaVuSans-30" transform="translate(95.410156 0)"/>
       <use xlink:href="#DejaVuSans-34" transform="translate(159.033203 0)"/>
      </g>
     </g>
    </g>
    <g id="ytick_12">
     <g id="line2d_36">
      <g>
       <use xlink:href="#m53ac0d4586" x="516.62" y="125.90965" style="stroke: #000000; stroke-width: 0.8"/>
      </g>
     </g>
     <g id="text_33">
      <!-- 0.06 -->
      <g transform="translate(487.354375 129.708869) scale(0.1 -0.1)">
       <defs>
        <path id="DejaVuSans-36" d="M 2113 2584 
Q 1688 2584 1439 2293 
Q 1191 2003 1191 1497 
Q 1191 994 1439 701 
Q 1688 409 2113 409 
Q 2538 409 2786 701 
Q 3034 994 3034 1497 
Q 3034 2003 2786 2293 
Q 2538 2584 2113 2584 
z
M 3366 4563 
L 3366 3988 
Q 3128 4100 2886 4159 
Q 2644 4219 2406 4219 
Q 1781 4219 1451 3797 
Q 1122 3375 1075 2522 
Q 1259 2794 1537 2939 
Q 1816 3084 2150 3084 
Q 2853 3084 3261 2657 
Q 3669 2231 3669 1497 
Q 3669 778 3244 343 
Q 2819 -91 2113 -91 
Q 1303 -91 875 529 
Q 447 1150 447 2328 
Q 447 3434 972 4092 
Q 1497 4750 2381 4750 
Q 2619 4750 2861 4703 
Q 3103 4656 3366 4563 
z
" transform="scale(0.015625)"/>
       </defs>
       <use xlink:href="#DejaVuSans-30"/>
       <use xlink:href="#DejaVuSans-2e" transform="translate(63.623047 0)"/>
       <use xlink:href="#DejaVuSans-30" transform="translate(95.410156 0)"/>
       <use xlink:href="#DejaVuSans-36" transform="translate(159.033203 0)"/>
      </g>
     </g>
    </g>
    <g id="ytick_13">
     <g id="line2d_37">
      <g>
       <use xlink:href="#m53ac0d4586" x="516.62" y="99.166806" style="stroke: #000000; stroke-width: 0.8"/>
      </g>
     </g>
     <g id="text_34">
      <!-- 0.08 -->
      <g transform="translate(487.354375 102.966025) scale(0.1 -0.1)">
       <defs>
        <path id="DejaVuSans-38" d="M 2034 2216 
Q 1584 2216 1326 1975 
Q 1069 1734 1069 1313 
Q 1069 891 1326 650 
Q 1584 409 2034 409 
Q 2484 409 2743 651 
Q 3003 894 3003 1313 
Q 3003 1734 2745 1975 
Q 2488 2216 2034 2216 
z
M 1403 2484 
Q 997 2584 770 2862 
Q 544 3141 544 3541 
Q 544 4100 942 4425 
Q 1341 4750 2034 4750 
Q 2731 4750 3128 4425 
Q 3525 4100 3525 3541 
Q 3525 3141 3298 2862 
Q 3072 2584 2669 2484 
Q 3125 2378 3379 2068 
Q 3634 1759 3634 1313 
Q 3634 634 3220 271 
Q 2806 -91 2034 -91 
Q 1263 -91 848 271 
Q 434 634 434 1313 
Q 434 1759 690 2068 
Q 947 2378 1403 2484 
z
M 1172 3481 
Q 1172 3119 1398 2916 
Q 1625 2713 2034 2713 
Q 2441 2713 2670 2916 
Q 2900 3119 2900 3481 
Q 2900 3844 2670 4047 
Q 2441 4250 2034 4250 
Q 1625 4250 1398 4047 
Q 1172 3844 1172 3481 
z
" transform="scale(0.015625)"/>
       </defs>
       <use xlink:href="#DejaVuSans-30"/>
       <use xlink:href="#DejaVuSans-2e" transform="translate(63.623047 0)"/>
       <use xlink:href="#DejaVuSans-30" transform="translate(95.410156 0)"/>
       <use xlink:href="#DejaVuSans-38" transform="translate(159.033203 0)"/>
      </g>
     </g>
    </g>
    <g id="ytick_14">
     <g id="line2d_38">
      <g>
       <use xlink:href="#m53ac0d4586" x="516.62" y="72.423963" style="stroke: #000000; stroke-width: 0.8"/>
      </g>
     </g>
     <g id="text_35">
      <!-- 0.10 -->
      <g transform="translate(487.354375 76.223181) scale(0.1 -0.1)">
       <use xlink:href="#DejaVuSans-30"/>
       <use xlink:href="#DejaVuSans-2e" transform="translate(63.623047 0)"/>
       <use xlink:href="#DejaVuSans-31" transform="translate(95.410156 0)"/>
       <use xlink:href="#DejaVuSans-30" transform="translate(159.033203 0)"/>
      </g>
     </g>
    </g>
    <g id="ytick_15">
     <g id="line2d_39">
      <g>
       <use xlink:href="#m53ac0d4586" x="516.62" y="45.681119" style="stroke: #000000; stroke-width: 0.8"/>
      </g>
     </g>
     <g id="text_36">
      <!-- 0.12 -->
      <g transform="translate(487.354375 49.480338) scale(0.1 -0.1)">
       <use xlink:href="#DejaVuSans-30"/>
       <use xlink:href="#DejaVuSans-2e" transform="translate(63.623047 0)"/>
       <use xlink:href="#DejaVuSans-31" transform="translate(95.410156 0)"/>
       <use xlink:href="#DejaVuSans-32" transform="translate(159.033203 0)"/>
      </g>
     </g>
    </g>
    <g id="ytick_16">
     <g id="line2d_40">
      <g>
       <use xlink:href="#m53ac0d4586" x="516.62" y="18.938275" style="stroke: #000000; stroke-width: 0.8"/>
      </g>
     </g>
     <g id="text_37">
      <!-- 0.14 -->
      <g transform="translate(487.354375 22.737494) scale(0.1 -0.1)">
       <use xlink:href="#DejaVuSans-30"/>
       <use xlink:href="#DejaVuSans-2e" transform="translate(63.623047 0)"/>
       <use xlink:href="#DejaVuSans-31" transform="translate(95.410156 0)"/>
       <use xlink:href="#DejaVuSans-34" transform="translate(159.033203 0)"/>
      </g>
     </g>
    </g>
    <g id="text_38">
     <!-- Относительная частота рождений -->
     <g transform="translate(481.274688 204.700469) rotate(-90) scale(0.1 -0.1)">
      <use xlink:href="#DejaVuSans-41e"/>
      <use xlink:href="#DejaVuSans-442" transform="translate(78.710938 0)"/>
      <use xlink:href="#DejaVuSans-43d" transform="translate(136.962891 0)"/>
      <use xlink:href="#DejaVuSans-43e" transform="translate(202.34375 0)"/>
      <use xlink:href="#DejaVuSans-441" transform="translate(263.525391 0)"/>
      <use xlink:href="#DejaVuSans-438" transform="translate(318.505859 0)"/>
      <use xlink:href="#DejaVuSans-442" transform="translate(383.496094 0)"/>
      <use xlink:href="#DejaVuSans-435" transform="translate(441.748047 0)"/>
      <use xlink:href="#DejaVuSans-43b" transform="translate(503.271484 0)"/>
      <use xlink:href="#DejaVuSans-44c" transform="translate(567.1875 0)"/>
      <use xlink:href="#DejaVuSans-43d" transform="translate(626.123047 0)"/>
      <use xlink:href="#DejaVuSans-430" transform="translate(691.503906 0)"/>
      <use xlink:href="#DejaVuSans-44f" transform="translate(752.783203 0)"/>
      <use xlink:href="#DejaVuSans-20" transform="translate(812.939453 0)"/>
      <use xlink:href="#DejaVuSans-447" transform="translate(844.726562 0)"/>
      <use xlink:href="#DejaVuSans-430" transform="translate(903.808594 0)"/>
      <use xlink:href="#DejaVuSans-441" transform="translate(965.087891 0)"/>
      <use xlink:href="#DejaVuSans-442" transform="translate(1020.068359 0)"/>
      <use xlink:href="#DejaVuSans-43e" transform="translate(1078.320312 0)"/>
      <use xlink:href="#DejaVuSans-442" transform="translate(1139.501953 0)"/>
      <use xlink:href="#DejaVuSans-430" transform="translate(1197.753906 0)"/>
      <use xlink:href="#DejaVuSans-20" transform="translate(1259.033203 0)"/>
      <use xlink:href="#DejaVuSans-440" transform="translate(1290.820312 0)"/>
      <use xlink:href="#DejaVuSans-43e" transform="translate(1354.296875 0)"/>
      <use xlink:href="#DejaVuSans-436" transform="translate(1415.478516 0)"/>
      <use xlink:href="#DejaVuSans-434" transform="translate(1505.566406 0)"/>
      <use xlink:href="#DejaVuSans-435" transform="translate(1574.707031 0)"/>
      <use xlink:href="#DejaVuSans-43d" transform="translate(1636.230469 0)"/>
      <use xlink:href="#DejaVuSans-438" transform="translate(1701.611328 0)"/>
      <use xlink:href="#DejaVuSans-439" transform="translate(1766.601562 0)"/>
     </g>
    </g>
   </g>
   <g id="line2d_41">
    <path d="M 535.044227 206.138182 
L 550.39775 206.138182 
L 565.751273 52.553642 
L 581.104796 58.653652 
L 596.458319 72.63841 
L 611.811842 64.844182 
L 627.165365 55.920423 
L 642.518888 66.436274 
L 657.872411 106.706344 
L 673.225934 130.248337 
L 688.579457 139.156915 
L 703.93298 175.409766 
L 719.286502 180.324283 
L 734.640025 173.152325 
L 749.993548 181.806887 
L 765.347071 189.737196 
L 780.700594 194.110701 
L 796.054117 193.27111 
L 811.40764 190.403977 
L 826.761163 192.391796 
L 842.114686 193.219246 
L 857.468209 188.016831 
L 872.821732 199.57689 
L 888.175255 199.318621 
L 903.528777 206.138182 
" clip-path="url(#p02b58dde44)" style="fill: none; stroke: #648fff; stroke-width: 1.5; stroke-linecap: square"/>
   </g>
   <g id="line2d_42">
    <path d="M 535.044227 206.138182 
L 550.39775 206.138182 
L 565.751273 90.662883 
L 581.104796 88.60545 
L 596.458319 90.153091 
L 611.811842 80.930344 
L 627.165365 74.384419 
L 642.518888 82.542747 
L 657.872411 110.239217 
L 673.225934 122.562228 
L 688.579457 126.864738 
L 703.93298 170.517523 
L 719.286502 166.5903 
L 734.640025 148.362339 
L 749.993548 170.379696 
L 765.347071 181.877409 
L 780.700594 187.770735 
L 796.054117 183.288885 
L 811.40764 175.519127 
L 826.761163 182.779093 
L 842.114686 183.247371 
L 857.468209 185.794669 
L 872.821732 197.591283 
L 888.175255 197.234262 
L 903.528777 206.138182 
" clip-path="url(#p02b58dde44)" style="fill: none; stroke: #785ef0; stroke-width: 1.5; stroke-linecap: square"/>
   </g>
   <g id="line2d_43">
    <path d="M 535.044227 206.138182 
L 550.39775 206.138182 
L 565.751273 122.086165 
L 581.104796 116.682947 
L 596.458319 110.80036 
L 611.811842 100.199133 
L 627.165365 93.966536 
L 642.518888 98.730143 
L 657.872411 116.002319 
L 673.225934 118.93061 
L 688.579457 117.689255 
L 703.93298 166.217044 
L 719.286502 154.026435 
L 734.640025 121.899618 
L 749.993548 157.107377 
L 765.347071 173.040125 
L 780.700594 180.940728 
L 796.054117 172.515517 
L 811.40764 157.889629 
L 826.761163 170.929745 
L 842.114686 171.511882 
L 857.468209 184.910536 
L 872.821732 196.190867 
L 888.175255 195.630839 
L 903.528777 206.138182 
" clip-path="url(#p02b58dde44)" style="fill: none; stroke: #dc267f; stroke-width: 1.5; stroke-linecap: square"/>
   </g>
   <g id="line2d_44">
    <path d="M 535.044227 206.138182 
L 550.39775 206.138182 
L 565.751273 153.005078 
L 581.104796 147.231826 
L 596.458319 137.428092 
L 611.811842 127.355934 
L 627.165365 122.325308 
L 642.518888 123.707065 
L 657.872411 129.367171 
L 673.225934 121.505897 
L 688.579457 112.231496 
L 703.93298 162.809506 
L 719.286502 139.630173 
L 734.640025 85.998222 
L 749.993548 138.169374 
L 765.347071 160.420958 
L 780.700594 171.386074 
L 796.054117 157.320131 
L 811.40764 131.134472 
L 826.761163 152.186731 
L 842.114686 152.924115 
L 857.468209 183.986606 
L 872.821732 194.377688 
L 888.175255 193.395889 
L 903.528777 206.138182 
" clip-path="url(#p02b58dde44)" style="fill: none; stroke: #fe6100; stroke-width: 1.5; stroke-linecap: square"/>
   </g>
   <g id="line2d_45">
    <path d="M 535.044227 206.138182 
L 550.39775 206.138182 
L 565.751273 192.962506 
L 581.104796 190.425461 
L 596.458319 183.223131 
L 611.811842 178.422998 
L 627.165365 177.257728 
L 642.518888 176.217587 
L 657.872411 169.226807 
L 673.225934 149.998447 
L 688.579457 127.201893 
L 703.93298 165.554002 
L 719.286502 123.006256 
L 734.640025 20.101818 
L 749.993548 98.870075 
L 765.347071 133.042273 
L 780.700594 151.046406 
L 796.054117 125.108194 
L 811.40764 67.659731 
L 826.761163 104.136792 
L 842.114686 103.48807 
L 857.468209 181.997879 
L 872.821732 190.546776 
L 888.175255 188.402978 
L 903.528777 206.138182 
" clip-path="url(#p02b58dde44)" style="fill: none; stroke: #ffb000; stroke-width: 1.5; stroke-linecap: square"/>
   </g>
   <g id="line2d_46">
    <path d="M 516.62 152.652494 
L 921.953005 152.652494 
" clip-path="url(#p02b58dde44)" style="fill: none; stroke-dasharray: 3.7,1.6; stroke-dashoffset: 0; stroke: #000000"/>
   </g>
   <g id="patch_9">
    <path d="M 516.62 215.44 
L 516.62 10.8 
" style="fill: none; stroke: #000000; stroke-width: 0.8; stroke-linejoin: miter; stroke-linecap: square"/>
   </g>
   <g id="patch_10">
    <path d="M 921.953005 215.44 
L 921.953005 10.8 
" style="fill: none; stroke: #000000; stroke-width: 0.8; stroke-linejoin: miter; stroke-linecap: square"/>
   </g>
   <g id="patch_11">
    <path d="M 516.62 215.44 
L 921.953005 215.44 
" style="fill: none; stroke: #000000; stroke-width: 0.8; stroke-linejoin: miter; stroke-linecap: square"/>
   </g>
   <g id="patch_12">
    <path d="M 516.62 10.8 
L 921.953005 10.8 
" style="fill: none; stroke: #000000; stroke-width: 0.8; stroke-linejoin: miter; stroke-linecap: square"/>
   </g>
   <g id="legend_2">
    <g id="patch_13">
     <path d="M 776.173317 106.86875 
L 914.953005 106.86875 
Q 916.953005 106.86875 916.953005 104.86875 
L 916.953005 17.8 
Q 916.953005 15.8 914.953005 15.8 
L 776.173317 15.8 
Q 774.173317 15.8 774.173317 17.8 
L 774.173317 104.86875 
Q 774.173317 106.86875 776.173317 106.86875 
z
" style="fill: #ffffff; opacity: 0.8; stroke: #cccccc; stroke-linejoin: miter"/>
    </g>
    <g id="line2d_47">
     <path d="M 778.173317 23.898438 
L 788.173317 23.898438 
L 798.173317 23.898438 
" style="fill: none; stroke: #648fff; stroke-width: 1.5; stroke-linecap: square"/>
    </g>
    <g id="text_39">
     <!-- $\alpha=-1.0$ -->
     <g transform="translate(806.173317 27.398438) scale(0.1 -0.1)">
      <use xlink:href="#DejaVuSans-Oblique-3b1" transform="translate(0 0.78125)"/>
      <use xlink:href="#DejaVuSans-3d" transform="translate(85.400391 0.78125)"/>
      <use xlink:href="#DejaVuSans-2212" transform="translate(188.671875 0.78125)"/>
      <use xlink:href="#DejaVuSans-31" transform="translate(272.460938 0.78125)"/>
      <use xlink:href="#DejaVuSans-2e" transform="translate(336.083984 0.78125)"/>
      <use xlink:href="#DejaVuSans-30" transform="translate(367.871094 0.78125)"/>
     </g>
    </g>
    <g id="line2d_48">
     <path d="M 778.173317 38.576563 
L 788.173317 38.576563 
L 798.173317 38.576563 
" style="fill: none; stroke: #785ef0; stroke-width: 1.5; stroke-linecap: square"/>
    </g>
    <g id="text_40">
     <!-- $\alpha=0.0$ -->
     <g transform="translate(806.173317 42.076563) scale(0.1 -0.1)">
      <use xlink:href="#DejaVuSans-Oblique-3b1" transform="translate(0 0.78125)"/>
      <use xlink:href="#DejaVuSans-3d" transform="translate(85.400391 0.78125)"/>
      <use xlink:href="#DejaVuSans-30" transform="translate(188.671875 0.78125)"/>
      <use xlink:href="#DejaVuSans-2e" transform="translate(252.294922 0.78125)"/>
      <use xlink:href="#DejaVuSans-30" transform="translate(284.082031 0.78125)"/>
     </g>
    </g>
    <g id="line2d_49">
     <path d="M 778.173317 53.254688 
L 788.173317 53.254688 
L 798.173317 53.254688 
" style="fill: none; stroke: #dc267f; stroke-width: 1.5; stroke-linecap: square"/>
    </g>
    <g id="text_41">
     <!-- $\alpha=0.5$ -->
     <g transform="translate(806.173317 56.754688) scale(0.1 -0.1)">
      <use xlink:href="#DejaVuSans-Oblique-3b1" transform="translate(0 0.78125)"/>
      <use xlink:href="#DejaVuSans-3d" transform="translate(85.400391 0.78125)"/>
      <use xlink:href="#DejaVuSans-30" transform="translate(188.671875 0.78125)"/>
      <use xlink:href="#DejaVuSans-2e" transform="translate(252.294922 0.78125)"/>
      <use xlink:href="#DejaVuSans-35" transform="translate(284.082031 0.78125)"/>
     </g>
    </g>
    <g id="line2d_50">
     <path d="M 778.173317 67.932813 
L 788.173317 67.932813 
L 798.173317 67.932813 
" style="fill: none; stroke: #fe6100; stroke-width: 1.5; stroke-linecap: square"/>
    </g>
    <g id="text_42">
     <!-- $\alpha=1.0$ -->
     <g transform="translate(806.173317 71.432813) scale(0.1 -0.1)">
      <use xlink:href="#DejaVuSans-Oblique-3b1" transform="translate(0 0.78125)"/>
      <use xlink:href="#DejaVuSans-3d" transform="translate(85.400391 0.78125)"/>
      <use xlink:href="#DejaVuSans-31" transform="translate(188.671875 0.78125)"/>
      <use xlink:href="#DejaVuSans-2e" transform="translate(252.294922 0.78125)"/>
      <use xlink:href="#DejaVuSans-30" transform="translate(284.082031 0.78125)"/>
     </g>
    </g>
    <g id="line2d_51">
     <path d="M 778.173317 82.610938 
L 788.173317 82.610938 
L 798.173317 82.610938 
" style="fill: none; stroke: #ffb000; stroke-width: 1.5; stroke-linecap: square"/>
    </g>
    <g id="text_43">
     <!-- $\alpha=2.0$ -->
     <g transform="translate(806.173317 86.110938) scale(0.1 -0.1)">
      <use xlink:href="#DejaVuSans-Oblique-3b1" transform="translate(0 0.78125)"/>
      <use xlink:href="#DejaVuSans-3d" transform="translate(85.400391 0.78125)"/>
      <use xlink:href="#DejaVuSans-32" transform="translate(188.671875 0.78125)"/>
      <use xlink:href="#DejaVuSans-2e" transform="translate(252.294922 0.78125)"/>
      <use xlink:href="#DejaVuSans-30" transform="translate(284.082031 0.78125)"/>
     </g>
    </g>
    <g id="line2d_52">
     <path d="M 778.173317 97.289063 
L 788.173317 97.289063 
L 798.173317 97.289063 
" style="fill: none; stroke-dasharray: 3.7,1.6; stroke-dashoffset: 0; stroke: #000000"/>
    </g>
    <g id="text_44">
     <!-- Равномерное распр. -->
     <g transform="translate(806.173317 100.789063) scale(0.1 -0.1)">
      <use xlink:href="#DejaVuSans-420"/>
      <use xlink:href="#DejaVuSans-430" transform="translate(60.302734 0)"/>
      <use xlink:href="#DejaVuSans-432" transform="translate(121.582031 0)"/>
      <use xlink:href="#DejaVuSans-43d" transform="translate(180.517578 0)"/>
      <use xlink:href="#DejaVuSans-43e" transform="translate(245.898438 0)"/>
      <use xlink:href="#DejaVuSans-43c" transform="translate(307.080078 0)"/>
      <use xlink:href="#DejaVuSans-435" transform="translate(382.519531 0)"/>
      <use xlink:href="#DejaVuSans-440" transform="translate(444.042969 0)"/>
      <use xlink:href="#DejaVuSans-43d" transform="translate(507.519531 0)"/>
      <use xlink:href="#DejaVuSans-43e" transform="translate(572.900391 0)"/>
      <use xlink:href="#DejaVuSans-435" transform="translate(634.082031 0)"/>
      <use xlink:href="#DejaVuSans-20" transform="translate(695.605469 0)"/>
      <use xlink:href="#DejaVuSans-440" transform="translate(727.392578 0)"/>
      <use xlink:href="#DejaVuSans-430" transform="translate(790.869141 0)"/>
      <use xlink:href="#DejaVuSans-441" transform="translate(852.148438 0)"/>
      <use xlink:href="#DejaVuSans-43f" transform="translate(907.128906 0)"/>
      <use xlink:href="#DejaVuSans-440" transform="translate(972.509766 0)"/>
      <use xlink:href="#DejaVuSans-2e" transform="translate(1035.986328 0)"/>
     </g>
    </g>
   </g>
  </g>
  <g id="axes_3">
   <g id="patch_14">
    <path d="M 54.02 462.04 
L 459.353005 462.04 
L 459.353005 257.4 
L 54.02 257.4 
z
" style="fill: #ffffff"/>
   </g>
   <g id="matplotlib.axis_5">
    <g id="xtick_13">
     <g id="line2d_53">
      <g>
       <use xlink:href="#mbb52079e2e" x="72.444227" y="462.04" style="stroke: #000000; stroke-width: 0.8"/>
      </g>
     </g>
     <g id="text_45">
      <!-- 0 -->
      <g transform="translate(69.262977 476.638438) scale(0.1 -0.1)">
       <use xlink:href="#DejaVuSans-30"/>
      </g>
     </g>
    </g>
    <g id="xtick_14">
     <g id="line2d_54">
      <g>
       <use xlink:href="#mbb52079e2e" x="149.211842" y="462.04" style="stroke: #000000; stroke-width: 0.8"/>
      </g>
     </g>
     <g id="text_46">
      <!-- 5 -->
      <g transform="translate(146.030592 476.638438) scale(0.1 -0.1)">
       <use xlink:href="#DejaVuSans-35"/>
      </g>
     </g>
    </g>
    <g id="xtick_15">
     <g id="line2d_55">
      <g>
       <use xlink:href="#mbb52079e2e" x="225.979457" y="462.04" style="stroke: #000000; stroke-width: 0.8"/>
      </g>
     </g>
     <g id="text_47">
      <!-- 10 -->
      <g transform="translate(219.616957 476.638438) scale(0.1 -0.1)">
       <use xlink:href="#DejaVuSans-31"/>
       <use xlink:href="#DejaVuSans-30" transform="translate(63.623047 0)"/>
      </g>
     </g>
    </g>
    <g id="xtick_16">
     <g id="line2d_56">
      <g>
       <use xlink:href="#mbb52079e2e" x="302.747071" y="462.04" style="stroke: #000000; stroke-width: 0.8"/>
      </g>
     </g>
     <g id="text_48">
      <!-- 15 -->
      <g transform="translate(296.384571 476.638438) scale(0.1 -0.1)">
       <use xlink:href="#DejaVuSans-31"/>
       <use xlink:href="#DejaVuSans-35" transform="translate(63.623047 0)"/>
      </g>
     </g>
    </g>
    <g id="xtick_17">
     <g id="line2d_57">
      <g>
       <use xlink:href="#mbb52079e2e" x="379.514686" y="462.04" style="stroke: #000000; stroke-width: 0.8"/>
      </g>
     </g>
     <g id="text_49">
      <!-- 20 -->
      <g transform="translate(373.152186 476.638438) scale(0.1 -0.1)">
       <use xlink:href="#DejaVuSans-32"/>
       <use xlink:href="#DejaVuSans-30" transform="translate(63.623047 0)"/>
      </g>
     </g>
    </g>
    <g id="xtick_18">
     <g id="line2d_58">
      <g>
       <use xlink:href="#mbb52079e2e" x="456.2823" y="462.04" style="stroke: #000000; stroke-width: 0.8"/>
      </g>
     </g>
     <g id="text_50">
      <!-- 25 -->
      <g transform="translate(449.9198 476.638438) scale(0.1 -0.1)">
       <use xlink:href="#DejaVuSans-32"/>
       <use xlink:href="#DejaVuSans-35" transform="translate(63.623047 0)"/>
      </g>
     </g>
    </g>
    <g id="text_51">
     <!-- Номер слоя -->
     <g transform="translate(226.242752 490.316563) scale(0.1 -0.1)">
      <use xlink:href="#DejaVuSans-41d"/>
      <use xlink:href="#DejaVuSans-43e" transform="translate(75.195312 0)"/>
      <use xlink:href="#DejaVuSans-43c" transform="translate(136.376953 0)"/>
      <use xlink:href="#DejaVuSans-435" transform="translate(211.816406 0)"/>
      <use xlink:href="#DejaVuSans-440" transform="translate(273.339844 0)"/>
      <use xlink:href="#DejaVuSans-20" transform="translate(336.816406 0)"/>
      <use xlink:href="#DejaVuSans-441" transform="translate(368.603516 0)"/>
      <use xlink:href="#DejaVuSans-43b" transform="translate(423.583984 0)"/>
      <use xlink:href="#DejaVuSans-43e" transform="translate(487.5 0)"/>
      <use xlink:href="#DejaVuSans-44f" transform="translate(548.681641 0)"/>
     </g>
    </g>
   </g>
   <g id="matplotlib.axis_6">
    <g id="ytick_17">
     <g id="line2d_59">
      <g>
       <use xlink:href="#m53ac0d4586" x="54.02" y="452.738182" style="stroke: #000000; stroke-width: 0.8"/>
      </g>
     </g>
     <g id="text_52">
      <!-- 0.00 -->
      <g transform="translate(24.754375 456.537401) scale(0.1 -0.1)">
       <use xlink:href="#DejaVuSans-30"/>
       <use xlink:href="#DejaVuSans-2e" transform="translate(63.623047 0)"/>
       <use xlink:href="#DejaVuSans-30" transform="translate(95.410156 0)"/>
       <use xlink:href="#DejaVuSans-30" transform="translate(159.033203 0)"/>
      </g>
     </g>
    </g>
    <g id="ytick_18">
     <g id="line2d_60">
      <g>
       <use xlink:href="#m53ac0d4586" x="54.02" y="417.277491" style="stroke: #000000; stroke-width: 0.8"/>
      </g>
     </g>
     <g id="text_53">
      <!-- 0.05 -->
      <g transform="translate(24.754375 421.07671) scale(0.1 -0.1)">
       <use xlink:href="#DejaVuSans-30"/>
       <use xlink:href="#DejaVuSans-2e" transform="translate(63.623047 0)"/>
       <use xlink:href="#DejaVuSans-30" transform="translate(95.410156 0)"/>
       <use xlink:href="#DejaVuSans-35" transform="translate(159.033203 0)"/>
      </g>
     </g>
    </g>
    <g id="ytick_19">
     <g id="line2d_61">
      <g>
       <use xlink:href="#m53ac0d4586" x="54.02" y="381.816801" style="stroke: #000000; stroke-width: 0.8"/>
      </g>
     </g>
     <g id="text_54">
      <!-- 0.10 -->
      <g transform="translate(24.754375 385.61602) scale(0.1 -0.1)">
       <use xlink:href="#DejaVuSans-30"/>
       <use xlink:href="#DejaVuSans-2e" transform="translate(63.623047 0)"/>
       <use xlink:href="#DejaVuSans-31" transform="translate(95.410156 0)"/>
       <use xlink:href="#DejaVuSans-30" transform="translate(159.033203 0)"/>
      </g>
     </g>
    </g>
    <g id="ytick_20">
     <g id="line2d_62">
      <g>
       <use xlink:href="#m53ac0d4586" x="54.02" y="346.35611" style="stroke: #000000; stroke-width: 0.8"/>
      </g>
     </g>
     <g id="text_55">
      <!-- 0.15 -->
      <g transform="translate(24.754375 350.155329) scale(0.1 -0.1)">
       <use xlink:href="#DejaVuSans-30"/>
       <use xlink:href="#DejaVuSans-2e" transform="translate(63.623047 0)"/>
       <use xlink:href="#DejaVuSans-31" transform="translate(95.410156 0)"/>
       <use xlink:href="#DejaVuSans-35" transform="translate(159.033203 0)"/>
      </g>
     </g>
    </g>
    <g id="ytick_21">
     <g id="line2d_63">
      <g>
       <use xlink:href="#m53ac0d4586" x="54.02" y="310.89542" style="stroke: #000000; stroke-width: 0.8"/>
      </g>
     </g>
     <g id="text_56">
      <!-- 0.20 -->
      <g transform="translate(24.754375 314.694639) scale(0.1 -0.1)">
       <use xlink:href="#DejaVuSans-30"/>
       <use xlink:href="#DejaVuSans-2e" transform="translate(63.623047 0)"/>
       <use xlink:href="#DejaVuSans-32" transform="translate(95.410156 0)"/>
       <use xlink:href="#DejaVuSans-30" transform="translate(159.033203 0)"/>
      </g>
     </g>
    </g>
    <g id="ytick_22">
     <g id="line2d_64">
      <g>
       <use xlink:href="#m53ac0d4586" x="54.02" y="275.43473" style="stroke: #000000; stroke-width: 0.8"/>
      </g>
     </g>
     <g id="text_57">
      <!-- 0.25 -->
      <g transform="translate(24.754375 279.233948) scale(0.1 -0.1)">
       <use xlink:href="#DejaVuSans-30"/>
       <use xlink:href="#DejaVuSans-2e" transform="translate(63.623047 0)"/>
       <use xlink:href="#DejaVuSans-32" transform="translate(95.410156 0)"/>
       <use xlink:href="#DejaVuSans-35" transform="translate(159.033203 0)"/>
      </g>
     </g>
    </g>
    <g id="text_58">
     <!-- Относительная частота рождений -->
     <g transform="translate(18.674688 451.300469) rotate(-90) scale(0.1 -0.1)">
      <use xlink:href="#DejaVuSans-41e"/>
      <use xlink:href="#DejaVuSans-442" transform="translate(78.710938 0)"/>
      <use xlink:href="#DejaVuSans-43d" transform="translate(136.962891 0)"/>
      <use xlink:href="#DejaVuSans-43e" transform="translate(202.34375 0)"/>
      <use xlink:href="#DejaVuSans-441" transform="translate(263.525391 0)"/>
      <use xlink:href="#DejaVuSans-438" transform="translate(318.505859 0)"/>
      <use xlink:href="#DejaVuSans-442" transform="translate(383.496094 0)"/>
      <use xlink:href="#DejaVuSans-435" transform="translate(441.748047 0)"/>
      <use xlink:href="#DejaVuSans-43b" transform="translate(503.271484 0)"/>
      <use xlink:href="#DejaVuSans-44c" transform="translate(567.1875 0)"/>
      <use xlink:href="#DejaVuSans-43d" transform="translate(626.123047 0)"/>
      <use xlink:href="#DejaVuSans-430" transform="translate(691.503906 0)"/>
      <use xlink:href="#DejaVuSans-44f" transform="translate(752.783203 0)"/>
      <use xlink:href="#DejaVuSans-20" transform="translate(812.939453 0)"/>
      <use xlink:href="#DejaVuSans-447" transform="translate(844.726562 0)"/>
      <use xlink:href="#DejaVuSans-430" transform="translate(903.808594 0)"/>
      <use xlink:href="#DejaVuSans-441" transform="translate(965.087891 0)"/>
      <use xlink:href="#DejaVuSans-442" transform="translate(1020.068359 0)"/>
      <use xlink:href="#DejaVuSans-43e" transform="translate(1078.320312 0)"/>
      <use xlink:href="#DejaVuSans-442" transform="translate(1139.501953 0)"/>
      <use xlink:href="#DejaVuSans-430" transform="translate(1197.753906 0)"/>
      <use xlink:href="#DejaVuSans-20" transform="translate(1259.033203 0)"/>
      <use xlink:href="#DejaVuSans-440" transform="translate(1290.820312 0)"/>
      <use xlink:href="#DejaVuSans-43e" transform="translate(1354.296875 0)"/>
      <use xlink:href="#DejaVuSans-436" transform="translate(1415.478516 0)"/>
      <use xlink:href="#DejaVuSans-434" transform="translate(1505.566406 0)"/>
      <use xlink:href="#DejaVuSans-435" transform="translate(1574.707031 0)"/>
      <use xlink:href="#DejaVuSans-43d" transform="translate(1636.230469 0)"/>
      <use xlink:href="#DejaVuSans-438" transform="translate(1701.611328 0)"/>
      <use xlink:href="#DejaVuSans-439" transform="translate(1766.601562 0)"/>
     </g>
    </g>
   </g>
   <g id="line2d_65">
    <path d="M 72.444227 452.738182 
L 87.79775 452.738182 
L 103.151273 400.930976 
L 118.504796 379.110701 
L 133.858319 334.397188 
L 149.211842 406.619478 
L 164.565365 430.121139 
L 179.918888 452.738182 
L 195.272411 386.594606 
L 210.625934 452.738182 
L 225.979457 430.982644 
L 241.33298 387.676638 
L 256.686502 387.743836 
L 272.040025 423.82194 
L 287.393548 409.227107 
L 302.747071 452.738182 
L 318.100594 430.690323 
L 333.454117 424.876023 
L 348.80764 430.121139 
L 364.161163 452.738182 
L 379.514686 444.848782 
L 394.868209 452.738182 
L 410.221732 426.834579 
L 425.575255 452.738182 
L 440.928777 452.738182 
" clip-path="url(#pc8b4e99187)" style="fill: none; stroke: #648fff; stroke-width: 1.5; stroke-linecap: square"/>
   </g>
   <g id="line2d_66">
    <path d="M 72.444227 452.738182 
L 87.79775 452.738182 
L 103.151273 409.755527 
L 118.504796 388.264199 
L 133.858319 345.281544 
L 149.211842 409.755527 
L 164.565365 431.246854 
L 179.918888 452.738182 
L 195.272411 388.264199 
L 210.625934 452.738182 
L 225.979457 431.246854 
L 241.33298 388.264199 
L 256.686502 388.264199 
L 272.040025 409.755527 
L 287.393548 409.755527 
L 302.747071 452.738182 
L 318.100594 431.246854 
L 333.454117 409.755527 
L 348.80764 431.246854 
L 364.161163 452.738182 
L 379.514686 431.246854 
L 394.868209 452.738182 
L 410.221732 431.246854 
L 425.575255 452.738182 
L 440.928777 452.738182 
" clip-path="url(#pc8b4e99187)" style="fill: none; stroke: #785ef0; stroke-width: 1.5; stroke-linecap: square"/>
   </g>
   <g id="line2d_67">
    <path d="M 72.444227 452.738182 
L 87.79775 452.738182 
L 103.151273 418.126156 
L 118.504796 398.638271 
L 133.858319 359.137744 
L 149.211842 414.021342 
L 164.565365 432.79919 
L 179.918888 452.738182 
L 195.272411 390.075229 
L 210.625934 452.738182 
L 225.979457 431.245554 
L 241.33298 387.792948 
L 256.686502 387.635909 
L 272.040025 393.593623 
L 287.393548 409.752927 
L 302.747071 452.738182 
L 318.100594 431.850531 
L 333.454117 391.382278 
L 348.80764 432.79919 
L 364.161163 452.738182 
L 379.514686 420.314039 
L 394.868209 452.738182 
L 410.221732 435.432169 
L 425.575255 452.738182 
L 440.928777 452.738182 
" clip-path="url(#pc8b4e99187)" style="fill: none; stroke: #dc267f; stroke-width: 1.5; stroke-linecap: square"/>
   </g>
   <g id="line2d_68">
    <path d="M 72.444227 452.738182 
L 87.79775 452.738182 
L 103.151273 426.89042 
L 118.504796 410.858264 
L 133.858319 377.544693 
L 149.211842 420.460001 
L 164.565365 435.506341 
L 179.918888 452.738182 
L 195.272411 395.031551 
L 210.625934 452.738182 
L 225.979457 432.059972 
L 241.33298 389.518179 
L 256.686502 389.112922 
L 272.040025 368.444844 
L 287.393548 411.381763 
L 302.747071 452.738182 
L 318.100594 433.502638 
L 333.454117 361.342781 
L 348.80764 435.506341 
L 364.161163 452.738182 
L 379.514686 407.622089 
L 394.868209 452.738182 
L 410.221732 439.814301 
L 425.575255 452.738182 
L 440.928777 452.738182 
" clip-path="url(#pc8b4e99187)" style="fill: none; stroke: #fe6100; stroke-width: 1.5; stroke-linecap: square"/>
   </g>
   <g id="line2d_69">
    <path d="M 72.444227 452.738182 
L 87.79775 452.738182 
L 103.151273 441.650875 
L 118.504796 433.731371 
L 133.858319 416.417695 
L 149.211842 436.052334 
L 164.565365 443.162781 
L 179.918888 452.738182 
L 195.272411 415.563095 
L 210.625934 452.738182 
L 225.979457 437.691123 
L 241.33298 405.041844 
L 256.686502 404.124607 
L 272.040025 293.75039 
L 287.393548 422.644064 
L 302.747071 452.738182 
L 318.100594 440.346486 
L 333.454117 266.701818 
L 348.80764 443.162781 
L 364.161163 452.738182 
L 379.514686 387.361306 
L 394.868209 452.738182 
L 410.221732 447.194529 
L 425.575255 452.738182 
L 440.928777 452.738182 
" clip-path="url(#pc8b4e99187)" style="fill: none; stroke: #ffb000; stroke-width: 1.5; stroke-linecap: square"/>
   </g>
   <g id="line2d_70">
    <path d="M 54.02 424.369629 
L 459.353005 424.369629 
" clip-path="url(#pc8b4e99187)" style="fill: none; stroke-dasharray: 3.7,1.6; stroke-dashoffset: 0; stroke: #000000"/>
   </g>
   <g id="patch_15">
    <path d="M 54.02 462.04 
L 54.02 257.4 
" style="fill: none; stroke: #000000; stroke-width: 0.8; stroke-linejoin: miter; stroke-linecap: square"/>
   </g>
   <g id="patch_16">
    <path d="M 459.353005 462.04 
L 459.353005 257.4 
" style="fill: none; stroke: #000000; stroke-width: 0.8; stroke-linejoin: miter; stroke-linecap: square"/>
   </g>
   <g id="patch_17">
    <path d="M 54.02 462.04 
L 459.353005 462.04 
" style="fill: none; stroke: #000000; stroke-width: 0.8; stroke-linejoin: miter; stroke-linecap: square"/>
   </g>
   <g id="patch_18">
    <path d="M 54.02 257.4 
L 459.353005 257.4 
" style="fill: none; stroke: #000000; stroke-width: 0.8; stroke-linejoin: miter; stroke-linecap: square"/>
   </g>
   <g id="legend_3">
    <g id="patch_19">
     <path d="M 313.573317 353.46875 
L 452.353005 353.46875 
Q 454.353005 353.46875 454.353005 351.46875 
L 454.353005 264.4 
Q 454.353005 262.4 452.353005 262.4 
L 313.573317 262.4 
Q 311.573317 262.4 311.573317 264.4 
L 311.573317 351.46875 
Q 311.573317 353.46875 313.573317 353.46875 
z
" style="fill: #ffffff; opacity: 0.8; stroke: #cccccc; stroke-linejoin: miter"/>
    </g>
    <g id="line2d_71">
     <path d="M 315.573317 270.498438 
L 325.573317 270.498438 
L 335.573317 270.498438 
" style="fill: none; stroke: #648fff; stroke-width: 1.5; stroke-linecap: square"/>
    </g>
    <g id="text_59">
     <!-- $\alpha=-1.0$ -->
     <g transform="translate(343.573317 273.998438) scale(0.1 -0.1)">
      <use xlink:href="#DejaVuSans-Oblique-3b1" transform="translate(0 0.78125)"/>
      <use xlink:href="#DejaVuSans-3d" transform="translate(85.400391 0.78125)"/>
      <use xlink:href="#DejaVuSans-2212" transform="translate(188.671875 0.78125)"/>
      <use xlink:href="#DejaVuSans-31" transform="translate(272.460938 0.78125)"/>
      <use xlink:href="#DejaVuSans-2e" transform="translate(336.083984 0.78125)"/>
      <use xlink:href="#DejaVuSans-30" transform="translate(367.871094 0.78125)"/>
     </g>
    </g>
    <g id="line2d_72">
     <path d="M 315.573317 285.176563 
L 325.573317 285.176563 
L 335.573317 285.176563 
" style="fill: none; stroke: #785ef0; stroke-width: 1.5; stroke-linecap: square"/>
    </g>
    <g id="text_60">
     <!-- $\alpha=0.0$ -->
     <g transform="translate(343.573317 288.676563) scale(0.1 -0.1)">
      <use xlink:href="#DejaVuSans-Oblique-3b1" transform="translate(0 0.78125)"/>
      <use xlink:href="#DejaVuSans-3d" transform="translate(85.400391 0.78125)"/>
      <use xlink:href="#DejaVuSans-30" transform="translate(188.671875 0.78125)"/>
      <use xlink:href="#DejaVuSans-2e" transform="translate(252.294922 0.78125)"/>
      <use xlink:href="#DejaVuSans-30" transform="translate(284.082031 0.78125)"/>
     </g>
    </g>
    <g id="line2d_73">
     <path d="M 315.573317 299.854688 
L 325.573317 299.854688 
L 335.573317 299.854688 
" style="fill: none; stroke: #dc267f; stroke-width: 1.5; stroke-linecap: square"/>
    </g>
    <g id="text_61">
     <!-- $\alpha=0.5$ -->
     <g transform="translate(343.573317 303.354688) scale(0.1 -0.1)">
      <use xlink:href="#DejaVuSans-Oblique-3b1" transform="translate(0 0.78125)"/>
      <use xlink:href="#DejaVuSans-3d" transform="translate(85.400391 0.78125)"/>
      <use xlink:href="#DejaVuSans-30" transform="translate(188.671875 0.78125)"/>
      <use xlink:href="#DejaVuSans-2e" transform="translate(252.294922 0.78125)"/>
      <use xlink:href="#DejaVuSans-35" transform="translate(284.082031 0.78125)"/>
     </g>
    </g>
    <g id="line2d_74">
     <path d="M 315.573317 314.532813 
L 325.573317 314.532813 
L 335.573317 314.532813 
" style="fill: none; stroke: #fe6100; stroke-width: 1.5; stroke-linecap: square"/>
    </g>
    <g id="text_62">
     <!-- $\alpha=1.0$ -->
     <g transform="translate(343.573317 318.032813) scale(0.1 -0.1)">
      <use xlink:href="#DejaVuSans-Oblique-3b1" transform="translate(0 0.78125)"/>
      <use xlink:href="#DejaVuSans-3d" transform="translate(85.400391 0.78125)"/>
      <use xlink:href="#DejaVuSans-31" transform="translate(188.671875 0.78125)"/>
      <use xlink:href="#DejaVuSans-2e" transform="translate(252.294922 0.78125)"/>
      <use xlink:href="#DejaVuSans-30" transform="translate(284.082031 0.78125)"/>
     </g>
    </g>
    <g id="line2d_75">
     <path d="M 315.573317 329.210938 
L 325.573317 329.210938 
L 335.573317 329.210938 
" style="fill: none; stroke: #ffb000; stroke-width: 1.5; stroke-linecap: square"/>
    </g>
    <g id="text_63">
     <!-- $\alpha=2.0$ -->
     <g transform="translate(343.573317 332.710938) scale(0.1 -0.1)">
      <use xlink:href="#DejaVuSans-Oblique-3b1" transform="translate(0 0.78125)"/>
      <use xlink:href="#DejaVuSans-3d" transform="translate(85.400391 0.78125)"/>
      <use xlink:href="#DejaVuSans-32" transform="translate(188.671875 0.78125)"/>
      <use xlink:href="#DejaVuSans-2e" transform="translate(252.294922 0.78125)"/>
      <use xlink:href="#DejaVuSans-30" transform="translate(284.082031 0.78125)"/>
     </g>
    </g>
    <g id="line2d_76">
     <path d="M 315.573317 343.889063 
L 325.573317 343.889063 
L 335.573317 343.889063 
" style="fill: none; stroke-dasharray: 3.7,1.6; stroke-dashoffset: 0; stroke: #000000"/>
    </g>
    <g id="text_64">
     <!-- Равномерное распр. -->
     <g transform="translate(343.573317 347.389063) scale(0.1 -0.1)">
      <use xlink:href="#DejaVuSans-420"/>
      <use xlink:href="#DejaVuSans-430" transform="translate(60.302734 0)"/>
      <use xlink:href="#DejaVuSans-432" transform="translate(121.582031 0)"/>
      <use xlink:href="#DejaVuSans-43d" transform="translate(180.517578 0)"/>
      <use xlink:href="#DejaVuSans-43e" transform="translate(245.898438 0)"/>
      <use xlink:href="#DejaVuSans-43c" transform="translate(307.080078 0)"/>
      <use xlink:href="#DejaVuSans-435" transform="translate(382.519531 0)"/>
      <use xlink:href="#DejaVuSans-440" transform="translate(444.042969 0)"/>
      <use xlink:href="#DejaVuSans-43d" transform="translate(507.519531 0)"/>
      <use xlink:href="#DejaVuSans-43e" transform="translate(572.900391 0)"/>
      <use xlink:href="#DejaVuSans-435" transform="translate(634.082031 0)"/>
      <use xlink:href="#DejaVuSans-20" transform="translate(695.605469 0)"/>
      <use xlink:href="#DejaVuSans-440" transform="translate(727.392578 0)"/>
      <use xlink:href="#DejaVuSans-430" transform="translate(790.869141 0)"/>
      <use xlink:href="#DejaVuSans-441" transform="translate(852.148438 0)"/>
      <use xlink:href="#DejaVuSans-43f" transform="translate(907.128906 0)"/>
      <use xlink:href="#DejaVuSans-440" transform="translate(972.509766 0)"/>
      <use xlink:href="#DejaVuSans-2e" transform="translate(1035.986328 0)"/>
     </g>
    </g>
   </g>
  </g>
  <g id="axes_4">
   <g id="patch_20">
    <path d="M 516.62 462.04 
L 921.953005 462.04 
L 921.953005 257.4 
L 516.62 257.4 
z
" style="fill: #ffffff"/>
   </g>
   <g id="matplotlib.axis_7">
    <g id="xtick_19">
     <g id="line2d_77">
      <g>
       <use xlink:href="#mbb52079e2e" x="535.044227" y="462.04" style="stroke: #000000; stroke-width: 0.8"/>
      </g>
     </g>
     <g id="text_65">
      <!-- 0 -->
      <g transform="translate(531.862977 476.638438) scale(0.1 -0.1)">
       <use xlink:href="#DejaVuSans-30"/>
      </g>
     </g>
    </g>
    <g id="xtick_20">
     <g id="line2d_78">
      <g>
       <use xlink:href="#mbb52079e2e" x="611.811842" y="462.04" style="stroke: #000000; stroke-width: 0.8"/>
      </g>
     </g>
     <g id="text_66">
      <!-- 5 -->
      <g transform="translate(608.630592 476.638438) scale(0.1 -0.1)">
       <use xlink:href="#DejaVuSans-35"/>
      </g>
     </g>
    </g>
    <g id="xtick_21">
     <g id="line2d_79">
      <g>
       <use xlink:href="#mbb52079e2e" x="688.579457" y="462.04" style="stroke: #000000; stroke-width: 0.8"/>
      </g>
     </g>
     <g id="text_67">
      <!-- 10 -->
      <g transform="translate(682.216957 476.638438) scale(0.1 -0.1)">
       <use xlink:href="#DejaVuSans-31"/>
       <use xlink:href="#DejaVuSans-30" transform="translate(63.623047 0)"/>
      </g>
     </g>
    </g>
    <g id="xtick_22">
     <g id="line2d_80">
      <g>
       <use xlink:href="#mbb52079e2e" x="765.347071" y="462.04" style="stroke: #000000; stroke-width: 0.8"/>
      </g>
     </g>
     <g id="text_68">
      <!-- 15 -->
      <g transform="translate(758.984571 476.638438) scale(0.1 -0.1)">
       <use xlink:href="#DejaVuSans-31"/>
       <use xlink:href="#DejaVuSans-35" transform="translate(63.623047 0)"/>
      </g>
     </g>
    </g>
    <g id="xtick_23">
     <g id="line2d_81">
      <g>
       <use xlink:href="#mbb52079e2e" x="842.114686" y="462.04" style="stroke: #000000; stroke-width: 0.8"/>
      </g>
     </g>
     <g id="text_69">
      <!-- 20 -->
      <g transform="translate(835.752186 476.638438) scale(0.1 -0.1)">
       <use xlink:href="#DejaVuSans-32"/>
       <use xlink:href="#DejaVuSans-30" transform="translate(63.623047 0)"/>
      </g>
     </g>
    </g>
    <g id="xtick_24">
     <g id="line2d_82">
      <g>
       <use xlink:href="#mbb52079e2e" x="918.8823" y="462.04" style="stroke: #000000; stroke-width: 0.8"/>
      </g>
     </g>
     <g id="text_70">
      <!-- 25 -->
      <g transform="translate(912.5198 476.638438) scale(0.1 -0.1)">
       <use xlink:href="#DejaVuSans-32"/>
       <use xlink:href="#DejaVuSans-35" transform="translate(63.623047 0)"/>
      </g>
     </g>
    </g>
    <g id="text_71">
     <!-- Номер слоя -->
     <g transform="translate(688.842752 490.316563) scale(0.1 -0.1)">
      <use xlink:href="#DejaVuSans-41d"/>
      <use xlink:href="#DejaVuSans-43e" transform="translate(75.195312 0)"/>
      <use xlink:href="#DejaVuSans-43c" transform="translate(136.376953 0)"/>
      <use xlink:href="#DejaVuSans-435" transform="translate(211.816406 0)"/>
      <use xlink:href="#DejaVuSans-440" transform="translate(273.339844 0)"/>
      <use xlink:href="#DejaVuSans-20" transform="translate(336.816406 0)"/>
      <use xlink:href="#DejaVuSans-441" transform="translate(368.603516 0)"/>
      <use xlink:href="#DejaVuSans-43b" transform="translate(423.583984 0)"/>
      <use xlink:href="#DejaVuSans-43e" transform="translate(487.5 0)"/>
      <use xlink:href="#DejaVuSans-44f" transform="translate(548.681641 0)"/>
     </g>
    </g>
   </g>
   <g id="matplotlib.axis_8">
    <g id="ytick_23">
     <g id="line2d_83">
      <g>
       <use xlink:href="#m53ac0d4586" x="516.62" y="452.738182" style="stroke: #000000; stroke-width: 0.8"/>
      </g>
     </g>
     <g id="text_72">
      <!-- 0.0 -->
      <g transform="translate(493.716875 456.537401) scale(0.1 -0.1)">
       <use xlink:href="#DejaVuSans-30"/>
       <use xlink:href="#DejaVuSans-2e" transform="translate(63.623047 0)"/>
       <use xlink:href="#DejaVuSans-30" transform="translate(95.410156 0)"/>
      </g>
     </g>
    </g>
    <g id="ytick_24">
     <g id="line2d_84">
      <g>
       <use xlink:href="#m53ac0d4586" x="516.62" y="415.265261" style="stroke: #000000; stroke-width: 0.8"/>
      </g>
     </g>
     <g id="text_73">
      <!-- 0.2 -->
      <g transform="translate(493.716875 419.06448) scale(0.1 -0.1)">
       <use xlink:href="#DejaVuSans-30"/>
       <use xlink:href="#DejaVuSans-2e" transform="translate(63.623047 0)"/>
       <use xlink:href="#DejaVuSans-32" transform="translate(95.410156 0)"/>
      </g>
     </g>
    </g>
    <g id="ytick_25">
     <g id="line2d_85">
      <g>
       <use xlink:href="#m53ac0d4586" x="516.62" y="377.79234" style="stroke: #000000; stroke-width: 0.8"/>
      </g>
     </g>
     <g id="text_74">
      <!-- 0.4 -->
      <g transform="translate(493.716875 381.591559) scale(0.1 -0.1)">
       <use xlink:href="#DejaVuSans-30"/>
       <use xlink:href="#DejaVuSans-2e" transform="translate(63.623047 0)"/>
       <use xlink:href="#DejaVuSans-34" transform="translate(95.410156 0)"/>
      </g>
     </g>
    </g>
    <g id="ytick_26">
     <g id="line2d_86">
      <g>
       <use xlink:href="#m53ac0d4586" x="516.62" y="340.319419" style="stroke: #000000; stroke-width: 0.8"/>
      </g>
     </g>
     <g id="text_75">
      <!-- 0.6 -->
      <g transform="translate(493.716875 344.118638) scale(0.1 -0.1)">
       <use xlink:href="#DejaVuSans-30"/>
       <use xlink:href="#DejaVuSans-2e" transform="translate(63.623047 0)"/>
       <use xlink:href="#DejaVuSans-36" transform="translate(95.410156 0)"/>
      </g>
     </g>
    </g>
    <g id="ytick_27">
     <g id="line2d_87">
      <g>
       <use xlink:href="#m53ac0d4586" x="516.62" y="302.846498" style="stroke: #000000; stroke-width: 0.8"/>
      </g>
     </g>
     <g id="text_76">
      <!-- 0.8 -->
      <g transform="translate(493.716875 306.645717) scale(0.1 -0.1)">
       <use xlink:href="#DejaVuSans-30"/>
       <use xlink:href="#DejaVuSans-2e" transform="translate(63.623047 0)"/>
       <use xlink:href="#DejaVuSans-38" transform="translate(95.410156 0)"/>
      </g>
     </g>
    </g>
    <g id="ytick_28">
     <g id="line2d_88">
      <g>
       <use xlink:href="#m53ac0d4586" x="516.62" y="265.373577" style="stroke: #000000; stroke-width: 0.8"/>
      </g>
     </g>
     <g id="text_77">
      <!-- 1.0 -->
      <g transform="translate(493.716875 269.172796) scale(0.1 -0.1)">
       <use xlink:href="#DejaVuSans-31"/>
       <use xlink:href="#DejaVuSans-2e" transform="translate(63.623047 0)"/>
       <use xlink:href="#DejaVuSans-30" transform="translate(95.410156 0)"/>
      </g>
     </g>
    </g>
    <g id="text_78">
     <!-- Относительная частота рождений -->
     <g transform="translate(487.637188 451.300469) rotate(-90) scale(0.1 -0.1)">
      <use xlink:href="#DejaVuSans-41e"/>
      <use xlink:href="#DejaVuSans-442" transform="translate(78.710938 0)"/>
      <use xlink:href="#DejaVuSans-43d" transform="translate(136.962891 0)"/>
      <use xlink:href="#DejaVuSans-43e" transform="translate(202.34375 0)"/>
      <use xlink:href="#DejaVuSans-441" transform="translate(263.525391 0)"/>
      <use xlink:href="#DejaVuSans-438" transform="translate(318.505859 0)"/>
      <use xlink:href="#DejaVuSans-442" transform="translate(383.496094 0)"/>
      <use xlink:href="#DejaVuSans-435" transform="translate(441.748047 0)"/>
      <use xlink:href="#DejaVuSans-43b" transform="translate(503.271484 0)"/>
      <use xlink:href="#DejaVuSans-44c" transform="translate(567.1875 0)"/>
      <use xlink:href="#DejaVuSans-43d" transform="translate(626.123047 0)"/>
      <use xlink:href="#DejaVuSans-430" transform="translate(691.503906 0)"/>
      <use xlink:href="#DejaVuSans-44f" transform="translate(752.783203 0)"/>
      <use xlink:href="#DejaVuSans-20" transform="translate(812.939453 0)"/>
      <use xlink:href="#DejaVuSans-447" transform="translate(844.726562 0)"/>
      <use xlink:href="#DejaVuSans-430" transform="translate(903.808594 0)"/>
      <use xlink:href="#DejaVuSans-441" transform="translate(965.087891 0)"/>
      <use xlink:href="#DejaVuSans-442" transform="translate(1020.068359 0)"/>
      <use xlink:href="#DejaVuSans-43e" transform="translate(1078.320312 0)"/>
      <use xlink:href="#DejaVuSans-442" transform="translate(1139.501953 0)"/>
      <use xlink:href="#DejaVuSans-430" transform="translate(1197.753906 0)"/>
      <use xlink:href="#DejaVuSans-20" transform="translate(1259.033203 0)"/>
      <use xlink:href="#DejaVuSans-440" transform="translate(1290.820312 0)"/>
      <use xlink:href="#DejaVuSans-43e" transform="translate(1354.296875 0)"/>
      <use xlink:href="#DejaVuSans-436" transform="translate(1415.478516 0)"/>
      <use xlink:href="#DejaVuSans-434" transform="translate(1505.566406 0)"/>
      <use xlink:href="#DejaVuSans-435" transform="translate(1574.707031 0)"/>
      <use xlink:href="#DejaVuSans-43d" transform="translate(1636.230469 0)"/>
      <use xlink:href="#DejaVuSans-438" transform="translate(1701.611328 0)"/>
      <use xlink:href="#DejaVuSans-439" transform="translate(1766.601562 0)"/>
     </g>
    </g>
   </g>
   <g id="line2d_89">
    <path d="M 535.044227 452.738182 
L 550.39775 266.701818 
L 565.751273 452.541422 
L 581.104796 452.596466 
L 596.458319 452.584269 
L 611.811842 452.60713 
L 627.165365 452.615824 
L 642.518888 452.701031 
L 657.872411 452.693201 
L 673.225934 452.682998 
L 688.579457 452.660906 
L 703.93298 452.697413 
L 719.286502 452.707992 
L 734.640025 452.686629 
L 749.993548 452.692213 
L 765.347071 452.721448 
L 780.700594 452.707981 
L 796.054117 452.719621 
L 811.40764 452.715482 
L 826.761163 452.71781 
L 842.114686 452.716841 
L 857.468209 452.698394 
L 872.821732 452.718364 
L 888.175255 452.728323 
L 903.528777 452.738182 
" clip-path="url(#p34c56dc205)" style="fill: none; stroke: #648fff; stroke-width: 1.5; stroke-linecap: square"/>
   </g>
   <g id="line2d_90">
    <path d="M 535.044227 452.738182 
L 550.39775 267.166347 
L 565.751273 452.521439 
L 581.104796 452.567884 
L 596.458319 452.54621 
L 611.811842 452.577173 
L 627.165365 452.583366 
L 642.518888 452.688641 
L 657.872411 452.676255 
L 673.225934 452.660774 
L 688.579457 452.626714 
L 703.93298 452.676255 
L 719.286502 452.691737 
L 734.640025 452.654581 
L 749.993548 452.670063 
L 765.347071 452.716508 
L 780.700594 452.688641 
L 796.054117 452.69793 
L 811.40764 452.685544 
L 826.761163 452.69793 
L 842.114686 452.701026 
L 857.468209 452.685544 
L 872.821732 452.713411 
L 888.175255 452.719604 
L 903.528777 452.738182 
" clip-path="url(#p34c56dc205)" style="fill: none; stroke: #785ef0; stroke-width: 1.5; stroke-linecap: square"/>
   </g>
   <g id="line2d_91">
    <path d="M 535.044227 452.738182 
L 550.39775 267.730822 
L 565.751273 452.510799 
L 581.104796 452.546467 
L 596.458319 452.511732 
L 611.811842 452.550349 
L 627.165365 452.550615 
L 642.518888 452.673306 
L 657.872411 452.654525 
L 673.225934 452.630609 
L 688.579457 452.582179 
L 703.93298 452.645706 
L 719.286502 452.668362 
L 734.640025 452.607839 
L 749.993548 452.637335 
L 765.347071 452.710443 
L 780.700594 452.661693 
L 796.054117 452.660841 
L 811.40764 452.639546 
L 826.761163 452.668366 
L 842.114686 452.680811 
L 857.468209 452.674334 
L 872.821732 452.709673 
L 888.175255 452.707226 
L 903.528777 452.738182 
" clip-path="url(#p34c56dc205)" style="fill: none; stroke: #dc267f; stroke-width: 1.5; stroke-linecap: square"/>
   </g>
   <g id="line2d_92">
    <path d="M 535.044227 452.738182 
L 550.39775 268.719487 
L 565.751273 452.5023 
L 581.104796 452.522865 
L 596.458319 452.467567 
L 611.811842 452.522445 
L 627.165365 452.512267 
L 642.518888 452.648903 
L 657.872411 452.619507 
L 673.225934 452.57839 
L 688.579457 452.509609 
L 703.93298 452.5865 
L 719.286502 452.623691 
L 734.640025 452.516076 
L 749.993548 452.573397 
L 765.347071 452.7021 
L 780.700594 452.609617 
L 796.054117 452.569021 
L 811.40764 452.538845 
L 826.761163 452.60542 
L 842.114686 452.641534 
L 857.468209 452.659232 
L 872.821732 452.704959 
L 888.175255 452.679844 
L 903.528777 452.738182 
" clip-path="url(#p34c56dc205)" style="fill: none; stroke: #fe6100; stroke-width: 1.5; stroke-linecap: square"/>
   </g>
   <g id="line2d_93">
    <path d="M 535.044227 452.738182 
L 550.39775 274.475575 
L 565.751273 452.491055 
L 581.104796 452.45962 
L 596.458319 452.303463 
L 611.811842 452.473257 
L 627.165365 452.428273 
L 642.518888 452.531019 
L 657.872411 452.465765 
L 673.225934 452.307972 
L 688.579457 452.214428 
L 703.93298 452.19449 
L 719.286502 452.352258 
L 734.640025 451.951771 
L 749.993548 452.159296 
L 765.347071 452.679133 
L 780.700594 452.284154 
L 796.054117 451.695686 
L 811.40764 451.820151 
L 826.761163 452.167575 
L 842.114686 452.387745 
L 857.468209 452.606639 
L 872.821732 452.690788 
L 888.175255 452.473463 
L 903.528777 452.738182 
" clip-path="url(#p34c56dc205)" style="fill: none; stroke: #ffb000; stroke-width: 1.5; stroke-linecap: square"/>
   </g>
   <g id="line2d_94">
    <path d="M 516.62 445.243598 
L 921.953005 445.243598 
" clip-path="url(#p34c56dc205)" style="fill: none; stroke-dasharray: 3.7,1.6; stroke-dashoffset: 0; stroke: #000000"/>
   </g>
   <g id="patch_21">
    <path d="M 516.62 462.04 
L 516.62 257.4 
" style="fill: none; stroke: #000000; stroke-width: 0.8; stroke-linejoin: miter; stroke-linecap: square"/>
   </g>
   <g id="patch_22">
    <path d="M 921.953005 462.04 
L 921.953005 257.4 
" style="fill: none; stroke: #000000; stroke-width: 0.8; stroke-linejoin: miter; stroke-linecap: square"/>
   </g>
   <g id="patch_23">
    <path d="M 516.62 462.04 
L 921.953005 462.04 
" style="fill: none; stroke: #000000; stroke-width: 0.8; stroke-linejoin: miter; stroke-linecap: square"/>
   </g>
   <g id="patch_24">
    <path d="M 516.62 257.4 
L 921.953005 257.4 
" style="fill: none; stroke: #000000; stroke-width: 0.8; stroke-linejoin: miter; stroke-linecap: square"/>
   </g>
   <g id="legend_4">
    <g id="patch_25">
     <path d="M 776.173317 353.46875 
L 914.953005 353.46875 
Q 916.953005 353.46875 916.953005 351.46875 
L 916.953005 264.4 
Q 916.953005 262.4 914.953005 262.4 
L 776.173317 262.4 
Q 774.173317 262.4 774.173317 264.4 
L 774.173317 351.46875 
Q 774.173317 353.46875 776.173317 353.46875 
z
" style="fill: #ffffff; opacity: 0.8; stroke: #cccccc; stroke-linejoin: miter"/>
    </g>
    <g id="line2d_95">
     <path d="M 778.173317 270.498438 
L 788.173317 270.498438 
L 798.173317 270.498438 
" style="fill: none; stroke: #648fff; stroke-width: 1.5; stroke-linecap: square"/>
    </g>
    <g id="text_79">
     <!-- $\alpha=-1.0$ -->
     <g transform="translate(806.173317 273.998438) scale(0.1 -0.1)">
      <use xlink:href="#DejaVuSans-Oblique-3b1" transform="translate(0 0.78125)"/>
      <use xlink:href="#DejaVuSans-3d" transform="translate(85.400391 0.78125)"/>
      <use xlink:href="#DejaVuSans-2212" transform="translate(188.671875 0.78125)"/>
      <use xlink:href="#DejaVuSans-31" transform="translate(272.460938 0.78125)"/>
      <use xlink:href="#DejaVuSans-2e" transform="translate(336.083984 0.78125)"/>
      <use xlink:href="#DejaVuSans-30" transform="translate(367.871094 0.78125)"/>
     </g>
    </g>
    <g id="line2d_96">
     <path d="M 778.173317 285.176563 
L 788.173317 285.176563 
L 798.173317 285.176563 
" style="fill: none; stroke: #785ef0; stroke-width: 1.5; stroke-linecap: square"/>
    </g>
    <g id="text_80">
     <!-- $\alpha=0.0$ -->
     <g transform="translate(806.173317 288.676563) scale(0.1 -0.1)">
      <use xlink:href="#DejaVuSans-Oblique-3b1" transform="translate(0 0.78125)"/>
      <use xlink:href="#DejaVuSans-3d" transform="translate(85.400391 0.78125)"/>
      <use xlink:href="#DejaVuSans-30" transform="translate(188.671875 0.78125)"/>
      <use xlink:href="#DejaVuSans-2e" transform="translate(252.294922 0.78125)"/>
      <use xlink:href="#DejaVuSans-30" transform="translate(284.082031 0.78125)"/>
     </g>
    </g>
    <g id="line2d_97">
     <path d="M 778.173317 299.854688 
L 788.173317 299.854688 
L 798.173317 299.854688 
" style="fill: none; stroke: #dc267f; stroke-width: 1.5; stroke-linecap: square"/>
    </g>
    <g id="text_81">
     <!-- $\alpha=0.5$ -->
     <g transform="translate(806.173317 303.354688) scale(0.1 -0.1)">
      <use xlink:href="#DejaVuSans-Oblique-3b1" transform="translate(0 0.78125)"/>
      <use xlink:href="#DejaVuSans-3d" transform="translate(85.400391 0.78125)"/>
      <use xlink:href="#DejaVuSans-30" transform="translate(188.671875 0.78125)"/>
      <use xlink:href="#DejaVuSans-2e" transform="translate(252.294922 0.78125)"/>
      <use xlink:href="#DejaVuSans-35" transform="translate(284.082031 0.78125)"/>
     </g>
    </g>
    <g id="line2d_98">
     <path d="M 778.173317 314.532813 
L 788.173317 314.532813 
L 798.173317 314.532813 
" style="fill: none; stroke: #fe6100; stroke-width: 1.5; stroke-linecap: square"/>
    </g>
    <g id="text_82">
     <!-- $\alpha=1.0$ -->
     <g transform="translate(806.173317 318.032813) scale(0.1 -0.1)">
      <use xlink:href="#DejaVuSans-Oblique-3b1" transform="translate(0 0.78125)"/>
      <use xlink:href="#DejaVuSans-3d" transform="translate(85.400391 0.78125)"/>
      <use xlink:href="#DejaVuSans-31" transform="translate(188.671875 0.78125)"/>
      <use xlink:href="#DejaVuSans-2e" transform="translate(252.294922 0.78125)"/>
      <use xlink:href="#DejaVuSans-30" transform="translate(284.082031 0.78125)"/>
     </g>
    </g>
    <g id="line2d_99">
     <path d="M 778.173317 329.210938 
L 788.173317 329.210938 
L 798.173317 329.210938 
" style="fill: none; stroke: #ffb000; stroke-width: 1.5; stroke-linecap: square"/>
    </g>
    <g id="text_83">
     <!-- $\alpha=2.0$ -->
     <g transform="translate(806.173317 332.710938) scale(0.1 -0.1)">
      <use xlink:href="#DejaVuSans-Oblique-3b1" transform="translate(0 0.78125)"/>
      <use xlink:href="#DejaVuSans-3d" transform="translate(85.400391 0.78125)"/>
      <use xlink:href="#DejaVuSans-32" transform="translate(188.671875 0.78125)"/>
      <use xlink:href="#DejaVuSans-2e" transform="translate(252.294922 0.78125)"/>
      <use xlink:href="#DejaVuSans-30" transform="translate(284.082031 0.78125)"/>
     </g>
    </g>
    <g id="line2d_100">
     <path d="M 778.173317 343.889063 
L 788.173317 343.889063 
L 798.173317 343.889063 
" style="fill: none; stroke-dasharray: 3.7,1.6; stroke-dashoffset: 0; stroke: #000000"/>
    </g>
    <g id="text_84">
     <!-- Равномерное распр. -->
     <g transform="translate(806.173317 347.389063) scale(0.1 -0.1)">
      <use xlink:href="#DejaVuSans-420"/>
      <use xlink:href="#DejaVuSans-430" transform="translate(60.302734 0)"/>
      <use xlink:href="#DejaVuSans-432" transform="translate(121.582031 0)"/>
      <use xlink:href="#DejaVuSans-43d" transform="translate(180.517578 0)"/>
      <use xlink:href="#DejaVuSans-43e" transform="translate(245.898438 0)"/>
      <use xlink:href="#DejaVuSans-43c" transform="translate(307.080078 0)"/>
      <use xlink:href="#DejaVuSans-435" transform="translate(382.519531 0)"/>
      <use xlink:href="#DejaVuSans-440" transform="translate(444.042969 0)"/>
      <use xlink:href="#DejaVuSans-43d" transform="translate(507.519531 0)"/>
      <use xlink:href="#DejaVuSans-43e" transform="translate(572.900391 0)"/>
      <use xlink:href="#DejaVuSans-435" transform="translate(634.082031 0)"/>
      <use xlink:href="#DejaVuSans-20" transform="translate(695.605469 0)"/>
      <use xlink:href="#DejaVuSans-440" transform="translate(727.392578 0)"/>
      <use xlink:href="#DejaVuSans-430" transform="translate(790.869141 0)"/>
      <use xlink:href="#DejaVuSans-441" transform="translate(852.148438 0)"/>
      <use xlink:href="#DejaVuSans-43f" transform="translate(907.128906 0)"/>
      <use xlink:href="#DejaVuSans-440" transform="translate(972.509766 0)"/>
      <use xlink:href="#DejaVuSans-2e" transform="translate(1035.986328 0)"/>
     </g>
    </g>
   </g>
  </g>
 </g>
 <defs>
  <clipPath id="p02350c819c">
   <rect x="54.02" y="10.8" width="405.333005" height="204.64"/>
  </clipPath>
  <clipPath id="p02b58dde44">
   <rect x="516.62" y="10.8" width="405.333005" height="204.64"/>
  </clipPath>
  <clipPath id="pc8b4e99187">
   <rect x="54.02" y="257.4" width="405.333005" height="204.64"/>
  </clipPath>
  <clipPath id="p34c56dc205">
   <rect x="516.62" y="257.4" width="405.333005" height="204.64"/>
  </clipPath>
 </defs>
</svg>
