<?xml version="1.0" encoding="utf-8" standalone="no"?>
<!DOCTYPE svg PUBLIC "-//W3C//DTD SVG 1.1//EN"
  "http://www.w3.org/Graphics/SVG/1.1/DTD/svg11.dtd">
<svg xmlns:xlink="http://www.w3.org/1999/xlink" width="936pt" height="504pt" viewBox="0 0 936 504" xmlns="http://www.w3.org/2000/svg" version="1.1">
 <metadata>
  <rdf:RDF xmlns:dc="http://purl.org/dc/elements/1.1/" xmlns:cc="http://creativecommons.org/ns#" xmlns:rdf="http://www.w3.org/1999/02/22-rdf-syntax-ns#">
   <cc:Work>
    <dc:type rdf:resource="http://purl.org/dc/dcmitype/StillImage"/>
    <dc:date>2026-05-19T22:01:15.507375</dc:date>
    <dc:format>image/svg+xml</dc:format>
    <dc:creator>
     <cc:Agent>
      <dc:title>Matplotlib v3.10.9, https://matplotlib.org/</dc:title>
     </cc:Agent>
    </dc:creator>
   </cc:Work>
  </rdf:RDF>
 </metadata>
 <defs>
  <style type="text/css">*{stroke-linejoin: round; stroke-linecap: butt}</style>
 </defs>
 <g id="figure_1">
  <g id="patch_1">
   <path d="M 0 504 
L 936 504 
L 936 0 
L 0 0 
z
" style="fill: #ffffff"/>
  </g>
  <g id="axes_1">
   <g id="patch_2">
    <path d="M 47.72 215.44 
L 459.400913 215.44 
L 459.400913 10.8 
L 47.72 10.8 
z
" style="fill: #ffffff"/>
   </g>
   <g id="matplotlib.axis_1">
    <g id="xtick_1">
     <g id="line2d_1">
      <defs>
       <path id="m11486beaca" d="M 0 0 
L 0 3.5 
" style="stroke: #000000; stroke-width: 0.8"/>
      </defs>
      <g>
       <use xlink:href="#m11486beaca" x="66.432769" y="215.44" style="stroke: #000000; stroke-width: 0.8"/>
      </g>
     </g>
     <g id="text_1">
      <!-- 0 -->
      <g transform="translate(63.251519 230.038437) scale(0.1 -0.1)">
       <defs>
        <path id="DejaVuSans-30" d="M 2034 4250 
Q 1547 4250 1301 3770 
Q 1056 3291 1056 2328 
Q 1056 1369 1301 889 
Q 1547 409 2034 409 
Q 2525 409 2770 889 
Q 3016 1369 3016 2328 
Q 3016 3291 2770 3770 
Q 2525 4250 2034 4250 
z
M 2034 4750 
Q 2819 4750 3233 4129 
Q 3647 3509 3647 2328 
Q 3647 1150 3233 529 
Q 2819 -91 2034 -91 
Q 1250 -91 836 529 
Q 422 1150 422 2328 
Q 422 3509 836 4129 
Q 1250 4750 2034 4750 
z
" transform="scale(0.015625)"/>
       </defs>
       <use xlink:href="#DejaVuSans-30"/>
      </g>
     </g>
    </g>
    <g id="xtick_2">
     <g id="line2d_2">
      <g>
       <use xlink:href="#m11486beaca" x="144.402639" y="215.44" style="stroke: #000000; stroke-width: 0.8"/>
      </g>
     </g>
     <g id="text_2">
      <!-- 5 -->
      <g transform="translate(141.221389 230.038437) scale(0.1 -0.1)">
       <defs>
        <path id="DejaVuSans-35" d="M 691 4666 
L 3169 4666 
L 3169 4134 
L 1269 4134 
L 1269 2991 
Q 1406 3038 1543 3061 
Q 1681 3084 1819 3084 
Q 2600 3084 3056 2656 
Q 3513 2228 3513 1497 
Q 3513 744 3044 326 
Q 2575 -91 1722 -91 
Q 1428 -91 1123 -41 
Q 819 9 494 109 
L 494 744 
Q 775 591 1075 516 
Q 1375 441 1709 441 
Q 2250 441 2565 725 
Q 2881 1009 2881 1497 
Q 2881 1984 2565 2268 
Q 2250 2553 1709 2553 
Q 1456 2553 1204 2497 
Q 953 2441 691 2322 
L 691 4666 
z
" transform="scale(0.015625)"/>
       </defs>
       <use xlink:href="#DejaVuSans-35"/>
      </g>
     </g>
    </g>
    <g id="xtick_3">
     <g id="line2d_3">
      <g>
       <use xlink:href="#m11486beaca" x="222.372509" y="215.44" style="stroke: #000000; stroke-width: 0.8"/>
      </g>
     </g>
     <g id="text_3">
      <!-- 10 -->
      <g transform="translate(216.010009 230.038437) scale(0.1 -0.1)">
       <defs>
        <path id="DejaVuSans-31" d="M 794 531 
L 1825 531 
L 1825 4091 
L 703 3866 
L 703 4441 
L 1819 4666 
L 2450 4666 
L 2450 531 
L 3481 531 
L 3481 0 
L 794 0 
L 794 531 
z
" transform="scale(0.015625)"/>
       </defs>
       <use xlink:href="#DejaVuSans-31"/>
       <use xlink:href="#DejaVuSans-30" transform="translate(63.623047 0)"/>
      </g>
     </g>
    </g>
    <g id="xtick_4">
     <g id="line2d_4">
      <g>
       <use xlink:href="#m11486beaca" x="300.342378" y="215.44" style="stroke: #000000; stroke-width: 0.8"/>
      </g>
     </g>
     <g id="text_4">
      <!-- 15 -->
      <g transform="translate(293.979878 230.038437) scale(0.1 -0.1)">
       <use xlink:href="#DejaVuSans-31"/>
       <use xlink:href="#DejaVuSans-35" transform="translate(63.623047 0)"/>
      </g>
     </g>
    </g>
    <g id="xtick_5">
     <g id="line2d_5">
      <g>
       <use xlink:href="#m11486beaca" x="378.312248" y="215.44" style="stroke: #000000; stroke-width: 0.8"/>
      </g>
     </g>
     <g id="text_5">
      <!-- 20 -->
      <g transform="translate(371.949748 230.038437) scale(0.1 -0.1)">
       <defs>
        <path id="DejaVuSans-32" d="M 1228 531 
L 3431 531 
L 3431 0 
L 469 0 
L 469 531 
Q 828 903 1448 1529 
Q 2069 2156 2228 2338 
Q 2531 2678 2651 2914 
Q 2772 3150 2772 3378 
Q 2772 3750 2511 3984 
Q 2250 4219 1831 4219 
Q 1534 4219 1204 4116 
Q 875 4013 500 3803 
L 500 4441 
Q 881 4594 1212 4672 
Q 1544 4750 1819 4750 
Q 2544 4750 2975 4387 
Q 3406 4025 3406 3419 
Q 3406 3131 3298 2873 
Q 3191 2616 2906 2266 
Q 2828 2175 2409 1742 
Q 1991 1309 1228 531 
z
" transform="scale(0.015625)"/>
       </defs>
       <use xlink:href="#DejaVuSans-32"/>
       <use xlink:href="#DejaVuSans-30" transform="translate(63.623047 0)"/>
      </g>
     </g>
    </g>
    <g id="xtick_6">
     <g id="line2d_6">
      <g>
       <use xlink:href="#m11486beaca" x="456.282118" y="215.44" style="stroke: #000000; stroke-width: 0.8"/>
      </g>
     </g>
     <g id="text_6">
      <!-- 25 -->
      <g transform="translate(449.919618 230.038437) scale(0.1 -0.1)">
       <use xlink:href="#DejaVuSans-32"/>
       <use xlink:href="#DejaVuSans-35" transform="translate(63.623047 0)"/>
      </g>
     </g>
    </g>
    <g id="text_7">
     <!-- Номер слоя -->
     <g transform="translate(223.116707 243.716563) scale(0.1 -0.1)">
      <defs>
       <path id="DejaVuSans-41d" d="M 628 4666 
L 1259 4666 
L 1259 2753 
L 3553 2753 
L 3553 4666 
L 4184 4666 
L 4184 0 
L 3553 0 
L 3553 2222 
L 1259 2222 
L 1259 0 
L 628 0 
L 628 4666 
z
" transform="scale(0.015625)"/>
       <path id="DejaVuSans-43e" d="M 1959 3097 
Q 1497 3097 1228 2736 
Q 959 2375 959 1747 
Q 959 1119 1226 758 
Q 1494 397 1959 397 
Q 2419 397 2687 759 
Q 2956 1122 2956 1747 
Q 2956 2369 2687 2733 
Q 2419 3097 1959 3097 
z
M 1959 3584 
Q 2709 3584 3137 3096 
Q 3566 2609 3566 1747 
Q 3566 888 3137 398 
Q 2709 -91 1959 -91 
Q 1206 -91 779 398 
Q 353 888 353 1747 
Q 353 2609 779 3096 
Q 1206 3584 1959 3584 
z
" transform="scale(0.015625)"/>
       <path id="DejaVuSans-43c" d="M 581 3500 
L 1422 3500 
L 2416 1156 
L 3413 3500 
L 4247 3500 
L 4247 0 
L 3669 0 
L 3669 2950 
L 2703 672 
L 2128 672 
L 1159 2950 
L 1159 0 
L 581 0 
L 581 3500 
z
" transform="scale(0.015625)"/>
       <path id="DejaVuSans-435" d="M 3597 1894 
L 3597 1613 
L 953 1613 
Q 991 1019 1311 708 
Q 1631 397 2203 397 
Q 2534 397 2845 478 
Q 3156 559 3463 722 
L 3463 178 
Q 3153 47 2828 -22 
Q 2503 -91 2169 -91 
Q 1331 -91 842 396 
Q 353 884 353 1716 
Q 353 2575 817 3079 
Q 1281 3584 2069 3584 
Q 2775 3584 3186 3129 
Q 3597 2675 3597 1894 
z
M 3022 2063 
Q 3016 2534 2758 2815 
Q 2500 3097 2075 3097 
Q 1594 3097 1305 2825 
Q 1016 2553 972 2059 
L 3022 2063 
z
" transform="scale(0.015625)"/>
       <path id="DejaVuSans-440" d="M 1159 525 
L 1159 -1331 
L 581 -1331 
L 581 3500 
L 1159 3500 
L 1159 2969 
Q 1341 3281 1617 3432 
Q 1894 3584 2278 3584 
Q 2916 3584 3314 3078 
Q 3713 2572 3713 1747 
Q 3713 922 3314 415 
Q 2916 -91 2278 -91 
Q 1894 -91 1617 61 
Q 1341 213 1159 525 
z
M 3116 1747 
Q 3116 2381 2855 2742 
Q 2594 3103 2138 3103 
Q 1681 3103 1420 2742 
Q 1159 2381 1159 1747 
Q 1159 1113 1420 752 
Q 1681 391 2138 391 
Q 2594 391 2855 752 
Q 3116 1113 3116 1747 
z
" transform="scale(0.015625)"/>
       <path id="DejaVuSans-20" transform="scale(0.015625)"/>
       <path id="DejaVuSans-441" d="M 3122 3366 
L 3122 2828 
Q 2878 2963 2633 3030 
Q 2388 3097 2138 3097 
Q 1578 3097 1268 2742 
Q 959 2388 959 1747 
Q 959 1106 1268 751 
Q 1578 397 2138 397 
Q 2388 397 2633 464 
Q 2878 531 3122 666 
L 3122 134 
Q 2881 22 2623 -34 
Q 2366 -91 2075 -91 
Q 1284 -91 818 406 
Q 353 903 353 1747 
Q 353 2603 823 3093 
Q 1294 3584 2113 3584 
Q 2378 3584 2631 3529 
Q 2884 3475 3122 3366 
z
" transform="scale(0.015625)"/>
       <path id="DejaVuSans-43b" d="M 238 0 
L 238 478 
Q 806 566 981 959 
Q 1194 1513 1194 2928 
L 1194 3500 
L 3559 3500 
L 3559 0 
L 2984 0 
L 2984 3041 
L 1769 3041 
L 1769 2694 
Q 1769 1344 1494 738 
Q 1200 91 238 0 
z
" transform="scale(0.015625)"/>
       <path id="DejaVuSans-44f" d="M 1181 2491 
Q 1181 2231 1381 2084 
Q 1581 1938 1953 1938 
L 2728 1938 
L 2728 3041 
L 1953 3041 
Q 1581 3041 1381 2897 
Q 1181 2753 1181 2491 
z
M 363 0 
L 1431 1534 
Q 1069 1616 828 1830 
Q 588 2044 588 2491 
Q 588 2997 923 3248 
Q 1259 3500 1938 3500 
L 3306 3500 
L 3306 0 
L 2728 0 
L 2728 1478 
L 2013 1478 
L 981 0 
L 363 0 
z
" transform="scale(0.015625)"/>
      </defs>
      <use xlink:href="#DejaVuSans-41d"/>
      <use xlink:href="#DejaVuSans-43e" transform="translate(75.195312 0)"/>
      <use xlink:href="#DejaVuSans-43c" transform="translate(136.376953 0)"/>
      <use xlink:href="#DejaVuSans-435" transform="translate(211.816406 0)"/>
      <use xlink:href="#DejaVuSans-440" transform="translate(273.339844 0)"/>
      <use xlink:href="#DejaVuSans-20" transform="translate(336.816406 0)"/>
      <use xlink:href="#DejaVuSans-441" transform="translate(368.603516 0)"/>
      <use xlink:href="#DejaVuSans-43b" transform="translate(423.583984 0)"/>
      <use xlink:href="#DejaVuSans-43e" transform="translate(487.5 0)"/>
      <use xlink:href="#DejaVuSans-44f" transform="translate(548.681641 0)"/>
     </g>
    </g>
   </g>
   <g id="matplotlib.axis_2">
    <g id="ytick_1">
     <g id="line2d_7">
      <defs>
       <path id="m8886c66ec6" d="M 0 0 
L -3.5 0 
" style="stroke: #000000; stroke-width: 0.8"/>
      </defs>
      <g>
       <use xlink:href="#m8886c66ec6" x="47.72" y="215.44" style="stroke: #000000; stroke-width: 0.8"/>
      </g>
     </g>
     <g id="text_8">
      <!-- 0.3 -->
      <g transform="translate(24.816875 219.239219) scale(0.1 -0.1)">
       <defs>
        <path id="DejaVuSans-2e" d="M 684 794 
L 1344 794 
L 1344 0 
L 684 0 
L 684 794 
z
" transform="scale(0.015625)"/>
        <path id="DejaVuSans-33" d="M 2597 2516 
Q 3050 2419 3304 2112 
Q 3559 1806 3559 1356 
Q 3559 666 3084 287 
Q 2609 -91 1734 -91 
Q 1441 -91 1130 -33 
Q 819 25 488 141 
L 488 750 
Q 750 597 1062 519 
Q 1375 441 1716 441 
Q 2309 441 2620 675 
Q 2931 909 2931 1356 
Q 2931 1769 2642 2001 
Q 2353 2234 1838 2234 
L 1294 2234 
L 1294 2753 
L 1863 2753 
Q 2328 2753 2575 2939 
Q 2822 3125 2822 3475 
Q 2822 3834 2567 4026 
Q 2313 4219 1838 4219 
Q 1578 4219 1281 4162 
Q 984 4106 628 3988 
L 628 4550 
Q 988 4650 1302 4700 
Q 1616 4750 1894 4750 
Q 2613 4750 3031 4423 
Q 3450 4097 3450 3541 
Q 3450 3153 3228 2886 
Q 3006 2619 2597 2516 
z
" transform="scale(0.015625)"/>
       </defs>
       <use xlink:href="#DejaVuSans-30"/>
       <use xlink:href="#DejaVuSans-2e" transform="translate(63.623047 0)"/>
       <use xlink:href="#DejaVuSans-33" transform="translate(95.410156 0)"/>
      </g>
     </g>
    </g>
    <g id="ytick_2">
     <g id="line2d_8">
      <g>
       <use xlink:href="#m8886c66ec6" x="47.72" y="187.534545" style="stroke: #000000; stroke-width: 0.8"/>
      </g>
     </g>
     <g id="text_9">
      <!-- 0.4 -->
      <g transform="translate(24.816875 191.333764) scale(0.1 -0.1)">
       <defs>
        <path id="DejaVuSans-34" d="M 2419 4116 
L 825 1625 
L 2419 1625 
L 2419 4116 
z
M 2253 4666 
L 3047 4666 
L 3047 1625 
L 3713 1625 
L 3713 1100 
L 3047 1100 
L 3047 0 
L 2419 0 
L 2419 1100 
L 313 1100 
L 313 1709 
L 2253 4666 
z
" transform="scale(0.015625)"/>
       </defs>
       <use xlink:href="#DejaVuSans-30"/>
       <use xlink:href="#DejaVuSans-2e" transform="translate(63.623047 0)"/>
       <use xlink:href="#DejaVuSans-34" transform="translate(95.410156 0)"/>
      </g>
     </g>
    </g>
    <g id="ytick_3">
     <g id="line2d_9">
      <g>
       <use xlink:href="#m8886c66ec6" x="47.72" y="159.629091" style="stroke: #000000; stroke-width: 0.8"/>
      </g>
     </g>
     <g id="text_10">
      <!-- 0.5 -->
      <g transform="translate(24.816875 163.42831) scale(0.1 -0.1)">
       <use xlink:href="#DejaVuSans-30"/>
       <use xlink:href="#DejaVuSans-2e" transform="translate(63.623047 0)"/>
       <use xlink:href="#DejaVuSans-35" transform="translate(95.410156 0)"/>
      </g>
     </g>
    </g>
    <g id="ytick_4">
     <g id="line2d_10">
      <g>
       <use xlink:href="#m8886c66ec6" x="47.72" y="131.723636" style="stroke: #000000; stroke-width: 0.8"/>
      </g>
     </g>
     <g id="text_11">
      <!-- 0.6 -->
      <g transform="translate(24.816875 135.522855) scale(0.1 -0.1)">
       <defs>
        <path id="DejaVuSans-36" d="M 2113 2584 
Q 1688 2584 1439 2293 
Q 1191 2003 1191 1497 
Q 1191 994 1439 701 
Q 1688 409 2113 409 
Q 2538 409 2786 701 
Q 3034 994 3034 1497 
Q 3034 2003 2786 2293 
Q 2538 2584 2113 2584 
z
M 3366 4563 
L 3366 3988 
Q 3128 4100 2886 4159 
Q 2644 4219 2406 4219 
Q 1781 4219 1451 3797 
Q 1122 3375 1075 2522 
Q 1259 2794 1537 2939 
Q 1816 3084 2150 3084 
Q 2853 3084 3261 2657 
Q 3669 2231 3669 1497 
Q 3669 778 3244 343 
Q 2819 -91 2113 -91 
Q 1303 -91 875 529 
Q 447 1150 447 2328 
Q 447 3434 972 4092 
Q 1497 4750 2381 4750 
Q 2619 4750 2861 4703 
Q 3103 4656 3366 4563 
z
" transform="scale(0.015625)"/>
       </defs>
       <use xlink:href="#DejaVuSans-30"/>
       <use xlink:href="#DejaVuSans-2e" transform="translate(63.623047 0)"/>
       <use xlink:href="#DejaVuSans-36" transform="translate(95.410156 0)"/>
      </g>
     </g>
    </g>
    <g id="ytick_5">
     <g id="line2d_11">
      <g>
       <use xlink:href="#m8886c66ec6" x="47.72" y="103.818182" style="stroke: #000000; stroke-width: 0.8"/>
      </g>
     </g>
     <g id="text_12">
      <!-- 0.7 -->
      <g transform="translate(24.816875 107.617401) scale(0.1 -0.1)">
       <defs>
        <path id="DejaVuSans-37" d="M 525 4666 
L 3525 4666 
L 3525 4397 
L 1831 0 
L 1172 0 
L 2766 4134 
L 525 4134 
L 525 4666 
z
" transform="scale(0.015625)"/>
       </defs>
       <use xlink:href="#DejaVuSans-30"/>
       <use xlink:href="#DejaVuSans-2e" transform="translate(63.623047 0)"/>
       <use xlink:href="#DejaVuSans-37" transform="translate(95.410156 0)"/>
      </g>
     </g>
    </g>
    <g id="ytick_6">
     <g id="line2d_12">
      <g>
       <use xlink:href="#m8886c66ec6" x="47.72" y="75.912727" style="stroke: #000000; stroke-width: 0.8"/>
      </g>
     </g>
     <g id="text_13">
      <!-- 0.8 -->
      <g transform="translate(24.816875 79.711946) scale(0.1 -0.1)">
       <defs>
        <path id="DejaVuSans-38" d="M 2034 2216 
Q 1584 2216 1326 1975 
Q 1069 1734 1069 1313 
Q 1069 891 1326 650 
Q 1584 409 2034 409 
Q 2484 409 2743 651 
Q 3003 894 3003 1313 
Q 3003 1734 2745 1975 
Q 2488 2216 2034 2216 
z
M 1403 2484 
Q 997 2584 770 2862 
Q 544 3141 544 3541 
Q 544 4100 942 4425 
Q 1341 4750 2034 4750 
Q 2731 4750 3128 4425 
Q 3525 4100 3525 3541 
Q 3525 3141 3298 2862 
Q 3072 2584 2669 2484 
Q 3125 2378 3379 2068 
Q 3634 1759 3634 1313 
Q 3634 634 3220 271 
Q 2806 -91 2034 -91 
Q 1263 -91 848 271 
Q 434 634 434 1313 
Q 434 1759 690 2068 
Q 947 2378 1403 2484 
z
M 1172 3481 
Q 1172 3119 1398 2916 
Q 1625 2713 2034 2713 
Q 2441 2713 2670 2916 
Q 2900 3119 2900 3481 
Q 2900 3844 2670 4047 
Q 2441 4250 2034 4250 
Q 1625 4250 1398 4047 
Q 1172 3844 1172 3481 
z
" transform="scale(0.015625)"/>
       </defs>
       <use xlink:href="#DejaVuSans-30"/>
       <use xlink:href="#DejaVuSans-2e" transform="translate(63.623047 0)"/>
       <use xlink:href="#DejaVuSans-38" transform="translate(95.410156 0)"/>
      </g>
     </g>
    </g>
    <g id="ytick_7">
     <g id="line2d_13">
      <g>
       <use xlink:href="#m8886c66ec6" x="47.72" y="48.007273" style="stroke: #000000; stroke-width: 0.8"/>
      </g>
     </g>
     <g id="text_14">
      <!-- 0.9 -->
      <g transform="translate(24.816875 51.806491) scale(0.1 -0.1)">
       <defs>
        <path id="DejaVuSans-39" d="M 703 97 
L 703 672 
Q 941 559 1184 500 
Q 1428 441 1663 441 
Q 2288 441 2617 861 
Q 2947 1281 2994 2138 
Q 2813 1869 2534 1725 
Q 2256 1581 1919 1581 
Q 1219 1581 811 2004 
Q 403 2428 403 3163 
Q 403 3881 828 4315 
Q 1253 4750 1959 4750 
Q 2769 4750 3195 4129 
Q 3622 3509 3622 2328 
Q 3622 1225 3098 567 
Q 2575 -91 1691 -91 
Q 1453 -91 1209 -44 
Q 966 3 703 97 
z
M 1959 2075 
Q 2384 2075 2632 2365 
Q 2881 2656 2881 3163 
Q 2881 3666 2632 3958 
Q 2384 4250 1959 4250 
Q 1534 4250 1286 3958 
Q 1038 3666 1038 3163 
Q 1038 2656 1286 2365 
Q 1534 2075 1959 2075 
z
" transform="scale(0.015625)"/>
       </defs>
       <use xlink:href="#DejaVuSans-30"/>
       <use xlink:href="#DejaVuSans-2e" transform="translate(63.623047 0)"/>
       <use xlink:href="#DejaVuSans-39" transform="translate(95.410156 0)"/>
      </g>
     </g>
    </g>
    <g id="ytick_8">
     <g id="line2d_14">
      <g>
       <use xlink:href="#m8886c66ec6" x="47.72" y="20.101818" style="stroke: #000000; stroke-width: 0.8"/>
      </g>
     </g>
     <g id="text_15">
      <!-- 1.0 -->
      <g transform="translate(24.816875 23.901037) scale(0.1 -0.1)">
       <use xlink:href="#DejaVuSans-31"/>
       <use xlink:href="#DejaVuSans-2e" transform="translate(63.623047 0)"/>
       <use xlink:href="#DejaVuSans-30" transform="translate(95.410156 0)"/>
      </g>
     </g>
    </g>
    <g id="text_16">
     <!-- Межслойная устойчивость -->
     <g transform="translate(18.737187 183.946563) rotate(-90) scale(0.1 -0.1)">
      <defs>
       <path id="DejaVuSans-41c" d="M 628 4666 
L 1569 4666 
L 2759 1491 
L 3956 4666 
L 4897 4666 
L 4897 0 
L 4281 0 
L 4281 4097 
L 3078 897 
L 2444 897 
L 1241 4097 
L 1241 0 
L 628 0 
L 628 4666 
z
" transform="scale(0.015625)"/>
       <path id="DejaVuSans-436" d="M 2597 3500 
L 3169 3500 
L 3169 1856 
L 4697 3500 
L 5366 3500 
L 4109 2153 
L 5547 0 
L 4931 0 
L 3753 1769 
L 3169 1141 
L 3169 0 
L 2597 0 
L 2597 1141 
L 2013 1769 
L 834 0 
L 219 0 
L 1656 2153 
L 400 3500 
L 1069 3500 
L 2597 1856 
L 2597 3500 
z
" transform="scale(0.015625)"/>
       <path id="DejaVuSans-439" d="M 3578 3500 
L 3578 0 
L 3006 0 
L 3006 2809 
L 1319 0 
L 581 0 
L 581 3500 
L 1153 3500 
L 1153 697 
L 2838 3500 
L 3578 3500 
z
M 1102 4833 
L 1471 4833 
Q 1505 4599 1656 4481 
Q 1808 4364 2080 4364 
Q 2349 4364 2499 4480 
Q 2649 4596 2689 4833 
L 3058 4833 
Q 3027 4386 2780 4161 
Q 2533 3936 2080 3936 
Q 1627 3936 1380 4161 
Q 1133 4386 1102 4833 
z
" transform="scale(0.015625)"/>
       <path id="DejaVuSans-43d" d="M 581 3500 
L 1159 3500 
L 1159 2072 
L 3025 2072 
L 3025 3500 
L 3603 3500 
L 3603 0 
L 3025 0 
L 3025 1613 
L 1159 1613 
L 1159 0 
L 581 0 
L 581 3500 
z
" transform="scale(0.015625)"/>
       <path id="DejaVuSans-430" d="M 2194 1759 
Q 1497 1759 1228 1600 
Q 959 1441 959 1056 
Q 959 750 1161 570 
Q 1363 391 1709 391 
Q 2188 391 2477 730 
Q 2766 1069 2766 1631 
L 2766 1759 
L 2194 1759 
z
M 3341 1997 
L 3341 0 
L 2766 0 
L 2766 531 
Q 2569 213 2275 61 
Q 1981 -91 1556 -91 
Q 1019 -91 701 211 
Q 384 513 384 1019 
Q 384 1609 779 1909 
Q 1175 2209 1959 2209 
L 2766 2209 
L 2766 2266 
Q 2766 2663 2505 2880 
Q 2244 3097 1772 3097 
Q 1472 3097 1187 3025 
Q 903 2953 641 2809 
L 641 3341 
Q 956 3463 1253 3523 
Q 1550 3584 1831 3584 
Q 2591 3584 2966 3190 
Q 3341 2797 3341 1997 
z
" transform="scale(0.015625)"/>
       <path id="DejaVuSans-443" d="M 2059 -325 
Q 1816 -950 1584 -1140 
Q 1353 -1331 966 -1331 
L 506 -1331 
L 506 -850 
L 844 -850 
Q 1081 -850 1212 -737 
Q 1344 -625 1503 -206 
L 1606 56 
L 191 3500 
L 800 3500 
L 1894 763 
L 2988 3500 
L 3597 3500 
L 2059 -325 
z
" transform="scale(0.015625)"/>
       <path id="DejaVuSans-442" d="M 188 3500 
L 3541 3500 
L 3541 3041 
L 2147 3041 
L 2147 0 
L 1581 0 
L 1581 3041 
L 188 3041 
L 188 3500 
z
" transform="scale(0.015625)"/>
       <path id="DejaVuSans-447" d="M 2625 0 
L 2625 1472 
L 1553 1472 
Q 1075 1472 756 1769 
Q 469 2038 469 2613 
L 469 3500 
L 1044 3500 
L 1044 2666 
Q 1044 2300 1206 2116 
Q 1372 1931 1697 1931 
L 2625 1931 
L 2625 3500 
L 3200 3500 
L 3200 0 
L 2625 0 
z
" transform="scale(0.015625)"/>
       <path id="DejaVuSans-438" d="M 3578 3500 
L 3578 0 
L 3006 0 
L 3006 2809 
L 1319 0 
L 581 0 
L 581 3500 
L 1153 3500 
L 1153 697 
L 2838 3500 
L 3578 3500 
z
" transform="scale(0.015625)"/>
       <path id="DejaVuSans-432" d="M 1156 1613 
L 1156 459 
L 1975 459 
Q 2369 459 2575 607 
Q 2781 756 2781 1038 
Q 2781 1319 2575 1466 
Q 2369 1613 1975 1613 
L 1156 1613 
z
M 1156 3041 
L 1156 2072 
L 1913 2072 
Q 2238 2072 2444 2201 
Q 2650 2331 2650 2563 
Q 2650 2794 2444 2917 
Q 2238 3041 1913 3041 
L 1156 3041 
z
M 581 3500 
L 1950 3500 
Q 2566 3500 2897 3275 
Q 3228 3050 3228 2634 
Q 3228 2313 3059 2123 
Q 2891 1934 2559 1888 
Q 2956 1813 3175 1575 
Q 3394 1338 3394 981 
Q 3394 513 3033 256 
Q 2672 0 2003 0 
L 581 0 
L 581 3500 
z
" transform="scale(0.015625)"/>
       <path id="DejaVuSans-44c" d="M 2781 1038 
Q 2781 1319 2576 1466 
Q 2372 1613 1978 1613 
L 1159 1613 
L 1159 459 
L 1978 459 
Q 2372 459 2576 607 
Q 2781 756 2781 1038 
z
M 581 3500 
L 1159 3500 
L 1159 2072 
L 2003 2072 
Q 2672 2072 3033 1817 
Q 3394 1563 3394 1038 
Q 3394 513 3033 256 
Q 2672 0 2003 0 
L 581 0 
L 581 3500 
z
" transform="scale(0.015625)"/>
      </defs>
      <use xlink:href="#DejaVuSans-41c"/>
      <use xlink:href="#DejaVuSans-435" transform="translate(86.279297 0)"/>
      <use xlink:href="#DejaVuSans-436" transform="translate(147.802734 0)"/>
      <use xlink:href="#DejaVuSans-441" transform="translate(237.890625 0)"/>
      <use xlink:href="#DejaVuSans-43b" transform="translate(292.871094 0)"/>
      <use xlink:href="#DejaVuSans-43e" transform="translate(356.787109 0)"/>
      <use xlink:href="#DejaVuSans-439" transform="translate(417.96875 0)"/>
      <use xlink:href="#DejaVuSans-43d" transform="translate(482.958984 0)"/>
      <use xlink:href="#DejaVuSans-430" transform="translate(548.339844 0)"/>
      <use xlink:href="#DejaVuSans-44f" transform="translate(609.619141 0)"/>
      <use xlink:href="#DejaVuSans-20" transform="translate(669.775391 0)"/>
      <use xlink:href="#DejaVuSans-443" transform="translate(701.5625 0)"/>
      <use xlink:href="#DejaVuSans-441" transform="translate(760.742188 0)"/>
      <use xlink:href="#DejaVuSans-442" transform="translate(815.722656 0)"/>
      <use xlink:href="#DejaVuSans-43e" transform="translate(873.974609 0)"/>
      <use xlink:href="#DejaVuSans-439" transform="translate(935.15625 0)"/>
      <use xlink:href="#DejaVuSans-447" transform="translate(1000.146484 0)"/>
      <use xlink:href="#DejaVuSans-438" transform="translate(1059.228516 0)"/>
      <use xlink:href="#DejaVuSans-432" transform="translate(1124.21875 0)"/>
      <use xlink:href="#DejaVuSans-43e" transform="translate(1183.154297 0)"/>
      <use xlink:href="#DejaVuSans-441" transform="translate(1244.335938 0)"/>
      <use xlink:href="#DejaVuSans-442" transform="translate(1299.316406 0)"/>
      <use xlink:href="#DejaVuSans-44c" transform="translate(1357.568359 0)"/>
     </g>
    </g>
   </g>
   <g id="line2d_15">
    <path d="M 66.432769 206.138182 
L 82.026743 159.629091 
L 97.620717 206.138182 
L 113.214691 20.101818 
L 128.808665 159.629091 
L 144.402639 20.101818 
L 159.996613 20.101818 
L 175.590587 20.101818 
L 191.184561 20.101818 
L 206.778535 20.101818 
L 222.372509 20.101818 
L 237.966483 20.101818 
L 253.560457 20.101818 
L 269.154431 20.101818 
L 284.748404 20.101818 
L 300.342378 20.101818 
L 315.936352 20.101818 
L 331.530326 20.101818 
L 347.1243 20.101818 
L 362.718274 20.101818 
L 378.312248 20.101818 
L 393.906222 20.101818 
L 409.500196 20.101818 
L 425.09417 20.101818 
L 440.688144 20.101818 
" clip-path="url(#p157d6d168e)" style="fill: none; stroke: #648fff; stroke-width: 1.5; stroke-linecap: square"/>
   </g>
   <g id="line2d_16">
    <path d="M 66.432769 198.696727 
L 82.026743 154.048 
L 97.620717 198.696727 
L 113.214691 20.101818 
L 128.808665 154.048 
L 144.402639 20.101818 
L 159.996613 20.101818 
L 175.590587 20.101818 
L 191.184561 20.101818 
L 206.778535 20.101818 
L 222.372509 20.101818 
L 237.966483 20.101818 
L 253.560457 20.101818 
L 269.154431 20.101818 
L 284.748404 20.101818 
L 300.342378 20.101818 
L 315.936352 20.101818 
L 331.530326 20.101818 
L 347.1243 20.101818 
L 362.718274 20.101818 
L 378.312248 20.101818 
L 393.906222 20.101818 
L 409.500196 20.101818 
L 425.09417 20.101818 
L 440.688144 20.101818 
" clip-path="url(#p157d6d168e)" style="fill: none; stroke: #785ef0; stroke-width: 1.5; stroke-linecap: square"/>
   </g>
   <g id="line2d_17">
    <path d="M 66.432769 206.138182 
L 82.026743 159.629091 
L 97.620717 206.138182 
L 113.214691 20.101818 
L 128.808665 159.629091 
L 144.402639 20.101818 
L 159.996613 20.101818 
L 175.590587 20.101818 
L 191.184561 20.101818 
L 206.778535 20.101818 
L 222.372509 20.101818 
L 237.966483 20.101818 
L 253.560457 20.101818 
L 269.154431 20.101818 
L 284.748404 20.101818 
L 300.342378 20.101818 
L 315.936352 20.101818 
L 331.530326 20.101818 
L 347.1243 20.101818 
L 362.718274 20.101818 
L 378.312248 20.101818 
L 393.906222 20.101818 
L 409.500196 20.101818 
L 425.09417 20.101818 
L 440.688144 20.101818 
" clip-path="url(#p157d6d168e)" style="fill: none; stroke: #dc267f; stroke-width: 1.5; stroke-linecap: square"/>
   </g>
   <g id="line2d_18">
    <path d="M 66.432769 206.138182 
L 82.026743 159.629091 
L 97.620717 206.138182 
L 113.214691 20.101818 
L 128.808665 159.629091 
L 144.402639 20.101818 
L 159.996613 20.101818 
L 175.590587 20.101818 
L 191.184561 20.101818 
L 206.778535 20.101818 
L 222.372509 20.101818 
L 237.966483 20.101818 
L 253.560457 20.101818 
L 269.154431 20.101818 
L 284.748404 20.101818 
L 300.342378 20.101818 
L 315.936352 20.101818 
L 331.530326 20.101818 
L 347.1243 20.101818 
L 362.718274 20.101818 
L 378.312248 20.101818 
L 393.906222 20.101818 
L 409.500196 20.101818 
L 425.09417 20.101818 
L 440.688144 20.101818 
" clip-path="url(#p157d6d168e)" style="fill: none; stroke: #fe6100; stroke-width: 1.5; stroke-linecap: square"/>
   </g>
   <g id="line2d_19">
    <path d="M 66.432769 206.138182 
L 82.026743 159.629091 
L 97.620717 206.138182 
L 113.214691 20.101818 
L 128.808665 159.629091 
L 144.402639 20.101818 
L 159.996613 20.101818 
L 175.590587 20.101818 
L 191.184561 20.101818 
L 206.778535 20.101818 
L 222.372509 20.101818 
L 237.966483 20.101818 
L 253.560457 20.101818 
L 269.154431 20.101818 
L 284.748404 20.101818 
L 300.342378 20.101818 
L 315.936352 20.101818 
L 331.530326 20.101818 
L 347.1243 20.101818 
L 362.718274 20.101818 
L 378.312248 20.101818 
L 393.906222 20.101818 
L 409.500196 20.101818 
L 425.09417 20.101818 
L 440.688144 20.101818 
" clip-path="url(#p157d6d168e)" style="fill: none; stroke: #ffb000; stroke-width: 1.5; stroke-linecap: square"/>
   </g>
   <g id="patch_3">
    <path d="M 47.72 215.44 
L 47.72 10.8 
" style="fill: none; stroke: #000000; stroke-width: 0.8; stroke-linejoin: miter; stroke-linecap: square"/>
   </g>
   <g id="patch_4">
    <path d="M 459.400913 215.44 
L 459.400913 10.8 
" style="fill: none; stroke: #000000; stroke-width: 0.8; stroke-linejoin: miter; stroke-linecap: square"/>
   </g>
   <g id="patch_5">
    <path d="M 47.72 215.44 
L 459.400913 215.44 
" style="fill: none; stroke: #000000; stroke-width: 0.8; stroke-linejoin: miter; stroke-linecap: square"/>
   </g>
   <g id="patch_6">
    <path d="M 47.72 10.8 
L 459.400913 10.8 
" style="fill: none; stroke: #000000; stroke-width: 0.8; stroke-linejoin: miter; stroke-linecap: square"/>
   </g>
   <g id="legend_1">
    <g id="patch_7">
     <path d="M 370.800913 210.44 
L 452.400913 210.44 
Q 454.400913 210.44 454.400913 208.44 
L 454.400913 136.049375 
Q 454.400913 134.049375 452.400913 134.049375 
L 370.800913 134.049375 
Q 368.800913 134.049375 368.800913 136.049375 
L 368.800913 208.44 
Q 368.800913 210.44 370.800913 210.44 
z
" style="fill: #ffffff; opacity: 0.8; stroke: #cccccc; stroke-linejoin: miter"/>
    </g>
    <g id="line2d_20">
     <path d="M 372.800913 142.147812 
L 382.800913 142.147812 
L 392.800913 142.147812 
" style="fill: none; stroke: #648fff; stroke-width: 1.5; stroke-linecap: square"/>
    </g>
    <g id="text_17">
     <!-- $\alpha=-1.00$ -->
     <g transform="translate(400.800913 145.647812) scale(0.1 -0.1)">
      <defs>
       <path id="DejaVuSans-Oblique-3b1" d="M 2619 1628 
L 2622 2350 
Q 2625 3088 2069 3091 
Q 1653 3094 1394 2747 
Q 1069 2319 959 1747 
Q 825 1059 994 731 
Q 1169 397 1547 397 
Q 1966 397 2319 1063 
L 2619 1628 
z
M 2166 3578 
Q 3141 3594 3128 2584 
Q 3128 2584 3616 3500 
L 4128 3500 
L 3119 1603 
L 3109 919 
Q 3109 766 3194 638 
Q 3291 488 3391 488 
L 3669 488 
L 3575 0 
L 3228 0 
Q 2934 0 2722 263 
Q 2622 394 2619 669 
Q 2416 334 2066 50 
Q 1900 -81 1453 -78 
Q 722 -72 456 397 
Q 184 884 353 1747 
Q 534 2675 1009 3097 
Q 1544 3569 2166 3578 
z
" transform="scale(0.015625)"/>
       <path id="DejaVuSans-3d" d="M 678 2906 
L 4684 2906 
L 4684 2381 
L 678 2381 
L 678 2906 
z
M 678 1631 
L 4684 1631 
L 4684 1100 
L 678 1100 
L 678 1631 
z
" transform="scale(0.015625)"/>
       <path id="DejaVuSans-2212" d="M 678 2272 
L 4684 2272 
L 4684 1741 
L 678 1741 
L 678 2272 
z
" transform="scale(0.015625)"/>
      </defs>
      <use xlink:href="#DejaVuSans-Oblique-3b1" transform="translate(0 0.78125)"/>
      <use xlink:href="#DejaVuSans-3d" transform="translate(85.400391 0.78125)"/>
      <use xlink:href="#DejaVuSans-2212" transform="translate(188.671875 0.78125)"/>
      <use xlink:href="#DejaVuSans-31" transform="translate(272.460938 0.78125)"/>
      <use xlink:href="#DejaVuSans-2e" transform="translate(336.083984 0.78125)"/>
      <use xlink:href="#DejaVuSans-30" transform="translate(367.871094 0.78125)"/>
      <use xlink:href="#DejaVuSans-30" transform="translate(431.494141 0.78125)"/>
     </g>
    </g>
    <g id="line2d_21">
     <path d="M 372.800913 156.825938 
L 382.800913 156.825938 
L 392.800913 156.825938 
" style="fill: none; stroke: #785ef0; stroke-width: 1.5; stroke-linecap: square"/>
    </g>
    <g id="text_18">
     <!-- $\alpha=0.00$ -->
     <g transform="translate(400.800913 160.325938) scale(0.1 -0.1)">
      <use xlink:href="#DejaVuSans-Oblique-3b1" transform="translate(0 0.78125)"/>
      <use xlink:href="#DejaVuSans-3d" transform="translate(85.400391 0.78125)"/>
      <use xlink:href="#DejaVuSans-30" transform="translate(188.671875 0.78125)"/>
      <use xlink:href="#DejaVuSans-2e" transform="translate(252.294922 0.78125)"/>
      <use xlink:href="#DejaVuSans-30" transform="translate(284.082031 0.78125)"/>
      <use xlink:href="#DejaVuSans-30" transform="translate(347.705078 0.78125)"/>
     </g>
    </g>
    <g id="line2d_22">
     <path d="M 372.800913 171.504062 
L 382.800913 171.504062 
L 392.800913 171.504062 
" style="fill: none; stroke: #dc267f; stroke-width: 1.5; stroke-linecap: square"/>
    </g>
    <g id="text_19">
     <!-- $\alpha=0.50$ -->
     <g transform="translate(400.800913 175.004062) scale(0.1 -0.1)">
      <use xlink:href="#DejaVuSans-Oblique-3b1" transform="translate(0 0.78125)"/>
      <use xlink:href="#DejaVuSans-3d" transform="translate(85.400391 0.78125)"/>
      <use xlink:href="#DejaVuSans-30" transform="translate(188.671875 0.78125)"/>
      <use xlink:href="#DejaVuSans-2e" transform="translate(252.294922 0.78125)"/>
      <use xlink:href="#DejaVuSans-35" transform="translate(284.082031 0.78125)"/>
      <use xlink:href="#DejaVuSans-30" transform="translate(347.705078 0.78125)"/>
     </g>
    </g>
    <g id="line2d_23">
     <path d="M 372.800913 186.182187 
L 382.800913 186.182187 
L 392.800913 186.182187 
" style="fill: none; stroke: #fe6100; stroke-width: 1.5; stroke-linecap: square"/>
    </g>
    <g id="text_20">
     <!-- $\alpha=1.00$ -->
     <g transform="translate(400.800913 189.682187) scale(0.1 -0.1)">
      <use xlink:href="#DejaVuSans-Oblique-3b1" transform="translate(0 0.78125)"/>
      <use xlink:href="#DejaVuSans-3d" transform="translate(85.400391 0.78125)"/>
      <use xlink:href="#DejaVuSans-31" transform="translate(188.671875 0.78125)"/>
      <use xlink:href="#DejaVuSans-2e" transform="translate(252.294922 0.78125)"/>
      <use xlink:href="#DejaVuSans-30" transform="translate(284.082031 0.78125)"/>
      <use xlink:href="#DejaVuSans-30" transform="translate(347.705078 0.78125)"/>
     </g>
    </g>
    <g id="line2d_24">
     <path d="M 372.800913 200.860312 
L 382.800913 200.860312 
L 392.800913 200.860312 
" style="fill: none; stroke: #ffb000; stroke-width: 1.5; stroke-linecap: square"/>
    </g>
    <g id="text_21">
     <!-- $\alpha=2.00$ -->
     <g transform="translate(400.800913 204.360312) scale(0.1 -0.1)">
      <use xlink:href="#DejaVuSans-Oblique-3b1" transform="translate(0 0.78125)"/>
      <use xlink:href="#DejaVuSans-3d" transform="translate(85.400391 0.78125)"/>
      <use xlink:href="#DejaVuSans-32" transform="translate(188.671875 0.78125)"/>
      <use xlink:href="#DejaVuSans-2e" transform="translate(252.294922 0.78125)"/>
      <use xlink:href="#DejaVuSans-30" transform="translate(284.082031 0.78125)"/>
      <use xlink:href="#DejaVuSans-30" transform="translate(347.705078 0.78125)"/>
     </g>
    </g>
   </g>
  </g>
  <g id="axes_2">
   <g id="patch_8">
    <path d="M 510.32 215.44 
L 922.000913 215.44 
L 922.000913 10.8 
L 510.32 10.8 
z
" style="fill: #ffffff"/>
   </g>
   <g id="matplotlib.axis_3">
    <g id="xtick_7">
     <g id="line2d_25">
      <g>
       <use xlink:href="#m11486beaca" x="529.032769" y="215.44" style="stroke: #000000; stroke-width: 0.8"/>
      </g>
     </g>
     <g id="text_22">
      <!-- 0 -->
      <g transform="translate(525.851519 230.038437) scale(0.1 -0.1)">
       <use xlink:href="#DejaVuSans-30"/>
      </g>
     </g>
    </g>
    <g id="xtick_8">
     <g id="line2d_26">
      <g>
       <use xlink:href="#m11486beaca" x="607.002639" y="215.44" style="stroke: #000000; stroke-width: 0.8"/>
      </g>
     </g>
     <g id="text_23">
      <!-- 5 -->
      <g transform="translate(603.821389 230.038437) scale(0.1 -0.1)">
       <use xlink:href="#DejaVuSans-35"/>
      </g>
     </g>
    </g>
    <g id="xtick_9">
     <g id="line2d_27">
      <g>
       <use xlink:href="#m11486beaca" x="684.972509" y="215.44" style="stroke: #000000; stroke-width: 0.8"/>
      </g>
     </g>
     <g id="text_24">
      <!-- 10 -->
      <g transform="translate(678.610009 230.038437) scale(0.1 -0.1)">
       <use xlink:href="#DejaVuSans-31"/>
       <use xlink:href="#DejaVuSans-30" transform="translate(63.623047 0)"/>
      </g>
     </g>
    </g>
    <g id="xtick_10">
     <g id="line2d_28">
      <g>
       <use xlink:href="#m11486beaca" x="762.942378" y="215.44" style="stroke: #000000; stroke-width: 0.8"/>
      </g>
     </g>
     <g id="text_25">
      <!-- 15 -->
      <g transform="translate(756.579878 230.038437) scale(0.1 -0.1)">
       <use xlink:href="#DejaVuSans-31"/>
       <use xlink:href="#DejaVuSans-35" transform="translate(63.623047 0)"/>
      </g>
     </g>
    </g>
    <g id="xtick_11">
     <g id="line2d_29">
      <g>
       <use xlink:href="#m11486beaca" x="840.912248" y="215.44" style="stroke: #000000; stroke-width: 0.8"/>
      </g>
     </g>
     <g id="text_26">
      <!-- 20 -->
      <g transform="translate(834.549748 230.038437) scale(0.1 -0.1)">
       <use xlink:href="#DejaVuSans-32"/>
       <use xlink:href="#DejaVuSans-30" transform="translate(63.623047 0)"/>
      </g>
     </g>
    </g>
    <g id="xtick_12">
     <g id="line2d_30">
      <g>
       <use xlink:href="#m11486beaca" x="918.882118" y="215.44" style="stroke: #000000; stroke-width: 0.8"/>
      </g>
     </g>
     <g id="text_27">
      <!-- 25 -->
      <g transform="translate(912.519618 230.038437) scale(0.1 -0.1)">
       <use xlink:href="#DejaVuSans-32"/>
       <use xlink:href="#DejaVuSans-35" transform="translate(63.623047 0)"/>
      </g>
     </g>
    </g>
    <g id="text_28">
     <!-- Номер слоя -->
     <g transform="translate(685.716707 243.716563) scale(0.1 -0.1)">
      <use xlink:href="#DejaVuSans-41d"/>
      <use xlink:href="#DejaVuSans-43e" transform="translate(75.195312 0)"/>
      <use xlink:href="#DejaVuSans-43c" transform="translate(136.376953 0)"/>
      <use xlink:href="#DejaVuSans-435" transform="translate(211.816406 0)"/>
      <use xlink:href="#DejaVuSans-440" transform="translate(273.339844 0)"/>
      <use xlink:href="#DejaVuSans-20" transform="translate(336.816406 0)"/>
      <use xlink:href="#DejaVuSans-441" transform="translate(368.603516 0)"/>
      <use xlink:href="#DejaVuSans-43b" transform="translate(423.583984 0)"/>
      <use xlink:href="#DejaVuSans-43e" transform="translate(487.5 0)"/>
      <use xlink:href="#DejaVuSans-44f" transform="translate(548.681641 0)"/>
     </g>
    </g>
   </g>
   <g id="matplotlib.axis_4">
    <g id="ytick_9">
     <g id="line2d_31">
      <g>
       <use xlink:href="#m8886c66ec6" x="510.32" y="206.138182" style="stroke: #000000; stroke-width: 0.8"/>
      </g>
     </g>
     <g id="text_29">
      <!-- 0.0 -->
      <g transform="translate(487.416875 209.937401) scale(0.1 -0.1)">
       <use xlink:href="#DejaVuSans-30"/>
       <use xlink:href="#DejaVuSans-2e" transform="translate(63.623047 0)"/>
       <use xlink:href="#DejaVuSans-30" transform="translate(95.410156 0)"/>
      </g>
     </g>
    </g>
    <g id="ytick_10">
     <g id="line2d_32">
      <g>
       <use xlink:href="#m8886c66ec6" x="510.32" y="179.577714" style="stroke: #000000; stroke-width: 0.8"/>
      </g>
     </g>
     <g id="text_30">
      <!-- 0.1 -->
      <g transform="translate(487.416875 183.376932) scale(0.1 -0.1)">
       <use xlink:href="#DejaVuSans-30"/>
       <use xlink:href="#DejaVuSans-2e" transform="translate(63.623047 0)"/>
       <use xlink:href="#DejaVuSans-31" transform="translate(95.410156 0)"/>
      </g>
     </g>
    </g>
    <g id="ytick_11">
     <g id="line2d_33">
      <g>
       <use xlink:href="#m8886c66ec6" x="510.32" y="153.017246" style="stroke: #000000; stroke-width: 0.8"/>
      </g>
     </g>
     <g id="text_31">
      <!-- 0.2 -->
      <g transform="translate(487.416875 156.816464) scale(0.1 -0.1)">
       <use xlink:href="#DejaVuSans-30"/>
       <use xlink:href="#DejaVuSans-2e" transform="translate(63.623047 0)"/>
       <use xlink:href="#DejaVuSans-32" transform="translate(95.410156 0)"/>
      </g>
     </g>
    </g>
    <g id="ytick_12">
     <g id="line2d_34">
      <g>
       <use xlink:href="#m8886c66ec6" x="510.32" y="126.456778" style="stroke: #000000; stroke-width: 0.8"/>
      </g>
     </g>
     <g id="text_32">
      <!-- 0.3 -->
      <g transform="translate(487.416875 130.255996) scale(0.1 -0.1)">
       <use xlink:href="#DejaVuSans-30"/>
       <use xlink:href="#DejaVuSans-2e" transform="translate(63.623047 0)"/>
       <use xlink:href="#DejaVuSans-33" transform="translate(95.410156 0)"/>
      </g>
     </g>
    </g>
    <g id="ytick_13">
     <g id="line2d_35">
      <g>
       <use xlink:href="#m8886c66ec6" x="510.32" y="99.896309" style="stroke: #000000; stroke-width: 0.8"/>
      </g>
     </g>
     <g id="text_33">
      <!-- 0.4 -->
      <g transform="translate(487.416875 103.695528) scale(0.1 -0.1)">
       <use xlink:href="#DejaVuSans-30"/>
       <use xlink:href="#DejaVuSans-2e" transform="translate(63.623047 0)"/>
       <use xlink:href="#DejaVuSans-34" transform="translate(95.410156 0)"/>
      </g>
     </g>
    </g>
    <g id="ytick_14">
     <g id="line2d_36">
      <g>
       <use xlink:href="#m8886c66ec6" x="510.32" y="73.335841" style="stroke: #000000; stroke-width: 0.8"/>
      </g>
     </g>
     <g id="text_34">
      <!-- 0.5 -->
      <g transform="translate(487.416875 77.13506) scale(0.1 -0.1)">
       <use xlink:href="#DejaVuSans-30"/>
       <use xlink:href="#DejaVuSans-2e" transform="translate(63.623047 0)"/>
       <use xlink:href="#DejaVuSans-35" transform="translate(95.410156 0)"/>
      </g>
     </g>
    </g>
    <g id="ytick_15">
     <g id="line2d_37">
      <g>
       <use xlink:href="#m8886c66ec6" x="510.32" y="46.775373" style="stroke: #000000; stroke-width: 0.8"/>
      </g>
     </g>
     <g id="text_35">
      <!-- 0.6 -->
      <g transform="translate(487.416875 50.574592) scale(0.1 -0.1)">
       <use xlink:href="#DejaVuSans-30"/>
       <use xlink:href="#DejaVuSans-2e" transform="translate(63.623047 0)"/>
       <use xlink:href="#DejaVuSans-36" transform="translate(95.410156 0)"/>
      </g>
     </g>
    </g>
    <g id="ytick_16">
     <g id="line2d_38">
      <g>
       <use xlink:href="#m8886c66ec6" x="510.32" y="20.214905" style="stroke: #000000; stroke-width: 0.8"/>
      </g>
     </g>
     <g id="text_36">
      <!-- 0.7 -->
      <g transform="translate(487.416875 24.014124) scale(0.1 -0.1)">
       <use xlink:href="#DejaVuSans-30"/>
       <use xlink:href="#DejaVuSans-2e" transform="translate(63.623047 0)"/>
       <use xlink:href="#DejaVuSans-37" transform="translate(95.410156 0)"/>
      </g>
     </g>
    </g>
    <g id="text_37">
     <!-- Межслойная устойчивость -->
     <g transform="translate(481.337187 183.946563) rotate(-90) scale(0.1 -0.1)">
      <use xlink:href="#DejaVuSans-41c"/>
      <use xlink:href="#DejaVuSans-435" transform="translate(86.279297 0)"/>
      <use xlink:href="#DejaVuSans-436" transform="translate(147.802734 0)"/>
      <use xlink:href="#DejaVuSans-441" transform="translate(237.890625 0)"/>
      <use xlink:href="#DejaVuSans-43b" transform="translate(292.871094 0)"/>
      <use xlink:href="#DejaVuSans-43e" transform="translate(356.787109 0)"/>
      <use xlink:href="#DejaVuSans-439" transform="translate(417.96875 0)"/>
      <use xlink:href="#DejaVuSans-43d" transform="translate(482.958984 0)"/>
      <use xlink:href="#DejaVuSans-430" transform="translate(548.339844 0)"/>
      <use xlink:href="#DejaVuSans-44f" transform="translate(609.619141 0)"/>
      <use xlink:href="#DejaVuSans-20" transform="translate(669.775391 0)"/>
      <use xlink:href="#DejaVuSans-443" transform="translate(701.5625 0)"/>
      <use xlink:href="#DejaVuSans-441" transform="translate(760.742188 0)"/>
      <use xlink:href="#DejaVuSans-442" transform="translate(815.722656 0)"/>
      <use xlink:href="#DejaVuSans-43e" transform="translate(873.974609 0)"/>
      <use xlink:href="#DejaVuSans-439" transform="translate(935.15625 0)"/>
      <use xlink:href="#DejaVuSans-447" transform="translate(1000.146484 0)"/>
      <use xlink:href="#DejaVuSans-438" transform="translate(1059.228516 0)"/>
      <use xlink:href="#DejaVuSans-432" transform="translate(1124.21875 0)"/>
      <use xlink:href="#DejaVuSans-43e" transform="translate(1183.154297 0)"/>
      <use xlink:href="#DejaVuSans-441" transform="translate(1244.335938 0)"/>
      <use xlink:href="#DejaVuSans-442" transform="translate(1299.316406 0)"/>
      <use xlink:href="#DejaVuSans-44c" transform="translate(1357.568359 0)"/>
     </g>
    </g>
   </g>
   <g id="line2d_39">
    <path d="M 529.032769 206.138182 
L 544.626743 205.568473 
L 560.220717 200.744267 
L 575.814691 196.904773 
L 591.408665 200.140999 
L 607.002639 203.391514 
L 622.596613 197.323994 
L 638.190587 179.17954 
L 653.784561 162.182867 
L 669.378535 147.536319 
L 684.972509 121.151264 
L 700.566483 105.466067 
L 716.160457 100.78966 
L 731.754431 87.487033 
L 747.348404 71.204833 
L 762.942378 59.731238 
L 778.536352 54.327913 
L 794.130326 52.140165 
L 809.7243 48.944592 
L 825.318274 43.452764 
L 840.912248 40.35659 
L 856.506222 28.895567 
L 872.100196 22.585634 
L 887.69417 20.101818 
L 903.288144 28.042237 
" clip-path="url(#p3f17b274b9)" style="fill: none; stroke: #648fff; stroke-width: 1.5; stroke-linecap: square"/>
   </g>
   <g id="line2d_40">
    <path d="M 529.032769 206.138182 
L 544.626743 195.399904 
L 560.220717 194.383773 
L 575.814691 193.480863 
L 591.408665 194.139743 
L 607.002639 194.858545 
L 622.596613 193.080209 
L 638.190587 186.881089 
L 653.784561 179.350098 
L 669.378535 168.897957 
L 684.972509 152.155053 
L 700.566483 144.972828 
L 716.160457 137.309087 
L 731.754431 123.561815 
L 747.348404 117.032631 
L 762.942378 113.746798 
L 778.536352 112.034528 
L 794.130326 110.197511 
L 809.7243 109.541592 
L 825.318274 110.199412 
L 840.912248 112.959993 
L 856.506222 111.102746 
L 872.100196 111.437486 
L 887.69417 112.323183 
L 903.288144 112.323183 
" clip-path="url(#p3f17b274b9)" style="fill: none; stroke: #785ef0; stroke-width: 1.5; stroke-linecap: square"/>
   </g>
   <g id="line2d_41">
    <path d="M 529.032769 206.138182 
L 544.626743 206.09931 
L 560.220717 205.750051 
L 575.814691 205.413232 
L 591.408665 205.627978 
L 607.002639 205.882666 
L 622.596613 205.043122 
L 638.190587 201.543786 
L 653.784561 196.087885 
L 669.378535 186.664163 
L 684.972509 171.435072 
L 700.566483 166.041315 
L 716.160457 158.809865 
L 731.754431 145.837141 
L 747.348404 142.856069 
L 762.942378 143.205261 
L 778.536352 144.307562 
L 794.130326 144.605929 
L 809.7243 146.03937 
L 825.318274 148.796932 
L 840.912248 152.690663 
L 856.506222 152.555185 
L 872.100196 152.66276 
L 887.69417 151.886409 
L 903.288144 148.985976 
" clip-path="url(#p3f17b274b9)" style="fill: none; stroke: #dc267f; stroke-width: 1.5; stroke-linecap: square"/>
   </g>
   <g id="line2d_42">
    <path d="M 529.032769 206.138182 
L 544.626743 206.126738 
L 560.220717 206.025768 
L 575.814691 205.921604 
L 591.408665 205.979333 
L 607.002639 206.053339 
L 622.596613 205.688427 
L 638.190587 203.711174 
L 653.784561 199.578885 
L 669.378535 191.077462 
L 684.972509 176.916159 
L 700.566483 172.711328 
L 716.160457 166.713712 
L 731.754431 155.599512 
L 747.348404 155.693206 
L 762.942378 159.01183 
L 778.536352 162.511732 
L 794.130326 164.724822 
L 809.7243 167.418392 
L 825.318274 170.652011 
L 840.912248 173.959648 
L 856.506222 173.863751 
L 872.100196 173.086302 
L 887.69417 171.267679 
L 903.288144 167.893865 
" clip-path="url(#p3f17b274b9)" style="fill: none; stroke: #fe6100; stroke-width: 1.5; stroke-linecap: square"/>
   </g>
   <g id="line2d_43">
    <path d="M 529.032769 206.138182 
L 544.626743 206.137297 
L 560.220717 206.130327 
L 575.814691 206.122421 
L 591.408665 206.125703 
L 607.002639 206.129875 
L 622.596613 206.042534 
L 638.190587 205.1661 
L 653.784561 202.144707 
L 669.378535 194.351492 
L 684.972509 180.617206 
L 700.566483 177.49986 
L 716.160457 173.839063 
L 731.754431 166.641724 
L 747.348404 171.351987 
L 762.942378 178.357581 
L 778.536352 184.25948 
L 794.130326 187.959054 
L 809.7243 190.752815 
L 825.318274 192.802183 
L 840.912248 194.089982 
L 856.506222 193.380067 
L 872.100196 192.022462 
L 887.69417 190.212195 
L 903.288144 187.876731 
" clip-path="url(#p3f17b274b9)" style="fill: none; stroke: #ffb000; stroke-width: 1.5; stroke-linecap: square"/>
   </g>
   <g id="patch_9">
    <path d="M 510.32 215.44 
L 510.32 10.8 
" style="fill: none; stroke: #000000; stroke-width: 0.8; stroke-linejoin: miter; stroke-linecap: square"/>
   </g>
   <g id="patch_10">
    <path d="M 922.000913 215.44 
L 922.000913 10.8 
" style="fill: none; stroke: #000000; stroke-width: 0.8; stroke-linejoin: miter; stroke-linecap: square"/>
   </g>
   <g id="patch_11">
    <path d="M 510.32 215.44 
L 922.000913 215.44 
" style="fill: none; stroke: #000000; stroke-width: 0.8; stroke-linejoin: miter; stroke-linecap: square"/>
   </g>
   <g id="patch_12">
    <path d="M 510.32 10.8 
L 922.000913 10.8 
" style="fill: none; stroke: #000000; stroke-width: 0.8; stroke-linejoin: miter; stroke-linecap: square"/>
   </g>
   <g id="legend_2">
    <g id="patch_13">
     <path d="M 517.32 92.190625 
L 598.92 92.190625 
Q 600.92 92.190625 600.92 90.190625 
L 600.92 17.8 
Q 600.92 15.8 598.92 15.8 
L 517.32 15.8 
Q 515.32 15.8 515.32 17.8 
L 515.32 90.190625 
Q 515.32 92.190625 517.32 92.190625 
z
" style="fill: #ffffff; opacity: 0.8; stroke: #cccccc; stroke-linejoin: miter"/>
    </g>
    <g id="line2d_44">
     <path d="M 519.32 23.898438 
L 529.32 23.898438 
L 539.32 23.898438 
" style="fill: none; stroke: #648fff; stroke-width: 1.5; stroke-linecap: square"/>
    </g>
    <g id="text_38">
     <!-- $\alpha=-1.00$ -->
     <g transform="translate(547.32 27.398438) scale(0.1 -0.1)">
      <use xlink:href="#DejaVuSans-Oblique-3b1" transform="translate(0 0.78125)"/>
      <use xlink:href="#DejaVuSans-3d" transform="translate(85.400391 0.78125)"/>
      <use xlink:href="#DejaVuSans-2212" transform="translate(188.671875 0.78125)"/>
      <use xlink:href="#DejaVuSans-31" transform="translate(272.460938 0.78125)"/>
      <use xlink:href="#DejaVuSans-2e" transform="translate(336.083984 0.78125)"/>
      <use xlink:href="#DejaVuSans-30" transform="translate(367.871094 0.78125)"/>
      <use xlink:href="#DejaVuSans-30" transform="translate(431.494141 0.78125)"/>
     </g>
    </g>
    <g id="line2d_45">
     <path d="M 519.32 38.576563 
L 529.32 38.576563 
L 539.32 38.576563 
" style="fill: none; stroke: #785ef0; stroke-width: 1.5; stroke-linecap: square"/>
    </g>
    <g id="text_39">
     <!-- $\alpha=0.00$ -->
     <g transform="translate(547.32 42.076563) scale(0.1 -0.1)">
      <use xlink:href="#DejaVuSans-Oblique-3b1" transform="translate(0 0.78125)"/>
      <use xlink:href="#DejaVuSans-3d" transform="translate(85.400391 0.78125)"/>
      <use xlink:href="#DejaVuSans-30" transform="translate(188.671875 0.78125)"/>
      <use xlink:href="#DejaVuSans-2e" transform="translate(252.294922 0.78125)"/>
      <use xlink:href="#DejaVuSans-30" transform="translate(284.082031 0.78125)"/>
      <use xlink:href="#DejaVuSans-30" transform="translate(347.705078 0.78125)"/>
     </g>
    </g>
    <g id="line2d_46">
     <path d="M 519.32 53.254687 
L 529.32 53.254687 
L 539.32 53.254687 
" style="fill: none; stroke: #dc267f; stroke-width: 1.5; stroke-linecap: square"/>
    </g>
    <g id="text_40">
     <!-- $\alpha=0.50$ -->
     <g transform="translate(547.32 56.754687) scale(0.1 -0.1)">
      <use xlink:href="#DejaVuSans-Oblique-3b1" transform="translate(0 0.78125)"/>
      <use xlink:href="#DejaVuSans-3d" transform="translate(85.400391 0.78125)"/>
      <use xlink:href="#DejaVuSans-30" transform="translate(188.671875 0.78125)"/>
      <use xlink:href="#DejaVuSans-2e" transform="translate(252.294922 0.78125)"/>
      <use xlink:href="#DejaVuSans-35" transform="translate(284.082031 0.78125)"/>
      <use xlink:href="#DejaVuSans-30" transform="translate(347.705078 0.78125)"/>
     </g>
    </g>
    <g id="line2d_47">
     <path d="M 519.32 67.932813 
L 529.32 67.932813 
L 539.32 67.932813 
" style="fill: none; stroke: #fe6100; stroke-width: 1.5; stroke-linecap: square"/>
    </g>
    <g id="text_41">
     <!-- $\alpha=1.00$ -->
     <g transform="translate(547.32 71.432813) scale(0.1 -0.1)">
      <use xlink:href="#DejaVuSans-Oblique-3b1" transform="translate(0 0.78125)"/>
      <use xlink:href="#DejaVuSans-3d" transform="translate(85.400391 0.78125)"/>
      <use xlink:href="#DejaVuSans-31" transform="translate(188.671875 0.78125)"/>
      <use xlink:href="#DejaVuSans-2e" transform="translate(252.294922 0.78125)"/>
      <use xlink:href="#DejaVuSans-30" transform="translate(284.082031 0.78125)"/>
      <use xlink:href="#DejaVuSans-30" transform="translate(347.705078 0.78125)"/>
     </g>
    </g>
    <g id="line2d_48">
     <path d="M 519.32 82.610937 
L 529.32 82.610937 
L 539.32 82.610937 
" style="fill: none; stroke: #ffb000; stroke-width: 1.5; stroke-linecap: square"/>
    </g>
    <g id="text_42">
     <!-- $\alpha=2.00$ -->
     <g transform="translate(547.32 86.110937) scale(0.1 -0.1)">
      <use xlink:href="#DejaVuSans-Oblique-3b1" transform="translate(0 0.78125)"/>
      <use xlink:href="#DejaVuSans-3d" transform="translate(85.400391 0.78125)"/>
      <use xlink:href="#DejaVuSans-32" transform="translate(188.671875 0.78125)"/>
      <use xlink:href="#DejaVuSans-2e" transform="translate(252.294922 0.78125)"/>
      <use xlink:href="#DejaVuSans-30" transform="translate(284.082031 0.78125)"/>
      <use xlink:href="#DejaVuSans-30" transform="translate(347.705078 0.78125)"/>
     </g>
    </g>
   </g>
  </g>
  <g id="axes_3">
   <g id="patch_14">
    <path d="M 47.72 462.04 
L 459.400913 462.04 
L 459.400913 257.4 
L 47.72 257.4 
z
" style="fill: #ffffff"/>
   </g>
   <g id="matplotlib.axis_5">
    <g id="xtick_13">
     <g id="line2d_49">
      <g>
       <use xlink:href="#m11486beaca" x="66.432769" y="462.04" style="stroke: #000000; stroke-width: 0.8"/>
      </g>
     </g>
     <g id="text_43">
      <!-- 0 -->
      <g transform="translate(63.251519 476.638438) scale(0.1 -0.1)">
       <use xlink:href="#DejaVuSans-30"/>
      </g>
     </g>
    </g>
    <g id="xtick_14">
     <g id="line2d_50">
      <g>
       <use xlink:href="#m11486beaca" x="144.402639" y="462.04" style="stroke: #000000; stroke-width: 0.8"/>
      </g>
     </g>
     <g id="text_44">
      <!-- 5 -->
      <g transform="translate(141.221389 476.638438) scale(0.1 -0.1)">
       <use xlink:href="#DejaVuSans-35"/>
      </g>
     </g>
    </g>
    <g id="xtick_15">
     <g id="line2d_51">
      <g>
       <use xlink:href="#m11486beaca" x="222.372509" y="462.04" style="stroke: #000000; stroke-width: 0.8"/>
      </g>
     </g>
     <g id="text_45">
      <!-- 10 -->
      <g transform="translate(216.010009 476.638438) scale(0.1 -0.1)">
       <use xlink:href="#DejaVuSans-31"/>
       <use xlink:href="#DejaVuSans-30" transform="translate(63.623047 0)"/>
      </g>
     </g>
    </g>
    <g id="xtick_16">
     <g id="line2d_52">
      <g>
       <use xlink:href="#m11486beaca" x="300.342378" y="462.04" style="stroke: #000000; stroke-width: 0.8"/>
      </g>
     </g>
     <g id="text_46">
      <!-- 15 -->
      <g transform="translate(293.979878 476.638438) scale(0.1 -0.1)">
       <use xlink:href="#DejaVuSans-31"/>
       <use xlink:href="#DejaVuSans-35" transform="translate(63.623047 0)"/>
      </g>
     </g>
    </g>
    <g id="xtick_17">
     <g id="line2d_53">
      <g>
       <use xlink:href="#m11486beaca" x="378.312248" y="462.04" style="stroke: #000000; stroke-width: 0.8"/>
      </g>
     </g>
     <g id="text_47">
      <!-- 20 -->
      <g transform="translate(371.949748 476.638438) scale(0.1 -0.1)">
       <use xlink:href="#DejaVuSans-32"/>
       <use xlink:href="#DejaVuSans-30" transform="translate(63.623047 0)"/>
      </g>
     </g>
    </g>
    <g id="xtick_18">
     <g id="line2d_54">
      <g>
       <use xlink:href="#m11486beaca" x="456.282118" y="462.04" style="stroke: #000000; stroke-width: 0.8"/>
      </g>
     </g>
     <g id="text_48">
      <!-- 25 -->
      <g transform="translate(449.919618 476.638438) scale(0.1 -0.1)">
       <use xlink:href="#DejaVuSans-32"/>
       <use xlink:href="#DejaVuSans-35" transform="translate(63.623047 0)"/>
      </g>
     </g>
    </g>
    <g id="text_49">
     <!-- Номер слоя -->
     <g transform="translate(223.116707 490.316563) scale(0.1 -0.1)">
      <use xlink:href="#DejaVuSans-41d"/>
      <use xlink:href="#DejaVuSans-43e" transform="translate(75.195312 0)"/>
      <use xlink:href="#DejaVuSans-43c" transform="translate(136.376953 0)"/>
      <use xlink:href="#DejaVuSans-435" transform="translate(211.816406 0)"/>
      <use xlink:href="#DejaVuSans-440" transform="translate(273.339844 0)"/>
      <use xlink:href="#DejaVuSans-20" transform="translate(336.816406 0)"/>
      <use xlink:href="#DejaVuSans-441" transform="translate(368.603516 0)"/>
      <use xlink:href="#DejaVuSans-43b" transform="translate(423.583984 0)"/>
      <use xlink:href="#DejaVuSans-43e" transform="translate(487.5 0)"/>
      <use xlink:href="#DejaVuSans-44f" transform="translate(548.681641 0)"/>
     </g>
    </g>
   </g>
   <g id="matplotlib.axis_6">
    <g id="ytick_17">
     <g id="line2d_55">
      <g>
       <use xlink:href="#m8886c66ec6" x="47.72" y="452.738182" style="stroke: #000000; stroke-width: 0.8"/>
      </g>
     </g>
     <g id="text_50">
      <!-- 0.0 -->
      <g transform="translate(24.816875 456.537401) scale(0.1 -0.1)">
       <use xlink:href="#DejaVuSans-30"/>
       <use xlink:href="#DejaVuSans-2e" transform="translate(63.623047 0)"/>
       <use xlink:href="#DejaVuSans-30" transform="translate(95.410156 0)"/>
      </g>
     </g>
    </g>
    <g id="ytick_18">
     <g id="line2d_56">
      <g>
       <use xlink:href="#m8886c66ec6" x="47.72" y="417.508167" style="stroke: #000000; stroke-width: 0.8"/>
      </g>
     </g>
     <g id="text_51">
      <!-- 0.1 -->
      <g transform="translate(24.816875 421.307385) scale(0.1 -0.1)">
       <use xlink:href="#DejaVuSans-30"/>
       <use xlink:href="#DejaVuSans-2e" transform="translate(63.623047 0)"/>
       <use xlink:href="#DejaVuSans-31" transform="translate(95.410156 0)"/>
      </g>
     </g>
    </g>
    <g id="ytick_19">
     <g id="line2d_57">
      <g>
       <use xlink:href="#m8886c66ec6" x="47.72" y="382.278152" style="stroke: #000000; stroke-width: 0.8"/>
      </g>
     </g>
     <g id="text_52">
      <!-- 0.2 -->
      <g transform="translate(24.816875 386.07737) scale(0.1 -0.1)">
       <use xlink:href="#DejaVuSans-30"/>
       <use xlink:href="#DejaVuSans-2e" transform="translate(63.623047 0)"/>
       <use xlink:href="#DejaVuSans-32" transform="translate(95.410156 0)"/>
      </g>
     </g>
    </g>
    <g id="ytick_20">
     <g id="line2d_58">
      <g>
       <use xlink:href="#m8886c66ec6" x="47.72" y="347.048137" style="stroke: #000000; stroke-width: 0.8"/>
      </g>
     </g>
     <g id="text_53">
      <!-- 0.3 -->
      <g transform="translate(24.816875 350.847355) scale(0.1 -0.1)">
       <use xlink:href="#DejaVuSans-30"/>
       <use xlink:href="#DejaVuSans-2e" transform="translate(63.623047 0)"/>
       <use xlink:href="#DejaVuSans-33" transform="translate(95.410156 0)"/>
      </g>
     </g>
    </g>
    <g id="ytick_21">
     <g id="line2d_59">
      <g>
       <use xlink:href="#m8886c66ec6" x="47.72" y="311.818121" style="stroke: #000000; stroke-width: 0.8"/>
      </g>
     </g>
     <g id="text_54">
      <!-- 0.4 -->
      <g transform="translate(24.816875 315.61734) scale(0.1 -0.1)">
       <use xlink:href="#DejaVuSans-30"/>
       <use xlink:href="#DejaVuSans-2e" transform="translate(63.623047 0)"/>
       <use xlink:href="#DejaVuSans-34" transform="translate(95.410156 0)"/>
      </g>
     </g>
    </g>
    <g id="ytick_22">
     <g id="line2d_60">
      <g>
       <use xlink:href="#m8886c66ec6" x="47.72" y="276.588106" style="stroke: #000000; stroke-width: 0.8"/>
      </g>
     </g>
     <g id="text_55">
      <!-- 0.5 -->
      <g transform="translate(24.816875 280.387325) scale(0.1 -0.1)">
       <use xlink:href="#DejaVuSans-30"/>
       <use xlink:href="#DejaVuSans-2e" transform="translate(63.623047 0)"/>
       <use xlink:href="#DejaVuSans-35" transform="translate(95.410156 0)"/>
      </g>
     </g>
    </g>
    <g id="text_56">
     <!-- Межслойная устойчивость -->
     <g transform="translate(18.737187 430.546563) rotate(-90) scale(0.1 -0.1)">
      <use xlink:href="#DejaVuSans-41c"/>
      <use xlink:href="#DejaVuSans-435" transform="translate(86.279297 0)"/>
      <use xlink:href="#DejaVuSans-436" transform="translate(147.802734 0)"/>
      <use xlink:href="#DejaVuSans-441" transform="translate(237.890625 0)"/>
      <use xlink:href="#DejaVuSans-43b" transform="translate(292.871094 0)"/>
      <use xlink:href="#DejaVuSans-43e" transform="translate(356.787109 0)"/>
      <use xlink:href="#DejaVuSans-439" transform="translate(417.96875 0)"/>
      <use xlink:href="#DejaVuSans-43d" transform="translate(482.958984 0)"/>
      <use xlink:href="#DejaVuSans-430" transform="translate(548.339844 0)"/>
      <use xlink:href="#DejaVuSans-44f" transform="translate(609.619141 0)"/>
      <use xlink:href="#DejaVuSans-20" transform="translate(669.775391 0)"/>
      <use xlink:href="#DejaVuSans-443" transform="translate(701.5625 0)"/>
      <use xlink:href="#DejaVuSans-441" transform="translate(760.742188 0)"/>
      <use xlink:href="#DejaVuSans-442" transform="translate(815.722656 0)"/>
      <use xlink:href="#DejaVuSans-43e" transform="translate(873.974609 0)"/>
      <use xlink:href="#DejaVuSans-439" transform="translate(935.15625 0)"/>
      <use xlink:href="#DejaVuSans-447" transform="translate(1000.146484 0)"/>
      <use xlink:href="#DejaVuSans-438" transform="translate(1059.228516 0)"/>
      <use xlink:href="#DejaVuSans-432" transform="translate(1124.21875 0)"/>
      <use xlink:href="#DejaVuSans-43e" transform="translate(1183.154297 0)"/>
      <use xlink:href="#DejaVuSans-441" transform="translate(1244.335938 0)"/>
      <use xlink:href="#DejaVuSans-442" transform="translate(1299.316406 0)"/>
      <use xlink:href="#DejaVuSans-44c" transform="translate(1357.568359 0)"/>
     </g>
    </g>
   </g>
   <g id="line2d_61">
    <path d="M 66.432769 452.738182 
L 82.026743 452.738182 
L 97.620717 452.738182 
L 113.214691 452.738182 
L 128.808665 452.738182 
L 144.402639 452.738182 
L 159.996613 452.738182 
L 175.590587 452.738182 
L 191.184561 452.738182 
L 206.778535 452.738182 
L 222.372509 431.362581 
L 237.966483 424.32693 
L 253.560457 410.165321 
L 269.154431 418.013319 
L 284.748404 310.234174 
L 300.342378 381.099812 
L 315.936352 399.784629 
L 331.530326 408.937259 
L 347.1243 334.220521 
L 362.718274 362.111598 
L 378.312248 452.738182 
L 393.906222 374.144775 
L 409.500196 283.063348 
L 425.09417 266.701818 
L 440.688144 281.686602 
" clip-path="url(#p19e7f9d924)" style="fill: none; stroke: #648fff; stroke-width: 1.5; stroke-linecap: square"/>
   </g>
   <g id="line2d_62">
    <path d="M 66.432769 452.738182 
L 82.026743 438.646176 
L 97.620717 438.646176 
L 113.214691 438.646176 
L 128.808665 438.646176 
L 144.402639 438.646176 
L 159.996613 452.738182 
L 175.590587 438.646176 
L 191.184561 452.738182 
L 206.778535 438.646176 
L 222.372509 431.600173 
L 237.966483 431.600173 
L 253.560457 424.55417 
L 269.154431 424.55417 
L 284.748404 396.370158 
L 300.342378 417.508167 
L 315.936352 417.508167 
L 331.530326 424.55417 
L 347.1243 410.462164 
L 362.718274 410.462164 
L 378.312248 452.738182 
L 393.906222 410.462164 
L 409.500196 396.370158 
L 425.09417 396.370158 
L 440.688144 396.370158 
" clip-path="url(#p19e7f9d924)" style="fill: none; stroke: #785ef0; stroke-width: 1.5; stroke-linecap: square"/>
   </g>
   <g id="line2d_63">
    <path d="M 66.432769 452.738182 
L 82.026743 452.738182 
L 97.620717 452.738182 
L 113.214691 452.738182 
L 128.808665 452.738182 
L 144.402639 452.738182 
L 159.996613 452.738182 
L 175.590587 452.738182 
L 191.184561 452.738182 
L 206.778535 452.738182 
L 222.372509 449.138186 
L 237.966483 449.734231 
L 253.560457 445.468466 
L 269.154431 444.434731 
L 284.748404 432.373527 
L 300.342378 442.676919 
L 315.936352 440.720701 
L 331.530326 445.886808 
L 347.1243 441.671178 
L 362.718274 439.768108 
L 378.312248 452.738182 
L 393.906222 438.904497 
L 409.500196 436.340421 
L 425.09417 437.063052 
L 440.688144 434.622579 
" clip-path="url(#p19e7f9d924)" style="fill: none; stroke: #dc267f; stroke-width: 1.5; stroke-linecap: square"/>
   </g>
   <g id="line2d_64">
    <path d="M 66.432769 452.738182 
L 82.026743 452.738182 
L 97.620717 452.738182 
L 113.214691 452.738182 
L 128.808665 452.738182 
L 144.402639 452.738182 
L 159.996613 452.738182 
L 175.590587 452.738182 
L 191.184561 452.738182 
L 206.778535 452.738182 
L 222.372509 451.086775 
L 237.966483 451.616207 
L 253.560457 449.35068 
L 269.154431 448.250282 
L 284.748404 443.930678 
L 300.342378 448.467877 
L 315.936352 446.593412 
L 331.530326 449.818567 
L 347.1243 449.068389 
L 362.718274 447.58257 
L 378.312248 452.738182 
L 393.906222 446.792188 
L 409.500196 447.233492 
L 425.09417 447.650815 
L 440.688144 445.692179 
" clip-path="url(#p19e7f9d924)" style="fill: none; stroke: #fe6100; stroke-width: 1.5; stroke-linecap: square"/>
   </g>
   <g id="line2d_65">
    <path d="M 66.432769 452.738182 
L 82.026743 452.738182 
L 97.620717 452.738182 
L 113.214691 452.738182 
L 128.808665 452.738182 
L 144.402639 452.738182 
L 159.996613 452.738182 
L 175.590587 452.738182 
L 191.184561 452.738182 
L 206.778535 452.738182 
L 222.372509 452.423628 
L 237.966483 452.605238 
L 253.560457 452.060682 
L 269.154431 451.497376 
L 284.748404 451.228324 
L 300.342378 452.045132 
L 315.936352 451.287534 
L 331.530326 452.280649 
L 347.1243 452.417909 
L 362.718274 452.040558 
L 378.312248 452.738182 
L 393.906222 451.749269 
L 409.500196 452.181918 
L 425.09417 452.249442 
L 440.688144 451.73161 
" clip-path="url(#p19e7f9d924)" style="fill: none; stroke: #ffb000; stroke-width: 1.5; stroke-linecap: square"/>
   </g>
   <g id="patch_15">
    <path d="M 47.72 462.04 
L 47.72 257.4 
" style="fill: none; stroke: #000000; stroke-width: 0.8; stroke-linejoin: miter; stroke-linecap: square"/>
   </g>
   <g id="patch_16">
    <path d="M 459.400913 462.04 
L 459.400913 257.4 
" style="fill: none; stroke: #000000; stroke-width: 0.8; stroke-linejoin: miter; stroke-linecap: square"/>
   </g>
   <g id="patch_17">
    <path d="M 47.72 462.04 
L 459.400913 462.04 
" style="fill: none; stroke: #000000; stroke-width: 0.8; stroke-linejoin: miter; stroke-linecap: square"/>
   </g>
   <g id="patch_18">
    <path d="M 47.72 257.4 
L 459.400913 257.4 
" style="fill: none; stroke: #000000; stroke-width: 0.8; stroke-linejoin: miter; stroke-linecap: square"/>
   </g>
   <g id="legend_3">
    <g id="patch_19">
     <path d="M 54.72 338.790625 
L 136.32 338.790625 
Q 138.32 338.790625 138.32 336.790625 
L 138.32 264.4 
Q 138.32 262.4 136.32 262.4 
L 54.72 262.4 
Q 52.72 262.4 52.72 264.4 
L 52.72 336.790625 
Q 52.72 338.790625 54.72 338.790625 
z
" style="fill: #ffffff; opacity: 0.8; stroke: #cccccc; stroke-linejoin: miter"/>
    </g>
    <g id="line2d_66">
     <path d="M 56.72 270.498438 
L 66.72 270.498438 
L 76.72 270.498438 
" style="fill: none; stroke: #648fff; stroke-width: 1.5; stroke-linecap: square"/>
    </g>
    <g id="text_57">
     <!-- $\alpha=-1.00$ -->
     <g transform="translate(84.72 273.998438) scale(0.1 -0.1)">
      <use xlink:href="#DejaVuSans-Oblique-3b1" transform="translate(0 0.78125)"/>
      <use xlink:href="#DejaVuSans-3d" transform="translate(85.400391 0.78125)"/>
      <use xlink:href="#DejaVuSans-2212" transform="translate(188.671875 0.78125)"/>
      <use xlink:href="#DejaVuSans-31" transform="translate(272.460938 0.78125)"/>
      <use xlink:href="#DejaVuSans-2e" transform="translate(336.083984 0.78125)"/>
      <use xlink:href="#DejaVuSans-30" transform="translate(367.871094 0.78125)"/>
      <use xlink:href="#DejaVuSans-30" transform="translate(431.494141 0.78125)"/>
     </g>
    </g>
    <g id="line2d_67">
     <path d="M 56.72 285.176563 
L 66.72 285.176563 
L 76.72 285.176563 
" style="fill: none; stroke: #785ef0; stroke-width: 1.5; stroke-linecap: square"/>
    </g>
    <g id="text_58">
     <!-- $\alpha=0.00$ -->
     <g transform="translate(84.72 288.676563) scale(0.1 -0.1)">
      <use xlink:href="#DejaVuSans-Oblique-3b1" transform="translate(0 0.78125)"/>
      <use xlink:href="#DejaVuSans-3d" transform="translate(85.400391 0.78125)"/>
      <use xlink:href="#DejaVuSans-30" transform="translate(188.671875 0.78125)"/>
      <use xlink:href="#DejaVuSans-2e" transform="translate(252.294922 0.78125)"/>
      <use xlink:href="#DejaVuSans-30" transform="translate(284.082031 0.78125)"/>
      <use xlink:href="#DejaVuSans-30" transform="translate(347.705078 0.78125)"/>
     </g>
    </g>
    <g id="line2d_68">
     <path d="M 56.72 299.854688 
L 66.72 299.854688 
L 76.72 299.854688 
" style="fill: none; stroke: #dc267f; stroke-width: 1.5; stroke-linecap: square"/>
    </g>
    <g id="text_59">
     <!-- $\alpha=0.50$ -->
     <g transform="translate(84.72 303.354688) scale(0.1 -0.1)">
      <use xlink:href="#DejaVuSans-Oblique-3b1" transform="translate(0 0.78125)"/>
      <use xlink:href="#DejaVuSans-3d" transform="translate(85.400391 0.78125)"/>
      <use xlink:href="#DejaVuSans-30" transform="translate(188.671875 0.78125)"/>
      <use xlink:href="#DejaVuSans-2e" transform="translate(252.294922 0.78125)"/>
      <use xlink:href="#DejaVuSans-35" transform="translate(284.082031 0.78125)"/>
      <use xlink:href="#DejaVuSans-30" transform="translate(347.705078 0.78125)"/>
     </g>
    </g>
    <g id="line2d_69">
     <path d="M 56.72 314.532813 
L 66.72 314.532813 
L 76.72 314.532813 
" style="fill: none; stroke: #fe6100; stroke-width: 1.5; stroke-linecap: square"/>
    </g>
    <g id="text_60">
     <!-- $\alpha=1.00$ -->
     <g transform="translate(84.72 318.032813) scale(0.1 -0.1)">
      <use xlink:href="#DejaVuSans-Oblique-3b1" transform="translate(0 0.78125)"/>
      <use xlink:href="#DejaVuSans-3d" transform="translate(85.400391 0.78125)"/>
      <use xlink:href="#DejaVuSans-31" transform="translate(188.671875 0.78125)"/>
      <use xlink:href="#DejaVuSans-2e" transform="translate(252.294922 0.78125)"/>
      <use xlink:href="#DejaVuSans-30" transform="translate(284.082031 0.78125)"/>
      <use xlink:href="#DejaVuSans-30" transform="translate(347.705078 0.78125)"/>
     </g>
    </g>
    <g id="line2d_70">
     <path d="M 56.72 329.210938 
L 66.72 329.210938 
L 76.72 329.210938 
" style="fill: none; stroke: #ffb000; stroke-width: 1.5; stroke-linecap: square"/>
    </g>
    <g id="text_61">
     <!-- $\alpha=2.00$ -->
     <g transform="translate(84.72 332.710938) scale(0.1 -0.1)">
      <use xlink:href="#DejaVuSans-Oblique-3b1" transform="translate(0 0.78125)"/>
      <use xlink:href="#DejaVuSans-3d" transform="translate(85.400391 0.78125)"/>
      <use xlink:href="#DejaVuSans-32" transform="translate(188.671875 0.78125)"/>
      <use xlink:href="#DejaVuSans-2e" transform="translate(252.294922 0.78125)"/>
      <use xlink:href="#DejaVuSans-30" transform="translate(284.082031 0.78125)"/>
      <use xlink:href="#DejaVuSans-30" transform="translate(347.705078 0.78125)"/>
     </g>
    </g>
   </g>
  </g>
  <g id="axes_4">
   <g id="patch_20">
    <path d="M 510.32 462.04 
L 922.000913 462.04 
L 922.000913 257.4 
L 510.32 257.4 
z
" style="fill: #ffffff"/>
   </g>
   <g id="matplotlib.axis_7">
    <g id="xtick_19">
     <g id="line2d_71">
      <g>
       <use xlink:href="#m11486beaca" x="529.032769" y="462.04" style="stroke: #000000; stroke-width: 0.8"/>
      </g>
     </g>
     <g id="text_62">
      <!-- 0 -->
      <g transform="translate(525.851519 476.638438) scale(0.1 -0.1)">
       <use xlink:href="#DejaVuSans-30"/>
      </g>
     </g>
    </g>
    <g id="xtick_20">
     <g id="line2d_72">
      <g>
       <use xlink:href="#m11486beaca" x="607.002639" y="462.04" style="stroke: #000000; stroke-width: 0.8"/>
      </g>
     </g>
     <g id="text_63">
      <!-- 5 -->
      <g transform="translate(603.821389 476.638438) scale(0.1 -0.1)">
       <use xlink:href="#DejaVuSans-35"/>
      </g>
     </g>
    </g>
    <g id="xtick_21">
     <g id="line2d_73">
      <g>
       <use xlink:href="#m11486beaca" x="684.972509" y="462.04" style="stroke: #000000; stroke-width: 0.8"/>
      </g>
     </g>
     <g id="text_64">
      <!-- 10 -->
      <g transform="translate(678.610009 476.638438) scale(0.1 -0.1)">
       <use xlink:href="#DejaVuSans-31"/>
       <use xlink:href="#DejaVuSans-30" transform="translate(63.623047 0)"/>
      </g>
     </g>
    </g>
    <g id="xtick_22">
     <g id="line2d_74">
      <g>
       <use xlink:href="#m11486beaca" x="762.942378" y="462.04" style="stroke: #000000; stroke-width: 0.8"/>
      </g>
     </g>
     <g id="text_65">
      <!-- 15 -->
      <g transform="translate(756.579878 476.638438) scale(0.1 -0.1)">
       <use xlink:href="#DejaVuSans-31"/>
       <use xlink:href="#DejaVuSans-35" transform="translate(63.623047 0)"/>
      </g>
     </g>
    </g>
    <g id="xtick_23">
     <g id="line2d_75">
      <g>
       <use xlink:href="#m11486beaca" x="840.912248" y="462.04" style="stroke: #000000; stroke-width: 0.8"/>
      </g>
     </g>
     <g id="text_66">
      <!-- 20 -->
      <g transform="translate(834.549748 476.638438) scale(0.1 -0.1)">
       <use xlink:href="#DejaVuSans-32"/>
       <use xlink:href="#DejaVuSans-30" transform="translate(63.623047 0)"/>
      </g>
     </g>
    </g>
    <g id="xtick_24">
     <g id="line2d_76">
      <g>
       <use xlink:href="#m11486beaca" x="918.882118" y="462.04" style="stroke: #000000; stroke-width: 0.8"/>
      </g>
     </g>
     <g id="text_67">
      <!-- 25 -->
      <g transform="translate(912.519618 476.638438) scale(0.1 -0.1)">
       <use xlink:href="#DejaVuSans-32"/>
       <use xlink:href="#DejaVuSans-35" transform="translate(63.623047 0)"/>
      </g>
     </g>
    </g>
    <g id="text_68">
     <!-- Номер слоя -->
     <g transform="translate(685.716707 490.316563) scale(0.1 -0.1)">
      <use xlink:href="#DejaVuSans-41d"/>
      <use xlink:href="#DejaVuSans-43e" transform="translate(75.195312 0)"/>
      <use xlink:href="#DejaVuSans-43c" transform="translate(136.376953 0)"/>
      <use xlink:href="#DejaVuSans-435" transform="translate(211.816406 0)"/>
      <use xlink:href="#DejaVuSans-440" transform="translate(273.339844 0)"/>
      <use xlink:href="#DejaVuSans-20" transform="translate(336.816406 0)"/>
      <use xlink:href="#DejaVuSans-441" transform="translate(368.603516 0)"/>
      <use xlink:href="#DejaVuSans-43b" transform="translate(423.583984 0)"/>
      <use xlink:href="#DejaVuSans-43e" transform="translate(487.5 0)"/>
      <use xlink:href="#DejaVuSans-44f" transform="translate(548.681641 0)"/>
     </g>
    </g>
   </g>
   <g id="matplotlib.axis_8">
    <g id="ytick_23">
     <g id="line2d_77">
      <g>
       <use xlink:href="#m8886c66ec6" x="510.32" y="452.743909" style="stroke: #000000; stroke-width: 0.8"/>
      </g>
     </g>
     <g id="text_69">
      <!-- 0.0 -->
      <g transform="translate(487.416875 456.543128) scale(0.1 -0.1)">
       <use xlink:href="#DejaVuSans-30"/>
       <use xlink:href="#DejaVuSans-2e" transform="translate(63.623047 0)"/>
       <use xlink:href="#DejaVuSans-30" transform="translate(95.410156 0)"/>
      </g>
     </g>
    </g>
    <g id="ytick_24">
     <g id="line2d_78">
      <g>
       <use xlink:href="#m8886c66ec6" x="510.32" y="418.651923" style="stroke: #000000; stroke-width: 0.8"/>
      </g>
     </g>
     <g id="text_70">
      <!-- 0.1 -->
      <g transform="translate(487.416875 422.451142) scale(0.1 -0.1)">
       <use xlink:href="#DejaVuSans-30"/>
       <use xlink:href="#DejaVuSans-2e" transform="translate(63.623047 0)"/>
       <use xlink:href="#DejaVuSans-31" transform="translate(95.410156 0)"/>
      </g>
     </g>
    </g>
    <g id="ytick_25">
     <g id="line2d_79">
      <g>
       <use xlink:href="#m8886c66ec6" x="510.32" y="384.559937" style="stroke: #000000; stroke-width: 0.8"/>
      </g>
     </g>
     <g id="text_71">
      <!-- 0.2 -->
      <g transform="translate(487.416875 388.359155) scale(0.1 -0.1)">
       <use xlink:href="#DejaVuSans-30"/>
       <use xlink:href="#DejaVuSans-2e" transform="translate(63.623047 0)"/>
       <use xlink:href="#DejaVuSans-32" transform="translate(95.410156 0)"/>
      </g>
     </g>
    </g>
    <g id="ytick_26">
     <g id="line2d_80">
      <g>
       <use xlink:href="#m8886c66ec6" x="510.32" y="350.46795" style="stroke: #000000; stroke-width: 0.8"/>
      </g>
     </g>
     <g id="text_72">
      <!-- 0.3 -->
      <g transform="translate(487.416875 354.267169) scale(0.1 -0.1)">
       <use xlink:href="#DejaVuSans-30"/>
       <use xlink:href="#DejaVuSans-2e" transform="translate(63.623047 0)"/>
       <use xlink:href="#DejaVuSans-33" transform="translate(95.410156 0)"/>
      </g>
     </g>
    </g>
    <g id="ytick_27">
     <g id="line2d_81">
      <g>
       <use xlink:href="#m8886c66ec6" x="510.32" y="316.375964" style="stroke: #000000; stroke-width: 0.8"/>
      </g>
     </g>
     <g id="text_73">
      <!-- 0.4 -->
      <g transform="translate(487.416875 320.175183) scale(0.1 -0.1)">
       <use xlink:href="#DejaVuSans-30"/>
       <use xlink:href="#DejaVuSans-2e" transform="translate(63.623047 0)"/>
       <use xlink:href="#DejaVuSans-34" transform="translate(95.410156 0)"/>
      </g>
     </g>
    </g>
    <g id="ytick_28">
     <g id="line2d_82">
      <g>
       <use xlink:href="#m8886c66ec6" x="510.32" y="282.283978" style="stroke: #000000; stroke-width: 0.8"/>
      </g>
     </g>
     <g id="text_74">
      <!-- 0.5 -->
      <g transform="translate(487.416875 286.083197) scale(0.1 -0.1)">
       <use xlink:href="#DejaVuSans-30"/>
       <use xlink:href="#DejaVuSans-2e" transform="translate(63.623047 0)"/>
       <use xlink:href="#DejaVuSans-35" transform="translate(95.410156 0)"/>
      </g>
     </g>
    </g>
    <g id="text_75">
     <!-- Межслойная устойчивость -->
     <g transform="translate(481.337187 430.546563) rotate(-90) scale(0.1 -0.1)">
      <use xlink:href="#DejaVuSans-41c"/>
      <use xlink:href="#DejaVuSans-435" transform="translate(86.279297 0)"/>
      <use xlink:href="#DejaVuSans-436" transform="translate(147.802734 0)"/>
      <use xlink:href="#DejaVuSans-441" transform="translate(237.890625 0)"/>
      <use xlink:href="#DejaVuSans-43b" transform="translate(292.871094 0)"/>
      <use xlink:href="#DejaVuSans-43e" transform="translate(356.787109 0)"/>
      <use xlink:href="#DejaVuSans-439" transform="translate(417.96875 0)"/>
      <use xlink:href="#DejaVuSans-43d" transform="translate(482.958984 0)"/>
      <use xlink:href="#DejaVuSans-430" transform="translate(548.339844 0)"/>
      <use xlink:href="#DejaVuSans-44f" transform="translate(609.619141 0)"/>
      <use xlink:href="#DejaVuSans-20" transform="translate(669.775391 0)"/>
      <use xlink:href="#DejaVuSans-443" transform="translate(701.5625 0)"/>
      <use xlink:href="#DejaVuSans-441" transform="translate(760.742188 0)"/>
      <use xlink:href="#DejaVuSans-442" transform="translate(815.722656 0)"/>
      <use xlink:href="#DejaVuSans-43e" transform="translate(873.974609 0)"/>
      <use xlink:href="#DejaVuSans-439" transform="translate(935.15625 0)"/>
      <use xlink:href="#DejaVuSans-447" transform="translate(1000.146484 0)"/>
      <use xlink:href="#DejaVuSans-438" transform="translate(1059.228516 0)"/>
      <use xlink:href="#DejaVuSans-432" transform="translate(1124.21875 0)"/>
      <use xlink:href="#DejaVuSans-43e" transform="translate(1183.154297 0)"/>
      <use xlink:href="#DejaVuSans-441" transform="translate(1244.335938 0)"/>
      <use xlink:href="#DejaVuSans-442" transform="translate(1299.316406 0)"/>
      <use xlink:href="#DejaVuSans-44c" transform="translate(1357.568359 0)"/>
     </g>
    </g>
   </g>
   <g id="line2d_83">
    <path d="M 529.032769 452.728932 
L 544.626743 438.029129 
L 560.220717 434.473716 
L 575.814691 440.124868 
L 591.408665 442.726563 
L 607.002639 437.686872 
L 622.596613 406.185892 
L 638.190587 413.487114 
L 653.784561 417.182192 
L 669.378535 422.097721 
L 684.972509 393.394531 
L 700.566483 377.371408 
L 716.160457 391.49223 
L 731.754431 380.50786 
L 747.348404 337.639256 
L 762.942378 344.93871 
L 778.536352 332.106877 
L 794.130326 327.453311 
L 809.7243 320.650412 
L 825.318274 309.986581 
L 840.912248 322.249947 
L 856.506222 288.152392 
L 872.100196 266.701818 
L 887.69417 267.895443 
L 903.288144 274.225468 
" clip-path="url(#p67e3fc1494)" style="fill: none; stroke: #648fff; stroke-width: 1.5; stroke-linecap: square"/>
   </g>
   <g id="line2d_84">
    <path d="M 529.032769 439.099607 
L 544.626743 432.73147 
L 560.220717 430.697758 
L 575.814691 431.649493 
L 591.408665 432.164747 
L 607.002639 430.429155 
L 622.596613 414.312943 
L 638.190587 418.379187 
L 653.784561 421.963716 
L 669.378535 425.160393 
L 684.972509 407.421622 
L 700.566483 404.162829 
L 716.160457 409.939526 
L 731.754431 397.439132 
L 747.348404 379.019989 
L 762.942378 388.780849 
L 778.536352 383.537177 
L 794.130326 377.741539 
L 809.7243 372.028828 
L 825.318274 370.55458 
L 840.912248 380.70606 
L 856.506222 371.240277 
L 872.100196 368.068929 
L 887.69417 374.985166 
L 903.288144 374.985166 
" clip-path="url(#p67e3fc1494)" style="fill: none; stroke: #785ef0; stroke-width: 1.5; stroke-linecap: square"/>
   </g>
   <g id="line2d_85">
    <path d="M 529.032769 452.737395 
L 544.626743 447.576189 
L 560.220717 445.958665 
L 575.814691 446.324433 
L 591.408665 446.141874 
L 607.002639 445.279789 
L 622.596613 432.350153 
L 638.190587 435.506461 
L 653.784561 439.231311 
L 669.378535 441.922816 
L 684.972509 426.798084 
L 700.566483 425.817143 
L 716.160457 430.299128 
L 731.754431 418.702556 
L 747.348404 405.762012 
L 762.942378 416.356811 
L 778.536352 413.830661 
L 794.130326 409.398899 
L 809.7243 405.852697 
L 825.318274 407.045999 
L 840.912248 416.00701 
L 856.506222 412.239054 
L 872.100196 411.5585 
L 887.69417 415.632765 
L 903.288144 413.200788 
" clip-path="url(#p67e3fc1494)" style="fill: none; stroke: #dc267f; stroke-width: 1.5; stroke-linecap: square"/>
   </g>
   <g id="line2d_86">
    <path d="M 529.032769 452.737918 
L 544.626743 448.092604 
L 560.220717 446.706787 
L 575.814691 446.967511 
L 591.408665 446.40449 
L 607.002639 446.031341 
L 622.596613 435.068377 
L 638.190587 437.600287 
L 653.784561 441.361037 
L 669.378535 443.680888 
L 684.972509 430.62172 
L 700.566483 430.622119 
L 716.160457 434.471673 
L 731.754431 424.575194 
L 747.348404 415.322627 
L 762.942378 425.883556 
L 778.536352 425.291932 
L 794.130326 422.55778 
L 809.7243 420.974631 
L 825.318274 423.079162 
L 840.912248 429.971001 
L 856.506222 428.457007 
L 872.100196 428.122607 
L 887.69417 429.9618 
L 903.288144 427.501332 
" clip-path="url(#p67e3fc1494)" style="fill: none; stroke: #fe6100; stroke-width: 1.5; stroke-linecap: square"/>
   </g>
   <g id="line2d_87">
    <path d="M 529.032769 452.738182 
L 544.626743 448.297952 
L 560.220717 447.029016 
L 575.814691 447.346545 
L 591.408665 446.530404 
L 607.002639 446.469265 
L 622.596613 436.831968 
L 638.190587 438.866257 
L 653.784561 442.711125 
L 669.378535 444.762015 
L 684.972509 433.484802 
L 700.566483 433.945073 
L 716.160457 437.526354 
L 731.754431 430.337541 
L 747.348404 425.05939 
L 762.942378 435.01927 
L 778.536352 436.159161 
L 794.130326 435.523145 
L 809.7243 435.68954 
L 825.318274 437.264305 
L 840.912248 441.034053 
L 856.506222 440.273121 
L 872.100196 439.822754 
L 887.69417 440.333101 
L 903.288144 439.095272 
" clip-path="url(#p67e3fc1494)" style="fill: none; stroke: #ffb000; stroke-width: 1.5; stroke-linecap: square"/>
   </g>
   <g id="patch_21">
    <path d="M 510.32 462.04 
L 510.32 257.4 
" style="fill: none; stroke: #000000; stroke-width: 0.8; stroke-linejoin: miter; stroke-linecap: square"/>
   </g>
   <g id="patch_22">
    <path d="M 922.000913 462.04 
L 922.000913 257.4 
" style="fill: none; stroke: #000000; stroke-width: 0.8; stroke-linejoin: miter; stroke-linecap: square"/>
   </g>
   <g id="patch_23">
    <path d="M 510.32 462.04 
L 922.000913 462.04 
" style="fill: none; stroke: #000000; stroke-width: 0.8; stroke-linejoin: miter; stroke-linecap: square"/>
   </g>
   <g id="patch_24">
    <path d="M 510.32 257.4 
L 922.000913 257.4 
" style="fill: none; stroke: #000000; stroke-width: 0.8; stroke-linejoin: miter; stroke-linecap: square"/>
   </g>
   <g id="legend_4">
    <g id="patch_25">
     <path d="M 517.32 338.790625 
L 598.92 338.790625 
Q 600.92 338.790625 600.92 336.790625 
L 600.92 264.4 
Q 600.92 262.4 598.92 262.4 
L 517.32 262.4 
Q 515.32 262.4 515.32 264.4 
L 515.32 336.790625 
Q 515.32 338.790625 517.32 338.790625 
z
" style="fill: #ffffff; opacity: 0.8; stroke: #cccccc; stroke-linejoin: miter"/>
    </g>
    <g id="line2d_88">
     <path d="M 519.32 270.498438 
L 529.32 270.498438 
L 539.32 270.498438 
" style="fill: none; stroke: #648fff; stroke-width: 1.5; stroke-linecap: square"/>
    </g>
    <g id="text_76">
     <!-- $\alpha=-1.00$ -->
     <g transform="translate(547.32 273.998438) scale(0.1 -0.1)">
      <use xlink:href="#DejaVuSans-Oblique-3b1" transform="translate(0 0.78125)"/>
      <use xlink:href="#DejaVuSans-3d" transform="translate(85.400391 0.78125)"/>
      <use xlink:href="#DejaVuSans-2212" transform="translate(188.671875 0.78125)"/>
      <use xlink:href="#DejaVuSans-31" transform="translate(272.460938 0.78125)"/>
      <use xlink:href="#DejaVuSans-2e" transform="translate(336.083984 0.78125)"/>
      <use xlink:href="#DejaVuSans-30" transform="translate(367.871094 0.78125)"/>
      <use xlink:href="#DejaVuSans-30" transform="translate(431.494141 0.78125)"/>
     </g>
    </g>
    <g id="line2d_89">
     <path d="M 519.32 285.176563 
L 529.32 285.176563 
L 539.32 285.176563 
" style="fill: none; stroke: #785ef0; stroke-width: 1.5; stroke-linecap: square"/>
    </g>
    <g id="text_77">
     <!-- $\alpha=0.00$ -->
     <g transform="translate(547.32 288.676563) scale(0.1 -0.1)">
      <use xlink:href="#DejaVuSans-Oblique-3b1" transform="translate(0 0.78125)"/>
      <use xlink:href="#DejaVuSans-3d" transform="translate(85.400391 0.78125)"/>
      <use xlink:href="#DejaVuSans-30" transform="translate(188.671875 0.78125)"/>
      <use xlink:href="#DejaVuSans-2e" transform="translate(252.294922 0.78125)"/>
      <use xlink:href="#DejaVuSans-30" transform="translate(284.082031 0.78125)"/>
      <use xlink:href="#DejaVuSans-30" transform="translate(347.705078 0.78125)"/>
     </g>
    </g>
    <g id="line2d_90">
     <path d="M 519.32 299.854688 
L 529.32 299.854688 
L 539.32 299.854688 
" style="fill: none; stroke: #dc267f; stroke-width: 1.5; stroke-linecap: square"/>
    </g>
    <g id="text_78">
     <!-- $\alpha=0.50$ -->
     <g transform="translate(547.32 303.354688) scale(0.1 -0.1)">
      <use xlink:href="#DejaVuSans-Oblique-3b1" transform="translate(0 0.78125)"/>
      <use xlink:href="#DejaVuSans-3d" transform="translate(85.400391 0.78125)"/>
      <use xlink:href="#DejaVuSans-30" transform="translate(188.671875 0.78125)"/>
      <use xlink:href="#DejaVuSans-2e" transform="translate(252.294922 0.78125)"/>
      <use xlink:href="#DejaVuSans-35" transform="translate(284.082031 0.78125)"/>
      <use xlink:href="#DejaVuSans-30" transform="translate(347.705078 0.78125)"/>
     </g>
    </g>
    <g id="line2d_91">
     <path d="M 519.32 314.532813 
L 529.32 314.532813 
L 539.32 314.532813 
" style="fill: none; stroke: #fe6100; stroke-width: 1.5; stroke-linecap: square"/>
    </g>
    <g id="text_79">
     <!-- $\alpha=1.00$ -->
     <g transform="translate(547.32 318.032813) scale(0.1 -0.1)">
      <use xlink:href="#DejaVuSans-Oblique-3b1" transform="translate(0 0.78125)"/>
      <use xlink:href="#DejaVuSans-3d" transform="translate(85.400391 0.78125)"/>
      <use xlink:href="#DejaVuSans-31" transform="translate(188.671875 0.78125)"/>
      <use xlink:href="#DejaVuSans-2e" transform="translate(252.294922 0.78125)"/>
      <use xlink:href="#DejaVuSans-30" transform="translate(284.082031 0.78125)"/>
      <use xlink:href="#DejaVuSans-30" transform="translate(347.705078 0.78125)"/>
     </g>
    </g>
    <g id="line2d_92">
     <path d="M 519.32 329.210938 
L 529.32 329.210938 
L 539.32 329.210938 
" style="fill: none; stroke: #ffb000; stroke-width: 1.5; stroke-linecap: square"/>
    </g>
    <g id="text_80">
     <!-- $\alpha=2.00$ -->
     <g transform="translate(547.32 332.710938) scale(0.1 -0.1)">
      <use xlink:href="#DejaVuSans-Oblique-3b1" transform="translate(0 0.78125)"/>
      <use xlink:href="#DejaVuSans-3d" transform="translate(85.400391 0.78125)"/>
      <use xlink:href="#DejaVuSans-32" transform="translate(188.671875 0.78125)"/>
      <use xlink:href="#DejaVuSans-2e" transform="translate(252.294922 0.78125)"/>
      <use xlink:href="#DejaVuSans-30" transform="translate(284.082031 0.78125)"/>
      <use xlink:href="#DejaVuSans-30" transform="translate(347.705078 0.78125)"/>
     </g>
    </g>
   </g>
  </g>
 </g>
 <defs>
  <clipPath id="p157d6d168e">
   <rect x="47.72" y="10.8" width="411.680913" height="204.64"/>
  </clipPath>
  <clipPath id="p3f17b274b9">
   <rect x="510.32" y="10.8" width="411.680913" height="204.64"/>
  </clipPath>
  <clipPath id="p19e7f9d924">
   <rect x="47.72" y="257.4" width="411.680913" height="204.64"/>
  </clipPath>
  <clipPath id="p67e3fc1494">
   <rect x="510.32" y="257.4" width="411.680913" height="204.64"/>
  </clipPath>
 </defs>
</svg>
