<?xml version="1.0" encoding="utf-8" standalone="no"?>
<!DOCTYPE svg PUBLIC "-//W3C//DTD SVG 1.1//EN"
  "http://www.w3.org/Graphics/SVG/1.1/DTD/svg11.dtd">
<svg xmlns:xlink="http://www.w3.org/1999/xlink" width="936pt" height="504pt" viewBox="0 0 936 504" xmlns="http://www.w3.org/2000/svg" version="1.1">
 <metadata>
  <rdf:RDF xmlns:dc="http://purl.org/dc/elements/1.1/" xmlns:cc="http://creativecommons.org/ns#" xmlns:rdf="http://www.w3.org/1999/02/22-rdf-syntax-ns#">
   <cc:Work>
    <dc:type rdf:resource="http://purl.org/dc/dcmitype/StillImage"/>
    <dc:date>2026-06-13T23:32:10.585452</dc:date>
    <dc:format>image/svg+xml</dc:format>
    <dc:creator>
     <cc:Agent>
      <dc:title>Matplotlib v3.10.9, https://matplotlib.org/</dc:title>
     </cc:Agent>
    </dc:creator>
   </cc:Work>
  </rdf:RDF>
 </metadata>
 <defs>
  <style type="text/css">*{stroke-linejoin: round; stroke-linecap: butt}</style>
 </defs>
 <g id="figure_1">
  <g id="patch_1">
   <path d="M 0 504 
L 936 504 
L 936 0 
L 0 0 
z
" style="fill: #ffffff"/>
  </g>
  <g id="axes_1">
   <g id="patch_2">
    <path d="M 62.3 215.44 
L 463.461522 215.44 
L 463.461522 10.8 
L 62.3 10.8 
z
" style="fill: #ffffff"/>
   </g>
   <g id="matplotlib.axis_1">
    <g id="xtick_1">
     <g id="line2d_1">
      <defs>
       <path id="m6801bd8846" d="M 0 0 
L 0 3.5 
" style="stroke: #000000; stroke-width: 0.8"/>
      </defs>
      <g>
       <use xlink:href="#m6801bd8846" x="80.534615" y="215.44" style="stroke: #000000; stroke-width: 0.8"/>
      </g>
     </g>
     <g id="text_1">
      <!-- 0 -->
      <g transform="translate(77.353365 230.038438) scale(0.1 -0.1)">
       <defs>
        <path id="DejaVuSans-30" d="M 2034 4250 
Q 1547 4250 1301 3770 
Q 1056 3291 1056 2328 
Q 1056 1369 1301 889 
Q 1547 409 2034 409 
Q 2525 409 2770 889 
Q 3016 1369 3016 2328 
Q 3016 3291 2770 3770 
Q 2525 4250 2034 4250 
z
M 2034 4750 
Q 2819 4750 3233 4129 
Q 3647 3509 3647 2328 
Q 3647 1150 3233 529 
Q 2819 -91 2034 -91 
Q 1250 -91 836 529 
Q 422 1150 422 2328 
Q 422 3509 836 4129 
Q 1250 4750 2034 4750 
z
" transform="scale(0.015625)"/>
       </defs>
       <use xlink:href="#DejaVuSans-30"/>
      </g>
     </g>
    </g>
    <g id="xtick_2">
     <g id="line2d_2">
      <g>
       <use xlink:href="#m6801bd8846" x="156.512176" y="215.44" style="stroke: #000000; stroke-width: 0.8"/>
      </g>
     </g>
     <g id="text_2">
      <!-- 5 -->
      <g transform="translate(153.330926 230.038438) scale(0.1 -0.1)">
       <defs>
        <path id="DejaVuSans-35" d="M 691 4666 
L 3169 4666 
L 3169 4134 
L 1269 4134 
L 1269 2991 
Q 1406 3038 1543 3061 
Q 1681 3084 1819 3084 
Q 2600 3084 3056 2656 
Q 3513 2228 3513 1497 
Q 3513 744 3044 326 
Q 2575 -91 1722 -91 
Q 1428 -91 1123 -41 
Q 819 9 494 109 
L 494 744 
Q 775 591 1075 516 
Q 1375 441 1709 441 
Q 2250 441 2565 725 
Q 2881 1009 2881 1497 
Q 2881 1984 2565 2268 
Q 2250 2553 1709 2553 
Q 1456 2553 1204 2497 
Q 953 2441 691 2322 
L 691 4666 
z
" transform="scale(0.015625)"/>
       </defs>
       <use xlink:href="#DejaVuSans-35"/>
      </g>
     </g>
    </g>
    <g id="xtick_3">
     <g id="line2d_3">
      <g>
       <use xlink:href="#m6801bd8846" x="232.489737" y="215.44" style="stroke: #000000; stroke-width: 0.8"/>
      </g>
     </g>
     <g id="text_3">
      <!-- 10 -->
      <g transform="translate(226.127237 230.038438) scale(0.1 -0.1)">
       <defs>
        <path id="DejaVuSans-31" d="M 794 531 
L 1825 531 
L 1825 4091 
L 703 3866 
L 703 4441 
L 1819 4666 
L 2450 4666 
L 2450 531 
L 3481 531 
L 3481 0 
L 794 0 
L 794 531 
z
" transform="scale(0.015625)"/>
       </defs>
       <use xlink:href="#DejaVuSans-31"/>
       <use xlink:href="#DejaVuSans-30" transform="translate(63.623047 0)"/>
      </g>
     </g>
    </g>
    <g id="xtick_4">
     <g id="line2d_4">
      <g>
       <use xlink:href="#m6801bd8846" x="308.467297" y="215.44" style="stroke: #000000; stroke-width: 0.8"/>
      </g>
     </g>
     <g id="text_4">
      <!-- 15 -->
      <g transform="translate(302.104797 230.038438) scale(0.1 -0.1)">
       <use xlink:href="#DejaVuSans-31"/>
       <use xlink:href="#DejaVuSans-35" transform="translate(63.623047 0)"/>
      </g>
     </g>
    </g>
    <g id="xtick_5">
     <g id="line2d_5">
      <g>
       <use xlink:href="#m6801bd8846" x="384.444858" y="215.44" style="stroke: #000000; stroke-width: 0.8"/>
      </g>
     </g>
     <g id="text_5">
      <!-- 20 -->
      <g transform="translate(378.082358 230.038438) scale(0.1 -0.1)">
       <defs>
        <path id="DejaVuSans-32" d="M 1228 531 
L 3431 531 
L 3431 0 
L 469 0 
L 469 531 
Q 828 903 1448 1529 
Q 2069 2156 2228 2338 
Q 2531 2678 2651 2914 
Q 2772 3150 2772 3378 
Q 2772 3750 2511 3984 
Q 2250 4219 1831 4219 
Q 1534 4219 1204 4116 
Q 875 4013 500 3803 
L 500 4441 
Q 881 4594 1212 4672 
Q 1544 4750 1819 4750 
Q 2544 4750 2975 4387 
Q 3406 4025 3406 3419 
Q 3406 3131 3298 2873 
Q 3191 2616 2906 2266 
Q 2828 2175 2409 1742 
Q 1991 1309 1228 531 
z
" transform="scale(0.015625)"/>
       </defs>
       <use xlink:href="#DejaVuSans-32"/>
       <use xlink:href="#DejaVuSans-30" transform="translate(63.623047 0)"/>
      </g>
     </g>
    </g>
    <g id="xtick_6">
     <g id="line2d_6">
      <g>
       <use xlink:href="#m6801bd8846" x="460.422419" y="215.44" style="stroke: #000000; stroke-width: 0.8"/>
      </g>
     </g>
     <g id="text_6">
      <!-- 25 -->
      <g transform="translate(454.059919 230.038438) scale(0.1 -0.1)">
       <use xlink:href="#DejaVuSans-32"/>
       <use xlink:href="#DejaVuSans-35" transform="translate(63.623047 0)"/>
      </g>
     </g>
    </g>
    <g id="text_7">
     <!-- Номер слоя -->
     <g transform="translate(232.437011 243.716563) scale(0.1 -0.1)">
      <defs>
       <path id="DejaVuSans-41d" d="M 628 4666 
L 1259 4666 
L 1259 2753 
L 3553 2753 
L 3553 4666 
L 4184 4666 
L 4184 0 
L 3553 0 
L 3553 2222 
L 1259 2222 
L 1259 0 
L 628 0 
L 628 4666 
z
" transform="scale(0.015625)"/>
       <path id="DejaVuSans-43e" d="M 1959 3097 
Q 1497 3097 1228 2736 
Q 959 2375 959 1747 
Q 959 1119 1226 758 
Q 1494 397 1959 397 
Q 2419 397 2687 759 
Q 2956 1122 2956 1747 
Q 2956 2369 2687 2733 
Q 2419 3097 1959 3097 
z
M 1959 3584 
Q 2709 3584 3137 3096 
Q 3566 2609 3566 1747 
Q 3566 888 3137 398 
Q 2709 -91 1959 -91 
Q 1206 -91 779 398 
Q 353 888 353 1747 
Q 353 2609 779 3096 
Q 1206 3584 1959 3584 
z
" transform="scale(0.015625)"/>
       <path id="DejaVuSans-43c" d="M 581 3500 
L 1422 3500 
L 2416 1156 
L 3413 3500 
L 4247 3500 
L 4247 0 
L 3669 0 
L 3669 2950 
L 2703 672 
L 2128 672 
L 1159 2950 
L 1159 0 
L 581 0 
L 581 3500 
z
" transform="scale(0.015625)"/>
       <path id="DejaVuSans-435" d="M 3597 1894 
L 3597 1613 
L 953 1613 
Q 991 1019 1311 708 
Q 1631 397 2203 397 
Q 2534 397 2845 478 
Q 3156 559 3463 722 
L 3463 178 
Q 3153 47 2828 -22 
Q 2503 -91 2169 -91 
Q 1331 -91 842 396 
Q 353 884 353 1716 
Q 353 2575 817 3079 
Q 1281 3584 2069 3584 
Q 2775 3584 3186 3129 
Q 3597 2675 3597 1894 
z
M 3022 2063 
Q 3016 2534 2758 2815 
Q 2500 3097 2075 3097 
Q 1594 3097 1305 2825 
Q 1016 2553 972 2059 
L 3022 2063 
z
" transform="scale(0.015625)"/>
       <path id="DejaVuSans-440" d="M 1159 525 
L 1159 -1331 
L 581 -1331 
L 581 3500 
L 1159 3500 
L 1159 2969 
Q 1341 3281 1617 3432 
Q 1894 3584 2278 3584 
Q 2916 3584 3314 3078 
Q 3713 2572 3713 1747 
Q 3713 922 3314 415 
Q 2916 -91 2278 -91 
Q 1894 -91 1617 61 
Q 1341 213 1159 525 
z
M 3116 1747 
Q 3116 2381 2855 2742 
Q 2594 3103 2138 3103 
Q 1681 3103 1420 2742 
Q 1159 2381 1159 1747 
Q 1159 1113 1420 752 
Q 1681 391 2138 391 
Q 2594 391 2855 752 
Q 3116 1113 3116 1747 
z
" transform="scale(0.015625)"/>
       <path id="DejaVuSans-20" transform="scale(0.015625)"/>
       <path id="DejaVuSans-441" d="M 3122 3366 
L 3122 2828 
Q 2878 2963 2633 3030 
Q 2388 3097 2138 3097 
Q 1578 3097 1268 2742 
Q 959 2388 959 1747 
Q 959 1106 1268 751 
Q 1578 397 2138 397 
Q 2388 397 2633 464 
Q 2878 531 3122 666 
L 3122 134 
Q 2881 22 2623 -34 
Q 2366 -91 2075 -91 
Q 1284 -91 818 406 
Q 353 903 353 1747 
Q 353 2603 823 3093 
Q 1294 3584 2113 3584 
Q 2378 3584 2631 3529 
Q 2884 3475 3122 3366 
z
" transform="scale(0.015625)"/>
       <path id="DejaVuSans-43b" d="M 238 0 
L 238 478 
Q 806 566 981 959 
Q 1194 1513 1194 2928 
L 1194 3500 
L 3559 3500 
L 3559 0 
L 2984 0 
L 2984 3041 
L 1769 3041 
L 1769 2694 
Q 1769 1344 1494 738 
Q 1200 91 238 0 
z
" transform="scale(0.015625)"/>
       <path id="DejaVuSans-44f" d="M 1181 2491 
Q 1181 2231 1381 2084 
Q 1581 1938 1953 1938 
L 2728 1938 
L 2728 3041 
L 1953 3041 
Q 1581 3041 1381 2897 
Q 1181 2753 1181 2491 
z
M 363 0 
L 1431 1534 
Q 1069 1616 828 1830 
Q 588 2044 588 2491 
Q 588 2997 923 3248 
Q 1259 3500 1938 3500 
L 3306 3500 
L 3306 0 
L 2728 0 
L 2728 1478 
L 2013 1478 
L 981 0 
L 363 0 
z
" transform="scale(0.015625)"/>
      </defs>
      <use xlink:href="#DejaVuSans-41d"/>
      <use xlink:href="#DejaVuSans-43e" transform="translate(75.195312 0)"/>
      <use xlink:href="#DejaVuSans-43c" transform="translate(136.376953 0)"/>
      <use xlink:href="#DejaVuSans-435" transform="translate(211.816406 0)"/>
      <use xlink:href="#DejaVuSans-440" transform="translate(273.339844 0)"/>
      <use xlink:href="#DejaVuSans-20" transform="translate(336.816406 0)"/>
      <use xlink:href="#DejaVuSans-441" transform="translate(368.603516 0)"/>
      <use xlink:href="#DejaVuSans-43b" transform="translate(423.583984 0)"/>
      <use xlink:href="#DejaVuSans-43e" transform="translate(487.5 0)"/>
      <use xlink:href="#DejaVuSans-44f" transform="translate(548.681641 0)"/>
     </g>
    </g>
   </g>
   <g id="matplotlib.axis_2">
    <g id="ytick_1">
     <g id="line2d_7">
      <defs>
       <path id="m1f0ff4f3cb" d="M 0 0 
L -3.5 0 
" style="stroke: #000000; stroke-width: 0.8"/>
      </defs>
      <g>
       <use xlink:href="#m1f0ff4f3cb" x="62.3" y="187.534545" style="stroke: #000000; stroke-width: 0.8"/>
      </g>
     </g>
     <g id="text_8">
      <!-- −0.04 -->
      <g transform="translate(24.654688 191.333764) scale(0.1 -0.1)">
       <defs>
        <path id="DejaVuSans-2212" d="M 678 2272 
L 4684 2272 
L 4684 1741 
L 678 1741 
L 678 2272 
z
" transform="scale(0.015625)"/>
        <path id="DejaVuSans-2e" d="M 684 794 
L 1344 794 
L 1344 0 
L 684 0 
L 684 794 
z
" transform="scale(0.015625)"/>
        <path id="DejaVuSans-34" d="M 2419 4116 
L 825 1625 
L 2419 1625 
L 2419 4116 
z
M 2253 4666 
L 3047 4666 
L 3047 1625 
L 3713 1625 
L 3713 1100 
L 3047 1100 
L 3047 0 
L 2419 0 
L 2419 1100 
L 313 1100 
L 313 1709 
L 2253 4666 
z
" transform="scale(0.015625)"/>
       </defs>
       <use xlink:href="#DejaVuSans-2212"/>
       <use xlink:href="#DejaVuSans-30" transform="translate(83.789062 0)"/>
       <use xlink:href="#DejaVuSans-2e" transform="translate(147.412109 0)"/>
       <use xlink:href="#DejaVuSans-30" transform="translate(179.199219 0)"/>
       <use xlink:href="#DejaVuSans-34" transform="translate(242.822266 0)"/>
      </g>
     </g>
    </g>
    <g id="ytick_2">
     <g id="line2d_8">
      <g>
       <use xlink:href="#m1f0ff4f3cb" x="62.3" y="150.327273" style="stroke: #000000; stroke-width: 0.8"/>
      </g>
     </g>
     <g id="text_9">
      <!-- −0.02 -->
      <g transform="translate(24.654688 154.126491) scale(0.1 -0.1)">
       <use xlink:href="#DejaVuSans-2212"/>
       <use xlink:href="#DejaVuSans-30" transform="translate(83.789062 0)"/>
       <use xlink:href="#DejaVuSans-2e" transform="translate(147.412109 0)"/>
       <use xlink:href="#DejaVuSans-30" transform="translate(179.199219 0)"/>
       <use xlink:href="#DejaVuSans-32" transform="translate(242.822266 0)"/>
      </g>
     </g>
    </g>
    <g id="ytick_3">
     <g id="line2d_9">
      <g>
       <use xlink:href="#m1f0ff4f3cb" x="62.3" y="113.12" style="stroke: #000000; stroke-width: 0.8"/>
      </g>
     </g>
     <g id="text_10">
      <!-- 0.00 -->
      <g transform="translate(33.034375 116.919219) scale(0.1 -0.1)">
       <use xlink:href="#DejaVuSans-30"/>
       <use xlink:href="#DejaVuSans-2e" transform="translate(63.623047 0)"/>
       <use xlink:href="#DejaVuSans-30" transform="translate(95.410156 0)"/>
       <use xlink:href="#DejaVuSans-30" transform="translate(159.033203 0)"/>
      </g>
     </g>
    </g>
    <g id="ytick_4">
     <g id="line2d_10">
      <g>
       <use xlink:href="#m1f0ff4f3cb" x="62.3" y="75.912727" style="stroke: #000000; stroke-width: 0.8"/>
      </g>
     </g>
     <g id="text_11">
      <!-- 0.02 -->
      <g transform="translate(33.034375 79.711946) scale(0.1 -0.1)">
       <use xlink:href="#DejaVuSans-30"/>
       <use xlink:href="#DejaVuSans-2e" transform="translate(63.623047 0)"/>
       <use xlink:href="#DejaVuSans-30" transform="translate(95.410156 0)"/>
       <use xlink:href="#DejaVuSans-32" transform="translate(159.033203 0)"/>
      </g>
     </g>
    </g>
    <g id="ytick_5">
     <g id="line2d_11">
      <g>
       <use xlink:href="#m1f0ff4f3cb" x="62.3" y="38.705455" style="stroke: #000000; stroke-width: 0.8"/>
      </g>
     </g>
     <g id="text_12">
      <!-- 0.04 -->
      <g transform="translate(33.034375 42.504673) scale(0.1 -0.1)">
       <use xlink:href="#DejaVuSans-30"/>
       <use xlink:href="#DejaVuSans-2e" transform="translate(63.623047 0)"/>
       <use xlink:href="#DejaVuSans-30" transform="translate(95.410156 0)"/>
       <use xlink:href="#DejaVuSans-34" transform="translate(159.033203 0)"/>
      </g>
     </g>
    </g>
    <g id="text_13">
     <!-- Относительная частота рождений -->
     <g transform="translate(18.575 204.700469) rotate(-90) scale(0.1 -0.1)">
      <defs>
       <path id="DejaVuSans-41e" d="M 2522 4238 
Q 1834 4238 1429 3725 
Q 1025 3213 1025 2328 
Q 1025 1447 1429 934 
Q 1834 422 2522 422 
Q 3209 422 3611 934 
Q 4013 1447 4013 2328 
Q 4013 3213 3611 3725 
Q 3209 4238 2522 4238 
z
M 2522 4750 
Q 3503 4750 4090 4092 
Q 4678 3434 4678 2328 
Q 4678 1225 4090 567 
Q 3503 -91 2522 -91 
Q 1538 -91 948 565 
Q 359 1222 359 2328 
Q 359 3434 948 4092 
Q 1538 4750 2522 4750 
z
" transform="scale(0.015625)"/>
       <path id="DejaVuSans-442" d="M 188 3500 
L 3541 3500 
L 3541 3041 
L 2147 3041 
L 2147 0 
L 1581 0 
L 1581 3041 
L 188 3041 
L 188 3500 
z
" transform="scale(0.015625)"/>
       <path id="DejaVuSans-43d" d="M 581 3500 
L 1159 3500 
L 1159 2072 
L 3025 2072 
L 3025 3500 
L 3603 3500 
L 3603 0 
L 3025 0 
L 3025 1613 
L 1159 1613 
L 1159 0 
L 581 0 
L 581 3500 
z
" transform="scale(0.015625)"/>
       <path id="DejaVuSans-438" d="M 3578 3500 
L 3578 0 
L 3006 0 
L 3006 2809 
L 1319 0 
L 581 0 
L 581 3500 
L 1153 3500 
L 1153 697 
L 2838 3500 
L 3578 3500 
z
" transform="scale(0.015625)"/>
       <path id="DejaVuSans-44c" d="M 2781 1038 
Q 2781 1319 2576 1466 
Q 2372 1613 1978 1613 
L 1159 1613 
L 1159 459 
L 1978 459 
Q 2372 459 2576 607 
Q 2781 756 2781 1038 
z
M 581 3500 
L 1159 3500 
L 1159 2072 
L 2003 2072 
Q 2672 2072 3033 1817 
Q 3394 1563 3394 1038 
Q 3394 513 3033 256 
Q 2672 0 2003 0 
L 581 0 
L 581 3500 
z
" transform="scale(0.015625)"/>
       <path id="DejaVuSans-430" d="M 2194 1759 
Q 1497 1759 1228 1600 
Q 959 1441 959 1056 
Q 959 750 1161 570 
Q 1363 391 1709 391 
Q 2188 391 2477 730 
Q 2766 1069 2766 1631 
L 2766 1759 
L 2194 1759 
z
M 3341 1997 
L 3341 0 
L 2766 0 
L 2766 531 
Q 2569 213 2275 61 
Q 1981 -91 1556 -91 
Q 1019 -91 701 211 
Q 384 513 384 1019 
Q 384 1609 779 1909 
Q 1175 2209 1959 2209 
L 2766 2209 
L 2766 2266 
Q 2766 2663 2505 2880 
Q 2244 3097 1772 3097 
Q 1472 3097 1187 3025 
Q 903 2953 641 2809 
L 641 3341 
Q 956 3463 1253 3523 
Q 1550 3584 1831 3584 
Q 2591 3584 2966 3190 
Q 3341 2797 3341 1997 
z
" transform="scale(0.015625)"/>
       <path id="DejaVuSans-447" d="M 2625 0 
L 2625 1472 
L 1553 1472 
Q 1075 1472 756 1769 
Q 469 2038 469 2613 
L 469 3500 
L 1044 3500 
L 1044 2666 
Q 1044 2300 1206 2116 
Q 1372 1931 1697 1931 
L 2625 1931 
L 2625 3500 
L 3200 3500 
L 3200 0 
L 2625 0 
z
" transform="scale(0.015625)"/>
       <path id="DejaVuSans-436" d="M 2597 3500 
L 3169 3500 
L 3169 1856 
L 4697 3500 
L 5366 3500 
L 4109 2153 
L 5547 0 
L 4931 0 
L 3753 1769 
L 3169 1141 
L 3169 0 
L 2597 0 
L 2597 1141 
L 2013 1769 
L 834 0 
L 219 0 
L 1656 2153 
L 400 3500 
L 1069 3500 
L 2597 1856 
L 2597 3500 
z
" transform="scale(0.015625)"/>
       <path id="DejaVuSans-434" d="M 1384 459 
L 3053 459 
L 3053 3041 
L 1844 3041 
L 1844 2603 
Q 1844 1316 1475 628 
L 1384 459 
z
M 550 459 
Q 834 584 959 850 
Q 1266 1509 1266 2838 
L 1266 3500 
L 3631 3500 
L 3631 459 
L 4091 459 
L 4091 -884 
L 3631 -884 
L 3631 0 
L 794 0 
L 794 -884 
L 334 -884 
L 334 459 
L 550 459 
z
" transform="scale(0.015625)"/>
       <path id="DejaVuSans-439" d="M 3578 3500 
L 3578 0 
L 3006 0 
L 3006 2809 
L 1319 0 
L 581 0 
L 581 3500 
L 1153 3500 
L 1153 697 
L 2838 3500 
L 3578 3500 
z
M 1102 4833 
L 1471 4833 
Q 1505 4599 1656 4481 
Q 1808 4364 2080 4364 
Q 2349 4364 2499 4480 
Q 2649 4596 2689 4833 
L 3058 4833 
Q 3027 4386 2780 4161 
Q 2533 3936 2080 3936 
Q 1627 3936 1380 4161 
Q 1133 4386 1102 4833 
z
" transform="scale(0.015625)"/>
      </defs>
      <use xlink:href="#DejaVuSans-41e"/>
      <use xlink:href="#DejaVuSans-442" transform="translate(78.710938 0)"/>
      <use xlink:href="#DejaVuSans-43d" transform="translate(136.962891 0)"/>
      <use xlink:href="#DejaVuSans-43e" transform="translate(202.34375 0)"/>
      <use xlink:href="#DejaVuSans-441" transform="translate(263.525391 0)"/>
      <use xlink:href="#DejaVuSans-438" transform="translate(318.505859 0)"/>
      <use xlink:href="#DejaVuSans-442" transform="translate(383.496094 0)"/>
      <use xlink:href="#DejaVuSans-435" transform="translate(441.748047 0)"/>
      <use xlink:href="#DejaVuSans-43b" transform="translate(503.271484 0)"/>
      <use xlink:href="#DejaVuSans-44c" transform="translate(567.1875 0)"/>
      <use xlink:href="#DejaVuSans-43d" transform="translate(626.123047 0)"/>
      <use xlink:href="#DejaVuSans-430" transform="translate(691.503906 0)"/>
      <use xlink:href="#DejaVuSans-44f" transform="translate(752.783203 0)"/>
      <use xlink:href="#DejaVuSans-20" transform="translate(812.939453 0)"/>
      <use xlink:href="#DejaVuSans-447" transform="translate(844.726562 0)"/>
      <use xlink:href="#DejaVuSans-430" transform="translate(903.808594 0)"/>
      <use xlink:href="#DejaVuSans-441" transform="translate(965.087891 0)"/>
      <use xlink:href="#DejaVuSans-442" transform="translate(1020.068359 0)"/>
      <use xlink:href="#DejaVuSans-43e" transform="translate(1078.320312 0)"/>
      <use xlink:href="#DejaVuSans-442" transform="translate(1139.501953 0)"/>
      <use xlink:href="#DejaVuSans-430" transform="translate(1197.753906 0)"/>
      <use xlink:href="#DejaVuSans-20" transform="translate(1259.033203 0)"/>
      <use xlink:href="#DejaVuSans-440" transform="translate(1290.820312 0)"/>
      <use xlink:href="#DejaVuSans-43e" transform="translate(1354.296875 0)"/>
      <use xlink:href="#DejaVuSans-436" transform="translate(1415.478516 0)"/>
      <use xlink:href="#DejaVuSans-434" transform="translate(1505.566406 0)"/>
      <use xlink:href="#DejaVuSans-435" transform="translate(1574.707031 0)"/>
      <use xlink:href="#DejaVuSans-43d" transform="translate(1636.230469 0)"/>
      <use xlink:href="#DejaVuSans-438" transform="translate(1701.611328 0)"/>
      <use xlink:href="#DejaVuSans-439" transform="translate(1766.601562 0)"/>
     </g>
    </g>
   </g>
   <g id="line2d_12">
    <path d="M 80.534615 113.12 
L 95.730127 113.12 
L 110.925639 113.12 
L 126.121151 113.12 
L 141.316663 113.12 
L 156.512176 113.12 
L 171.707688 113.12 
L 186.9032 113.12 
L 202.098712 113.12 
L 217.294224 113.12 
L 232.489737 113.12 
L 247.685249 113.12 
L 262.880761 113.12 
L 278.076273 113.12 
L 293.271785 113.12 
L 308.467297 113.12 
L 323.66281 113.12 
L 338.858322 113.12 
L 354.053834 113.12 
L 369.249346 113.12 
L 384.444858 113.12 
L 399.640371 113.12 
L 414.835883 113.12 
L 430.031395 113.12 
L 445.226907 113.12 
" clip-path="url(#p9dcf02c7e2)" style="fill: none; stroke: #648fff; stroke-width: 1.5; stroke-linecap: square"/>
   </g>
   <g id="line2d_13">
    <path d="M 80.534615 113.12 
L 95.730127 113.12 
L 110.925639 113.12 
L 126.121151 113.12 
L 141.316663 113.12 
L 156.512176 113.12 
L 171.707688 113.12 
L 186.9032 113.12 
L 202.098712 113.12 
L 217.294224 113.12 
L 232.489737 113.12 
L 247.685249 113.12 
L 262.880761 113.12 
L 278.076273 113.12 
L 293.271785 113.12 
L 308.467297 113.12 
L 323.66281 113.12 
L 338.858322 113.12 
L 354.053834 113.12 
L 369.249346 113.12 
L 384.444858 113.12 
L 399.640371 113.12 
L 414.835883 113.12 
L 430.031395 113.12 
L 445.226907 113.12 
" clip-path="url(#p9dcf02c7e2)" style="fill: none; stroke: #785ef0; stroke-width: 1.5; stroke-linecap: square"/>
   </g>
   <g id="line2d_14">
    <path d="M 80.534615 113.12 
L 95.730127 113.12 
L 110.925639 113.12 
L 126.121151 113.12 
L 141.316663 113.12 
L 156.512176 113.12 
L 171.707688 113.12 
L 186.9032 113.12 
L 202.098712 113.12 
L 217.294224 113.12 
L 232.489737 113.12 
L 247.685249 113.12 
L 262.880761 113.12 
L 278.076273 113.12 
L 293.271785 113.12 
L 308.467297 113.12 
L 323.66281 113.12 
L 338.858322 113.12 
L 354.053834 113.12 
L 369.249346 113.12 
L 384.444858 113.12 
L 399.640371 113.12 
L 414.835883 113.12 
L 430.031395 113.12 
L 445.226907 113.12 
" clip-path="url(#p9dcf02c7e2)" style="fill: none; stroke: #dc267f; stroke-width: 1.5; stroke-linecap: square"/>
   </g>
   <g id="line2d_15">
    <path d="M 80.534615 113.12 
L 95.730127 113.12 
L 110.925639 113.12 
L 126.121151 113.12 
L 141.316663 113.12 
L 156.512176 113.12 
L 171.707688 113.12 
L 186.9032 113.12 
L 202.098712 113.12 
L 217.294224 113.12 
L 232.489737 113.12 
L 247.685249 113.12 
L 262.880761 113.12 
L 278.076273 113.12 
L 293.271785 113.12 
L 308.467297 113.12 
L 323.66281 113.12 
L 338.858322 113.12 
L 354.053834 113.12 
L 369.249346 113.12 
L 384.444858 113.12 
L 399.640371 113.12 
L 414.835883 113.12 
L 430.031395 113.12 
L 445.226907 113.12 
" clip-path="url(#p9dcf02c7e2)" style="fill: none; stroke: #fe6100; stroke-width: 1.5; stroke-linecap: square"/>
   </g>
   <g id="line2d_16">
    <path d="M 80.534615 113.12 
L 95.730127 113.12 
L 110.925639 113.12 
L 126.121151 113.12 
L 141.316663 113.12 
L 156.512176 113.12 
L 171.707688 113.12 
L 186.9032 113.12 
L 202.098712 113.12 
L 217.294224 113.12 
L 232.489737 113.12 
L 247.685249 113.12 
L 262.880761 113.12 
L 278.076273 113.12 
L 293.271785 113.12 
L 308.467297 113.12 
L 323.66281 113.12 
L 338.858322 113.12 
L 354.053834 113.12 
L 369.249346 113.12 
L 384.444858 113.12 
L 399.640371 113.12 
L 414.835883 113.12 
L 430.031395 113.12 
L 445.226907 113.12 
" clip-path="url(#p9dcf02c7e2)" style="fill: none; stroke: #ffb000; stroke-width: 1.5; stroke-linecap: square"/>
   </g>
   <g id="line2d_17">
    <path d="M 62.3 38.705455 
L 463.461522 38.705455 
" clip-path="url(#p9dcf02c7e2)" style="fill: none; stroke-dasharray: 3.7,1.6; stroke-dashoffset: 0; stroke: #000000"/>
   </g>
   <g id="patch_3">
    <path d="M 62.3 215.44 
L 62.3 10.8 
" style="fill: none; stroke: #000000; stroke-width: 0.8; stroke-linejoin: miter; stroke-linecap: square"/>
   </g>
   <g id="patch_4">
    <path d="M 463.461522 215.44 
L 463.461522 10.8 
" style="fill: none; stroke: #000000; stroke-width: 0.8; stroke-linejoin: miter; stroke-linecap: square"/>
   </g>
   <g id="patch_5">
    <path d="M 62.3 215.44 
L 463.461522 215.44 
" style="fill: none; stroke: #000000; stroke-width: 0.8; stroke-linejoin: miter; stroke-linecap: square"/>
   </g>
   <g id="patch_6">
    <path d="M 62.3 10.8 
L 463.461522 10.8 
" style="fill: none; stroke: #000000; stroke-width: 0.8; stroke-linejoin: miter; stroke-linecap: square"/>
   </g>
   <g id="legend_1">
    <g id="patch_7">
     <path d="M 69.3 210.44 
L 208.079688 210.44 
Q 210.079688 210.44 210.079688 208.44 
L 210.079688 121.37125 
Q 210.079688 119.37125 208.079688 119.37125 
L 69.3 119.37125 
Q 67.3 119.37125 67.3 121.37125 
L 67.3 208.44 
Q 67.3 210.44 69.3 210.44 
z
" style="fill: #ffffff; opacity: 0.8; stroke: #cccccc; stroke-linejoin: miter"/>
    </g>
    <g id="line2d_18">
     <path d="M 71.3 127.469688 
L 81.3 127.469688 
L 91.3 127.469688 
" style="fill: none; stroke: #648fff; stroke-width: 1.5; stroke-linecap: square"/>
    </g>
    <g id="text_14">
     <!-- $\alpha=-1.0$ -->
     <g transform="translate(99.3 130.969688) scale(0.1 -0.1)">
      <defs>
       <path id="DejaVuSans-Oblique-3b1" d="M 2619 1628 
L 2622 2350 
Q 2625 3088 2069 3091 
Q 1653 3094 1394 2747 
Q 1069 2319 959 1747 
Q 825 1059 994 731 
Q 1169 397 1547 397 
Q 1966 397 2319 1063 
L 2619 1628 
z
M 2166 3578 
Q 3141 3594 3128 2584 
Q 3128 2584 3616 3500 
L 4128 3500 
L 3119 1603 
L 3109 919 
Q 3109 766 3194 638 
Q 3291 488 3391 488 
L 3669 488 
L 3575 0 
L 3228 0 
Q 2934 0 2722 263 
Q 2622 394 2619 669 
Q 2416 334 2066 50 
Q 1900 -81 1453 -78 
Q 722 -72 456 397 
Q 184 884 353 1747 
Q 534 2675 1009 3097 
Q 1544 3569 2166 3578 
z
" transform="scale(0.015625)"/>
       <path id="DejaVuSans-3d" d="M 678 2906 
L 4684 2906 
L 4684 2381 
L 678 2381 
L 678 2906 
z
M 678 1631 
L 4684 1631 
L 4684 1100 
L 678 1100 
L 678 1631 
z
" transform="scale(0.015625)"/>
      </defs>
      <use xlink:href="#DejaVuSans-Oblique-3b1" transform="translate(0 0.78125)"/>
      <use xlink:href="#DejaVuSans-3d" transform="translate(85.400391 0.78125)"/>
      <use xlink:href="#DejaVuSans-2212" transform="translate(188.671875 0.78125)"/>
      <use xlink:href="#DejaVuSans-31" transform="translate(272.460938 0.78125)"/>
      <use xlink:href="#DejaVuSans-2e" transform="translate(336.083984 0.78125)"/>
      <use xlink:href="#DejaVuSans-30" transform="translate(367.871094 0.78125)"/>
     </g>
    </g>
    <g id="line2d_19">
     <path d="M 71.3 142.147813 
L 81.3 142.147813 
L 91.3 142.147813 
" style="fill: none; stroke: #785ef0; stroke-width: 1.5; stroke-linecap: square"/>
    </g>
    <g id="text_15">
     <!-- $\alpha=0.0$ -->
     <g transform="translate(99.3 145.647813) scale(0.1 -0.1)">
      <use xlink:href="#DejaVuSans-Oblique-3b1" transform="translate(0 0.78125)"/>
      <use xlink:href="#DejaVuSans-3d" transform="translate(85.400391 0.78125)"/>
      <use xlink:href="#DejaVuSans-30" transform="translate(188.671875 0.78125)"/>
      <use xlink:href="#DejaVuSans-2e" transform="translate(252.294922 0.78125)"/>
      <use xlink:href="#DejaVuSans-30" transform="translate(284.082031 0.78125)"/>
     </g>
    </g>
    <g id="line2d_20">
     <path d="M 71.3 156.825938 
L 81.3 156.825938 
L 91.3 156.825938 
" style="fill: none; stroke: #dc267f; stroke-width: 1.5; stroke-linecap: square"/>
    </g>
    <g id="text_16">
     <!-- $\alpha=0.5$ -->
     <g transform="translate(99.3 160.325938) scale(0.1 -0.1)">
      <use xlink:href="#DejaVuSans-Oblique-3b1" transform="translate(0 0.78125)"/>
      <use xlink:href="#DejaVuSans-3d" transform="translate(85.400391 0.78125)"/>
      <use xlink:href="#DejaVuSans-30" transform="translate(188.671875 0.78125)"/>
      <use xlink:href="#DejaVuSans-2e" transform="translate(252.294922 0.78125)"/>
      <use xlink:href="#DejaVuSans-35" transform="translate(284.082031 0.78125)"/>
     </g>
    </g>
    <g id="line2d_21">
     <path d="M 71.3 171.504063 
L 81.3 171.504063 
L 91.3 171.504063 
" style="fill: none; stroke: #fe6100; stroke-width: 1.5; stroke-linecap: square"/>
    </g>
    <g id="text_17">
     <!-- $\alpha=1.0$ -->
     <g transform="translate(99.3 175.004063) scale(0.1 -0.1)">
      <use xlink:href="#DejaVuSans-Oblique-3b1" transform="translate(0 0.78125)"/>
      <use xlink:href="#DejaVuSans-3d" transform="translate(85.400391 0.78125)"/>
      <use xlink:href="#DejaVuSans-31" transform="translate(188.671875 0.78125)"/>
      <use xlink:href="#DejaVuSans-2e" transform="translate(252.294922 0.78125)"/>
      <use xlink:href="#DejaVuSans-30" transform="translate(284.082031 0.78125)"/>
     </g>
    </g>
    <g id="line2d_22">
     <path d="M 71.3 186.182188 
L 81.3 186.182188 
L 91.3 186.182188 
" style="fill: none; stroke: #ffb000; stroke-width: 1.5; stroke-linecap: square"/>
    </g>
    <g id="text_18">
     <!-- $\alpha=2.0$ -->
     <g transform="translate(99.3 189.682188) scale(0.1 -0.1)">
      <use xlink:href="#DejaVuSans-Oblique-3b1" transform="translate(0 0.78125)"/>
      <use xlink:href="#DejaVuSans-3d" transform="translate(85.400391 0.78125)"/>
      <use xlink:href="#DejaVuSans-32" transform="translate(188.671875 0.78125)"/>
      <use xlink:href="#DejaVuSans-2e" transform="translate(252.294922 0.78125)"/>
      <use xlink:href="#DejaVuSans-30" transform="translate(284.082031 0.78125)"/>
     </g>
    </g>
    <g id="line2d_23">
     <path d="M 71.3 200.860313 
L 81.3 200.860313 
L 91.3 200.860313 
" style="fill: none; stroke-dasharray: 3.7,1.6; stroke-dashoffset: 0; stroke: #000000"/>
    </g>
    <g id="text_19">
     <!-- Равномерное распр. -->
     <g transform="translate(99.3 204.360313) scale(0.1 -0.1)">
      <defs>
       <path id="DejaVuSans-420" d="M 1259 4147 
L 1259 2394 
L 2053 2394 
Q 2494 2394 2734 2622 
Q 2975 2850 2975 3272 
Q 2975 3691 2734 3919 
Q 2494 4147 2053 4147 
L 1259 4147 
z
M 628 4666 
L 2053 4666 
Q 2838 4666 3239 4311 
Q 3641 3956 3641 3272 
Q 3641 2581 3239 2228 
Q 2838 1875 2053 1875 
L 1259 1875 
L 1259 0 
L 628 0 
L 628 4666 
z
" transform="scale(0.015625)"/>
       <path id="DejaVuSans-432" d="M 1156 1613 
L 1156 459 
L 1975 459 
Q 2369 459 2575 607 
Q 2781 756 2781 1038 
Q 2781 1319 2575 1466 
Q 2369 1613 1975 1613 
L 1156 1613 
z
M 1156 3041 
L 1156 2072 
L 1913 2072 
Q 2238 2072 2444 2201 
Q 2650 2331 2650 2563 
Q 2650 2794 2444 2917 
Q 2238 3041 1913 3041 
L 1156 3041 
z
M 581 3500 
L 1950 3500 
Q 2566 3500 2897 3275 
Q 3228 3050 3228 2634 
Q 3228 2313 3059 2123 
Q 2891 1934 2559 1888 
Q 2956 1813 3175 1575 
Q 3394 1338 3394 981 
Q 3394 513 3033 256 
Q 2672 0 2003 0 
L 581 0 
L 581 3500 
z
" transform="scale(0.015625)"/>
       <path id="DejaVuSans-43f" d="M 3603 3500 
L 3603 0 
L 3025 0 
L 3025 3041 
L 1159 3041 
L 1159 0 
L 581 0 
L 581 3500 
L 3603 3500 
z
" transform="scale(0.015625)"/>
      </defs>
      <use xlink:href="#DejaVuSans-420"/>
      <use xlink:href="#DejaVuSans-430" transform="translate(60.302734 0)"/>
      <use xlink:href="#DejaVuSans-432" transform="translate(121.582031 0)"/>
      <use xlink:href="#DejaVuSans-43d" transform="translate(180.517578 0)"/>
      <use xlink:href="#DejaVuSans-43e" transform="translate(245.898438 0)"/>
      <use xlink:href="#DejaVuSans-43c" transform="translate(307.080078 0)"/>
      <use xlink:href="#DejaVuSans-435" transform="translate(382.519531 0)"/>
      <use xlink:href="#DejaVuSans-440" transform="translate(444.042969 0)"/>
      <use xlink:href="#DejaVuSans-43d" transform="translate(507.519531 0)"/>
      <use xlink:href="#DejaVuSans-43e" transform="translate(572.900391 0)"/>
      <use xlink:href="#DejaVuSans-435" transform="translate(634.082031 0)"/>
      <use xlink:href="#DejaVuSans-20" transform="translate(695.605469 0)"/>
      <use xlink:href="#DejaVuSans-440" transform="translate(727.392578 0)"/>
      <use xlink:href="#DejaVuSans-430" transform="translate(790.869141 0)"/>
      <use xlink:href="#DejaVuSans-441" transform="translate(852.148438 0)"/>
      <use xlink:href="#DejaVuSans-43f" transform="translate(907.128906 0)"/>
      <use xlink:href="#DejaVuSans-440" transform="translate(972.509766 0)"/>
      <use xlink:href="#DejaVuSans-2e" transform="translate(1035.986328 0)"/>
     </g>
    </g>
   </g>
  </g>
  <g id="axes_2">
   <g id="patch_8">
    <path d="M 520.76 215.44 
L 921.921522 215.44 
L 921.921522 10.8 
L 520.76 10.8 
z
" style="fill: #ffffff"/>
   </g>
   <g id="matplotlib.axis_3">
    <g id="xtick_7">
     <g id="line2d_24">
      <g>
       <use xlink:href="#m6801bd8846" x="538.994615" y="215.44" style="stroke: #000000; stroke-width: 0.8"/>
      </g>
     </g>
     <g id="text_20">
      <!-- 0 -->
      <g transform="translate(535.813365 230.038438) scale(0.1 -0.1)">
       <use xlink:href="#DejaVuSans-30"/>
      </g>
     </g>
    </g>
    <g id="xtick_8">
     <g id="line2d_25">
      <g>
       <use xlink:href="#m6801bd8846" x="614.972176" y="215.44" style="stroke: #000000; stroke-width: 0.8"/>
      </g>
     </g>
     <g id="text_21">
      <!-- 5 -->
      <g transform="translate(611.790926 230.038438) scale(0.1 -0.1)">
       <use xlink:href="#DejaVuSans-35"/>
      </g>
     </g>
    </g>
    <g id="xtick_9">
     <g id="line2d_26">
      <g>
       <use xlink:href="#m6801bd8846" x="690.949737" y="215.44" style="stroke: #000000; stroke-width: 0.8"/>
      </g>
     </g>
     <g id="text_22">
      <!-- 10 -->
      <g transform="translate(684.587237 230.038438) scale(0.1 -0.1)">
       <use xlink:href="#DejaVuSans-31"/>
       <use xlink:href="#DejaVuSans-30" transform="translate(63.623047 0)"/>
      </g>
     </g>
    </g>
    <g id="xtick_10">
     <g id="line2d_27">
      <g>
       <use xlink:href="#m6801bd8846" x="766.927297" y="215.44" style="stroke: #000000; stroke-width: 0.8"/>
      </g>
     </g>
     <g id="text_23">
      <!-- 15 -->
      <g transform="translate(760.564797 230.038438) scale(0.1 -0.1)">
       <use xlink:href="#DejaVuSans-31"/>
       <use xlink:href="#DejaVuSans-35" transform="translate(63.623047 0)"/>
      </g>
     </g>
    </g>
    <g id="xtick_11">
     <g id="line2d_28">
      <g>
       <use xlink:href="#m6801bd8846" x="842.904858" y="215.44" style="stroke: #000000; stroke-width: 0.8"/>
      </g>
     </g>
     <g id="text_24">
      <!-- 20 -->
      <g transform="translate(836.542358 230.038438) scale(0.1 -0.1)">
       <use xlink:href="#DejaVuSans-32"/>
       <use xlink:href="#DejaVuSans-30" transform="translate(63.623047 0)"/>
      </g>
     </g>
    </g>
    <g id="xtick_12">
     <g id="line2d_29">
      <g>
       <use xlink:href="#m6801bd8846" x="918.882419" y="215.44" style="stroke: #000000; stroke-width: 0.8"/>
      </g>
     </g>
     <g id="text_25">
      <!-- 25 -->
      <g transform="translate(912.519919 230.038438) scale(0.1 -0.1)">
       <use xlink:href="#DejaVuSans-32"/>
       <use xlink:href="#DejaVuSans-35" transform="translate(63.623047 0)"/>
      </g>
     </g>
    </g>
    <g id="text_26">
     <!-- Номер слоя -->
     <g transform="translate(690.897011 243.716563) scale(0.1 -0.1)">
      <use xlink:href="#DejaVuSans-41d"/>
      <use xlink:href="#DejaVuSans-43e" transform="translate(75.195312 0)"/>
      <use xlink:href="#DejaVuSans-43c" transform="translate(136.376953 0)"/>
      <use xlink:href="#DejaVuSans-435" transform="translate(211.816406 0)"/>
      <use xlink:href="#DejaVuSans-440" transform="translate(273.339844 0)"/>
      <use xlink:href="#DejaVuSans-20" transform="translate(336.816406 0)"/>
      <use xlink:href="#DejaVuSans-441" transform="translate(368.603516 0)"/>
      <use xlink:href="#DejaVuSans-43b" transform="translate(423.583984 0)"/>
      <use xlink:href="#DejaVuSans-43e" transform="translate(487.5 0)"/>
      <use xlink:href="#DejaVuSans-44f" transform="translate(548.681641 0)"/>
     </g>
    </g>
   </g>
   <g id="matplotlib.axis_4">
    <g id="ytick_6">
     <g id="line2d_30">
      <g>
       <use xlink:href="#m1f0ff4f3cb" x="520.76" y="206.138182" style="stroke: #000000; stroke-width: 0.8"/>
      </g>
     </g>
     <g id="text_27">
      <!-- 0.00 -->
      <g transform="translate(491.494375 209.937401) scale(0.1 -0.1)">
       <use xlink:href="#DejaVuSans-30"/>
       <use xlink:href="#DejaVuSans-2e" transform="translate(63.623047 0)"/>
       <use xlink:href="#DejaVuSans-30" transform="translate(95.410156 0)"/>
       <use xlink:href="#DejaVuSans-30" transform="translate(159.033203 0)"/>
      </g>
     </g>
    </g>
    <g id="ytick_7">
     <g id="line2d_31">
      <g>
       <use xlink:href="#m1f0ff4f3cb" x="520.76" y="179.388836" style="stroke: #000000; stroke-width: 0.8"/>
      </g>
     </g>
     <g id="text_28">
      <!-- 0.02 -->
      <g transform="translate(491.494375 183.188054) scale(0.1 -0.1)">
       <use xlink:href="#DejaVuSans-30"/>
       <use xlink:href="#DejaVuSans-2e" transform="translate(63.623047 0)"/>
       <use xlink:href="#DejaVuSans-30" transform="translate(95.410156 0)"/>
       <use xlink:href="#DejaVuSans-32" transform="translate(159.033203 0)"/>
      </g>
     </g>
    </g>
    <g id="ytick_8">
     <g id="line2d_32">
      <g>
       <use xlink:href="#m1f0ff4f3cb" x="520.76" y="152.63949" style="stroke: #000000; stroke-width: 0.8"/>
      </g>
     </g>
     <g id="text_29">
      <!-- 0.04 -->
      <g transform="translate(491.494375 156.438708) scale(0.1 -0.1)">
       <use xlink:href="#DejaVuSans-30"/>
       <use xlink:href="#DejaVuSans-2e" transform="translate(63.623047 0)"/>
       <use xlink:href="#DejaVuSans-30" transform="translate(95.410156 0)"/>
       <use xlink:href="#DejaVuSans-34" transform="translate(159.033203 0)"/>
      </g>
     </g>
    </g>
    <g id="ytick_9">
     <g id="line2d_33">
      <g>
       <use xlink:href="#m1f0ff4f3cb" x="520.76" y="125.890143" style="stroke: #000000; stroke-width: 0.8"/>
      </g>
     </g>
     <g id="text_30">
      <!-- 0.06 -->
      <g transform="translate(491.494375 129.689362) scale(0.1 -0.1)">
       <defs>
        <path id="DejaVuSans-36" d="M 2113 2584 
Q 1688 2584 1439 2293 
Q 1191 2003 1191 1497 
Q 1191 994 1439 701 
Q 1688 409 2113 409 
Q 2538 409 2786 701 
Q 3034 994 3034 1497 
Q 3034 2003 2786 2293 
Q 2538 2584 2113 2584 
z
M 3366 4563 
L 3366 3988 
Q 3128 4100 2886 4159 
Q 2644 4219 2406 4219 
Q 1781 4219 1451 3797 
Q 1122 3375 1075 2522 
Q 1259 2794 1537 2939 
Q 1816 3084 2150 3084 
Q 2853 3084 3261 2657 
Q 3669 2231 3669 1497 
Q 3669 778 3244 343 
Q 2819 -91 2113 -91 
Q 1303 -91 875 529 
Q 447 1150 447 2328 
Q 447 3434 972 4092 
Q 1497 4750 2381 4750 
Q 2619 4750 2861 4703 
Q 3103 4656 3366 4563 
z
" transform="scale(0.015625)"/>
       </defs>
       <use xlink:href="#DejaVuSans-30"/>
       <use xlink:href="#DejaVuSans-2e" transform="translate(63.623047 0)"/>
       <use xlink:href="#DejaVuSans-30" transform="translate(95.410156 0)"/>
       <use xlink:href="#DejaVuSans-36" transform="translate(159.033203 0)"/>
      </g>
     </g>
    </g>
    <g id="ytick_10">
     <g id="line2d_34">
      <g>
       <use xlink:href="#m1f0ff4f3cb" x="520.76" y="99.140797" style="stroke: #000000; stroke-width: 0.8"/>
      </g>
     </g>
     <g id="text_31">
      <!-- 0.08 -->
      <g transform="translate(491.494375 102.940016) scale(0.1 -0.1)">
       <defs>
        <path id="DejaVuSans-38" d="M 2034 2216 
Q 1584 2216 1326 1975 
Q 1069 1734 1069 1313 
Q 1069 891 1326 650 
Q 1584 409 2034 409 
Q 2484 409 2743 651 
Q 3003 894 3003 1313 
Q 3003 1734 2745 1975 
Q 2488 2216 2034 2216 
z
M 1403 2484 
Q 997 2584 770 2862 
Q 544 3141 544 3541 
Q 544 4100 942 4425 
Q 1341 4750 2034 4750 
Q 2731 4750 3128 4425 
Q 3525 4100 3525 3541 
Q 3525 3141 3298 2862 
Q 3072 2584 2669 2484 
Q 3125 2378 3379 2068 
Q 3634 1759 3634 1313 
Q 3634 634 3220 271 
Q 2806 -91 2034 -91 
Q 1263 -91 848 271 
Q 434 634 434 1313 
Q 434 1759 690 2068 
Q 947 2378 1403 2484 
z
M 1172 3481 
Q 1172 3119 1398 2916 
Q 1625 2713 2034 2713 
Q 2441 2713 2670 2916 
Q 2900 3119 2900 3481 
Q 2900 3844 2670 4047 
Q 2441 4250 2034 4250 
Q 1625 4250 1398 4047 
Q 1172 3844 1172 3481 
z
" transform="scale(0.015625)"/>
       </defs>
       <use xlink:href="#DejaVuSans-30"/>
       <use xlink:href="#DejaVuSans-2e" transform="translate(63.623047 0)"/>
       <use xlink:href="#DejaVuSans-30" transform="translate(95.410156 0)"/>
       <use xlink:href="#DejaVuSans-38" transform="translate(159.033203 0)"/>
      </g>
     </g>
    </g>
    <g id="ytick_11">
     <g id="line2d_35">
      <g>
       <use xlink:href="#m1f0ff4f3cb" x="520.76" y="72.391451" style="stroke: #000000; stroke-width: 0.8"/>
      </g>
     </g>
     <g id="text_32">
      <!-- 0.10 -->
      <g transform="translate(491.494375 76.19067) scale(0.1 -0.1)">
       <use xlink:href="#DejaVuSans-30"/>
       <use xlink:href="#DejaVuSans-2e" transform="translate(63.623047 0)"/>
       <use xlink:href="#DejaVuSans-31" transform="translate(95.410156 0)"/>
       <use xlink:href="#DejaVuSans-30" transform="translate(159.033203 0)"/>
      </g>
     </g>
    </g>
    <g id="ytick_12">
     <g id="line2d_36">
      <g>
       <use xlink:href="#m1f0ff4f3cb" x="520.76" y="45.642105" style="stroke: #000000; stroke-width: 0.8"/>
      </g>
     </g>
     <g id="text_33">
      <!-- 0.12 -->
      <g transform="translate(491.494375 49.441324) scale(0.1 -0.1)">
       <use xlink:href="#DejaVuSans-30"/>
       <use xlink:href="#DejaVuSans-2e" transform="translate(63.623047 0)"/>
       <use xlink:href="#DejaVuSans-31" transform="translate(95.410156 0)"/>
       <use xlink:href="#DejaVuSans-32" transform="translate(159.033203 0)"/>
      </g>
     </g>
    </g>
    <g id="ytick_13">
     <g id="line2d_37">
      <g>
       <use xlink:href="#m1f0ff4f3cb" x="520.76" y="18.892759" style="stroke: #000000; stroke-width: 0.8"/>
      </g>
     </g>
     <g id="text_34">
      <!-- 0.14 -->
      <g transform="translate(491.494375 22.691978) scale(0.1 -0.1)">
       <use xlink:href="#DejaVuSans-30"/>
       <use xlink:href="#DejaVuSans-2e" transform="translate(63.623047 0)"/>
       <use xlink:href="#DejaVuSans-31" transform="translate(95.410156 0)"/>
       <use xlink:href="#DejaVuSans-34" transform="translate(159.033203 0)"/>
      </g>
     </g>
    </g>
    <g id="text_35">
     <!-- Относительная частота рождений -->
     <g transform="translate(485.414688 204.700469) rotate(-90) scale(0.1 -0.1)">
      <use xlink:href="#DejaVuSans-41e"/>
      <use xlink:href="#DejaVuSans-442" transform="translate(78.710938 0)"/>
      <use xlink:href="#DejaVuSans-43d" transform="translate(136.962891 0)"/>
      <use xlink:href="#DejaVuSans-43e" transform="translate(202.34375 0)"/>
      <use xlink:href="#DejaVuSans-441" transform="translate(263.525391 0)"/>
      <use xlink:href="#DejaVuSans-438" transform="translate(318.505859 0)"/>
      <use xlink:href="#DejaVuSans-442" transform="translate(383.496094 0)"/>
      <use xlink:href="#DejaVuSans-435" transform="translate(441.748047 0)"/>
      <use xlink:href="#DejaVuSans-43b" transform="translate(503.271484 0)"/>
      <use xlink:href="#DejaVuSans-44c" transform="translate(567.1875 0)"/>
      <use xlink:href="#DejaVuSans-43d" transform="translate(626.123047 0)"/>
      <use xlink:href="#DejaVuSans-430" transform="translate(691.503906 0)"/>
      <use xlink:href="#DejaVuSans-44f" transform="translate(752.783203 0)"/>
      <use xlink:href="#DejaVuSans-20" transform="translate(812.939453 0)"/>
      <use xlink:href="#DejaVuSans-447" transform="translate(844.726562 0)"/>
      <use xlink:href="#DejaVuSans-430" transform="translate(903.808594 0)"/>
      <use xlink:href="#DejaVuSans-441" transform="translate(965.087891 0)"/>
      <use xlink:href="#DejaVuSans-442" transform="translate(1020.068359 0)"/>
      <use xlink:href="#DejaVuSans-43e" transform="translate(1078.320312 0)"/>
      <use xlink:href="#DejaVuSans-442" transform="translate(1139.501953 0)"/>
      <use xlink:href="#DejaVuSans-430" transform="translate(1197.753906 0)"/>
      <use xlink:href="#DejaVuSans-20" transform="translate(1259.033203 0)"/>
      <use xlink:href="#DejaVuSans-440" transform="translate(1290.820312 0)"/>
      <use xlink:href="#DejaVuSans-43e" transform="translate(1354.296875 0)"/>
      <use xlink:href="#DejaVuSans-436" transform="translate(1415.478516 0)"/>
      <use xlink:href="#DejaVuSans-434" transform="translate(1505.566406 0)"/>
      <use xlink:href="#DejaVuSans-435" transform="translate(1574.707031 0)"/>
      <use xlink:href="#DejaVuSans-43d" transform="translate(1636.230469 0)"/>
      <use xlink:href="#DejaVuSans-438" transform="translate(1701.611328 0)"/>
      <use xlink:href="#DejaVuSans-439" transform="translate(1766.601562 0)"/>
     </g>
    </g>
   </g>
   <g id="line2d_38">
    <path d="M 538.994615 206.138182 
L 554.190127 26.177026 
L 569.385639 45.522899 
L 584.581151 65.737664 
L 599.776663 109.740829 
L 614.972176 120.585605 
L 630.167688 136.296919 
L 645.3632 137.436945 
L 660.558712 139.471882 
L 675.754224 142.541613 
L 690.949737 150.932155 
L 706.145249 159.730121 
L 721.340761 162.366894 
L 736.536273 178.927313 
L 751.731785 182.403769 
L 766.927297 187.975956 
L 782.12281 189.271414 
L 797.318322 189.709077 
L 812.513834 183.9424 
L 827.709346 180.570165 
L 842.904858 174.879786 
L 858.100371 169.179966 
L 873.295883 186.573128 
L 888.491395 183.737349 
L 903.686907 206.138182 
" clip-path="url(#p7e204e3706)" style="fill: none; stroke: #648fff; stroke-width: 1.5; stroke-linecap: square"/>
   </g>
   <g id="line2d_39">
    <path d="M 538.994615 206.138182 
L 554.190127 98.555915 
L 569.385639 100.29721 
L 584.581151 92.127601 
L 599.776663 122.755089 
L 614.972176 118.560699 
L 630.167688 131.50781 
L 645.3632 127.600956 
L 660.558712 127.12039 
L 675.754224 130.043996 
L 690.949737 139.190822 
L 706.145249 148.767944 
L 721.340761 149.029339 
L 736.536273 172.339768 
L 751.731785 171.342445 
L 766.927297 181.705763 
L 782.12281 182.5744 
L 797.318322 179.841814 
L 812.513834 168.58774 
L 827.709346 166.168828 
L 842.904858 155.451621 
L 858.100371 172.566981 
L 873.295883 183.235931 
L 888.491395 184.337813 
L 903.686907 206.138182 
" clip-path="url(#p7e204e3706)" style="fill: none; stroke: #785ef0; stroke-width: 1.5; stroke-linecap: square"/>
   </g>
   <g id="line2d_40">
    <path d="M 538.994615 206.138182 
L 554.190127 140.070028 
L 569.385639 137.842207 
L 584.581151 120.423139 
L 599.776663 139.367755 
L 614.972176 126.821683 
L 630.167688 134.216863 
L 645.3632 125.444192 
L 660.558712 120.409452 
L 675.754224 121.437411 
L 690.949737 130.271624 
L 706.145249 140.022434 
L 721.340761 137.706923 
L 736.536273 166.131396 
L 751.731785 161.292632 
L 766.927297 175.537271 
L 782.12281 176.619027 
L 797.318322 170.508812 
L 812.513834 153.158442 
L 827.709346 150.49955 
L 842.904858 132.746188 
L 858.100371 176.039462 
L 873.295883 181.981276 
L 888.491395 185.163111 
L 903.686907 206.138182 
" clip-path="url(#p7e204e3706)" style="fill: none; stroke: #dc267f; stroke-width: 1.5; stroke-linecap: square"/>
   </g>
   <g id="line2d_41">
    <path d="M 538.994615 206.138182 
L 554.190127 171.717948 
L 569.385639 169.106026 
L 584.581151 150.814272 
L 599.776663 159.721171 
L 614.972176 143.062389 
L 630.167688 143.935297 
L 645.3632 130.507606 
L 660.558712 119.286476 
L 675.754224 116.620298 
L 690.949737 123.69959 
L 706.145249 132.666498 
L 721.340761 126.747864 
L 736.536273 159.59851 
L 751.731785 149.982954 
L 766.927297 168.309054 
L 782.12281 170.081722 
L 797.318322 159.550243 
L 812.513834 134.055415 
L 827.709346 129.505293 
L 842.904858 99.651622 
L 858.100371 179.03 
L 873.295883 180.567896 
L 888.491395 185.492732 
L 903.686907 206.138182 
" clip-path="url(#p7e204e3706)" style="fill: none; stroke: #fe6100; stroke-width: 1.5; stroke-linecap: square"/>
   </g>
   <g id="line2d_42">
    <path d="M 538.994615 206.138182 
L 554.190127 200.128395 
L 569.385639 199.193265 
L 584.581151 190.417644 
L 599.776663 190.385648 
L 614.972176 178.167941 
L 630.167688 172.335668 
L 645.3632 156.565982 
L 660.558712 136.741716 
L 675.754224 125.093422 
L 690.949737 124.777179 
L 706.145249 128.855405 
L 721.340761 115.202111 
L 736.536273 150.560651 
L 751.731785 131.768904 
L 766.927297 155.884002 
L 782.12281 160.06762 
L 797.318322 141.325946 
L 812.513834 99.689125 
L 827.709346 85.797923 
L 842.904858 20.101818 
L 858.100371 180.107255 
L 873.295883 176.395877 
L 888.491395 184.147378 
L 903.686907 206.138182 
" clip-path="url(#p7e204e3706)" style="fill: none; stroke: #ffb000; stroke-width: 1.5; stroke-linecap: square"/>
   </g>
   <g id="line2d_43">
    <path d="M 520.76 152.63949 
L 921.921522 152.63949 
" clip-path="url(#p7e204e3706)" style="fill: none; stroke-dasharray: 3.7,1.6; stroke-dashoffset: 0; stroke: #000000"/>
   </g>
   <g id="patch_9">
    <path d="M 520.76 215.44 
L 520.76 10.8 
" style="fill: none; stroke: #000000; stroke-width: 0.8; stroke-linejoin: miter; stroke-linecap: square"/>
   </g>
   <g id="patch_10">
    <path d="M 921.921522 215.44 
L 921.921522 10.8 
" style="fill: none; stroke: #000000; stroke-width: 0.8; stroke-linejoin: miter; stroke-linecap: square"/>
   </g>
   <g id="patch_11">
    <path d="M 520.76 215.44 
L 921.921522 215.44 
" style="fill: none; stroke: #000000; stroke-width: 0.8; stroke-linejoin: miter; stroke-linecap: square"/>
   </g>
   <g id="patch_12">
    <path d="M 520.76 10.8 
L 921.921522 10.8 
" style="fill: none; stroke: #000000; stroke-width: 0.8; stroke-linejoin: miter; stroke-linecap: square"/>
   </g>
   <g id="legend_2">
    <g id="patch_13">
     <path d="M 651.950917 106.86875 
L 790.730605 106.86875 
Q 792.730605 106.86875 792.730605 104.86875 
L 792.730605 17.8 
Q 792.730605 15.8 790.730605 15.8 
L 651.950917 15.8 
Q 649.950917 15.8 649.950917 17.8 
L 649.950917 104.86875 
Q 649.950917 106.86875 651.950917 106.86875 
z
" style="fill: #ffffff; opacity: 0.8; stroke: #cccccc; stroke-linejoin: miter"/>
    </g>
    <g id="line2d_44">
     <path d="M 653.950917 23.898438 
L 663.950917 23.898438 
L 673.950917 23.898438 
" style="fill: none; stroke: #648fff; stroke-width: 1.5; stroke-linecap: square"/>
    </g>
    <g id="text_36">
     <!-- $\alpha=-1.0$ -->
     <g transform="translate(681.950917 27.398438) scale(0.1 -0.1)">
      <use xlink:href="#DejaVuSans-Oblique-3b1" transform="translate(0 0.78125)"/>
      <use xlink:href="#DejaVuSans-3d" transform="translate(85.400391 0.78125)"/>
      <use xlink:href="#DejaVuSans-2212" transform="translate(188.671875 0.78125)"/>
      <use xlink:href="#DejaVuSans-31" transform="translate(272.460938 0.78125)"/>
      <use xlink:href="#DejaVuSans-2e" transform="translate(336.083984 0.78125)"/>
      <use xlink:href="#DejaVuSans-30" transform="translate(367.871094 0.78125)"/>
     </g>
    </g>
    <g id="line2d_45">
     <path d="M 653.950917 38.576563 
L 663.950917 38.576563 
L 673.950917 38.576563 
" style="fill: none; stroke: #785ef0; stroke-width: 1.5; stroke-linecap: square"/>
    </g>
    <g id="text_37">
     <!-- $\alpha=0.0$ -->
     <g transform="translate(681.950917 42.076563) scale(0.1 -0.1)">
      <use xlink:href="#DejaVuSans-Oblique-3b1" transform="translate(0 0.78125)"/>
      <use xlink:href="#DejaVuSans-3d" transform="translate(85.400391 0.78125)"/>
      <use xlink:href="#DejaVuSans-30" transform="translate(188.671875 0.78125)"/>
      <use xlink:href="#DejaVuSans-2e" transform="translate(252.294922 0.78125)"/>
      <use xlink:href="#DejaVuSans-30" transform="translate(284.082031 0.78125)"/>
     </g>
    </g>
    <g id="line2d_46">
     <path d="M 653.950917 53.254687 
L 663.950917 53.254687 
L 673.950917 53.254687 
" style="fill: none; stroke: #dc267f; stroke-width: 1.5; stroke-linecap: square"/>
    </g>
    <g id="text_38">
     <!-- $\alpha=0.5$ -->
     <g transform="translate(681.950917 56.754687) scale(0.1 -0.1)">
      <use xlink:href="#DejaVuSans-Oblique-3b1" transform="translate(0 0.78125)"/>
      <use xlink:href="#DejaVuSans-3d" transform="translate(85.400391 0.78125)"/>
      <use xlink:href="#DejaVuSans-30" transform="translate(188.671875 0.78125)"/>
      <use xlink:href="#DejaVuSans-2e" transform="translate(252.294922 0.78125)"/>
      <use xlink:href="#DejaVuSans-35" transform="translate(284.082031 0.78125)"/>
     </g>
    </g>
    <g id="line2d_47">
     <path d="M 653.950917 67.932813 
L 663.950917 67.932813 
L 673.950917 67.932813 
" style="fill: none; stroke: #fe6100; stroke-width: 1.5; stroke-linecap: square"/>
    </g>
    <g id="text_39">
     <!-- $\alpha=1.0$ -->
     <g transform="translate(681.950917 71.432813) scale(0.1 -0.1)">
      <use xlink:href="#DejaVuSans-Oblique-3b1" transform="translate(0 0.78125)"/>
      <use xlink:href="#DejaVuSans-3d" transform="translate(85.400391 0.78125)"/>
      <use xlink:href="#DejaVuSans-31" transform="translate(188.671875 0.78125)"/>
      <use xlink:href="#DejaVuSans-2e" transform="translate(252.294922 0.78125)"/>
      <use xlink:href="#DejaVuSans-30" transform="translate(284.082031 0.78125)"/>
     </g>
    </g>
    <g id="line2d_48">
     <path d="M 653.950917 82.610937 
L 663.950917 82.610937 
L 673.950917 82.610937 
" style="fill: none; stroke: #ffb000; stroke-width: 1.5; stroke-linecap: square"/>
    </g>
    <g id="text_40">
     <!-- $\alpha=2.0$ -->
     <g transform="translate(681.950917 86.110937) scale(0.1 -0.1)">
      <use xlink:href="#DejaVuSans-Oblique-3b1" transform="translate(0 0.78125)"/>
      <use xlink:href="#DejaVuSans-3d" transform="translate(85.400391 0.78125)"/>
      <use xlink:href="#DejaVuSans-32" transform="translate(188.671875 0.78125)"/>
      <use xlink:href="#DejaVuSans-2e" transform="translate(252.294922 0.78125)"/>
      <use xlink:href="#DejaVuSans-30" transform="translate(284.082031 0.78125)"/>
     </g>
    </g>
    <g id="line2d_49">
     <path d="M 653.950917 97.289062 
L 663.950917 97.289062 
L 673.950917 97.289062 
" style="fill: none; stroke-dasharray: 3.7,1.6; stroke-dashoffset: 0; stroke: #000000"/>
    </g>
    <g id="text_41">
     <!-- Равномерное распр. -->
     <g transform="translate(681.950917 100.789062) scale(0.1 -0.1)">
      <use xlink:href="#DejaVuSans-420"/>
      <use xlink:href="#DejaVuSans-430" transform="translate(60.302734 0)"/>
      <use xlink:href="#DejaVuSans-432" transform="translate(121.582031 0)"/>
      <use xlink:href="#DejaVuSans-43d" transform="translate(180.517578 0)"/>
      <use xlink:href="#DejaVuSans-43e" transform="translate(245.898438 0)"/>
      <use xlink:href="#DejaVuSans-43c" transform="translate(307.080078 0)"/>
      <use xlink:href="#DejaVuSans-435" transform="translate(382.519531 0)"/>
      <use xlink:href="#DejaVuSans-440" transform="translate(444.042969 0)"/>
      <use xlink:href="#DejaVuSans-43d" transform="translate(507.519531 0)"/>
      <use xlink:href="#DejaVuSans-43e" transform="translate(572.900391 0)"/>
      <use xlink:href="#DejaVuSans-435" transform="translate(634.082031 0)"/>
      <use xlink:href="#DejaVuSans-20" transform="translate(695.605469 0)"/>
      <use xlink:href="#DejaVuSans-440" transform="translate(727.392578 0)"/>
      <use xlink:href="#DejaVuSans-430" transform="translate(790.869141 0)"/>
      <use xlink:href="#DejaVuSans-441" transform="translate(852.148438 0)"/>
      <use xlink:href="#DejaVuSans-43f" transform="translate(907.128906 0)"/>
      <use xlink:href="#DejaVuSans-440" transform="translate(972.509766 0)"/>
      <use xlink:href="#DejaVuSans-2e" transform="translate(1035.986328 0)"/>
     </g>
    </g>
   </g>
  </g>
  <g id="axes_3">
   <g id="patch_14">
    <path d="M 62.3 462.04 
L 463.461522 462.04 
L 463.461522 257.4 
L 62.3 257.4 
z
" style="fill: #ffffff"/>
   </g>
   <g id="matplotlib.axis_5">
    <g id="xtick_13">
     <g id="line2d_50">
      <g>
       <use xlink:href="#m6801bd8846" x="80.534615" y="462.04" style="stroke: #000000; stroke-width: 0.8"/>
      </g>
     </g>
     <g id="text_42">
      <!-- 0 -->
      <g transform="translate(77.353365 476.638438) scale(0.1 -0.1)">
       <use xlink:href="#DejaVuSans-30"/>
      </g>
     </g>
    </g>
    <g id="xtick_14">
     <g id="line2d_51">
      <g>
       <use xlink:href="#m6801bd8846" x="156.512176" y="462.04" style="stroke: #000000; stroke-width: 0.8"/>
      </g>
     </g>
     <g id="text_43">
      <!-- 5 -->
      <g transform="translate(153.330926 476.638438) scale(0.1 -0.1)">
       <use xlink:href="#DejaVuSans-35"/>
      </g>
     </g>
    </g>
    <g id="xtick_15">
     <g id="line2d_52">
      <g>
       <use xlink:href="#m6801bd8846" x="232.489737" y="462.04" style="stroke: #000000; stroke-width: 0.8"/>
      </g>
     </g>
     <g id="text_44">
      <!-- 10 -->
      <g transform="translate(226.127237 476.638438) scale(0.1 -0.1)">
       <use xlink:href="#DejaVuSans-31"/>
       <use xlink:href="#DejaVuSans-30" transform="translate(63.623047 0)"/>
      </g>
     </g>
    </g>
    <g id="xtick_16">
     <g id="line2d_53">
      <g>
       <use xlink:href="#m6801bd8846" x="308.467297" y="462.04" style="stroke: #000000; stroke-width: 0.8"/>
      </g>
     </g>
     <g id="text_45">
      <!-- 15 -->
      <g transform="translate(302.104797 476.638438) scale(0.1 -0.1)">
       <use xlink:href="#DejaVuSans-31"/>
       <use xlink:href="#DejaVuSans-35" transform="translate(63.623047 0)"/>
      </g>
     </g>
    </g>
    <g id="xtick_17">
     <g id="line2d_54">
      <g>
       <use xlink:href="#m6801bd8846" x="384.444858" y="462.04" style="stroke: #000000; stroke-width: 0.8"/>
      </g>
     </g>
     <g id="text_46">
      <!-- 20 -->
      <g transform="translate(378.082358 476.638438) scale(0.1 -0.1)">
       <use xlink:href="#DejaVuSans-32"/>
       <use xlink:href="#DejaVuSans-30" transform="translate(63.623047 0)"/>
      </g>
     </g>
    </g>
    <g id="xtick_18">
     <g id="line2d_55">
      <g>
       <use xlink:href="#m6801bd8846" x="460.422419" y="462.04" style="stroke: #000000; stroke-width: 0.8"/>
      </g>
     </g>
     <g id="text_47">
      <!-- 25 -->
      <g transform="translate(454.059919 476.638438) scale(0.1 -0.1)">
       <use xlink:href="#DejaVuSans-32"/>
       <use xlink:href="#DejaVuSans-35" transform="translate(63.623047 0)"/>
      </g>
     </g>
    </g>
    <g id="text_48">
     <!-- Номер слоя -->
     <g transform="translate(232.437011 490.316563) scale(0.1 -0.1)">
      <use xlink:href="#DejaVuSans-41d"/>
      <use xlink:href="#DejaVuSans-43e" transform="translate(75.195312 0)"/>
      <use xlink:href="#DejaVuSans-43c" transform="translate(136.376953 0)"/>
      <use xlink:href="#DejaVuSans-435" transform="translate(211.816406 0)"/>
      <use xlink:href="#DejaVuSans-440" transform="translate(273.339844 0)"/>
      <use xlink:href="#DejaVuSans-20" transform="translate(336.816406 0)"/>
      <use xlink:href="#DejaVuSans-441" transform="translate(368.603516 0)"/>
      <use xlink:href="#DejaVuSans-43b" transform="translate(423.583984 0)"/>
      <use xlink:href="#DejaVuSans-43e" transform="translate(487.5 0)"/>
      <use xlink:href="#DejaVuSans-44f" transform="translate(548.681641 0)"/>
     </g>
    </g>
   </g>
   <g id="matplotlib.axis_6">
    <g id="ytick_14">
     <g id="line2d_56">
      <g>
       <use xlink:href="#m1f0ff4f3cb" x="62.3" y="452.738182" style="stroke: #000000; stroke-width: 0.8"/>
      </g>
     </g>
     <g id="text_49">
      <!-- 0.00 -->
      <g transform="translate(33.034375 456.537401) scale(0.1 -0.1)">
       <use xlink:href="#DejaVuSans-30"/>
       <use xlink:href="#DejaVuSans-2e" transform="translate(63.623047 0)"/>
       <use xlink:href="#DejaVuSans-30" transform="translate(95.410156 0)"/>
       <use xlink:href="#DejaVuSans-30" transform="translate(159.033203 0)"/>
      </g>
     </g>
    </g>
    <g id="ytick_15">
     <g id="line2d_57">
      <g>
       <use xlink:href="#m1f0ff4f3cb" x="62.3" y="418.474367" style="stroke: #000000; stroke-width: 0.8"/>
      </g>
     </g>
     <g id="text_50">
      <!-- 0.05 -->
      <g transform="translate(33.034375 422.273586) scale(0.1 -0.1)">
       <use xlink:href="#DejaVuSans-30"/>
       <use xlink:href="#DejaVuSans-2e" transform="translate(63.623047 0)"/>
       <use xlink:href="#DejaVuSans-30" transform="translate(95.410156 0)"/>
       <use xlink:href="#DejaVuSans-35" transform="translate(159.033203 0)"/>
      </g>
     </g>
    </g>
    <g id="ytick_16">
     <g id="line2d_58">
      <g>
       <use xlink:href="#m1f0ff4f3cb" x="62.3" y="384.210553" style="stroke: #000000; stroke-width: 0.8"/>
      </g>
     </g>
     <g id="text_51">
      <!-- 0.10 -->
      <g transform="translate(33.034375 388.009772) scale(0.1 -0.1)">
       <use xlink:href="#DejaVuSans-30"/>
       <use xlink:href="#DejaVuSans-2e" transform="translate(63.623047 0)"/>
       <use xlink:href="#DejaVuSans-31" transform="translate(95.410156 0)"/>
       <use xlink:href="#DejaVuSans-30" transform="translate(159.033203 0)"/>
      </g>
     </g>
    </g>
    <g id="ytick_17">
     <g id="line2d_59">
      <g>
       <use xlink:href="#m1f0ff4f3cb" x="62.3" y="349.946738" style="stroke: #000000; stroke-width: 0.8"/>
      </g>
     </g>
     <g id="text_52">
      <!-- 0.15 -->
      <g transform="translate(33.034375 353.745957) scale(0.1 -0.1)">
       <use xlink:href="#DejaVuSans-30"/>
       <use xlink:href="#DejaVuSans-2e" transform="translate(63.623047 0)"/>
       <use xlink:href="#DejaVuSans-31" transform="translate(95.410156 0)"/>
       <use xlink:href="#DejaVuSans-35" transform="translate(159.033203 0)"/>
      </g>
     </g>
    </g>
    <g id="ytick_18">
     <g id="line2d_60">
      <g>
       <use xlink:href="#m1f0ff4f3cb" x="62.3" y="315.682924" style="stroke: #000000; stroke-width: 0.8"/>
      </g>
     </g>
     <g id="text_53">
      <!-- 0.20 -->
      <g transform="translate(33.034375 319.482142) scale(0.1 -0.1)">
       <use xlink:href="#DejaVuSans-30"/>
       <use xlink:href="#DejaVuSans-2e" transform="translate(63.623047 0)"/>
       <use xlink:href="#DejaVuSans-32" transform="translate(95.410156 0)"/>
       <use xlink:href="#DejaVuSans-30" transform="translate(159.033203 0)"/>
      </g>
     </g>
    </g>
    <g id="ytick_19">
     <g id="line2d_61">
      <g>
       <use xlink:href="#m1f0ff4f3cb" x="62.3" y="281.419109" style="stroke: #000000; stroke-width: 0.8"/>
      </g>
     </g>
     <g id="text_54">
      <!-- 0.25 -->
      <g transform="translate(33.034375 285.218328) scale(0.1 -0.1)">
       <use xlink:href="#DejaVuSans-30"/>
       <use xlink:href="#DejaVuSans-2e" transform="translate(63.623047 0)"/>
       <use xlink:href="#DejaVuSans-32" transform="translate(95.410156 0)"/>
       <use xlink:href="#DejaVuSans-35" transform="translate(159.033203 0)"/>
      </g>
     </g>
    </g>
    <g id="text_55">
     <!-- Относительная частота рождений -->
     <g transform="translate(26.954688 451.300469) rotate(-90) scale(0.1 -0.1)">
      <use xlink:href="#DejaVuSans-41e"/>
      <use xlink:href="#DejaVuSans-442" transform="translate(78.710938 0)"/>
      <use xlink:href="#DejaVuSans-43d" transform="translate(136.962891 0)"/>
      <use xlink:href="#DejaVuSans-43e" transform="translate(202.34375 0)"/>
      <use xlink:href="#DejaVuSans-441" transform="translate(263.525391 0)"/>
      <use xlink:href="#DejaVuSans-438" transform="translate(318.505859 0)"/>
      <use xlink:href="#DejaVuSans-442" transform="translate(383.496094 0)"/>
      <use xlink:href="#DejaVuSans-435" transform="translate(441.748047 0)"/>
      <use xlink:href="#DejaVuSans-43b" transform="translate(503.271484 0)"/>
      <use xlink:href="#DejaVuSans-44c" transform="translate(567.1875 0)"/>
      <use xlink:href="#DejaVuSans-43d" transform="translate(626.123047 0)"/>
      <use xlink:href="#DejaVuSans-430" transform="translate(691.503906 0)"/>
      <use xlink:href="#DejaVuSans-44f" transform="translate(752.783203 0)"/>
      <use xlink:href="#DejaVuSans-20" transform="translate(812.939453 0)"/>
      <use xlink:href="#DejaVuSans-447" transform="translate(844.726562 0)"/>
      <use xlink:href="#DejaVuSans-430" transform="translate(903.808594 0)"/>
      <use xlink:href="#DejaVuSans-441" transform="translate(965.087891 0)"/>
      <use xlink:href="#DejaVuSans-442" transform="translate(1020.068359 0)"/>
      <use xlink:href="#DejaVuSans-43e" transform="translate(1078.320312 0)"/>
      <use xlink:href="#DejaVuSans-442" transform="translate(1139.501953 0)"/>
      <use xlink:href="#DejaVuSans-430" transform="translate(1197.753906 0)"/>
      <use xlink:href="#DejaVuSans-20" transform="translate(1259.033203 0)"/>
      <use xlink:href="#DejaVuSans-440" transform="translate(1290.820312 0)"/>
      <use xlink:href="#DejaVuSans-43e" transform="translate(1354.296875 0)"/>
      <use xlink:href="#DejaVuSans-436" transform="translate(1415.478516 0)"/>
      <use xlink:href="#DejaVuSans-434" transform="translate(1505.566406 0)"/>
      <use xlink:href="#DejaVuSans-435" transform="translate(1574.707031 0)"/>
      <use xlink:href="#DejaVuSans-43d" transform="translate(1636.230469 0)"/>
      <use xlink:href="#DejaVuSans-438" transform="translate(1701.611328 0)"/>
      <use xlink:href="#DejaVuSans-439" transform="translate(1766.601562 0)"/>
     </g>
    </g>
   </g>
   <g id="line2d_62">
    <path d="M 80.534615 452.738182 
L 95.730127 266.701818 
L 110.925639 386.753524 
L 126.121151 399.151768 
L 141.316663 426.899449 
L 156.512176 427.564131 
L 171.707688 444.507789 
L 186.9032 418.265233 
L 202.098712 420.645119 
L 217.294224 426.205452 
L 232.489737 417.11218 
L 247.685249 425.116132 
L 262.880761 452.738182 
L 278.076273 444.846167 
L 293.271785 444.821293 
L 308.467297 432.838635 
L 323.66281 448.726549 
L 338.858322 444.6269 
L 354.053834 448.622985 
L 369.249346 410.78143 
L 384.444858 444.125271 
L 399.640371 417.013906 
L 414.835883 452.738182 
L 430.031395 426.899798 
L 445.226907 452.738182 
" clip-path="url(#p758ff7a750)" style="fill: none; stroke: #648fff; stroke-width: 1.5; stroke-linecap: square"/>
   </g>
   <g id="line2d_63">
    <path d="M 80.534615 452.738182 
L 95.730127 300.454562 
L 110.925639 393.516774 
L 126.121151 401.976975 
L 141.316663 427.357578 
L 156.512176 427.357578 
L 171.707688 444.277981 
L 186.9032 410.437176 
L 202.098712 418.897377 
L 217.294224 418.897377 
L 232.489737 410.437176 
L 247.685249 418.897377 
L 262.880761 452.738182 
L 278.076273 444.277981 
L 293.271785 444.277981 
L 308.467297 427.357578 
L 323.66281 444.277981 
L 338.858322 444.277981 
L 354.053834 444.277981 
L 369.249346 410.437176 
L 384.444858 444.277981 
L 399.640371 418.897377 
L 414.835883 452.738182 
L 430.031395 427.357578 
L 445.226907 452.738182 
" clip-path="url(#p758ff7a750)" style="fill: none; stroke: #785ef0; stroke-width: 1.5; stroke-linecap: square"/>
   </g>
   <g id="line2d_64">
    <path d="M 80.534615 452.738182 
L 95.730127 326.61425 
L 110.925639 401.42884 
L 126.121151 406.910496 
L 141.316663 428.951683 
L 156.512176 428.140593 
L 171.707688 444.293086 
L 186.9032 400.76399 
L 202.098712 417.350592 
L 217.294224 410.173857 
L 232.489737 403.451875 
L 247.685249 412.263751 
L 262.880761 452.738182 
L 278.076273 443.569067 
L 293.271785 443.635049 
L 308.467297 422.027672 
L 323.66281 440.22678 
L 338.858322 444.075817 
L 354.053834 440.795013 
L 369.249346 411.7422 
L 384.444858 444.809349 
L 399.640371 422.186391 
L 414.835883 452.738182 
L 430.031395 428.81518 
L 445.226907 452.738182 
" clip-path="url(#p758ff7a750)" style="fill: none; stroke: #dc267f; stroke-width: 1.5; stroke-linecap: square"/>
   </g>
   <g id="line2d_65">
    <path d="M 80.534615 452.738182 
L 95.730127 353.554634 
L 110.925639 411.002744 
L 126.121151 414.097053 
L 141.316663 431.924665 
L 156.512176 430.401724 
L 171.707688 444.788575 
L 186.9032 385.276322 
L 202.098712 417.242261 
L 217.294224 397.235469 
L 232.489737 395.50101 
L 247.685249 404.129118 
L 262.880761 452.738182 
L 278.076273 443.016369 
L 293.271785 443.198653 
L 308.467297 415.736374 
L 323.66281 434.990221 
L 338.858322 444.305449 
L 354.053834 436.838967 
L 369.249346 415.510753 
L 384.444858 445.800343 
L 399.640371 426.977429 
L 414.835883 452.738182 
L 430.031395 430.697394 
L 445.226907 452.738182 
" clip-path="url(#p758ff7a750)" style="fill: none; stroke: #fe6100; stroke-width: 1.5; stroke-linecap: square"/>
   </g>
   <g id="line2d_66">
    <path d="M 80.534615 452.738182 
L 95.730127 402.793635 
L 110.925639 430.631879 
L 126.121151 431.083028 
L 141.316663 440.323805 
L 156.512176 438.480085 
L 171.707688 447.28338 
L 186.9032 328.056991 
L 202.098712 424.501559 
L 217.294224 358.307509 
L 232.489737 384.163527 
L 247.685249 389.338972 
L 262.880761 452.738182 
L 278.076273 443.681152 
L 293.271785 444.16635 
L 308.467297 405.522846 
L 323.66281 424.501559 
L 338.858322 446.504122 
L 354.053834 430.918973 
L 369.249346 428.974688 
L 384.444858 448.600056 
L 399.640371 438.301412 
L 414.835883 452.738182 
L 430.031395 436.09 
L 445.226907 452.738182 
" clip-path="url(#p758ff7a750)" style="fill: none; stroke: #ffb000; stroke-width: 1.5; stroke-linecap: square"/>
   </g>
   <g id="line2d_67">
    <path d="M 62.3 425.32713 
L 463.461522 425.32713 
" clip-path="url(#p758ff7a750)" style="fill: none; stroke-dasharray: 3.7,1.6; stroke-dashoffset: 0; stroke: #000000"/>
   </g>
   <g id="patch_15">
    <path d="M 62.3 462.04 
L 62.3 257.4 
" style="fill: none; stroke: #000000; stroke-width: 0.8; stroke-linejoin: miter; stroke-linecap: square"/>
   </g>
   <g id="patch_16">
    <path d="M 463.461522 462.04 
L 463.461522 257.4 
" style="fill: none; stroke: #000000; stroke-width: 0.8; stroke-linejoin: miter; stroke-linecap: square"/>
   </g>
   <g id="patch_17">
    <path d="M 62.3 462.04 
L 463.461522 462.04 
" style="fill: none; stroke: #000000; stroke-width: 0.8; stroke-linejoin: miter; stroke-linecap: square"/>
   </g>
   <g id="patch_18">
    <path d="M 62.3 257.4 
L 463.461522 257.4 
" style="fill: none; stroke: #000000; stroke-width: 0.8; stroke-linejoin: miter; stroke-linecap: square"/>
   </g>
   <g id="legend_3">
    <g id="patch_19">
     <path d="M 317.681834 353.46875 
L 456.461522 353.46875 
Q 458.461522 353.46875 458.461522 351.46875 
L 458.461522 264.4 
Q 458.461522 262.4 456.461522 262.4 
L 317.681834 262.4 
Q 315.681834 262.4 315.681834 264.4 
L 315.681834 351.46875 
Q 315.681834 353.46875 317.681834 353.46875 
z
" style="fill: #ffffff; opacity: 0.8; stroke: #cccccc; stroke-linejoin: miter"/>
    </g>
    <g id="line2d_68">
     <path d="M 319.681834 270.498438 
L 329.681834 270.498438 
L 339.681834 270.498438 
" style="fill: none; stroke: #648fff; stroke-width: 1.5; stroke-linecap: square"/>
    </g>
    <g id="text_56">
     <!-- $\alpha=-1.0$ -->
     <g transform="translate(347.681834 273.998438) scale(0.1 -0.1)">
      <use xlink:href="#DejaVuSans-Oblique-3b1" transform="translate(0 0.78125)"/>
      <use xlink:href="#DejaVuSans-3d" transform="translate(85.400391 0.78125)"/>
      <use xlink:href="#DejaVuSans-2212" transform="translate(188.671875 0.78125)"/>
      <use xlink:href="#DejaVuSans-31" transform="translate(272.460938 0.78125)"/>
      <use xlink:href="#DejaVuSans-2e" transform="translate(336.083984 0.78125)"/>
      <use xlink:href="#DejaVuSans-30" transform="translate(367.871094 0.78125)"/>
     </g>
    </g>
    <g id="line2d_69">
     <path d="M 319.681834 285.176563 
L 329.681834 285.176563 
L 339.681834 285.176563 
" style="fill: none; stroke: #785ef0; stroke-width: 1.5; stroke-linecap: square"/>
    </g>
    <g id="text_57">
     <!-- $\alpha=0.0$ -->
     <g transform="translate(347.681834 288.676563) scale(0.1 -0.1)">
      <use xlink:href="#DejaVuSans-Oblique-3b1" transform="translate(0 0.78125)"/>
      <use xlink:href="#DejaVuSans-3d" transform="translate(85.400391 0.78125)"/>
      <use xlink:href="#DejaVuSans-30" transform="translate(188.671875 0.78125)"/>
      <use xlink:href="#DejaVuSans-2e" transform="translate(252.294922 0.78125)"/>
      <use xlink:href="#DejaVuSans-30" transform="translate(284.082031 0.78125)"/>
     </g>
    </g>
    <g id="line2d_70">
     <path d="M 319.681834 299.854688 
L 329.681834 299.854688 
L 339.681834 299.854688 
" style="fill: none; stroke: #dc267f; stroke-width: 1.5; stroke-linecap: square"/>
    </g>
    <g id="text_58">
     <!-- $\alpha=0.5$ -->
     <g transform="translate(347.681834 303.354688) scale(0.1 -0.1)">
      <use xlink:href="#DejaVuSans-Oblique-3b1" transform="translate(0 0.78125)"/>
      <use xlink:href="#DejaVuSans-3d" transform="translate(85.400391 0.78125)"/>
      <use xlink:href="#DejaVuSans-30" transform="translate(188.671875 0.78125)"/>
      <use xlink:href="#DejaVuSans-2e" transform="translate(252.294922 0.78125)"/>
      <use xlink:href="#DejaVuSans-35" transform="translate(284.082031 0.78125)"/>
     </g>
    </g>
    <g id="line2d_71">
     <path d="M 319.681834 314.532813 
L 329.681834 314.532813 
L 339.681834 314.532813 
" style="fill: none; stroke: #fe6100; stroke-width: 1.5; stroke-linecap: square"/>
    </g>
    <g id="text_59">
     <!-- $\alpha=1.0$ -->
     <g transform="translate(347.681834 318.032813) scale(0.1 -0.1)">
      <use xlink:href="#DejaVuSans-Oblique-3b1" transform="translate(0 0.78125)"/>
      <use xlink:href="#DejaVuSans-3d" transform="translate(85.400391 0.78125)"/>
      <use xlink:href="#DejaVuSans-31" transform="translate(188.671875 0.78125)"/>
      <use xlink:href="#DejaVuSans-2e" transform="translate(252.294922 0.78125)"/>
      <use xlink:href="#DejaVuSans-30" transform="translate(284.082031 0.78125)"/>
     </g>
    </g>
    <g id="line2d_72">
     <path d="M 319.681834 329.210938 
L 329.681834 329.210938 
L 339.681834 329.210938 
" style="fill: none; stroke: #ffb000; stroke-width: 1.5; stroke-linecap: square"/>
    </g>
    <g id="text_60">
     <!-- $\alpha=2.0$ -->
     <g transform="translate(347.681834 332.710938) scale(0.1 -0.1)">
      <use xlink:href="#DejaVuSans-Oblique-3b1" transform="translate(0 0.78125)"/>
      <use xlink:href="#DejaVuSans-3d" transform="translate(85.400391 0.78125)"/>
      <use xlink:href="#DejaVuSans-32" transform="translate(188.671875 0.78125)"/>
      <use xlink:href="#DejaVuSans-2e" transform="translate(252.294922 0.78125)"/>
      <use xlink:href="#DejaVuSans-30" transform="translate(284.082031 0.78125)"/>
     </g>
    </g>
    <g id="line2d_73">
     <path d="M 319.681834 343.889063 
L 329.681834 343.889063 
L 339.681834 343.889063 
" style="fill: none; stroke-dasharray: 3.7,1.6; stroke-dashoffset: 0; stroke: #000000"/>
    </g>
    <g id="text_61">
     <!-- Равномерное распр. -->
     <g transform="translate(347.681834 347.389063) scale(0.1 -0.1)">
      <use xlink:href="#DejaVuSans-420"/>
      <use xlink:href="#DejaVuSans-430" transform="translate(60.302734 0)"/>
      <use xlink:href="#DejaVuSans-432" transform="translate(121.582031 0)"/>
      <use xlink:href="#DejaVuSans-43d" transform="translate(180.517578 0)"/>
      <use xlink:href="#DejaVuSans-43e" transform="translate(245.898438 0)"/>
      <use xlink:href="#DejaVuSans-43c" transform="translate(307.080078 0)"/>
      <use xlink:href="#DejaVuSans-435" transform="translate(382.519531 0)"/>
      <use xlink:href="#DejaVuSans-440" transform="translate(444.042969 0)"/>
      <use xlink:href="#DejaVuSans-43d" transform="translate(507.519531 0)"/>
      <use xlink:href="#DejaVuSans-43e" transform="translate(572.900391 0)"/>
      <use xlink:href="#DejaVuSans-435" transform="translate(634.082031 0)"/>
      <use xlink:href="#DejaVuSans-20" transform="translate(695.605469 0)"/>
      <use xlink:href="#DejaVuSans-440" transform="translate(727.392578 0)"/>
      <use xlink:href="#DejaVuSans-430" transform="translate(790.869141 0)"/>
      <use xlink:href="#DejaVuSans-441" transform="translate(852.148438 0)"/>
      <use xlink:href="#DejaVuSans-43f" transform="translate(907.128906 0)"/>
      <use xlink:href="#DejaVuSans-440" transform="translate(972.509766 0)"/>
      <use xlink:href="#DejaVuSans-2e" transform="translate(1035.986328 0)"/>
     </g>
    </g>
   </g>
  </g>
  <g id="axes_4">
   <g id="patch_20">
    <path d="M 520.76 462.04 
L 921.921522 462.04 
L 921.921522 257.4 
L 520.76 257.4 
z
" style="fill: #ffffff"/>
   </g>
   <g id="matplotlib.axis_7">
    <g id="xtick_19">
     <g id="line2d_74">
      <g>
       <use xlink:href="#m6801bd8846" x="538.994615" y="462.04" style="stroke: #000000; stroke-width: 0.8"/>
      </g>
     </g>
     <g id="text_62">
      <!-- 0 -->
      <g transform="translate(535.813365 476.638438) scale(0.1 -0.1)">
       <use xlink:href="#DejaVuSans-30"/>
      </g>
     </g>
    </g>
    <g id="xtick_20">
     <g id="line2d_75">
      <g>
       <use xlink:href="#m6801bd8846" x="614.972176" y="462.04" style="stroke: #000000; stroke-width: 0.8"/>
      </g>
     </g>
     <g id="text_63">
      <!-- 5 -->
      <g transform="translate(611.790926 476.638438) scale(0.1 -0.1)">
       <use xlink:href="#DejaVuSans-35"/>
      </g>
     </g>
    </g>
    <g id="xtick_21">
     <g id="line2d_76">
      <g>
       <use xlink:href="#m6801bd8846" x="690.949737" y="462.04" style="stroke: #000000; stroke-width: 0.8"/>
      </g>
     </g>
     <g id="text_64">
      <!-- 10 -->
      <g transform="translate(684.587237 476.638438) scale(0.1 -0.1)">
       <use xlink:href="#DejaVuSans-31"/>
       <use xlink:href="#DejaVuSans-30" transform="translate(63.623047 0)"/>
      </g>
     </g>
    </g>
    <g id="xtick_22">
     <g id="line2d_77">
      <g>
       <use xlink:href="#m6801bd8846" x="766.927297" y="462.04" style="stroke: #000000; stroke-width: 0.8"/>
      </g>
     </g>
     <g id="text_65">
      <!-- 15 -->
      <g transform="translate(760.564797 476.638438) scale(0.1 -0.1)">
       <use xlink:href="#DejaVuSans-31"/>
       <use xlink:href="#DejaVuSans-35" transform="translate(63.623047 0)"/>
      </g>
     </g>
    </g>
    <g id="xtick_23">
     <g id="line2d_78">
      <g>
       <use xlink:href="#m6801bd8846" x="842.904858" y="462.04" style="stroke: #000000; stroke-width: 0.8"/>
      </g>
     </g>
     <g id="text_66">
      <!-- 20 -->
      <g transform="translate(836.542358 476.638438) scale(0.1 -0.1)">
       <use xlink:href="#DejaVuSans-32"/>
       <use xlink:href="#DejaVuSans-30" transform="translate(63.623047 0)"/>
      </g>
     </g>
    </g>
    <g id="xtick_24">
     <g id="line2d_79">
      <g>
       <use xlink:href="#m6801bd8846" x="918.882419" y="462.04" style="stroke: #000000; stroke-width: 0.8"/>
      </g>
     </g>
     <g id="text_67">
      <!-- 25 -->
      <g transform="translate(912.519919 476.638438) scale(0.1 -0.1)">
       <use xlink:href="#DejaVuSans-32"/>
       <use xlink:href="#DejaVuSans-35" transform="translate(63.623047 0)"/>
      </g>
     </g>
    </g>
    <g id="text_68">
     <!-- Номер слоя -->
     <g transform="translate(690.897011 490.316563) scale(0.1 -0.1)">
      <use xlink:href="#DejaVuSans-41d"/>
      <use xlink:href="#DejaVuSans-43e" transform="translate(75.195312 0)"/>
      <use xlink:href="#DejaVuSans-43c" transform="translate(136.376953 0)"/>
      <use xlink:href="#DejaVuSans-435" transform="translate(211.816406 0)"/>
      <use xlink:href="#DejaVuSans-440" transform="translate(273.339844 0)"/>
      <use xlink:href="#DejaVuSans-20" transform="translate(336.816406 0)"/>
      <use xlink:href="#DejaVuSans-441" transform="translate(368.603516 0)"/>
      <use xlink:href="#DejaVuSans-43b" transform="translate(423.583984 0)"/>
      <use xlink:href="#DejaVuSans-43e" transform="translate(487.5 0)"/>
      <use xlink:href="#DejaVuSans-44f" transform="translate(548.681641 0)"/>
     </g>
    </g>
   </g>
   <g id="matplotlib.axis_8">
    <g id="ytick_20">
     <g id="line2d_80">
      <g>
       <use xlink:href="#m1f0ff4f3cb" x="520.76" y="452.738182" style="stroke: #000000; stroke-width: 0.8"/>
      </g>
     </g>
     <g id="text_69">
      <!-- 0.0 -->
      <g transform="translate(497.856875 456.537401) scale(0.1 -0.1)">
       <use xlink:href="#DejaVuSans-30"/>
       <use xlink:href="#DejaVuSans-2e" transform="translate(63.623047 0)"/>
       <use xlink:href="#DejaVuSans-30" transform="translate(95.410156 0)"/>
      </g>
     </g>
    </g>
    <g id="ytick_21">
     <g id="line2d_81">
      <g>
       <use xlink:href="#m1f0ff4f3cb" x="520.76" y="421.156895" style="stroke: #000000; stroke-width: 0.8"/>
      </g>
     </g>
     <g id="text_70">
      <!-- 0.1 -->
      <g transform="translate(497.856875 424.956114) scale(0.1 -0.1)">
       <use xlink:href="#DejaVuSans-30"/>
       <use xlink:href="#DejaVuSans-2e" transform="translate(63.623047 0)"/>
       <use xlink:href="#DejaVuSans-31" transform="translate(95.410156 0)"/>
      </g>
     </g>
    </g>
    <g id="ytick_22">
     <g id="line2d_82">
      <g>
       <use xlink:href="#m1f0ff4f3cb" x="520.76" y="389.575609" style="stroke: #000000; stroke-width: 0.8"/>
      </g>
     </g>
     <g id="text_71">
      <!-- 0.2 -->
      <g transform="translate(497.856875 393.374827) scale(0.1 -0.1)">
       <use xlink:href="#DejaVuSans-30"/>
       <use xlink:href="#DejaVuSans-2e" transform="translate(63.623047 0)"/>
       <use xlink:href="#DejaVuSans-32" transform="translate(95.410156 0)"/>
      </g>
     </g>
    </g>
    <g id="ytick_23">
     <g id="line2d_83">
      <g>
       <use xlink:href="#m1f0ff4f3cb" x="520.76" y="357.994322" style="stroke: #000000; stroke-width: 0.8"/>
      </g>
     </g>
     <g id="text_72">
      <!-- 0.3 -->
      <g transform="translate(497.856875 361.793541) scale(0.1 -0.1)">
       <defs>
        <path id="DejaVuSans-33" d="M 2597 2516 
Q 3050 2419 3304 2112 
Q 3559 1806 3559 1356 
Q 3559 666 3084 287 
Q 2609 -91 1734 -91 
Q 1441 -91 1130 -33 
Q 819 25 488 141 
L 488 750 
Q 750 597 1062 519 
Q 1375 441 1716 441 
Q 2309 441 2620 675 
Q 2931 909 2931 1356 
Q 2931 1769 2642 2001 
Q 2353 2234 1838 2234 
L 1294 2234 
L 1294 2753 
L 1863 2753 
Q 2328 2753 2575 2939 
Q 2822 3125 2822 3475 
Q 2822 3834 2567 4026 
Q 2313 4219 1838 4219 
Q 1578 4219 1281 4162 
Q 984 4106 628 3988 
L 628 4550 
Q 988 4650 1302 4700 
Q 1616 4750 1894 4750 
Q 2613 4750 3031 4423 
Q 3450 4097 3450 3541 
Q 3450 3153 3228 2886 
Q 3006 2619 2597 2516 
z
" transform="scale(0.015625)"/>
       </defs>
       <use xlink:href="#DejaVuSans-30"/>
       <use xlink:href="#DejaVuSans-2e" transform="translate(63.623047 0)"/>
       <use xlink:href="#DejaVuSans-33" transform="translate(95.410156 0)"/>
      </g>
     </g>
    </g>
    <g id="ytick_24">
     <g id="line2d_84">
      <g>
       <use xlink:href="#m1f0ff4f3cb" x="520.76" y="326.413036" style="stroke: #000000; stroke-width: 0.8"/>
      </g>
     </g>
     <g id="text_73">
      <!-- 0.4 -->
      <g transform="translate(497.856875 330.212254) scale(0.1 -0.1)">
       <use xlink:href="#DejaVuSans-30"/>
       <use xlink:href="#DejaVuSans-2e" transform="translate(63.623047 0)"/>
       <use xlink:href="#DejaVuSans-34" transform="translate(95.410156 0)"/>
      </g>
     </g>
    </g>
    <g id="ytick_25">
     <g id="line2d_85">
      <g>
       <use xlink:href="#m1f0ff4f3cb" x="520.76" y="294.831749" style="stroke: #000000; stroke-width: 0.8"/>
      </g>
     </g>
     <g id="text_74">
      <!-- 0.5 -->
      <g transform="translate(497.856875 298.630968) scale(0.1 -0.1)">
       <use xlink:href="#DejaVuSans-30"/>
       <use xlink:href="#DejaVuSans-2e" transform="translate(63.623047 0)"/>
       <use xlink:href="#DejaVuSans-35" transform="translate(95.410156 0)"/>
      </g>
     </g>
    </g>
    <g id="ytick_26">
     <g id="line2d_86">
      <g>
       <use xlink:href="#m1f0ff4f3cb" x="520.76" y="263.250462" style="stroke: #000000; stroke-width: 0.8"/>
      </g>
     </g>
     <g id="text_75">
      <!-- 0.6 -->
      <g transform="translate(497.856875 267.049681) scale(0.1 -0.1)">
       <use xlink:href="#DejaVuSans-30"/>
       <use xlink:href="#DejaVuSans-2e" transform="translate(63.623047 0)"/>
       <use xlink:href="#DejaVuSans-36" transform="translate(95.410156 0)"/>
      </g>
     </g>
    </g>
    <g id="text_76">
     <!-- Относительная частота рождений -->
     <g transform="translate(491.777187 451.300469) rotate(-90) scale(0.1 -0.1)">
      <use xlink:href="#DejaVuSans-41e"/>
      <use xlink:href="#DejaVuSans-442" transform="translate(78.710938 0)"/>
      <use xlink:href="#DejaVuSans-43d" transform="translate(136.962891 0)"/>
      <use xlink:href="#DejaVuSans-43e" transform="translate(202.34375 0)"/>
      <use xlink:href="#DejaVuSans-441" transform="translate(263.525391 0)"/>
      <use xlink:href="#DejaVuSans-438" transform="translate(318.505859 0)"/>
      <use xlink:href="#DejaVuSans-442" transform="translate(383.496094 0)"/>
      <use xlink:href="#DejaVuSans-435" transform="translate(441.748047 0)"/>
      <use xlink:href="#DejaVuSans-43b" transform="translate(503.271484 0)"/>
      <use xlink:href="#DejaVuSans-44c" transform="translate(567.1875 0)"/>
      <use xlink:href="#DejaVuSans-43d" transform="translate(626.123047 0)"/>
      <use xlink:href="#DejaVuSans-430" transform="translate(691.503906 0)"/>
      <use xlink:href="#DejaVuSans-44f" transform="translate(752.783203 0)"/>
      <use xlink:href="#DejaVuSans-20" transform="translate(812.939453 0)"/>
      <use xlink:href="#DejaVuSans-447" transform="translate(844.726562 0)"/>
      <use xlink:href="#DejaVuSans-430" transform="translate(903.808594 0)"/>
      <use xlink:href="#DejaVuSans-441" transform="translate(965.087891 0)"/>
      <use xlink:href="#DejaVuSans-442" transform="translate(1020.068359 0)"/>
      <use xlink:href="#DejaVuSans-43e" transform="translate(1078.320312 0)"/>
      <use xlink:href="#DejaVuSans-442" transform="translate(1139.501953 0)"/>
      <use xlink:href="#DejaVuSans-430" transform="translate(1197.753906 0)"/>
      <use xlink:href="#DejaVuSans-20" transform="translate(1259.033203 0)"/>
      <use xlink:href="#DejaVuSans-440" transform="translate(1290.820312 0)"/>
      <use xlink:href="#DejaVuSans-43e" transform="translate(1354.296875 0)"/>
      <use xlink:href="#DejaVuSans-436" transform="translate(1415.478516 0)"/>
      <use xlink:href="#DejaVuSans-434" transform="translate(1505.566406 0)"/>
      <use xlink:href="#DejaVuSans-435" transform="translate(1574.707031 0)"/>
      <use xlink:href="#DejaVuSans-43d" transform="translate(1636.230469 0)"/>
      <use xlink:href="#DejaVuSans-438" transform="translate(1701.611328 0)"/>
      <use xlink:href="#DejaVuSans-439" transform="translate(1766.601562 0)"/>
     </g>
    </g>
   </g>
   <g id="line2d_87">
    <path d="M 538.994615 452.738182 
L 554.190127 266.701818 
L 569.385639 433.376169 
L 584.581151 438.735999 
L 599.776663 445.430977 
L 614.972176 445.535683 
L 630.167688 447.443326 
L 645.3632 447.694342 
L 660.558712 447.695997 
L 675.754224 447.393607 
L 690.949737 449.55135 
L 706.145249 449.093921 
L 721.340761 448.743228 
L 736.536273 449.045514 
L 751.731785 449.08524 
L 766.927297 448.644185 
L 782.12281 448.863661 
L 797.318322 449.203278 
L 812.513834 448.144893 
L 827.709346 447.808842 
L 842.904858 444.995526 
L 858.100371 445.618928 
L 873.295883 449.229154 
L 888.491395 449.12968 
L 903.686907 452.738182 
" clip-path="url(#p6f3dc42bad)" style="fill: none; stroke: #648fff; stroke-width: 1.5; stroke-linecap: square"/>
   </g>
   <g id="line2d_88">
    <path d="M 538.994615 452.738182 
L 554.190127 296.553738 
L 569.385639 434.829492 
L 584.581151 438.790067 
L 599.776663 444.81703 
L 614.972176 444.472632 
L 630.167688 446.711219 
L 645.3632 446.022423 
L 660.558712 446.366821 
L 675.754224 446.022423 
L 690.949737 448.261009 
L 706.145249 447.572213 
L 721.340761 446.711219 
L 736.536273 447.400015 
L 751.731785 447.400015 
L 766.927297 446.883418 
L 782.12281 447.227816 
L 797.318322 447.055617 
L 812.513834 445.333627 
L 827.709346 445.850224 
L 842.904858 440.684256 
L 858.100371 445.333627 
L 873.295883 448.261009 
L 888.491395 448.605407 
L 903.686907 452.738182 
" clip-path="url(#p6f3dc42bad)" style="fill: none; stroke: #785ef0; stroke-width: 1.5; stroke-linecap: square"/>
   </g>
   <g id="line2d_89">
    <path d="M 538.994615 452.738182 
L 554.190127 325.141229 
L 569.385639 437.371997 
L 584.581151 440.062727 
L 599.776663 444.926532 
L 614.972176 444.126364 
L 630.167688 446.24794 
L 645.3632 444.725721 
L 660.558712 445.150715 
L 675.754224 444.792158 
L 690.949737 446.815252 
L 706.145249 445.714031 
L 721.340761 444.069104 
L 736.536273 445.321661 
L 751.731785 445.486555 
L 766.927297 445.157918 
L 782.12281 445.798394 
L 797.318322 444.785934 
L 812.513834 441.779035 
L 827.709346 443.499499 
L 842.904858 434.44389 
L 858.100371 445.729038 
L 873.295883 447.745902 
L 888.491395 448.27372 
L 903.686907 452.738182 
" clip-path="url(#p6f3dc42bad)" style="fill: none; stroke: #dc267f; stroke-width: 1.5; stroke-linecap: square"/>
   </g>
   <g id="line2d_90">
    <path d="M 538.994615 452.738182 
L 554.190127 361.431049 
L 569.385639 441.300803 
L 584.581151 442.737082 
L 599.776663 445.893579 
L 614.972176 444.712622 
L 630.167688 446.202537 
L 645.3632 443.956585 
L 660.558712 444.145581 
L 675.754224 443.950049 
L 690.949737 445.069691 
L 706.145249 442.969404 
L 721.340761 439.689235 
L 736.536273 441.903719 
L 751.731785 442.978285 
L 766.927297 443.443042 
L 782.12281 444.631955 
L 797.318322 441.953765 
L 812.513834 436.035977 
L 827.709346 439.81567 
L 842.904858 422.190972 
L 858.100371 446.855182 
L 873.295883 447.291811 
L 888.491395 448.006721 
L 903.686907 452.738182 
" clip-path="url(#p6f3dc42bad)" style="fill: none; stroke: #fe6100; stroke-width: 1.5; stroke-linecap: square"/>
   </g>
   <g id="line2d_91">
    <path d="M 538.994615 452.738182 
L 554.190127 428.324531 
L 569.385639 449.460161 
L 584.581151 449.482043 
L 599.776663 449.687288 
L 614.972176 448.727027 
L 630.167688 447.922805 
L 645.3632 446.630137 
L 660.558712 445.136921 
L 675.754224 446.1731 
L 690.949737 443.92385 
L 706.145249 436.659636 
L 721.340761 425.425268 
L 736.536273 428.927877 
L 751.731785 439.766147 
L 766.927297 444.111969 
L 782.12281 446.301078 
L 797.318322 439.433531 
L 812.513834 422.523016 
L 827.709346 431.391462 
L 842.904858 381.162599 
L 858.100371 450.357349 
L 873.295883 446.856125 
L 888.491395 448.781394 
L 903.686907 452.738182 
" clip-path="url(#p6f3dc42bad)" style="fill: none; stroke: #ffb000; stroke-width: 1.5; stroke-linecap: square"/>
   </g>
   <g id="line2d_92">
    <path d="M 520.76 440.105667 
L 921.921522 440.105667 
" clip-path="url(#p6f3dc42bad)" style="fill: none; stroke-dasharray: 3.7,1.6; stroke-dashoffset: 0; stroke: #000000"/>
   </g>
   <g id="patch_21">
    <path d="M 520.76 462.04 
L 520.76 257.4 
" style="fill: none; stroke: #000000; stroke-width: 0.8; stroke-linejoin: miter; stroke-linecap: square"/>
   </g>
   <g id="patch_22">
    <path d="M 921.921522 462.04 
L 921.921522 257.4 
" style="fill: none; stroke: #000000; stroke-width: 0.8; stroke-linejoin: miter; stroke-linecap: square"/>
   </g>
   <g id="patch_23">
    <path d="M 520.76 462.04 
L 921.921522 462.04 
" style="fill: none; stroke: #000000; stroke-width: 0.8; stroke-linejoin: miter; stroke-linecap: square"/>
   </g>
   <g id="patch_24">
    <path d="M 520.76 257.4 
L 921.921522 257.4 
" style="fill: none; stroke: #000000; stroke-width: 0.8; stroke-linejoin: miter; stroke-linecap: square"/>
   </g>
   <g id="legend_4">
    <g id="patch_25">
     <path d="M 776.141834 353.46875 
L 914.921522 353.46875 
Q 916.921522 353.46875 916.921522 351.46875 
L 916.921522 264.4 
Q 916.921522 262.4 914.921522 262.4 
L 776.141834 262.4 
Q 774.141834 262.4 774.141834 264.4 
L 774.141834 351.46875 
Q 774.141834 353.46875 776.141834 353.46875 
z
" style="fill: #ffffff; opacity: 0.8; stroke: #cccccc; stroke-linejoin: miter"/>
    </g>
    <g id="line2d_93">
     <path d="M 778.141834 270.498438 
L 788.141834 270.498438 
L 798.141834 270.498438 
" style="fill: none; stroke: #648fff; stroke-width: 1.5; stroke-linecap: square"/>
    </g>
    <g id="text_77">
     <!-- $\alpha=-1.0$ -->
     <g transform="translate(806.141834 273.998438) scale(0.1 -0.1)">
      <use xlink:href="#DejaVuSans-Oblique-3b1" transform="translate(0 0.78125)"/>
      <use xlink:href="#DejaVuSans-3d" transform="translate(85.400391 0.78125)"/>
      <use xlink:href="#DejaVuSans-2212" transform="translate(188.671875 0.78125)"/>
      <use xlink:href="#DejaVuSans-31" transform="translate(272.460938 0.78125)"/>
      <use xlink:href="#DejaVuSans-2e" transform="translate(336.083984 0.78125)"/>
      <use xlink:href="#DejaVuSans-30" transform="translate(367.871094 0.78125)"/>
     </g>
    </g>
    <g id="line2d_94">
     <path d="M 778.141834 285.176563 
L 788.141834 285.176563 
L 798.141834 285.176563 
" style="fill: none; stroke: #785ef0; stroke-width: 1.5; stroke-linecap: square"/>
    </g>
    <g id="text_78">
     <!-- $\alpha=0.0$ -->
     <g transform="translate(806.141834 288.676563) scale(0.1 -0.1)">
      <use xlink:href="#DejaVuSans-Oblique-3b1" transform="translate(0 0.78125)"/>
      <use xlink:href="#DejaVuSans-3d" transform="translate(85.400391 0.78125)"/>
      <use xlink:href="#DejaVuSans-30" transform="translate(188.671875 0.78125)"/>
      <use xlink:href="#DejaVuSans-2e" transform="translate(252.294922 0.78125)"/>
      <use xlink:href="#DejaVuSans-30" transform="translate(284.082031 0.78125)"/>
     </g>
    </g>
    <g id="line2d_95">
     <path d="M 778.141834 299.854688 
L 788.141834 299.854688 
L 798.141834 299.854688 
" style="fill: none; stroke: #dc267f; stroke-width: 1.5; stroke-linecap: square"/>
    </g>
    <g id="text_79">
     <!-- $\alpha=0.5$ -->
     <g transform="translate(806.141834 303.354688) scale(0.1 -0.1)">
      <use xlink:href="#DejaVuSans-Oblique-3b1" transform="translate(0 0.78125)"/>
      <use xlink:href="#DejaVuSans-3d" transform="translate(85.400391 0.78125)"/>
      <use xlink:href="#DejaVuSans-30" transform="translate(188.671875 0.78125)"/>
      <use xlink:href="#DejaVuSans-2e" transform="translate(252.294922 0.78125)"/>
      <use xlink:href="#DejaVuSans-35" transform="translate(284.082031 0.78125)"/>
     </g>
    </g>
    <g id="line2d_96">
     <path d="M 778.141834 314.532813 
L 788.141834 314.532813 
L 798.141834 314.532813 
" style="fill: none; stroke: #fe6100; stroke-width: 1.5; stroke-linecap: square"/>
    </g>
    <g id="text_80">
     <!-- $\alpha=1.0$ -->
     <g transform="translate(806.141834 318.032813) scale(0.1 -0.1)">
      <use xlink:href="#DejaVuSans-Oblique-3b1" transform="translate(0 0.78125)"/>
      <use xlink:href="#DejaVuSans-3d" transform="translate(85.400391 0.78125)"/>
      <use xlink:href="#DejaVuSans-31" transform="translate(188.671875 0.78125)"/>
      <use xlink:href="#DejaVuSans-2e" transform="translate(252.294922 0.78125)"/>
      <use xlink:href="#DejaVuSans-30" transform="translate(284.082031 0.78125)"/>
     </g>
    </g>
    <g id="line2d_97">
     <path d="M 778.141834 329.210938 
L 788.141834 329.210938 
L 798.141834 329.210938 
" style="fill: none; stroke: #ffb000; stroke-width: 1.5; stroke-linecap: square"/>
    </g>
    <g id="text_81">
     <!-- $\alpha=2.0$ -->
     <g transform="translate(806.141834 332.710938) scale(0.1 -0.1)">
      <use xlink:href="#DejaVuSans-Oblique-3b1" transform="translate(0 0.78125)"/>
      <use xlink:href="#DejaVuSans-3d" transform="translate(85.400391 0.78125)"/>
      <use xlink:href="#DejaVuSans-32" transform="translate(188.671875 0.78125)"/>
      <use xlink:href="#DejaVuSans-2e" transform="translate(252.294922 0.78125)"/>
      <use xlink:href="#DejaVuSans-30" transform="translate(284.082031 0.78125)"/>
     </g>
    </g>
    <g id="line2d_98">
     <path d="M 778.141834 343.889063 
L 788.141834 343.889063 
L 798.141834 343.889063 
" style="fill: none; stroke-dasharray: 3.7,1.6; stroke-dashoffset: 0; stroke: #000000"/>
    </g>
    <g id="text_82">
     <!-- Равномерное распр. -->
     <g transform="translate(806.141834 347.389063) scale(0.1 -0.1)">
      <use xlink:href="#DejaVuSans-420"/>
      <use xlink:href="#DejaVuSans-430" transform="translate(60.302734 0)"/>
      <use xlink:href="#DejaVuSans-432" transform="translate(121.582031 0)"/>
      <use xlink:href="#DejaVuSans-43d" transform="translate(180.517578 0)"/>
      <use xlink:href="#DejaVuSans-43e" transform="translate(245.898438 0)"/>
      <use xlink:href="#DejaVuSans-43c" transform="translate(307.080078 0)"/>
      <use xlink:href="#DejaVuSans-435" transform="translate(382.519531 0)"/>
      <use xlink:href="#DejaVuSans-440" transform="translate(444.042969 0)"/>
      <use xlink:href="#DejaVuSans-43d" transform="translate(507.519531 0)"/>
      <use xlink:href="#DejaVuSans-43e" transform="translate(572.900391 0)"/>
      <use xlink:href="#DejaVuSans-435" transform="translate(634.082031 0)"/>
      <use xlink:href="#DejaVuSans-20" transform="translate(695.605469 0)"/>
      <use xlink:href="#DejaVuSans-440" transform="translate(727.392578 0)"/>
      <use xlink:href="#DejaVuSans-430" transform="translate(790.869141 0)"/>
      <use xlink:href="#DejaVuSans-441" transform="translate(852.148438 0)"/>
      <use xlink:href="#DejaVuSans-43f" transform="translate(907.128906 0)"/>
      <use xlink:href="#DejaVuSans-440" transform="translate(972.509766 0)"/>
      <use xlink:href="#DejaVuSans-2e" transform="translate(1035.986328 0)"/>
     </g>
    </g>
   </g>
  </g>
 </g>
 <defs>
  <clipPath id="p9dcf02c7e2">
   <rect x="62.3" y="10.8" width="401.161522" height="204.64"/>
  </clipPath>
  <clipPath id="p7e204e3706">
   <rect x="520.76" y="10.8" width="401.161522" height="204.64"/>
  </clipPath>
  <clipPath id="p758ff7a750">
   <rect x="62.3" y="257.4" width="401.161522" height="204.64"/>
  </clipPath>
  <clipPath id="p6f3dc42bad">
   <rect x="520.76" y="257.4" width="401.161522" height="204.64"/>
  </clipPath>
 </defs>
</svg>
