<?xml version="1.0" encoding="utf-8" standalone="no"?>
<!DOCTYPE svg PUBLIC "-//W3C//DTD SVG 1.1//EN"
  "http://www.w3.org/Graphics/SVG/1.1/DTD/svg11.dtd">
<svg xmlns:xlink="http://www.w3.org/1999/xlink" width="460.8pt" height="345.6pt" viewBox="0 0 460.8 345.6" xmlns="http://www.w3.org/2000/svg" version="1.1">
 <metadata>
  <rdf:RDF xmlns:dc="http://purl.org/dc/elements/1.1/" xmlns:cc="http://creativecommons.org/ns#" xmlns:rdf="http://www.w3.org/1999/02/22-rdf-syntax-ns#">
   <cc:Work>
    <dc:type rdf:resource="http://purl.org/dc/dcmitype/StillImage"/>
    <dc:date>2025-01-26T15:36:58.628462</dc:date>
    <dc:format>image/svg+xml</dc:format>
    <dc:creator>
     <cc:Agent>
      <dc:title>Matplotlib v3.10.0, https://matplotlib.org/</dc:title>
     </cc:Agent>
    </dc:creator>
   </cc:Work>
  </rdf:RDF>
 </metadata>
 <defs>
  <style type="text/css">*{stroke-linejoin: round; stroke-linecap: butt}</style>
 </defs>
 <g id="figure_1">
  <g id="patch_1">
   <path d="M 0 345.6 
L 460.8 345.6 
L 460.8 0 
L 0 0 
z
" style="fill: #ffffff"/>
  </g>
  <g id="axes_1">
   <g id="patch_2">
    <path d="M 57.6 307.584 
L 414.72 307.584 
L 414.72 41.472 
L 57.6 41.472 
z
" style="fill: #ffffff"/>
   </g>
   <g id="patch_3">
    <path d="M 73.832727 307.584 
L 86.818909 307.584 
L 86.818909 282.24 
L 73.832727 282.24 
z
" clip-path="url(#pc8e6a02850)" style="fill: #1f77b4"/>
   </g>
   <g id="patch_4">
    <path d="M 86.818909 307.584 
L 99.805091 307.584 
L 99.805091 307.584 
L 86.818909 307.584 
z
" clip-path="url(#pc8e6a02850)" style="fill: #1f77b4"/>
   </g>
   <g id="patch_5">
    <path d="M 99.805091 307.584 
L 112.791273 307.584 
L 112.791273 231.552 
L 99.805091 231.552 
z
" clip-path="url(#pc8e6a02850)" style="fill: #1f77b4"/>
   </g>
   <g id="patch_6">
    <path d="M 112.791273 307.584 
L 125.777455 307.584 
L 125.777455 130.176 
L 112.791273 130.176 
z
" clip-path="url(#pc8e6a02850)" style="fill: #1f77b4"/>
   </g>
   <g id="patch_7">
    <path d="M 125.777455 307.584 
L 138.763636 307.584 
L 138.763636 206.208 
L 125.777455 206.208 
z
" clip-path="url(#pc8e6a02850)" style="fill: #1f77b4"/>
   </g>
   <g id="patch_8">
    <path d="M 138.763636 307.584 
L 151.749818 307.584 
L 151.749818 180.864 
L 138.763636 180.864 
z
" clip-path="url(#pc8e6a02850)" style="fill: #1f77b4"/>
   </g>
   <g id="patch_9">
    <path d="M 151.749818 307.584 
L 164.736 307.584 
L 164.736 104.832 
L 151.749818 104.832 
z
" clip-path="url(#pc8e6a02850)" style="fill: #1f77b4"/>
   </g>
   <g id="patch_10">
    <path d="M 164.736 307.584 
L 177.722182 307.584 
L 177.722182 54.144 
L 164.736 54.144 
z
" clip-path="url(#pc8e6a02850)" style="fill: #1f77b4"/>
   </g>
   <g id="patch_11">
    <path d="M 177.722182 307.584 
L 190.708364 307.584 
L 190.708364 155.52 
L 177.722182 155.52 
z
" clip-path="url(#pc8e6a02850)" style="fill: #1f77b4"/>
   </g>
   <g id="patch_12">
    <path d="M 190.708364 307.584 
L 203.694545 307.584 
L 203.694545 231.552 
L 190.708364 231.552 
z
" clip-path="url(#pc8e6a02850)" style="fill: #1f77b4"/>
   </g>
   <g id="patch_13">
    <path d="M 203.694545 307.584 
L 216.680727 307.584 
L 216.680727 307.584 
L 203.694545 307.584 
z
" clip-path="url(#pc8e6a02850)" style="fill: #1f77b4"/>
   </g>
   <g id="patch_14">
    <path d="M 216.680727 307.584 
L 229.666909 307.584 
L 229.666909 231.552 
L 216.680727 231.552 
z
" clip-path="url(#pc8e6a02850)" style="fill: #1f77b4"/>
   </g>
   <g id="patch_15">
    <path d="M 229.666909 307.584 
L 242.653091 307.584 
L 242.653091 206.208 
L 229.666909 206.208 
z
" clip-path="url(#pc8e6a02850)" style="fill: #1f77b4"/>
   </g>
   <g id="patch_16">
    <path d="M 242.653091 307.584 
L 255.639273 307.584 
L 255.639273 231.552 
L 242.653091 231.552 
z
" clip-path="url(#pc8e6a02850)" style="fill: #1f77b4"/>
   </g>
   <g id="patch_17">
    <path d="M 255.639273 307.584 
L 268.625455 307.584 
L 268.625455 256.896 
L 255.639273 256.896 
z
" clip-path="url(#pc8e6a02850)" style="fill: #1f77b4"/>
   </g>
   <g id="patch_18">
    <path d="M 268.625455 307.584 
L 281.611636 307.584 
L 281.611636 307.584 
L 268.625455 307.584 
z
" clip-path="url(#pc8e6a02850)" style="fill: #1f77b4"/>
   </g>
   <g id="patch_19">
    <path d="M 281.611636 307.584 
L 294.597818 307.584 
L 294.597818 256.896 
L 281.611636 256.896 
z
" clip-path="url(#pc8e6a02850)" style="fill: #1f77b4"/>
   </g>
   <g id="patch_20">
    <path d="M 294.597818 307.584 
L 307.584 307.584 
L 307.584 206.208 
L 294.597818 206.208 
z
" clip-path="url(#pc8e6a02850)" style="fill: #1f77b4"/>
   </g>
   <g id="patch_21">
    <path d="M 307.584 307.584 
L 320.570182 307.584 
L 320.570182 282.24 
L 307.584 282.24 
z
" clip-path="url(#pc8e6a02850)" style="fill: #1f77b4"/>
   </g>
   <g id="patch_22">
    <path d="M 320.570182 307.584 
L 333.556364 307.584 
L 333.556364 307.584 
L 320.570182 307.584 
z
" clip-path="url(#pc8e6a02850)" style="fill: #1f77b4"/>
   </g>
   <g id="patch_23">
    <path d="M 333.556364 307.584 
L 346.542545 307.584 
L 346.542545 282.24 
L 333.556364 282.24 
z
" clip-path="url(#pc8e6a02850)" style="fill: #1f77b4"/>
   </g>
   <g id="patch_24">
    <path d="M 346.542545 307.584 
L 359.528727 307.584 
L 359.528727 130.176 
L 346.542545 130.176 
z
" clip-path="url(#pc8e6a02850)" style="fill: #1f77b4"/>
   </g>
   <g id="patch_25">
    <path d="M 359.528727 307.584 
L 372.514909 307.584 
L 372.514909 231.552 
L 359.528727 231.552 
z
" clip-path="url(#pc8e6a02850)" style="fill: #1f77b4"/>
   </g>
   <g id="patch_26">
    <path d="M 372.514909 307.584 
L 385.501091 307.584 
L 385.501091 282.24 
L 372.514909 282.24 
z
" clip-path="url(#pc8e6a02850)" style="fill: #1f77b4"/>
   </g>
   <g id="patch_27">
    <path d="M 385.501091 307.584 
L 398.487273 307.584 
L 398.487273 206.208 
L 385.501091 206.208 
z
" clip-path="url(#pc8e6a02850)" style="fill: #1f77b4"/>
   </g>
   <g id="matplotlib.axis_1">
    <g id="xtick_1">
     <g id="line2d_1">
      <path d="M 75.081399 307.584 
L 75.081399 41.472 
" clip-path="url(#pc8e6a02850)" style="fill: none; stroke: #b0b0b0; stroke-width: 0.8; stroke-linecap: square"/>
     </g>
     <g id="line2d_2">
      <defs>
       <path id="m07486877e2" d="M 0 0 
L 0 3.5 
" style="stroke: #000000; stroke-width: 0.8"/>
      </defs>
      <g>
       <use xlink:href="#m07486877e2" x="75.081399" y="307.584" style="stroke: #000000; stroke-width: 0.8"/>
      </g>
     </g>
     <g id="text_1">
      <!-- 100 -->
      <g transform="translate(65.537649 322.182437) scale(0.1 -0.1)">
       <defs>
        <path id="DejaVuSans-31" d="M 794 531 
L 1825 531 
L 1825 4091 
L 703 3866 
L 703 4441 
L 1819 4666 
L 2450 4666 
L 2450 531 
L 3481 531 
L 3481 0 
L 794 0 
L 794 531 
z
" transform="scale(0.015625)"/>
        <path id="DejaVuSans-30" d="M 2034 4250 
Q 1547 4250 1301 3770 
Q 1056 3291 1056 2328 
Q 1056 1369 1301 889 
Q 1547 409 2034 409 
Q 2525 409 2770 889 
Q 3016 1369 3016 2328 
Q 3016 3291 2770 3770 
Q 2525 4250 2034 4250 
z
M 2034 4750 
Q 2819 4750 3233 4129 
Q 3647 3509 3647 2328 
Q 3647 1150 3233 529 
Q 2819 -91 2034 -91 
Q 1250 -91 836 529 
Q 422 1150 422 2328 
Q 422 3509 836 4129 
Q 1250 4750 2034 4750 
z
" transform="scale(0.015625)"/>
       </defs>
       <use xlink:href="#DejaVuSans-31"/>
       <use xlink:href="#DejaVuSans-30" transform="translate(63.623047 0)"/>
       <use xlink:href="#DejaVuSans-30" transform="translate(127.246094 0)"/>
      </g>
     </g>
    </g>
    <g id="xtick_2">
     <g id="line2d_3">
      <path d="M 125.028252 307.584 
L 125.028252 41.472 
" clip-path="url(#pc8e6a02850)" style="fill: none; stroke: #b0b0b0; stroke-width: 0.8; stroke-linecap: square"/>
     </g>
     <g id="line2d_4">
      <g>
       <use xlink:href="#m07486877e2" x="125.028252" y="307.584" style="stroke: #000000; stroke-width: 0.8"/>
      </g>
     </g>
     <g id="text_2">
      <!-- 120 -->
      <g transform="translate(115.484502 322.182437) scale(0.1 -0.1)">
       <defs>
        <path id="DejaVuSans-32" d="M 1228 531 
L 3431 531 
L 3431 0 
L 469 0 
L 469 531 
Q 828 903 1448 1529 
Q 2069 2156 2228 2338 
Q 2531 2678 2651 2914 
Q 2772 3150 2772 3378 
Q 2772 3750 2511 3984 
Q 2250 4219 1831 4219 
Q 1534 4219 1204 4116 
Q 875 4013 500 3803 
L 500 4441 
Q 881 4594 1212 4672 
Q 1544 4750 1819 4750 
Q 2544 4750 2975 4387 
Q 3406 4025 3406 3419 
Q 3406 3131 3298 2873 
Q 3191 2616 2906 2266 
Q 2828 2175 2409 1742 
Q 1991 1309 1228 531 
z
" transform="scale(0.015625)"/>
       </defs>
       <use xlink:href="#DejaVuSans-31"/>
       <use xlink:href="#DejaVuSans-32" transform="translate(63.623047 0)"/>
       <use xlink:href="#DejaVuSans-30" transform="translate(127.246094 0)"/>
      </g>
     </g>
    </g>
    <g id="xtick_3">
     <g id="line2d_5">
      <path d="M 174.975105 307.584 
L 174.975105 41.472 
" clip-path="url(#pc8e6a02850)" style="fill: none; stroke: #b0b0b0; stroke-width: 0.8; stroke-linecap: square"/>
     </g>
     <g id="line2d_6">
      <g>
       <use xlink:href="#m07486877e2" x="174.975105" y="307.584" style="stroke: #000000; stroke-width: 0.8"/>
      </g>
     </g>
     <g id="text_3">
      <!-- 140 -->
      <g transform="translate(165.431355 322.182437) scale(0.1 -0.1)">
       <defs>
        <path id="DejaVuSans-34" d="M 2419 4116 
L 825 1625 
L 2419 1625 
L 2419 4116 
z
M 2253 4666 
L 3047 4666 
L 3047 1625 
L 3713 1625 
L 3713 1100 
L 3047 1100 
L 3047 0 
L 2419 0 
L 2419 1100 
L 313 1100 
L 313 1709 
L 2253 4666 
z
" transform="scale(0.015625)"/>
       </defs>
       <use xlink:href="#DejaVuSans-31"/>
       <use xlink:href="#DejaVuSans-34" transform="translate(63.623047 0)"/>
       <use xlink:href="#DejaVuSans-30" transform="translate(127.246094 0)"/>
      </g>
     </g>
    </g>
    <g id="xtick_4">
     <g id="line2d_7">
      <path d="M 224.921958 307.584 
L 224.921958 41.472 
" clip-path="url(#pc8e6a02850)" style="fill: none; stroke: #b0b0b0; stroke-width: 0.8; stroke-linecap: square"/>
     </g>
     <g id="line2d_8">
      <g>
       <use xlink:href="#m07486877e2" x="224.921958" y="307.584" style="stroke: #000000; stroke-width: 0.8"/>
      </g>
     </g>
     <g id="text_4">
      <!-- 160 -->
      <g transform="translate(215.378208 322.182437) scale(0.1 -0.1)">
       <defs>
        <path id="DejaVuSans-36" d="M 2113 2584 
Q 1688 2584 1439 2293 
Q 1191 2003 1191 1497 
Q 1191 994 1439 701 
Q 1688 409 2113 409 
Q 2538 409 2786 701 
Q 3034 994 3034 1497 
Q 3034 2003 2786 2293 
Q 2538 2584 2113 2584 
z
M 3366 4563 
L 3366 3988 
Q 3128 4100 2886 4159 
Q 2644 4219 2406 4219 
Q 1781 4219 1451 3797 
Q 1122 3375 1075 2522 
Q 1259 2794 1537 2939 
Q 1816 3084 2150 3084 
Q 2853 3084 3261 2657 
Q 3669 2231 3669 1497 
Q 3669 778 3244 343 
Q 2819 -91 2113 -91 
Q 1303 -91 875 529 
Q 447 1150 447 2328 
Q 447 3434 972 4092 
Q 1497 4750 2381 4750 
Q 2619 4750 2861 4703 
Q 3103 4656 3366 4563 
z
" transform="scale(0.015625)"/>
       </defs>
       <use xlink:href="#DejaVuSans-31"/>
       <use xlink:href="#DejaVuSans-36" transform="translate(63.623047 0)"/>
       <use xlink:href="#DejaVuSans-30" transform="translate(127.246094 0)"/>
      </g>
     </g>
    </g>
    <g id="xtick_5">
     <g id="line2d_9">
      <path d="M 274.868811 307.584 
L 274.868811 41.472 
" clip-path="url(#pc8e6a02850)" style="fill: none; stroke: #b0b0b0; stroke-width: 0.8; stroke-linecap: square"/>
     </g>
     <g id="line2d_10">
      <g>
       <use xlink:href="#m07486877e2" x="274.868811" y="307.584" style="stroke: #000000; stroke-width: 0.8"/>
      </g>
     </g>
     <g id="text_5">
      <!-- 180 -->
      <g transform="translate(265.325061 322.182437) scale(0.1 -0.1)">
       <defs>
        <path id="DejaVuSans-38" d="M 2034 2216 
Q 1584 2216 1326 1975 
Q 1069 1734 1069 1313 
Q 1069 891 1326 650 
Q 1584 409 2034 409 
Q 2484 409 2743 651 
Q 3003 894 3003 1313 
Q 3003 1734 2745 1975 
Q 2488 2216 2034 2216 
z
M 1403 2484 
Q 997 2584 770 2862 
Q 544 3141 544 3541 
Q 544 4100 942 4425 
Q 1341 4750 2034 4750 
Q 2731 4750 3128 4425 
Q 3525 4100 3525 3541 
Q 3525 3141 3298 2862 
Q 3072 2584 2669 2484 
Q 3125 2378 3379 2068 
Q 3634 1759 3634 1313 
Q 3634 634 3220 271 
Q 2806 -91 2034 -91 
Q 1263 -91 848 271 
Q 434 634 434 1313 
Q 434 1759 690 2068 
Q 947 2378 1403 2484 
z
M 1172 3481 
Q 1172 3119 1398 2916 
Q 1625 2713 2034 2713 
Q 2441 2713 2670 2916 
Q 2900 3119 2900 3481 
Q 2900 3844 2670 4047 
Q 2441 4250 2034 4250 
Q 1625 4250 1398 4047 
Q 1172 3844 1172 3481 
z
" transform="scale(0.015625)"/>
       </defs>
       <use xlink:href="#DejaVuSans-31"/>
       <use xlink:href="#DejaVuSans-38" transform="translate(63.623047 0)"/>
       <use xlink:href="#DejaVuSans-30" transform="translate(127.246094 0)"/>
      </g>
     </g>
    </g>
    <g id="xtick_6">
     <g id="line2d_11">
      <path d="M 324.815664 307.584 
L 324.815664 41.472 
" clip-path="url(#pc8e6a02850)" style="fill: none; stroke: #b0b0b0; stroke-width: 0.8; stroke-linecap: square"/>
     </g>
     <g id="line2d_12">
      <g>
       <use xlink:href="#m07486877e2" x="324.815664" y="307.584" style="stroke: #000000; stroke-width: 0.8"/>
      </g>
     </g>
     <g id="text_6">
      <!-- 200 -->
      <g transform="translate(315.271914 322.182437) scale(0.1 -0.1)">
       <use xlink:href="#DejaVuSans-32"/>
       <use xlink:href="#DejaVuSans-30" transform="translate(63.623047 0)"/>
       <use xlink:href="#DejaVuSans-30" transform="translate(127.246094 0)"/>
      </g>
     </g>
    </g>
    <g id="xtick_7">
     <g id="line2d_13">
      <path d="M 374.762517 307.584 
L 374.762517 41.472 
" clip-path="url(#pc8e6a02850)" style="fill: none; stroke: #b0b0b0; stroke-width: 0.8; stroke-linecap: square"/>
     </g>
     <g id="line2d_14">
      <g>
       <use xlink:href="#m07486877e2" x="374.762517" y="307.584" style="stroke: #000000; stroke-width: 0.8"/>
      </g>
     </g>
     <g id="text_7">
      <!-- 220 -->
      <g transform="translate(365.218767 322.182437) scale(0.1 -0.1)">
       <use xlink:href="#DejaVuSans-32"/>
       <use xlink:href="#DejaVuSans-32" transform="translate(63.623047 0)"/>
       <use xlink:href="#DejaVuSans-30" transform="translate(127.246094 0)"/>
      </g>
     </g>
    </g>
   </g>
   <g id="matplotlib.axis_2">
    <g id="ytick_1">
     <g id="line2d_15">
      <path d="M 57.6 307.584 
L 414.72 307.584 
" clip-path="url(#pc8e6a02850)" style="fill: none; stroke: #b0b0b0; stroke-width: 0.8; stroke-linecap: square"/>
     </g>
     <g id="line2d_16">
      <defs>
       <path id="mee47737492" d="M 0 0 
L -3.5 0 
" style="stroke: #000000; stroke-width: 0.8"/>
      </defs>
      <g>
       <use xlink:href="#mee47737492" x="57.6" y="307.584" style="stroke: #000000; stroke-width: 0.8"/>
      </g>
     </g>
     <g id="text_8">
      <!-- 0 -->
      <g transform="translate(44.2375 311.383219) scale(0.1 -0.1)">
       <use xlink:href="#DejaVuSans-30"/>
      </g>
     </g>
    </g>
    <g id="ytick_2">
     <g id="line2d_17">
      <path d="M 57.6 256.896 
L 414.72 256.896 
" clip-path="url(#pc8e6a02850)" style="fill: none; stroke: #b0b0b0; stroke-width: 0.8; stroke-linecap: square"/>
     </g>
     <g id="line2d_18">
      <g>
       <use xlink:href="#mee47737492" x="57.6" y="256.896" style="stroke: #000000; stroke-width: 0.8"/>
      </g>
     </g>
     <g id="text_9">
      <!-- 2 -->
      <g transform="translate(44.2375 260.695219) scale(0.1 -0.1)">
       <use xlink:href="#DejaVuSans-32"/>
      </g>
     </g>
    </g>
    <g id="ytick_3">
     <g id="line2d_19">
      <path d="M 57.6 206.208 
L 414.72 206.208 
" clip-path="url(#pc8e6a02850)" style="fill: none; stroke: #b0b0b0; stroke-width: 0.8; stroke-linecap: square"/>
     </g>
     <g id="line2d_20">
      <g>
       <use xlink:href="#mee47737492" x="57.6" y="206.208" style="stroke: #000000; stroke-width: 0.8"/>
      </g>
     </g>
     <g id="text_10">
      <!-- 4 -->
      <g transform="translate(44.2375 210.007219) scale(0.1 -0.1)">
       <use xlink:href="#DejaVuSans-34"/>
      </g>
     </g>
    </g>
    <g id="ytick_4">
     <g id="line2d_21">
      <path d="M 57.6 155.52 
L 414.72 155.52 
" clip-path="url(#pc8e6a02850)" style="fill: none; stroke: #b0b0b0; stroke-width: 0.8; stroke-linecap: square"/>
     </g>
     <g id="line2d_22">
      <g>
       <use xlink:href="#mee47737492" x="57.6" y="155.52" style="stroke: #000000; stroke-width: 0.8"/>
      </g>
     </g>
     <g id="text_11">
      <!-- 6 -->
      <g transform="translate(44.2375 159.319219) scale(0.1 -0.1)">
       <use xlink:href="#DejaVuSans-36"/>
      </g>
     </g>
    </g>
    <g id="ytick_5">
     <g id="line2d_23">
      <path d="M 57.6 104.832 
L 414.72 104.832 
" clip-path="url(#pc8e6a02850)" style="fill: none; stroke: #b0b0b0; stroke-width: 0.8; stroke-linecap: square"/>
     </g>
     <g id="line2d_24">
      <g>
       <use xlink:href="#mee47737492" x="57.6" y="104.832" style="stroke: #000000; stroke-width: 0.8"/>
      </g>
     </g>
     <g id="text_12">
      <!-- 8 -->
      <g transform="translate(44.2375 108.631219) scale(0.1 -0.1)">
       <use xlink:href="#DejaVuSans-38"/>
      </g>
     </g>
    </g>
    <g id="ytick_6">
     <g id="line2d_25">
      <path d="M 57.6 54.144 
L 414.72 54.144 
" clip-path="url(#pc8e6a02850)" style="fill: none; stroke: #b0b0b0; stroke-width: 0.8; stroke-linecap: square"/>
     </g>
     <g id="line2d_26">
      <g>
       <use xlink:href="#mee47737492" x="57.6" y="54.144" style="stroke: #000000; stroke-width: 0.8"/>
      </g>
     </g>
     <g id="text_13">
      <!-- 10 -->
      <g transform="translate(37.875 57.943219) scale(0.1 -0.1)">
       <use xlink:href="#DejaVuSans-31"/>
       <use xlink:href="#DejaVuSans-30" transform="translate(63.623047 0)"/>
      </g>
     </g>
    </g>
   </g>
   <g id="patch_28">
    <path d="M 57.6 307.584 
L 57.6 41.472 
" style="fill: none; stroke: #000000; stroke-width: 0.8; stroke-linejoin: miter; stroke-linecap: square"/>
   </g>
   <g id="patch_29">
    <path d="M 414.72 307.584 
L 414.72 41.472 
" style="fill: none; stroke: #000000; stroke-width: 0.8; stroke-linejoin: miter; stroke-linecap: square"/>
   </g>
   <g id="patch_30">
    <path d="M 57.6 307.584 
L 414.72 307.584 
" style="fill: none; stroke: #000000; stroke-width: 0.8; stroke-linejoin: miter; stroke-linecap: square"/>
   </g>
   <g id="patch_31">
    <path d="M 57.6 41.472 
L 414.72 41.472 
" style="fill: none; stroke: #000000; stroke-width: 0.8; stroke-linejoin: miter; stroke-linecap: square"/>
   </g>
   <g id="text_14">
    <!-- 0 -->
    <g transform="translate(232.3425 35.472) scale(0.12 -0.12)">
     <use xlink:href="#DejaVuSans-30"/>
    </g>
   </g>
  </g>
 </g>
 <defs>
  <clipPath id="pc8e6a02850">
   <rect x="57.6" y="41.472" width="357.12" height="266.112"/>
  </clipPath>
 </defs>
</svg>
